<?xml version="1.0" standalone="no"?>
<!DOCTYPE svg PUBLIC "-//W3C//DTD SVG 1.1//EN" "http://www.w3.org/Graphics/SVG/1.1/DTD/svg11.dtd" >
<svg xmlns="http://www.w3.org/2000/svg" xmlns:xlink="http://www.w3.org/1999/xlink" version="1.1">
<metadata></metadata>
<defs>
<font id="thongtermbold_oblique" horiz-adv-x="500" >
<font-face units-per-em="1000" ascent="800" descent="-200" />
<missing-glyph horiz-adv-x="278" />
<glyph unicode="&#xe2f;&#xe2f;" horiz-adv-x="757" d="M308 0l58 330q5 25 14.5 52.5t17.5 42.5l-2 2q-32 -37 -81 -65t-106 -28q-34 0 -61 9.5t-46 27t-29 40.5t-10 50q0 29 11 54t30 44t44 29.5t54 10.5q41 0 66.5 -23t25.5 -58q0 -20 -7 -36.5t-17.5 -30t-22.5 -22.5t-23 -13l-1 -5q34 3 64 18.5t54 39.5t43 54.5t33 63.5 h111l-104 -587h-116zM178 455q19 0 32 13t13 33q0 33 -31 33q-21 0 -34 -13t-13 -34q0 -14 8.5 -23t24.5 -9zM522 0l104 587h117l-104 -587h-117z" />
<glyph unicode="&#xe4f;&#x22;" horiz-adv-x="479" d="M325 278q0 -19 -8 -35.5t-21 -28.5t-30 -19t-35 -7q-29 0 -46.5 19t-17.5 47q0 19 7.5 35.5t20.5 29t29.5 19.5t34.5 7q29 0 47.5 -19t18.5 -48zM407 289q0 28 -10 53t-27.5 44t-42 29.5t-54.5 10.5q-37 0 -71 -15t-60 -40t-41.5 -58t-15.5 -70q0 -29 9.5 -53.5t27 -42.5 t42 -28.5t53.5 -10.5q37 0 71.5 14.5t60.5 39t42 57.5t16 70zM432 293q0 -43 -18.5 -81t-49 -66t-70 -44.5t-81.5 -16.5q-34 0 -62 11.5t-48 32.5t-31 49t-11 61q0 43 18 81t48 66.5t69 45.5t81 17q34 0 62.5 -12t49 -33t32 -49.5t11.5 -61.5zM232 519l31 181h42l-31 -181 h-42zM320 519l31 181h42l-31 -181h-42z" />
<glyph unicode="&#xe24;&#xe32;" horiz-adv-x="995" d="M712 -282l113 640q3 19 3 38q0 47 -26 71.5t-82 24.5q-49 0 -83 -15t-52 -34q2 -8 2 -15v-15q-1 -13 -2 -27t-3 -28l-113 -640h-118l113 640q3 18 3 35q0 48 -29 73.5t-89 25.5q-53 0 -90 -15t-55 -34l-2 -6q13 -2 28.5 -7t29.5 -11t26.5 -12.5t19.5 -12.5l-9 -51 q-42 -6 -69 -31t-35 -69l-1 -5q-2 -12 -5.5 -20t-9.5 -17l2 -2q11 8 32 8q35 0 57.5 -23t22.5 -61q0 -29 -10 -52.5t-27.5 -40.5t-41.5 -26.5t-52 -9.5q-47 0 -78.5 27t-31.5 70q0 5 0.5 9t1.5 9l23 135q7 42 40 74t73 46v2q-19 9 -50.5 14t-60.5 5l12 69q18 27 45.5 52.5 t62 44.5t76 30.5t88.5 11.5q122 0 176 -62q39 27 89 44.5t106 17.5q105 0 160.5 -47.5t55.5 -134.5q0 -12 -1.5 -25.5t-3.5 -27.5l-113 -640h-118zM168 66q21 0 33.5 13.5t12.5 34.5q0 14 -8 22.5t-24 8.5q-19 0 -32 -13t-13 -33q0 -33 31 -33z" />
<glyph unicode="&#xe26;&#xe32;" horiz-adv-x="1009" d="M726 -282l113 640q3 19 3 38q0 47 -26 71.5t-82 24.5q-44 0 -75.5 -12t-51.5 -29q2 -10 3 -20.5t1 -21.5q0 -12 -1.5 -24.5t-3.5 -26.5l-113 -640h-118l113 640q3 18 3 35q0 48 -28.5 73.5t-88.5 25.5q-53 0 -89.5 -15t-54.5 -34l-2 -6q13 -2 28.5 -7t29.5 -11 t26.5 -12.5t19.5 -12.5l-9 -51q-27 -6 -42 -27t-22 -63l-25 -144q-5 -25 -17.5 -46t-31 -36.5t-41.5 -24t-48 -8.5q-44 0 -73.5 25t-29.5 68q0 27 9.5 49t26 37.5t37 24.5t43.5 9q19 0 30 -8l2 2q-5 13 -5 23q0 4 2 14l5 26q8 42 27 64t44 36v2q-19 9 -50.5 14t-60.5 5 l12 69q18 27 45 52.5t62 44.5t76 30.5t88 11.5q60 0 102.5 -15t69.5 -43q38 26 86 42t102 16q105 0 160.5 -47.5t55.5 -134.5q0 -12 -1.5 -25.5t-3.5 -27.5l-113 -640h-118zM102 66q20 0 32.5 13t12.5 34q0 14 -8.5 23t-22.5 9q-20 0 -33 -13.5t-13 -33.5q0 -32 32 -32z" />
<glyph unicode="fi" d="M282 0l115 520h126l-115 -520h-126zM418 614l25 114h126l-25 -114h-126zM25 0l93 418h-57l22 102h57l12 52q10 47 26.5 78t39 49t51 25.5t63.5 7.5q14 0 29 -2l30 -4l-23 -104h-36q-23 0 -35.5 -13t-17.5 -33l-13 -56h75l-22 -102h-75l-93 -418h-126z" />
<glyph unicode="fl" d="M282 0l160 722h126l-160 -722h-126zM25 0l93 418h-57l22 102h57l12 52q10 47 26.5 78t39 49t51 25.5t63.5 7.5q14 0 29 -2l30 -4l-23 -104h-36q-23 0 -35.5 -13t-17.5 -33l-13 -56h75l-22 -102h-75l-93 -418h-126z" />
<glyph unicode=" "  horiz-adv-x="278" />
<glyph unicode="&#x09;" horiz-adv-x="278" />
<glyph unicode="&#xa0;" horiz-adv-x="278" />
<glyph unicode="!" horiz-adv-x="278" d="M108 244l78 478h146l-134 -478h-90zM28 0l31 142h142l-31 -142h-142z" />
<glyph unicode="&#x22;" horiz-adv-x="333" d="M259 452l60 270h110l-60 -270h-110zM84 452l60 270h110l-60 -270h-110z" />
<glyph unicode="#" horiz-adv-x="556" d="M242 0l74 206h-99l-75 -206h-96l74 206h-94l21 94h107l45 122h-94l20 94h106l75 206h96l-74 -206h99l75 206h96l-74 -206h86l-20 -94h-98l-45 -122h86l-21 -94h-99l-75 -206h-96zM395 422h-99l-45 -122h99z" />
<glyph unicode="$" horiz-adv-x="556" d="M167 -114l25 115q-26 0 -53 10.5t-52 28t-46 40t-34 47.5l103 78q17 -32 43.5 -58.5t63.5 -34.5l45 206q-32 10 -60.5 25t-50.5 36.5t-34.5 48.5t-12.5 61q0 53 22 95t57.5 72t80 47t88.5 19l14 64h78l-14 -64q61 -11 101 -39.5t66 -66.5l-95 -75q-16 26 -38.5 46.5 t-57.5 24.5l-41 -184q33 -13 63.5 -28.5t53.5 -36.5t36.5 -48.5t13.5 -64.5q0 -56 -22.5 -101.5t-59 -78t-84 -51t-96.5 -19.5l-25 -114h-78zM329 618q-17 0 -36 -6.5t-34.5 -18.5t-25.5 -29t-10 -39q0 -28 20.5 -47.5t48.5 -27.5zM294 110q22 0 42.5 8t36 22.5t24.5 34.5 t9 44q0 31 -21.5 46.5t-49.5 29.5z" />
<glyph unicode="%" horiz-adv-x="889" d="M478 581q0 -43 -19 -82.5t-50.5 -70t-72 -48.5t-82.5 -18q-33 0 -59.5 11t-45.5 29.5t-29.5 44.5t-10.5 56q0 43 19 82.5t50.5 70t72 48.5t83.5 18q33 0 59.5 -11t45 -29.5t29 -44.5t10.5 -56zM378 559q0 27 -18.5 46t-47.5 19q-19 0 -37 -8.5t-32.5 -22t-23.5 -31.5 t-9 -36q0 -27 18.5 -46.5t47.5 -19.5q19 0 37.5 8.5t32.5 22.5t23 32t9 36zM859 219q0 -43 -19 -82.5t-50.5 -70t-72 -48.5t-82.5 -18q-33 0 -59.5 11t-45.5 29.5t-29.5 44.5t-10.5 56q0 43 19 82.5t50.5 70t72 48.5t83.5 18q33 0 59.5 -11t45 -29.5t29 -44.5t10.5 -56z M759 196q0 27 -18.5 46.5t-47.5 19.5q-20 0 -38 -8.5t-32.5 -22.5t-23 -32t-8.5 -36q0 -27 18.5 -46t47.5 -19q19 0 37 8.5t32.5 22t23.5 31.5t9 36zM155 -10l579 742h85l-579 -742h-85z" />
<glyph unicode="&#x26;" horiz-adv-x="667" d="M313 456q18 13 38 27t37.5 31t29 37.5t11.5 44.5q0 20 -12.5 36t-38.5 16q-18 0 -34 -9t-27 -24t-17.5 -35t-6.5 -41t6 -41t14 -42zM590 -10q-26 0 -47.5 3.5t-41 12t-38 22.5t-39.5 36q-43 -35 -93 -54.5t-104 -19.5q-91 0 -144 37.5t-53 112.5q0 48 14 86t38 68 t55 53.5t65 42.5q-14 30 -21.5 57t-7.5 56q0 59 21.5 102.5t55 71.5t74.5 41.5t80 13.5q64 0 101 -36t37 -91q0 -43 -17 -77t-44 -62t-60 -51.5t-66 -45.5q40 -80 96 -147q28 35 52.5 69t43.5 72l105 -31q-28 -45 -58 -90t-68 -90q18 -15 41 -26t50 -14zM360 144 q-33 36 -60 74.5t-50 79.5q-30 -20 -52.5 -48t-22.5 -69q0 -39 24 -58t59 -19q28 0 55.5 11.5t46.5 28.5z" />
<glyph unicode="'" horiz-adv-x="222" d="M116 452l60 270h110l-60 -270h-110z" />
<glyph unicode="(" horiz-adv-x="333" d="M127 -84q-29 59 -45 125.5t-16 141.5q0 77 18.5 151.5t51 144t76.5 133.5t96 120h118q-46 -49 -90.5 -106.5t-80 -125t-57.5 -145.5t-22 -168q0 -81 20 -147t49 -124h-118z" />
<glyph unicode=")" horiz-adv-x="333" d="M-30 -84q45 49 90 106.5t81 125t58 145t22 167.5q0 81 -20.5 147t-49.5 125h118q29 -59 45.5 -126t16.5 -141q0 -77 -18.5 -152t-51 -144.5t-77 -133.5t-96.5 -119h-118z" />
<glyph unicode="*" d="M358 366l-34 134h-6l-94 -134l-62 57l129 104l-1 6l-142 18l46 89l118 -68l5 5l3 145h100l-61 -145l3 -5l148 68l6 -89l-150 -18l-3 -6l83 -104z" />
<glyph unicode="+" horiz-adv-x="600" d="M368 211l-47 -211h-122l47 211h-211l27 122h211l47 211h122l-47 -211h211l-27 -122h-211z" />
<glyph unicode="," horiz-adv-x="278" d="M4 -148l84 148h-60l31 142h142l-31 -142l-96 -148h-70z" />
<glyph unicode="-" horiz-adv-x="333" d="M51 217l24 110h246l-24 -110h-246z" />
<glyph unicode="." horiz-adv-x="278" d="M28 0l31 142h142l-31 -142h-142z" />
<glyph unicode="/" horiz-adv-x="278" d="M-100 -10l436 742h122l-436 -742h-122z" />
<glyph unicode="0" horiz-adv-x="556" d="M533 240q-26 -116 -102.5 -183t-194.5 -67q-97 0 -146.5 46.5t-49.5 128.5q0 34 9 75l54 242q26 116 102.5 183t194.5 67q97 0 146.5 -46.5t49.5 -129.5q0 -34 -9 -74zM452 467q9 42 9 70q0 46 -22 63.5t-64 17.5q-28 0 -50.5 -7t-39.5 -24.5t-30 -46.5t-23 -73l-47 -212 q-10 -41 -10 -72q0 -45 22 -62t64 -17q28 0 50 7t40 24.5t31 46.5t23 73z" />
<glyph unicode="1" horiz-adv-x="556" d="M195 0l122 552h-111l18 79q42 8 70 19t48 24t34 28l28 30h79l-162 -732h-126z" />
<glyph unicode="2" horiz-adv-x="556" d="M0 0l26 117q97 76 166.5 131t116.5 95.5t75.5 69t43.5 51t19.5 42t4.5 42.5q0 32 -19 51t-58 19q-51 0 -83 -27t-41 -68l-6 -26h-132l8 34q9 39 32.5 75.5t58 64.5t80 44.5t98.5 16.5q91 0 144.5 -39t53.5 -117q0 -49 -19.5 -93.5t-51 -85.5t-73 -78.5t-85.5 -72.5 t-87.5 -68t-79.5 -64h288l-25 -114h-455z" />
<glyph unicode="3" horiz-adv-x="556" d="M289 438q72 0 112 26t40 89q0 29 -19 47t-57 18q-37 0 -66.5 -23.5t-39.5 -60.5h-132q12 50 37.5 87t60.5 62t78 37t88 12q84 0 135.5 -37.5t51.5 -109.5q0 -29 -8.5 -59.5t-25 -58.5t-40.5 -51t-54 -37q39 -17 55.5 -46.5t16.5 -68.5q0 -68 -25 -119t-66 -85.5t-93 -52 t-105 -17.5q-102 0 -151 42t-49 117q0 26 8 63h132q-5 -23 -5 -38q0 -70 88 -70q29 0 53.5 11t42 30t27.5 45t10 55q0 42 -31 60t-94 19z" />
<glyph unicode="4" horiz-adv-x="556" d="M404 574h-2l-267 -282h207zM277 0l42 190h-317l26 116l398 416h137l-95 -430h101l-23 -102h-101l-42 -190h-126z" />
<glyph unicode="5" horiz-adv-x="556" d="M271 608l-33 -150q33 20 66.5 32t73.5 12q89 0 127 -40t38 -111q0 -21 -3.5 -44t-8.5 -49q-14 -63 -38.5 -112.5t-61 -84t-86.5 -53t-115 -18.5q-55 0 -92.5 12.5t-60.5 34t-33 50.5t-10 61q0 31 7 59h132q-5 -20 -5 -34q0 -34 22.5 -51.5t62.5 -17.5q64 0 97 40.5 t50 116.5q7 31 7 58q0 39 -19 60t-62 21q-34 0 -64 -15t-55 -41h-109l84 378h417l-25 -114h-303z" />
<glyph unicode="6" horiz-adv-x="556" d="M185 255q-5 -22 -7.5 -39.5t-2.5 -32.5q0 -45 22 -62t64 -17q27 0 51.5 12t44 34t31 53.5t11.5 70.5q0 41 -22.5 60.5t-60.5 19.5q-32 0 -62 -18t-61 -41zM447 533q1 4 1 8v8q0 31 -20.5 50t-52.5 19q-28 0 -50.5 -7t-39.5 -24.5t-30 -46.5t-23 -73l-15 -67 q39 26 81.5 41t85.5 15q77 0 114 -44t37 -110q0 -31 -7 -60q-12 -56 -36.5 -102t-60.5 -79.5t-85 -52t-110 -18.5q-97 0 -146.5 46.5t-49.5 128.5q0 34 9 75l54 242q26 116 102.5 183t194.5 67q85 0 133.5 -40.5t48.5 -119.5q0 -18 -3 -39h-132z" />
<glyph unicode="7" horiz-adv-x="556" d="M107 0l335 608h-317l25 114h456l-15 -66l-340 -656h-144z" />
<glyph unicode="8" horiz-adv-x="556" d="M397 239q0 38 -23 59.5t-65 21.5q-29 0 -54 -10.5t-44 -29.5t-30 -45.5t-11 -58.5q0 -33 20.5 -52.5t70.5 -19.5q60 0 96.5 36.5t39.5 98.5zM449 547q0 30 -19.5 50.5t-54.5 20.5q-22 0 -43 -9t-37 -25t-25.5 -36.5t-9.5 -42.5q0 -31 20.5 -51t53.5 -20q22 0 42.5 9 t36 24.5t25 36t11.5 43.5zM459 379q39 -17 56 -46.5t17 -69.5q0 -59 -22.5 -108.5t-62 -86.5t-93 -57.5t-114.5 -20.5q-45 0 -82.5 10t-64.5 30.5t-42.5 50.5t-15.5 70q0 38 10 73.5t29 65.5t47 53t64 36q-29 17 -43 47t-14 66q0 61 24 106.5t63 75t87.5 44t97.5 14.5 q40 0 74.5 -9t59.5 -27t39 -45.5t14 -64.5q0 -29 -8.5 -59.5t-25 -58.5t-40 -51.5t-54.5 -37.5z" />
<glyph unicode="9" horiz-adv-x="556" d="M452 467q9 42 9 70q0 46 -22 63.5t-64 17.5q-27 0 -52 -12t-44 -34.5t-30.5 -54.5t-11.5 -71q0 -40 22.5 -59t60.5 -19q32 0 62 18t61 41zM419 322q-39 -26 -81.5 -41t-85.5 -15q-39 0 -67 11.5t-47 32t-28 48.5t-9 61q0 60 21.5 116t61 100t94.5 70.5t122 26.5 q97 0 146.5 -46.5t49.5 -129.5q0 -34 -9 -74l-54 -242q-26 -116 -102.5 -183t-194.5 -67q-85 0 -133.5 40.5t-48.5 119.5q0 18 3 39h132q-1 -5 -1.5 -8.5t-0.5 -7.5q0 -31 20.5 -50t53.5 -19q27 0 49.5 7t40.5 24.5t31.5 46.5t22.5 73z" />
<glyph unicode=":" horiz-adv-x="278" d="M28 0l31 142h142l-31 -142h-142zM95 300l31 142h142l-31 -142h-142z" />
<glyph unicode=";" horiz-adv-x="278" d="M4 -148l84 148h-60l31 142h142l-31 -142l-96 -148h-70zM95 300l31 142h142l-31 -142h-142z" />
<glyph unicode="&#x3c;" horiz-adv-x="600" d="M38 224l21 96l596 233l-26 -117l-426 -164l353 -164l-26 -117z" />
<glyph unicode="=" horiz-adv-x="600" d="M62 333l27 122h544l-27 -122h-544zM8 89l27 122h544l-27 -122h-544z" />
<glyph unicode="&#x3e;" horiz-adv-x="600" d="M-14 -9l26 117l425 164l-352 164l26 117l492 -233l-21 -96z" />
<glyph unicode="?" horiz-adv-x="444" d="M157 240l22 98q3 13 17.5 33t34.5 42.5t43 46.5t42 47t31.5 42.5t12.5 33.5q0 21 -15 34t-36 13q-15 0 -31.5 -7.5t-31 -20t-25.5 -28.5t-16 -32l-108 32q35 75 97 116.5t139 41.5q31 0 59 -8.5t49 -25t33.5 -41.5t12.5 -57q0 -19 -4 -38q-8 -35 -38.5 -70.5t-65.5 -70.5 t-64.5 -68t-36.5 -63l-11 -50h-110zM88 0l31 142h142l-31 -142h-142z" />
<glyph unicode="@" horiz-adv-x="800" d="M397 252q27 0 51.5 12.5t43.5 32.5t30.5 45t11.5 50q0 27 -17 43.5t-46 16.5q-26 0 -50.5 -13t-43.5 -33.5t-30.5 -45t-11.5 -47.5q0 -28 16 -44.5t46 -16.5zM711 144q-69 -75 -153.5 -114.5t-177.5 -39.5q-69 0 -126.5 21t-99 59t-64.5 91t-23 117q0 93 41 176 t108 144.5t151.5 97.5t171.5 36q58 0 110 -16.5t91 -48t62 -76t23 -100.5q0 -89 -35 -155t-85.5 -109t-106.5 -64t-97 -21q-18 0 -30.5 10t-12.5 29q0 8 1 13l-2 1q-23 -21 -54 -37t-58 -16q-28 0 -51 10.5t-39.5 29.5t-25.5 44t-9 54q0 49 22.5 98t59 88t83.5 63.5t97 24.5 q37 0 64 -15t41 -47l23 50h90l-104 -244q-4 -10 -10 -22.5t-7 -23.5q0 -12 12 -12q19 0 44 14.5t47.5 43t38 70.5t15.5 98q0 45 -16 79t-44.5 57t-68.5 34.5t-89 11.5q-70 0 -133 -28.5t-111 -77.5t-76 -115t-28 -141q0 -50 16.5 -89t47 -66.5t74.5 -42t98 -14.5 q58 0 113 19t100 51h92z" />
<glyph unicode="A" horiz-adv-x="556" d="M365 566h-2l-132 -292h137zM371 0l-1 152h-191l-73 -152h-133l339 722h177l14 -722h-132z" />
<glyph unicode="B" horiz-adv-x="556" d="M22 0l160 722h194q96 0 147 -34.5t51 -103.5q0 -63 -33.5 -114t-94.5 -84q37 -28 55 -54.5t18 -66.5q0 -61 -22.5 -110t-62.5 -83.5t-93.5 -53t-116.5 -18.5h-202zM243 114q29 0 54 9.5t43.5 27t29 41.5t10.5 53q0 39 -27 58t-74 19h-48l-46 -208h58zM305 436 q27 0 50 8.5t39.5 23t26 34.5t9.5 43q0 29 -19 46t-61 17h-55l-38 -172h48z" />
<glyph unicode="C" horiz-adv-x="556" d="M517 232q-16 -66 -42.5 -112.5t-62 -75t-79.5 -41.5t-94 -13q-42 0 -77 8.5t-59.5 27.5t-38 49.5t-13.5 74.5q0 38 10 82l58 258q15 67 42 113t63 74.5t80.5 41.5t95.5 13q42 0 76 -8.5t58 -28t37.5 -50t13.5 -73.5q0 -18 -2.5 -39t-8.5 -45h-138l5 20q3 11 3.5 21 t1.5 18q0 36 -20 49.5t-53 13.5q-42 0 -70 -21t-42 -81l-66 -294q-3 -10 -4 -19t-1 -18q0 -29 16.5 -47t56.5 -18q42 0 70 21t42 81l11 48h138z" />
<glyph unicode="D" horiz-adv-x="556" d="M22 0l160 722h192q99 0 152 -39.5t53 -131.5q0 -17 -1.5 -37t-6.5 -42l-50 -222q-15 -69 -43 -116.5t-67 -77t-88.5 -43t-108.5 -13.5h-192zM429 456q8 38 8 61q0 44 -23 63.5t-73 19.5h-48l-106 -478h48q57 0 95.5 31.5t56.5 112.5z" />
<glyph unicode="E" d="M22 0l160 722h378l-27 -122h-240l-37 -166h183l-27 -122h-183l-42 -190h250l-27 -122h-388z" />
<glyph unicode="F" horiz-adv-x="444" d="M22 0l160 722h360l-27 -122h-222l-37 -166h174l-27 -122h-174l-69 -312h-138z" />
<glyph unicode="G" horiz-adv-x="556" d="M388 0l-8 60q-35 -32 -70 -51t-74 -19q-42 0 -76 8.5t-58 28t-37.5 49.5t-13.5 74q0 38 10 82l58 258q15 67 42 113t63 74.5t80.5 41.5t95.5 13q176 0 176 -167q0 -32 -8 -78h-138q7 29 7 54q0 38 -17.5 53.5t-46.5 15.5q-42 0 -70 -21t-42 -81l-66 -294q-3 -11 -4 -21 t-1 -19q0 -36 19.5 -49t53.5 -13q39 0 67 26.5t39 73.5l10 44h-97l25 114h235l-82 -370h-72z" />
<glyph unicode="H" horiz-adv-x="611" d="M363 0l69 312h-195l-69 -312h-138l160 722h138l-64 -288h195l64 288h138l-160 -722h-138z" />
<glyph unicode="I" horiz-adv-x="278" d="M30 0l160 722h138l-160 -722h-138z" />
<glyph unicode="J" horiz-adv-x="333" d="M-5 115q11 -1 19.5 -2t17.5 -1q47 0 66 15t27 54l120 541h138l-126 -569q-17 -73 -73.5 -118t-147.5 -45q-23 0 -38 0.5t-30 2.5z" />
<glyph unicode="K" horiz-adv-x="556" d="M358 0l-77 303l-72 -82l-49 -221h-138l160 722h138l-66 -298h2l245 298h151l-250 -291l111 -431h-155z" />
<glyph unicode="L" horiz-adv-x="444" d="M22 0l160 722h138l-133 -600h222l-27 -122h-360z" />
<glyph unicode="M" horiz-adv-x="778" d="M550 0l126 568h-2l-273 -568h-104l-21 568h-2l-126 -568h-118l160 722h193l20 -474h2l230 474h193l-160 -722h-118z" />
<glyph unicode="N" horiz-adv-x="611" d="M369 0l-108 466h-2l-103 -466h-126l160 722h151l97 -428h2l95 428h126l-160 -722h-132z" />
<glyph unicode="O" horiz-adv-x="556" d="M517 232q-15 -67 -42 -113t-63 -74.5t-80.5 -41.5t-95.5 -13q-42 0 -76 8.5t-58 28t-37.5 49.5t-13.5 74q0 38 10 82l58 258q15 67 41.5 113t63 74.5t81.5 41.5t95 13q42 0 76 -8.5t58 -28t37.5 -50t13.5 -73.5q0 -18 -2.5 -38.5t-7.5 -43.5zM441 508q5 23 5 36 q0 66 -73 66q-42 0 -70 -21t-42 -81l-66 -294q-3 -11 -4 -21t-1 -19q0 -36 19.5 -49t53.5 -13q42 0 70 21t42 81z" />
<glyph unicode="P" horiz-adv-x="556" d="M30 0l160 722h199q108 0 160 -40.5t52 -115.5q0 -65 -22 -116t-62.5 -86.5t-97 -54.5t-126.5 -19h-61l-64 -290h-138zM332 404q55 0 91.5 34t36.5 102t-83 68h-74l-45 -204h74z" />
<glyph unicode="Q" horiz-adv-x="556" d="M497 -53q-51 0 -80.5 20.5t-48.5 50.5q-30 -15 -63 -21.5t-69 -6.5q-42 0 -76 8.5t-58 28t-37.5 49.5t-13.5 74q0 38 10 82l58 258q15 67 42 113t63 74.5t80.5 41.5t95.5 13q42 0 76 -8.5t58 -28t37.5 -50t13.5 -73.5q0 -18 -2.5 -38.5t-7.5 -43.5l-58 -258 q-19 -86 -60 -141q12 -11 28 -17t39 -7zM441 508q5 25 5 39q0 36 -20 49.5t-53 13.5q-42 0 -70 -21t-42 -81l-66 -294q-3 -11 -4 -21t-1 -19q0 -36 19.5 -49t53.5 -13q32 0 54 11q-10 20 -21 35.5t-27 21.5l27 120q32 -5 51 -22.5t31 -43.5h2z" />
<glyph unicode="R" horiz-adv-x="556" d="M346 0l-55 294h-66l-65 -294h-138l160 722h200q105 0 154.5 -40t49.5 -114q0 -89 -42 -155t-115 -91l65 -322h-148zM321 408q24 0 46.5 7.5t40 24t28 41t10.5 59.5t-23.5 51.5t-76.5 16.5h-51l-45 -200h71z" />
<glyph unicode="S" horiz-adv-x="556" d="M443 521q-6 51 -25 74t-55 23q-18 0 -35 -6.5t-30.5 -18t-21.5 -28.5t-8 -38q0 -22 17.5 -40t44.5 -35t57.5 -35.5t57.5 -42.5t44.5 -55.5t17.5 -74.5q0 -56 -21.5 -103t-59.5 -80.5t-89.5 -52t-110.5 -18.5q-84 0 -135.5 48t-55.5 155l142 29v-9q0 -30 7 -51t18.5 -33.5 t26 -18.5t29.5 -6q19 0 38 7t34 20.5t24.5 33t9.5 43.5q0 27 -17.5 48t-44.5 39.5t-57.5 37t-57.5 40.5t-44.5 51t-17.5 68q0 19 4 38q21 94 87.5 148t174.5 54q46 0 80.5 -13t57 -36.5t34 -55.5t11.5 -70z" />
<glyph unicode="T" d="M141 0l133 600h-161l27 122h460l-27 -122h-161l-133 -600h-138z" />
<glyph unicode="U" horiz-adv-x="611" d="M523 722h138l-112 -506q-13 -60 -39.5 -102.5t-63.5 -70t-83.5 -40.5t-99.5 -13q-90 0 -141.5 37t-51.5 119q0 16 1.5 33t6.5 37l112 506h138l-112 -505q-5 -23 -5 -37q0 -68 79 -68q98 0 121 105z" />
<glyph unicode="V" horiz-adv-x="556" d="M160 0l-25 722h136l13 -516h2l240 516h135l-344 -722h-157z" />
<glyph unicode="W" horiz-adv-x="833" d="M478 0l9 494h-2l-219 -494h-132l9 722h128l-8 -472h2l204 472h133l-5 -472h2l201 472h129l-318 -722h-133z" />
<glyph unicode="X" horiz-adv-x="556" d="M358 0l-63 255l-177 -255h-149l278 380l-101 342h148l56 -216l152 216h148l-251 -342l108 -380h-149z" />
<glyph unicode="Y" horiz-adv-x="556" d="M169 0l65 292l-102 430h147l57 -291l181 291h147l-292 -430l-65 -292h-138z" />
<glyph unicode="Z" d="M-7 0l26 117l380 483h-245l27 122h400l-26 -116l-380 -484h279l-27 -122h-434z" />
<glyph unicode="[" horiz-adv-x="333" d="M-6 -74l176 796h234l-13 -60h-124l-150 -676h124l-13 -60h-234z" />
<glyph unicode="\" horiz-adv-x="278" d="M172 -10l-108 742h122l108 -742h-122z" />
<glyph unicode="]" horiz-adv-x="333" d="M-7 -74l13 60h124l150 676h-124l13 60h234l-176 -796h-234z" />
<glyph unicode="^" horiz-adv-x="600" d="M460 320l-67 282l-193 -282h-117l283 402h108l105 -402h-119z" />
<glyph unicode="_" d="M-68 -125l11 50h500l-11 -50h-500z" />
<glyph unicode="`" horiz-adv-x="278" d="M218 610l-114 146h155l60 -146h-101z" />
<glyph unicode="a" d="M276 0q0 11 1 23.5t2 29.5q-34 -28 -75 -45.5t-89 -17.5t-74.5 21.5t-26.5 66.5q0 58 26.5 100t72 73.5t105.5 54t128 41.5l9 40q1 5 1.5 9.5t0.5 9.5q0 25 -15 35.5t-38 10.5q-29 0 -53.5 -19t-31.5 -48h-126q14 45 39 77.5t57 52.5t69 29.5t75 9.5q83 0 118.5 -31.5 t35.5 -84.5q0 -24 -6 -49l-76 -345q-2 -8 -3 -15t-1 -15q0 -4 0.5 -7t0.5 -7h-126zM328 266q-33 -11 -65.5 -25t-58 -32t-41.5 -39t-16 -45q0 -41 46 -41q29 0 53.5 13.5t52.5 36.5z" />
<glyph unicode="b" d="M357 330q10 44 10 73q0 35 -12.5 46t-30.5 11q-40 0 -85 -39l-66 -298q27 -39 68 -39q13 0 25 5t23.5 19.5t22 39.5t19.5 66zM456 206q-23 -106 -67.5 -161t-118.5 -55q-21 0 -40 7t-34.5 18t-26.5 24.5t-16 26.5h-2l-15 -66h-116l160 722h126l-50 -228q52 33 82.5 46.5 t56.5 13.5q54 0 78.5 -29.5t24.5 -86.5q0 -22 -3.5 -46.5t-9.5 -53.5z" />
<glyph unicode="c" d="M328 198h126q-24 -110 -87.5 -159t-158.5 -49q-78 0 -120.5 33t-42.5 105q0 15 1.5 32t6.5 36l34 152q24 108 87.5 157t158.5 49q78 0 120 -32.5t42 -103.5q0 -30 -7 -62h-125l5 24q1 5 1.5 9t0.5 8q0 23 -16.5 35t-45.5 12q-33 0 -57 -16t-31 -48l-48 -216 q-1 -5 -1.5 -8.5t-0.5 -7.5q0 -24 16.5 -36t45.5 -12q34 0 57 16t31 48z" />
<glyph unicode="d" d="M367 421q-27 39 -67 39q-13 0 -25.5 -5t-24 -19.5t-22 -40t-19.5 -65.5l-26 -116q-10 -44 -10 -72q0 -35 12.5 -46.5t31.5 -11.5q21 0 41 9.5t43 29.5zM284 0l15 66h-2q-11 -13 -28.5 -26.5t-37.5 -24.5t-42 -18t-43 -7q-54 0 -78.5 29.5t-24.5 86.5q0 21 3 46t10 54 l29 132q23 106 67.5 161t118.5 55q26 0 50.5 -13.5t62.5 -46.5l50 228h126l-160 -722h-116z" />
<glyph unicode="e" d="M190 242l-16 -72q-3 -14 -3 -25q0 -28 16.5 -40.5t42.5 -12.5q40 0 62 22t29 54h126q-23 -85 -83 -131.5t-156 -46.5q-77 0 -120 37.5t-43 104.5q0 24 6 51l39 178q10 45 32 80.5t54 60.5t72 38.5t85 13.5q76 0 120 -38t44 -104q0 -18 -5 -43l-28 -127h-274zM367 374 q3 13 3 26q0 24 -14.5 38t-45.5 14q-38 0 -60.5 -21t-30.5 -57l-7 -30h148z" />
<glyph unicode="f" horiz-adv-x="278" d="M25 0l93 418h-57l22 102h57l12 52q10 47 26.5 78t39 49t51 25.5t63.5 7.5q14 0 29 -2l30 -4l-23 -104h-36q-23 0 -35.5 -13t-17.5 -33l-13 -56h75l-22 -102h-75l-93 -418h-126z" />
<glyph unicode="g" d="M231 232q20 0 35 4.5t26.5 17.5t20 35t16.5 58q6 27 6 47q0 58 -49 58q-36 0 -57 -27t-35 -91q-6 -27 -6 -47q0 -55 43 -55zM454 406q0 -16 -1 -30.5t-5 -31.5q-23 -103 -79 -158.5t-150 -55.5q-14 0 -25.5 1t-25.5 6q-7 -8 -18 -15t-11 -17q0 -15 21 -20t53 -7t68.5 -4 t68.5 -11t53 -29t21 -57q0 -43 -21 -75t-57.5 -53t-87.5 -31t-111 -10q-93 0 -140.5 22.5t-47.5 61.5q0 20 10 35t24.5 26t31.5 20.5t31 18.5q-16 11 -26 25.5t-10 34.5t9.5 36t23.5 29.5t31.5 24t32.5 18.5q-26 20 -38 47t-12 63q0 57 14.5 108.5t44.5 90.5t75.5 62 t107.5 23q39 0 74.5 -17t53.5 -46q31 30 60 46.5t64 16.5l-25 -110q-23 5 -37 5q-12 0 -22.5 -2.5t-22.5 -6.5v-34zM123 -24q-11 -5 -24 -20t-13 -30q0 -18 27.5 -26t79.5 -8q48 0 77 13t29 38q0 10 -9 14.5t-32 6.5z" />
<glyph unicode="h" d="M274 0l89 400q3 13 3 24q0 17 -8 26.5t-28 9.5t-44.5 -15.5t-48.5 -33.5l-91 -411h-126l160 722h126l-53 -240q38 30 76 51t77 21q46 0 69.5 -19.5t23.5 -64.5q0 -12 -1.5 -26t-5.5 -30l-92 -414h-126z" />
<glyph unicode="i" horiz-adv-x="278" d="M36 0l121 544h126l-121 -544h-126zM177 638l26 114h126l-26 -114h-126z" />
<glyph unicode="j" horiz-adv-x="278" d="M-55 -78q41 0 60 12t25 38l127 572h126l-131 -588q-9 -39 -27.5 -67t-43.5 -46t-55 -26.5t-61 -8.5q-24 0 -45 3zM177 638l26 114h126l-26 -114h-126z" />
<glyph unicode="k" d="M307 0l-35 255l-83 -89l-37 -166h-126l160 722h126l-86 -389h2l181 211h141l-166 -184l56 -360h-133z" />
<glyph unicode="l" horiz-adv-x="278" d="M36 0l160 722h126l-160 -722h-126z" />
<glyph unicode="m" horiz-adv-x="722" d="M496 0l92 414q3 12 3 20q0 15 -7.5 20.5t-18.5 5.5q-9 0 -21 -4.5t-25 -12t-24.5 -16t-19.5 -16.5l-91 -411h-126l92 414q2 6 2 10.5v9.5q0 15 -7 20.5t-19 5.5q-10 0 -22.5 -4.5t-24.5 -12t-23.5 -16t-18.5 -16.5l-91 -411h-126l121 544h122l-14 -62q37 28 74 50t77 22 q35 0 55 -22t23 -60q36 32 73 57t79 25q90 0 90 -87q0 -28 -7 -57l-91 -410h-126z" />
<glyph unicode="n" d="M274 0l89 400q3 13 3 24q0 17 -8 26.5t-28 9.5t-44.5 -15.5t-48.5 -33.5l-91 -411h-126l121 544h122l-14 -62q42 30 80 51t77 21q46 0 69.5 -19.5t23.5 -64.5q0 -12 -1.5 -26t-5.5 -30l-92 -414h-126z" />
<glyph unicode="o" d="M453 196q-24 -108 -87 -157t-158 -49q-78 0 -120.5 33t-42.5 105q0 15 1.5 32t6.5 36l34 152q24 108 87.5 157t158.5 49q78 0 120 -32.5t42 -104.5q0 -15 -1.5 -32t-6.5 -37zM368 380q1 5 1.5 9t0.5 8q0 23 -16.5 35t-45.5 12q-33 0 -57 -16t-31 -48l-48 -216 q-1 -5 -1.5 -8.5t-0.5 -7.5q0 -24 16.5 -36t45.5 -12q33 0 57 16t31 48z" />
<glyph unicode="p" d="M357 330q10 44 10 73q0 35 -12.5 46t-30.5 11q-40 0 -85 -39l-66 -298q27 -39 68 -39q13 0 25 5t23.5 19.5t22 39.5t19.5 66zM-23 -192l164 736h116l-15 -66h2q11 13 28 26.5t37.5 24.5t42.5 18t43 7q54 0 78.5 -29.5t24.5 -86.5q0 -22 -3.5 -46.5t-9.5 -53.5l-29 -132 q-23 -106 -67.5 -161t-118.5 -55q-26 0 -50.5 13.5t-62.5 46.5l-54 -242h-126z" />
<glyph unicode="q" d="M367 421q-27 39 -67 39q-13 0 -25.5 -5t-24 -19.5t-22 -40t-19.5 -65.5l-26 -116q-10 -44 -10 -72q0 -35 12.5 -46.5t31.5 -11.5q21 0 41 9.5t43 29.5zM231 -192l54 242q-53 -33 -83 -46.5t-56 -13.5q-54 0 -78.5 29.5t-24.5 86.5q0 21 3 46t10 54l29 132 q23 106 67.5 161t118.5 55q21 0 40 -7t34.5 -18t26.5 -24.5t16 -26.5h2l15 66h116l-164 -736h-126z" />
<glyph unicode="r" horiz-adv-x="333" d="M20 0l121 544h123l-16 -72h2q31 41 65.5 61.5t82.5 20.5l-30 -136q-15 5 -31 9.5t-33 4.5q-31 0 -51 -19t-25 -41l-82 -372h-126z" />
<glyph unicode="s" horiz-adv-x="444" d="M344 378q-5 38 -23.5 56t-47.5 18q-23 0 -43 -17t-20 -41q0 -18 14.5 -31t36 -25.5t47 -26t47 -30.5t36 -40t14.5 -55q0 -48 -19.5 -84.5t-51 -61.5t-70.5 -37.5t-79 -12.5q-29 0 -54.5 5t-47.5 21.5t-39.5 47t-29.5 81.5l120 31q0 -38 17.5 -61t55.5 -23q32 0 52.5 16 t20.5 45q0 20 -14.5 34.5t-35.5 26.5t-46.5 24.5t-46.5 29.5t-35.5 40t-14.5 57q0 48 19.5 83.5t50 59t67.5 35t73 11.5q71 0 110.5 -37t49.5 -99z" />
<glyph unicode="t" horiz-adv-x="278" d="M223 -5q-19 -3 -37 -4t-36 -1q-54 0 -85 18t-31 60q0 15 4 30l71 320h-50l22 102h50l33 148h126l-33 -148h81l-22 -102h-81l-62 -278q-1 -3 -1 -9q0 -16 13 -23.5t36 -7.5h13t12 1z" />
<glyph unicode="u" d="M278 0l14 62q-42 -30 -80 -51t-77 -21q-46 0 -69.5 19.5t-23.5 64.5q0 25 7 56l92 414h126l-89 -400q-3 -14 -3 -24q0 -17 8 -26.5t28 -9.5t44 15.5t48 33.5l92 411h126l-121 -544h-122z" />
<glyph unicode="v" horiz-adv-x="444" d="M120 0l-27 544h126l5 -350h2l161 350h126l-269 -544h-124z" />
<glyph unicode="w" horiz-adv-x="667" d="M367 0l-2 340h-2l-142 -340h-118l-9 544h118l-3 -340h2l149 340h108l1 -340h2l145 340h118l-249 -544h-118z" />
<glyph unicode="x" horiz-adv-x="444" d="M264 0l-43 176l-121 -176h-134l211 280l-79 264h134l36 -156l108 156h134l-197 -265l85 -279h-134z" />
<glyph unicode="y" horiz-adv-x="444" d="M-26 -80q9 -2 18 -2h19q21 0 39.5 8t32.5 19t23.5 23.5t11.5 21.5q5 24 4.5 52t-2.5 63l-28 439h128l5 -360h2l159 360h128l-266 -542q-27 -55 -53 -92.5t-56 -60t-66.5 -32t-83.5 -9.5q-9 0 -18.5 0.5t-20.5 1.5z" />
<glyph unicode="z" horiz-adv-x="444" d="M-9 0l24 108l299 326h-207l25 110h362l-24 -108l-304 -326h231l-24 -110h-382z" />
<glyph unicode="{" horiz-adv-x="333" d="M123 -84q-18 0 -34.5 5t-29 16t-20.5 27t-8 39q0 16 4 32l43 197q3 12 3 21q0 25 -17 33.5t-43 8.5l14 60q30 0 53.5 12.5t31.5 50.5l43 195q7 31 22 53.5t34.5 37t41.5 21.5t43 7h79l-13 -60h-31q-27 0 -43 -14t-24 -47l-43 -194q-10 -43 -35.5 -64t-63.5 -27v-2 q29 -5 45.5 -20.5t16.5 -44.5q0 -13 -3 -26l-44 -196q-3 -14 -3 -24q0 -20 10.5 -28.5t32.5 -8.5h31l-14 -60h-79z" />
<glyph unicode="|" horiz-adv-x="460" d="M221 -279v1117h101v-1117h-101z" />
<glyph unicode="}" horiz-adv-x="333" d="M13 -84l14 60h31q27 0 42.5 14t23.5 47l43 194q10 43 36 64t63 27l1 2q-29 5 -45.5 20t-16.5 44q0 12 3 27l43 196q3 13 3 25q0 36 -42 36h-31l13 60h79q18 0 34.5 -5.5t29.5 -16t21 -27.5t8 -39q0 -7 -1 -15t-3 -16l-44 -197q-3 -12 -3 -20q0 -26 17 -34.5t43 -8.5 l-13 -60q-30 0 -53.5 -12.5t-31.5 -50.5l-43 -195q-7 -31 -22 -53.5t-35 -37t-42 -21.5t-43 -7h-79z" />
<glyph unicode="~" horiz-adv-x="600" d="M568 271q-15 -17 -32 -33.5t-35.5 -29.5t-40 -21t-46.5 -8q-32 0 -56 11.5t-48 25t-51.5 25t-66.5 11.5q-16 0 -30.5 -7t-27 -18t-24 -24.5t-20.5 -27.5l-18 96q13 17 28.5 34t35 30t42.5 21t50 8q28 0 57 -11.5t57.5 -25t54.5 -25t49 -11.5q14 0 27.5 7t27 18t26 25 t25.5 28z" />
<glyph />
<glyph unicode="&#xa1;" horiz-adv-x="278" d="M-13 -178l134 478h90l-78 -478h-146zM117 402l32 142h142l-32 -142h-142z" />
<glyph unicode="&#xa2;" horiz-adv-x="556" d="M328 444h-2q-39 0 -64 -16t-32 -48l-48 -216q-1 -4 -1.5 -7t-0.5 -7q0 -8 3 -15zM38 -140l76 154q-29 17 -44 46t-15 71q0 15 2 31t6 34l34 152q24 108 88.5 157t165.5 49h15.5t14.5 -2l62 124h89l-71 -144q64 -30 64 -115q0 -14 -2 -29t-5 -32h-125l5 24q2 10 2 14 q0 8 -2.5 14.5t-6.5 11.5l-153 -319q4 -1 12 -1q85 0 100 64l8 34h126q-24 -110 -89 -159t-169 -49h-16.5t-17.5 2l-65 -132h-89z" />
<glyph unicode="&#xa3;" horiz-adv-x="556" d="M541 218q-10 -44 -26 -85.5t-42.5 -73t-66 -50.5t-96.5 -19q-26 0 -45.5 2.5t-38.5 9.5t-40.5 19.5t-49.5 33.5q-23 -17 -42 -29.5t-37 -20.5t-36.5 -11.5t-39.5 -3.5l27 122q25 1 48 17.5t41.5 44t30 65t14.5 79.5h-96l20 88h83q2 32 4.5 65.5t9.5 65.5q11 48 35.5 84.5 t58 61t73 37t80.5 12.5q101 0 147 -39.5t46 -110.5q0 -32 -7 -64h-126q1 8 1.5 16t0.5 15q0 34 -16 53.5t-58 19.5q-41 0 -64 -21.5t-34 -53.5t-14.5 -70t-4.5 -71h132l-20 -88h-120q-2 -10 -8 -31.5t-14 -47t-18.5 -50.5t-21.5 -41q23 -18 49.5 -31t64.5 -13t59.5 29.5 t36.5 84.5h120z" />
<glyph unicode="&#xa4;" horiz-adv-x="556" d="M462 102l-45 58q-29 -23 -70 -36t-84 -13t-78.5 13t-55.5 36l-69 -58l-46 58l69 56q-20 34 -20 84q0 28 6 57t17 56t26.5 51t34.5 42l-43 56l70 58l45 -58q29 23 70 36t84 13t78.5 -13t55.5 -36l69 58l46 -58l-69 -56q20 -34 20 -85q0 -28 -6 -56.5t-17 -55.5t-26.5 -51 t-34.5 -42l43 -56zM454 361q4 19 4 40q0 47 -26.5 77.5t-80.5 30.5q-36 0 -68 -15.5t-55.5 -41.5t-37 -60t-13.5 -71q0 -47 27 -77.5t81 -30.5q32 0 60 11.5t50 31.5t37 47t22 58z" />
<glyph unicode="&#xa5;" horiz-adv-x="556" d="M342 204l-45 -204h-118l45 204h-162l20 88h158l-16 72h-126l19 88h86l-65 270h122l69 -322l207 322h122l-185 -270h86l-19 -88h-126l-48 -72h158l-20 -88h-162z" />
<glyph unicode="&#xa6;" horiz-adv-x="460" d="M221 363v391h101v-391h-101zM221 -194v389h101v-389h-101z" />
<glyph unicode="&#xa7;" d="M126 54q6 -21 25.5 -37.5t52.5 -16.5q22 0 42.5 15.5t20.5 42.5q0 20 -13 43t-32 48t-42 51.5t-42 53t-32 52.5t-13 51q0 29 10.5 53.5t29 43.5t43 32t52.5 18q-12 20 -19 38t-7 39q0 38 12 66.5t34 47t52 28t65 9.5q52 0 85 -19t57 -61l-80 -54q-12 19 -28.5 34.5 t-42.5 15.5q-23 0 -40.5 -15t-17.5 -36q0 -18 13 -39t32 -44t42 -48t42 -51.5t32 -55t13 -58.5q0 -31 -12 -55t-31 -41.5t-44 -28.5t-50 -15q14 -19 21.5 -40.5t7.5 -46.5q0 -38 -16 -67.5t-41.5 -49.5t-56.5 -30.5t-62 -10.5q-32 0 -54 6.5t-37.5 18t-27 27t-23.5 33.5z M323 227q19 0 34.5 15.5t15.5 35.5q0 7 -15 32.5t-35.5 54t-42.5 51t-36 22.5q-17 0 -32.5 -13.5t-15.5 -33.5q0 -13 9 -32t33 -52q31 -43 51 -61.5t34 -18.5z" />
<glyph unicode="&#xa8;" horiz-adv-x="278" d="M81 618l25 114h120l-25 -114h-120zM271 618l25 114h120l-25 -114h-120z" />
<glyph unicode="&#xa9;" horiz-adv-x="800" d="M833 449q0 -71 -20 -133t-55 -113t-81.5 -90.5t-99.5 -67t-109 -41.5t-110 -14q-65 0 -121.5 19t-98.5 55t-66.5 88.5t-24.5 120.5q0 71 20 133t55 113t81.5 90.5t99.5 67t109 41.5t110 14q65 0 121.5 -19t98.5 -55.5t66.5 -89t24.5 -119.5zM709 361q8 38 8 70 q0 48 -16 87.5t-44.5 67.5t-67.5 43t-86 15q-63 0 -124 -26.5t-109 -73.5t-77.5 -112t-29.5 -142q0 -48 15.5 -87.5t43.5 -67t67.5 -42.5t87.5 -15q55 0 108.5 20.5t98.5 58t78 89.5t47 115zM622 305q-15 -38 -38 -67.5t-51.5 -49.5t-60.5 -30t-64 -10q-80 0 -122.5 45 t-42.5 115q0 57 20.5 106.5t55.5 86t82 58t101 21.5q64 0 103.5 -35t39.5 -104v-13h-86q0 35 -22 49.5t-55 14.5q-27 0 -51 -12t-42.5 -34t-29.5 -52t-11 -67q0 -41 20.5 -66t58.5 -25q37 0 65 16.5t40 52.5h90z" />
<glyph unicode="&#xaa;" horiz-adv-x="300" d="M239 400v5q0 5 0.5 12t1.5 15q-19 -17 -45.5 -27.5t-57.5 -10.5t-48.5 13t-17.5 41q0 34 17 59.5t45 44.5t65 33t78 25l5 22q1 3 1 9q0 21 -28 21q-19 0 -33 -10.5t-17 -24.5h-90q9 32 26.5 52.5t39 32t45.5 16t47 4.5q55 0 78.5 -19.5t23.5 -51.5q0 -13 -3 -28l-46 -207 q-2 -10 -2 -16q0 -7 1 -10h-86zM263 548q-18 -6 -35 -13t-30.5 -15.5t-22 -18.5t-8.5 -23q0 -10 7 -14t16 -4q19 0 34 8t27 22z" />
<glyph unicode="&#xab;" horiz-adv-x="556" d="M371 112l-87 160l158 160h110l-158 -160l87 -160h-110zM167 112l-87 160l158 160h110l-158 -160l87 -160h-110z" />
<glyph unicode="&#xac;" horiz-adv-x="600" d="M430 89l54 244h-422l27 122h544l-81 -366h-122z" />
<glyph unicode="&#xad;" horiz-adv-x="333" d="M51 217l24 110h246l-24 -110h-246z" />
<glyph unicode="&#xae;" horiz-adv-x="800" d="M460 158l-50 167h-41l-37 -167h-88l90 407h153q69 0 106.5 -19t37.5 -68q0 -38 -11.5 -64.5t-30 -44t-41.5 -26t-46 -9.5l55 -176h-97zM462 397q36 0 56 14t20 52q0 17 -16 23.5t-54 6.5h-62l-21 -96h77zM833 449q0 -71 -20 -133t-55 -113t-81.5 -90.5t-99.5 -67 t-109 -41.5t-110 -14q-65 0 -121.5 19t-98.5 55t-66.5 88.5t-24.5 120.5q0 71 20 133t55 113t81.5 90.5t99.5 67t109 41.5t110 14q65 0 121.5 -19t98.5 -55.5t66.5 -89t24.5 -119.5zM709 361q8 38 8 70q0 48 -16 87.5t-44.5 67.5t-67.5 43t-86 15q-63 0 -124 -26.5 t-109 -73.5t-77.5 -112t-29.5 -142q0 -48 15.5 -87.5t43.5 -67t67.5 -42.5t87.5 -15q55 0 108.5 20.5t98.5 58t78 89.5t47 115z" />
<glyph unicode="&#xaf;" horiz-adv-x="278" d="M67 640l16 74h348l-16 -74h-348z" />
<glyph unicode="&#xb0;" horiz-adv-x="400" d="M271 502q20 0 39 9t33.5 23.5t23 34t8.5 40.5q0 29 -17 48t-48 19q-21 0 -39.5 -9t-33 -24t-23 -35t-8.5 -41q0 -28 17 -46.5t48 -18.5zM438 620q0 -35 -15.5 -66.5t-40.5 -55.5t-57 -38t-66 -14q-53 0 -84.5 31.5t-31.5 79.5q0 35 15 67t40 56t57.5 38t66.5 14 q53 0 84.5 -31.5t31.5 -80.5z" />
<glyph unicode="&#xb1;" horiz-adv-x="600" d="M385 288l-30 -134h-122l30 134h-211l27 122h211l30 134h122l-30 -134h211l-27 -122h-211zM-12 0l27 122h544l-27 -122h-544z" />
<glyph unicode="&#xb2;" horiz-adv-x="333" d="M40 292l16 75q89 66 142 106t80.5 66t36 43t8.5 36q0 17 -10.5 28.5t-36.5 11.5q-34 0 -51.5 -15.5t-22.5 -35.5l-4 -16h-90l5 21q6 24 20.5 45.5t36.5 38t51 26.5t64 10q60 0 95.5 -23.5t35.5 -71.5q0 -44 -25.5 -81.5t-62.5 -71t-79 -63t-76 -55.5h179l-16 -74h-296z " />
<glyph unicode="&#xb3;" horiz-adv-x="333" d="M223 558q41 0 66.5 13.5t25.5 48.5q0 16 -12 27t-35 11t-40.5 -14t-22.5 -35h-90q7 31 23.5 54.5t39 38.5t50 22.5t57.5 7.5q55 0 88.5 -22.5t33.5 -67.5q0 -17 -5 -35t-15.5 -34.5t-25.5 -30t-34 -22.5q26 -11 37.5 -28.5t11.5 -42.5q0 -40 -16.5 -70.5t-42.5 -51 t-59.5 -31t-67.5 -10.5q-68 0 -99.5 26.5t-31.5 71.5q0 19 4 36h90q-3 -12 -3 -21q0 -39 55 -39q35 0 57.5 22t22.5 57q0 25 -20 35t-59 10z" />
<glyph unicode="&#xb4;" horiz-adv-x="278" d="M250 610h-101l126 146h155z" />
<glyph unicode="&#xb5;" d="M278 0l14 62q-38 -28 -74 -48.5t-74 -23.5l-41 -182h-126l164 736h126l-89 -400q-3 -14 -3 -24q0 -17 8 -26.5t28 -9.5t44 15.5t48 33.5l92 411h126l-121 -544h-122z" />
<glyph unicode="&#xb6;" horiz-adv-x="556" d="M309 -84l160 722h-68l-160 -722h-110l101 454q-72 0 -109.5 33t-37.5 93q0 11 1 22.5t4 24.5q20 89 80 134t174 45h322l-19 -84h-68l-160 -722h-110z" />
<glyph unicode="&#xb7;" horiz-adv-x="278" d="M237 288q0 -17 -7.5 -33t-20.5 -29.5t-30.5 -21.5t-36.5 -8q-29 0 -45 17.5t-16 42.5q0 16 7.5 32.5t20.5 30t30.5 21.5t36.5 8q29 0 45 -17.5t16 -42.5z" />
<glyph unicode="&#xb8;" horiz-adv-x="278" d="M63 -63q8 5 16.5 6t16.5 1q30 0 52 -16.5t22 -45.5q0 -30 -15.5 -51t-38 -34t-48.5 -19t-48 -6q-29 0 -54 7t-49 18l28 42q17 -7 35 -12t37 -5q9 0 20.5 2.5t21.5 8t16.5 14.5t6.5 22t-10 21t-24 8q-12 0 -23 -2.5t-23 -5.5l-17 20l79 90h53l-56 -61z" />
<glyph unicode="&#xb9;" horiz-adv-x="333" d="M168 292l73 330h-67l12 54q24 4 40.5 10t28.5 13t20.5 15t17.5 18h62l-97 -440h-90z" />
<glyph unicode="&#xba;" horiz-adv-x="300" d="M355 518q-14 -66 -55.5 -95t-102.5 -29q-51 0 -79 20t-28 64q0 9 1.5 19t3.5 21l20 91q14 65 54.5 94t102.5 29q51 0 79 -20t28 -65q0 -19 -4 -38zM287 620q1 4 1.5 7t0.5 6q0 25 -33 25q-41 0 -49 -38l-25 -114q-1 -4 -1.5 -7t-0.5 -6q0 -25 34 -25q21 0 32 9.5t16 28.5 z" />
<glyph unicode="&#xbb;" horiz-adv-x="556" d="M45 112l157 160l-86 160h110l86 -160l-157 -160h-110zM249 112l157 160l-86 160h110l86 -160l-157 -160h-110z" />
<glyph unicode="&#xbc;" horiz-adv-x="834" d="M672 315h-2l-129 -131h102zM602 0l25 114h-198l16 70l254 249h89l-55 -249h66l-16 -70h-66l-25 -114h-90zM172 292l73 330h-67l12 54q24 4 40.5 10t28.5 13t20.5 15t17.5 18h62l-97 -440h-90zM111 -10l569 742h96l-569 -742h-96z" />
<glyph unicode="&#xbd;" horiz-adv-x="834" d="M172 292l73 330h-67l12 54q24 4 40.5 10t28.5 13t20.5 15t17.5 18h62l-97 -440h-90zM455 0l17 75q82 60 132 98.5t78.5 63.5t39.5 41.5t15 33.5q2 10 2 15q0 17 -11 28t-37 11q-33 0 -51 -15.5t-23 -35.5l-4 -16h-90l5 21q5 24 20 45.5t37.5 38t52 26.5t63.5 10 q60 0 95 -24t35 -72q0 -14 -3 -30q-9 -38 -36 -71t-62.5 -63t-73.5 -56t-68 -50h179l-16 -74h-296zM93 -10l569 742h96l-569 -742h-96z" />
<glyph unicode="&#xbe;" horiz-adv-x="834" d="M672 315h-2l-129 -131h102zM602 0l25 114h-198l16 70l254 249h89l-55 -249h66l-16 -70h-66l-25 -114h-90zM249 558q41 0 66.5 13.5t25.5 48.5q0 16 -12 27t-35 11t-40.5 -14t-22.5 -35h-90q7 31 23.5 54.5t39 38.5t50 22.5t57.5 7.5q55 0 88.5 -22.5t33.5 -67.5 q0 -17 -5 -35t-15.5 -34.5t-25.5 -30t-34 -22.5q26 -11 37.5 -28.5t11.5 -42.5q0 -40 -16.5 -70.5t-42.5 -51t-59.5 -31t-67.5 -10.5q-68 0 -99.5 26.5t-31.5 71.5q0 19 4 36h90q-3 -12 -3 -21q0 -39 55 -39q35 0 57.5 22t22.5 57q0 25 -20 35t-59 10zM131 -10l569 742h96 l-569 -742h-96z" />
<glyph unicode="&#xbf;" horiz-adv-x="444" d="M387 -30q-35 -75 -97 -116.5t-139 -41.5q-31 0 -59 8.5t-49 25t-33.5 40.5t-12.5 56q0 34 14 63.5t35 55.5t46.5 50t49 47.5t41 47t23.5 48.5l11 50h110l-21 -98q-3 -14 -17.5 -34t-35 -42.5t-43 -47t-42 -47t-32 -42t-12.5 -33.5q0 -21 15.5 -33.5t36.5 -12.5 q15 0 31.5 7.5t31 20t25 28t15.5 32.5zM223 402l32 142h142l-32 -142h-142z" />
<glyph unicode="&#xc0;" horiz-adv-x="556" d="M365 566h-2l-132 -292h137zM371 0l-1 152h-191l-73 -152h-133l339 722h177l14 -722h-132zM391 763l-114 146h155l60 -146h-101z" />
<glyph unicode="&#xc1;" horiz-adv-x="556" d="M365 566h-2l-132 -292h137zM371 0l-1 152h-191l-73 -152h-133l339 722h177l14 -722h-132zM423 763h-101l126 146h155z" />
<glyph unicode="&#xc2;" horiz-adv-x="556" d="M365 566h-2l-132 -292h137zM371 0l-1 152h-191l-73 -152h-133l339 722h177l14 -722h-132zM471 763l-46 82l-82 -82h-113l147 146h126l81 -146h-113z" />
<glyph unicode="&#xc3;" horiz-adv-x="556" d="M365 566h-2l-132 -292h137zM371 0l-1 152h-191l-73 -152h-133l339 722h177l14 -722h-132zM620 897q-10 -24 -23 -45.5t-29.5 -38.5t-37.5 -27t-48 -10q-20 0 -38 5.5t-35 12t-33 12t-33 5.5q-19 0 -33 -12.5t-22 -29.5h-63q9 24 22.5 46t31.5 39t40 27t49 10q20 0 38 -6 t34.5 -12.5t31 -12.5t26.5 -6q18 0 33.5 12.5t23.5 30.5h65z" />
<glyph unicode="&#xc4;" horiz-adv-x="556" d="M365 566h-2l-132 -292h137zM371 0l-1 152h-191l-73 -152h-133l339 722h177l14 -722h-132zM254 771l25 114h120l-25 -114h-120zM444 771l25 114h120l-25 -114h-120z" />
<glyph unicode="&#xc5;" horiz-adv-x="556" d="M539 885q0 -26 -12 -49t-31.5 -40.5t-43 -28t-47.5 -10.5q-38 0 -61.5 23.5t-23.5 58.5q0 25 11 49t29.5 42.5t42 29.5t49.5 11q38 0 62.5 -25t24.5 -61zM484 874q0 18 -12.5 30.5t-31.5 12.5q-13 0 -25 -5.5t-21 -14.5t-14 -21t-5 -25q0 -17 11 -28.5t31 -11.5 q12 0 23.5 5t21.5 13.5t16 20t6 24.5zM365 566h-2l-132 -292h137zM371 0l-1 152h-191l-73 -152h-133l339 722h177l14 -722h-132z" />
<glyph unicode="&#xc6;" horiz-adv-x="1000" d="M580 612h-18l-226 -314h174zM444 0l39 176h-236l-125 -176h-148l530 722h532l-27 -122h-294l-37 -166h221l-27 -122h-221l-42 -190h306l-27 -122h-444z" />
<glyph unicode="&#xc7;" horiz-adv-x="556" d="M517 232q-15 -65 -40.5 -110.5t-60 -74.5t-77.5 -42.5t-92 -14.5l-47 -51l2 -2q8 5 16.5 6t16.5 1q30 0 52 -16.5t22 -45.5q0 -30 -15.5 -51t-38 -34t-48.5 -19t-48 -6q-29 0 -54 7t-49 18l28 42q17 -8 35 -12.5t37 -4.5q9 0 20.5 2.5t21.5 8t16.5 14.5t6.5 22t-10 21 t-24 8q-12 0 -23 -2.5t-23 -5.5l-17 20l72 82q-66 8 -105.5 44.5t-39.5 113.5q0 38 10 82l58 258q15 67 42 113t63 74.5t80.5 41.5t95.5 13q42 0 76 -8.5t58 -28t37.5 -50t13.5 -73.5q0 -18 -2.5 -39t-8.5 -45h-138l5 20q3 11 3.5 21t1.5 18q0 36 -20 49.5t-53 13.5 q-42 0 -70 -21t-42 -81l-66 -294q-3 -11 -4 -21t-1 -19q0 -36 19.5 -49t53.5 -13q42 0 70 21t42 81l11 48h138z" />
<glyph unicode="&#xc8;" d="M22 0l160 722h378l-27 -122h-240l-37 -166h183l-27 -122h-183l-42 -190h250l-27 -122h-388zM363 763l-114 146h155l60 -146h-101z" />
<glyph unicode="&#xc9;" d="M22 0l160 722h378l-27 -122h-240l-37 -166h183l-27 -122h-183l-42 -190h250l-27 -122h-388zM395 763h-101l126 146h155z" />
<glyph unicode="&#xca;" d="M22 0l160 722h378l-27 -122h-240l-37 -166h183l-27 -122h-183l-42 -190h250l-27 -122h-388zM443 763l-46 82l-82 -82h-113l147 146h126l81 -146h-113z" />
<glyph unicode="&#xcb;" d="M22 0l160 722h378l-27 -122h-240l-37 -166h183l-27 -122h-183l-42 -190h250l-27 -122h-388zM226 771l25 114h120l-25 -114h-120zM416 771l25 114h120l-25 -114h-120z" />
<glyph unicode="&#xcc;" horiz-adv-x="278" d="M30 0l160 722h138l-160 -722h-138zM252 763l-114 146h155l60 -146h-101z" />
<glyph unicode="&#xcd;" horiz-adv-x="278" d="M30 0l160 722h138l-160 -722h-138zM284 763h-101l126 146h155z" />
<glyph unicode="&#xce;" horiz-adv-x="278" d="M30 0l160 722h138l-160 -722h-138zM332 763l-46 82l-82 -82h-113l147 146h126l81 -146h-113z" />
<glyph unicode="&#xcf;" horiz-adv-x="278" d="M30 0l160 722h138l-160 -722h-138zM115 771l25 114h120l-25 -114h-120zM305 771l25 114h120l-25 -114h-120z" />
<glyph unicode="&#xd0;" horiz-adv-x="556" d="M22 0l69 312h-54l27 122h54l64 288h192q99 0 152 -39.5t53 -131.5q0 -17 -1.5 -37t-6.5 -42l-50 -222q-15 -69 -43 -116.5t-67 -77t-88.5 -43t-108.5 -13.5h-192zM429 456q8 38 8 61q0 44 -23 63.5t-73 19.5h-48l-37 -166h88l-27 -122h-88l-42 -190h48q57 0 95.5 31.5 t56.5 112.5z" />
<glyph unicode="&#xd1;" horiz-adv-x="611" d="M369 0l-108 466h-2l-103 -466h-126l160 722h151l97 -428h2l95 428h126l-160 -722h-132zM648 897q-10 -24 -23 -45.5t-29.5 -38.5t-37.5 -27t-48 -10q-20 0 -38 5.5t-35 12t-33 12t-33 5.5q-19 0 -33 -12.5t-22 -29.5h-63q9 24 22.5 46t31.5 39t40 27t49 10q20 0 38 -6 t34.5 -12.5t31 -12.5t26.5 -6q18 0 33.5 12.5t23.5 30.5h65z" />
<glyph unicode="&#xd2;" horiz-adv-x="556" d="M517 232q-15 -67 -42 -113t-63 -74.5t-80.5 -41.5t-95.5 -13q-42 0 -76 8.5t-58 28t-37.5 49.5t-13.5 74q0 38 10 82l58 258q15 67 41.5 113t63 74.5t81.5 41.5t95 13q42 0 76 -8.5t58 -28t37.5 -50t13.5 -73.5q0 -18 -2.5 -38.5t-7.5 -43.5zM441 508q5 25 5 39 q0 36 -20 49.5t-53 13.5q-42 0 -70 -21t-42 -81l-66 -294q-2 -11 -3.5 -21t-1.5 -19q0 -36 19.5 -49t53.5 -13q42 0 70 21t42 81zM391 763l-114 146h155l60 -146h-101z" />
<glyph unicode="&#xd3;" horiz-adv-x="556" d="M517 232q-15 -67 -42 -113t-63 -74.5t-80.5 -41.5t-95.5 -13q-42 0 -76 8.5t-58 28t-37.5 49.5t-13.5 74q0 38 10 82l58 258q15 67 41.5 113t63 74.5t81.5 41.5t95 13q42 0 76 -8.5t58 -28t37.5 -50t13.5 -73.5q0 -18 -2.5 -38.5t-7.5 -43.5zM441 508q5 25 5 39 q0 36 -20 49.5t-53 13.5q-42 0 -70 -21t-42 -81l-66 -294q-2 -11 -3.5 -21t-1.5 -19q0 -36 19.5 -49t53.5 -13q42 0 70 21t42 81zM423 763h-101l126 146h155z" />
<glyph unicode="&#xd4;" horiz-adv-x="556" d="M517 232q-15 -67 -42 -113t-63 -74.5t-80.5 -41.5t-95.5 -13q-42 0 -76 8.5t-58 28t-37.5 49.5t-13.5 74q0 38 10 82l58 258q15 67 41.5 113t63 74.5t81.5 41.5t95 13q42 0 76 -8.5t58 -28t37.5 -50t13.5 -73.5q0 -18 -2.5 -38.5t-7.5 -43.5zM441 508q5 25 5 39 q0 36 -20 49.5t-53 13.5q-42 0 -70 -21t-42 -81l-66 -294q-3 -11 -3.5 -21.5t-1.5 -18.5q0 -36 19.5 -49t53.5 -13q42 0 70 21t42 81zM471 763l-46 82l-82 -82h-113l147 146h126l81 -146h-113z" />
<glyph unicode="&#xd5;" horiz-adv-x="556" d="M517 232q-15 -67 -42 -113t-63 -74.5t-80.5 -41.5t-95.5 -13q-42 0 -76 8.5t-58 28t-37.5 49.5t-13.5 74q0 38 10 82l58 258q15 67 41.5 113t63 74.5t81.5 41.5t95 13q42 0 76 -8.5t58 -28t37.5 -50t13.5 -73.5q0 -18 -2.5 -38.5t-7.5 -43.5zM441 508q5 25 5 39 q0 36 -20 49.5t-53 13.5q-42 0 -70 -21t-42 -81l-66 -294q-2 -11 -3.5 -21t-1.5 -19q0 -36 19.5 -49t53.5 -13q42 0 70 21t42 81zM620 897q-10 -24 -23 -45.5t-29.5 -38.5t-37.5 -27t-48 -10q-20 0 -38 5.5t-35 12t-33 12t-33 5.5q-19 0 -33 -12.5t-22 -29.5h-63 q9 24 22.5 46t31.5 39t40 27t49 10q20 0 38 -6t34.5 -12.5t31 -12.5t26.5 -6q18 0 33.5 12.5t23.5 30.5h65z" />
<glyph unicode="&#xd6;" horiz-adv-x="556" d="M517 232q-15 -67 -42 -113t-63 -74.5t-80.5 -41.5t-95.5 -13q-42 0 -76 8.5t-58 28t-37.5 49.5t-13.5 74q0 38 10 82l58 258q15 67 41.5 113t63 74.5t81.5 41.5t95 13q42 0 76 -8.5t58 -28t37.5 -50t13.5 -73.5q0 -18 -2.5 -38.5t-7.5 -43.5zM441 508q5 25 5 39 q0 36 -20 49.5t-53 13.5q-42 0 -70 -21t-42 -81l-66 -294q-2 -11 -3.5 -21t-1.5 -19q0 -36 19.5 -49t53.5 -13q42 0 70 21t42 81zM254 771l25 114h120l-25 -114h-120zM444 771l25 114h120l-25 -114h-120z" />
<glyph unicode="&#xd7;" horiz-adv-x="600" d="M446 0l-145 186l-226 -186l-68 86l228 187l-145 186l106 85l144 -185l227 185l67 -85l-228 -187l145 -186z" />
<glyph unicode="&#xd8;" horiz-adv-x="556" d="M440 578q-8 18 -25 25t-42 7q-42 0 -70 -21t-42 -81l-55 -246h2zM424 433h-2l-220 -299q8 -12 24 -17t37 -5q42 0 70 21t42 81zM-51 -78l115 156q-13 29 -13 71q0 18 2.5 39t7.5 44l58 258q15 67 42 113t63 74.5t80.5 41.5t95.5 13q38 0 69.5 -7t56.5 -23l51 68h104 l-104 -140q8 -27 8 -57q0 -40 -10 -83l-58 -258q-15 -67 -42 -113t-63 -74.5t-80.5 -41.5t-95.5 -13q-34 0 -63 5.5t-52 19.5l-68 -93h-104z" />
<glyph unicode="&#xd9;" horiz-adv-x="611" d="M523 722h138l-112 -506q-13 -60 -39.5 -102.5t-63.5 -70t-83.5 -40.5t-99.5 -13q-90 0 -141.5 37t-51.5 119q0 16 1.5 33t6.5 37l112 506h138l-112 -505q-5 -23 -5 -37q0 -68 79 -68q98 0 121 105zM419 763l-114 146h155l60 -146h-101z" />
<glyph unicode="&#xda;" horiz-adv-x="611" d="M523 722h138l-112 -506q-13 -60 -39.5 -102.5t-63.5 -70t-83.5 -40.5t-99.5 -13q-90 0 -141.5 37t-51.5 119q0 16 1.5 33t6.5 37l112 506h138l-112 -505q-5 -23 -5 -37q0 -68 79 -68q98 0 121 105zM451 763h-101l126 146h155z" />
<glyph unicode="&#xdb;" horiz-adv-x="611" d="M523 722h138l-112 -506q-13 -60 -39.5 -102.5t-63.5 -70t-83.5 -40.5t-99.5 -13q-90 0 -141.5 37t-51.5 119q0 16 1.5 33t6.5 37l112 506h138l-112 -505q-5 -23 -5 -37q0 -68 79 -68q98 0 121 105zM499 763l-46 82l-82 -82h-113l147 146h126l81 -146h-113z" />
<glyph unicode="&#xdc;" horiz-adv-x="611" d="M523 722h138l-112 -506q-13 -60 -39.5 -102.5t-63.5 -70t-83.5 -40.5t-99.5 -13q-90 0 -141.5 37t-51.5 119q0 16 1.5 33t6.5 37l112 506h138l-112 -505q-5 -23 -5 -37q0 -68 79 -68q98 0 121 105zM282 771l25 114h120l-25 -114h-120zM472 771l25 114h120l-25 -114h-120z " />
<glyph unicode="&#xdd;" horiz-adv-x="556" d="M169 0l65 292l-102 430h147l57 -291l181 291h147l-292 -430l-65 -292h-138zM423 763h-101l126 146h155z" />
<glyph unicode="&#xde;" horiz-adv-x="556" d="M30 0l160 722h138l-29 -132h61q108 0 160 -40.5t52 -115.5q0 -65 -22 -116t-62.5 -86.5t-97 -54.5t-126.5 -19h-61l-35 -158h-138zM302 272q56 0 92.5 34t36.5 102t-83 68h-74l-46 -204h74z" />
<glyph unicode="&#xdf;" d="M222 119q16 -9 38 -9q25 0 41.5 17t26 41.5t13.5 52t4 47.5q0 32 -16 49t-58 17l23 102q39 2 66.5 34.5t27.5 88.5q0 24 -11 38.5t-39 14.5q-30 0 -47 -18t-22 -41l-123 -553h-126l116 523q10 44 27 80.5t44.5 63t67 41t94.5 14.5q70 0 106.5 -34.5t36.5 -100.5 q0 -22 -5 -50t-17 -55t-31.5 -51t-48.5 -38q32 -20 46.5 -48.5t14.5 -67.5q0 -70 -18.5 -123.5t-48 -90t-66 -55t-71.5 -18.5q-39 0 -70 15z" />
<glyph unicode="&#xe0;" d="M276 0q0 11 1 23.5t2 29.5q-34 -28 -75 -45.5t-89 -17.5t-74.5 21.5t-26.5 66.5q0 58 26.5 100t72 73.5t105.5 54t128 41.5l9 40q1 5 1.5 9.5t0.5 9.5q0 25 -15 35.5t-38 10.5q-29 0 -53.5 -19t-31.5 -48h-126q14 45 39 77.5t57 52.5t69 29.5t75 9.5q83 0 118.5 -31.5 t35.5 -84.5q0 -24 -6 -49l-76 -345q-4 -13 -4 -30q0 -4 0.5 -7t0.5 -7h-126zM328 266q-33 -11 -65.5 -25t-58 -32t-41.5 -39t-16 -45q0 -41 46 -41q29 0 53.5 13.5t52.5 36.5zM329 610l-114 146h155l60 -146h-101z" />
<glyph unicode="&#xe1;" d="M276 0q0 11 1 23.5t2 29.5q-34 -28 -75 -45.5t-89 -17.5t-74.5 21.5t-26.5 66.5q0 58 26.5 100t72 73.5t105.5 54t128 41.5l9 40q1 5 1.5 9.5t0.5 9.5q0 25 -15 35.5t-38 10.5q-29 0 -53.5 -19t-31.5 -48h-126q14 45 39 77.5t57 52.5t69 29.5t75 9.5q83 0 118.5 -31.5 t35.5 -84.5q0 -24 -6 -49l-76 -345q-4 -13 -4 -30q0 -4 0.5 -7t0.5 -7h-126zM328 266q-33 -11 -65.5 -25t-58 -32t-41.5 -39t-16 -45q0 -41 46 -41q29 0 53.5 13.5t52.5 36.5zM361 610h-101l126 146h155z" />
<glyph unicode="&#xe2;" d="M276 0q0 11 1 23.5t2 29.5q-34 -28 -75 -45.5t-89 -17.5t-74.5 21.5t-26.5 66.5q0 58 26.5 100t72 73.5t105.5 54t128 41.5l9 40q1 5 1.5 9.5t0.5 9.5q0 25 -15 35.5t-38 10.5q-29 0 -53.5 -19t-31.5 -48h-126q14 45 39 77.5t57 52.5t69 29.5t75 9.5q83 0 118.5 -31.5 t35.5 -84.5q0 -24 -6 -49l-76 -345q-4 -13 -4 -30q0 -4 0.5 -7t0.5 -7h-126zM328 266q-33 -11 -65.5 -25t-58 -32t-41.5 -39t-16 -45q0 -41 46 -41q29 0 53.5 13.5t52.5 36.5zM409 610l-46 82l-82 -82h-113l147 146h126l81 -146h-113z" />
<glyph unicode="&#xe3;" d="M276 0q0 11 1 23.5t2 29.5q-34 -28 -75 -45.5t-89 -17.5t-74.5 21.5t-26.5 66.5q0 58 26.5 100t72 73.5t105.5 54t128 41.5l9 40q1 5 1.5 9.5t0.5 9.5q0 25 -15 35.5t-38 10.5q-29 0 -53.5 -19t-31.5 -48h-126q14 45 39 77.5t57 52.5t69 29.5t75 9.5q83 0 118.5 -31.5 t35.5 -84.5q0 -24 -6 -49l-76 -345q-4 -13 -4 -30q0 -4 0.5 -7t0.5 -7h-126zM328 266q-33 -11 -65.5 -25t-58 -32t-41.5 -39t-16 -45q0 -41 46 -41q29 0 53.5 13.5t52.5 36.5zM558 744q-10 -24 -23 -45.5t-29.5 -38.5t-37.5 -27t-48 -10q-20 0 -38 5.5t-35 12t-33 12 t-33 5.5q-19 0 -32.5 -12.5t-21.5 -29.5h-63q9 24 22.5 46t31 39t39.5 27t49 10q20 0 38 -6t34.5 -12.5t31 -12.5t26.5 -6q18 0 33.5 12.5t23.5 30.5h65z" />
<glyph unicode="&#xe4;" d="M276 0q0 11 1 23.5t2 29.5q-34 -28 -75 -45.5t-89 -17.5t-74.5 21.5t-26.5 66.5q0 58 26.5 100t72 73.5t105.5 54t128 41.5l9 40q1 5 1.5 9.5t0.5 9.5q0 25 -15 35.5t-38 10.5q-29 0 -53.5 -19t-31.5 -48h-126q14 45 39 77.5t57 52.5t69 29.5t75 9.5q83 0 118.5 -31.5 t35.5 -84.5q0 -24 -6 -49l-76 -345q-4 -13 -4 -30q0 -4 0.5 -7t0.5 -7h-126zM328 266q-33 -11 -65.5 -25t-58 -32t-41.5 -39t-16 -45q0 -41 46 -41q29 0 53.5 13.5t52.5 36.5zM192 618l25 114h120l-25 -114h-120zM382 618l25 114h120l-25 -114h-120z" />
<glyph unicode="&#xe5;" d="M276 0q0 11 1 23.5t2 29.5q-34 -28 -75 -45.5t-89 -17.5t-74.5 21.5t-26.5 66.5q0 58 26.5 100t72 73.5t105.5 54t128 41.5l9 40q1 5 1.5 9.5t0.5 9.5q0 25 -15 35.5t-38 10.5q-29 0 -53.5 -19t-31.5 -48h-126q14 45 39 77.5t57 52.5t69 29.5t75 9.5q83 0 118.5 -31.5 t35.5 -84.5q0 -24 -6 -49l-76 -345q-4 -13 -4 -30q0 -4 0.5 -7t0.5 -7h-126zM328 266q-33 -11 -65.5 -25t-58 -32t-41.5 -39t-16 -45q0 -41 46 -41q29 0 53.5 13.5t52.5 36.5zM477 732q0 -26 -12 -49t-31 -40.5t-43 -28t-48 -10.5q-38 0 -61.5 23.5t-23.5 59.5q0 25 11 49 t29.5 42t42 29t49.5 11q38 0 62.5 -25t24.5 -61zM422 721q0 18 -12.5 30.5t-31.5 12.5q-13 0 -25 -5.5t-21 -14.5t-14 -21t-5 -25q0 -17 11 -28.5t31 -11.5q12 0 23.5 5t21.5 13.5t16 20t6 24.5z" />
<glyph unicode="&#xe6;" horiz-adv-x="778" d="M335 266q-30 -11 -61 -25t-56 -32t-41 -39t-16 -45q0 -41 46 -41q29 0 52.5 13.5t46.5 36.5zM456 242l-16 -72q-3 -14 -3 -25q0 -28 16.5 -40.5t42.5 -12.5q40 0 62 22t29 54h126q-23 -85 -83 -131.5t-156 -46.5q-34 0 -59.5 7.5t-43.5 18t-29.5 23t-17.5 21.5 q-37 -24 -65 -38t-51 -21t-42 -9t-37 -2q-48 0 -74.5 21.5t-26.5 66.5q0 58 26.5 100t71 73.5t103.5 54t124 41.5l9 40q3 13 3 23q0 23 -12.5 32.5t-34.5 9.5q-29 0 -53.5 -19t-31.5 -48h-126q13 45 38 77.5t55.5 52.5t64.5 29.5t66 9.5q48 0 80.5 -16.5t49.5 -45.5 q30 27 68 44.5t80 17.5q69 0 111.5 -38t42.5 -103q0 -19 -5 -44l-28 -127h-274zM633 374q3 13 3 26q0 24 -14.5 38t-45.5 14q-38 0 -60.5 -21t-30.5 -57l-7 -30h148z" />
<glyph unicode="&#xe7;" d="M174 -63q8 5 16.5 6t16.5 1q30 0 52 -16.5t22 -45.5q0 -30 -15.5 -51t-38 -34t-48.5 -19t-48 -6q-29 0 -54 7t-49 18l28 42q17 -7 35 -12t37 -5q9 0 20.5 2.5t21.5 8t16.5 14.5t6.5 22t-10 21t-24 8q-12 0 -23 -2.5t-23 -5.5l-17 20l72 82q-60 8 -91.5 40.5t-31.5 95.5 q0 15 1.5 32t6.5 36l34 152q24 108 87.5 157t158.5 49q78 0 120 -32.5t42 -103.5q0 -30 -7 -62h-125l5 24q1 5 1.5 9t0.5 8q0 23 -16.5 35t-45.5 12q-33 0 -57 -16t-31 -48l-48 -216q-1 -5 -1.5 -8.5t-0.5 -7.5q0 -24 16.5 -36t45.5 -12q34 0 57 16t31 48l8 34h126 q-24 -107 -84 -156t-151 -52l-47 -51z" />
<glyph unicode="&#xe8;" d="M190 242l-16 -72q-3 -14 -3 -25q0 -28 16.5 -40.5t42.5 -12.5q40 0 62 22t29 54h126q-23 -85 -83 -131.5t-156 -46.5q-77 0 -120 37.5t-43 104.5q0 24 6 51l39 178q10 45 32 80.5t54 60.5t72 38.5t85 13.5q76 0 120 -38t44 -104q0 -18 -5 -43l-28 -127h-274zM367 374 q3 13 3 26q0 24 -14.5 38t-45.5 14q-38 0 -60.5 -21t-30.5 -57l-7 -30h148zM329 610l-114 146h155l60 -146h-101z" />
<glyph unicode="&#xe9;" d="M190 242l-16 -72q-3 -14 -3 -25q0 -28 16.5 -40.5t42.5 -12.5q40 0 62 22t29 54h126q-23 -85 -83 -131.5t-156 -46.5q-77 0 -120 37.5t-43 104.5q0 24 6 51l39 178q10 45 32 80.5t54 60.5t72 38.5t85 13.5q76 0 120 -38t44 -104q0 -18 -5 -43l-28 -127h-274zM367 374 q3 13 3 26q0 24 -14.5 38t-45.5 14q-38 0 -60.5 -21t-30.5 -57l-7 -30h148zM361 610h-101l126 146h155z" />
<glyph unicode="&#xea;" d="M190 242l-16 -72q-3 -14 -3 -25q0 -28 16.5 -40.5t42.5 -12.5q40 0 62 22t29 54h126q-23 -85 -83 -131.5t-156 -46.5q-77 0 -120 37.5t-43 104.5q0 24 6 51l39 178q10 45 32 80.5t54 60.5t72 38.5t85 13.5q76 0 120 -38t44 -104q0 -18 -5 -43l-28 -127h-274zM367 374 q3 13 3 26q0 24 -14.5 38t-45.5 14q-38 0 -60.5 -21t-30.5 -57l-7 -30h148zM409 610l-46 82l-82 -82h-113l147 146h126l81 -146h-113z" />
<glyph unicode="&#xeb;" d="M190 242l-16 -72q-3 -14 -3 -25q0 -28 16.5 -40.5t42.5 -12.5q40 0 62 22t29 54h126q-23 -85 -83 -131.5t-156 -46.5q-77 0 -120 37.5t-43 104.5q0 24 6 51l39 178q10 45 32 80.5t54 60.5t72 38.5t85 13.5q76 0 120 -38t44 -104q0 -18 -5 -43l-28 -127h-274zM367 374 q3 13 3 26q0 24 -14.5 38t-45.5 14q-38 0 -60.5 -21t-30.5 -57l-7 -30h148zM192 618l25 114h120l-25 -114h-120zM382 618l25 114h120l-25 -114h-120z" />
<glyph unicode="&#xec;" horiz-adv-x="278" d="M36 0l121 544h126l-121 -544h-126zM218 610l-114 146h155l60 -146h-101z" />
<glyph unicode="&#xed;" horiz-adv-x="278" d="M36 0l121 544h126l-121 -544h-126zM250 610h-101l126 146h155z" />
<glyph unicode="&#xee;" horiz-adv-x="278" d="M36 0l121 544h126l-121 -544h-126zM298 610l-46 82l-82 -82h-113l147 146h126l81 -146h-113z" />
<glyph unicode="&#xef;" horiz-adv-x="278" d="M36 0l121 544h126l-121 -544h-126zM81 618l25 114h120l-25 -114h-120zM271 618l25 114h120l-25 -114h-120z" />
<glyph unicode="&#xf0;" d="M362 350q1 4 1 7.5v6.5q0 23 -16.5 34.5t-45.5 11.5q-34 0 -57 -15t-30 -45l-43 -190q-2 -10 -2 -14q0 -23 17 -34.5t46 -11.5q34 0 57 15.5t30 44.5zM451 183q-22 -102 -85.5 -147.5t-157.5 -45.5q-79 0 -122 31t-43 100q0 25 8 62l31 143q22 102 85 148t158 46 q11 0 20 -0.5t22 -3.5q0 17 -2.5 32.5t-7.5 31.5l-119 -38l-13 74l102 33q-8 15 -16.5 30t-17.5 29l121 14q6 -8 12 -17.5t12 -19.5l116 37l14 -74l-98 -32q27 -75 27 -161q0 -62 -15 -129z" />
<glyph unicode="&#xf1;" d="M274 0l89 400q3 13 3 24q0 17 -8 26.5t-28 9.5t-44.5 -15.5t-48.5 -33.5l-91 -411h-126l121 544h122l-14 -62q42 30 80 51t77 21q46 0 69.5 -19.5t23.5 -64.5q0 -12 -1.5 -26t-5.5 -30l-92 -414h-126zM558 744q-10 -24 -23 -45.5t-29.5 -38.5t-37.5 -27t-48 -10 q-20 0 -38 5.5t-35 12t-33 12t-33 5.5q-19 0 -32.5 -12.5t-21.5 -29.5h-63q9 24 22.5 46t31 39t39.5 27t49 10q20 0 38 -6t34.5 -12.5t31 -12.5t26.5 -6q18 0 33.5 12.5t23.5 30.5h65z" />
<glyph unicode="&#xf2;" d="M453 196q-24 -108 -87 -157t-158 -49q-78 0 -120.5 33t-42.5 105q0 15 1.5 32t6.5 36l34 152q24 108 87.5 157t158.5 49q78 0 120 -32.5t42 -104.5q0 -15 -1.5 -32t-6.5 -37zM368 380q1 5 1.5 9t0.5 8q0 23 -16.5 35t-45.5 12q-33 0 -57 -16t-31 -48l-48 -216 q-1 -5 -1.5 -8.5t-0.5 -7.5q0 -24 16.5 -36t45.5 -12q33 0 57 16t31 48zM329 610l-114 146h155l60 -146h-101z" />
<glyph unicode="&#xf3;" d="M453 196q-24 -108 -87 -157t-158 -49q-78 0 -120.5 33t-42.5 105q0 15 1.5 32t6.5 36l34 152q24 108 87.5 157t158.5 49q78 0 120 -32.5t42 -104.5q0 -15 -1.5 -32t-6.5 -37zM368 380q1 5 1.5 9t0.5 8q0 23 -16.5 35t-45.5 12q-33 0 -57 -16t-31 -48l-48 -216 q-1 -5 -1.5 -8.5t-0.5 -7.5q0 -24 16.5 -36t45.5 -12q33 0 57 16t31 48zM361 610h-101l126 146h155z" />
<glyph unicode="&#xf4;" d="M453 196q-24 -108 -87 -157t-158 -49q-78 0 -120.5 33t-42.5 105q0 15 1.5 32t6.5 36l34 152q24 108 87.5 157t158.5 49q78 0 120 -32.5t42 -104.5q0 -15 -1.5 -32t-6.5 -37zM368 380q1 5 1.5 9t0.5 8q0 23 -16.5 35t-45.5 12q-33 0 -57 -16t-31 -48l-48 -216 q-1 -5 -1.5 -8.5t-0.5 -7.5q0 -24 16.5 -36t45.5 -12q33 0 57 16t31 48zM409 610l-46 82l-82 -82h-113l147 146h126l81 -146h-113z" />
<glyph unicode="&#xf5;" d="M453 196q-24 -108 -87 -157t-158 -49q-78 0 -120.5 33t-42.5 105q0 15 1.5 32t6.5 36l34 152q24 108 87.5 157t158.5 49q78 0 120 -32.5t42 -104.5q0 -15 -1.5 -32t-6.5 -37zM368 380q1 5 1.5 9t0.5 8q0 23 -16.5 35t-45.5 12q-33 0 -57 -16t-31 -48l-48 -216 q-1 -5 -1.5 -8.5t-0.5 -7.5q0 -24 16.5 -36t45.5 -12q33 0 57 16t31 48zM558 744q-10 -24 -23 -45.5t-29.5 -38.5t-37.5 -27t-48 -10q-20 0 -38 5.5t-35 12t-33 12t-33 5.5q-19 0 -32.5 -12.5t-21.5 -29.5h-63q9 24 22.5 46t31 39t39.5 27t49 10q20 0 38 -6t34.5 -12.5 t31 -12.5t26.5 -6q18 0 33.5 12.5t23.5 30.5h65z" />
<glyph unicode="&#xf6;" d="M453 196q-24 -108 -87 -157t-158 -49q-78 0 -120.5 33t-42.5 105q0 15 1.5 32t6.5 36l34 152q24 108 87.5 157t158.5 49q78 0 120 -32.5t42 -104.5q0 -15 -1.5 -32t-6.5 -37zM368 380q1 5 1.5 9t0.5 8q0 23 -16.5 35t-45.5 12q-33 0 -57 -16t-31 -48l-48 -216 q-1 -5 -1.5 -8.5t-0.5 -7.5q0 -24 16.5 -36t45.5 -12q33 0 57 16t31 48zM192 618l25 114h120l-25 -114h-120zM382 618l25 114h120l-25 -114h-120z" />
<glyph unicode="&#xf7;" horiz-adv-x="600" d="M35 211l27 122h544l-27 -122h-544zM466 514q0 -20 -10.5 -40.5t-27 -37t-37 -26.5t-41.5 -10q-35 0 -56.5 21.5t-21.5 53.5q0 22 10 43t27 37t38 25.5t44 9.5q33 0 54 -22t21 -54zM367 68q0 -20 -10 -40t-26.5 -36.5t-37.5 -27t-42 -10.5q-35 0 -56.5 22t-21.5 54 q0 23 10.5 43.5t27.5 36.5t38.5 25t42.5 9q33 0 54 -22t21 -54z" />
<glyph unicode="&#xf8;" d="M352 432q-15 12 -44 12q-33 0 -57 -16t-31 -48l-38 -171h2zM354 317h-2l-157 -209q14 -8 37 -8q33 0 57 16t31 48zM-61 -112l125 164q-19 29 -19 76q0 15 1.5 32t6.5 36l34 152q24 108 87.5 157t158.5 49q59 0 98 -19l72 95h89l-111 -146q14 -25 14 -67q0 -16 -1.5 -33 t-6.5 -36l-34 -152q-24 -108 -87 -157t-158 -49q-56 0 -91 16l-89 -118h-89z" />
<glyph unicode="&#xf9;" d="M278 0l14 62q-42 -30 -80 -51t-77 -21q-46 0 -69.5 19.5t-23.5 64.5q0 25 7 56l92 414h126l-89 -400q-3 -14 -3 -24q0 -17 8 -26.5t28 -9.5t44 15.5t48 33.5l92 411h126l-121 -544h-122zM320 610l-114 146h155l60 -146h-101z" />
<glyph unicode="&#xfa;" d="M278 0l14 62q-42 -30 -80 -51t-77 -21q-46 0 -69.5 19.5t-23.5 64.5q0 25 7 56l92 414h126l-89 -400q-3 -14 -3 -24q0 -17 8 -26.5t28 -9.5t44 15.5t48 33.5l92 411h126l-121 -544h-122zM352 610h-101l126 146h155z" />
<glyph unicode="&#xfb;" d="M278 0l14 62q-42 -30 -80 -51t-77 -21q-46 0 -69.5 19.5t-23.5 64.5q0 25 7 56l92 414h126l-89 -400q-3 -14 -3 -24q0 -17 8 -26.5t28 -9.5t44 15.5t48 33.5l92 411h126l-121 -544h-122zM400 610l-46 82l-82 -82h-113l147 146h126l81 -146h-113z" />
<glyph unicode="&#xfc;" d="M278 0l14 62q-42 -30 -80 -51t-77 -21q-46 0 -69.5 19.5t-23.5 64.5q0 25 7 56l92 414h126l-89 -400q-3 -14 -3 -24q0 -17 8 -26.5t28 -9.5t44 15.5t48 33.5l92 411h126l-121 -544h-122zM183 618l25 114h120l-25 -114h-120zM373 618l25 114h120l-25 -114h-120z" />
<glyph unicode="&#xfd;" horiz-adv-x="444" d="M-26 -80q9 -2 18 -2h19q21 0 39.5 8t32.5 19t23.5 23.5t11.5 21.5q2 12 3.5 25t1.5 27t-1 30t-2 33l-28 439h128l5 -360h2l159 360h128l-266 -542q-27 -55 -53 -92.5t-56 -60t-66.5 -32t-83.5 -9.5h-18.5t-20.5 2zM333 610h-101l126 146h155z" />
<glyph unicode="&#xfe;" d="M357 330q10 44 10 73q0 35 -12.5 46t-30.5 11q-40 0 -85 -39l-66 -298q27 -39 68 -39q13 0 25 5t23.5 19.5t22 39.5t19.5 66zM-23 -192l203 914h124l-52 -234h2q7 9 22.5 20.5t34.5 21.5t41 17t43 7q54 0 78.5 -29.5t24.5 -86.5q0 -22 -3.5 -46.5t-9.5 -53.5l-29 -132 q-23 -106 -67.5 -161t-118.5 -55q-26 0 -50.5 13.5t-62.5 46.5l-54 -242h-126z" />
<glyph unicode="&#xff;" horiz-adv-x="444" d="M-26 -80q9 -2 18 -2h19q21 0 39.5 8t32.5 19t23.5 23.5t11.5 21.5q2 12 3.5 25t1.5 27t-1 30t-2 33l-28 439h128l5 -360h2l159 360h128l-266 -542q-27 -55 -53 -92.5t-56 -60t-66.5 -32t-83.5 -9.5h-18.5t-20.5 2zM164 618l25 114h120l-25 -114h-120zM354 618l25 114h120 l-25 -114h-120z" />
<glyph unicode="&#x131;" horiz-adv-x="278" d="M36 0l121 544h126l-121 -544h-126z" />
<glyph unicode="&#x141;" horiz-adv-x="444" d="M22 0l58 260l-68 -25l26 116l67 25l77 346h138l-64 -290l177 66l-26 -116l-177 -66l-43 -194h222l-27 -122h-360z" />
<glyph unicode="&#x142;" horiz-adv-x="278" d="M36 0l69 313l-82 -37l21 94l82 37l70 315h126l-56 -251l83 37l-21 -94l-82 -37l-84 -377h-126z" />
<glyph unicode="&#x152;" horiz-adv-x="944" d="M516 480q4 16 5.5 30t1.5 26q0 36 -20 55t-70 19q-39 0 -68 -8.5t-50 -29t-36 -54t-26 -82.5l-34 -150q-11 -50 -11 -81q0 -52 27.5 -72.5t87.5 -20.5q66 0 96.5 33.5t44.5 96.5zM441 0q-26 0 -46 -1.5t-39 -3.5t-41 -3.5t-52 -1.5q-92 0 -143.5 50t-51.5 144q0 39 11 89 l42 191q15 68 47 118.5t76.5 83.5t100.5 49.5t119 16.5q36 0 62 -1.5t49.5 -3.5t47 -3.5t55.5 -1.5h327l-27 -122h-297l-37 -166h223l-27 -122h-223l-42 -190h306l-27 -122h-413z" />
<glyph unicode="&#x153;" horiz-adv-x="778" d="M368 380q1 5 1.5 9t0.5 8q0 23 -16.5 35t-45.5 12q-33 0 -57 -16t-31 -48l-48 -216q-1 -5 -1.5 -8.5t-0.5 -7.5q0 -24 16.5 -36t45.5 -12q33 0 57 16t31 48zM464 242l-16 -72q-3 -12 -3 -23q0 -29 18 -42t45 -13q40 0 62 22t29 54h126q-23 -85 -83 -131.5t-156 -46.5 q-47 0 -78.5 20t-45.5 52q-29 -32 -68.5 -52t-91.5 -20q-75 0 -116 32.5t-41 104.5q0 16 1.5 33t6.5 36l34 152q24 108 87 157t153 49q52 0 83 -20t45 -52q29 32 70 52t92 20q72 0 115 -38t43 -103q0 -19 -5 -44l-28 -127h-278zM645 374q3 13 3 26q0 24 -14.5 38t-45.5 14 q-38 0 -62.5 -21t-32.5 -57l-7 -30h152z" />
<glyph unicode="&#x160;" horiz-adv-x="556" d="M443 521q-6 51 -25 74t-55 23q-18 0 -35 -6.5t-30.5 -18t-21.5 -28.5t-8 -38q0 -22 17.5 -40t44.5 -35t57.5 -35.5t57.5 -42.5t44.5 -55.5t17.5 -74.5q0 -56 -21.5 -103t-59.5 -80.5t-89.5 -52t-110.5 -18.5q-84 0 -135.5 48t-55.5 155l142 29q0 -65 24 -91.5t57 -26.5 q19 0 38 7t34 20.5t24.5 33t9.5 43.5q0 27 -17.5 48t-44.5 39.5t-57.5 37t-57.5 40.5t-44.5 51t-17.5 68q0 51 21.5 95t58 76.5t84.5 50.5t102 18q46 0 80.5 -13t57 -36.5t34 -55.5t11.5 -70zM470 763h-126l-81 146h113l45 -82l83 82h113z" />
<glyph unicode="&#x161;" horiz-adv-x="444" d="M344 378q-5 38 -23.5 56t-47.5 18q-23 0 -43 -17t-20 -41q0 -18 14.5 -31t36 -25.5t47 -26t47 -30.5t36 -40t14.5 -55q0 -48 -19.5 -84.5t-51 -61.5t-70.5 -37.5t-79 -12.5q-29 0 -54.5 5t-47.5 21.5t-39.5 47t-29.5 81.5l120 31q0 -38 17.5 -61t55.5 -23q32 0 52.5 16 t20.5 45q0 20 -14.5 34.5t-35.5 26.5t-46.5 24.5t-46.5 29.5t-35.5 40t-14.5 57q0 48 19.5 83.5t50 59t67.5 35t73 11.5q71 0 110.5 -37t49.5 -99zM380 610h-126l-81 146h113l45 -82l83 82h113z" />
<glyph unicode="&#x178;" horiz-adv-x="556" d="M169 0l65 292l-102 430h147l57 -291l181 291h147l-292 -430l-65 -292h-138zM254 771l25 114h120l-25 -114h-120zM444 771l25 114h120l-25 -114h-120z" />
<glyph unicode="&#x17d;" d="M-7 0l26 117l380 483h-245l27 122h400l-26 -116l-380 -484h279l-27 -122h-434zM442 763h-126l-81 146h113l45 -82l83 82h113z" />
<glyph unicode="&#x17e;" horiz-adv-x="444" d="M-9 0l24 108l299 326h-207l25 110h362l-24 -108l-304 -326h231l-24 -110h-382zM380 610h-126l-81 146h113l45 -82l83 82h113z" />
<glyph unicode="&#x192;" horiz-adv-x="556" d="M397 366l-137 -329q-18 -42 -39 -83t-49.5 -73.5t-66.5 -52.5t-89 -20q-18 0 -36 2t-34 9l39 103q8 -5 22 -8.5t27 -3.5q21 0 42.5 18t41.5 67l153 371h-98l20 88h119q30 76 57.5 129t57.5 86t64 48t77 15q20 0 37.5 -3.5t34.5 -8.5l-41 -100q-7 4 -18 7t-23 3 q-17 0 -32 -9t-29.5 -30t-29.5 -54.5t-33 -82.5h99l-20 -88h-116z" />
<glyph unicode="&#x2c6;" horiz-adv-x="278" d="M298 610l-46 82l-82 -82h-113l147 146h126l81 -146h-113z" />
<glyph unicode="&#x2c7;" horiz-adv-x="278" d="M297 610h-126l-81 146h113l45 -82l83 82h113z" />
<glyph unicode="&#x2d8;" horiz-adv-x="278" d="M434 754q-26 -75 -79 -110.5t-128 -35.5q-63 0 -97.5 28.5t-34.5 85.5q0 15 3 32h64q0 -2 -0.5 -5t-0.5 -5q0 -18 7.5 -29.5t20 -18.5t29 -9.5t33.5 -2.5q40 0 70 14t47 56h66z" />
<glyph unicode="&#x2d9;" horiz-adv-x="278" d="M176 618l25 114h120l-25 -114h-120z" />
<glyph unicode="&#x2da;" horiz-adv-x="278" d="M366 732q0 -26 -12 -49t-31 -40.5t-43 -28t-48 -10.5q-38 0 -61.5 23.5t-23.5 59.5q0 25 11 49t29.5 42t42 29t49.5 11q38 0 62.5 -25t24.5 -61zM311 721q0 18 -12.5 30.5t-31.5 12.5q-13 0 -25 -5.5t-21 -14.5t-14 -21t-5 -25q0 -17 11 -28.5t31 -11.5q12 0 23.5 5 t21.5 13.5t16 20t6 24.5z" />
<glyph unicode="&#x2db;" horiz-adv-x="278" d="M210 -159q-39 -23 -80.5 -41t-83.5 -18q-38 0 -62.5 17t-24.5 52q0 46 29.5 76.5t71 49.5t86.5 29t77 15l-3 -12q-22 -8 -51.5 -20t-56.5 -29t-45.5 -39t-18.5 -50q0 -19 12.5 -29t31.5 -10q12 0 26 4.5t28 11t27 14t24 13.5z" />
<glyph unicode="&#x2dc;" horiz-adv-x="278" d="M447 744q-10 -24 -23 -45.5t-29.5 -38.5t-37.5 -27t-48 -10q-20 0 -38 5.5t-35 12t-33 12t-33 5.5q-19 0 -32.5 -12.5t-21.5 -29.5h-63q9 24 22.5 46t31 39t39.5 27t49 10q20 0 38 -6t34.5 -12.5t31 -12.5t26.5 -6q18 0 33.5 12.5t23.5 30.5h65z" />
<glyph unicode="&#x2dd;" horiz-adv-x="278" d="M164 610h-97l120 146h151zM342 610h-101l126 146h155z" />
<glyph unicode="&#x3a9;" horiz-adv-x="706" d="M366 0l16 71q27 16 55.5 42.5t54.5 64.5t47 87t35 110q9 42 9 83q0 35 -7.5 65.5t-23.5 53.5t-40.5 36t-58.5 13q-51 0 -96.5 -29.5t-80 -79.5t-54.5 -116.5t-20 -139.5q0 -70 20 -118.5t51 -71.5l-16 -71h-258l22 97h138v3q-29 34 -49 85.5t-20 118.5q0 84 31.5 160 t84.5 134.5t123 93t147 34.5q60 0 103.5 -20.5t72 -54.5t42 -78.5t13.5 -93.5q0 -63 -19 -120.5t-48.5 -107t-64.5 -88t-68 -63.5v-3h139l-22 -97h-258z" />
<glyph unicode="&#x3bc;" d="M278 0l14 62q-38 -28 -74 -48.5t-74 -23.5l-41 -182h-126l164 736h126l-89 -400q-3 -14 -3 -24q0 -17 8 -26.5t28 -9.5t44 15.5t48 33.5l92 411h126l-121 -544h-122z" />
<glyph unicode="&#x3c0;" horiz-adv-x="595" d="M358 0q-3 9 -3 23q0 41 18 122l64 290h-145q-11 -43 -29.5 -101t-40.5 -119t-46 -118t-46 -97h-115q23 45 47 102t45.5 116.5t39 116t28.5 100.5q-38 0 -61 -3t-40 -8l4 80q22 14 63 23t104 9h414l-32 -101h-72l-63 -285q-13 -57 -16.5 -92t-3.5 -58h-114z" />
<glyph unicode="&#xe00;" horiz-adv-x="195" />
<glyph unicode="&#xe01;" horiz-adv-x="630" d="M396 0l63 358q3 19 3 36q0 48 -28 73t-88 25q-53 0 -89.5 -15t-55.5 -34l-1 -6q13 -2 28 -7t29.5 -11t26.5 -12.5t19 -12.5l-9 -51q-80 -12 -97 -110l-41 -233h-118l41 234q8 46 37.5 81t68.5 49l1 2q-19 9 -50.5 14t-60.5 5l12 69q18 27 45 52.5t62 44.5t76 30.5 t88 11.5q109 0 166.5 -48t57.5 -135q0 -13 -1.5 -25.5t-3.5 -26.5l-63 -358h-118z" />
<glyph unicode="&#xe02;" horiz-adv-x="607" d="M69 0l17 99h68l22 126q7 38 27 63.5t41.5 49.5t38 51.5t16.5 68.5q0 29 -15.5 44.5t-41.5 15.5q-17 0 -30 -5v-2q20 -4 34 -21t14 -47q0 -25 -10.5 -45t-27 -34t-36.5 -21.5t-40 -7.5q-45 0 -72.5 24.5t-27.5 68.5q0 31 14 61t40 53t64 37t86 14q38 0 67 -10t48 -27.5 t28.5 -41t9.5 -50.5q0 -38 -14.5 -66.5t-33 -55t-36 -54t-23.5 -63.5l-22 -126h114l86 486h118l-103 -585h-420zM152 402q18 0 30 12.5t12 32.5q0 12 -7.5 20t-21.5 8q-19 0 -31.5 -13t-12.5 -30q0 -14 8 -22t23 -8z" />
<glyph unicode="&#xe03;" horiz-adv-x="664" d="M132 0l17 99h63l32 181q9 54 31 88.5t50 60.5l33 31l-17 26l-51 -33h-7q-4 29 -22.5 47.5t-48.5 18.5q-27 0 -39 -10.5t-17 -19.5l2 -2q10 7 29 7q30 0 48.5 -18.5t18.5 -52.5q0 -27 -9 -47.5t-25 -34.5t-36.5 -21.5t-42.5 -7.5q-39 0 -68 25.5t-29 80.5q0 37 14 69 t37.5 55.5t55.5 37t68 13.5q33 0 57 -14.5t36 -33.5l57 35q17 10 30 10q15 0 22 -13l50 -88q5 -10 5 -17q0 -11 -6.5 -22t-17.5 -21l-23 -22q-14 -14 -24.5 -25.5t-18.5 -25t-14 -31.5t-10 -45l-32 -181h115l86 486h118l-103 -585h-414zM148 375q19 0 30.5 12.5t11.5 30.5 q0 13 -7.5 21.5t-21.5 8.5q-19 0 -31 -13t-12 -30q0 -14 8 -22t22 -8z" />
<glyph unicode="&#xe04;" horiz-adv-x="682" d="M350 249q20 0 31.5 12t11.5 32q0 14 -7.5 23t-22.5 9q-20 0 -32 -14t-12 -33q0 -29 31 -29zM448 0l58 330q4 20 4 43q0 54 -29.5 86.5t-92.5 32.5q-77 0 -122.5 -45.5t-57.5 -116.5l-11 -66q-3 -17 -8.5 -36.5t-12 -39.5t-13 -39.5t-12.5 -35.5l9 -2q8 23 21.5 56 t29.5 64l26 52q26 53 57 82t79 29q45 0 69 -24.5t24 -66.5q0 -29 -9.5 -51.5t-25.5 -38t-37 -24t-45 -8.5q-30 0 -45.5 10.5t-22.5 24.5h-3q-2 -14 -7 -35.5t-18 -46.5l-70 -134h-147l58 330q10 58 34.5 106t62.5 83t89.5 54.5t115.5 19.5q56 0 99.5 -15t73 -42.5t45 -66 t15.5 -84.5q0 -14 -1.5 -27.5t-3.5 -27.5l-58 -330h-118z" />
<glyph unicode="&#xe05;" horiz-adv-x="695" d="M352 249q20 0 31.5 12t11.5 32q0 14 -7.5 23t-22.5 9q-20 0 -32 -14t-12 -33q0 -29 31 -29zM459 0l70 395q3 16 3 32q0 26 -9.5 41.5t-29.5 15.5q-23 0 -38 -7.5t-32 -18.5l-37 -23h-6l-30 23q-14 11 -26.5 18.5t-35.5 7.5q-25 0 -42 -24t-24 -65l-23 -131 q-3 -17 -8.5 -36.5t-12 -39.5t-13 -39.5t-12.5 -35.5l9 -2q8 23 21.5 56t29.5 64l26 52q26 53 57 82t79 29q45 0 69 -24.5t24 -66.5q0 -29 -9.5 -51.5t-25.5 -38t-37 -24t-45 -8.5q-30 0 -45.5 10.5t-22.5 24.5h-3q-2 -14 -7 -35.5t-18 -46.5l-70 -134h-148l71 403 q15 87 58.5 136t112.5 49q32 0 50 -8.5t31 -19.5l35 -29l46 29q15 9 35.5 18.5t51.5 9.5q60 0 92.5 -34.5t32.5 -100.5q0 -11 -1 -23.5t-3 -26.5l-71 -403h-119z" />
<glyph unicode="&#xe06;" horiz-adv-x="723" d="M235 188q-36 -10 -48.5 -32.5t-12.5 -48.5q0 -31 20 -31q11 0 17.5 7.5t9.5 25.5zM483 0q-5 25 -14.5 52t-25.5 51t-39 44t-56 31l-12 -69q-11 -61 -52.5 -89t-91.5 -28q-51 0 -80 27t-29 78q0 65 42.5 116t122.5 65l4 22q8 47 28.5 75t48.5 54l33 31l-17 26l-51 -33h-7 q-4 29 -22.5 47.5t-48.5 18.5q-27 0 -39 -10.5t-17 -19.5l2 -2q10 7 29 7q30 0 48.5 -18.5t18.5 -52.5q0 -27 -9 -47.5t-25 -34.5t-36.5 -21.5t-42.5 -7.5q-39 0 -68 25.5t-29 80.5q0 37 14 69t37.5 55.5t55.5 37t68 13.5q33 0 57 -14.5t36 -33.5l57 35q17 10 30 10 q15 0 22 -13l50 -88q5 -10 5 -17q0 -11 -6.5 -22t-17.5 -21l-23 -22q-14 -14 -24 -22t-17 -18t-12.5 -25t-9.5 -42l-5 -28q54 -15 90 -43.5t56 -60.5h6l73 417h118l-103 -585h-122zM152 375q19 0 30.5 12.5t11.5 30.5q0 13 -7.5 21.5t-21.5 8.5q-19 0 -31 -13t-12 -30 q0 -14 8 -22t22 -8z" />
<glyph unicode="&#xe07;" horiz-adv-x="495" d="M259 0l-245 306l83 73l145 -181q23 -29 32.5 -52.5t13.5 -41.5l8 2q-1 5 -1 24q0 22 1.5 49.5t4.5 44.5l20 118q2 12 6 20t10 17l-2 2q-11 -7 -32 -7q-38 0 -62 25t-24 65q0 30 11.5 53.5t31 40.5t44 26t51.5 9q49 0 79 -26.5t30 -71.5q0 -5 -0.5 -11t-1.5 -12l-83 -472 h-120zM376 488q0 16 -9 24.5t-23 8.5q-21 0 -34 -13t-13 -34q0 -14 8.5 -23t24.5 -9q19 0 32.5 13t13.5 33z" />
<glyph unicode="&#xe08;" horiz-adv-x="616" d="M268 239q20 0 31.5 12t11.5 32q0 14 -7.5 23t-22.5 9q-20 0 -31.5 -14t-11.5 -33q0 -29 30 -29zM352 0l-27 124q-3 16 -3 32q0 15 2 28t4 22h-3q-11 -14 -29.5 -24.5t-43.5 -10.5q-36 0 -61 24t-25 66q0 27 9.5 49.5t25.5 39t38 25.5t46 9q51 0 75.5 -29t32.5 -82l11 -82 q3 -23 4 -44.5t2 -44.5l9 2q0 16 1 37t2.5 42.5t4 42.5t5.5 38l12 66q2 12 3 24t1 23q0 52 -28.5 83.5t-95.5 31.5q-37 0 -67 -10.5t-52.5 -29t-36.5 -43.5t-19 -53l-4 -21h-114l4 21q9 50 32.5 93.5t60.5 75.5t88 50t115 18q57 0 100.5 -15t72.5 -42t44 -65t15 -84 q0 -14 -1.5 -28t-3.5 -29l-58 -330h-148z" />
<glyph unicode="&#xe09;" horiz-adv-x="635" d="M270 0h-93l34 195q-23 10 -36 30.5t-13 48.5q0 27 10 50t27.5 39t41.5 25t52 9q48 0 74.5 -22.5t26.5 -64.5q0 -36 -20 -65t-50 -44l-13 -74l81 59q23 17 51 23l25 139q3 16 3 32q0 49 -31.5 81.5t-99.5 32.5q-75 0 -125 -34t-62 -103l-4 -22h-114l4 22q10 54 34.5 97 t63.5 74t92 47.5t118 16.5q59 0 103.5 -14.5t74 -40t44 -61t14.5 -78.5q0 -12 -1 -24.5t-3 -25.5l-25 -140q21 -9 35 -28t14 -51t-11.5 -57.5t-30 -43.5t-41.5 -27.5t-45 -9.5q-55 0 -80 21t-25 49q0 7 1 16.5t4 14.5l-4 1q-11 -19 -22 -34t-30 -27zM474 61q21 0 35.5 15 t14.5 36q0 15 -9 26t-26 11q-20 0 -35.5 -16t-15.5 -36q0 -16 9.5 -26t26.5 -10zM318 292q1 3 1 10q0 14 -9 23t-25 9q-19 0 -34 -14.5t-15 -35.5q0 -15 9.5 -24t24.5 -9q19 0 32 11.5t16 29.5z" />
<glyph unicode="&#xe0a;" horiz-adv-x="610" d="M435 337q1 5 1.5 9.5t0.5 8.5q0 22 -13 32l-11 9q-17 -16 -31 -27.5t-25.5 -24t-19.5 -28t-12 -39.5l-32 -180h100zM89 0l17 99h70l29 165q6 36 18.5 62t30 47t40 41t49.5 45q-17 20 -37.5 32t-51.5 12q-10 0 -16 -1t-10 -3v-3q14 -5 23 -18t9 -35q0 -24 -9.5 -44 t-25.5 -34t-37 -22t-44 -8q-44 0 -71 22.5t-27 71.5q0 30 14.5 59.5t42 53t66 37.5t86.5 14q58 0 98.5 -18.5t69.5 -44.5l116 99l61 -75l-104 -89l22 -18q16 -14 26 -31.5t10 -46.5q0 -14 -3 -32l-59 -337h-403zM152 402q19 0 30.5 12.5t11.5 30.5q0 13 -7.5 21.5t-21.5 8.5 q-19 0 -31 -13t-12 -30q0 -14 8 -22t22 -8z" />
<glyph unicode="&#xe0b;" horiz-adv-x="621" d="M446 333q1 6 1.5 10.5t0.5 9.5q0 11 -3 18t-9 14l-9 11q-16 -15 -31 -27t-27 -25t-20.5 -29t-12.5 -38l-32 -180h100zM95 0l17 99h74l28 156q11 61 40.5 103.5t80.5 85.5l33 28l-19 24l-59 -43h-7q-4 29 -22.5 47.5t-48.5 18.5q-25 0 -38 -10.5t-18 -19.5l2 -2q12 7 29 7 q30 0 48.5 -19t18.5 -56q0 -25 -9 -45t-24.5 -33.5t-35.5 -21t-42 -7.5q-46 0 -72.5 25t-26.5 78q0 38 14 70.5t37.5 56.5t55.5 37.5t68 13.5q33 0 57 -14.5t36 -33.5l53 35q19 13 36 13q19 0 31 -16l22 -30l94 82l60 -76l-96 -83l19 -22q17 -19 25.5 -36t8.5 -42 q0 -15 -3 -34l-59 -336h-408zM148 375q19 0 30.5 12.5t11.5 30.5q0 13 -7.5 21.5t-21.5 8.5q-19 0 -31 -13t-12 -30q0 -14 8 -22t22 -8z" />
<glyph unicode="&#xe0c;" horiz-adv-x="934" d="M168 66q21 0 33.5 13.5t12.5 34.5q0 14 -8 22.5t-24 8.5q-19 0 -32 -13t-13 -33q0 -33 31 -33zM697 0q-9 50 -43 93t-99 62l-10 -59q-9 -51 -47 -77.5t-87 -26.5q-51 0 -76.5 26.5t-25.5 68.5q0 33 12 60.5t32 47.5t46 33t55 18l20 112q3 18 3 33q0 49 -30 75t-93 26 q-55 0 -93.5 -15t-56.5 -34l-2 -6q13 -2 28.5 -7t29.5 -11t26.5 -12.5t19.5 -12.5l-9 -51q-86 -12 -104 -100l-1 -5q-2 -12 -5.5 -20t-9.5 -17l2 -2q11 8 32 8q35 0 57.5 -23t22.5 -61q0 -29 -10 -52.5t-28 -40.5t-42.5 -26.5t-52.5 -9.5q-47 0 -77.5 27t-30.5 70q0 5 0.5 9 t1.5 9l23 135q7 42 40 74t73 46v2q-19 9 -50.5 14t-60.5 5l12 69q18 27 45.5 52.5t63 44.5t78 30.5t90.5 11.5q111 0 170.5 -48.5t59.5 -136.5q0 -12 -1 -24.5t-3 -25.5l-20 -116q54 -11 93 -36t59 -56h5l77 435h114l-104 -585h-119zM443 164q-32 -6 -44.5 -22.5 t-12.5 -45.5q0 -15 5.5 -24t15.5 -9q18 0 24 35z" />
<glyph unicode="&#xe0d;" horiz-adv-x="926" d="M385 0l63 358q3 19 3 37q0 47 -26.5 72t-83.5 25q-50 0 -84.5 -15t-52.5 -34l-2 -6q13 -2 28.5 -7t29.5 -11t26.5 -12.5t19.5 -12.5l-9 -51q-86 -12 -104 -100l-1 -5q-2 -12 -5.5 -20t-9.5 -17l2 -2q11 8 32 8q35 0 57.5 -23t22.5 -61q0 -29 -10 -52.5t-27.5 -40.5 t-41.5 -26.5t-52 -9.5q-47 0 -78.5 27t-31.5 70q0 5 0.5 9t1.5 9l23 135q7 42 40 74t73 46v2q-19 9 -50.5 14t-60.5 5l12 69q18 27 44.5 52.5t60.5 44.5t74 30.5t85 11.5q106 0 162 -47.5t56 -133.5q0 -13 -1.5 -26.5t-3.5 -27.5l-46 -257h188l86 484h118l-104 -585h-423z M168 66q21 0 33.5 13.5t12.5 34.5q0 14 -8 22.5t-24 8.5q-19 0 -32 -13t-13 -33q0 -33 31 -33zM791 -89q-18 -99 -84.5 -155t-165.5 -56q-43 0 -80 10t-64 28t-42 43.5t-15 56.5q0 28 10 51.5t27.5 40.5t41 26t50.5 9q39 0 62.5 -23t23.5 -59q0 -21 -7.5 -37t-19 -27 t-24 -18t-21.5 -9l-1 -3q9 -3 23.5 -5t26.5 -2q61 0 102 34.5t52 94.5l8 43h105zM443 -170q17 0 30 12.5t13 31.5q0 14 -8 23t-21 9q-19 0 -31.5 -13t-12.5 -32q0 -14 8 -22.5t22 -8.5z" />
<glyph unicode="&#xe0e;" horiz-adv-x="658" d="M92 -216q22 0 35.5 14.5t13.5 36.5q0 16 -8.5 25.5t-25.5 9.5q-23 0 -36.5 -14.5t-13.5 -36.5q0 -15 9 -25t26 -10zM339 -293h-11l-73 54q-17 13 -27 25.5t-11 28.5h-4q-8 -43 -42 -72.5t-85 -29.5q-48 0 -79.5 24.5t-31.5 69.5q0 28 10 52t28 41.5t42.5 27.5t52.5 10 q11 0 17 -2t11 -4l3 2q-3 4 -3 13q0 3 0.5 6.5t1.5 8.5l2 14h101l-12 -70l101 -79l75 68l82 463q3 18 3 35q0 48 -28.5 73.5t-88.5 25.5q-53 0 -89.5 -15t-54.5 -34l-1 -6q13 -2 28 -7t29.5 -11t26.5 -12.5t19 -12.5l-9 -51q-26 -6 -41.5 -27t-22.5 -63l-25 -144 q-5 -25 -17.5 -46t-30.5 -36.5t-41 -24t-48 -8.5q-45 0 -74.5 25t-29.5 68q0 27 9.5 49t26 37.5t37 24.5t43.5 9q20 0 30 -8l2 2q-4 9 -4 21q0 3 0.5 7t1.5 9l4 26q6 42 26.5 64t44.5 36v2q-19 9 -50 14t-60 5l12 69q18 27 45 52.5t61.5 44.5t75.5 30.5t88 11.5 q109 0 167 -48t58 -136q0 -12 -1.5 -24.5t-3.5 -26.5l-87 -490zM101 66q20 0 32.5 13t12.5 34q0 14 -8 23t-23 9q-20 0 -32.5 -13.5t-12.5 -33.5q0 -32 31 -32z" />
<glyph unicode="&#xe0f;" horiz-adv-x="658" d="M90 -222q22 0 35.5 14.5t13.5 36.5q0 16 -9 25.5t-25 9.5q-22 0 -35.5 -14.5t-13.5 -36.5q0 -16 8.5 -25.5t25.5 -9.5zM384 -293h-12l-51 57l-69 -57h-12q-17 20 -26 35t-9 32q0 7 1 11h-4q-4 -11 -12.5 -24.5t-23 -25.5t-35.5 -20t-48 -8q-22 0 -41.5 6t-34.5 18 t-23.5 29.5t-8.5 40.5q0 28 11 52.5t30 42t42.5 27.5t49.5 10q10 0 17 -2.5t11 -5.5l2 2q-2 3 -3.5 8t-1.5 11q0 3 1 5l3 17h100l-17 -97l46 -55l51 45h10l39 -44l30 27l91 514q3 19 3 36q0 48 -28 73t-88 25q-53 0 -90 -15t-55 -34l-1 -6q13 -2 28 -7t29.5 -11t26.5 -12.5 t19 -12.5l-9 -51q-26 -6 -41.5 -27t-22.5 -63l-25 -144q-5 -25 -17.5 -46t-30.5 -36.5t-41 -24t-48 -8.5q-45 0 -74.5 25t-29.5 68q0 27 9.5 49t26 37.5t37 24.5t43.5 9q20 0 30 -8l2 2q-4 9 -4 21q0 3 0.5 7t1.5 9l4 26q6 42 26.5 64t44.5 36v2q-19 9 -50 14t-60 5l12 69 q18 27 45 52.5t61.5 44.5t75.5 30.5t88 11.5q109 0 167 -48t58 -136q0 -12 -1.5 -24.5t-3.5 -26.5l-95 -540zM101 66q20 0 32.5 13t12.5 34q0 14 -8 23t-23 9q-20 0 -32.5 -13.5t-12.5 -33.5q0 -32 31 -32z" />
<glyph unicode="&#xe10;" horiz-adv-x="551" d="M393 -124q0 28 -28 28q-16 0 -27 -11t-11 -28q0 -12 7 -19.5t20 -7.5q17 0 28 10.5t11 27.5zM178 185q20 0 31.5 12t11.5 32q0 14 -7.5 23t-22.5 9q-19 0 -31 -13.5t-12 -32.5q0 -30 30 -30zM243 0l-12 77q-1 3 -1 11q0 14 3.5 29.5t7.5 29.5l-2 2q-11 -13 -30.5 -23.5 t-44.5 -10.5q-38 0 -66.5 24t-28.5 65q0 28 9.5 51.5t26.5 40t40 26t49 9.5q50 0 80 -24.5t34 -71.5l7 -84v-11q0 -18 -2.5 -38.5t-4.5 -37.5h7q5 27 14 58t17 52l28 77q8 24 8 39q0 38 -36 52.5t-100 14.5q-58 0 -104 -7.5t-75 -18.5h-11l14 81q6 34 21 66.5t39.5 58 t59.5 41t82 15.5q26 0 47 -5t40 -10.5t37.5 -10.5t39.5 -5q25 0 37.5 14t17.5 43q25 -6 49.5 -12.5t49.5 -13.5q-11 -57 -46 -92.5t-98 -35.5q-30 0 -51 4.5t-40 10t-40 10t-51 4.5q-35 0 -55.5 -15.5t-23.5 -35.5l-1 -7q14 3 38.5 5t64.5 2q54 0 92.5 -10t63 -28 t36.5 -42.5t12 -53.5q0 -17 -4 -34.5t-11 -37.5l-88 -237h-145zM46 -310q21 0 35 14.5t14 36.5q0 16 -8.5 25.5t-25.5 9.5q-22 0 -35.5 -14.5t-13.5 -36.5q0 -16 8.5 -25.5t25.5 -9.5zM315 -376q-11 12 -22.5 25t-22.5 26l-61 -51h-12q-17 21 -26.5 33.5t-9.5 28.5q0 7 1 11 h-4q-4 -11 -12.5 -24.5t-23 -25.5t-35 -20t-47.5 -8q-22 0 -41.5 6t-34.5 18t-24 29.5t-9 40.5q0 28 11 52.5t29.5 42t42 27.5t47.5 10q12 0 19.5 -2.5t11.5 -5.5l2 2q-2 3 -3.5 8t-1.5 11q0 3 1 5l3 17h100l-17 -97l47 -50q12 11 25 20.5t25 20.5h8q8 -11 15.5 -22.5 t15.5 -22.5l23 16q2 9 8.5 19t13.5 15l-2 3q-5 -2 -10 -3t-16 -1q-30 0 -51 21.5t-21 55.5q0 51 32 79.5t82 28.5q37 0 64.5 -21t27.5 -64q0 -5 -0.5 -11t-1.5 -12l-23 -129q-28 -26 -55 -51.5t-55 -50.5h-13z" />
<glyph unicode="&#xe11;" horiz-adv-x="797" d="M562 0l76 430q1 5 1.5 9.5t0.5 8.5q0 31 -27 31h-5l-243 -479h-145l57 323q3 18 6.5 31.5t8.5 25.5t13 23.5t19 25.5l27 32l-17 27l-44 -32h-7q-4 29 -22.5 46t-48.5 17q-25 0 -38 -10.5t-18 -19.5l2 -2q10 7 29 7q30 0 48.5 -19.5t18.5 -51.5q0 -27 -9 -47.5 t-24.5 -34.5t-35.5 -21.5t-41 -7.5q-42 0 -71 24.5t-29 74.5q0 39 14 72.5t37.5 58t55.5 38t68 13.5q33 0 57 -14.5t36 -33.5l37 32q15 13 29 13t24 -13l54 -81q7 -11 7 -23q0 -11 -6.5 -22t-14.5 -22l-25 -32q-6 -8 -11 -25.5t-9 -38.5l-3 -17q-3 -20 -9.5 -45t-14.5 -51 t-16 -51.5t-15 -46.5l11 -2q6 21 14 45.5t17.5 50t20 50.5t21.5 47l139 272h63q66 0 100 -30.5t34 -87.5q0 -9 -1 -19t-3 -21l-75 -427h-118zM148 375q19 0 30.5 12.5t11.5 30.5q0 13 -7.5 21.5t-21.5 8.5q-19 0 -31 -13t-12 -30q0 -14 8 -22t22 -8z" />
<glyph unicode="&#xe12;" horiz-adv-x="983" d="M331 260q18 0 30.5 12.5t12.5 32.5q0 14 -7.5 22.5t-22.5 8.5q-21 0 -32.5 -13t-11.5 -32q0 -14 8.5 -22.5t22.5 -8.5zM746 0q-9 50 -43 93t-99 62l-10 -59q-9 -51 -45.5 -77.5t-85.5 -26.5q-51 0 -78 26.5t-27 68.5q0 33 11.5 60.5t31.5 47.5t46.5 33t55.5 18l26 149 q3 18 3 33q0 26 -9.5 41t-29.5 15q-23 0 -38 -7.5t-32 -18.5l-37 -23h-6l-30 23q-14 11 -26.5 18.5t-35.5 7.5q-26 0 -42.5 -24t-23.5 -65l-31 -174q-8 -40 -18.5 -73t-21.5 -56l5 -2q10 14 22 25t25 23l30 28q11 11 24.5 22t26.5 13l1 3q-20 4 -39 22.5t-19 55.5 q0 25 8.5 47.5t24.5 39t38.5 26t50.5 9.5q41 0 69 -24t28 -67q0 -23 -8 -41t-22 -35.5t-34.5 -36t-45.5 -41.5l-171 -159h-128l71 403q15 87 58 136t112 49q31 0 49.5 -8.5t31.5 -19.5l34 -29l47 29q15 9 35.5 18.5t51.5 9.5q60 0 93.5 -34.5t33.5 -99.5q0 -12 -1.5 -24.5 t-3.5 -26.5l-30 -161q55 -11 94.5 -36t58.5 -56h5l77 435h114l-103 -585h-119zM491 164q-32 -6 -44 -22.5t-12 -45.5q0 -15 5.5 -24t14.5 -9q18 0 24 35z" />
<glyph unicode="&#xe13;" horiz-adv-x="932" d="M668 155q-29 -7 -54.5 -23t-46.5 -37t-37 -46t-28 -49h-117l63 358q3 19 3 37q0 47 -26.5 72t-83.5 25q-50 0 -84.5 -15t-52.5 -34l-2 -6q13 -2 28.5 -7t29.5 -11t26.5 -12.5t19.5 -12.5l-9 -51q-86 -12 -104 -100l-1 -5q-2 -12 -5.5 -20t-9.5 -17l2 -2q11 8 32 8 q35 0 57.5 -23t22.5 -61q0 -29 -10 -52.5t-27.5 -40.5t-41.5 -26.5t-52 -9.5q-47 0 -78.5 27t-31.5 70q0 5 0.5 9t1.5 9l23 135q7 42 40 74t73 46v2q-19 9 -50.5 14t-60.5 5l12 69q18 27 44.5 52.5t60.5 44.5t74 30.5t85 11.5q106 0 162 -47.5t56 -134.5q0 -13 -1.5 -26 t-3.5 -27l-33 -185h5q37 35 89.5 54.5t112.5 19.5l60 338h118l-67 -375q41 -26 41 -81q0 -30 -11 -55t-29.5 -43t-44.5 -28.5t-56 -10.5q-48 0 -79.5 23.5t-31.5 65.5q0 21 8 41t21 29zM168 66q21 0 33.5 13.5t12.5 34.5q0 14 -8 22.5t-24 8.5q-19 0 -32 -13t-13 -33 q0 -33 31 -33zM806 116q0 14 -8 23.5t-25 9.5q-21 0 -34.5 -14t-13.5 -33q0 -14 8.5 -23.5t25.5 -9.5q21 0 34 14t13 33z" />
<glyph unicode="&#xe14;" horiz-adv-x="682" d="M344 250q20 0 31.5 12t11.5 32q0 14 -7.5 23t-22.5 9q-21 0 -32.5 -14t-11.5 -33q0 -29 31 -29zM448 0l58 330q4 20 4 43q0 54 -29.5 86.5t-92.5 32.5q-77 0 -122.5 -45.5t-57.5 -116.5l-19 -109q-7 -40 -16.5 -73t-21.5 -56l5 -2q10 14 21 25.5t25 22.5l40 29 q12 9 27 15.5t29 8.5v3q-20 4 -39 22.5t-19 55.5q0 25 9 47.5t25 39t38.5 26t49.5 9.5q41 0 69 -23.5t28 -64.5q0 -21 -4.5 -39t-16.5 -36t-31.5 -37.5t-49.5 -43.5l-192 -150h-129l58 330q10 58 34.5 106t62.5 83t89.5 54.5t115.5 19.5q56 0 99.5 -15t73 -42.5t45 -66 t15.5 -84.5q0 -14 -1.5 -27.5t-3.5 -27.5l-58 -330h-118z" />
<glyph unicode="&#xe15;" horiz-adv-x="695" d="M346 250q18 0 30.5 12.5t12.5 32.5q0 14 -7.5 22.5t-22.5 8.5q-21 0 -32.5 -13t-11.5 -32q0 -14 8.5 -22.5t22.5 -8.5zM459 0l70 395q3 16 3 32q0 26 -9.5 41.5t-29.5 15.5q-23 0 -38 -7.5t-32 -18.5l-37 -23h-6l-30 23q-14 11 -26.5 18.5t-35.5 7.5q-26 0 -42.5 -24 t-23.5 -65l-31 -174q-8 -40 -18.5 -73t-21.5 -56l5 -2q10 14 21 25.5t25 22.5l43 31q12 9 26.5 14.5t28.5 7.5v3q-20 4 -39 22.5t-19 55.5q0 25 8.5 47.5t24.5 39t38.5 26t49.5 9.5q41 0 69.5 -23.5t28.5 -64.5q0 -20 -4 -38t-15.5 -36.5t-31.5 -38.5t-51 -44l-194 -149 h-128l71 403q15 87 58.5 136t112.5 49q31 0 49.5 -8.5t31.5 -19.5l34 -29l47 29q15 9 35.5 18.5t51.5 9.5q60 0 92.5 -34.5t32.5 -100.5q0 -11 -1 -23.5t-3 -26.5l-71 -403h-119z" />
<glyph unicode="&#xe16;" horiz-adv-x="635" d="M401 0l63 358q3 18 3 35q0 48 -29 73.5t-89 25.5q-53 0 -90 -15t-55 -34l-2 -6q13 -2 28.5 -7t29.5 -11t26.5 -12.5t19.5 -12.5l-9 -51q-42 -6 -69 -31t-35 -69l-1 -5q-2 -12 -5.5 -20t-9.5 -17l2 -2q11 8 32 8q35 0 57.5 -23t22.5 -61q0 -29 -10 -52.5t-27 -40.5 t-41 -26.5t-52 -9.5q-47 0 -79 27t-32 70q0 5 0.5 9t1.5 9l23 135q7 42 40 74t73 46v2q-19 9 -50.5 14t-60.5 5l12 69q18 27 45.5 52.5t62 44.5t76 30.5t88.5 11.5q109 0 167.5 -48t58.5 -136q0 -12 -1.5 -24.5t-3.5 -26.5l-63 -358h-118zM168 66q21 0 33.5 13.5t12.5 34.5 q0 14 -8 22.5t-24 8.5q-19 0 -32 -13t-13 -33q0 -33 31 -33z" />
<glyph unicode="&#xe17;" horiz-adv-x="670" d="M435 0l76 430q1 5 1.5 10t0.5 9q0 30 -26 30h-5l-240 -479h-145l60 342q2 12 6 20t10 17l-2 2q-11 -7 -32 -7q-38 0 -62 25t-24 65q0 60 39 94.5t98 34.5q46 0 78.5 -27t32.5 -70q0 -5 -0.5 -9t-1.5 -9l-28 -162q-3 -20 -9.5 -45t-14.5 -51t-16 -51.5t-14 -46.5l10 -2 q12 42 29 95t39 98l130 272h73q66 0 100 -30.5t34 -87.5q0 -9 -1 -19t-3 -21l-75 -427h-118zM212 488q0 16 -9 24.5t-23 8.5q-21 0 -34 -13t-13 -34q0 -14 8.5 -23t24.5 -9q19 0 32.5 13t13.5 33z" />
<glyph unicode="&#xe18;" horiz-adv-x="569" d="M376 237q1 5 1.5 9t0.5 9q0 49 -53 49h-72l-37 -206h135zM16 0l17 99h67l37 205h-87l18 104q6 36 25.5 69.5t52.5 59t79.5 41t107.5 15.5q52 0 94.5 -10t72.5 -29t46 -45t16 -58v-12t-2 -13l-2 -10h-114l2 11q0 2 0.5 4t0.5 4q0 27 -30.5 43t-89.5 16q-69 0 -102 -22 t-40 -57l-3 -16h153q84 0 122 -33.5t38 -91.5q0 -18 -3 -37l-42 -237h-434z" />
<glyph unicode="&#xe19;" horiz-adv-x="645" d="M380 155q-29 -7 -54 -23t-46 -37t-37 -46t-28 -49h-118l60 342q2 12 6 20t10 17l-2 2q-11 -7 -32 -7q-38 0 -62 25t-24 65q0 30 10.5 53.5t29 40.5t44 26t54.5 9q23 0 43 -7t35 -20t23.5 -30.5t8.5 -38.5q0 -5 -0.5 -9.5t-1.5 -9.5l-54 -305h6q36 35 89 54.5t113 19.5 l59 338h118l-66 -375q41 -27 41 -81q0 -30 -11 -55t-29.5 -43t-44.5 -28.5t-56 -10.5q-48 0 -79.5 23.5t-31.5 65.5q0 21 8 41t21 29zM212 488q0 16 -9 24.5t-23 8.5q-21 0 -34 -13t-13 -34q0 -14 8.5 -23t24.5 -9q19 0 32.5 13t13.5 33zM519 116q0 14 -8.5 23.5t-25.5 9.5 q-21 0 -34 -14t-13 -33q0 -14 8 -23.5t25 -9.5q21 0 34.5 14t13.5 33z" />
<glyph unicode="&#xe1a;" horiz-adv-x="646" d="M23 0l17 99h76l43 243q2 12 6 20t10 17l-2 2q-11 -7 -32 -7q-38 0 -62 25t-24 65q0 30 10.5 53.5t29 40.5t44 26t54.5 9q23 0 43 -7t35 -20t23.5 -30.5t8.5 -38.5q0 -5 -0.5 -9.5t-1.5 -9.5l-67 -379h193l86 486h118l-103 -585h-505zM168 442q19 0 32.5 13.5t13.5 33.5 q0 15 -9 23.5t-23 8.5q-21 0 -34 -13t-13 -34q0 -14 8.5 -23t24.5 -9z" />
<glyph unicode="&#xe1b;" horiz-adv-x="646" d="M23 0l17 99h76l43 243q2 12 6 20t10 17l-2 2q-11 -7 -32 -7q-38 0 -62 25t-24 65q0 30 10.5 53.5t29 40.5t44 26t54.5 9q23 0 43 -7t35 -20t23.5 -30.5t8.5 -38.5q0 -5 -0.5 -9.5t-1.5 -9.5l-67 -379h193l141 799h118l-158 -898h-505zM214 488q0 16 -9 24.5t-23 8.5 q-21 0 -34 -13t-13 -34q0 -14 8.5 -23t24.5 -9q19 0 32.5 13t13.5 33z" />
<glyph unicode="&#xe1c;" horiz-adv-x="671" d="M455 0l-115 218l-191 -218h-111l84 478q4 25 16.5 46t31.5 36.5t42 24t49 8.5q46 0 77.5 -24.5t31.5 -69.5q0 -27 -10.5 -50t-27.5 -39.5t-39.5 -26t-46.5 -9.5q-22 0 -30 7l-2 -2q2 -5 3 -10.5t1 -10.5q0 -4 -0.5 -7.5t-1.5 -8.5l-31 -173l133 149h68l80 -149l73 416 h117l-103 -585h-98zM290 488q0 33 -33 33q-20 0 -33 -13t-13 -34q0 -14 9 -23t23 -9q20 0 33.5 13t13.5 33z" />
<glyph unicode="&#xe1d;" horiz-adv-x="671" d="M455 0l-115 218l-191 -218h-111l84 478q4 25 16.5 46t31.5 36.5t42 24t49 8.5q46 0 77.5 -24.5t31.5 -69.5q0 -27 -10.5 -50t-27.5 -39.5t-39.5 -26t-46.5 -9.5q-22 0 -30 7l-2 -2q2 -5 3 -10.5t1 -10.5q0 -4 -0.5 -7.5t-1.5 -8.5l-31 -173l133 149h68l80 -149l128 729 h117l-158 -898h-98zM290 488q0 33 -33 33q-20 0 -33 -13t-13 -34q0 -14 9 -23t23 -9q20 0 33.5 13t13.5 33z" />
<glyph unicode="&#xe1e;" horiz-adv-x="732" d="M494 0l-66 395l-201 -395h-130l60 342q2 12 6 20t10 17l-2 2q-11 -7 -32 -7q-38 0 -62 25t-24 65q0 30 10.5 53.5t29.5 40.5t44.5 26t54.5 9q46 0 75.5 -27t29.5 -69q0 -5 -0.5 -9.5t-1.5 -9.5l-21 -123q-3 -18 -10.5 -46t-16.5 -57.5t-18 -57t-15 -44.5l8 -1q5 17 14 41 t20.5 50.5t24.5 54t26 51.5l111 208h66l42 -208q5 -24 8 -51.5t4.5 -54t2 -50.5t0.5 -41l10 1v18q0 19 1 45t2.5 52t4 50t5.5 40l41 230h112l-103 -585h-120zM212 488q0 16 -9 24.5t-23 8.5q-21 0 -34 -13t-13 -34q0 -14 8.5 -23t24.5 -9q19 0 32.5 13t13.5 33z" />
<glyph unicode="&#xe1f;" horiz-adv-x="732" d="M494 0l-66 395l-201 -395h-130l60 342q2 12 6 20t10 17l-2 2q-11 -7 -32 -7q-38 0 -62 25t-24 65q0 30 10.5 53.5t29 40.5t44 26t54.5 9q46 0 75.5 -27t29.5 -69v-9.5t-1 -9.5l-21 -123q-3 -18 -10.5 -46t-16.5 -57.5t-18 -57t-15 -44.5l8 -1q5 17 14 41t20.5 50.5 t24.5 54t26 51.5l111 208h66l42 -208q5 -24 8 -51.5t4.5 -54t2 -50.5t0.5 -41l10 1v18q0 19 1 45t2.5 52t4 50t5.5 40l96 543h112l-158 -898h-120zM212 488q0 16 -9 24.5t-23 8.5q-21 0 -34 -13t-13 -34q0 -14 8.5 -23t24.5 -9q19 0 32.5 13t13.5 33z" />
<glyph unicode="&#xe20;" horiz-adv-x="659" d="M425 0l63 358q3 18 3 35q0 48 -28.5 73.5t-88.5 25.5q-53 0 -89.5 -15t-54.5 -34l-2 -6q13 -2 28.5 -7t29.5 -11t26.5 -12.5t19.5 -12.5l-9 -51q-27 -6 -42 -27t-22 -63l-25 -144q-5 -25 -17.5 -46t-31 -36.5t-41.5 -24t-48 -8.5q-44 0 -73.5 25t-29.5 68q0 27 9.5 49 t26 37.5t37 24.5t43.5 9q19 0 30 -8l2 2q-5 13 -5 23q0 4 2 14l5 26q8 42 27 64t44 36v2q-19 9 -50.5 14t-60.5 5l12 69q18 27 45 52.5t62 44.5t76 30.5t88 11.5q109 0 167 -48t58 -136q0 -12 -1.5 -24.5t-3.5 -26.5l-63 -358h-118zM102 66q20 0 32.5 13t12.5 34 q0 14 -8.5 23t-22.5 9q-20 0 -33 -13.5t-13 -33.5q0 -32 32 -32z" />
<glyph unicode="&#xe21;" horiz-adv-x="647" d="M407 0q-5 25 -14.5 52t-25 51t-39 44t-55.5 31l-12 -69q-11 -61 -49.5 -89t-88.5 -28q-51 0 -83.5 27t-32.5 78q0 32 11 62t32 54t52 41t71 24l11 64q2 12 5.5 20t9.5 17l-2 2q-10 -7 -32 -7q-38 0 -62 25t-24 65q0 30 10.5 53.5t29 40.5t44 26t54.5 9q46 0 78.5 -27 t32.5 -70q0 -5 -0.5 -9t-1.5 -9l-36 -206q54 -15 89.5 -43.5t55.5 -60.5h6l73 417h118l-103 -585h-122zM160 188q-36 -10 -48.5 -32.5t-12.5 -48.5q0 -31 20 -31q11 0 17.5 7.5t9.5 25.5zM238 488q0 16 -9 24.5t-23 8.5q-21 0 -34 -13t-13 -34q0 -14 8.5 -23t24.5 -9 q19 0 32.5 13t13.5 33z" />
<glyph unicode="&#xe22;" horiz-adv-x="615" d="M39 0l26 148q10 56 35.5 83t56.5 37l1 3q-36 8 -61 40t-25 86q0 39 14 74.5t39 62.5t60.5 42.5t79.5 15.5q53 0 83.5 -26.5t30.5 -68.5q0 -56 -38 -90.5t-96 -34.5q-37 0 -58.5 21t-23.5 42h-3q-7 -14 -7 -29q0 -17 9.5 -31.5t26 -25.5t38.5 -17.5t47 -6.5h63l-16 -95 h-63q-30 0 -51 -21.5t-27 -57.5l-9 -52h226l86 486h118l-103 -585h-459zM302 487q0 15 -8.5 25t-24.5 10q-20 0 -34 -14.5t-14 -34.5q0 -15 8.5 -24.5t24.5 -9.5q20 0 34 14t14 34z" />
<glyph unicode="&#xe23;" horiz-adv-x="509" d="M394 416l2 11q0 2 0.5 5t0.5 5q0 25 -25 41t-79 16q-52 0 -82.5 -20t-37.5 -58l-2 -11h87q124 0 124 -89q0 -14 -3 -32l-31 -175q-5 -25 -17 -46t-30.5 -36.5t-41.5 -24t-48 -8.5q-44 0 -73.5 25t-29.5 68q0 27 9.5 49t25.5 37.5t36.5 24.5t43.5 9q20 0 30 -8l2 2 q-2 6 -3 11t-1 11q0 4 0.5 7t1.5 8l7 40q1 3 1 9q0 14 -9 19.5t-22 5.5h-187l17 97q6 36 26 69t51.5 58.5t74 41t95.5 15.5q49 0 88 -11.5t65.5 -31.5t40.5 -47.5t14 -58.5v-10t-1 -10l-1 -8h-119zM217 66q20 0 32.5 13t12.5 34q0 14 -8.5 23t-22.5 9q-20 0 -33 -13.5 t-13 -33.5q0 -32 32 -32z" />
<glyph unicode="&#xe24;" horiz-adv-x="635" d="M351 -282l113 640q3 18 3 35q0 48 -29 73.5t-89 25.5q-53 0 -90 -15t-55 -34l-2 -6q13 -2 28.5 -7t29.5 -11t26.5 -12.5t19.5 -12.5l-9 -51q-42 -6 -69 -31t-35 -69l-1 -5q-2 -12 -5.5 -20t-9.5 -17l2 -2q11 8 32 8q35 0 57.5 -23t22.5 -61q0 -29 -10 -52.5t-27.5 -40.5 t-41.5 -26.5t-52 -9.5q-47 0 -78.5 27t-31.5 70q0 5 0.5 9t1.5 9l23 135q7 42 40 74t73 46v2q-19 9 -50.5 14t-60.5 5l12 69q18 27 45.5 52.5t62 44.5t76 30.5t88.5 11.5q109 0 167.5 -48t58.5 -136q0 -12 -1.5 -24.5t-3.5 -26.5l-113 -640h-118zM168 66q21 0 33.5 13.5 t12.5 34.5q0 14 -8 22.5t-24 8.5q-19 0 -32 -13t-13 -33q0 -33 31 -33z" />
<glyph unicode="&#xe25;" horiz-adv-x="627" d="M381 0q-2 43 -12 89t-24.5 88.5t-32 77.5t-34.5 56q-31 -23 -54.5 -50t-37.5 -56h3q10 5 26 5q35 0 60.5 -23.5t25.5 -67.5q0 -27 -10.5 -50.5t-29 -40.5t-43.5 -26.5t-55 -9.5q-47 0 -80 26.5t-33 78.5q0 49 24 96.5t60.5 90t79.5 77.5t82 59h24q24 -28 44.5 -63.5 t36 -73t27 -74t17.5 -65.5l5 3q-3 30 -4.5 52t-1.5 41q0 14 1 27.5t4 27.5l10 56q3 18 3 33q0 54 -33.5 84t-96.5 30q-70 0 -117.5 -32t-60.5 -104l-4 -22h-110l4 22q20 110 93 170.5t202 60.5q56 0 100 -13.5t75 -39t47 -61.5t16 -81q0 -11 -1 -23t-3 -24l-62 -351h-130z M220 108q0 15 -9 24.5t-25 9.5q-21 0 -35 -14t-14 -34q0 -15 8.5 -25t25.5 -10q20 0 34.5 14.5t14.5 34.5z" />
<glyph unicode="&#xe26;" horiz-adv-x="659" d="M375 -282l113 640q3 18 3 35q0 48 -28.5 73.5t-88.5 25.5q-53 0 -89.5 -15t-54.5 -34l-2 -6q13 -2 28.5 -7t29.5 -11t26.5 -12.5t19.5 -12.5l-9 -51q-27 -6 -42 -27t-22 -63l-25 -144q-5 -25 -17.5 -46t-31 -36.5t-41.5 -24t-48 -8.5q-44 0 -73.5 25t-29.5 68 q0 27 9.5 49t26 37.5t37 24.5t43.5 9q19 0 30 -8l2 2q-5 13 -5 23q0 4 2 14l5 26q8 42 27 64t44 36v2q-19 9 -50.5 14t-60.5 5l12 69q18 27 45 52.5t62 44.5t76 30.5t88 11.5q109 0 167 -48t58 -136q0 -12 -1.5 -24.5t-3.5 -26.5l-113 -640h-118zM102 66q20 0 32.5 13 t12.5 34q0 14 -8.5 23t-22.5 9q-20 0 -33 -13.5t-13 -33.5q0 -32 32 -32z" />
<glyph unicode="&#xe27;" horiz-adv-x="544" d="M355 201q-5 13 -5 23q0 4 2 14l26 149q2 7 2 13.5v12.5q0 38 -23 58.5t-71 20.5q-24 0 -46 -7.5t-40 -21t-30 -33t-16 -43.5l-6 -36h-114l7 39q8 43 30.5 80.5t56.5 64.5t76.5 42.5t89.5 15.5q46 0 84 -11.5t65 -33.5t41.5 -53.5t14.5 -70.5q0 -19 -3 -38l-49 -277 q-4 -25 -16.5 -46t-30.5 -36.5t-41 -24t-48 -8.5q-44 0 -74 25t-30 68q0 27 9.5 49t26 37.5t37 24.5t43.5 9q19 0 29 -8zM316 66q20 0 32.5 13t12.5 34q0 14 -8.5 23t-22.5 9q-21 0 -33.5 -13.5t-12.5 -33.5q0 -32 32 -32z" />
<glyph unicode="&#xe28;" horiz-adv-x="686" d="M452 0l58 330q2 11 3 21t1 20q0 34 -12 61q-14 -17 -29.5 -32.5l-30.5 -30.5q24 -24 24 -62q0 -57 -32.5 -91.5t-85.5 -34.5q-25 0 -42.5 10.5t-24.5 24.5h-3q-2 -14 -7 -35.5t-18 -46.5l-70 -134h-147l58 330q10 58 35 106t63 83t90 54.5t116 19.5q30 0 56 -5t49 -14 q17 22 32 44.5t30 46.5l85 -36q-33 -54 -72 -105q54 -57 54 -146q0 -11 -1 -23.5t-3 -24.5l-58 -330h-118zM160 111q8 23 21.5 56t29.5 64l26 52q23 45 46.5 72.5t62.5 35.5q23 23 44.5 46.5t42.5 48.5q-20 6 -43 6q-39 0 -70 -12t-54 -33.5t-37.5 -51t-20.5 -65.5l-11 -66 q-3 -17 -8.5 -36.5t-12 -39.5t-13 -39.5t-12.5 -35.5zM350 249q20 0 31.5 12t11.5 32q0 14 -7.5 23t-22.5 9q-20 0 -32 -14t-12 -33q0 -29 31 -29z" />
<glyph unicode="&#xe29;" horiz-adv-x="716" d="M23 0l17 99h76l43 243q2 12 6 20t10 17l-2 2q-11 -7 -32 -7q-38 0 -62 25t-24 65q0 30 10.5 53.5t29 40.5t44 26t54.5 9q23 0 43 -7t35 -20t23.5 -30.5t8.5 -38.5q0 -5 -0.5 -9.5t-1.5 -9.5l-67 -379h213l21 116q-40 1 -72.5 10.5t-55.5 26.5t-35.5 40t-12.5 52 q0 52 31 83.5t80 31.5q35 0 59.5 -21t24.5 -53q0 -19 -7 -34t-17.5 -25.5t-21.5 -16.5t-20 -7v-3q8 -3 22.5 -6t37.5 -3l52 295h118l-45 -255q17 16 25.5 37.5t12.5 42.5l7 39h96l-7 -39q-11 -62 -51.5 -106.5t-98.5 -67.5l-42 -236h-525zM214 488q0 16 -9 24.5t-23 8.5 q-21 0 -34 -13t-13 -34q0 -14 8.5 -23t24.5 -9q19 0 32.5 13t13.5 33zM386 340q14 0 24 10.5t10 25.5q0 25 -23 25q-16 0 -25 -10t-9 -26q0 -25 23 -25z" />
<glyph unicode="&#xe2a;" horiz-adv-x="631" d="M385 0q-2 43 -13 89t-26 88.5t-33 77.5t-35 56q-31 -23 -54.5 -50t-37.5 -56h3q10 5 26 5q35 0 60.5 -23.5t25.5 -67.5q0 -27 -10.5 -50.5t-29 -40.5t-43.5 -26.5t-55 -9.5q-47 0 -80 26.5t-33 78.5q0 49 23.5 96t59 88t76 74.5t75.5 56.5q65 43 95 82q-9 2 -21.5 3 t-23.5 1q-70 0 -118.5 -32t-61.5 -104l-4 -22h-110l4 22q20 110 99 170.5t208 60.5q54 0 98 -14q17 21 31.5 42t28.5 44l82 -35q-15 -24 -31 -47t-34 -46q55 -50 55 -137q0 -26 -4 -49l-62 -351h-130zM454 147q-3 30 -4.5 52t-1.5 41q0 14 1 27.5t4 27.5l10 56q3 16 3 31 q0 39 -20 67q-18 -20 -41.5 -42.5t-46.5 -39.5q16 -27 30.5 -56.5t26.5 -59t20.5 -57t13.5 -50.5zM220 108q0 15 -9 24.5t-25 9.5q-21 0 -35 -14t-14 -34q0 -15 8.5 -25t25.5 -10q20 0 34.5 14.5t14.5 34.5z" />
<glyph unicode="&#xe2b;" horiz-adv-x="656" d="M495 424q20 18 34 37.5t14 34.5q0 12 -8.5 21.5t-24.5 9.5q-22 0 -35 -13t-13 -31q0 -17 9.5 -32.5t23.5 -26.5zM425 0l49 278q1 5 1.5 9t0.5 9q0 11 -6 14l-263 -310h-107l59 342q2 12 6 20t10 17l-2 2q-11 -7 -32 -7q-38 0 -62 25t-24 65q0 30 10.5 53.5t29 40.5t44 26 t54.5 9q23 0 43 -7t35 -20t23.5 -30.5t8.5 -38.5q0 -5 -0.5 -9.5t-1.5 -9.5l-38 -216q-5 -29 -11.5 -53.5t-13.5 -41.5l1 -2l178 211q-17 15 -28 38t-11 52q0 57 36.5 94.5t102.5 37.5q51 0 81.5 -26.5t30.5 -68.5q0 -18 -6.5 -34t-17 -30.5t-23 -27.5t-25.5 -23 q14 -11 25.5 -27.5t11.5 -43.5q0 -5 -0.5 -10t-1.5 -11l-52 -296h-115zM214 488q0 16 -9 24.5t-23 8.5q-21 0 -34 -13t-13 -34q0 -14 8.5 -23t24.5 -9q19 0 32.5 13t13.5 33z" />
<glyph unicode="&#xe2c;" horiz-adv-x="732" d="M212 488q0 16 -9 24.5t-23 8.5q-21 0 -34 -13t-13 -34q0 -14 8.5 -23t24.5 -9q19 0 32.5 13t13.5 33zM495 0l-66 395l-201 -395h-131l60 342q2 12 6 20t10 17l-2 2q-11 -7 -32 -7q-38 0 -62 25t-24 65q0 60 39 94.5t98 34.5q46 0 76 -27t30 -70v-9t-1 -9l-21 -123 q-3 -18 -10.5 -46t-16.5 -57.5t-18 -57t-15 -44.5l8 -1q5 17 14 41t20.5 50.5t24.5 54t26 51.5l111 208h66l42 -208q5 -24 8 -51.5t4.5 -54t2 -50.5t0.5 -41l10 1v18q0 19 1 45t2.5 52t4 50t5.5 40l45 255q-20 -9 -61 -9q-30 0 -55.5 7t-44.5 19.5t-29.5 30t-10.5 38.5 q0 23 11 44.5t32 38.5t51.5 27.5t70.5 10.5q53 0 92 -20.5t54 -47.5q17 12 34 32t31 43l85 -50q-35 -47 -69 -77.5t-72 -50.5l-114 -646h-119zM636 697q-5 18 -23.5 31t-46.5 13t-43.5 -9t-15.5 -24q0 -14 16.5 -21.5t41.5 -7.5q22 0 41.5 4t29.5 14z" />
<glyph unicode="&#xe2d;" horiz-adv-x="632" d="M93 0l49 280q4 25 16.5 46t31.5 36.5t42 24t49 8.5q46 0 77.5 -24.5t31.5 -69.5q0 -27 -10.5 -50t-27.5 -39.5t-39.5 -26t-46.5 -9.5q-22 0 -30 7l-2 -2q3 -11 3 -18q0 -5 -0.5 -9.5t-1.5 -9.5l-8 -45h189l45 258q3 16 3 31q0 51 -33 77.5t-101 26.5q-31 0 -60 -7 t-52.5 -20.5t-39 -34t-20.5 -46.5l-6 -33h-116l6 32q8 45 33 83.5t63.5 66.5t89 44t110.5 16q61 0 106.5 -14.5t76.5 -40t46.5 -61t15.5 -76.5q0 -11 -1 -21t-3 -21l-63 -359h-423zM310 290q0 33 -33 33q-19 0 -32.5 -13t-13.5 -34q0 -14 9 -23t23 -9q20 0 33.5 13t13.5 33z " />
<glyph unicode="&#xe2e;" horiz-adv-x="580" d="M40 0l43 246q4 25 16.5 46t31 36.5t41.5 24t49 8.5q46 0 78 -24.5t32 -69.5q0 -27 -10.5 -50t-27.5 -39.5t-39.5 -26t-46.5 -9.5q-22 0 -30 7l-2 -2q3 -9 3 -16q0 -5 -1 -10t-2 -11l-2 -11h190l47 269q2 9 3 19t1 20q0 12 -3 21q-34 -16 -69.5 -27t-77.5 -11 q-93 0 -137.5 23.5t-44.5 68.5q0 24 13 46t39.5 38.5t67 26.5t95.5 10t102.5 -13t74.5 -36q17 16 29.5 31.5t22.5 29.5l71 -45q-13 -20 -34.5 -42.5t-45.5 -42.5q7 -17 11 -36t4 -40q0 -11 -1 -21t-3 -21l-65 -367h-423zM392 496q-16 13 -40.5 21.5t-68.5 8.5 q-42 0 -72.5 -9t-30.5 -24q0 -13 25 -19.5t70 -6.5q41 0 67 8.5t50 20.5zM251 256q0 33 -33 33q-19 0 -32.5 -13t-13.5 -34q0 -14 9 -23t23 -9q20 0 33.5 13t13.5 33z" />
<glyph unicode="&#xe2f;" horiz-adv-x="542" d="M308 0l58 330q5 25 14.5 52.5t17.5 42.5l-2 2q-32 -37 -81 -65t-106 -28q-32 0 -58.5 9.5t-46 27t-30.5 40.5t-11 50q0 29 10 54t28 44t42 29.5t53 10.5q20 0 38 -6t31.5 -17t21 -25.5t7.5 -32.5q0 -20 -7 -36.5t-17.5 -30t-22.5 -22.5t-23 -13l-1 -5q34 3 64 18.5 t54 39.5t43 54.5t33 63.5h111l-104 -587h-116zM178 455q19 0 32 13t13 33q0 33 -31 33q-21 0 -34 -13t-13 -34q0 -14 8.5 -23t24.5 -9z" />
<glyph unicode="&#xe30;" horiz-adv-x="492" d="M512 543q-9 -48 -32 -85t-56 -63t-75 -39.5t-89 -13.5q-83 0 -131.5 34.5t-48.5 91.5q0 24 8 45.5t23 37.5t36.5 25.5t48.5 9.5q42 0 68 -21.5t26 -56.5q0 -29 -16 -53t-45 -34l1 -3q6 -1 12 -1.5t11 -0.5q30 0 56.5 9.5t47.5 27t35 40.5t19 50l7 37h101zM222 498 q0 14 -8 21t-21 7q-17 0 -29.5 -11t-12.5 -31q0 -28 29 -28q17 0 29.5 11t12.5 31zM455 220q-9 -48 -32 -85t-56 -63t-75 -39.5t-89 -13.5q-84 0 -132 34.5t-48 91.5q0 24 8 45.5t23 37.5t36.5 25.5t48.5 9.5q42 0 68 -21.5t26 -56.5q0 -29 -16 -53t-45 -34l1 -3 q6 -1 12 -1.5t11 -0.5q30 0 56.5 9.5t47.5 27t35 40.5t19 50l7 37h101zM165 175q0 28 -29 28q-17 0 -29.5 -11t-12.5 -31q0 -14 8 -21t21 -7q17 0 29.5 11t12.5 31z" />
<glyph unicode="&#xe31;" horiz-adv-x="0" d="M184 872q-9 -48 -34 -84.5t-62 -62t-82.5 -38.5t-95.5 -13q-97 0 -152.5 33.5t-55.5 92.5q0 22 8 43t23 37t36.5 25.5t48.5 9.5q42 0 68 -21.5t26 -56.5q0 -29 -14.5 -49.5t-44.5 -30.5l1 -3q11 -3 24 -4.5t25 -1.5q79 0 124 32.5t56 91.5l7 37h101zM-156 827 q0 28 -29 28q-17 0 -29.5 -11t-12.5 -31q0 -14 8 -21t21 -7q17 0 29.5 11t12.5 31z" />
<glyph unicode="&#xe32;" horiz-adv-x="547" d="M313 0l68 386q1 7 1.5 13.5t0.5 12.5q0 38 -24 59t-72 21q-51 0 -87 -28.5t-45 -76.5l-7 -37h-116l7 39q8 43 30.5 80.5t56.5 65t78.5 43t95.5 15.5q96 0 149.5 -44.5t53.5 -122.5q0 -10 -1 -20t-3 -21l-68 -385h-118z" />
<glyph unicode="&#xe33;" horiz-adv-x="547" d="M80 805q0 -27 -10.5 -51t-29 -41.5t-43 -28t-52.5 -10.5q-23 0 -43 7.5t-35 20.5t-23.5 31t-8.5 39q0 27 10.5 51t29.5 42t43.5 28.5t53.5 10.5q22 0 42 -7.5t34.5 -21t23 -31.5t8.5 -39zM-49 747q18 0 32.5 14.5t14.5 34.5q0 14 -9 24.5t-23 10.5q-20 0 -34.5 -14.5 t-14.5 -34.5q0 -15 9 -25t25 -10zM313 0l68 386q1 7 1.5 13.5t0.5 12.5q0 38 -24 59t-72 21q-51 0 -87.5 -28.5t-45.5 -76.5l-7 -37h-115l7 39q8 43 30 80.5t56 65t78 43t95 15.5q96 0 150 -45t54 -123q0 -19 -3 -40l-68 -385h-118z" />
<glyph unicode="&#xe34;" horiz-adv-x="0" d="M-20 653q-20 12 -45 23.5t-56.5 20t-71 14t-88.5 5.5q-47 0 -93.5 -6t-91.5 -15h-23q14 44 39.5 82.5t60.5 66.5t78 44t92 16q51 0 92.5 -16.5t70.5 -45t45 -68t16 -84.5q0 -18 -3 -37h-22zM-90 756q-6 12 -16.5 24.5t-26.5 23.5t-39 18t-54 7q-50 0 -82 -18t-47 -38 q17 7 47 12t63 5q47 0 89 -10.5t66 -23.5z" />
<glyph unicode="&#xe35;" horiz-adv-x="0" d="M-20 653q-20 12 -45 23.5t-56.5 20t-71 14t-88.5 5.5q-47 0 -93.5 -6t-91.5 -15h-23q14 44 39.5 82.5t59.5 66.5t74.5 44t85.5 16q30 0 56.5 -7t48 -17.5t38.5 -23.5t29 -26l2 2q-2 6 -3 16.5t-1 22.5v15.5t2 15.5l5 30h104l-49 -279h-22zM-90 756q-6 12 -16.5 24.5 t-26.5 23.5t-39 18t-54 7q-50 0 -82 -18t-47 -38q17 7 47 12t63 5q47 0 89 -10.5t66 -23.5z" />
<glyph unicode="&#xe36;" horiz-adv-x="0" d="M-20 653q-20 12 -45 23.5t-56.5 20t-71 14t-88.5 5.5q-47 0 -93.5 -6t-91.5 -15h-23q14 44 39.5 82.5t60.5 66.5t78 44t92 16q24 0 51 -4t46 -11q17 20 41.5 32.5t53.5 12.5q38 0 61.5 -24t23.5 -60q0 -30 -16.5 -55.5t-43.5 -39.5q3 -14 5 -29.5t2 -32.5q0 -21 -3 -40 h-22zM-90 756q-6 12 -16.5 24.5t-26.5 23.5t-39 18t-54 7q-50 0 -82 -18t-47 -38q17 7 47 12t63 5q47 0 89 -10.5t66 -23.5zM-70 860q27 -22 46 -52q17 14 17 35q0 14 -8 23t-22 9q-18 0 -33 -15z" />
<glyph unicode="&#xe37;" horiz-adv-x="0" d="M-20 653q-21 12 -45.5 23.5t-56 20t-71 14t-88.5 5.5q-47 0 -93.5 -6t-91.5 -15h-23q14 44 39.5 82.5t58.5 66.5t72 44t81 16q22 0 42.5 -3t28.5 -8l2 2q-2 4 -2 7q0 2 0.5 5t1.5 8l3 17h89l-12 -68q10 -7 21 -21.5t17 -25.5l2 3q-3 12 -3 36q0 10 1 21.5t3 24.5l5 30h90 l-49 -279h-22zM-90 756q-6 12 -16.5 24.5t-26.5 23.5t-39 18t-54 7q-50 0 -82 -18t-47 -38q17 7 47 12t63 5q47 0 89 -10.5t66 -23.5z" />
<glyph unicode="&#xe38;" horiz-adv-x="0" d="M-278 -348l7 39q3 17 9 27t13 18l-1 3q-5 -4 -15 -6t-15 -2q-34 0 -53 22.5t-19 55.5q0 48 32 79.5t85 31.5q38 0 65 -22.5t27 -57.5q0 -10 -1 -15l-31 -173h-103zM-256 -211q17 0 28 12t11 29q0 11 -7 19.5t-19 8.5q-17 0 -28.5 -11.5t-11.5 -28.5q0 -13 7 -21t20 -8z " />
<glyph unicode="&#xe39;" horiz-adv-x="0" d="M-454 -350l7 41q3 17 9 27t13 18l-1 3q-5 -4 -15 -6t-15 -2q-34 0 -53 22.5t-19 55.5q0 48 31.5 79.5t84.5 31.5q38 0 65.5 -22.5t27.5 -57.5q0 -10 -1 -15l-17 -96h73l33 186h103l-47 -265h-279zM-432 -211q17 0 28 12t11 29q0 11 -7 19.5t-19 8.5q-17 0 -28.5 -11.5 t-11.5 -28.5q0 -13 7 -21t20 -8z" />
<glyph unicode="&#xe3a;" horiz-adv-x="0" d="M-107 -153q0 -21 -9 -40t-24.5 -33.5t-36 -23t-42.5 -8.5q-35 0 -57 23t-22 55q0 21 9.5 39.5t25 32.5t35.5 22.5t41 8.5q35 0 57.5 -22t22.5 -54z" />
<glyph unicode="&#xe3f;" horiz-adv-x="556" d="M194 -102l18 102h-199l119 676h198l17 96h55l-17 -97q27 -2 56.5 -8t53.5 -23q16 -11 26.5 -25.5t16.5 -30.5t8.5 -32.5t2.5 -29.5q0 -38 -14.5 -70.5t-45.5 -56.5q-5 -5 -29 -21.5t-56 -24.5v-2q32 -6 54 -20t36 -32.5t20.5 -41t6.5 -45.5q0 -56 -22 -95.5t-58 -64.5 t-82 -37.5t-94 -14.5l-18 -102h-53zM263 296h-59l-33 -187h58zM285 111q20 2 37 8t29.5 18.5t19.5 32t7 49.5q0 36 -18 52t-44 21zM312 572h-59l-30 -171h59zM337 406q14 4 26.5 11t22.5 18.5t15.5 29t5.5 42.5q0 29 -12 42t-30 18z" />
<glyph unicode="&#xe40;" horiz-adv-x="338" d="M189 199q11 8 32 8q35 0 57.5 -23t22.5 -61q0 -29 -10 -52.5t-27.5 -40.5t-41.5 -26.5t-52 -9.5q-47 0 -78.5 27t-31.5 69q0 5 0.5 9.5t1.5 9.5l84 476h117l-61 -347q-2 -12 -5.5 -20t-9.5 -17zM178 66q21 0 33.5 13.5t12.5 34.5q0 14 -8 22.5t-24 8.5q-19 0 -32 -13 t-13 -33q0 -33 31 -33z" />
<glyph unicode="&#xe41;" horiz-adv-x="634" d="M189 199q11 8 32 8q35 0 57.5 -23t22.5 -61q0 -29 -10 -52.5t-28 -40.5t-42 -26.5t-52 -9.5q-46 0 -77.5 27t-31.5 69q0 5 0.5 9.5t1.5 9.5l84 476h117l-61 -347q-2 -12 -5.5 -20t-9.5 -17zM178 66q21 0 33.5 13.5t12.5 34.5q0 14 -8 22.5t-24 8.5q-19 0 -32 -13t-13 -33 q0 -33 31 -33zM485 199q11 8 32 8q35 0 57.5 -23t22.5 -61q0 -29 -10 -52.5t-28 -40.5t-42 -26.5t-52 -9.5q-46 0 -77.5 27t-31.5 69q0 5 0.5 9.5t1.5 9.5l84 476h117l-61 -347q-2 -12 -5.5 -20t-9.5 -17zM474 66q21 0 33.5 13.5t12.5 34.5q0 14 -8 22.5t-24 8.5 q-19 0 -32 -13t-13 -33q0 -33 31 -33z" />
<glyph unicode="&#xe42;" horiz-adv-x="415" d="M259 199q13 8 32 8q35 0 57.5 -23t22.5 -61q0 -29 -10 -52.5t-27.5 -40.5t-41 -26.5t-51.5 -9.5q-23 0 -43.5 7t-35.5 20t-23.5 30.5t-8.5 38.5q0 5 0.5 9.5t1.5 9.5l95 540q1 4 1 7.5v6.5q0 11 -5 18.5t-18 12.5l-147 61l7 41q6 37 28.5 69t57 55.5t79.5 37t97 13.5 t92 -11t66 -30.5t39.5 -45.5t13.5 -56v-13t-2 -13l-5 -27h-112l5 28v7q0 25 -28.5 43.5t-85.5 18.5q-54 0 -85.5 -18t-42.5 -39l85 -35q36 -15 58.5 -37.5t22.5 -64.5q0 -15 -3 -31l-72 -409q-2 -12 -6 -20t-10 -17zM249 66q21 0 33 13.5t12 34.5q0 14 -8 22.5t-24 8.5 q-18 0 -31 -13t-13 -33q0 -33 31 -33z" />
<glyph unicode="&#xe43;" horiz-adv-x="408" d="M242 66q21 0 33.5 13.5t12.5 34.5q0 14 -8.5 22.5t-23.5 8.5q-19 0 -32 -13t-13 -33q0 -33 31 -33zM252 199q13 8 32 8q35 0 58 -23t23 -61q0 -29 -10 -52.5t-27.5 -40.5t-41.5 -26.5t-52 -9.5q-23 0 -43.5 7t-35.5 20t-23.5 30.5t-8.5 38.5q0 5 0.5 9.5t1.5 9.5l83 472 q7 40 29 69t46 55.5t42.5 55.5t18.5 68q0 31 -18 48t-50 17q-12 0 -23 -4t-17 -9v-2q21 -4 34.5 -21t13.5 -43t-9.5 -46.5t-26 -35t-38.5 -22.5t-47 -8q-40 0 -66.5 22t-26.5 68q0 32 16.5 63.5t45.5 56.5t68.5 40.5t85.5 15.5q40 0 71 -11t51 -29.5t30.5 -43t10.5 -51.5 q0 -45 -17 -76.5t-38.5 -58.5t-41.5 -54t-26 -64l-60 -343q-2 -12 -5.5 -20t-10.5 -17zM176 770q19 0 30.5 12.5t11.5 30.5q0 13 -7.5 21.5t-21.5 8.5q-19 0 -31.5 -13t-12.5 -30q0 -14 8.5 -22t22.5 -8z" />
<glyph unicode="&#xe44;" horiz-adv-x="429" d="M273 199q13 8 32 8q35 0 57.5 -23t22.5 -61q0 -29 -10 -52.5t-27.5 -40.5t-41 -26.5t-51.5 -9.5q-23 0 -43.5 7t-35.5 20t-23.5 30.5t-8.5 38.5q0 5 0.5 9.5t1.5 9.5l106 601q4 21 7 34t5 20t3 9.5t1 3.5t-1 1q-25 -26 -57.5 -54t-71.5 -54h-85l24 138q3 17 4 31t1 26 q0 29 -7 51t-21 46l99 40q13 -20 20 -46.5t7 -66.5q0 -35 -6 -81l-1 -8q16 15 35.5 34t38 40.5t36 45t30.5 46.5h102l-128 -728q-2 -12 -6 -20t-10 -17zM262 66q21 0 33.5 13.5t12.5 34.5q0 14 -8 22.5t-24 8.5q-18 0 -31 -13t-13 -33q0 -33 30 -33z" />
<glyph unicode="&#xe45;" horiz-adv-x="547" d="M263 -282l118 668q1 7 1.5 13.5t0.5 12.5q0 38 -24 59t-72 21q-51 0 -87 -28.5t-45 -76.5l-7 -37h-116l7 39q8 43 30 80.5t55.5 65t77.5 43t95 15.5q96 0 150.5 -45t54.5 -123q0 -19 -3 -40l-118 -667h-118z" />
<glyph unicode="&#xe46;" horiz-adv-x="584" d="M298 -282l138 779q-15 0 -31.5 -10t-21.5 -39l-6 -32h-85l6 33q1 5 1 13q0 25 -15.5 40.5t-41.5 15.5q-17 0 -30 -5v-2q21 -4 34.5 -21t13.5 -43q0 -51 -31 -81.5t-82 -30.5q-20 0 -38 5.5t-32 16.5t-22.5 28t-8.5 40q0 32 13.5 62t38.5 53.5t60 38t79 14.5 q43 0 69.5 -17t41.5 -40q15 24 46.5 36.5t66.5 12.5h108l-153 -867h-118zM152 402q19 0 30.5 12.5t11.5 30.5q0 13 -7.5 21.5t-21.5 8.5q-19 0 -31 -13t-12 -30q0 -14 8 -22t22 -8z" />
<glyph unicode="&#xe47;" horiz-adv-x="0" d="M-343 680q-35 14 -59 50t-24 82q0 30 10.5 60t33.5 54t59 38.5t87 14.5h140q34 0 56 14t43 39l42 -52q-14 -17 -29.5 -31t-33.5 -24.5t-40.5 -16t-51.5 -5.5h-139q-45 0 -64.5 -23.5t-19.5 -55.5q0 -15 5 -29t13 -22q11 20 26.5 36t32.5 27h28q0 -12 5 -25.5t13.5 -26.5 t19.5 -22.5t25 -13.5q-2 5 -4 13t-2 17q0 35 26 60t71 25q38 0 56 -19t18 -50q0 -54 -34.5 -85t-85.5 -31q-60 0 -97.5 21t-51.5 54q-10 -11 -21 -31.5t-18 -41.5h-35zM-92 749q14 0 22.5 10t8.5 26q0 10 -4.5 16.5t-15.5 6.5q-14 0 -23 -10.5t-9 -24.5q0 -11 5.5 -17.5 t15.5 -6.5z" />
<glyph unicode="&#xe48;" horiz-adv-x="0" d="M-43 985l31 173h103l-31 -173h-103z" />
<glyph unicode="&#xe49;" horiz-adv-x="0" d="M176 1179q-9 -50 -36.5 -87t-65.5 -62t-82 -37t-86 -12q-57 0 -102 9l3 49q43 3 70 22q-8 2 -18 6.5t-19 12.5t-15 19.5t-6 28.5t7.5 34t21 31t32.5 22.5t42 8.5q32 0 53.5 -18t21.5 -53q0 -28 -17 -54.5t-44 -44.5q25 3 50 14t46 27.5t35.5 38t18.5 45.5l5 29h90z M-97 1120q11 0 18 8t7 17q0 7 -4.5 13t-12.5 6q-12 0 -18.5 -8t-6.5 -18q0 -8 4 -13t13 -5z" />
<glyph unicode="&#xe4a;" horiz-adv-x="0" d="M-153 1028q11 0 17.5 8.5t6.5 19.5q0 8 -4 13t-12 5q-12 0 -19 -7.5t-7 -19.5q0 -19 18 -19zM251 1200q-19 -105 -93.5 -160t-194.5 -55l9 54q31 11 48.5 34t17.5 62q0 33 -24 33q-18 0 -30.5 -12.5t-21.5 -25.5h-50q-4 14 -12 27t-25 13q-22 0 -33 -14t-14 -31 q-1 -5 -2 -9.5t0 -9.5l2 -1q17 14 45 14q24 0 38.5 -14.5t14.5 -40.5q0 -38 -24.5 -60.5t-70.5 -22.5q-35 0 -58.5 26t-23.5 73q0 30 8.5 58t25 49.5t41 34.5t55.5 13q26 0 40 -12.5t22 -29.5q14 17 38.5 29.5t50.5 12.5q14 0 29.5 -4t28.5 -13.5t21.5 -25.5t8.5 -39 q0 -26 -10.5 -48.5t-21.5 -34.5l1 -3q28 20 46.5 50t26.5 83l5 31h91z" />
<glyph unicode="&#xe4b;" horiz-adv-x="0" d="M67 1068l-11 -83h-97l19 83l-91 -4l16 89l89 -4l11 83h97l-19 -83l93 4l-16 -89z" />
<glyph unicode="&#xe4c;" horiz-adv-x="0" d="M54 1130q-16 -6 -32.5 -9.5t-36.5 -5.5q11 -9 18 -23.5t7 -33.5q0 -50 -32 -78.5t-81 -28.5q-40 0 -65.5 22t-25.5 57q0 33 15 58t40 43.5t57.5 32t68 25t71.5 21.5t67 21l23 -65zM-98 1012q17 0 25.5 12.5t8.5 24.5q0 10 -5.5 18.5t-17.5 8.5q-15 0 -24.5 -12t-9.5 -26 q0 -11 5.5 -18.5t17.5 -7.5z" />
<glyph unicode="&#xe4d;" horiz-adv-x="0" d="M80 805q0 -27 -10.5 -51t-29 -41.5t-43 -28t-52.5 -10.5q-23 0 -43 7.5t-35 20.5t-23.5 31t-8.5 39q0 27 10.5 51t29.5 42t43.5 28.5t53.5 10.5q22 0 42 -7.5t34.5 -21t23 -31.5t8.5 -39zM-49 747q18 0 32.5 14.5t14.5 34.5q0 14 -9 24.5t-23 10.5q-20 0 -34.5 -14.5 t-14.5 -34.5q0 -15 9 -25t25 -10z" />
<glyph unicode="&#xe4e;" horiz-adv-x="0" d="M-69 802q-21 0 -33.5 -9t-12.5 -26q0 -22 21 -22q10 0 19 3.5t25 13.5l28 -54q-19 -14 -43 -23.5t-50 -9.5q-27 0 -44.5 7t-28.5 18t-15.5 25t-4.5 28q0 72 85 103q-4 7 -6.5 15.5t-2.5 16.5q0 22 11.5 40t31 30.5t46.5 19.5t57 7q29 0 55 -7t45 -16l-30 -63 q-15 8 -32.5 13.5t-34.5 5.5q-26 0 -43 -7.5t-17 -27.5q0 -15 20 -15h64l-28 -66h-82z" />
<glyph unicode="&#xe4f;" horiz-adv-x="479" d="M325 278q0 -19 -8 -35.5t-21 -28.5t-30 -19t-35 -7q-29 0 -46.5 19t-17.5 47q0 19 7.5 35.5t20.5 29t29.5 19.5t34.5 7q29 0 47.5 -19t18.5 -48zM407 289q0 28 -10 53t-27.5 44t-42 29.5t-54.5 10.5q-37 0 -71 -15t-60 -40t-41.5 -58t-15.5 -70q0 -29 9.5 -53.5t27 -42.5 t42 -28.5t53.5 -10.5q37 0 71.5 14.5t60.5 39t42 57.5t16 70zM432 293q0 -43 -18.5 -81t-49 -66t-70 -44.5t-81.5 -16.5q-34 0 -62 11.5t-48 32.5t-31 49t-11 61q0 43 18 81t48 66.5t69 45.5t81 17q34 0 62.5 -12t49 -33t32 -49.5t11.5 -61.5z" />
<glyph unicode="&#xe50;" horiz-adv-x="658" d="M490 272q0 59 -35.5 93.5t-94.5 34.5q-38 0 -71.5 -13t-59 -37t-40.5 -57.5t-15 -74.5q0 -59 36 -93.5t95 -34.5q38 0 71.5 13t59 37t40 57.5t14.5 74.5zM604 284q0 -62 -24 -115.5t-65 -93t-97.5 -62t-120.5 -22.5q-51 0 -94.5 16t-75 44.5t-49 68t-17.5 86.5 q0 63 23.5 116.5t65 92.5t97 61.5t120.5 22.5q51 0 94.5 -16t75 -44.5t49.5 -68t18 -86.5z" />
<glyph unicode="&#xe51;" horiz-adv-x="711" d="M315 -27q45 19 85.5 47.5t72 65t50 80.5t18.5 94q0 69 -43.5 104.5t-111.5 35.5q-45 0 -84 -14t-67.5 -39t-45 -60t-16.5 -78q0 -23 4.5 -38.5t11.5 -26.5t16 -18.5t19 -13.5q-4 8 -6.5 20t-2.5 23q0 23 10.5 44.5t29.5 38.5t45 27.5t57 10.5q51 0 76.5 -28t25.5 -70 q0 -37 -14.5 -67.5t-40.5 -52t-61 -33.5t-77 -12q-35 0 -71.5 10.5t-66 33.5t-48.5 59.5t-19 88.5q0 63 24 117t68 93t105 61.5t135 22.5q57 0 105 -14.5t83 -42.5t54.5 -69.5t19.5 -95.5q0 -73 -25 -132.5t-66 -107t-93 -84.5t-106 -65zM330 123q16 0 25.5 14.5t9.5 32.5 q0 12 -5.5 20.5t-16.5 8.5q-17 0 -26.5 -14t-9.5 -32q0 -12 5.5 -21t17.5 -9z" />
<glyph unicode="&#xe52;" horiz-adv-x="792" d="M12 0l97 549q1 5 1.5 9t0.5 9q0 25 -14.5 42t-41.5 31l76 87q47 -24 70 -60.5t23 -82.5q0 -17 -3 -33l-80 -452h413q19 0 29 9t14 32l36 204q1 6 1.5 11.5t0.5 10.5q0 36 -31 36q-23 0 -38.5 -18.5t-28.5 -45.5h-51q-4 27 -20.5 45.5t-51.5 18.5q-42 0 -72 -28t-41 -68 q17 17 42.5 29t54.5 12q38 0 65.5 -22.5t27.5 -66.5q0 -34 -11.5 -58.5t-31 -41t-45.5 -24.5t-56 -8q-31 0 -58.5 10t-48.5 28.5t-33 46t-12 62.5q0 39 14 79.5t42 73t69.5 53t96.5 20.5q38 0 64.5 -14t40.5 -31q20 20 45.5 32.5t61.5 12.5q24 0 45.5 -5.5t38 -19t26.5 -35 t10 -52.5q-2 -9 -2 -19t-2 -21l-37 -210q-13 -73 -54 -105t-112 -32h-530zM363 208q11 0 21.5 9.5t10.5 28.5q0 13 -6.5 19.5t-14.5 6.5q-13 0 -24 -10t-11 -29q0 -13 7 -19t17 -6z" />
<glyph unicode="&#xe53;" horiz-adv-x="819" d="M602 0l60 343q3 18 3 31q0 50 -39 50q-33 0 -58 -31.5t-35 -88.5l-53 -304h-110l53 304q3 15 3 28q0 44 -25 68t-62 24q-34 0 -64 -20t-53 -51.5t-36.5 -70.5t-13.5 -78q0 -7 0.5 -13t0.5 -10q16 17 40 33.5t60 16.5q19 0 36 -6t30 -18t20.5 -30.5t7.5 -43.5 q0 -36 -13 -62.5t-34 -44.5t-48.5 -27t-56.5 -9t-57 11.5t-49.5 35.5t-34.5 60.5t-13 86.5q0 63 20 122.5t57 106t89.5 74.5t117.5 28q62 0 95.5 -24t47.5 -59q21 35 60.5 59t95.5 24q27 0 51.5 -7.5t43 -23t29 -40t10.5 -58.5q0 -11 -1 -21.5t-3 -22.5l-60 -342h-112z M232 72q17 0 26 15.5t9 33.5q0 12 -5.5 19.5t-16.5 7.5q-17 0 -27 -14t-10 -32q0 -12 6 -21t18 -9z" />
<glyph unicode="&#xe54;" horiz-adv-x="718" d="M305 0q-49 0 -93 12.5t-77.5 38t-53 65t-19.5 93.5q0 63 21 115.5t61.5 89.5t100 57.5t135.5 20.5h158q50 0 93.5 25t85.5 89l73 -60q-48 -75 -114.5 -113.5t-144.5 -38.5h-158q-92 0 -145 -43t-53 -128q0 -32 9.5 -53t26 -35t38 -21.5t44.5 -11.5q-14 19 -23 45.5 t-9 57.5q0 71 42 112.5t110 41.5q21 0 41 -5.5t35.5 -17t25 -29t9.5 -41.5q0 -31 -11.5 -55t-30 -40.5t-41.5 -25t-47 -8.5q14 -15 39.5 -26.5t67.5 -11.5h146l-18 -99h-324zM392 213q16 0 25.5 12t9.5 30q0 26 -23 26q-17 0 -26.5 -12t-9.5 -29q0 -12 6 -19.5t18 -7.5z" />
<glyph unicode="&#xe55;" horiz-adv-x="733" d="M406 505q16 7 26 21.5t10 31.5q0 10 -5.5 18t-19.5 8q-17 0 -26.5 -11.5t-9.5 -28.5q0 -27 25 -39zM394 213q16 0 25.5 12t9.5 30q0 26 -23 26q-17 0 -26.5 -12t-9.5 -29q0 -12 6 -19.5t18 -7.5zM315 0q-49 0 -94.5 12.5t-81 38t-56.5 65t-21 93.5q0 64 20.5 109.5 t53 77.5t73 51.5t81.5 31.5q-10 12 -14.5 27.5t-4.5 30.5q0 27 11.5 51t32.5 42.5t51 29.5t67 11q56 0 86.5 -26t30.5 -72q0 -28 -12 -50t-29 -40q7 -1 14 -1h17q51 0 98.5 28.5t88.5 91.5l76 -60q-55 -75 -126.5 -113.5t-143.5 -38.5q-46 0 -80.5 5.5t-60.5 15.5 q-37 -7 -75.5 -17.5t-70 -31t-51.5 -53.5t-20 -86q0 -32 9.5 -53t26 -35t38 -21.5t44.5 -11.5q-14 19 -23 45.5t-9 57.5q0 71 41.5 112.5t110.5 41.5q21 0 41 -5.5t35.5 -17t25 -29t9.5 -41.5q0 -31 -11.5 -55t-30 -40.5t-41.5 -25t-47 -8.5q14 -15 39.5 -26.5t67.5 -11.5 h146l-18 -99h-314z" />
<glyph unicode="&#xe56;" horiz-adv-x="690" d="M88 314l41 235q1 5 1.5 9t0.5 9q0 25 -14.5 42t-41.5 31l76 87q46 -23 69.5 -60t23.5 -82q0 -16 -3 -34l-17 -100q33 27 78 48t110 21q58 0 101 -16.5t71 -44.5t42 -66.5t14 -81.5q0 -85 -26.5 -145t-72 -98.5t-105.5 -56t-126 -17.5q-45 0 -85 13t-70 35.5t-48 53 t-18 65.5q0 30 12 56.5t32.5 46.5t48.5 32t60 12q58 0 83.5 -29.5t25.5 -69.5q0 -42 -21 -71t-52 -46q8 -2 18 -3t20 -1q43 0 81 12t66.5 37.5t45.5 65t17 94.5q0 54 -28 90t-93 36q-36 0 -68 -9.5t-59.5 -25t-50.5 -35t-42 -39.5h-97zM215 154q17 0 26 12t9 30q0 26 -23 26 q-17 0 -26.5 -12t-9.5 -29q0 -12 6 -19.5t18 -7.5z" />
<glyph unicode="&#xe57;" horiz-adv-x="830" d="M420 0l57 326q2 14 4 25t2 20q0 30 -23 30q-19 0 -37.5 -25.5t-26.5 -67.5h-98q2 11 3 21t1 19q0 25 -7.5 39t-22.5 14q-23 0 -41.5 -17.5t-32 -45t-21 -62.5t-7.5 -70v-21q17 21 41 33.5t58 12.5q18 0 35 -6t30.5 -18.5t21.5 -31t8 -43.5q0 -35 -13 -61.5t-34.5 -44.5 t-49 -27t-56.5 -9t-56.5 11.5t-49 35.5t-34.5 60.5t-13 86.5q0 58 15 114.5t44 100.5t70.5 71.5t95.5 27.5q36 0 56.5 -15.5t31.5 -38.5q20 20 47 37t61 17q60 0 88 -31.5t28 -85.5q0 -11 -1.5 -23.5t-3.5 -26.5l-41 -236h35q18 0 31.5 18t18.5 48l63 358q1 5 1 15 q0 48 -55 72l78 86q45 -25 68 -60.5t23 -80.5v-14t-2 -15l-64 -360q-15 -84 -67.5 -123t-130.5 -39h-128zM225 72q16 0 25.5 14.5t9.5 32.5q0 12 -5.5 20.5t-16.5 8.5q-17 0 -27 -14t-10 -32q0 -12 6 -21t18 -9z" />
<glyph unicode="&#xe58;" horiz-adv-x="733" d="M177 -3q-22 12 -43 33t-37 49t-25.5 61.5t-9.5 71.5q0 64 23.5 116t65.5 88.5t98.5 56t122.5 19.5h129q50 0 92.5 25t84.5 89l73 -60q-47 -75 -114.5 -113.5t-145.5 -38.5h-129q-40 0 -74.5 -11.5t-59.5 -33.5t-39 -54t-14 -73q0 -34 8.5 -60.5t19.5 -41.5q18 31 43.5 64 t49.5 53h58q3 -49 19.5 -85t42.5 -53q-7 13 -7 35q0 24 9.5 46.5t27.5 40.5t43.5 29t57.5 11q54 0 83.5 -28t29.5 -70q0 -37 -16 -68t-43 -54t-62.5 -36t-75.5 -13q-36 0 -63 11t-47.5 28t-34.5 37t-24 38q-6 -11 -12 -25.5t-12 -30t-10.5 -30t-6.5 -23.5h-76zM529 112 q16 0 25.5 12t9.5 30q0 26 -23 26q-17 0 -26.5 -12t-9.5 -29q0 -12 6 -19.5t18 -7.5z" />
<glyph unicode="&#xe59;" horiz-adv-x="748" d="M541 -20q-46 17 -70.5 49.5t-34.5 70.5l-50 191q-5 19 -11 38t-15.5 34t-24 24.5t-36.5 9.5q-27 0 -47.5 -13.5t-36 -36t-26 -51t-15.5 -58.5q-2 -11 -4 -28.5t-2 -27.5q14 17 39 33t65 16q15 0 31 -6t29.5 -18.5t22 -31.5t8.5 -44q0 -35 -12.5 -61.5t-33 -44 t-47.5 -26.5t-56 -9q-30 0 -58 11.5t-50 35t-35.5 59.5t-13.5 85q0 53 13.5 109t43.5 101.5t78.5 75t117.5 29.5q53 0 82.5 -21t47.5 -50q20 32 52 52t75 20q33 0 57.5 -15.5t31.5 -43.5q5 5 8.5 13.5t5.5 16.5l9 51q1 5 1 15q0 47 -56 71l78 87q44 -23 66.5 -60t22.5 -82 v-14t-2 -15l-10 -60q-6 -34 -20 -61t-34 -46t-45 -29t-53 -10h-37q-1 7 -3 20.5t-7.5 26.5t-14.5 22.5t-23 9.5q-23 0 -32.5 -19t-9.5 -43q0 -15 3 -28l37 -167q6 -28 20.5 -46t46.5 -35zM226 80q10 0 20 9.5t10 26.5q0 12 -6 18t-14 6q-11 0 -20.5 -9.5t-9.5 -26.5 q0 -11 6 -17.5t14 -6.5z" />
<glyph unicode="&#xe5b;" horiz-adv-x="1181" d="M1040 299l-66 -110h-57q-2 27 -7 54t-13 48q-5 -9 -13.5 -23.5t-18.5 -31t-20 -33.5t-18 -30h-72q0 10 -1 28.5t-2.5 36.5t-4 32.5t-6.5 18.5q-17 -32 -34.5 -61t-40.5 -71h-74q-1 35 -4 65t-11 54q-15 -56 -40.5 -104.5t-64 -85t-90.5 -57.5t-119 -21q-45 0 -84 14 t-67 41t-44 66.5t-16 90.5q0 66 20.5 121t56 94.5t82 61.5t98.5 22q40 0 71.5 -12.5t52.5 -34t32 -50t11 -61.5q0 -44 -17 -82t-45 -66.5t-63.5 -45t-71.5 -16.5q-21 0 -40.5 6.5t-34.5 19t-24 31t-9 41.5q0 33 12.5 57.5t33 41t45.5 25t49 8.5q26 0 46.5 -9.5t32.5 -26.5 q-1 40 -21 66.5t-65 26.5q-37 0 -66.5 -17.5t-50.5 -46t-32.5 -65t-11.5 -75.5q0 -37 10.5 -64t29 -45t43 -27t52.5 -9q54 0 97.5 22.5t73.5 61.5t46.5 92t16.5 114v17h91q17 -21 31.5 -50t22.5 -60q18 26 34.5 52.5t32.5 57.5h54q11 -19 22.5 -46.5t18.5 -56.5 q23 40 36.5 63t22.5 40h52q11 -17 21.5 -39t17.5 -44q8 14 17 27t17 27h168l-12 -68h-119zM332 273q0 16 -9.5 24t-23.5 8q-16 0 -30 -11.5t-14 -34.5q0 -15 9.5 -22t21.5 -7q17 0 31.5 10t14.5 33z" />
<glyph unicode="&#x2000;" horiz-adv-x="617" />
<glyph unicode="&#x2001;" horiz-adv-x="1235" />
<glyph unicode="&#x2002;" horiz-adv-x="617" />
<glyph unicode="&#x2003;" horiz-adv-x="1235" />
<glyph unicode="&#x2004;" horiz-adv-x="411" />
<glyph unicode="&#x2005;" horiz-adv-x="308" />
<glyph unicode="&#x2006;" horiz-adv-x="205" />
<glyph unicode="&#x2007;" horiz-adv-x="205" />
<glyph unicode="&#x2008;" horiz-adv-x="154" />
<glyph unicode="&#x2009;" horiz-adv-x="247" />
<glyph unicode="&#x200a;" horiz-adv-x="68" />
<glyph unicode="&#x2010;" horiz-adv-x="333" d="M51 217l24 110h246l-24 -110h-246z" />
<glyph unicode="&#x2011;" horiz-adv-x="333" d="M51 217l24 110h246l-24 -110h-246z" />
<glyph unicode="&#x2012;" horiz-adv-x="333" d="M51 217l24 110h246l-24 -110h-246z" />
<glyph unicode="&#x2013;" d="M11 230l19 84h500l-19 -84h-500z" />
<glyph unicode="&#x2014;" horiz-adv-x="1000" d="M11 230l19 84h1000l-19 -84h-1000z" />
<glyph unicode="&#x2018;" horiz-adv-x="222" d="M98 442l31 142l96 148h70l-84 -148h60l-31 -142h-142z" />
<glyph unicode="&#x2019;" horiz-adv-x="222" d="M105 432l84 148h-60l31 142h142l-31 -142l-96 -148h-70z" />
<glyph unicode="&#x201a;" horiz-adv-x="222" d="M-24 -148l84 148h-60l31 142h142l-31 -142l-96 -148h-70z" />
<glyph unicode="&#x201c;" horiz-adv-x="444" d="M98 442l31 142l96 148h70l-84 -148h60l-31 -142h-142zM320 442l31 142l96 148h70l-84 -148h60l-31 -142h-142z" />
<glyph unicode="&#x201d;" horiz-adv-x="444" d="M105 432l84 148h-60l31 142h142l-31 -142l-96 -148h-70zM327 432l84 148h-60l31 142h142l-31 -142l-96 -148h-70z" />
<glyph unicode="&#x201e;" horiz-adv-x="444" d="M-24 -148l84 148h-60l31 142h142l-31 -142l-96 -148h-70zM198 -148l84 148h-60l31 142h142l-31 -142l-96 -148h-70z" />
<glyph unicode="&#x2020;" d="M175 -74q7 49 15.5 101t16 104t14.5 101t11 92l63 170l-165 -27l21 96l156 -27l17 196h96l-69 -196l168 27l-21 -96l-153 27l-13 -170q-15 -43 -30 -92t-30 -101l-30 -104t-29 -101h-38z" />
<glyph unicode="&#x2021;" d="M256 110l-14 -184h-96l66 184l-168 -27l22 96l153 -27l14 177l64 177l-165 -27l21 96l156 -27l15 184h96l-67 -184l168 27l-21 -96l-153 27l-14 -177l-64 -177l165 27l-22 -96z" />
<glyph unicode="&#x2022;" d="M474 400q0 -44 -19.5 -84t-51 -70t-72 -48t-82.5 -18q-33 0 -59.5 10.5t-45.5 29.5t-29.5 45t-10.5 56q0 44 19.5 84t51 70t72 48t82.5 18q32 0 59 -10.5t46 -29.5t29.5 -45t10.5 -56z" />
<glyph unicode="&#x2026;" horiz-adv-x="1000" d="M56 0l31 142h142l-31 -142h-142zM722 0l31 142h142l-31 -142h-142zM389 0l31 142h142l-31 -142h-142z" />
<glyph unicode="&#x202f;" horiz-adv-x="247" />
<glyph unicode="&#x2030;" horiz-adv-x="1000" d="M400 606q0 -36 -16 -68.5t-41.5 -57t-59 -39.5t-67.5 -15q-54 0 -86.5 33t-32.5 83q0 35 16 67.5t42 57.5t59 40t68 15q54 0 86 -33t32 -83zM317 589q0 23 -14.5 37t-38.5 14q-16 0 -31 -6.5t-26.5 -17.5t-18.5 -26t-7 -31q0 -23 14.5 -37t39.5 -14q16 0 30.5 6.5 t26 17.5t18.5 25.5t7 31.5zM538 163q0 22 -14.5 36.5t-39.5 14.5q-16 0 -31 -6.5t-26 -18t-18 -26t-7 -30.5q0 -23 14 -37t39 -14q16 0 31 6.5t26.5 17.5t18.5 25.5t7 31.5zM621 180q0 -36 -16 -68.5t-41.5 -57t-59 -39.5t-67.5 -15q-54 0 -86.5 33t-32.5 83q0 35 16 67.5 t42 57.5t59 40t68 15q54 0 86 -33t32 -83zM899 163q0 22 -14.5 36.5t-39.5 14.5q-16 0 -31 -6.5t-26 -18t-18 -26t-7 -30.5q0 -23 14 -37t39 -14q16 0 31 6.5t26.5 17.5t18.5 25.5t7 31.5zM982 180q0 -36 -16 -68.5t-41.5 -57t-59 -39.5t-67.5 -15q-54 0 -86.5 33t-32.5 83 q0 35 16 67.5t42 57.5t59 40t68 15q54 0 86 -33t32 -83zM34 -10l572 742h77l-572 -742h-77z" />
<glyph unicode="&#x2039;" horiz-adv-x="333" d="M145 112l-87 160l158 160h110l-158 -160l87 -160h-110z" />
<glyph unicode="&#x203a;" horiz-adv-x="333" d="M48 112l157 160l-86 160h110l86 -160l-157 -160h-110z" />
<glyph unicode="&#x2044;" horiz-adv-x="167" d="M-209 -10l569 742h96l-569 -742h-96z" />
<glyph unicode="&#x205f;" horiz-adv-x="308" />
<glyph unicode="&#x20ac;" horiz-adv-x="556" d="M471 27q-42 -20 -88.5 -27.5t-86.5 -7.5q-91 0 -139.5 43t-48.5 115q0 25 6 52l6 29h-79l48 88h51l16 72h-79l47 88h51l11 48q10 46 37.5 84t66 65t85.5 41.5t98 14.5q49 0 94.5 -14.5t77.5 -45.5l-61 -113q-26 29 -63.5 44t-78.5 15q-27 0 -50.5 -9.5t-41 -25 t-29.5 -35.5t-17 -42l-6 -27h242l-47 -88h-214l-16 -72h190l-48 -88h-162l-1 -5q-2 -11 -3.5 -20t-1.5 -18q0 -40 23.5 -62t70.5 -22q45 0 83.5 7.5t82.5 33.5z" />
<glyph unicode="&#x2113;" horiz-adv-x="507" d="M478 132q-55 -75 -114.5 -106.5t-118.5 -31.5q-40 0 -67 10.5t-44 29.5t-24.5 44t-7.5 54v17t2 18l3 12l-63 -43l-16 64q27 19 51 35.5t47 35.5l58 263q15 68 40 116.5t56 79.5t66 45.5t70 14.5q54 0 79 -32t25 -83q0 -54 -20 -107t-57 -105t-89.5 -104.5t-117.5 -104.5 l-9 -44q-2 -12 -3.5 -22t-1.5 -20q0 -41 19.5 -60.5t50.5 -19.5q21 0 41.5 8t39.5 21.5t36 30.5t31 34zM261 364q40 37 73.5 75t58 75.5t38.5 73t14 68.5q0 23 -10 35.5t-33 12.5q-12 0 -25.5 -8t-27.5 -27.5t-27 -52.5t-24 -82z" />
<glyph unicode="&#x2122;" horiz-adv-x="1000" d="M855 310l62 280h-2l-160 -280h-81l-36 280h-2l-62 -280h-106l91 412h153l39 -250l148 250h153l-91 -412h-106zM175 310l72 328h-114l19 84h341l-19 -84h-115l-72 -328h-112z" />
<glyph unicode="&#x2126;" horiz-adv-x="706" d="M366 0l16 71q45 27 82.5 71t63.5 96.5t40.5 109t14.5 110.5q0 35 -7.5 65.5t-23.5 53.5t-40.5 36t-58.5 13q-51 0 -96.5 -29.5t-80 -79.5t-54.5 -116.5t-20 -139.5q0 -70 20 -118.5t51 -71.5l-16 -71h-258l22 97h138v3q-29 34 -49 85.5t-20 118.5q0 84 31.5 160 t84.5 134.5t123 93t147 34.5q60 0 103.5 -20.5t72 -54.5t42 -78.5t13.5 -93.5q0 -63 -19 -120.5t-48.5 -107t-64.5 -88t-68 -63.5v-3h139l-22 -97h-258z" />
<glyph unicode="&#x212e;" horiz-adv-x="1056" d="M894 134q-55 -65 -140.5 -104t-185.5 -39q-85 0 -160 29t-130.5 79t-88 117t-32.5 144t32.5 145t88 118.5t130.5 79.5t160 29q86 0 161 -29t131 -79.5t88.5 -118.5t32.5 -145v-9h-667q-6 0 -6 -5v-202q0 -7 2.5 -12.5t6.5 -10.5q49 -51 113.5 -80.5t139.5 -29.5 q80 0 148 33.5t117 89.5h59zM830 580q0 14 -10 24q-49 48 -113 77t-137 29q-74 0 -138.5 -29.5t-113.5 -79.5q-10 -12 -10 -25v-199q0 -2 2 -4.5t4 -2.5h511q3 0 4 2.5t1 4.5v203z" />
<glyph unicode="&#x2202;" horiz-adv-x="570" d="M466 456q5 22 7.5 43.5t2.5 41.5q0 37 -8 68t-24 53.5t-39 35.5t-53 13q-45 0 -81.5 -16t-59.5 -33l-15 89q28 19 76 38.5t116 19.5q43 0 80 -15.5t64 -46.5t42.5 -77.5t15.5 -109.5q0 -60 -17 -139q-21 -96 -56.5 -174.5t-83.5 -134.5t-106.5 -86.5t-124.5 -30.5 q-42 0 -72 14.5t-49 39t-28 56t-9 66.5q0 75 27 136.5t68 105t91 67t97 23.5q31 0 53.5 -9t38.5 -22t25 -27.5t12 -24.5h2zM424 318q-1 13 -7.5 28.5t-18.5 29t-29.5 22.5t-41.5 9q-30 0 -59.5 -19.5t-53 -50.5t-38 -71t-14.5 -80q0 -41 18.5 -66.5t56.5 -25.5q29 0 57 20 t53 52t44.5 72t32.5 80z" />
<glyph unicode="&#x2206;" horiz-adv-x="653" d="M-12 0l16 71l378 660h139l80 -658l-16 -73h-597zM436 412q-1 21 -3.5 46.5l-5 51t-5 48.5t-2.5 40h-4q-6 -14 -17.5 -34.5t-24 -43.5t-26 -47.5t-23.5 -45.5l-196 -331h351z" />
<glyph unicode="&#x220f;" horiz-adv-x="876" d="M589 -99v702h-223v-702h-120v702h-102v112h667v-112h-102v-702h-120z" />
<glyph unicode="&#x2211;" horiz-adv-x="715" d="M142 -99v80l244 328l-235 320v86h488v-104h-325v-3l209 -279l-232 -311v-3h365v-114h-514z" />
<glyph unicode="&#x2212;" horiz-adv-x="600" d="M35 211l27 122h544l-27 -122h-544z" />
<glyph unicode="&#x2215;" horiz-adv-x="167" d="M-209 -10l569 742h96l-569 -742h-96z" />
<glyph unicode="&#x2219;" horiz-adv-x="278" d="M237 288q0 -17 -7.5 -33t-20.5 -29.5t-30.5 -21.5t-36.5 -8q-29 0 -45 17.5t-16 42.5q0 16 7.5 32.5t20.5 30t30.5 21.5t36.5 8q29 0 45 -17.5t16 -42.5z" />
<glyph unicode="&#x221a;" horiz-adv-x="752" d="M398 -144l-149 451l-74 -29l-20 69l167 68l105 -329q5 -24 10.5 -47.5t9.5 -40.5h1q3 16 7 41t9 52l172 767h84l-224 -1002h-98z" />
<glyph unicode="&#x221e;" horiz-adv-x="887" d="M456 237q-20 -24 -40 -45t-42.5 -36.5t-48 -24.5t-56.5 -9t-59.5 12.5t-50.5 34.5t-35 53t-13 68q0 38 12.5 69.5t35 54.5t52.5 35.5t66 12.5q57 0 100 -31t83 -82q16 18 34 38t40 36.5t49 27.5t60 11t61.5 -12t49.5 -33.5t33 -52.5t12 -69q0 -41 -13.5 -73t-36 -54.5 t-52 -34t-60.5 -11.5q-44 0 -87 24.5t-94 90.5zM419 287q-15 21 -30.5 40.5t-32.5 35t-37 24.5t-45 9q-45 0 -69.5 -30.5t-24.5 -76.5q0 -21 7.5 -39t20.5 -31.5t31.5 -21.5t39.5 -8q22 0 41 9t36 23t32.5 31.5t30.5 34.5zM494 294q23 -29 41.5 -48.5t35 -32.5t33 -18.5 t36.5 -5.5q21 0 38 9.5t28 24t17 32.5t6 35q0 47 -25.5 76.5t-68.5 29.5q-23 0 -43.5 -11t-38 -26.5t-32.5 -33.5t-27 -31z" />
<glyph unicode="&#x222b;" horiz-adv-x="558" d="M159 -71q7 -3 18 -7t25 -4q16 0 29 7t22.5 26.5t15 55t5.5 93.5q0 69 -2.5 132.5t-5 125l-5 123t-2.5 126.5q0 74 11.5 126.5t34 85.5t55 48.5t74.5 15.5q19 0 35.5 -3.5t25.5 -8.5l-13 -85q-8 4 -16.5 6.5t-19.5 2.5q-43 0 -60.5 -46t-17.5 -153q0 -62 2 -121.5t5 -120 t5 -123t2 -130.5q0 -84 -12.5 -137.5t-34.5 -84t-52 -42.5t-64 -12q-24 0 -44.5 5t-31.5 11z" />
<glyph unicode="&#x2248;" horiz-adv-x="653" d="M573 418q-23 -45 -57 -74.5t-78 -29.5q-30 0 -54 10t-58 31q-23 14 -43 24t-45 10q-33 0 -54 -22.5t-39 -50.5l-44 39q22 45 59.5 74.5t84.5 29.5q36 0 62 -13.5t45 -24.5q27 -16 45.5 -26t41.5 -10q29 0 50 20t41 53zM573 232q-23 -45 -56.5 -74.5t-78.5 -29.5 q-30 0 -54.5 10.5t-57.5 30.5q-23 14 -43 24t-44 10q-17 0 -30.5 -6.5t-24.5 -17t-20.5 -23.5t-18.5 -27l-44 40q22 45 60 74t84 29q37 0 62 -13t44 -24q24 -14 44 -25.5t44 -11.5q30 0 50 20t41 53z" />
<glyph unicode="&#x2260;" horiz-adv-x="671" d="M331 150l-50 -115l-56 23l41 92h-137v71h164l60 138h-224v72h250l50 112l56 -22l-40 -90h138v-72h-164l-61 -138h225v-71h-252z" />
<glyph unicode="&#x2264;" horiz-adv-x="691" d="M154 328v77l446 226v-84l-376 -179v-2l376 -181v-84zM150 -10v73h454v-73h-454z" />
<glyph unicode="&#x2265;" horiz-adv-x="691" d="M156 101v84l375 180v3l-375 179v84l446 -227v-77zM150 -10v73h453v-73h-453z" />
<glyph unicode="&#x25ca;" horiz-adv-x="753" d="M366 -49l-193 406l198 407h98l194 -407l-199 -406h-98zM419 50q3 11 8.5 29.5t9.5 27.5l118 247l-116 247q-5 14 -10.5 31t-8.5 31h-3q-8 -31 -20 -62l-116 -241l117 -251l10 -32t7 -27h4z" />
<glyph unicode="&#x25fc;" horiz-adv-x="545" d="M0 545h545v-545h-545v545z" />
<glyph unicode="&#xf700;" horiz-adv-x="551" d="M178 185q20 0 31.5 12t11.5 32q0 14 -7.5 23t-22.5 9q-19 0 -31 -13.5t-12 -32.5q0 -30 30 -30zM243 0l-12 77q-1 3 -1 11q0 14 3.5 29.5t7.5 29.5l-2 2q-11 -13 -30.5 -23.5t-44.5 -10.5q-38 0 -66.5 24t-28.5 65q0 28 9.5 51.5t26.5 40t40 26t49 9.5q50 0 80 -24.5 t34 -71.5l7 -84v-11q0 -18 -2.5 -38.5t-4.5 -37.5h7q5 27 14 58t17 52l28 77q8 24 8 39q0 38 -36 52.5t-100 14.5q-58 0 -104 -7.5t-75 -18.5h-11l14 81q6 34 21 66.5t39.5 58t59.5 41t82 15.5q26 0 47 -5t40 -10.5t37.5 -10.5t39.5 -5q25 0 37.5 14t17.5 43 q25 -6 49.5 -12.5t49.5 -13.5q-11 -57 -46 -92.5t-98 -35.5q-30 0 -51 4.5t-40 10t-40 10t-51 4.5q-35 0 -55.5 -15.5t-23.5 -35.5l-1 -7q14 3 38.5 5t64.5 2q54 0 92.5 -10t63 -28t36.5 -42.5t12 -53.5q0 -17 -4 -34.5t-11 -37.5l-88 -237h-145z" />
<glyph unicode="&#xf701;" horiz-adv-x="0" d="M-195 653q-41 24 -100.5 43.5t-150.5 19.5q-47 0 -88.5 -6t-86.5 -15h-23q14 44 38 82.5t57 66.5t74.5 44t90.5 16q48 0 87 -16.5t67.5 -45t44 -68t15.5 -84.5q0 -18 -3 -37h-22zM-265 756q-6 12 -16.5 24.5t-25.5 23.5t-35.5 18t-48.5 7q-50 0 -77 -18t-42 -38 q17 7 42 12t58 5q39 0 80 -10.5t65 -23.5z" />
<glyph unicode="&#xf702;" horiz-adv-x="0" d="M-195 653q-41 24 -99.5 43.5t-143.5 19.5q-53 0 -95.5 -6t-87.5 -15h-23q14 44 38 82.5t56 66.5t71 44t84 16q54 0 97 -22.5t65 -51.5l2 2q-2 6 -3 16.5t-1 22.5v15.5t2 15.5l5 30h104l-49 -279h-22zM-265 756q-6 12 -16.5 24.5t-25.5 23.5t-35.5 18t-48.5 7 q-50 0 -77 -18t-42 -38q17 7 42 12t58 5q39 0 80 -10.5t65 -23.5z" />
<glyph unicode="&#xf703;" horiz-adv-x="0" d="M-195 653q-42 24 -104 43.5t-147 19.5q-47 0 -88.5 -6t-86.5 -15h-23q14 44 38 82.5t57 66.5t74.5 44t90.5 16q24 0 47.5 -4t39.5 -11q17 20 41.5 32.5t53.5 12.5q38 0 61.5 -24t23.5 -60q0 -30 -16.5 -55.5t-43.5 -39.5q3 -14 5 -29.5t2 -32.5q0 -21 -3 -40h-22z M-265 756q-6 12 -16.5 24.5t-25.5 23.5t-35.5 18t-48.5 7q-50 0 -77 -18t-42 -38q17 7 42 12t58 5q37 0 76.5 -9.5t68.5 -24.5zM-245 860q27 -22 46 -52q17 14 17 35q0 14 -8 23t-22 9q-18 0 -33 -15z" />
<glyph unicode="&#xf704;" horiz-adv-x="0" d="M-195 653q-41 24 -100.5 43.5t-150.5 19.5q-47 0 -88.5 -6t-86.5 -15h-23q14 44 37.5 82.5t55 66.5t69 44t79.5 16q16 0 33.5 -1.5t27.5 -6.5l3 2q-1 2 -1.5 4t-0.5 5q0 6 1 11l2 14h90l-12 -68q10 -7 21 -21.5t17 -25.5l2 3q-3 12 -3 36q0 10 1 21.5t3 24.5l5 30h90 l-49 -279h-22zM-265 756q-6 12 -16.5 24.5t-25.5 23.5t-35.5 18t-48.5 7q-50 0 -77 -18t-42 -38q17 7 42 12t58 5q39 0 80 -10.5t65 -23.5z" />
<glyph unicode="&#xf705;" horiz-adv-x="0" d="M-328 681l39 223h112l-39 -223h-112z" />
<glyph unicode="&#xf706;" horiz-adv-x="0" d="M-103 886q-9 -53 -36.5 -92.5t-66 -65.5t-84 -39t-89.5 -13q-60 0 -108 9l4 52q20 2 40 8t34 16q-9 2 -19.5 6.5t-20 13t-16 21t-6.5 29.5q0 18 8 36t22 33t34.5 24t45.5 9q33 0 56 -19t23 -56q0 -30 -18 -58t-47 -47q27 4 51.5 15.5t45 29t34 40t18.5 48.5l5 30h95z M-381 823q12 0 19 8.5t7 18.5q0 7 -4 13.5t-14 6.5q-12 0 -19.5 -8.5t-7.5 -18.5q0 -8 4.5 -14t14.5 -6z" />
<glyph unicode="&#xf707;" horiz-adv-x="0" d="M-503 728q12 0 18.5 8.5t6.5 20.5q0 19 -16 19q-14 0 -21 -8t-7 -20q0 -20 19 -20zM-94 910q-20 -111 -96.5 -169.5t-204.5 -58.5l10 57q32 12 51 34t19 68q0 31 -21 31q-20 0 -28.5 -11t-18.5 -25h-54q-5 15 -11.5 26.5t-25.5 11.5q-26 0 -38.5 -18.5t-12.5 -41.5v-4 l2 -1q18 15 48 15q26 0 41 -15t15 -43q0 -42 -25 -65t-71 -23q-17 0 -33 7t-29 20.5t-21 33t-8 44.5q0 32 9 62t27 52.5t43.5 36t58.5 13.5q28 0 41.5 -13t21.5 -31q14 17 36.5 30.5t50.5 13.5q15 0 29.5 -4t26 -14t19 -25.5t7.5 -39.5q0 -30 -12.5 -57t-24.5 -40l2 -3 q29 22 52.5 56t33.5 90l6 33h91z" />
<glyph unicode="&#xf708;" horiz-adv-x="0" d="M-260 774l-13 -93h-103l22 93l-103 -4l17 94l101 -4l11 93h103l-20 -93l105 4l-17 -94z" />
<glyph unicode="&#xf709;" horiz-adv-x="0" d="M-167 860q-17 -7 -34 -10t-40 -6q12 -8 19 -24t7 -36q0 -26 -10 -47t-26 -35.5t-36.5 -22.5t-41.5 -8q-51 0 -76.5 22.5t-25.5 60.5q0 35 14.5 60t38.5 44t55 32.5t65 24.5t67.5 20t63.5 20l25 -68zM-328 735q17 0 26.5 13t9.5 26q0 11 -5.5 20t-19.5 9q-16 0 -26 -13 t-10 -27q0 -12 6 -20t19 -8z" />
<glyph unicode="&#xf70a;" horiz-adv-x="0" d="M-108 681l39 223h112l-39 -223h-112z" />
<glyph unicode="&#xf70b;" horiz-adv-x="0" d="M134 886q-9 -53 -38 -92.5t-69.5 -65.5t-87.5 -39t-91 -13q-60 0 -108 9l4 52q20 2 40 8t34 16q-9 2 -19.5 6.5t-20 13t-16 21t-6.5 29.5q0 18 8 36t22 33t34.5 24t45.5 9q33 0 56 -19t23 -56q0 -30 -18 -58t-47 -47q26 4 52.5 15.5t48.5 29t37.5 40t20.5 48.5l5 30h95z M-154 823q12 0 19 8.5t7 18.5q0 7 -4.5 13.5t-13.5 6.5q-13 0 -20 -8.5t-7 -18.5q0 -8 4.5 -14t14.5 -6z" />
<glyph unicode="&#xf70c;" horiz-adv-x="0" d="M-281 728q12 0 18.5 8.5t6.5 20.5q0 19 -16 19q-14 0 -21 -8t-7 -20q0 -20 19 -20zM147 910q-19 -111 -98.5 -169.5t-206.5 -58.5l10 57q32 12 51 33.5t19 64.5q0 35 -26 35q-20 0 -31 -11t-21 -25h-59q-5 15 -11.5 26.5t-25.5 11.5q-23 0 -34 -13t-15 -31q-1 -5 -2 -9.5 t0 -10.5l2 -1q18 15 48 15q26 0 41 -15t15 -43q0 -42 -25.5 -65t-74.5 -23q-38 0 -62.5 27.5t-24.5 77.5q0 32 9 62t26.5 52.5t43 36t58.5 13.5q28 0 43 -13t23 -31q14 17 40 30.5t54 13.5q15 0 31.5 -4.5t30 -14.5t22.5 -26.5t9 -41.5q0 -27 -11 -50.5t-23 -37.5l2 -3 q29 22 47.5 53.5t28.5 87.5l6 33h97z" />
<glyph unicode="&#xf70d;" horiz-adv-x="0" d="M-1 774l-13 -93h-103l22 93l-103 -4l17 94l101 -4l11 93h103l-20 -93l105 4l-17 -94z" />
<glyph unicode="&#xf70e;" horiz-adv-x="0" d="M23 860q-17 -7 -34 -10t-40 -6q12 -8 19 -24t7 -36q0 -53 -34 -83t-86 -30q-42 0 -69 22.5t-27 60.5q0 35 14.5 60t38.5 44t55 32.5t65 24.5t67.5 20t63.5 20l25 -68zM-138 735q17 0 26.5 13t9.5 26q0 11 -5.5 20t-19.5 9q-16 0 -26 -13t-10 -27q0 -12 6 -20t19 -8z" />
<glyph unicode="&#xf70f;" horiz-adv-x="926" d="M385 0l63 358q3 19 3 37q0 47 -26.5 72t-83.5 25q-50 0 -84.5 -15t-52.5 -34l-2 -6q13 -2 28.5 -7t29.5 -11t26.5 -12.5t19.5 -12.5l-9 -51q-86 -12 -104 -100l-1 -5q-2 -12 -5.5 -20t-9.5 -17l2 -2q11 8 32 8q35 0 57.5 -23t22.5 -61q0 -29 -10.5 -52.5t-28.5 -40.5 t-41.5 -26.5t-48.5 -9.5q-51 0 -81.5 27t-30.5 69q0 5 0.5 9.5t1.5 9.5l23 135q7 42 40 74t73 46v2q-19 9 -50.5 14t-60.5 5l12 69q18 27 46 52.5t64 44.5t77.5 30.5t86.5 11.5q104 0 156.5 -46t52.5 -131q0 -27 -6 -58l-46 -257h188l86 484h118l-104 -585h-423zM168 66 q21 0 33.5 13.5t12.5 34.5q0 14 -8 22.5t-24 8.5q-19 0 -32 -13t-13 -33q0 -33 31 -33z" />
<glyph unicode="&#xf710;" horiz-adv-x="0" d="M1 872q-9 -48 -31.5 -84.5t-54 -62t-68.5 -38.5t-76 -13q-45 0 -83.5 8.5t-67 25t-45 39.5t-16.5 52q0 22 9 43t25.5 37.5t38.5 26t49 9.5q42 0 65 -21.5t23 -56.5q0 -29 -14.5 -49.5t-44.5 -30.5l1 -3q8 -3 27.5 -4.5t31.5 -1.5q57 0 88 33t42 91l7 37h101zM-299 827 q0 28 -29 28q-17 0 -29.5 -11t-12.5 -31q0 -28 29 -28q17 0 29.5 11t12.5 31z" />
<glyph unicode="&#xf711;" horiz-adv-x="0" d="M-170 805q0 -27 -10.5 -51t-28.5 -41.5t-42.5 -28t-52.5 -10.5q-23 0 -43.5 7.5t-35.5 20.5t-23.5 31t-8.5 39q0 27 10.5 51t29 42t43 28.5t53.5 10.5q22 0 42 -7.5t35 -21t23.5 -31.5t8.5 -39zM-299 747q18 0 32.5 14.5t14.5 34.5q0 14 -9 24.5t-23 10.5 q-20 0 -34.5 -14.5t-14.5 -34.5q0 -15 9 -25t25 -10z" />
<glyph unicode="&#xf712;" horiz-adv-x="0" d="M-471 680q-18 7 -35 20t-30.5 30t-21.5 38t-8 44q0 30 9.5 60t31.5 54t57 38.5t86 14.5h140q34 0 59 14t46 39l42 -52q-14 -17 -29.5 -31t-33.5 -24.5t-40.5 -16t-51.5 -5.5h-139q-45 0 -64.5 -23.5t-19.5 -55.5q0 -15 5 -29t13 -22q11 20 26.5 36t32.5 27h28 q0 -12 5 -25.5t13.5 -26.5t19.5 -22.5t25 -13.5q-2 5 -4 13t-2 17q0 35 26 60t71 25q38 0 56 -19t18 -50q0 -54 -32.5 -85t-83.5 -31q-60 0 -93.5 21t-47.5 54q-10 -11 -21 -31.5t-18 -41.5h-35zM-232 749q14 0 22.5 10t8.5 26q0 10 -4.5 16.5t-15.5 6.5q-14 0 -23 -10.5 t-9 -24.5q0 -11 5.5 -17.5t15.5 -6.5z" />
<glyph unicode="&#xf713;" horiz-adv-x="0" d="M-215 985l31 173h103l-31 -173h-103z" />
<glyph unicode="&#xf714;" horiz-adv-x="0" d="M16 1179q-9 -50 -36.5 -87t-65.5 -62t-82 -37t-86 -12q-57 0 -102 9l3 49q43 3 70 22q-8 2 -18 6.5t-19 12.5t-15 19.5t-6 28.5t6.5 34t19.5 31t31.5 22.5t41.5 8.5q32 0 55.5 -18t23.5 -53q0 -28 -17 -54.5t-44 -44.5q25 3 50 14t46 27.5t35.5 38t18.5 45.5l5 29h90z M-257 1120q11 0 18 8t7 17q0 7 -4.5 13t-12.5 6q-12 0 -18.5 -8t-6.5 -18q0 -8 4 -13t13 -5z" />
<glyph unicode="&#xf715;" horiz-adv-x="0" d="M-310 1028q11 0 17.5 8.5t6.5 19.5q0 8 -4 13t-12 5q-12 0 -19 -7.5t-7 -19.5q0 -19 18 -19zM94 1200q-19 -105 -93.5 -160t-194.5 -55l9 54q31 11 48.5 34t17.5 62q0 33 -24 33q-18 0 -30.5 -12.5t-21.5 -25.5h-50q-4 14 -12 27t-25 13q-22 0 -33 -14t-14 -31 q-1 -5 -2 -9.5t0 -9.5l2 -1q17 14 45 14q24 0 38.5 -14.5t14.5 -40.5q0 -38 -24.5 -60.5t-70.5 -22.5q-35 0 -58.5 26t-23.5 73q0 30 9 58t26 49.5t41.5 34.5t55.5 13q26 0 40 -12.5t22 -29.5q14 17 38.5 29.5t50.5 12.5q14 0 29 -4t28 -13.5t21 -25.5t8 -39 q0 -26 -10.5 -48.5t-21.5 -34.5l1 -3q28 20 46.5 50t26.5 83l5 31h91z" />
<glyph unicode="&#xf716;" horiz-adv-x="0" d="M-108 1068l-11 -83h-97l19 83l-91 -4l16 89l89 -4l11 83h97l-19 -83l93 4l-16 -89z" />
<glyph unicode="&#xf717;" horiz-adv-x="0" d="M-116 1130q-16 -6 -32.5 -9.5t-36.5 -5.5q11 -9 18 -23.5t7 -33.5q0 -50 -32 -78.5t-81 -28.5q-40 0 -65.5 24t-25.5 59q0 48 32.5 78.5t80.5 51t103.5 35.5t102.5 32l23 -65zM-268 1012q17 0 25.5 12.5t8.5 24.5q0 10 -5.5 18.5t-17.5 8.5q-15 0 -24.5 -12t-9.5 -26 q0 -11 5.5 -18.5t17.5 -7.5z" />
<glyph unicode="&#xf718;" horiz-adv-x="0" d="M-315 -558l7 39q3 17 9 27t13 18l-1 3q-5 -4 -15 -6t-15 -2q-34 0 -53 22.5t-19 55.5q0 48 31.5 79.5t84.5 31.5q38 0 65.5 -22.5t27.5 -57.5q0 -10 -1 -15l-31 -173h-103zM-293 -421q17 0 28 12t11 29q0 11 -7 19.5t-19 8.5q-17 0 -28.5 -11.5t-11.5 -28.5q0 -13 7 -21 t20 -8z" />
<glyph unicode="&#xf719;" horiz-adv-x="0" d="M-491 -560l7 41q3 17 9 27t13 18l-1 3q-5 -4 -15 -6t-15 -2q-34 0 -53 22.5t-19 55.5q0 48 31 79.5t85 31.5q38 0 65.5 -22.5t27.5 -57.5q0 -10 -1 -15l-17 -96h73l33 186h103l-47 -265h-279zM-469 -421q17 0 28 12t11 29q0 11 -7 19.5t-19 8.5q-17 0 -28.5 -11.5 t-11.5 -28.5q0 -13 7 -21t20 -8z" />
<glyph unicode="&#xf71a;" horiz-adv-x="0" d="M-144 -363q0 -21 -9 -40t-24.5 -33.5t-36 -23t-42.5 -8.5q-35 0 -57 23t-22 55q0 21 9.5 39.5t25 32.5t35.5 22.5t41 8.5q35 0 57.5 -22t22.5 -54z" />
<glyph unicode="&#xf71b;" horiz-adv-x="658" d="M94 -206q22 0 35.5 14.5t13.5 36.5q0 16 -9 25.5t-25 9.5q-23 0 -36.5 -14.5t-13.5 -36.5q0 -15 9 -25t26 -10zM341 -283h-11l-73 54q-17 13 -27 25.5t-11 28.5h-4q-8 -43 -42.5 -72.5t-85.5 -29.5q-48 0 -79 24.5t-31 69.5q0 28 10 52t28 41.5t42.5 27.5t52.5 10 q11 0 17 -2t11 -4l3 2q-3 4 -3 13q0 3 1 8.5t3 20.5h101l-12 -70l101 -79l75 68l80 453q3 19 3 36q0 48 -28 73t-88 25q-53 0 -90 -15t-55 -34l-1 -6q13 -2 28 -7t29.5 -11t26.5 -12.5t19 -12.5l-9 -51q-26 -6 -41.5 -27t-22.5 -63l-25 -144q-5 -25 -17.5 -46t-30.5 -36.5 t-41 -24t-48 -8.5q-44 0 -73.5 25t-29.5 68q0 27 9.5 49t25.5 37.5t36.5 24.5t43.5 9q20 0 30 -8l2 2q-4 9 -4 21q0 3 0.5 7t1.5 9l4 26q6 42 26.5 64t44.5 36v2q-18 9 -49.5 14t-60.5 5l12 69q18 27 45 52.5t61.5 44.5t75.5 30.5t88 11.5q109 0 167 -48t58 -136 q0 -12 -1.5 -24.5t-3.5 -26.5l-85 -480zM102 66q20 0 32.5 13t12.5 34q0 14 -8.5 23t-23.5 9q-20 0 -32.5 -13.5t-12.5 -33.5q0 -32 32 -32z" />
<glyph unicode="&#xf71c;" horiz-adv-x="658" d="M92 -212q22 0 35.5 14.5t13.5 36.5q0 16 -9 25.5t-25 9.5q-22 0 -35.5 -14.5t-13.5 -36.5q0 -16 8.5 -25.5t25.5 -9.5zM386 -283h-12l-51 57l-69 -57h-12q-17 20 -26 35t-9 32q0 7 1 11h-4q-4 -11 -13 -24.5t-23.5 -25.5t-35.5 -20t-48 -8q-44 0 -75.5 24t-31.5 70 q0 28 11 52.5t30 42t42.5 27.5t49.5 10q10 0 17 -2.5t11 -5.5l2 2q-2 3 -3.5 8t-1.5 11q0 1 0.5 4.5t3.5 17.5h100l-17 -97l46 -55l51 45h10l39 -44l30 27l89 504q3 19 3 36q0 48 -28 73t-88 25q-53 0 -89.5 -15t-55.5 -34l-1 -6q13 -2 28 -7t29.5 -11t26.5 -12.5t20 -12.5 l-9 -51q-27 -6 -41.5 -27t-22.5 -63l-26 -144q-5 -25 -17.5 -46t-30.5 -36.5t-41.5 -24t-48.5 -8.5q-44 0 -73 25t-29 68q0 27 9.5 49t26 37.5t37 24.5t43.5 9q19 0 29 -8l2 2q-2 6 -3 11t-1 11q0 4 0.5 7t1.5 8l5 26q8 42 26.5 64t43.5 36l1 2q-19 9 -50.5 14t-60.5 5 l12 69q18 27 45 52.5t62 44.5t76 30.5t88 11.5q109 0 166.5 -48t57.5 -135q0 -13 -1.5 -25.5t-3.5 -26.5l-93 -530zM102 66q20 0 32.5 13t12.5 34q0 14 -8.5 23t-22.5 9q-21 0 -33.5 -13.5t-12.5 -33.5q0 -32 32 -32z" />
<glyph unicode="&#xf71d;" horiz-adv-x="725" d="M515 0l-102 288l-204 -288h-112l60 342q2 12 6 20t10 17l-2 2q-11 -7 -32 -7q-38 0 -62 25t-24 65q0 30 10.5 53.5t29 40.5t44 26t54.5 9q23 0 43 -7t35 -20t23.5 -30.5t8.5 -38.5q0 -5 -0.5 -9.5t-1.5 -9.5l-51 -289l138 199h76l66 -199l44 251q-20 -9 -61 -9 q-30 0 -55.5 7t-44.5 19.5t-29.5 30t-10.5 38.5q0 23 12 44.5t34.5 38.5t54 27.5t71.5 10.5q53 0 88.5 -20.5t50.5 -47.5q17 12 34 32t31 43l85 -50q-35 -47 -66.5 -77.5t-69.5 -50.5l-84 -476h-97zM212 488q0 16 -9 24.5t-23 8.5q-21 0 -34 -13t-13 -34q0 -14 8.5 -23 t24.5 -9q19 0 32.5 13t13.5 33zM599 527q-5 18 -23.5 31t-46.5 13t-43.5 -9t-15.5 -24q0 -14 16.5 -21.5t41.5 -7.5q22 0 41.5 4t29.5 14z" />
<glyph unicode="&#xf883;" horiz-adv-x="635" d="M361 -228l103 586q3 18 3 35q0 48 -29 73.5t-89 25.5q-53 0 -90 -15t-55 -34l-2 -6q13 -2 28.5 -7t29.5 -11t26.5 -12.5t19.5 -12.5l-9 -51q-42 -6 -69 -31t-35 -69l-1 -5q-2 -12 -5.5 -20t-9.5 -17l2 -2q11 8 32 8q35 0 57.5 -23t22.5 -61q0 -29 -10 -52.5t-27.5 -40.5 t-41.5 -26.5t-52 -9.5q-47 0 -78.5 27t-31.5 70q0 5 0.5 9t1.5 9l23 135q7 42 40 74t73 46v2q-19 9 -50.5 14t-60.5 5l12 69q18 27 45.5 52.5t62 44.5t76 30.5t88.5 11.5q109 0 167.5 -48t58.5 -136q0 -12 -1.5 -24.5t-3.5 -26.5l-103 -586h-118zM168 66q21 0 33.5 13.5 t12.5 34.5q0 14 -8 22.5t-24 8.5q-19 0 -32 -13t-13 -33q0 -33 31 -33z" />
<glyph unicode="&#xf884;" horiz-adv-x="659" d="M386 -228l102 586q3 18 3 35q0 48 -28.5 73.5t-88.5 25.5q-53 0 -89.5 -15t-54.5 -34l-2 -6q13 -2 28.5 -7t29.5 -11t26.5 -12.5t19.5 -12.5l-9 -51q-27 -6 -42 -27t-22 -63l-25 -144q-5 -25 -17.5 -46t-31 -36.5t-41.5 -24t-48 -8.5q-44 0 -73.5 25t-29.5 68 q0 27 9.5 49t26 37.5t37 24.5t43.5 9q19 0 30 -8l2 2q-5 13 -5 23q0 4 2 14l5 26q8 42 27 64t44 36v2q-19 9 -50.5 14t-60.5 5l12 69q18 27 45 52.5t62 44.5t76 30.5t88 11.5q109 0 167 -48t58 -136q0 -12 -1.5 -24.5t-3.5 -26.5l-102 -586h-118zM102 66q20 0 32.5 13 t12.5 34q0 14 -8.5 23t-22.5 9q-20 0 -33 -13.5t-13 -33.5q0 -32 32 -32z" />
<glyph unicode="&#xf8ff;" horiz-adv-x="900" d="M450 -9q-112 0 -181.5 13.5t-108 52t-52 108t-13.5 181.5t13.5 181.5t52 108t108 52t181.5 13.5t181.5 -13.5t108 -52t52 -108t13.5 -181.5t-13.5 -181.5t-52 -108t-108 -52t-181.5 -13.5zM663 366q0 43 -16.5 79t-45 62t-67.5 40.5t-84 14.5t-84 -14.5t-67.5 -40.5 t-45 -62t-16.5 -79v-223h85l95 102q15 -6 33 -6q38 0 64 25t26 65q0 39 -26 64.5t-64 25.5t-64.5 -25.5t-26.5 -64.5q0 -26 13 -48l-65 -71v156q0 31 11.5 55.5t31 41.5t45.5 26.5t55 9.5t55 -9.5t45.5 -26.5t31 -41.5t11.5 -55.5v-223h70v223zM450 291q-15 0 -26.5 11 t-11.5 27t11.5 26.5t26.5 10.5t26 -10.5t11 -26.5t-11 -27t-26 -11z" />
<glyph horiz-adv-x="547" d="M-170 805q0 -27 -12 -51t-31.5 -41.5t-45 -28t-53.5 -10.5q-47 0 -75 28t-28 70q0 27 11.5 51t31.5 42t45.5 28.5t54.5 10.5q45 0 73.5 -28.5t28.5 -70.5zM-299 747q18 0 32.5 14.5t14.5 34.5q0 14 -9 24.5t-23 10.5q-20 0 -34.5 -14.5t-14.5 -34.5q0 -15 9 -25t25 -10z M313 0l68 386q1 7 1.5 13.5t0.5 12.5q0 38 -24 59t-72 21q-51 0 -87.5 -28.5t-45.5 -76.5l-7 -37h-115l7 39q8 43 31 80.5t58.5 65t80.5 43t96 15.5q95 0 146.5 -44t51.5 -121q0 -11 -1 -21.5t-3 -21.5l-68 -385h-118z" />
<glyph horiz-adv-x="0" d="M-289 802q-21 0 -33.5 -9t-12.5 -26q0 -22 21 -22q10 0 19 3.5t25 13.5l28 -54q-19 -14 -43 -23.5t-50 -9.5q-27 0 -44.5 7t-28.5 18t-15.5 25t-4.5 28q0 72 85 103q-4 7 -6.5 15.5t-2.5 16.5q0 22 11.5 40t31 30.5t46.5 19.5t57 7q29 0 55 -7t45 -16l-30 -63 q-15 8 -32.5 13.5t-34.5 5.5q-26 0 -43 -7.5t-17 -27.5q0 -15 20 -15h64l-28 -66h-82z" />
</font>
</defs>
</svg>
