<?xml version="1.0" standalone="no"?>
<!DOCTYPE svg PUBLIC "-//W3C//DTD SVG 1.1//EN" "http://www.w3.org/Graphics/SVG/1.1/DTD/svg11.dtd" >
<svg xmlns="http://www.w3.org/2000/svg" xmlns:xlink="http://www.w3.org/1999/xlink" version="1.1">
<metadata></metadata>
<defs>
<font id="thongtermoblique" horiz-adv-x="0" >
<font-face units-per-em="1000" ascent="800" descent="-200" />
<missing-glyph horiz-adv-x="305" />
<glyph unicode="&#xe2f;&#xe2f;" horiz-adv-x="705" d="M495 0l127 588h81l-127 -588h-81zM242 505q0 17 -11 27t-29 10q-23 0 -35 -12t-12 -33q0 -14 11 -24t28 -10q23 0 35.5 11t12.5 31zM329 0l78 364q5 23 11.5 45.5t17.5 43.5l-7 2q-14 -24 -33 -45t-43.5 -37.5t-53.5 -26t-61 -9.5q-31 0 -58 10.5t-46.5 29t-30.5 43 t-11 53.5q0 57 33 90t85 33q40 0 64.5 -23t24.5 -58q0 -27 -10.5 -46t-26 -31.5t-33 -18t-30.5 -3.5l-1 -2q17 -10 55 -10q33 0 63 17.5t55.5 44.5t47 59.5t38.5 62.5h79l-127 -588h-80z" />
<glyph unicode="&#xe4f;&#x22;" horiz-adv-x="479" d="M336 280q0 -19 -8 -35.5t-21.5 -29t-31 -20t-36.5 -7.5q-28 0 -45.5 18.5t-17.5 45.5q0 19 8 35.5t21.5 29.5t31 20.5t35.5 7.5q29 0 46.5 -18.5t17.5 -46.5zM419 293q0 28 -9.5 52.5t-26.5 42.5t-40.5 28t-52.5 10q-38 0 -73.5 -15.5t-62.5 -41.5t-43.5 -60t-16.5 -71 q0 -27 9.5 -51t26 -41.5t40 -27.5t52.5 -10q38 0 73.5 15t63 40.5t44 59t16.5 70.5zM444 298q0 -44 -19.5 -82.5t-51 -67.5t-73 -46t-84.5 -17q-33 0 -59.5 11.5t-46 31.5t-30 47t-10.5 59q0 43 19 82.5t50.5 68.5t72 46.5t83.5 17.5q33 0 60.5 -11.5t47 -32t30.5 -48 t11 -59.5zM207 484l48 216h49l-48 -216h-49zM302 484l48 216h50l-48 -216h-50z" />
<glyph unicode="&#xe24;&#xe32;" horiz-adv-x="975" d="M706 -282l141 657q3 13 4 24t1 22q0 48 -28.5 74.5t-89.5 26.5q-53 0 -94.5 -19t-64.5 -41q3 -18 3 -38q0 -12 -1 -24t-4 -25l-141 -657h-81l142 657q5 25 5 42q0 50 -32.5 77.5t-98.5 27.5q-57 0 -101 -19.5t-67 -42.5l-2 -8q15 -2 30.5 -7t30.5 -11.5t28 -14t22 -14.5 l-8 -36q-45 -5 -78 -36.5t-44 -86.5l-2 -12q-3 -19 -9.5 -31.5t-13.5 -23.5l2 -2q8 7 18.5 10.5t27.5 3.5q36 0 60.5 -23t24.5 -64q0 -48 -34 -78t-87 -30q-44 0 -71.5 24t-27.5 63v10.5t2 11.5l29 141q11 55 45 92t72 51q-21 11 -53.5 17.5t-63.5 6.5l10 46q16 25 43 49 t62 43t76 30.5t85 11.5q61 0 104.5 -18t69.5 -50q13 11 34 23t47 22t55 16.5t59 6.5q94 0 143 -42.5t49 -117.5q0 -28 -6 -58l-141 -657h-81zM223 102q0 16 -11 26.5t-29 10.5q-24 0 -37 -13.5t-13 -35.5q0 -16 11 -26t27 -10q22 0 37 11.5t15 36.5z" />
<glyph unicode="&#xe26;&#xe32;" horiz-adv-x="1015" d="M746 -282l141 657q3 13 4 24t1 22q0 48 -28.5 74.5t-89.5 26.5q-51 0 -91.5 -17.5t-64.5 -39.5q2 -10 3 -20t1 -21q0 -12 -1 -24t-4 -25l-141 -657h-81l142 657q2 11 3.5 21.5t1.5 21.5q0 49 -32 76.5t-98 27.5q-57 0 -100.5 -19.5t-66.5 -42.5l-2 -8q15 -2 30.5 -7 t30.5 -11.5t28 -14t22 -14.5l-8 -36q-41 -5 -61 -30t-30 -73l-36 -171q-10 -45 -39 -72t-83 -27q-45 0 -72 25t-27 64q0 26 9.5 46.5t24.5 34.5t35 21.5t41 7.5t34.5 -5.5t20.5 -13.5l4 2q-2 5 -3 11.5t-1 13.5t1 14.5t3 16.5l7 31q21 96 86 124q-21 11 -53.5 17.5 t-63.5 6.5l10 46q16 25 43 49t61.5 43t75.5 30.5t85 11.5q60 0 103 -17.5t68 -48.5q14 11 35 22.5t46.5 21.5t54 16t57.5 6q94 0 143 -42.5t49 -117.5q0 -28 -6 -58l-141 -657h-81zM152 102q0 17 -12 27t-29 10q-23 0 -36 -12.5t-13 -35.5q0 -17 11 -27t28 -10q22 0 36.5 12 t14.5 36z" />
<glyph unicode="fi" horiz-adv-x="585" d="M75 0l102 458h-88l13 62h88l13 59q10 46 25 75.5t34.5 47t44.5 24t57 6.5q16 0 32 -1.5t31 -3.5l-14 -64q-13 2 -25.5 4.5t-24.5 2.5q-37 0 -55.5 -15t-28.5 -59l-17 -76h113l-13 -62h-113l-102 -458h-72zM370 0l115 520h72l-115 -520h-72zM513 646l19 86h72l-19 -86h-72 z" />
<glyph unicode="fl" horiz-adv-x="585" d="M75 0l102 458h-88l13 62h88l13 59q10 46 25 75.5t34.5 47t44.5 24t57 6.5q16 0 32 -1.5t31 -3.5l-14 -64q-13 2 -25.5 4.5t-24.5 2.5q-37 0 -55.5 -15t-28.5 -59l-17 -76h113l-13 -62h-113l-102 -458h-72zM370 0l160 722h72l-160 -722h-72z" />
<glyph unicode=" "  horiz-adv-x="305" />
<glyph unicode="&#x09;" horiz-adv-x="305" />
<glyph unicode="&#xa0;" horiz-adv-x="305" />
<glyph unicode="!" horiz-adv-x="333" d="M145 228l88 494h106l-130 -494h-64zM77 0l24 110h98l-24 -110h-98z" />
<glyph unicode="&#x22;" horiz-adv-x="333" d="M136 452l60 270h62l-60 -270h-62zM255 452l60 270h62l-60 -270h-62z" />
<glyph unicode="#" horiz-adv-x="611" d="M443 438h-136l-54 -152h135zM286 0l82 230h-135l-82 -230h-62l82 230h-99l12 56h107l54 152h-99l13 56h107l81 228h62l-81 -228h136l80 228h62l-80 -228h94l-13 -56h-102l-55 -152h95l-12 -56h-103l-82 -230h-62z" />
<glyph unicode="$" horiz-adv-x="611" d="M381 660q-35 0 -64 -10.5t-50 -29.5t-32.5 -45.5t-11.5 -57.5q0 -24 9 -41t23.5 -28.5t33 -19t38.5 -11.5zM317 62q31 1 61.5 12.5t54.5 31.5t39 47t15 60q0 25 -10 42.5t-25.5 30t-36 21t-41.5 15.5zM208 -124l27 124q-36 1 -65 13t-52.5 31t-41.5 42t-32 45l68 44 q8 -18 21 -37t30.5 -35.5t39 -28t46.5 -12.5l62 279q-23 6 -51.5 17.5t-53.5 31.5t-42 48t-17 67q0 56 24 97t60.5 67.5t80.5 39.5t83 13l17 77h68l-17 -77q30 -2 55.5 -13.5t45.5 -28t34.5 -36.5t23.5 -40l-61 -42q-14 36 -43.5 63t-68.5 35l-58 -261q84 -29 127.5 -67.5 t43.5 -101.5q0 -51 -22.5 -93.5t-59 -72.5t-83 -47t-94.5 -17l-27 -124h-68z" />
<glyph unicode="%" horiz-adv-x="889" d="M767 191q0 36 -23.5 57.5t-61.5 21.5q-24 0 -47.5 -9.5t-42 -27t-30 -41t-11.5 -51.5q0 -36 23.5 -57.5t61.5 -21.5q24 0 47.5 9.5t42 27t30 41t11.5 51.5zM830 203q0 -42 -18 -78.5t-47 -64.5t-66.5 -44t-76.5 -16q-30 0 -54.5 9.5t-42.5 26.5t-27.5 40.5t-9.5 51.5 q0 42 18 79t47 65t66.5 44t76.5 16q30 0 54.5 -9.5t42.5 -27t27.5 -41t9.5 -51.5zM481 593q0 -42 -18 -78.5t-47 -64.5t-66.5 -44t-76.5 -16q-30 0 -54.5 9.5t-42.5 26.5t-27.5 40.5t-9.5 51.5q0 42 18 79t47 65t66.5 44t76.5 16q30 0 54.5 -9.5t42.5 -27t27.5 -41 t9.5 -51.5zM418 581q0 36 -23.5 57.5t-61.5 21.5q-24 0 -47.5 -9.5t-42 -27t-30 -41t-11.5 -51.5q0 -36 23.5 -57.5t61.5 -21.5q25 0 48.5 9.5t42 27t29.5 41t11 51.5zM165 -10l579 742h59l-579 -742h-59z" />
<glyph unicode="&#x26;" horiz-adv-x="667" d="M327 456q24 13 49 31t45.5 38.5t33.5 43t13 45.5q0 26 -17 41t-40 15t-41.5 -10.5t-32 -27.5t-20.5 -38.5t-7 -44.5q0 -27 6 -51.5t11 -41.5zM568 0q-14 0 -30.5 5.5t-33.5 15.5t-33.5 23t-28.5 28q-45 -39 -99 -60.5t-125 -21.5q-37 0 -69 11t-55.5 32t-37 50.5 t-13.5 66.5q0 46 18.5 85.5t48.5 72.5t67.5 59.5t75.5 47.5q-11 23 -17.5 55.5t-6.5 66.5q0 40 14 75.5t39.5 62t62.5 42t83 15.5q54 0 88.5 -26t34.5 -76q0 -38 -19 -71t-48.5 -61.5t-64.5 -52.5t-68 -45q22 -65 53.5 -120.5t60.5 -97.5q11 11 25 30t28 43t28 52t25 57 l62 -16q-11 -28 -26 -58t-32 -58.5t-35 -54t-36 -44.5q9 -12 23 -23.5t29 -19.5t29.5 -13t24.5 -5l-16 -72h-26zM274 360q-25 -14 -48.5 -30t-43 -35.5t-34 -44.5t-21.5 -58q-4 -16 -4 -33q0 -26 10 -44.5t27 -31.5t38.5 -19t44.5 -6q48 0 87.5 17t71.5 43q-37 57 -70 118 t-58 124z" />
<glyph unicode="'" horiz-adv-x="222" d="M140 452l60 270h62l-60 -270h-62z" />
<glyph unicode="(" horiz-adv-x="333" d="M147 -84q-65 121 -65 265q0 73 16.5 146.5t48 144t76.5 136t102 124.5h78q-56 -58 -102 -120t-78.5 -129t-50.5 -140t-18 -153q0 -74 18 -141.5t49 -132.5h-74z" />
<glyph unicode=")" horiz-adv-x="333" d="M-7 -84q56 58 102 120t78.5 129t50.5 140.5t18 154.5q0 73 -17.5 140t-49.5 132h74q32 -60 49 -126t17 -138q0 -73 -16.5 -146.5t-48 -144t-76.5 -137t-103 -124.5h-78z" />
<glyph unicode="*" horiz-adv-x="500" d="M371 382l-44 134h-8l-102 -132l-43 39l129 114v7l-143 23l32 65l123 -65l7 4l11 151h67l-51 -149l6 -6l147 69l10 -67l-156 -31l-5 -8l83 -106z" />
<glyph unicode="+" horiz-adv-x="600" d="M342 229l-51 -229h-62l51 229h-229l14 62h229l50 229h62l-50 -229h229l-14 -62h-229z" />
<glyph unicode="," horiz-adv-x="305" d="M23 -148l80 148h-40l24 110h98l-24 -110l-96 -148h-42z" />
<glyph unicode="-" horiz-adv-x="333" d="M51 229l14 62h252l-14 -62h-252z" />
<glyph unicode="." horiz-adv-x="305" d="M63 0l24 110h98l-24 -110h-98z" />
<glyph unicode="/" horiz-adv-x="278" d="M-50 -10l397 742h61l-398 -742h-60z" />
<glyph unicode="0" horiz-adv-x="611" d="M263 -10q-91 0 -142 51t-51 164q0 64 20 156q22 98 55 168t76 115t95 66.5t111 21.5q91 0 142 -51.5t51 -163.5q0 -64 -20 -156q-22 -98 -55 -168t-76 -115t-95 -66.5t-111 -21.5zM277 52q88 0 149 72.5t98 236.5q20 92 20 153q0 82 -33 119t-97 37q-88 0 -149.5 -72.5 t-98.5 -236.5q-11 -45 -15.5 -82.5t-4.5 -69.5q0 -83 33.5 -120t97.5 -37z" />
<glyph unicode="1" horiz-adv-x="611" d="M115 0l14 62h125l130 587l-142 -14l10 47q41 11 82 23t68 27h72l-148 -670h123l-14 -62h-320z" />
<glyph unicode="2" horiz-adv-x="611" d="M26 0l17 76q44 67 98 114.5t109.5 84.5t108.5 67.5t93.5 63.5t65.5 72.5t25 95.5q0 47 -30.5 71.5t-89.5 24.5q-39 0 -72 -14.5t-59 -37t-45 -50.5t-29 -55l-68 16q17 37 41.5 73.5t59 65.5t81 46.5t106.5 17.5q39 0 72 -9.5t58 -28.5t39 -47t14 -64q0 -62 -28.5 -111 t-74.5 -89.5t-102.5 -76.5t-113 -73.5t-106 -78.5t-80.5 -92h393l-14 -62h-469z" />
<glyph unicode="3" horiz-adv-x="611" d="M223 354l14 62h43q113 0 176 40.5t63 120.5q0 44 -31.5 68.5t-76.5 24.5q-33 0 -59 -7t-49 -20t-44.5 -31.5t-44.5 -41.5l-50 40q48 51 110.5 86.5t149.5 35.5q82 0 127.5 -34.5t45.5 -99.5q0 -43 -14 -77t-36 -59.5t-49 -43t-53 -26.5q58 -25 79.5 -63t21.5 -78 q0 -56 -23 -103.5t-63 -82.5t-94.5 -55t-117.5 -20q-52 0 -90.5 14.5t-65.5 35.5t-44 46t-25 46l67 40q29 -56 72 -88t100 -32q46 0 84 13t65 37t42 58t15 76q0 56 -41 87t-133 31h-71z" />
<glyph unicode="4" horiz-adv-x="611" d="M330 0l38 170h-332l13 62l407 490h106l-109 -490h124l-13 -62h-124l-38 -170h-72zM473 646h-3l-345 -414h256z" />
<glyph unicode="5" horiz-adv-x="611" d="M297 660l-69 -231q43 32 83 45.5t78 13.5t72 -11t59 -33.5t39.5 -55.5t14.5 -77q0 -27 -6.5 -61t-21.5 -69.5t-38.5 -70t-57.5 -61t-79.5 -43t-102.5 -16.5q-46 0 -80 11.5t-59 31t-41.5 44.5t-27.5 51l73 34q16 -49 51 -79.5t92 -30.5q48 0 88.5 20.5t70 54t45.5 78 t16 92.5q0 58 -33 93.5t-95 35.5q-53 0 -98 -29t-78 -80l-60 14l119 391h370l-14 -62h-310z" />
<glyph unicode="6" horiz-adv-x="611" d="M580 629q-20 20 -45.5 30.5t-67.5 10.5q-43 0 -86.5 -18t-82.5 -55t-70.5 -94t-49.5 -135q20 17 42.5 32.5t48.5 27.5t57 19t69 7q34 0 65.5 -10.5t55 -31.5t37.5 -52.5t14 -73.5q0 -74 -27 -129t-69.5 -92.5t-94 -56t-100.5 -18.5q-45 0 -82 11t-63.5 35.5t-41 63 t-14.5 93.5q0 29 4.5 61t12.5 70q19 85 54 159.5t84.5 130t112 87t135.5 31.5q59 0 96.5 -13.5t50.5 -28.5zM151 238q-4 -20 -4 -43q0 -61 35 -102t102 -41q43 0 80.5 16.5t65.5 45.5t44 68.5t16 85.5q0 30 -9.5 53.5t-26 39t-38 23.5t-45.5 8q-33 0 -68 -12.5t-66 -33.5 t-54 -49t-32 -59z" />
<glyph unicode="7" horiz-adv-x="611" d="M103 0l443 660h-366l14 62h458l-10 -44l-455 -678h-84z" />
<glyph unicode="8" horiz-adv-x="611" d="M455 384q51 -20 85 -59.5t34 -96.5q0 -48 -21.5 -91t-61.5 -76t-97.5 -52t-130.5 -19q-57 0 -99.5 11.5t-70 32.5t-41 49.5t-13.5 61.5q0 43 17 79.5t45.5 66t65.5 53t78 40.5l1 2q-47 19 -71.5 52.5t-24.5 77.5q0 53 23.5 93.5t62.5 67.5t89 41t102 14q44 0 80.5 -9 t62.5 -26.5t40.5 -43.5t14.5 -60q0 -35 -12 -66.5t-34.5 -58.5t-53.5 -48t-69 -34zM330 352q-39 -15 -77 -32.5t-68 -40t-49 -51t-19 -65.5q0 -21 9 -41t28.5 -35.5t49.5 -25t73 -9.5q55 0 96.5 15.5t69 39t41 51.5t13.5 54q0 25 -12.5 45.5t-35 37t-53 30.5t-66.5 27z M357 417q36 8 70.5 23t61 35.5t43 47t16.5 57.5q0 24 -11 41t-29.5 28t-43 16t-50.5 5q-30 0 -62.5 -7.5t-60 -24t-45 -41.5t-17.5 -60q0 -25 13 -44.5t32.5 -34.5t41.5 -25t41 -16z" />
<glyph unicode="9" horiz-adv-x="611" d="M111 93q20 -20 46 -30.5t68 -10.5q43 0 86 19t81 57t69.5 94.5t51.5 131.5q-20 -17 -42.5 -32.5t-49 -27.5t-57.5 -19t-68 -7q-35 0 -66 10.5t-55 31.5t-38 52.5t-14 73.5q0 73 27.5 128.5t70 93t94 56t100.5 18.5q45 0 81.5 -11t63 -35.5t41 -63t14.5 -93.5 q0 -58 -16 -131q-19 -86 -54.5 -160t-85 -129.5t-111.5 -87t-135 -31.5q-59 0 -96.5 13.5t-50.5 28.5zM534 464q7 32 7 63q0 67 -34.5 105t-98.5 38q-43 0 -81 -16.5t-66 -45.5t-44 -68.5t-16 -85.5q0 -30 9.5 -53.5t26 -39t38 -23.5t45.5 -8q33 0 64 10t59 28t51 42.5 t40 53.5z" />
<glyph unicode=":" horiz-adv-x="305" d="M63 0l24 110h98l-24 -110h-98zM127 290l25 110h98l-25 -110h-98z" />
<glyph unicode=";" horiz-adv-x="305" d="M23 -148l80 148h-40l24 110h98l-24 -110l-96 -148h-42zM127 290l25 110h98l-25 -110h-98z" />
<glyph unicode="&#x3c;" horiz-adv-x="600" d="M57 232l13 56l559 232l-13 -62l-480 -198l392 -198l-14 -62z" />
<glyph unicode="=" horiz-adv-x="600" d="M73 331l14 62h520l-14 -62h-520zM28 127l14 62h520l-14 -62h-520z" />
<glyph unicode="&#x3e;" horiz-adv-x="600" d="M6 0l14 62l480 198l-392 198l13 62l457 -231l-13 -58z" />
<glyph unicode="?" horiz-adv-x="444" d="M163 228l12 55q8 39 27.5 69t44 55t50.5 46.5t47 44.5t35 49t14 59q0 25 -14.5 44.5t-51.5 19.5q-35 0 -63 -17.5t-60 -59.5l-53 29q37 54 85 82t102 28q27 0 51.5 -7.5t42.5 -22.5t28.5 -37t10.5 -50q0 -39 -15 -70.5t-38.5 -58t-51 -50.5t-53 -48t-45 -49.5 t-25.5 -54.5l-12 -56h-68zM95 0l24 110h98l-24 -110h-98z" />
<glyph unicode="@" horiz-adv-x="800" d="M345 210q36 0 73 22.5t67 56t49.5 74t19.5 76.5q0 32 -16.5 47t-38.5 15q-44 0 -81.5 -25.5t-65.5 -61.5t-43.5 -75.5t-15.5 -68.5q0 -28 13 -44t39 -16zM734 162q-33 -43 -75 -75t-89 -53.5t-97.5 -32.5t-99.5 -11q-67 0 -122 21.5t-94.5 60t-61 91.5t-21.5 115 q0 93 41 175.5t106.5 144.5t148.5 98t167 36q61 0 112 -17.5t88.5 -49t58.5 -76.5t21 -99q0 -53 -15 -99.5t-39.5 -85.5t-56.5 -69.5t-65 -52t-65.5 -32.5t-58.5 -11q-27 0 -42 14.5t-15 36.5q0 7 1 11l-2 -1q-26 -23 -62.5 -42t-70.5 -19q-54 0 -84.5 34t-30.5 85 q0 36 12 73t32.5 71.5t48.5 65t60 53.5t66.5 36t68.5 13q41 0 67 -17.5t36 -59.5l33 60h67l-141 -275q-9 -18 -15.5 -32.5t-6.5 -25.5q0 -16 17 -16q37 0 72 27t62.5 67.5t44 87.5t16.5 87q0 47 -17.5 83t-48 61t-72 37.5t-90.5 12.5q-73 0 -140.5 -31t-120 -83.5 t-84 -121.5t-31.5 -146q0 -52 17.5 -94.5t49 -73t75.5 -47.5t98 -17q75 0 146 27.5t125 80.5h76z" />
<glyph unicode="A" horiz-adv-x="611" d="M419 666h-11l-187 -372h219zM463 0l-18 226h-259l-118 -226h-84l382 722h119l62 -722h-84z" />
<glyph unicode="B" horiz-adv-x="667" d="M68 0l160 722h266q82 0 124.5 -40t42.5 -100q0 -72 -43 -125.5t-120 -78.5v-2q48 -13 76 -50t28 -89q0 -48 -18 -91t-56 -75.5t-96.5 -51.5t-139.5 -19h-224zM313 68q47 0 85.5 9.5t66 29.5t42.5 51t15 73q0 54 -42.5 83.5t-117.5 29.5h-138l-61 -276h150zM379 412 q55 0 93.5 15t62 38.5t34 52t10.5 54.5q0 82 -114 82h-172l-54 -242h140z" />
<glyph unicode="C" horiz-adv-x="611" d="M580 216q-23 -50 -52.5 -91.5t-67 -71.5t-83.5 -46.5t-101 -16.5q-97 0 -154 57t-57 175q0 31 4 65.5t13 73.5q19 88 53 157t80 116.5t103 72.5t122 25q101 0 148.5 -55t49.5 -155l-79 -22q-2 38 -9.5 68.5t-24 51.5t-43.5 32.5t-67 11.5q-39 0 -77 -18t-71.5 -55.5 t-60.5 -94.5t-44 -135q-8 -35 -11.5 -66.5t-3.5 -58.5q0 -92 40 -135t110 -43q42 0 74.5 14.5t58.5 38.5t45.5 55t35.5 64z" />
<glyph unicode="D" horiz-adv-x="667" d="M263 68q81 0 142.5 34t103.5 90t63 128t21 148q0 99 -53 142.5t-143 43.5h-112l-130 -586h108zM60 0l160 722h194q121 0 190.5 -62t69.5 -184q0 -86 -27.5 -171t-80 -153t-129.5 -110t-176 -42h-201z" />
<glyph unicode="E" horiz-adv-x="611" d="M68 0l160 722h433l-15 -68h-353l-54 -242h251l-15 -68h-251l-61 -276h373l-15 -68h-453z" />
<glyph unicode="F" horiz-adv-x="556" d="M60 0l160 722h428l-15 -68h-348l-54 -242h258l-15 -68h-258l-76 -344h-80z" />
<glyph unicode="G" horiz-adv-x="667" d="M481 0l15 66h-2q-37 -38 -91.5 -57t-114.5 -19q-49 0 -89 14t-68.5 43.5t-44 73.5t-15.5 104q0 30 4.5 64t12.5 72q21 95 57.5 165t84 115.5t104 68t118.5 22.5q46 0 83.5 -11.5t65 -37t44 -65.5t20.5 -98l-79 -15q-8 86 -45 122.5t-100 36.5q-40 0 -80.5 -15t-77 -50 t-66.5 -93t-49 -145q-8 -36 -11.5 -67t-3.5 -57q0 -50 12 -84.5t33 -55.5t49 -30t60 -9q45 0 80 12.5t61 34.5t42.5 51t24.5 62l14 61h-163l15 68h243l-77 -347h-66z" />
<glyph unicode="H" horiz-adv-x="722" d="M494 0l76 344h-346l-76 -344h-80l160 722h80l-69 -310h346l69 310h80l-160 -722h-80z" />
<glyph unicode="I" horiz-adv-x="333" d="M86 0l160 722h80l-160 -722h-80z" />
<glyph unicode="J" horiz-adv-x="444" d="M384 722h80l-119 -536q-23 -103 -75.5 -149.5t-133.5 -46.5q-32 0 -55 7.5t-41 20.5t-31 30t-23 35l69 39q11 -28 35.5 -46t58.5 -18q37 0 67.5 22.5t44.5 84.5z" />
<glyph unicode="K" horiz-adv-x="667" d="M488 0l-130 384l-148 -142l-54 -242h-80l160 722h80l-83 -375h2l382 375h95l-284 -272l151 -450h-91z" />
<glyph unicode="L" horiz-adv-x="556" d="M68 0l160 722h80l-145 -654h342l-15 -68h-422z" />
<glyph unicode="M" horiz-adv-x="833" d="M613 0l146 660h-3l-348 -660h-62l-57 660h-3l-146 -660h-72l160 722h124l55 -584h2l310 584h126l-160 -722h-72z" />
<glyph unicode="N" horiz-adv-x="722" d="M508 0l-223 644h-2l-143 -644h-72l160 722h115l192 -556h4l123 556h72l-160 -722h-66z" />
<glyph unicode="O" horiz-adv-x="667" d="M306 58q96 0 165.5 74t103.5 229q8 36 12 68t4 59q0 90 -39 133t-112 43q-96 0 -165.5 -74t-103.5 -229q-16 -71 -16 -128q0 -89 39 -132t112 -43zM291 -10q-106 0 -161.5 59.5t-55.5 174.5q0 31 4.5 65t12.5 72q40 182 135 276.5t229 94.5q106 0 161 -59.5t55 -174.5 q0 -63 -16 -137q-40 -182 -135 -276.5t-229 -94.5z" />
<glyph unicode="P" horiz-adv-x="611" d="M362 390q109 0 160 43.5t51 125.5q0 95 -134 95h-154l-59 -264h136zM60 0l160 722h252q48 0 82.5 -11t57 -30.5t33 -46.5t10.5 -59q0 -56 -20.5 -102.5t-60.5 -80t-99 -52t-136 -18.5h-128l-71 -322h-80z" />
<glyph unicode="Q" horiz-adv-x="667" d="M597 -58q-34 0 -56.5 6t-37.5 18t-25.5 29.5t-19.5 41.5q-74 -47 -167 -47q-106 0 -161.5 59.5t-55.5 174.5q0 31 4.5 65t12.5 72q40 182 135 276.5t229 94.5q106 0 161 -59.5t55 -174.5q0 -61 -12.5 -122t-33 -115.5t-48 -99.5t-57.5 -75q11 -35 33.5 -50.5t60.5 -15.5z M374 234q48 -7 75 -23t43 -51q19 25 36.5 63.5t31.5 83t22.5 92t8.5 89.5q0 90 -39 133t-112 43q-96 0 -165.5 -74t-103.5 -229q-16 -71 -16 -128q0 -89 39 -132t112 -43q70 0 126 40q-12 27 -28.5 40.5t-46.5 18.5z" />
<glyph unicode="R" horiz-adv-x="667" d="M373 396q44 0 81 10t63.5 30.5t41.5 52t15 75.5q0 51 -39 70.5t-106 19.5h-144l-57 -258h145zM455 0l-73 328h-169l-73 -328h-80l160 722h232q101 0 153 -37t52 -106q0 -48 -16 -86.5t-43 -68t-61.5 -49.5t-71.5 -31l77 -344h-87z" />
<glyph unicode="S" horiz-adv-x="611" d="M527 538q-1 26 -10 49t-26 40t-43 27t-61 10q-32 0 -61 -9t-51.5 -25.5t-36 -41t-13.5 -55.5q0 -26 16 -44.5t42 -33.5t58.5 -28t65.5 -27q30 -13 57.5 -28t48.5 -35t34 -45t13 -57q0 -43 -16.5 -86.5t-51 -79t-88 -57.5t-128.5 -22q-59 0 -99.5 17.5t-66.5 44.5 t-40 60.5t-21 65.5l79 26q4 -29 14.5 -55t29 -46.5t46 -32.5t67.5 -12q42 0 77 12t60.5 33t39.5 49t14 60q0 25 -12.5 44.5t-33 34.5t-47 27.5t-55.5 24.5q-33 14 -66.5 29.5t-60 35.5t-43 47t-16.5 65q0 45 20 84t55 67.5t82 44.5t101 16q84 0 139 -44.5t64 -133.5z" />
<glyph unicode="T" horiz-adv-x="556" d="M198 0l145 654h-216l15 68h512l-15 -68h-216l-145 -654h-80z" />
<glyph unicode="U" horiz-adv-x="722" d="M654 722h80l-112 -504q-12 -54 -40 -96.5t-67.5 -71.5t-89.5 -44.5t-106 -15.5q-97 0 -153.5 44.5t-56.5 126.5q0 29 7 57l112 504h80l-113 -510q-4 -17 -4 -36q0 -51 35.5 -84.5t107.5 -33.5q42 0 77 12t61.5 33t44 49t24.5 60z" />
<glyph unicode="V" horiz-adv-x="556" d="M201 0l-63 722h80l47 -592h2l310 592h81l-384 -722h-73z" />
<glyph unicode="W" horiz-adv-x="833" d="M523 0l-19 584h-2l-269 -584h-71l-14 722h76l6 -576h2l268 576h71l16 -576h2l260 576h76l-331 -722h-71z" />
<glyph unicode="X" horiz-adv-x="556" d="M410 0l-108 298l-236 -298h-92l300 377l-126 345h92l96 -265l211 265h92l-273 -345l136 -377h-92z" />
<glyph unicode="Y" horiz-adv-x="556" d="M198 0l67 304l-129 418h88l101 -331l247 331h88l-315 -418l-67 -304h-80z" />
<glyph unicode="Z" horiz-adv-x="556" d="M5 0l13 58l494 596h-329l15 68h429l-11 -52l-502 -602h372l-15 -68h-466z" />
<glyph unicode="[" horiz-adv-x="333" d="M20 -74l176 796h204l-9 -42h-132l-158 -712h132l-9 -42h-204z" />
<glyph unicode="\" horiz-adv-x="278" d="M184 -10l-70 742h61l69 -742h-60z" />
<glyph unicode="]" horiz-adv-x="333" d="M-3 -74l9 42h132l158 712h-132l9 42h204l-176 -796h-204z" />
<glyph unicode="^" horiz-adv-x="600" d="M512 279l-108 375l-271 -375h-64l322 443h58l126 -443h-63z" />
<glyph unicode="_" horiz-adv-x="500" d="M-68 -125l11 50h500l-11 -50h-500z" />
<glyph unicode="`" horiz-adv-x="278" d="M226 580l-100 142h109l58 -142h-67z" />
<glyph unicode="a" horiz-adv-x="500" d="M330 0l8 72q-34 -30 -82.5 -56t-107.5 -26q-52 0 -86.5 26t-34.5 80q0 51 21.5 90.5t66.5 69t115 51t166 38.5l7 28q3 15 3 27q0 37 -24.5 52.5t-64.5 15.5q-30 0 -54.5 -7.5t-43 -19.5t-32 -26.5t-21.5 -27.5l-56 33q35 45 90 77.5t129 32.5q29 0 56 -6.5t48 -20.5 t33.5 -36.5t12.5 -53.5q0 -20 -4 -39l-58 -262q-4 -17 -8 -44t-5 -68h-74zM382 281q-135 -23 -208 -63.5t-73 -100.5q0 -30 22 -47.5t49 -17.5q19 0 42 6.5t47 18.5t47 27.5t43 33.5z" />
<glyph unicode="b" horiz-adv-x="556" d="M44 0q11 29 16.5 57t12.5 57l135 608h72l-56 -252l5 2q35 25 73.5 41.5t75.5 16.5q28 0 56.5 -9.5t51.5 -31.5t37.5 -56.5t14.5 -85.5q0 -58 -17.5 -121t-52.5 -115.5t-87 -86.5t-121 -34q-47 0 -81 18t-60 47l-25 -55h-50zM147 122q30 -38 55.5 -54t60.5 -16 q37 0 73.5 19.5t65.5 57t46.5 92t17.5 124.5q0 67 -30.5 95t-80.5 28q-32 0 -71.5 -20t-75.5 -52z" />
<glyph unicode="c" horiz-adv-x="500" d="M441 122q-27 -33 -51.5 -58t-51.5 -41.5t-57.5 -24.5t-69.5 -8q-78 0 -121 46.5t-43 131.5q0 21 2.5 44t8.5 48q15 63 41 113t61 85t78 53.5t92 18.5q40 0 68 -10.5t46 -29.5t28.5 -45t16.5 -56l-72 -24q-5 48 -29 75.5t-71 27.5q-67 0 -116 -54t-71 -154 q-5 -23 -8 -43.5t-3 -39.5q0 -60 27.5 -92.5t78.5 -32.5q25 0 45.5 4.5t40 15.5t38.5 29.5t40 46.5z" />
<glyph unicode="d" horiz-adv-x="556" d="M366 0l1 51q-23 -25 -63 -43t-87 -18q-29 0 -58 9t-52.5 29.5t-38.5 54.5t-15 85q0 20 2.5 43t8.5 49q16 76 48 127.5t69.5 83t77.5 45.5t73 14q37 0 68.5 -16.5t56.5 -41.5l3 -2l56 252h72l-135 -608q-7 -29 -13 -57t-8 -57h-66zM444 396q-23 32 -53 52t-62 20t-61 -11 t-54.5 -36t-45.5 -65.5t-33 -99.5q-10 -41 -10 -77q0 -63 29 -95t83 -32q17 0 33.5 4t33.5 12.5t36.5 21.5t42.5 32z" />
<glyph unicode="e" horiz-adv-x="500" d="M451 111q-18 -22 -39 -43.5t-48 -39t-61.5 -28t-78.5 -10.5q-36 0 -68 10.5t-56 33t-38 57t-14 82.5q0 41 10 87q14 63 40 113t61.5 85t78.5 53.5t91 18.5q33 0 61.5 -9t49.5 -28.5t32.5 -49t11.5 -70.5q0 -36 -9 -79l-10 -48h-338q-4 -15 -5.5 -29.5t-1.5 -27.5 q0 -63 32 -100t86 -37q48 0 89.5 23.5t73.5 64.5zM406 308q3 15 5 28.5t2 26.5q0 49 -24 77t-71 28q-66 0 -110.5 -44t-65.5 -116h264z" />
<glyph unicode="f" horiz-adv-x="333" d="M75 0l102 458h-88l13 62h88l13 59q10 46 25 75.5t34.5 47t44.5 24t57 6.5q16 0 32 -1.5t31 -3.5l-14 -64q-13 2 -25.5 4.5t-24.5 2.5q-37 0 -55.5 -15t-28.5 -59l-17 -76h113l-13 -62h-113l-102 -458h-72z" />
<glyph unicode="g" horiz-adv-x="500" d="M544 468q-23 0 -45.5 -3.5t-37.5 -10.5q6 -10 11 -27.5t5 -40.5q0 -45 -20.5 -85t-53.5 -70t-75 -47.5t-85 -17.5q-32 0 -50.5 4t-38.5 10q-25 -7 -39 -22t-14 -35q0 -29 36 -29q81 0 137.5 -6.5t92 -20t51 -35t15.5 -50.5q0 -34 -16 -65.5t-49.5 -55.5t-85 -38.5 t-121.5 -14.5q-98 0 -148.5 24t-50.5 75q0 26 8 45.5t23 34.5t36 28t48 25q-24 8 -37.5 24.5t-13.5 36.5q0 19 8 34t20.5 27t29 22t34.5 19q-23 20 -33.5 46t-10.5 56q0 50 19 91.5t51 71t74 46t88 16.5q42 0 76 -9t56 -27q26 17 59 30t63 16zM362 -42q0 32 -38 48t-126 16 q-49 0 -81 -11t-51 -26.5t-26.5 -33.5t-7.5 -31q0 -12 6.5 -21t24 -15.5t47.5 -10t77 -3.5q18 0 47.5 3t58 12.5t49 27t20.5 45.5zM408 380q0 42 -26.5 65t-81.5 23q-33 0 -61.5 -11.5t-49.5 -31.5t-33 -47t-12 -57q0 -42 29 -67.5t82 -25.5q31 0 58.5 11.5t48.5 31.5 t33.5 48t12.5 61z" />
<glyph unicode="h" horiz-adv-x="556" d="M355 0l83 376q4 17 4 34q0 32 -18 45t-50 13q-20 0 -43 -7.5t-45.5 -19t-43 -25.5t-35.5 -27l-86 -389h-72l160 722h72l-60 -272h2q38 35 82 57.5t89 22.5q24 0 46.5 -6t39 -18.5t26.5 -33t10 -49.5q0 -10 -1 -21.5t-4 -23.5l-84 -378h-72z" />
<glyph unicode="i" horiz-adv-x="278" d="M63 0l115 520h72l-115 -520h-72zM206 646l19 86h72l-19 -86h-72z" />
<glyph unicode="j" horiz-adv-x="278" d="M192 520h72l-133 -603q-11 -48 -46.5 -78.5t-85.5 -30.5q-18 0 -33 3t-24 9l13 59q8 -4 16.5 -6.5t19.5 -2.5q31 0 46.5 11.5t22.5 40.5zM220 646l19 86h72l-19 -86h-72z" />
<glyph unicode="k" horiz-adv-x="500" d="M350 0l-79 266l-120 -110l-35 -156h-72l160 722h72l-103 -465h2l268 263h87l-195 -192l100 -328h-85z" />
<glyph unicode="l" horiz-adv-x="278" d="M63 0l160 722h72l-160 -722h-72z" />
<glyph unicode="m" horiz-adv-x="833" d="M638 0l82 372q2 10 3 18.5t1 16.5q0 33 -17.5 47t-45.5 14q-24 0 -46 -7t-42 -18.5t-38.5 -26t-36.5 -28.5l-86 -388h-72l82 372q2 10 3 18.5t1 16.5q0 33 -17.5 47t-45.5 14q-24 0 -46 -7t-42 -18.5t-38.5 -26t-36.5 -28.5l-86 -388h-72l115 520h72l-15 -69l5 4 q42 37 85.5 56t81.5 19q51 0 80 -23t35 -59q43 37 90 59.5t93 22.5q22 0 42.5 -4.5t36.5 -16t26 -31.5t10 -51q0 -26 -7 -55l-82 -372h-72z" />
<glyph unicode="n" horiz-adv-x="556" d="M355 0l83 376q4 17 4 34q0 32 -18 45t-50 13q-20 0 -43 -7.5t-45.5 -19t-43 -25.5t-35.5 -27l-86 -389h-72l115 520h72l-15 -70h2q38 35 82 57.5t89 22.5q24 0 46.5 -6t39 -18.5t26.5 -33t10 -49.5q0 -10 -1 -21.5t-4 -23.5l-84 -378h-72z" />
<glyph unicode="o" horiz-adv-x="500" d="M222 52q35 0 70 19.5t63 56.5t45.5 90.5t17.5 122.5q0 62 -26.5 94.5t-77.5 32.5t-88 -28.5t-61 -72t-36 -94t-12 -94.5q0 -63 27 -95t78 -32zM491 343q0 -57 -17.5 -119.5t-52 -114t-86.5 -85.5t-122 -34q-42 0 -73.5 13.5t-53 37.5t-32 57t-10.5 72q0 70 20.5 135 t57 115t87.5 80t113 30q42 0 74 -14.5t53 -39.5t31.5 -59t10.5 -74z" />
<glyph unicode="p" horiz-adv-x="556" d="M5 -192l158 712h72l-13 -61h2q13 15 31 27.5t38.5 22.5t41 15.5t39.5 5.5q29 0 58.5 -9t53 -29.5t38.5 -55t15 -85.5q0 -38 -11 -91q-17 -76 -48.5 -127.5t-69.5 -83t-78 -45.5t-73 -14q-37 0 -68.5 16.5t-55.5 41.5l-4 2l-54 -242h-72zM147 124q23 -32 53.5 -52 t62.5 -20q31 0 60.5 11t55 36t45.5 65.5t33 99.5q9 42 9 76q0 63 -28.5 95.5t-82.5 32.5q-35 0 -67.5 -16t-79.5 -54z" />
<glyph unicode="q" horiz-adv-x="556" d="M313 -192l54 242l-4 -2q-36 -25 -74.5 -41.5t-75.5 -16.5q-28 0 -56.5 9.5t-51.5 31t-37.5 56t-14.5 84.5q0 58 18.5 121t54 116t88.5 87.5t122 34.5q47 0 77.5 -18t46.5 -47l25 55h58l-158 -712h-72zM444 398q-30 38 -55 54t-60 16q-38 0 -74.5 -20t-65 -57.5t-46 -92 t-17.5 -123.5q0 -34 8 -57.5t22.5 -38t35 -21t45.5 -6.5q32 0 71 20t75 52z" />
<glyph unicode="r" horiz-adv-x="333" d="M30 0l115 520h72l-23 -103h2q21 27 42 47.5t44 34.5t49.5 21.5t58.5 7.5l-16 -72q-68 -2 -116 -44.5t-92 -123.5l-64 -288h-72z" />
<glyph unicode="s" horiz-adv-x="444" d="M388 395q-23 37 -49.5 55t-68.5 18q-24 0 -44.5 -6.5t-35.5 -18.5t-24 -28.5t-9 -35.5q0 -15 8.5 -26t22.5 -20t32.5 -16t39.5 -14q26 -9 52.5 -19.5t48 -25.5t35 -36.5t13.5 -52.5q0 -46 -20 -80t-51.5 -56t-70.5 -32.5t-77 -10.5q-61 0 -110.5 25.5t-75.5 73.5l66 43 q17 -37 50 -58.5t82 -21.5q32 0 57 9t42 23.5t25.5 33t8.5 36.5t-9.5 31t-25.5 22.5t-37 17t-43 15.5q-25 9 -50 18.5t-44.5 23.5t-32 33t-12.5 47q0 42 17.5 73.5t46 52.5t65.5 31.5t76 10.5q26 0 51 -6.5t46.5 -18.5t38 -29t25.5 -37z" />
<glyph unicode="t" horiz-adv-x="333" d="M258 -2q-11 -3 -32.5 -5.5t-53.5 -2.5q-49 0 -72.5 12t-23.5 44q0 15 4 30l85 382h-85l13 62h85l38 171h72l-38 -171h120l-13 -62h-120l-82 -370q-1 -3 -1 -10q0 -26 52 -26q18 0 34 1.5t31 3.5z" />
<glyph unicode="u" horiz-adv-x="556" d="M355 0l16 70h-2q-39 -35 -83 -57.5t-89 -22.5q-25 0 -47 5.5t-38.5 18.5t-26.5 33.5t-10 49.5q0 11 1 22t4 23l84 378h72l-83 -376q-4 -17 -4 -33q0 -33 18.5 -46t50.5 -13q20 0 43 7.5t45 19t42.5 25.5t35.5 27l86 389h72l-115 -520h-72z" />
<glyph unicode="v" horiz-adv-x="444" d="M136 0l-45 520h73l37 -430h2l227 430h73l-271 -520h-96z" />
<glyph unicode="w" horiz-adv-x="667" d="M399 0l-15 402h-2l-192 -402h-73l-26 520h73l17 -400h2l190 400h73l15 -402h2l190 402h73l-254 -520h-73z" />
<glyph unicode="x" horiz-adv-x="444" d="M309 0l-83 213l-173 -213h-81l225 273l-98 247h81l73 -185l150 185h81l-200 -247l108 -273h-83z" />
<glyph unicode="y" horiz-adv-x="444" d="M87 520h76l52 -397h2l210 397h76l-308 -566q-24 -44 -50 -72t-52.5 -44.5t-53.5 -23t-52 -6.5q-18 0 -29 2t-21 4l13 59q8 -1 17 -2t21 -1q16 0 37 3.5t42.5 16t43.5 37t41 67.5z" />
<glyph unicode="z" horiz-adv-x="444" d="M-10 0l12 52l374 406h-256l13 62h354l-11 -52l-374 -406h286l-14 -62h-384z" />
<glyph unicode="{" horiz-adv-x="333" d="M144 -84q-38 0 -55.5 18.5t-17.5 52.5q0 16 5 39l44 199q3 15 3 29q0 49 -48 49l9 42q31 0 51.5 20t28.5 58l44 199q11 51 40 80.5t77 29.5h62l-9 -42h-38q-22 0 -36 -13t-21 -43l-51 -230q-8 -38 -32.5 -56t-59.5 -23v-2q27 -5 43 -18t16 -39q0 -10 -3 -22l-51 -230 q-3 -12 -3 -22q0 -18 9.5 -26t26.5 -8h38l-10 -42h-62z" />
<glyph unicode="|" horiz-adv-x="439" d="M231 -282v1129h58v-1129h-58z" />
<glyph unicode="}" horiz-adv-x="333" d="M9 -84l10 42h38q21 0 35.5 13t21.5 43l51 230q8 38 32.5 56t59.5 23v2q-27 5 -43 17.5t-16 38.5q0 9 3 23l51 230q2 6 2 11v10q0 35 -35 35h-38l9 42h62q38 0 56 -19t18 -53q0 -15 -5 -38l-44 -199q-4 -15 -4 -30q0 -48 48 -48l-9 -42q-31 0 -51 -20t-28 -58l-44 -199 q-11 -51 -40.5 -80.5t-77.5 -29.5h-62z" />
<glyph unicode="~" horiz-adv-x="600" d="M557 285q-16 -17 -32.5 -33t-34.5 -28.5t-38 -20t-43 -7.5q-30 0 -52.5 10.5t-44 23.5t-46 23.5t-58.5 10.5q-33 0 -57.5 -22.5t-43.5 -50.5l-29 45q13 17 28.5 33.5t33.5 29t39.5 20t46.5 7.5q28 0 55.5 -10.5t53 -23.5t48 -23.5t41.5 -10.5q30 0 55.5 22.5t48.5 48.5z " />
<glyph horiz-adv-x="500" />
<glyph unicode="&#xa1;" horiz-adv-x="333" d="M29 -202l131 494h64l-89 -494h-106zM169 410l24 110h98l-24 -110h-98z" />
<glyph unicode="&#xa2;" horiz-adv-x="611" d="M408 460q-18 8 -41 8q-67 0 -116 -54t-71 -154q-26 -116 12 -168zM491 122q-27 -33 -51.5 -58t-51.5 -41.5t-57.5 -24.5t-69.5 -8q-18 0 -34.5 2.5t-30.5 8.5l-66 -112h-57l80 136q-40 33 -52 92.5t7 142.5q14 63 40 113t61 85t78.5 53.5t92.5 18.5q38 0 64 -9l51 89h57 l-66 -113q23 -19 35 -46.5t18 -61.5l-72 -24q-3 40 -21 64l-215 -369q10 -5 21 -6.5t23 -1.5q25 0 45.5 4.5t40 15.5t38.5 29.5t40 46.5z" />
<glyph unicode="&#xa3;" horiz-adv-x="611" d="M573 168q-35 -91 -95.5 -134.5t-143.5 -43.5q-38 0 -67.5 7t-54 18.5t-46.5 25t-44 27.5q-26 -29 -59 -50.5t-78 -27.5l17 78q22 4 45 17.5t44 35.5t37.5 51.5t24.5 64.5q5 26 8.5 48.5t4.5 42.5h-107l13 62h98q2 29 4.5 57t10.5 61q11 51 34.5 92t58 70.5t79 45.5 t97.5 16q94 0 138.5 -48.5t46.5 -137.5l-71 -12q-2 21 -7 45t-18.5 44t-36.5 33.5t-61 13.5q-44 0 -75 -13t-53 -34t-34.5 -47t-18.5 -52q-9 -42 -13 -75t-7 -59h152l-13 -62h-144q0 -16 -2 -32t-7 -36q-7 -30 -20 -65t-38 -70q22 -12 42.5 -25t39.5 -23.5t37.5 -17.5 t38.5 -7q71 0 113.5 33.5t68.5 94.5z" />
<glyph unicode="&#xa4;" horiz-adv-x="611" d="M531 361q10 43 3 78.5t-26.5 60t-50.5 38t-70 13.5t-76 -13.5t-67.5 -38t-52.5 -60t-32 -78.5q-10 -44 -3 -79.5t26.5 -60t50.5 -37.5t70 -13t76 13t67.5 37.5t52.5 60t32 79.5zM496 110l-43 56q-36 -25 -77.5 -39t-85.5 -14t-79.5 14t-59.5 39l-69 -56l-32 42l67 55 q-19 32 -24.5 71t4.5 83t33 83t55 71l-43 55l52 42l43 -56q36 25 77.5 39t85.5 14t79.5 -14t59.5 -39l69 56l32 -42l-67 -55q19 -32 24.5 -71t-4.5 -83t-33 -83t-55 -71l43 -55z" />
<glyph unicode="&#xa5;" horiz-adv-x="611" d="M231 0l52 234h-177l14 62h177l1 8l-24 80h-135l14 62h102l-86 276h72l107 -347l261 347h72l-208 -276h102l-14 -62h-134l-61 -80l-1 -8h177l-14 -62h-177l-52 -234h-68z" />
<glyph unicode="&#xa6;" horiz-adv-x="438" d="M231 367v395h57v-395h-57zM231 -196v393h57v-393h-57z" />
<glyph unicode="&#xa7;" horiz-adv-x="500" d="M116 36q11 -26 31 -46t56 -20q30 0 53.5 17.5t30.5 46.5q5 22 -8 51t-35 61t-48 66t-47.5 67t-34.5 63.5t-8 55.5q11 47 47 75t97 31q-9 16 -17 29t-13 25.5t-6.5 27t3.5 34.5q5 22 19 42.5t34 36t45.5 24.5t54.5 9q45 0 73.5 -19t54.5 -64l-54 -27q-4 6 -10 15.5 t-15.5 18.5t-23.5 15.5t-33 6.5q-30 0 -51 -17.5t-26 -40.5q-2 -11 -1 -21t10 -25t27.5 -40t50.5 -66t51.5 -69t29.5 -50t11.5 -40.5t-3.5 -40.5q-11 -51 -49 -76.5t-84 -31.5q19 -29 27.5 -56.5t-0.5 -67.5q-5 -22 -18 -43.5t-34 -38.5t-49.5 -27.5t-62.5 -10.5 q-51 0 -85.5 24.5t-47.5 63.5zM393 264q5 20 -7 47.5t-50 76.5q-18 23 -30.5 36.5t-22 20.5t-18 9t-18.5 2q-25 0 -46 -16t-26 -39q-3 -13 -0.5 -25t10 -25.5t19 -29.5t27.5 -38t28 -36.5t22.5 -23t20 -12t20.5 -3.5q23 0 44 15t27 41z" />
<glyph unicode="&#xa8;" horiz-adv-x="278" d="M265 590l21 94h88l-21 -94h-88zM107 590l21 94h88l-21 -94h-88z" />
<glyph unicode="&#xa9;" horiz-adv-x="800" d="M622 292q-32 -73 -91 -115.5t-128 -42.5q-50 0 -86.5 17.5t-58 48.5t-28 73t4.5 90q11 49 35 90.5t58.5 71.5t78.5 47t94 17q71 0 114 -39t38 -114h-67q1 43 -25 68t-73 25q-35 0 -64.5 -12.5t-52.5 -34.5t-39 -52t-24 -66q-8 -35 -5 -65.5t17 -54t38 -37t58 -13.5 q48 0 85 26.5t53 71.5h68zM816 362q-18 -81 -63 -149t-107.5 -117.5t-136.5 -77.5t-150 -28q-77 0 -139 28t-102.5 77.5t-56 117.5t2.5 149q18 80 63 147.5t107.5 117t137 77.5t151.5 28q76 0 137.5 -28t102 -77.5t56 -117t-2.5 -147.5zM744 362q15 66 4 123t-42.5 98.5 t-81.5 65t-114 23.5q-65 0 -126 -23.5t-111 -65t-86 -98.5t-51 -123q-15 -68 -4 -125t42.5 -98.5t82 -65t115.5 -23.5q64 0 124.5 23.5t110.5 65t86 98.5t51 125z" />
<glyph unicode="&#xaa;" horiz-adv-x="300" d="M277 414l2 35q-20 -12 -49.5 -26.5t-67.5 -14.5q-40 0 -64 21.5t-14 64.5q6 25 21.5 45.5t43.5 36t69 28t97 21.5l2 13q6 24 -9 36t-44 12q-39 0 -62 -14t-34 -30l-35 24q23 27 58 46.5t83 19.5q21 0 41.5 -5t34.5 -16t20.5 -29t0.5 -44l-34 -157q-6 -26 -7.5 -40.5 t0.5 -26.5h-53zM304 579q-75 -14 -117 -34t-50 -52q-3 -16 7 -27.5t33 -11.5q27 0 58 13.5t51 29.5z" />
<glyph unicode="&#xab;" horiz-adv-x="500" d="M195 102l-97 158l165 158h70l-164 -158l94 -158h-68zM335 102l-97 158l165 158h70l-164 -158l94 -158h-68z" />
<glyph unicode="&#xac;" horiz-adv-x="600" d="M486 127l45 204h-458l14 62h520l-59 -266h-62z" />
<glyph unicode="&#xad;" horiz-adv-x="333" d="M51 229l14 62h252l-14 -62h-252z" />
<glyph unicode="&#xae;" horiz-adv-x="800" d="M503 147l-73 186h-74l-41 -186h-66l94 428h164q77 0 108 -29.5t17 -92.5q-13 -58 -50.5 -85t-87.5 -33l81 -188h-72zM446 387q60 0 86.5 17.5t34.5 52.5q7 31 -8.5 47.5t-71.5 16.5h-89l-30 -134h78zM816 362q-18 -81 -63 -149t-107.5 -117.5t-136.5 -77.5t-150 -28 q-77 0 -139 28t-102.5 77.5t-56 117.5t2.5 149q18 80 63 147.5t107.5 117t137 77.5t151.5 28q76 0 137.5 -28t102 -77.5t56 -117t-2.5 -147.5zM744 362q15 66 4 123t-42.5 98.5t-81.5 65t-114 23.5q-65 0 -126 -23.5t-111 -65t-86 -98.5t-51 -123q-15 -68 -4 -125 t42.5 -98.5t82 -65t115.5 -23.5q64 0 124.5 23.5t110.5 65t86 98.5t51 125z" />
<glyph unicode="&#xaf;" horiz-adv-x="278" d="M79 612l13 60h312l-13 -60h-312z" />
<glyph unicode="&#xb0;" horiz-adv-x="400" d="M434 588q-6 -30 -23 -56.5t-41 -46t-53 -30.5t-59 -11t-53.5 11t-38.5 30.5t-20.5 46t0.5 56.5q7 30 24 56t41 45.5t52.5 31t58.5 11.5t54 -11.5t39 -31t20.5 -45.5t-1.5 -56zM386 588q10 43 -11.5 71.5t-61.5 28.5q-20 0 -39 -7.5t-35.5 -21t-28 -32t-16.5 -39.5 q-9 -43 12.5 -71.5t61.5 -28.5q20 0 39 7.5t35 21t27.5 32t16.5 39.5z" />
<glyph unicode="&#xb1;" horiz-adv-x="600" d="M353 279l-40 -179h-62l40 179h-229l14 62h229l39 179h62l-39 -179h229l-14 -62h-229zM0 0l14 62h520l-14 -62h-520z" />
<glyph unicode="&#xb2;" horiz-adv-x="366" d="M53 292l12 54q28 37 60.5 63.5t65.5 47.5t64 37.5t56 33.5t42.5 36.5t23.5 45.5q8 32 -10.5 52t-62.5 20q-26 0 -47.5 -7.5t-39 -20t-30 -28.5t-20.5 -32l-43 16q12 24 30.5 46t43 39t54.5 27t66 10q63 0 95 -31t20 -85q-8 -35 -28.5 -61.5t-48.5 -47.5t-60.5 -39.5 l-65 -37t-62 -40t-50.5 -48.5h256l-11 -50h-310z" />
<glyph unicode="&#xb3;" horiz-adv-x="366" d="M334 527q21 -7 33 -20t18 -29t6.5 -33.5t-2.5 -33.5q-12 -56 -62.5 -90.5t-124.5 -34.5q-34 0 -59 8.5t-43 21t-29 27.5t-17 27l47 32q19 -36 47 -51t65 -15q51 0 82.5 20t39.5 54q10 45 -13.5 67t-94.5 22h-45l11 50h41q57 0 90 17t42 58q5 23 -13.5 40.5t-55.5 17.5 q-21 0 -37.5 -3t-30 -9.5t-26 -16t-26.5 -22.5l-36 28q31 31 70.5 52t96.5 21q63 0 93.5 -28t18.5 -80q-8 -39 -32.5 -62.5t-53.5 -32.5v-2z" />
<glyph unicode="&#xb4;" horiz-adv-x="278" d="M230 580h-67l120 142h109z" />
<glyph unicode="&#xb5;" horiz-adv-x="556" d="M355 0l16 70h-2q-39 -35 -83 -57.5t-89 -22.5q-43 0 -75 16l-44 -198h-72l158 712h72l-83 -376q-11 -52 7.5 -72t57.5 -20q20 0 43 7.5t45 19t42.5 25.5t35.5 27l86 389h72l-115 -520h-72z" />
<glyph unicode="&#xb6;" horiz-adv-x="500" d="M322 -84l168 756h-102l-168 -756h-60l92 415q-45 0 -80 15t-57 41.5t-30 61.5t1 74q22 99 92.5 149t176.5 50h277l-11 -50h-71l-168 -756h-60z" />
<glyph unicode="&#xb7;" horiz-adv-x="305" d="M231 259q-5 -26 -27 -43.5t-48 -17.5q-27 0 -40.5 17.5t-8.5 43.5q6 26 27.5 44.5t48.5 18.5q26 0 40 -18.5t8 -44.5z" />
<glyph unicode="&#xb8;" horiz-adv-x="278" d="M-29 -159q12 -9 28.5 -14t33.5 -5q29 0 47.5 13.5t18.5 38.5q0 12 -9 20.5t-25 8.5q-11 0 -23 -1.5t-24 -6.5l-13 19l82 86h48l-60 -58l2 -2q15 5 31 5q35 0 51.5 -17.5t16.5 -43.5q0 -52 -40 -80t-103 -28q-31 0 -51.5 6.5t-37.5 14.5z" />
<glyph unicode="&#xb9;" horiz-adv-x="366" d="M110 292l11 50h76l75 340l-88 -13l8 33l52 14t43 16h54l-86 -390h79l-11 -50h-213z" />
<glyph unicode="&#xba;" horiz-adv-x="300" d="M211 456q40 0 67 30t38 84q12 54 -1 84t-53 30q-38 0 -66 -30t-39 -82q-13 -57 0.5 -86.5t53.5 -29.5zM374 570q-17 -76 -63.5 -119t-110.5 -43q-63 0 -91 43t-11 119t64 119t110 43q64 0 91.5 -43t10.5 -119z" />
<glyph unicode="&#xbb;" horiz-adv-x="500" d="M271 102h-68l164 158l-94 158h70l95 -158zM131 102h-68l164 158l-94 158h70l95 -158z" />
<glyph unicode="&#xbc;" horiz-adv-x="916" d="M770 102l-23 -102h-54l23 102h-208l10 45l248 287h77l-62 -282h81l-11 -50h-81zM776 376h-2l-194 -224h147zM122 292l11 50h76l75 340l-88 -13l8 33l52 14t43 16h54l-86 -390h79l-11 -50h-213zM177 -10l603 742h62l-606 -742h-59z" />
<glyph unicode="&#xbd;" horiz-adv-x="916" d="M122 292l11 50h76l75 340l-88 -13l8 33l52 14t43 16h54l-86 -390h79l-11 -50h-213zM510 0l12 54q28 37 60.5 63.5t65.5 47.5t64 37.5t56 33.5t42.5 36.5t23.5 45.5q8 32 -10.5 52t-62.5 20q-26 0 -47.5 -7.5t-39 -20t-30 -28.5t-20.5 -32l-43 16q13 24 31.5 46t43 39 t54.5 27t66 10q63 0 94.5 -31t19.5 -85q-8 -35 -28.5 -61.5t-48.5 -47.5t-60.5 -39.5l-65 -37t-62 -40t-50.5 -48.5h256l-11 -50h-310zM157 -10l603 742h62l-606 -742h-59z" />
<glyph unicode="&#xbe;" horiz-adv-x="916" d="M770 102l-23 -102h-54l23 102h-208l10 45l248 287h77l-62 -282h81l-11 -50h-81zM776 376h-2l-194 -224h147zM370 527q21 -7 33 -20t18 -29t6.5 -33.5t-2.5 -33.5q-12 -56 -62.5 -90.5t-124.5 -34.5q-34 0 -59 8.5t-43 21t-29 27.5t-17 27l47 32q19 -36 47 -51t65 -15 q51 0 82.5 20t39.5 54q10 45 -13.5 67t-94.5 22h-45l11 50h41q57 0 90 17t42 58q5 23 -13.5 40.5t-55.5 17.5q-21 0 -37.5 -3t-30 -9.5t-26 -16t-26.5 -22.5l-36 28q31 31 70.5 52t96.5 21q63 0 93.5 -28t18.5 -80q-8 -39 -32.5 -62.5t-53.5 -32.5v-2zM193 -10l603 742h62 l-606 -742h-59z" />
<glyph unicode="&#xbf;" horiz-adv-x="444" d="M328 -102q-37 -54 -85 -82t-102 -28q-32 0 -59 10t-45 29.5t-25 47.5t1 65q7 32 25 59t40.5 51t48 45.5t47.5 43.5t39 45.5t23 51.5l13 56h68l-12 -55q-9 -38 -26.5 -66.5t-39.5 -52.5t-45.5 -44t-45 -41t-38 -44.5t-22.5 -52.5q-3 -15 -2 -30.5t8.5 -27.5t21.5 -20 t37 -8q35 0 63 17.5t59 59.5zM262 410l24 110h98l-24 -110h-98z" />
<glyph unicode="&#xc0;" horiz-adv-x="611" d="M419 666h-11l-187 -372h219zM463 0l-18 226h-259l-118 -226h-84l382 722h119l62 -722h-84zM432 770l-99 142h109l57 -142h-67z" />
<glyph unicode="&#xc1;" horiz-adv-x="611" d="M419 666h-11l-187 -372h219zM463 0l-18 226h-259l-118 -226h-84l382 722h119l62 -722h-84zM436 770h-67l121 142h109z" />
<glyph unicode="&#xc2;" horiz-adv-x="611" d="M419 666h-11l-187 -372h219zM463 0l-18 226h-259l-118 -226h-84l382 722h119l62 -722h-84zM500 770l-46 94l-86 -94h-80l130 142h94l68 -142h-80z" />
<glyph unicode="&#xc3;" horiz-adv-x="611" d="M419 666h-11l-187 -372h219zM463 0l-18 226h-259l-118 -226h-84l382 722h119l62 -722h-84zM633 885q-6 -18 -18 -37t-28 -34.5t-35.5 -25.5t-39.5 -10t-38 6t-35.5 13t-35 13t-35.5 6q-16 0 -32 -15t-21 -32h-50q15 45 48.5 77t83.5 32q21 0 37.5 -6t31.5 -12.5 t29.5 -12.5t30.5 -6q19 0 34 12t23 32h50z" />
<glyph unicode="&#xc4;" horiz-adv-x="611" d="M419 666h-11l-187 -372h219zM463 0l-18 226h-259l-118 -226h-84l382 722h119l62 -722h-84zM472 770l21 94h88l-21 -94h-88zM314 770l21 94h88l-21 -94h-88z" />
<glyph unicode="&#xc5;" horiz-adv-x="611" d="M419 666h-11l-187 -372h219zM463 0l-18 226h-259l-118 -226h-84l382 722h119l62 -722h-84zM559 881q0 -23 -10.5 -44.5t-27.5 -38.5t-40 -27.5t-47 -10.5q-35 0 -57.5 22t-22.5 55q0 24 11 46.5t28.5 39.5t40 27t45.5 10q36 0 58 -22.5t22 -56.5zM444 804q12 0 24.5 5.5 t22.5 14.5t16.5 21.5t6.5 26.5q0 19 -12.5 31.5t-32.5 12.5q-13 0 -25.5 -5.5t-22.5 -15t-16 -22t-6 -26.5q0 -19 12.5 -31t32.5 -12z" />
<glyph unicode="&#xc6;" horiz-adv-x="1000" d="M457 0l50 226h-266l-174 -226h-91l567 722h507l-15 -68h-353l-54 -242h251l-15 -68h-251l-61 -276h373l-15 -68h-453zM605 666h-22l-288 -372h227z" />
<glyph unicode="&#xc7;" horiz-adv-x="611" d="M147 -159q12 -9 28.5 -14t33.5 -5q29 0 47.5 13.5t18.5 38.5q0 12 -9 20.5t-25 8.5q-11 0 -23 -1.5t-24 -6.5l-13 19l73 77q-88 6 -138.5 63t-50.5 169q0 58 17 138q19 88 53 157t80 116.5t103 72.5t122 25q101 0 148.5 -55t49.5 -155l-79 -22q-2 38 -9.5 68.5t-24 51.5 t-43.5 32.5t-67 11.5q-39 0 -77 -18t-71.5 -55.5t-60.5 -94.5t-44 -135q-8 -35 -11.5 -66.5t-3.5 -58.5q0 -92 40 -135t110 -43q42 0 74.5 14.5t58.5 38.5t45.5 55t35.5 64l69 -14q-44 -95 -111 -156t-167 -69l-51 -49l2 -2q15 5 31 5q35 0 51.5 -17.5t16.5 -43.5 q0 -52 -40 -80t-103 -28q-31 0 -51.5 6.5t-37.5 14.5z" />
<glyph unicode="&#xc8;" horiz-adv-x="611" d="M68 0l160 722h433l-15 -68h-353l-54 -242h251l-15 -68h-251l-61 -276h373l-15 -68h-453zM460 770l-99 142h109l57 -142h-67z" />
<glyph unicode="&#xc9;" horiz-adv-x="611" d="M68 0l160 722h433l-15 -68h-353l-54 -242h251l-15 -68h-251l-61 -276h373l-15 -68h-453zM464 770h-67l121 142h109z" />
<glyph unicode="&#xca;" horiz-adv-x="611" d="M68 0l160 722h433l-15 -68h-353l-54 -242h251l-15 -68h-251l-61 -276h373l-15 -68h-453zM528 770l-46 94l-86 -94h-80l130 142h94l68 -142h-80z" />
<glyph unicode="&#xcb;" horiz-adv-x="611" d="M68 0l160 722h433l-15 -68h-353l-54 -242h251l-15 -68h-251l-61 -276h373l-15 -68h-453zM500 770l21 94h88l-21 -94h-88zM342 770l21 94h88l-21 -94h-88z" />
<glyph unicode="&#xcc;" horiz-adv-x="333" d="M86 0l160 722h80l-160 -722h-80zM293 770l-99 142h109l57 -142h-67z" />
<glyph unicode="&#xcd;" horiz-adv-x="333" d="M86 0l160 722h80l-160 -722h-80zM297 770h-67l121 142h109z" />
<glyph unicode="&#xce;" horiz-adv-x="333" d="M86 0l160 722h80l-160 -722h-80zM361 770l-46 94l-86 -94h-80l130 142h94l68 -142h-80z" />
<glyph unicode="&#xcf;" horiz-adv-x="333" d="M86 0l160 722h80l-160 -722h-80zM333 770l21 94h88l-21 -94h-88zM175 770l21 94h88l-21 -94h-88z" />
<glyph unicode="&#xd0;" horiz-adv-x="667" d="M263 68q125 0 205 73.5t112 219.5q18 79 12 134.5t-30.5 91t-67 51.5t-97.5 16h-112l-54 -242h188l-15 -68h-188l-61 -276h108zM60 0l76 344h-68l15 68h68l69 310h194q73 0 128.5 -23t88 -68.5t41 -113t-11.5 -156.5q-18 -80 -53.5 -146t-88 -114t-120 -74.5 t-148.5 -26.5h-190z" />
<glyph unicode="&#xd1;" horiz-adv-x="722" d="M508 0l-223 644h-2l-143 -644h-72l160 722h115l192 -556h4l123 556h72l-160 -722h-66zM688 885q-6 -18 -18 -37t-28 -34.5t-35.5 -25.5t-39.5 -10t-38 6t-35.5 13t-35 13t-35.5 6q-16 0 -32 -15t-21 -32h-50q15 45 48.5 77t83.5 32q21 0 37.5 -6t31.5 -12.5t29.5 -12.5 t30.5 -6q19 0 34 12t23 32h50z" />
<glyph unicode="&#xd2;" horiz-adv-x="667" d="M306 58q96 0 165.5 74t103.5 229q8 36 12 68t4 59q0 90 -39 133t-112 43q-96 0 -165.5 -74t-103.5 -229q-16 -71 -16 -128q0 -89 39 -132t112 -43zM291 -10q-106 0 -161.5 59.5t-55.5 174.5q0 31 4.5 65t12.5 72q40 182 135 276.5t229 94.5q106 0 161 -59.5t55 -174.5 q0 -63 -16 -137q-40 -182 -135 -276.5t-229 -94.5zM460 770l-99 142h109l57 -142h-67z" />
<glyph unicode="&#xd3;" horiz-adv-x="667" d="M306 58q96 0 165.5 74t103.5 229q8 36 12 68t4 59q0 90 -39 133t-112 43q-96 0 -165.5 -74t-103.5 -229q-16 -71 -16 -128q0 -89 39 -132t112 -43zM291 -10q-106 0 -161.5 59.5t-55.5 174.5q0 31 4.5 65t12.5 72q40 182 135 276.5t229 94.5q106 0 161 -59.5t55 -174.5 q0 -63 -16 -137q-40 -182 -135 -276.5t-229 -94.5zM464 770h-67l121 142h109z" />
<glyph unicode="&#xd4;" horiz-adv-x="667" d="M306 58q96 0 165.5 74t103.5 229q8 36 12 68t4 59q0 90 -39 133t-112 43q-96 0 -165.5 -74t-103.5 -229q-16 -71 -16 -128q0 -89 39 -132t112 -43zM291 -10q-106 0 -161.5 59.5t-55.5 174.5q0 31 4.5 65t12.5 72q40 182 135 276.5t229 94.5q106 0 161 -59.5t55 -174.5 q0 -63 -16 -137q-40 -182 -135 -276.5t-229 -94.5zM528 770l-46 94l-86 -94h-80l130 142h94l68 -142h-80z" />
<glyph unicode="&#xd5;" horiz-adv-x="667" d="M306 58q96 0 165.5 74t103.5 229q8 36 12 68t4 59q0 90 -39 133t-112 43q-96 0 -165.5 -74t-103.5 -229q-16 -71 -16 -128q0 -89 39 -132t112 -43zM291 -10q-106 0 -161.5 59.5t-55.5 174.5q0 31 4.5 65t12.5 72q40 182 135 276.5t229 94.5q106 0 161 -59.5t55 -174.5 q0 -63 -16 -137q-40 -182 -135 -276.5t-229 -94.5zM661 885q-6 -18 -18 -37t-28 -34.5t-35.5 -25.5t-39.5 -10t-38 6t-35.5 13t-35 13t-35.5 6q-16 0 -32 -15t-21 -32h-50q15 45 48.5 77t83.5 32q21 0 37.5 -6t31.5 -12.5t29.5 -12.5t30.5 -6q19 0 34 12t23 32h50z" />
<glyph unicode="&#xd6;" horiz-adv-x="667" d="M306 58q96 0 165.5 74t103.5 229q8 36 12 68t4 59q0 90 -39 133t-112 43q-96 0 -165.5 -74t-103.5 -229q-16 -71 -16 -128q0 -89 39 -132t112 -43zM291 -10q-106 0 -161.5 59.5t-55.5 174.5q0 31 4.5 65t12.5 72q40 182 135 276.5t229 94.5q106 0 161 -59.5t55 -174.5 q0 -63 -16 -137q-40 -182 -135 -276.5t-229 -94.5zM500 770l21 94h88l-21 -94h-88zM342 770l21 94h88l-21 -94h-88z" />
<glyph unicode="&#xd7;" horiz-adv-x="600" d="M476 0l-168 216l-264 -216l-34 44l264 216l-168 216l53 44l168 -218l264 218l35 -44l-264 -216l168 -216z" />
<glyph unicode="&#xd8;" horiz-adv-x="667" d="M555 617q-38 47 -115 47q-96 0 -165.5 -74t-103.5 -229q-15 -71 -15 -125q0 -47 10 -78zM191 107q17 -25 46.5 -37t68.5 -12q96 0 165.5 74t103.5 229q8 36 12 67t4 58q0 44 -11 80zM-22 -64l127 149q-31 56 -31 139q0 60 17 137q40 182 135 276.5t229 94.5 q100 0 153 -52l76 90h70l-113 -132q31 -56 31 -139q0 -59 -17 -138q-40 -182 -135 -276.5t-229 -94.5q-98 0 -154 54l-92 -108h-67z" />
<glyph unicode="&#xd9;" horiz-adv-x="722" d="M654 722h80l-112 -504q-12 -54 -40 -96.5t-67.5 -71.5t-89.5 -44.5t-106 -15.5q-97 0 -153.5 44.5t-56.5 126.5q0 29 7 57l112 504h80l-113 -510q-4 -17 -4 -36q0 -51 35.5 -84.5t107.5 -33.5q42 0 77 12t61.5 33t44 49t24.5 60zM487 760l-99 142h109l57 -142h-67z" />
<glyph unicode="&#xda;" horiz-adv-x="722" d="M491 770h-67l121 142h109zM654 722h80l-112 -504q-12 -54 -40 -96.5t-67.5 -71.5t-89.5 -44.5t-106 -15.5q-97 0 -153.5 44.5t-56.5 126.5q0 29 7 57l112 504h80l-113 -510q-4 -17 -4 -36q0 -51 35.5 -84.5t107.5 -33.5q42 0 77 12t61.5 33t44 49t24.5 60z" />
<glyph unicode="&#xdb;" horiz-adv-x="722" d="M555 770l-46 94l-86 -94h-80l130 142h94l68 -142h-80zM654 722h80l-112 -504q-12 -54 -40 -96.5t-67.5 -71.5t-89.5 -44.5t-106 -15.5q-97 0 -153.5 44.5t-56.5 126.5q0 29 7 57l112 504h80l-113 -510q-4 -17 -4 -36q0 -51 35.5 -84.5t107.5 -33.5q42 0 77 12t61.5 33 t44 49t24.5 60z" />
<glyph unicode="&#xdc;" horiz-adv-x="722" d="M654 722h80l-112 -504q-12 -54 -40 -96.5t-67.5 -71.5t-89.5 -44.5t-106 -15.5q-97 0 -153.5 44.5t-56.5 126.5q0 29 7 57l112 504h80l-113 -510q-4 -17 -4 -36q0 -51 35.5 -84.5t107.5 -33.5q42 0 77 12t61.5 33t44 49t24.5 60zM527 770l21 94h88l-21 -94h-88zM369 770 l21 94h88l-21 -94h-88z" />
<glyph unicode="&#xdd;" horiz-adv-x="556" d="M198 0l67 304l-129 418h88l101 -331l247 331h88l-315 -418l-67 -304h-80zM408 770h-67l121 142h109z" />
<glyph unicode="&#xde;" horiz-adv-x="611" d="M331 250q50 0 86 8.5t60.5 25t39 41.5t21.5 57q14 65 -17.5 98.5t-112.5 33.5h-154l-59 -264h136zM60 0l160 722h80l-31 -140h172q58 0 96 -15.5t59 -42.5t26 -64t-5 -80q-20 -90 -96.5 -144t-212.5 -54h-128l-40 -182h-80z" />
<glyph unicode="&#xdf;" horiz-adv-x="556" d="M235 76q8 -8 24.5 -16t42.5 -8q27 0 49 11t38.5 29.5t28.5 44t18 54.5q11 49 6 83t-24 55t-50 30t-73 9l13 62h29q22 0 43.5 9t40 25.5t32 38.5t19.5 49q13 56 -7.5 87t-77.5 31q-59 0 -92 -34t-50 -100l-119 -536h-72l123 554q10 48 33.5 82t54 55t66.5 31t71 10 q45 0 76 -13t49 -36.5t22.5 -55.5t-3.5 -69q-11 -51 -42 -90t-81 -61v-2q65 -20 84.5 -75.5t1.5 -133.5q-11 -50 -33.5 -88t-52 -64.5t-63 -40t-66.5 -13.5q-36 0 -58.5 7t-40.5 20z" />
<glyph unicode="&#xe0;" horiz-adv-x="500" d="M332 580l-100 142h109l58 -142h-67zM330 0l8 72q-34 -30 -82.5 -56t-107.5 -26q-52 0 -86.5 26t-34.5 80q0 51 21.5 90.5t66.5 69t115 51t166 38.5l7 28q3 15 3 27q0 37 -24.5 52.5t-64.5 15.5q-30 0 -54.5 -7.5t-43 -19.5t-32 -26.5t-21.5 -27.5l-56 33q35 45 90 77.5 t129 32.5q29 0 56 -6.5t48 -20.5t33.5 -36.5t12.5 -53.5q0 -20 -4 -39l-58 -262q-4 -17 -8 -44t-5 -68h-74zM382 281q-135 -23 -208 -63.5t-73 -100.5q0 -30 22 -47.5t49 -17.5q19 0 42 6.5t47 18.5t47 27.5t43 33.5z" />
<glyph unicode="&#xe1;" horiz-adv-x="500" d="M336 580h-67l120 142h109zM330 0l8 72q-34 -30 -82.5 -56t-107.5 -26q-52 0 -86.5 26t-34.5 80q0 51 21.5 90.5t66.5 69t115 51t166 38.5l7 28q3 15 3 27q0 37 -24.5 52.5t-64.5 15.5q-30 0 -54.5 -7.5t-43 -19.5t-32 -26.5t-21.5 -27.5l-56 33q35 45 90 77.5t129 32.5 q29 0 56 -6.5t48 -20.5t33.5 -36.5t12.5 -53.5q0 -20 -4 -39l-58 -262q-4 -17 -8 -44t-5 -68h-74zM382 281q-135 -23 -208 -63.5t-73 -100.5q0 -30 22 -47.5t49 -17.5q19 0 42 6.5t47 18.5t47 27.5t43 33.5z" />
<glyph unicode="&#xe2;" horiz-adv-x="500" d="M400 580l-47 94l-85 -94h-80l129 142h94l69 -142h-80zM330 0l8 72q-34 -30 -82.5 -56t-107.5 -26q-52 0 -86.5 26t-34.5 80q0 51 21.5 90.5t66.5 69t115 51t166 38.5l7 28q3 15 3 27q0 37 -24.5 52.5t-64.5 15.5q-30 0 -54.5 -7.5t-43 -19.5t-32 -26.5t-21.5 -27.5 l-56 33q35 45 90 77.5t129 32.5q29 0 56 -6.5t48 -20.5t33.5 -36.5t12.5 -53.5q0 -20 -4 -39l-58 -262q-4 -17 -8 -44t-5 -68h-74zM382 281q-135 -23 -208 -63.5t-73 -100.5q0 -30 22 -47.5t49 -17.5q19 0 42 6.5t47 18.5t47 27.5t43 33.5z" />
<glyph unicode="&#xe3;" horiz-adv-x="500" d="M532 705q-6 -18 -18 -37t-28 -34.5t-35 -25.5t-39 -10t-38.5 6t-35.5 13q-18 8 -35.5 13.5t-35.5 5.5q-16 0 -32 -15t-20 -32h-50q14 45 47.5 77t83.5 32q20 0 37 -5.5t32 -12.5q16 -8 30.5 -13.5t30.5 -5.5q19 0 34 12t22 32h50zM330 0l8 72q-34 -30 -82.5 -56 t-107.5 -26q-52 0 -86.5 26t-34.5 80q0 51 21.5 90.5t66.5 69t115 51t166 38.5l7 28q3 15 3 27q0 37 -24.5 52.5t-64.5 15.5q-30 0 -54.5 -7.5t-43 -19.5t-32 -26.5t-21.5 -27.5l-56 33q35 45 90 77.5t129 32.5q29 0 56 -6.5t48 -20.5t33.5 -36.5t12.5 -53.5q0 -20 -4 -39 l-58 -262q-4 -17 -8 -44t-5 -68h-74zM382 281q-135 -23 -208 -63.5t-73 -100.5q0 -30 22 -47.5t49 -17.5q19 0 42 6.5t47 18.5t47 27.5t43 33.5z" />
<glyph unicode="&#xe4;" horiz-adv-x="500" d="M371 590l21 94h88l-21 -94h-88zM213 590l21 94h88l-21 -94h-88zM330 0l8 72q-34 -30 -82.5 -56t-107.5 -26q-52 0 -86.5 26t-34.5 80q0 51 21.5 90.5t66.5 69t115 51t166 38.5l7 28q3 15 3 27q0 37 -24.5 52.5t-64.5 15.5q-30 0 -54.5 -7.5t-43 -19.5t-32 -26.5 t-21.5 -27.5l-56 33q35 45 90 77.5t129 32.5q29 0 56 -6.5t48 -20.5t33.5 -36.5t12.5 -53.5q0 -20 -4 -39l-58 -262q-4 -17 -8 -44t-5 -68h-74zM382 281q-135 -23 -208 -63.5t-73 -100.5q0 -30 22 -47.5t49 -17.5q19 0 42 6.5t47 18.5t47 27.5t43 33.5z" />
<glyph unicode="&#xe5;" horiz-adv-x="500" d="M456 680q-5 -21 -16.5 -39t-28 -31.5t-36.5 -21.5t-41 -8q-42 0 -64.5 29t-13.5 71q4 21 16 39t28.5 31.5t36.5 21.5t41 8q42 0 64.5 -29t13.5 -71zM412 680q5 23 -8 39.5t-36 16.5t-43 -16.5t-25 -39.5t7.5 -39.5t35.5 -16.5t43.5 16.5t25.5 39.5zM330 0l8 72 q-34 -30 -82.5 -56t-107.5 -26q-52 0 -86.5 26t-34.5 80q0 51 21.5 90.5t66.5 69t115 51t166 38.5l7 28q3 15 3 27q0 37 -24.5 52.5t-64.5 15.5q-30 0 -54.5 -7.5t-43 -19.5t-32 -26.5t-21.5 -27.5l-56 33q35 45 90 77.5t129 32.5q29 0 56 -6.5t48 -20.5t33.5 -36.5 t12.5 -53.5q0 -20 -4 -39l-58 -262q-4 -17 -8 -44t-5 -68h-74zM382 281q-135 -23 -208 -63.5t-73 -100.5q0 -30 22 -47.5t49 -17.5q19 0 42 6.5t47 18.5t47 27.5t43 33.5z" />
<glyph unicode="&#xe6;" horiz-adv-x="778" d="M358 281q-41 -8 -87.5 -20t-86 -31.5t-65.5 -47.5t-26 -67q0 -29 20 -46t49 -17q25 0 50 8t47 20t39.5 26.5t27.5 27.5zM729 111q-18 -22 -39 -43.5t-47.5 -39t-59.5 -28t-75 -10.5q-24 0 -46.5 3.5t-43 13t-37 26.5t-28.5 45q-35 -28 -63.5 -45t-55 -26.5t-51 -13 t-49.5 -3.5q-23 0 -44 7t-37 20t-26 32t-10 44q0 66 33.5 110t85.5 72t114.5 44t121.5 26l7 28q3 16 3 30q0 65 -80 65q-29 0 -52 -7.5t-41.5 -19.5t-32 -26.5t-21.5 -27.5l-54 33q33 45 87 77.5t123 32.5q49 0 84 -16t51 -54q28 27 69.5 48.5t95.5 21.5q32 0 59.5 -9 t48 -28t32 -49t11.5 -71q0 -36 -9 -79l-10 -48h-320q-9 -41 -9 -74q0 -57 27.5 -88.5t86.5 -31.5q39 0 79 23.5t72 64.5zM684 308q6 28 6 54q0 49 -24.5 77.5t-71.5 28.5q-63 0 -101.5 -44t-56.5 -116h248z" />
<glyph unicode="&#xe7;" horiz-adv-x="500" d="M82 -159q12 -9 28.5 -14t33.5 -5q29 0 47.5 13.5t18.5 38.5q0 12 -9 20.5t-25 8.5q-11 0 -23 -1.5t-24 -6.5l-13 19l73 77q-69 7 -105.5 53t-36.5 124q0 21 2.5 43.5t8.5 48.5q14 63 39.5 113t61 85t79 53.5t92.5 18.5q40 0 68 -10.5t46 -29.5t28.5 -45t16.5 -56l-72 -24 q-5 48 -29 75.5t-71 27.5q-67 0 -116 -54t-71 -154q-5 -23 -8 -43.5t-3 -39.5q0 -60 27.5 -92.5t78.5 -32.5q25 0 45.5 4.5t40 15.5t38.5 29.5t40 46.5l52 -26q-24 -30 -47 -53t-47 -39.5t-50.5 -26t-59.5 -12.5l-51 -49l2 -2q15 5 31 5q35 0 51.5 -17.5t16.5 -43.5 q0 -52 -40 -80t-103 -28q-31 0 -51.5 6.5t-37.5 14.5z" />
<glyph unicode="&#xe8;" horiz-adv-x="500" d="M451 111q-18 -22 -39 -43.5t-48 -39t-61.5 -28t-78.5 -10.5q-36 0 -68 10.5t-56 33t-38 57t-14 82.5q0 41 10 87q14 63 40 113t61.5 85t78.5 53.5t91 18.5q33 0 61.5 -9t49.5 -28.5t32.5 -49t11.5 -70.5q0 -36 -9 -79l-10 -48h-338q-4 -15 -5.5 -29.5t-1.5 -27.5 q0 -63 32 -100t86 -37q48 0 89.5 23.5t73.5 64.5zM406 308q3 15 5 28.5t2 26.5q0 49 -24 77t-71 28q-66 0 -110.5 -44t-65.5 -116h264zM337 580l-100 142h109l58 -142h-67z" />
<glyph unicode="&#xe9;" horiz-adv-x="500" d="M451 111q-18 -22 -39 -43.5t-48 -39t-61.5 -28t-78.5 -10.5q-36 0 -68 10.5t-56 33t-38 57t-14 82.5q0 41 10 87q14 63 40 113t61.5 85t78.5 53.5t91 18.5q33 0 61.5 -9t49.5 -28.5t32.5 -49t11.5 -70.5q0 -36 -9 -79l-10 -48h-338q-4 -15 -5.5 -29.5t-1.5 -27.5 q0 -63 32 -100t86 -37q48 0 89.5 23.5t73.5 64.5zM406 308q3 15 5 28.5t2 26.5q0 49 -24 77t-71 28q-66 0 -110.5 -44t-65.5 -116h264zM341 580h-67l120 142h109z" />
<glyph unicode="&#xea;" horiz-adv-x="500" d="M451 111q-18 -22 -39 -43.5t-48 -39t-61.5 -28t-78.5 -10.5q-36 0 -68 10.5t-56 33t-38 57t-14 82.5q0 41 10 87q14 63 40 113t61.5 85t78.5 53.5t91 18.5q33 0 61.5 -9t49.5 -28.5t32.5 -49t11.5 -70.5q0 -36 -9 -79l-10 -48h-338q-4 -15 -5.5 -29.5t-1.5 -27.5 q0 -63 32 -100t86 -37q48 0 89.5 23.5t73.5 64.5zM406 308q3 15 5 28.5t2 26.5q0 49 -24 77t-71 28q-66 0 -110.5 -44t-65.5 -116h264zM405 580l-47 94l-85 -94h-80l129 142h94l69 -142h-80z" />
<glyph unicode="&#xeb;" horiz-adv-x="500" d="M406 308q3 15 5 28.5t2 26.5q0 49 -24 77t-71 28q-66 0 -110.5 -44t-65.5 -116h264zM451 111q-18 -22 -39 -43.5t-48 -39t-61.5 -28t-78.5 -10.5q-36 0 -68 10.5t-56 33t-38 57t-14 82.5q0 41 10 87q14 63 40 113t61.5 85t78.5 53.5t91 18.5q33 0 61.5 -9t49.5 -28.5 t32.5 -49t11.5 -70.5q0 -36 -9 -79l-10 -48h-338q-4 -15 -5.5 -29.5t-1.5 -27.5q0 -63 32 -100t86 -37q48 0 89.5 23.5t73.5 64.5zM376 590l21 94h88l-21 -94h-88zM218 590l21 94h88l-21 -94h-88z" />
<glyph unicode="&#xec;" horiz-adv-x="278" d="M63 0l115 520h72l-115 -520h-72zM226 580l-100 142h109l58 -142h-67z" />
<glyph unicode="&#xed;" horiz-adv-x="278" d="M63 0l115 520h72l-115 -520h-72zM230 580h-67l120 142h109z" />
<glyph unicode="&#xee;" horiz-adv-x="278" d="M63 0l115 520h72l-115 -520h-72zM294 580l-47 94l-85 -94h-80l129 142h94l69 -142h-80z" />
<glyph unicode="&#xef;" horiz-adv-x="278" d="M63 0l115 520h72l-115 -520h-72zM265 590l21 94h88l-21 -94h-88zM107 590l21 94h88l-21 -94h-88z" />
<glyph unicode="&#xf0;" horiz-adv-x="500" d="M222 52q72 0 118 52.5t66 141.5q9 43 8 78t-13 60t-35 38.5t-59 13.5q-72 0 -118 -52t-65 -138q-20 -89 3 -141.5t95 -52.5zM414 609q23 -35 40 -76t26.5 -86t10 -93t-10.5 -96q-13 -59 -37 -108t-58.5 -84.5t-79 -55.5t-97.5 -20t-89 18.5t-55.5 52t-22 80.5t10.5 105 q12 56 35.5 102.5t57.5 79.5t78 51.5t97 18.5q21 0 40.5 -5t30.5 -9q-5 23 -16.5 46t-26.5 46l-119 -58l-24 48l114 55q-22 27 -42.5 47t-33.5 30l68 24q39 -28 70 -68l123 60l19 -50z" />
<glyph unicode="&#xf1;" horiz-adv-x="556" d="M355 0l83 376q12 52 -6.5 72t-57.5 20q-20 0 -43 -7.5t-45.5 -19t-43 -25.5t-35.5 -27l-86 -389h-72l115 520h72l-15 -70h2q38 35 82 57.5t89 22.5q29 0 54.5 -8t42.5 -26t23 -47t-3 -71l-84 -378h-72zM565 705q-6 -18 -18 -37t-28 -34.5t-35 -25.5t-39 -10t-38.5 6 t-35.5 13q-18 8 -35.5 13.5t-35.5 5.5q-16 0 -32 -15t-20 -32h-50q14 45 47.5 77t83.5 32q20 0 37 -5.5t32 -12.5q16 -8 30.5 -13.5t30.5 -5.5q19 0 34 12t22 32h50z" />
<glyph unicode="&#xf2;" horiz-adv-x="500" d="M222 52q65 0 114.5 53.5t72.5 154.5q22 101 -4 154.5t-91 53.5t-115 -53.5t-72 -154.5q-23 -101 3.5 -154.5t91.5 -53.5zM481 260q-13 -56 -37 -105.5t-59 -86t-79.5 -57.5t-97.5 -21t-88.5 21t-54 57.5t-21 86t10.5 105.5q12 56 36.5 105.5t59 86t79 57.5t97.5 21 t88.5 -21t54 -57.5t21 -86t-9.5 -105.5zM337 580l-100 142h109l58 -142h-67z" />
<glyph unicode="&#xf3;" horiz-adv-x="500" d="M222 52q65 0 114.5 53.5t72.5 154.5q22 101 -4 154.5t-91 53.5t-115 -53.5t-72 -154.5q-23 -101 3.5 -154.5t91.5 -53.5zM481 260q-13 -56 -37 -105.5t-59 -86t-79.5 -57.5t-97.5 -21t-88.5 21t-54 57.5t-21 86t10.5 105.5q12 56 36.5 105.5t59 86t79 57.5t97.5 21 t88.5 -21t54 -57.5t21 -86t-9.5 -105.5zM341 580h-67l120 142h109z" />
<glyph unicode="&#xf4;" horiz-adv-x="500" d="M222 52q65 0 114.5 53.5t72.5 154.5q22 101 -4 154.5t-91 53.5t-115 -53.5t-72 -154.5q-23 -101 3.5 -154.5t91.5 -53.5zM481 260q-13 -56 -37 -105.5t-59 -86t-79.5 -57.5t-97.5 -21t-88.5 21t-54 57.5t-21 86t10.5 105.5q12 56 36.5 105.5t59 86t79 57.5t97.5 21 t88.5 -21t54 -57.5t21 -86t-9.5 -105.5zM405 580l-47 94l-85 -94h-80l129 142h94l69 -142h-80z" />
<glyph unicode="&#xf5;" horiz-adv-x="500" d="M222 52q65 0 114.5 53.5t72.5 154.5q22 101 -4 154.5t-91 53.5t-115 -53.5t-72 -154.5q-23 -101 3.5 -154.5t91.5 -53.5zM481 260q-13 -56 -37 -105.5t-59 -86t-79.5 -57.5t-97.5 -21t-88.5 21t-54 57.5t-21 86t10.5 105.5q12 56 36.5 105.5t59 86t79 57.5t97.5 21 t88.5 -21t54 -57.5t21 -86t-9.5 -105.5zM537 705q-6 -18 -18 -37t-28 -34.5t-35 -25.5t-39 -10t-38.5 6t-35.5 13q-18 8 -35.5 13.5t-35.5 5.5q-16 0 -32 -15t-20 -32h-50q14 45 47.5 77t83.5 32q20 0 37 -5.5t32 -12.5q16 -8 30.5 -13.5t30.5 -5.5q19 0 34 12t22 32h50z " />
<glyph unicode="&#xf6;" horiz-adv-x="500" d="M222 52q65 0 114.5 53.5t72.5 154.5q22 101 -4 154.5t-91 53.5t-115 -53.5t-72 -154.5q-23 -101 3.5 -154.5t91.5 -53.5zM481 260q-13 -56 -37 -105.5t-59 -86t-79.5 -57.5t-97.5 -21t-88.5 21t-54 57.5t-21 86t10.5 105.5q12 56 36.5 105.5t59 86t79 57.5t97.5 21 t88.5 -21t54 -57.5t21 -86t-9.5 -105.5zM376 590l21 94h88l-21 -94h-88zM218 590l21 94h88l-21 -94h-88z" />
<glyph unicode="&#xf7;" horiz-adv-x="600" d="M51 229l14 62h520l-14 -62h-520zM426 468q-6 -26 -28 -44t-48 -18t-40 18t-8 44q5 26 27 44t48 18t40 -18t9 -44zM334 52q-6 -26 -28 -44t-48 -18t-40 18t-8 44q5 26 27 44t48 18t40 -18t9 -44z" />
<glyph unicode="&#xf8;" horiz-adv-x="500" d="M151 77q25 -25 71 -25q65 0 114.5 53.5t72.5 154.5q18 84 2 136zM-42 -82l114 141q-23 38 -27 89.5t10 111.5q12 56 36.5 105.5t59 86t79 57.5t97.5 21q63 0 102 -31l83 103h65l-113 -140q23 -37 27 -89t-10 -113q-13 -56 -37 -105.5t-59 -86t-79.5 -57.5t-97.5 -21 q-66 0 -102 31l-84 -103h-64zM383 443q-25 25 -69 25q-65 0 -115 -53.5t-72 -154.5q-10 -43 -10.5 -77t7.5 -59z" />
<glyph unicode="&#xf9;" horiz-adv-x="556" d="M355 0l16 70h-2q-39 -35 -83 -57.5t-89 -22.5q-29 0 -54 8t-42 26t-23.5 47t2.5 71l84 378h72l-83 -376q-11 -52 7.5 -72t57.5 -20q20 0 43 7.5t45 19t42.5 25.5t35.5 27l86 389h72l-115 -520h-72zM365 580l-100 142h109l58 -142h-67z" />
<glyph unicode="&#xfa;" horiz-adv-x="556" d="M355 0l16 70h-2q-39 -35 -83 -57.5t-89 -22.5q-29 0 -54 8t-42 26t-23.5 47t2.5 71l84 378h72l-83 -376q-11 -52 7.5 -72t57.5 -20q20 0 43 7.5t45 19t42.5 25.5t35.5 27l86 389h72l-115 -520h-72zM369 580h-67l120 142h109z" />
<glyph unicode="&#xfb;" horiz-adv-x="556" d="M355 0l16 70h-2q-39 -35 -83 -57.5t-89 -22.5q-29 0 -54 8t-42 26t-23.5 47t2.5 71l84 378h72l-83 -376q-11 -52 7.5 -72t57.5 -20q20 0 43 7.5t45 19t42.5 25.5t35.5 27l86 389h72l-115 -520h-72zM433 580l-47 94l-85 -94h-80l129 142h94l69 -142h-80z" />
<glyph unicode="&#xfc;" horiz-adv-x="556" d="M355 0l16 70h-2q-39 -35 -83 -57.5t-89 -22.5q-29 0 -54 8t-42 26t-23.5 47t2.5 71l84 378h72l-83 -376q-11 -52 7.5 -72t57.5 -20q20 0 43 7.5t45 19t42.5 25.5t35.5 27l86 389h72l-115 -520h-72zM404 590l21 94h88l-21 -94h-88zM246 590l21 94h88l-21 -94h-88z" />
<glyph unicode="&#xfd;" horiz-adv-x="444" d="M87 520h76l52 -397h2l210 397h76l-308 -566q-24 -44 -50 -72t-52.5 -44.5t-53.5 -23t-52 -6.5q-18 0 -29 2t-21 4l13 59q8 -1 17 -2t21 -1q16 0 37 3.5t42.5 16t43.5 37t41 67.5zM313 580h-67l120 142h109z" />
<glyph unicode="&#xfe;" horiz-adv-x="556" d="M5 -192l203 914h72l-58 -263h2q13 15 31 27.5t38.5 22.5t41 15.5t39.5 5.5q34 0 69 -13t59.5 -44t33.5 -83t-8 -130q-17 -76 -48.5 -127.5t-69.5 -83t-78 -45.5t-73 -14q-37 0 -68.5 16.5t-55.5 41.5l-4 2l-54 -242h-72zM147 124q23 -32 53.5 -52t62.5 -20q31 0 60.5 11 t55 36t45.5 65.5t33 99.5q22 100 -6 152t-96 52q-35 0 -67.5 -16t-79.5 -54z" />
<glyph unicode="&#xff;" horiz-adv-x="444" d="M87 520h76l52 -397h2l210 397h76l-308 -566q-24 -44 -50 -72t-52.5 -44.5t-53.5 -23t-52 -6.5q-18 0 -29 2t-21 4l13 59q8 -1 17 -2t21 -1q16 0 37 3.5t42.5 16t43.5 37t41 67.5zM348 590l21 94h88l-21 -94h-88zM190 590l21 94h88l-21 -94h-88z" />
<glyph unicode="&#x131;" horiz-adv-x="278" d="M63 0l115 520h72l-115 -520h-72z" />
<glyph unicode="&#x141;" horiz-adv-x="556" d="M68 0l68 305l-101 -37l15 68l101 37l77 349h80l-70 -317l209 78l-15 -68l-209 -78l-60 -269h342l-15 -68h-422z" />
<glyph unicode="&#x142;" horiz-adv-x="278" d="M63 0l79 355l-99 -46l15 68l99 46l66 299h72l-58 -262l99 45l-15 -68l-99 -45l-87 -392h-72z" />
<glyph unicode="&#x152;" horiz-adv-x="1000" d="M472 0q-36 0 -78 -5t-90 -5q-65 0 -111 17.5t-75.5 50t-43 77t-13.5 98.5q0 60 15 128q17 78 49.5 146t81 118t113.5 78.5t148 28.5q50 0 89 -5t75 -5h431l-15 -68h-353l-54 -242h251l-15 -68h-251l-61 -276h373l-15 -68h-451zM588 534q2 11 3.5 21t1.5 19 q0 51 -36.5 70.5t-105.5 19.5q-116 0 -189 -77t-106 -226q-15 -68 -15 -121q0 -90 43 -136t133 -46q40 0 72.5 6.5t57 21.5t41 40t24.5 62z" />
<glyph unicode="&#x153;" horiz-adv-x="778" d="M196 52q66 0 110.5 54t67.5 154q22 100 2.5 154t-88.5 54q-63 0 -108 -54t-67 -154q-23 -100 -1.5 -154t84.5 -54zM739 111q-15 -22 -35 -43.5t-47 -39t-60.5 -28t-74.5 -10.5q-62 0 -99.5 22t-51.5 73q-42 -51 -89 -73t-100 -22q-44 0 -77 18.5t-52 53.5t-22.5 85 t10.5 113t39.5 113t60 85t75.5 53.5t85 18.5q53 0 90.5 -21.5t57.5 -71.5q38 54 86.5 73.5t99.5 19.5q37 0 68.5 -13.5t51.5 -42t26 -73.5t-8 -107l-10 -48h-320q-10 -43 -10.5 -78.5t10 -61t33 -40t60.5 -14.5q47 0 87 23.5t66 64.5zM704 308q17 72 -6 116t-82 44 q-65 0 -102.5 -44t-55.5 -116h246z" />
<glyph unicode="&#x160;" horiz-adv-x="611" d="M386 770l-66 142h80l44 -94l88 94h80l-132 -142h-94zM527 538q-1 26 -10 49t-26 40t-43 27t-61 10q-32 0 -61 -9t-51.5 -25.5t-36 -41t-13.5 -55.5q0 -26 16 -44.5t42 -33.5t58.5 -28t65.5 -27q30 -13 57.5 -28t48.5 -35t34 -45t13 -57q0 -43 -16.5 -86.5t-51 -79 t-88 -57.5t-128.5 -22q-59 0 -99.5 17.5t-66.5 44.5t-40 60.5t-21 65.5l79 26q4 -29 14.5 -55t29 -46.5t46 -32.5t67.5 -12q42 0 77 12t60.5 33t39.5 49t14 60q0 25 -12.5 44.5t-33 34.5t-47 27.5t-55.5 24.5q-33 14 -66.5 29.5t-60 35.5t-43 47t-16.5 65q0 45 20 84 t55 67.5t82 44.5t101 16q84 0 139 -44.5t64 -133.5z" />
<glyph unicode="&#x161;" horiz-adv-x="444" d="M388 395q-23 37 -49.5 55t-68.5 18q-46 0 -74.5 -21t-36.5 -56q-6 -28 12.5 -44t49.5 -27.5t67.5 -22.5t66 -29.5t45.5 -48t5 -77.5q-8 -38 -29.5 -66.5t-51 -47.5t-64.5 -28.5t-70 -9.5q-61 0 -110.5 25.5t-75.5 73.5l66 43q17 -37 50 -58.5t82 -21.5q59 0 91 26.5 t40 59.5q7 33 -11.5 51.5t-50 30.5t-69 22.5t-67.5 27.5t-45.5 44.5t-3.5 75.5q9 34 27.5 60t45.5 44t60 27t70 9q25 0 50 -7t46 -19t37 -28.5t25 -36.5zM263 580l-67 142h80l44 -94l88 94h80l-131 -142h-94z" />
<glyph unicode="&#x178;" horiz-adv-x="556" d="M198 0l67 304l-129 418h88l101 -331l247 331h88l-315 -418l-67 -304h-80zM444 770l21 94h88l-21 -94h-88zM286 770l21 94h88l-21 -94h-88z" />
<glyph unicode="&#x17d;" horiz-adv-x="556" d="M5 0l13 58l494 596h-329l15 68h429l-11 -52l-502 -602h372l-15 -68h-466zM358 770l-66 142h80l44 -94l88 94h80l-132 -142h-94z" />
<glyph unicode="&#x17e;" horiz-adv-x="444" d="M-10 0l12 52l374 406h-256l13 62h354l-11 -52l-374 -406h286l-14 -62h-384zM263 580l-67 142h80l44 -94l88 94h80l-131 -142h-94z" />
<glyph unicode="&#x192;" horiz-adv-x="611" d="M334 400h-114l13 60h126l24 58q24 58 48.5 99t52 66.5t59.5 37t73 11.5q16 0 31 -2t23 -6l-32 -65q-8 5 -17.5 8t-24.5 3q-20 0 -36.5 -7t-32 -25t-32.5 -47.5t-36 -74.5l-23 -54h116l-13 -62h-127l-176 -421q-17 -41 -37 -72.5t-45.5 -53.5t-58.5 -33.5t-76 -11.5 q-16 0 -26 2t-21 4l25 66q6 -3 17 -6.5t29 -3.5q24 0 41 5.5t30.5 17.5t24 31t21.5 46z" />
<glyph unicode="&#x2c6;" horiz-adv-x="278" d="M294 580l-47 94l-85 -94h-80l129 142h94l69 -142h-80z" />
<glyph unicode="&#x2c7;" horiz-adv-x="278" d="M180 580l-67 142h80l44 -94l88 94h80l-131 -142h-94z" />
<glyph unicode="&#x2d8;" horiz-adv-x="278" d="M413 720q-25 -69 -72.5 -102.5t-112.5 -33.5q-60 0 -92 28.5t-32 85.5v10.5t1 11.5h49q0 -78 87 -78q88 0 123 78h49z" />
<glyph unicode="&#x2d9;" horiz-adv-x="278" d="M186 590l21 94h88l-21 -94h-88z" />
<glyph unicode="&#x2da;" horiz-adv-x="278" d="M352 701q0 -23 -10 -44.5t-27 -38.5t-39.5 -27.5t-47.5 -10.5q-36 0 -58 22.5t-22 56.5q0 24 10.5 46t28 38.5t40 26.5t45.5 10q36 0 58 -22.5t22 -56.5zM237 624q12 0 24.5 5.5t22.5 14.5t16.5 21.5t6.5 26.5q0 19 -12.5 31.5t-32.5 12.5q-13 0 -25.5 -5.5t-22.5 -15 t-16 -22t-6 -26.5q0 -19 12.5 -31t32.5 -12z" />
<glyph unicode="&#x2db;" horiz-adv-x="278" d="M205 -153q-9 -6 -26 -16t-39 -19t-47.5 -15.5t-51.5 -6.5q-41 0 -60.5 17t-19.5 46q0 60 62.5 102.5t195.5 63.5l-2 -10q-22 -7 -52.5 -18.5t-58 -28.5t-47 -39t-19.5 -50q0 -37 49 -37q11 0 25 4t28.5 10.5t28.5 13.5t25 13z" />
<glyph unicode="&#x2dc;" horiz-adv-x="278" d="M426 705q-6 -18 -18 -37t-28 -34.5t-35 -25.5t-39 -10t-38.5 6t-36 13t-35 13t-35.5 6q-16 0 -32 -15t-20 -32h-50q14 45 47.5 77t83.5 32q21 0 38 -6t32.5 -12.5t30 -12.5t29.5 -6q19 0 34 12t22 32h50z" />
<glyph unicode="&#x2dd;" horiz-adv-x="278" d="M162 580h-63l110 142h107zM306 580h-67l120 142h109z" />
<glyph unicode="&#x3a9;" horiz-adv-x="798" d="M441 0l9 40q37 19 76 50t73 73t60.5 94.5t40.5 115.5q11 51 6 104t-27.5 96t-64 70.5t-104.5 27.5q-60 0 -113.5 -24t-96.5 -64.5t-73.5 -95.5t-44.5 -116q-13 -59 -9.5 -111t19 -94.5t39.5 -74.5t53 -51l-9 -40h-258l12 54h168l1 3q-25 24 -45.5 56.5t-33 73.5t-14 89 t10.5 104q17 76 56.5 140t94.5 109.5t121 71t135 25.5q73 0 126 -28t85 -75.5t41.5 -109.5t-5.5 -129q-13 -58 -37.5 -108t-55.5 -91.5t-66 -74t-68 -53.5l-1 -3h170l-12 -54h-259z" />
<glyph unicode="&#x3bc;" horiz-adv-x="556" d="M355 0l16 70h-2q-39 -35 -83 -57.5t-89 -22.5q-43 0 -75 16l-44 -198h-72l158 712h72l-83 -376q-11 -52 7.5 -72t57.5 -20q20 0 43 7.5t45 19t42.5 25.5t35.5 27l86 389h72l-115 -520h-72z" />
<glyph unicode="&#x3c0;" horiz-adv-x="616" d="M406 0q-5 12 -2.5 45.5t16.5 100.5l73 328h-212q-14 -51 -36 -118.5t-48 -135t-53 -126.5t-50 -94h-67q25 40 52 99t52 124.5t47 131t36 119.5q-55 0 -83 -4t-47 -10l-2 44q23 11 59.5 18.5t97.5 7.5h432l-19 -56h-92l-71 -320q-8 -34 -12 -58.5t-5.5 -42.5t-1 -30.5 t1.5 -22.5h-66z" />
<glyph unicode="&#xe00;" horiz-adv-x="195" />
<glyph unicode="&#xe01;" horiz-adv-x="616" d="M395 0l81 375q15 69 -15 108t-110 39q-57 0 -100.5 -19.5t-66.5 -42.5l-2 -8q15 -2 30.5 -7t30.5 -11.5t28 -14t22 -14.5l-8 -36q-45 -5 -75 -36.5t-41 -86.5l-52 -246h-81l52 245q11 55 42 92.5t69 51.5q-21 11 -53.5 17.5t-63.5 6.5l10 46q16 25 43 49t61.5 43 t75.5 30.5t85 11.5q57 0 99.5 -16t68 -45t33.5 -69t-2 -88l-80 -375h-81z" />
<glyph unicode="&#xe02;" horiz-adv-x="584" d="M103 0l15 73h65l38 179q7 31 26 56t39.5 49.5t36.5 50.5t16 61q0 28 -21 45.5t-56 17.5q-14 0 -28 -1.5t-23 -5.5v-2q32 -2 53 -23t21 -57q0 -23 -9 -41.5t-24 -32.5t-35.5 -21.5t-43.5 -7.5q-42 0 -71 24t-29 72q0 32 16.5 60.5t44 50t63 34t73.5 12.5q76 0 111 -35 t35 -87q0 -36 -15.5 -64.5t-35.5 -54t-38.5 -49.5t-24.5 -51l-38 -179h125l110 512h81l-125 -585h-352zM226 442q0 16 -10 27.5t-29 11.5q-22 0 -36 -13.5t-14 -36.5q0 -16 10.5 -27t26.5 -11q24 0 38 13t14 36z" />
<glyph unicode="&#xe03;" horiz-adv-x="631" d="M144 0l15 73h70l46 211q13 63 36.5 99t59.5 65l32 26l-24 43l-72 -46h-5q-5 27 -23.5 45t-50.5 18q-28 0 -50 -16t-27 -33l1 -1q11 8 22.5 13t31.5 5q35 0 56 -23.5t21 -55.5q0 -49 -32.5 -77.5t-78.5 -28.5q-42 0 -72 27.5t-30 75.5q0 42 14 74.5t37.5 54t53 33 t60.5 11.5q32 0 57.5 -13.5t33.5 -32.5l66 38q10 5 19.5 5.5t15.5 -10.5l48 -91q6 -11 3 -23t-17 -23l-26 -21q-18 -14 -30.5 -28t-21.5 -30t-15.5 -35.5t-12.5 -46.5l-45 -209h126l110 512h81l-125 -585h-358zM226 418q0 14 -9 26t-29 12q-22 0 -36 -13t-14 -33 q0 -15 11 -27t29 -12q21 0 34.5 12.5t13.5 34.5z" />
<glyph unicode="&#xe04;" horiz-adv-x="664" d="M407 318q0 16 -10.5 29t-30.5 13q-24 0 -37 -14.5t-13 -36.5q0 -15 11.5 -26.5t28.5 -11.5q23 0 37 12t14 35zM456 0l73 340q17 82 -12.5 132t-111.5 50q-42 0 -76 -13.5t-60.5 -38t-44 -58t-25.5 -72.5l-23 -108q-6 -27 -17.5 -64.5t-22.5 -68.5l6 -2q11 30 26 62.5 t34 66.5l54 97q23 43 50 66.5t70 23.5q36 0 61.5 -23.5t25.5 -62.5q0 -50 -31.5 -80t-79.5 -30q-26 0 -47 13t-26 31l-2 -1q-5 -17 -11.5 -34.5t-16.5 -35.5l-103 -190h-99l73 340q11 53 34.5 99t59.5 80.5t85.5 54t112.5 19.5q60 0 102.5 -20.5t67.5 -55.5t32 -80.5 t-4 -96.5l-73 -340h-81z" />
<glyph unicode="&#xe05;" horiz-adv-x="676" d="M408 318q0 16 -10.5 29t-30.5 13q-24 0 -37 -14.5t-13 -36.5q0 -15 11.5 -26.5t28.5 -11.5q23 0 37 12t14 35zM467 0l90 421q10 45 1.5 71t-40.5 26q-21 0 -38.5 -9.5t-39.5 -23.5l-39 -24h-10l-29 24q-17 14 -30 23.5t-34 9.5q-32 0 -51.5 -26t-29.5 -71l-40 -189 q-6 -27 -17.5 -64.5t-22.5 -68.5l6 -2q11 30 26 62.5t34 66.5l54 97q23 43 50 66.5t70 23.5q36 0 61.5 -23.5t25.5 -62.5q0 -50 -31.5 -80t-79.5 -30q-26 0 -47 13t-26 31l-2 -1q-5 -17 -11.5 -34.5t-16.5 -35.5l-103 -190h-99l91 423q7 33 19.5 63.5t31.5 53t45.5 36 t61.5 13.5q31 0 50 -10t34 -24l22 -21l31 21q21 14 45 24t55 10q33 0 56.5 -13.5t36.5 -37t15.5 -54.5t-4.5 -67l-90 -417h-81z" />
<glyph unicode="&#xe06;" horiz-adv-x="726" d="M260 190q-88 -21 -88 -96q0 -38 28 -38q31 0 40 43zM507 0q-5 31 -18 61.5t-34 56.5t-50 45t-66 27l-21 -95q-12 -54 -45.5 -78.5t-79.5 -24.5q-44 0 -72 27t-28 71q0 36 14 65t38.5 50.5t57 35.5t69.5 19l9 42q6 28 14.5 48.5t20 37.5t25.5 31t32 29l32 26l-24 43 l-72 -46h-5q-5 27 -23.5 45t-50.5 18q-28 0 -50 -16t-27 -33l1 -1q11 8 22.5 13t31.5 5q35 0 56 -23.5t21 -55.5q0 -49 -32.5 -77.5t-78.5 -28.5q-42 0 -72 27.5t-30 75.5q0 42 14 74.5t37.5 54t53 33t60.5 11.5q32 0 57.5 -13.5t33.5 -32.5l66 38q10 5 19.5 5.5t15.5 -10.5 l48 -91q6 -11 3 -23t-17 -23l-26 -21q-18 -14 -30 -26t-20.5 -25t-14 -29t-10.5 -40l-9 -42q32 -5 60 -18.5t51 -31.5t40.5 -38.5t29.5 -41.5h8l98 455h82l-125 -585h-90zM228 418q0 14 -9 26t-29 12q-22 0 -36 -13t-14 -33q0 -15 11 -27t29 -12q21 0 34.5 12.5t13.5 34.5z " />
<glyph unicode="&#xe07;" horiz-adv-x="484" d="M275 0l-240 313l59 51l138 -179q20 -25 37 -53t25 -50l6 2q-1 6 0.5 18.5t3.5 27.5t5.5 31.5t6.5 31.5l35 162q4 17 10 28.5t14 22.5l-3 2q-9 -8 -19.5 -11t-27.5 -3q-34 0 -59 25.5t-25 62.5q0 48 33.5 79.5t85.5 31.5q28 0 49 -9.5t34 -25t17 -35.5t0 -41l-104 -482 h-81zM395 499q0 16 -11 26.5t-28 10.5q-21 0 -36 -12t-15 -35q0 -16 11.5 -27t28.5 -11q23 0 36.5 13t13.5 35z" />
<glyph unicode="&#xe08;" horiz-adv-x="595" d="M329 312q0 17 -11.5 28.5t-28.5 11.5q-23 0 -37 -12.5t-14 -35.5q0 -16 11.5 -27.5t28.5 -11.5q23 0 37 12t14 35zM370 0l-28 184q-2 15 -1 31.5t5 33.5l-3 1q-11 -18 -30 -28.5t-46 -10.5q-35 0 -60 23t-25 61q0 53 33 82.5t80 29.5q45 0 68.5 -27t31.5 -75l13 -80 q5 -33 5.5 -66.5t-1.5 -63.5l7 2q3 31 8.5 69.5t11.5 65.5l24 108q9 39 6.5 72.5t-17.5 58t-43.5 38t-72.5 13.5q-81 0 -131 -41.5t-66 -113.5l-5 -23h-81l5 23q10 49 33.5 90.5t59.5 71.5t84 47t109 17q63 0 106 -20.5t67 -55t30 -80.5t-5 -97l-73 -340h-99z" />
<glyph unicode="&#xe09;" horiz-adv-x="616" d="M367 103q-12 -15 -24.5 -28.5t-30.5 -24.5l-81 -50h-71l47 215q-26 8 -40 31t-14 49q0 24 9 44.5t25.5 35.5t39 23.5t48.5 8.5q46 0 71.5 -25.5t25.5 -60.5q0 -36 -24.5 -64t-59.5 -39l-29 -130l126 80q14 9 31 16.5t34 10.5l34 161q16 74 -18.5 120t-120.5 46 q-83 0 -137 -42.5t-68 -111.5l-5 -24h-81l5 24q10 47 33.5 88t60.5 71.5t87 48t113 17.5t107.5 -18.5t71 -50.5t34.5 -75.5t-2 -92.5l-35 -163q20 -8 35.5 -29t15.5 -56q0 -28 -10 -49.5t-26.5 -36.5t-39.5 -22.5t-48 -7.5q-47 0 -70.5 23.5t-23.5 54.5q0 16 8 32zM461 47 q25 0 39.5 14.5t14.5 40.5q0 17 -12 28.5t-30 11.5q-26 0 -40 -14t-14 -39q0 -17 12 -29.5t30 -12.5zM309 313q0 16 -11 28t-31 12q-22 0 -37 -13t-15 -36q0 -16 11 -28t30 -12q23 0 38 13t15 36z" />
<glyph unicode="&#xe0a;" horiz-adv-x="604" d="M469 353q6 28 1 40.5t-18 22.5l-25 19l-37 -30q-26 -21 -35.5 -44t-16.5 -53l-51 -235h122zM118 0l15 73h73l51 235q9 42 28.5 77t63.5 70l28 22q-21 20 -49.5 37.5t-65.5 17.5q-14 0 -28 -1.5t-23 -5.5v-2q32 -2 53 -23t21 -57q0 -23 -9 -41.5t-24 -32.5t-35.5 -21.5 t-43.5 -7.5q-42 0 -71 24t-29 72q0 32 16.5 60.5t44 50t63 34t73.5 12.5q29 0 52.5 -4t43.5 -11.5t38 -19.5t37 -28l127 99l43 -51l-116 -92l27 -23q25 -20 31 -46t-3 -66l-76 -351h-356zM226 442q0 16 -10 27.5t-29 11.5q-22 0 -36 -13.5t-14 -36.5q0 -16 10.5 -27 t26.5 -11q24 0 38 13t14 36z" />
<glyph unicode="&#xe0b;" horiz-adv-x="611" d="M475 350q5 26 -0.5 40t-16.5 27l-15 17l-40 -33q-26 -21 -38 -42t-19 -51l-51 -235h121zM125 0l15 73h74l51 235q9 42 28.5 76t64.5 69l41 32l-24 29l-68 -43h-5q-5 27 -23.5 45t-50.5 18q-28 0 -50 -16t-27 -33l1 -1q11 8 22.5 13t31.5 5q35 0 56 -23.5t21 -55.5 q0 -49 -32.5 -77.5t-78.5 -28.5q-42 0 -72 27.5t-30 75.5q0 42 14 74.5t37.5 54t53 33t60.5 11.5q32 0 57.5 -13.5t33.5 -32.5l65 39q21 13 36 -2l35 -43l109 88l44 -53l-109 -87l22 -24q12 -13 19.5 -24.5t11 -24t3 -28.5t-5.5 -38l-75 -350h-356zM226 418q0 14 -9 26 t-29 12q-22 0 -36 -13t-14 -33q0 -15 11 -27t29 -12q21 0 34.5 12.5t13.5 34.5z" />
<glyph unicode="&#xe0c;" horiz-adv-x="921" d="M223 102q0 16 -11 26.5t-29 10.5q-24 0 -37 -13.5t-13 -35.5q0 -16 11 -26t27 -10q22 0 37 11.5t15 36.5zM700 0q-10 63 -53.5 109.5t-116.5 63.5l-18 -85q-11 -51 -42 -73.5t-72 -22.5q-45 0 -68 27.5t-23 65.5q0 34 13.5 61.5t36 47t50 31t56.5 13.5l30 137 q15 69 -15.5 108t-110.5 39q-57 0 -101 -19.5t-67 -42.5l-2 -8q15 -2 30.5 -7t30.5 -11.5t28 -14t22 -14.5l-8 -36q-45 -5 -78 -36.5t-44 -86.5l-2 -12q-3 -19 -9.5 -31.5t-13.5 -23.5l2 -2q8 7 18.5 10.5t27.5 3.5q36 0 60.5 -23t24.5 -64q0 -48 -34 -78t-87 -30 q-24 0 -44 8t-33.5 22.5t-19 34.5t-0.5 44l29 141q11 55 45 92t72 51q-21 11 -53.5 17.5t-63.5 6.5l10 46q16 25 43 49t62 43t76 30.5t85 11.5q57 0 99.5 -16t68.5 -45t34 -69t-2 -88l-29 -137q64 -11 113 -45.5t73 -76.5h5l102 469h81l-126 -585h-92zM452 177 q-78 -14 -78 -86q0 -19 7 -28.5t18 -9.5q13 0 22 9.5t14 33.5z" />
<glyph unicode="&#xe0d;" horiz-adv-x="918" d="M223 102q0 16 -11 26.5t-29 10.5q-24 0 -37 -13.5t-13 -35.5q0 -16 11 -26t27 -10q22 0 37 11.5t15 36.5zM396 0l81 375q15 69 -11.5 108t-106.5 39q-57 0 -97 -19.5t-63 -42.5l-2 -8q15 -2 30.5 -7t30.5 -11.5t28 -14t22 -14.5l-8 -36q-45 -5 -78 -36.5t-44 -86.5 l-2 -12q-3 -19 -9.5 -31.5t-13.5 -23.5l2 -2q8 7 18.5 10.5t27.5 3.5q36 0 60.5 -23t24.5 -64q0 -48 -34 -78t-87 -30q-24 0 -44 8t-33.5 22.5t-19 34.5t-0.5 44l29 141q11 55 45 92t72 51q-21 11 -53.5 17.5t-63.5 6.5l10 46q16 25 42 49t59 43t73 30.5t84 11.5 q57 0 98 -16t65.5 -45t31.5 -69t-3 -88l-64 -304h230l111 514h81l-126 -585h-393zM771 -84q-20 -93 -86 -142.5t-156 -49.5q-40 0 -72.5 9.5t-55 26.5t-35 40t-12.5 49q0 48 31 77.5t79 29.5q42 0 66 -23t24 -55q0 -35 -22.5 -54.5t-48.5 -26.5v-2q18 -5 44 -5 q66 0 109.5 32t56.5 94l7 33h78zM496 -128q0 14 -10 24t-28 10q-20 0 -32.5 -11.5t-12.5 -32.5q0 -14 9.5 -23.5t25.5 -9.5q20 0 34 11t14 32z" />
<glyph unicode="&#xe0e;" horiz-adv-x="665" d="M145 -176q0 18 -12.5 31t-31.5 13q-26 0 -42 -15t-16 -41q0 -17 12 -30.5t32 -13.5q26 0 42 15t16 41zM343 -293h-10l-83 60q-17 12 -28.5 24.5t-14.5 25.5h-4q-4 -20 -14 -39t-25.5 -33.5t-36.5 -23t-48 -8.5q-49 0 -75 27.5t-26 65.5q0 25 9 47t26 38t40.5 25t52.5 9 q16 0 28.5 -4t17.5 -9l4 3q-7 14 -2 38l2 9h79l-17 -75l119 -88l94 83l106 493q15 69 -15 108t-110 39q-57 0 -100.5 -19.5t-66.5 -42.5l-2 -8q15 -2 30.5 -7t30.5 -11.5t28 -14t22 -14.5l-8 -36q-41 -5 -60 -30.5t-31 -72.5l-36 -171q-10 -45 -39 -72t-83 -27q-45 0 -72 25 t-27 64q0 26 9.5 46.5t24.5 34.5t35 21.5t41 7.5t34.5 -5.5t20.5 -13.5l4 2q-3 11 -3.5 24t3.5 32l7 31q11 48 32 79t54 45q-21 11 -53.5 17.5t-63.5 6.5l10 46q16 25 43 49t61.5 43t75.5 30.5t85 11.5q57 0 99 -16t67.5 -45t34 -69t-1.5 -88l-112 -523zM152 102 q0 17 -12 27t-29 10q-23 0 -36 -12.5t-13 -35.5q0 -17 11 -27t28 -10q22 0 36.5 12t14.5 36z" />
<glyph unicode="&#xe0f;" horiz-adv-x="664" d="M86 -234q25 0 40 15.5t15 41.5q0 17 -12.5 30t-30.5 13q-25 0 -40 -15t-15 -41q0 -20 12 -32t31 -12zM379 -293h-10l-50 60l-74 -60h-11l-21 28q-11 15 -16 27t-2 26h-4q-5 -14 -14.5 -28t-23.5 -25t-32.5 -18t-42.5 -7q-42 0 -71.5 25.5t-29.5 70.5q0 24 9.5 45.5t26 37 t39 24.5t48.5 9q17 0 28 -3t17 -8l2 1q-1 7 -1 15t4 21l2 7h74l-21 -94l49 -73l66 54h9l43 -52l48 43l117 542q15 69 -15 108t-110 39q-57 0 -100.5 -19.5t-66.5 -42.5l-2 -8q15 -2 30.5 -7t30.5 -11.5t28 -14t22 -14.5l-8 -36q-41 -5 -60 -30.5t-31 -72.5l-36 -171 q-10 -45 -39 -72t-83 -27q-45 0 -72 25t-27 64q0 26 9.5 46.5t24.5 34.5t35 21.5t41 7.5t34.5 -5.5t20.5 -13.5l4 2q-3 11 -3.5 24t3.5 32l7 31q11 48 32 79t54 45q-21 11 -53.5 17.5t-63.5 6.5l10 46q16 25 43 49t61.5 43t75.5 30.5t85 11.5q57 0 99.5 -16t68 -45t33.5 -69 t-2 -88l-121 -566zM152 102q0 17 -12 27t-29 10q-23 0 -36 -12.5t-13 -35.5q0 -17 11 -27t28 -10q22 0 36.5 12t14.5 36z" />
<glyph unicode="&#xe10;" horiz-adv-x="544" d="M389 -121q0 17 -10 26t-26 9q-17 0 -29.5 -10.5t-12.5 -29.5q0 -13 9.5 -23.5t25.5 -10.5q18 0 30.5 10t12.5 29zM246 260q0 16 -11.5 27.5t-28.5 11.5q-22 0 -36 -12.5t-14 -35.5q0 -16 12 -27t29 -11q23 0 36 12t13 35zM272 0l-18 124q-3 20 -0.5 34.5t7.5 32.5h-4 q-13 -16 -29.5 -24.5t-41.5 -8.5q-18 0 -34 6.5t-27.5 18t-18.5 27t-7 33.5q0 26 9 46t25 34t36 21t43 7q45 0 70.5 -26.5t28.5 -67.5l9 -109q3 -46 -3 -90h6q5 25 15 50t20 52l44 125q9 26 9 45t-14 31.5t-43.5 18.5t-78.5 6q-54 0 -104.5 -8t-79.5 -19h-10l12 56 q6 28 18 59.5t34.5 58t57 43.5t85.5 17q24 0 46.5 -5.5t43.5 -12t42 -12t42 -5.5q51 0 65 61q17 -6 34 -11t36 -10q-12 -51 -47.5 -81t-83.5 -30q-26 0 -46.5 6t-41.5 12.5t-44 12.5t-52 6q-43 0 -72 -22.5t-35 -51.5l-3 -14q18 4 50.5 9.5t83.5 5.5q38 0 76.5 -8 t65.5 -27.5t36.5 -54t-11.5 -86.5l-108 -275h-93zM97 -244q0 17 -12.5 30t-30.5 13q-26 0 -41 -15t-15 -41q0 -17 12 -30t31 -13q25 0 40.5 15t15.5 41zM307 -359l-41 61l-65 -61h-10l-20 27q-11 15 -16.5 32t-2.5 32h-4q-6 -16 -15.5 -31.5t-24 -27.5t-34 -19.5t-45.5 -7.5 q-39 0 -66.5 25t-27.5 64q0 53 33.5 85.5t83.5 32.5q21 0 33 -5t19 -10l4 2q-5 7 -5 19t2 22l2 8h75l-21 -95l49 -73l58 54h6l34 -54l42 43l3 12q2 8 4.5 13.5t6.5 11.5l-2 2q-6 -5 -12 -8.5t-22 -3.5q-28 0 -51 22t-23 56q0 43 31 68.5t74 25.5t68 -28t15 -75l-25 -119 l-100 -100h-10z" />
<glyph unicode="&#xe11;" horiz-adv-x="759" d="M550 0l95 443q15 71 -42 71h-10l-274 -514h-105l67 313q9 42 23 68t37 49l46 45l-23 43l-57 -47h-5q-5 27 -23.5 45t-50.5 18q-28 0 -50 -16t-27 -33l1 -1q11 8 22.5 13t31.5 5q35 0 56 -23.5t21 -55.5q0 -49 -32.5 -77.5t-78.5 -28.5q-42 0 -72 27.5t-30 75.5 q0 42 14 74.5t37.5 54t53 33t60.5 11.5q32 0 57.5 -13.5t33.5 -32.5l44 35q9 8 20.5 9t16.5 -9l50 -93q11 -21 -14 -46l-26 -26q-11 -11 -19 -20t-14.5 -20.5t-12 -26.5t-9.5 -37l-14 -68q-7 -32 -19.5 -74.5t-26.5 -83.5h8q12 39 27 79t34 76l182 344h55q74 0 103 -39.5 t13 -111.5l-94 -435h-80zM226 418q0 14 -9 26t-29 12q-22 0 -36 -13t-14 -33q0 -15 11 -27t29 -12q21 0 34.5 12.5t13.5 34.5z" />
<glyph unicode="&#xe12;" horiz-adv-x="976" d="M758 0q-9 63 -54 109.5t-119 63.5l-18 -84q-11 -48 -41.5 -72.5t-71.5 -24.5q-45 0 -68.5 26t-23.5 69q0 34 13.5 61.5t35.5 46.5t50 30t56 13l40 183q10 45 1.5 71t-40.5 26q-21 0 -38.5 -9.5t-39.5 -23.5l-39 -24h-10l-29 24q-17 14 -30 23.5t-34 9.5q-32 0 -51.5 -26 t-29.5 -71l-45 -208q-11 -50 -20 -84.5t-20 -57.5l4 -2q11 14 25 29.5t28 27.5l75 61q11 9 27 18t27 13l1 2q-24 4 -47 25t-23 57q0 22 8 42.5t23.5 36t37 24.5t48.5 9q42 0 69.5 -24.5t27.5 -63.5q0 -38 -19.5 -61.5t-49.5 -48.5l-262 -216h-84l91 423q7 33 19.5 63.5 t31.5 53t45.5 36t61.5 13.5q31 0 50 -10t34 -24l22 -21l31 21q21 14 45 24t55 10q33 0 56.5 -13.5t36.5 -37t16 -54.5t-5 -67l-40 -179q65 -11 115 -45t73 -78h5l100 470h81l-125 -585h-89zM507 177q-78 -14 -78 -86q0 -19 7 -28.5t18 -9.5q13 0 22 9.5t14 33.5zM401 318 q0 17 -11.5 28.5t-29.5 11.5q-23 0 -36.5 -13t-13.5 -36q0 -15 11.5 -26.5t28.5 -11.5q23 0 37 12t14 35z" />
<glyph unicode="&#xe13;" horiz-adv-x="913" d="M223 105q0 34 -37 34q-24 0 -38.5 -14.5t-14.5 -37.5q0 -16 9.5 -24.5t25.5 -8.5q22 0 38.5 13t16.5 38zM832 585h81l-80 -371q44 -22 44 -80q0 -33 -12 -59.5t-32 -45t-46.5 -28t-54.5 -9.5q-44 0 -70.5 23.5t-26.5 65.5q0 30 14.5 54t34.5 35l-1 4q-27 -4 -56.5 -21 t-57 -42t-51.5 -54t-39 -57h-83l81 377q15 69 -13 107t-105 38q-54 0 -95.5 -19.5t-65.5 -42.5l-2 -8q30 -5 62 -19t50 -28l-8 -36q-46 -5 -79.5 -36.5t-42.5 -86.5l-2 -12q-3 -19 -8 -30.5t-12 -22.5l2 -2q9 8 20 12t30 4q32 0 55 -22t23 -59q0 -24 -10.5 -45.5t-28 -37.5 t-41.5 -25.5t-51 -9.5q-52 0 -75 30t-13 75l30 145q11 55 44.5 90.5t72.5 49.5q-21 11 -53.5 17.5t-63.5 6.5l10 49q18 25 46 49t62.5 43t75 30.5t84.5 11.5q112 0 158.5 -57.5t24.5 -158.5l-55 -253h3q20 25 46 47t55 37.5t60 24.5t61 9q14 0 29 -3zM814 118q0 21 -12 33.5 t-33 12.5q-30 0 -50 -19.5t-20 -51.5q0 -20 12 -32t33 -12q29 0 49.5 18.5t20.5 50.5z" />
<glyph unicode="&#xe14;" horiz-adv-x="664" d="M401 318q0 17 -11.5 28.5t-29.5 11.5q-23 0 -36.5 -13t-13.5 -36q0 -15 11.5 -26.5t28.5 -11.5q23 0 37 12t14 35zM456 0l73 340q17 82 -12.5 132t-111.5 50q-42 0 -76 -13.5t-60 -38t-43.5 -58t-26.5 -72.5l-28 -127q-11 -50 -19.5 -84.5t-19.5 -57.5l4 -2 q11 14 25 29.5t28 27.5l75 61q11 9 27 18t27 13l1 2q-24 4 -47 25t-23 57q0 22 8 42.5t23.5 36t37 24.5t48.5 9q42 0 69.5 -24.5t27.5 -63.5q0 -38 -19.5 -61.5t-49.5 -48.5l-262 -216h-85l73 340q11 53 34.5 99t59.5 80.5t85.5 54t112.5 19.5q60 0 102.5 -20.5t67.5 -55.5 t32 -80.5t-4 -96.5l-73 -340h-81z" />
<glyph unicode="&#xe15;" horiz-adv-x="676" d="M401 318q0 17 -11.5 28.5t-29.5 11.5q-23 0 -36.5 -13t-13.5 -36q0 -15 11.5 -26.5t28.5 -11.5q23 0 37 12t14 35zM467 0l90 421q10 45 1.5 71t-40.5 26q-21 0 -38.5 -9.5t-39.5 -23.5l-39 -24h-10l-29 24q-17 14 -30 23.5t-34 9.5q-32 0 -51.5 -26t-29.5 -71l-45 -208 q-11 -50 -20 -84.5t-20 -57.5l4 -2q11 14 25 29.5t28 27.5l75 61q11 9 27 18t27 13l1 2q-24 4 -47 25t-23 57q0 22 8 42.5t23.5 36t37 24.5t48.5 9q42 0 69.5 -24.5t27.5 -63.5q0 -38 -19.5 -61.5t-49.5 -48.5l-262 -216h-84l91 423q7 33 19.5 63.5t31.5 53t45.5 36 t61.5 13.5q31 0 50 -10t34 -24l22 -21l31 21q21 14 45 24t55 10q33 0 56.5 -13.5t36.5 -37t15.5 -54.5t-4.5 -67l-90 -417h-81z" />
<glyph unicode="&#xe16;" horiz-adv-x="620" d="M223 102q0 16 -11 26.5t-29 10.5q-24 0 -37 -13.5t-13 -35.5q0 -16 11 -26t27 -10q22 0 37 11.5t15 36.5zM412 0l81 375q15 69 -15.5 108t-110.5 39q-57 0 -101 -19.5t-67 -42.5l-2 -8q15 -2 30.5 -7t30.5 -11.5t28 -14t22 -14.5l-8 -36q-45 -5 -78 -36.5t-44 -86.5 l-2 -12q-3 -19 -9.5 -31.5t-13.5 -23.5l2 -2q8 7 18.5 10.5t27.5 3.5q36 0 60.5 -23t24.5 -64q0 -48 -34 -78t-87 -30q-24 0 -44 8t-33.5 22.5t-19 34.5t-0.5 44l29 141q11 55 45 92t72 51q-21 11 -53.5 17.5t-63.5 6.5l10 46q16 25 43 49t62 43t76 30.5t85 11.5 q57 0 99.5 -16t68.5 -45t34 -69t-2 -88l-80 -375h-81z" />
<glyph unicode="&#xe17;" horiz-adv-x="662" d="M453 0l95 443q15 71 -42 71h-10l-274 -514h-105l76 355q4 17 10 28.5t14 22.5l-3 2q-9 -8 -19.5 -11t-27.5 -3q-34 0 -59 25.5t-25 62.5q0 48 33.5 79.5t85.5 31.5q28 0 49 -9.5t33.5 -25t16.5 -35.5t0 -41l-50 -237q-7 -32 -19.5 -74.5t-26.5 -83.5h8q12 39 27 79t34 76 l182 344h55q74 0 103 -39.5t13 -111.5l-94 -435h-80zM237 499q0 16 -11 26.5t-28 10.5q-21 0 -36 -12t-15 -35q0 -16 11.5 -27t28.5 -11q23 0 36.5 13t13.5 35z" />
<glyph unicode="&#xe18;" horiz-adv-x="563" d="M410 245q9 41 -8 66t-63 25h-99l-57 -265h190zM23 0l15 71h66l56 263h-87l18 85q7 31 27 62t53 56t79 40.5t106 15.5q57 0 99.5 -12.5t69.5 -34t37.5 -49.5t3.5 -59l-3 -13h-81l3 12q8 33 -24.5 59t-112.5 26q-41 0 -72.5 -8.5t-53 -22.5t-34 -32t-15.5 -37l-3 -17h173 q49 0 80.5 -13.5t48 -36t20 -51t-2.5 -59.5l-52 -245h-414z" />
<glyph unicode="&#xe19;" horiz-adv-x="648" d="M485 49q28 0 46 16.5t18 48.5q0 21 -13.5 35.5t-36.5 14.5q-29 0 -46.5 -18t-17.5 -49q0 -20 13.5 -34t36.5 -14zM566 585h81l-79 -374q20 -11 33.5 -33.5t13.5 -54.5q0 -33 -10.5 -57.5t-29 -41t-43 -24.5t-51.5 -8q-51 0 -80.5 27t-29.5 68q0 31 13.5 53t32.5 33l-1 4 q-32 -3 -64 -20.5t-60.5 -43t-52.5 -55.5t-40 -58h-82l76 355q4 17 10 28.5t14 22.5l-3 2q-9 -8 -19.5 -11t-27.5 -3q-34 0 -59 25.5t-25 62.5q0 48 33.5 79.5t85.5 31.5q28 0 49 -9.5t33.5 -25t16.5 -35.5t0 -41l-75 -345h10q19 24 45 43t55.5 33t60 21.5t60.5 7.5 q6 0 16.5 -1t18.5 -3zM237 499q0 16 -11 26.5t-28 10.5q-21 0 -36 -12t-15 -35q0 -16 11.5 -27t28.5 -11q23 0 36.5 13t13.5 35z" />
<glyph unicode="&#xe1a;" horiz-adv-x="642" d="M44 0l16 71h72l61 284q4 17 10 28.5t14 22.5l-3 2q-9 -8 -19.5 -11t-27.5 -3q-34 0 -59 25.5t-25 62.5q0 48 33.5 79.5t85.5 31.5q28 0 49 -9.5t34 -25t17 -35.5t0 -41l-88 -411h234l110 514h81l-126 -585h-469zM237 499q0 16 -11 26.5t-28 10.5q-21 0 -36 -12t-15 -35 q0 -16 11.5 -27t28.5 -11q23 0 36.5 13t13.5 35z" />
<glyph unicode="&#xe1b;" horiz-adv-x="642" d="M44 0l16 71h72l61 284q4 17 10 28.5t14 22.5l-3 2q-9 -8 -19.5 -11t-27.5 -3q-34 0 -59 25.5t-25 62.5q0 48 33.5 79.5t85.5 31.5q28 0 49 -9.5t34 -25t17 -35.5t0 -41l-88 -411h234l177 827h81l-193 -898h-469zM237 499q0 16 -11 26.5t-28 10.5q-21 0 -36 -12t-15 -35 q0 -16 11.5 -27t28.5 -11q23 0 36.5 13t13.5 35z" />
<glyph unicode="&#xe1c;" horiz-adv-x="662" d="M468 0l-118 237l-220 -237h-81l104 483q10 45 42 77.5t86 32.5q42 0 68.5 -24.5t26.5 -63.5q0 -26 -10 -47t-26.5 -35t-37 -21.5t-41.5 -7.5q-36 0 -49 16l-3 -2q2 -11 1.5 -22.5t-4.5 -30.5l-50 -232l175 188h55l93 -186l99 460h81l-126 -585h-65zM312 498 q0 17 -11.5 27.5t-28.5 10.5q-22 0 -36 -12.5t-14 -35.5q0 -15 10.5 -26t28.5 -11q24 0 37.5 12t13.5 35z" />
<glyph unicode="&#xe1d;" horiz-adv-x="662" d="M468 0l-118 237l-220 -237h-81l104 483q10 45 42 77.5t86 32.5q42 0 68.5 -24.5t26.5 -63.5q0 -26 -10 -47t-26.5 -35t-37 -21.5t-41.5 -7.5q-36 0 -49 16l-3 -2q2 -11 1.5 -22.5t-4.5 -30.5l-50 -232l175 188h55l93 -186l166 773h81l-193 -898h-65zM312 498 q0 17 -11.5 27.5t-28.5 10.5q-22 0 -36 -12.5t-14 -35.5q0 -15 10.5 -26t28.5 -11q24 0 37.5 12t13.5 35z" />
<glyph unicode="&#xe1e;" horiz-adv-x="722" d="M514 0l-58 457l-250 -457h-89l76 355q4 17 10 28.5t14 22.5l-3 2q-9 -8 -19.5 -11t-27.5 -3q-34 0 -59 25.5t-25 62.5q0 48 33.5 79.5t85.5 31.5q57 0 82 -32.5t14 -78.5l-39 -183q-4 -20 -11 -43.5t-15.5 -48.5t-17.5 -49t-16 -44l7 -1q16 41 38.5 88t49.5 96l152 273 h59l37 -273q7 -49 9 -96t1 -88l7 1q1 20 2.5 44t4 49t6 48.5t7.5 43.5l61 286h78l-125 -585h-79zM237 499q0 16 -11 26.5t-28 10.5q-21 0 -36 -12t-15 -35q0 -16 11.5 -27t28.5 -11q23 0 36.5 13t13.5 35z" />
<glyph unicode="&#xe1f;" horiz-adv-x="722" d="M514 0l-58 457l-250 -457h-89l76 355q4 17 10 28.5t14 22.5l-3 2q-9 -8 -19.5 -11t-27.5 -3q-34 0 -59 25.5t-25 62.5q0 48 33.5 79.5t85.5 31.5q57 0 82 -32.5t14 -78.5l-39 -183q-4 -20 -11 -43.5t-15.5 -48.5t-17.5 -49t-16 -44l7 -1q16 41 38.5 88t49.5 96l152 273 h59l37 -273q7 -49 9 -96t1 -88l7 1q1 20 2.5 44t4 49t6 48.5t7.5 43.5l128 598h78l-192 -897h-79zM237 499q0 16 -11 26.5t-28 10.5q-21 0 -36 -12t-15 -35q0 -16 11.5 -27t28.5 -11q23 0 36.5 13t13.5 35z" />
<glyph unicode="&#xe20;" horiz-adv-x="664" d="M456 0l81 375q15 69 -15 108t-110 39q-57 0 -100.5 -19.5t-66.5 -42.5l-2 -8q15 -2 30.5 -7t30.5 -11.5t28 -14t22 -14.5l-8 -36q-41 -5 -60 -30.5t-31 -72.5l-36 -171q-10 -45 -39 -72t-83 -27q-45 0 -72 25t-27 64q0 26 9.5 46.5t24.5 34.5t35 21.5t41 7.5t34.5 -5.5 t20.5 -13.5l4 2q-3 11 -3.5 24t3.5 32l7 31q11 48 32 79t54 45q-21 11 -53.5 17.5t-63.5 6.5l10 46q16 25 43 49t61.5 43t75.5 30.5t85 11.5q57 0 99.5 -16t68 -45t33.5 -69t-2 -88l-80 -375h-81zM152 102q0 17 -12 27t-29 10q-23 0 -36 -12.5t-13 -35.5q0 -17 11 -27 t28 -10q22 0 36.5 12t14.5 36z" />
<glyph unicode="&#xe21;" horiz-adv-x="655" d="M190 190q-45 -11 -67.5 -33.5t-22.5 -60.5q0 -19 8 -29.5t21 -10.5q32 0 41 43zM436 0q-5 31 -18 61.5t-34 56.5t-50 45t-66 27l-22 -97q-11 -49 -42.5 -75t-77.5 -26q-45 0 -74.5 27.5t-29.5 72.5q0 35 14.5 64t39 50t57 35t68.5 19l21 95q4 17 10 28.5t14 22.5l-3 2 q-9 -8 -19.5 -11t-27.5 -3q-34 0 -59 25.5t-25 62.5q0 48 33.5 79.5t85.5 31.5q28 0 49 -9.5t34 -25t17 -35.5t0 -41l-48 -222q63 -14 110.5 -51.5t69.5 -82.5h8l99 459h82l-126 -585h-90zM266 499q0 16 -11 26.5t-28 10.5q-21 0 -36 -12t-15 -35q0 -16 11.5 -27t28.5 -11 q23 0 36.5 13t13.5 35z" />
<glyph unicode="&#xe22;" horiz-adv-x="602" d="M44 0l37 172q10 45 35.5 75t58.5 40v2q-36 11 -61 39.5t-25 78.5q0 39 13.5 72.5t38 58.5t59.5 39.5t78 14.5q46 0 75 -24.5t29 -65.5q0 -26 -9.5 -46.5t-25.5 -34.5t-38 -22t-46 -8q-23 0 -40.5 8.5t-28 21.5t-14 29.5t1.5 33.5l-3 1q-8 -6 -13.5 -27.5t-5.5 -37.5 q0 -39 27 -68.5t81 -29.5h66l-14 -69h-66q-32 0 -58 -22.5t-34 -58.5l-21 -101h267l110 514h81l-126 -585h-429zM321 493q0 17 -11.5 29.5t-30.5 12.5q-23 0 -37 -13t-14 -36q0 -16 12 -28.5t31 -12.5q22 0 36 12.5t14 35.5z" />
<glyph unicode="&#xe23;" horiz-adv-x="498" d="M278 178q-5 19 2 56l14 68q4 17 -2.5 26.5t-24.5 9.5h-199l17 80q7 34 27 65.5t51.5 56t74 39t95.5 14.5q51 0 88.5 -13.5t61.5 -35.5t33 -50.5t2 -59.5l-2 -9h-81l2 10q7 34 -20 60.5t-91 26.5q-67 0 -107.5 -29t-52.5 -75l-3 -11h119q57 0 80.5 -27t12.5 -78l-45 -207 q-10 -45 -39 -72t-83 -27q-45 0 -72 25t-27 64q0 26 9.5 46.5t24.5 34.5t35 21.5t41 7.5t34.5 -5.5t20.5 -13.5zM263 102q0 17 -12 27t-29 10q-23 0 -36 -12.5t-13 -35.5q0 -17 11 -27t28 -10q22 0 36.5 12t14.5 36z" />
<glyph unicode="&#xe24;" horiz-adv-x="620" d="M223 102q0 16 -11 26.5t-29 10.5q-24 0 -37 -13.5t-13 -35.5q0 -16 11 -26t27 -10q22 0 37 11.5t15 36.5zM351 -282l142 657q15 69 -15.5 108t-110.5 39q-57 0 -101 -19.5t-67 -42.5l-2 -8q15 -2 30.5 -7t30.5 -11.5t28 -14t22 -14.5l-8 -36q-45 -5 -78 -36.5t-44 -86.5 l-2 -12q-3 -19 -9.5 -31.5t-13.5 -23.5l2 -2q8 7 18.5 10.5t27.5 3.5q36 0 60.5 -23t24.5 -64q0 -48 -34 -78t-87 -30q-24 0 -44 8t-33.5 22.5t-19 34.5t-0.5 44l29 141q11 55 45 92t72 51q-21 11 -53.5 17.5t-63.5 6.5l10 46q16 25 43 49t62 43t76 30.5t85 11.5 q57 0 99.5 -16t68.5 -45t34 -69t-2 -88l-141 -657h-81z" />
<glyph unicode="&#xe25;" horiz-adv-x="616" d="M408 0q-2 51 -10.5 103.5t-22 99.5t-30 86t-33.5 63q-51 -37 -91.5 -81.5t-63.5 -92.5h3q15 12 40 12q37 0 58.5 -23.5t21.5 -59.5q0 -27 -10 -48t-26.5 -36t-38 -23t-45.5 -8q-45 0 -74 24t-29 70q0 45 22 93t58 94t82 87t93 71h25q22 -23 42 -60t35 -80t24.5 -87 t11.5 -81l6 3q0 38 2 72t11 76l19 90q7 34 2.5 63t-21.5 50t-46 33t-70 12q-77 0 -131.5 -36.5t-71.5 -114.5l-6 -27h-77l6 27q11 51 34.5 92t59.5 70t84 44.5t110 15.5q57 0 100 -17t70 -47.5t36 -72.5t-1 -92l-78 -364h-80zM218 96q0 18 -11.5 29.5t-30.5 11.5 q-23 0 -38.5 -13.5t-15.5 -37.5q0 -17 11.5 -29t30.5 -12q23 0 38.5 13.5t15.5 37.5z" />
<glyph unicode="&#xe26;" horiz-adv-x="664" d="M395 -282l142 657q15 69 -15 108t-110 39q-57 0 -100.5 -19.5t-66.5 -42.5l-2 -8q15 -2 30.5 -7t30.5 -11.5t28 -14t22 -14.5l-8 -36q-41 -5 -60 -30.5t-31 -72.5l-36 -171q-10 -45 -39 -72t-83 -27q-45 0 -72 25t-27 64q0 26 9.5 46.5t24.5 34.5t35 21.5t41 7.5 t34.5 -5.5t20.5 -13.5l4 2q-3 11 -3.5 24t3.5 32l7 31q11 48 32 79t54 45q-21 11 -53.5 17.5t-63.5 6.5l10 46q16 25 43 49t61.5 43t75.5 30.5t85 11.5q57 0 99.5 -16t68 -45t33.5 -69t-2 -88l-141 -657h-81zM152 102q0 17 -12 27t-29 10q-23 0 -36 -12.5t-13 -35.5 q0 -17 11 -27t28 -10q22 0 36.5 12t14.5 36z" />
<glyph unicode="&#xe27;" horiz-adv-x="528" d="M368 178q-5 19 2 56l33 156q6 27 3 51t-15 41.5t-34.5 27.5t-56.5 10q-61 0 -104 -35.5t-56 -92.5l-8 -35h-78l8 35q10 43 31.5 80t53 64t72.5 42t89 15q49 0 86 -15.5t60 -43t31 -64.5t-1 -80l-64 -295q-10 -45 -39 -72t-83 -27q-45 0 -72 25t-27 64q0 26 9.5 46.5 t24.5 34.5t35 21.5t41 7.5t34.5 -5.5t20.5 -13.5zM353 102q0 17 -12 27t-29 10q-23 0 -36 -12.5t-13 -35.5q0 -17 11 -27t28 -10q22 0 36.5 12t14.5 36z" />
<glyph unicode="&#xe28;" horiz-adv-x="668" d="M370 411q60 55 116.5 117t108.5 137l50 -27q-43 -66 -98 -127t-113 -117zM407 318q0 16 -10.5 29t-30.5 13q-24 0 -37 -14.5t-13 -36.5q0 -15 11.5 -26.5t28.5 -11.5q23 0 37 12t14 35zM460 0l73 340q17 82 -13 132t-113 50q-42 0 -76.5 -13.5t-61 -38t-44.5 -58 t-26 -72.5l-23 -108q-6 -27 -17.5 -64.5t-22.5 -68.5l6 -2q11 30 26 62.5t34 66.5l54 97q23 43 50 66.5t70 23.5q36 0 61.5 -23.5t25.5 -62.5q0 -50 -31.5 -80t-79.5 -30q-26 0 -47 13t-26 31l-2 -1q-5 -17 -11.5 -34.5t-16.5 -35.5l-103 -190h-99l73 340q11 53 34.5 99 t60 80.5t86.5 54t113 19.5q60 0 103 -20.5t68 -55.5t32.5 -80.5t-3.5 -96.5l-73 -340h-81z" />
<glyph unicode="&#xe29;" horiz-adv-x="688" d="M44 0l16 71h72l61 284q4 17 10 28.5t14 22.5l-3 2q-9 -8 -19.5 -11t-27.5 -3q-34 0 -59 25.5t-25 62.5q0 48 33.5 79.5t85.5 31.5q28 0 49 -9.5t34 -25t17 -35.5t0 -41l-88 -411h244l33 156q-8 -1 -15 -1h-14q-33 0 -62.5 9.5t-52 26t-35.5 39t-13 48.5q0 48 29.5 78.5 t77.5 30.5q39 0 63 -22t24 -54q0 -35 -22.5 -56t-47.5 -27l-1 -2q8 -4 21 -7t27 -3h17.5t16.5 2l64 296h81l-56 -261q21 17 36 41.5t21 52.5l7 33h74l-7 -33q-14 -63 -53.5 -105.5t-93.5 -64.5l-54 -248h-479zM237 499q0 16 -11 26.5t-28 10.5q-21 0 -36 -12t-15 -35 q0 -16 11.5 -27t28.5 -11q23 0 36.5 13t13.5 35zM436 374q0 16 -9.5 25t-24.5 9q-21 0 -33 -11.5t-12 -32.5q0 -14 9.5 -23.5t25.5 -9.5q20 0 32 11.5t12 31.5z" />
<glyph unicode="&#xe2a;" horiz-adv-x="620" d="M412 0q-2 51 -11.5 103.5t-23.5 99.5t-31 86t-34 63q-51 -37 -91.5 -81.5t-63.5 -92.5h3q15 12 40 12q37 0 58.5 -23.5t21.5 -59.5q0 -27 -10 -48t-26.5 -36t-38 -23t-45.5 -8q-45 0 -74 24t-29 70q0 45 22.5 92.5t58.5 93t81.5 86.5t92.5 73q26 18 50.5 39.5t45.5 44.5 q-11 3 -25 5t-28 2q-38 0 -71.5 -9t-60.5 -27.5t-45.5 -47t-27.5 -67.5l-6 -27h-77l6 27q11 51 35 92t60 70t84.5 44.5t110.5 15.5q57 0 100 -17q20 21 38 43t35 46l50 -27q-15 -23 -33.5 -45.5t-39.5 -45.5q38 -30 53.5 -77t3.5 -106l-78 -364h-80zM460 126q0 38 2 72 t11 76l19 90q17 82 -34 127q-25 -24 -49.5 -46.5t-47.5 -44.5q18 -27 34.5 -61.5t28.5 -72t20 -74.5t10 -69zM218 96q0 18 -11.5 29.5t-30.5 11.5q-23 0 -38.5 -13.5t-15.5 -37.5q0 -17 11.5 -29t30.5 -12q23 0 38.5 13.5t15.5 37.5z" />
<glyph unicode="&#xe2b;" horiz-adv-x="662" d="M513 419q29 22 46.5 42t17.5 40q0 17 -11.5 27.5t-31.5 10.5q-26 0 -40.5 -17t-14.5 -37q0 -19 9.5 -36.5t24.5 -29.5zM452 0l60 282q8 39 -12 53l-309 -335h-76l76 355q4 17 10 28.5t14 22.5l-3 2q-9 -8 -19.5 -11t-27.5 -3q-34 0 -59 25.5t-25 62.5q0 48 33.5 79.5 t85.5 31.5q28 0 49 -9.5t33.5 -25t16.5 -35.5t0 -41l-59 -277q-5 -23 -14 -53.5t-18 -51.5h4q13 22 28.5 44t35.5 44l183 194q-17 18 -30.5 40t-13.5 50q0 52 33 87t96 35q48 0 73 -23.5t25 -59.5q0 -34 -23.5 -66.5t-55.5 -58.5q18 -14 28.5 -36t1.5 -66l-61 -284h-80z M235 499q0 16 -11 26.5t-28 10.5q-21 0 -36 -12t-15 -35q0 -16 11.5 -27t28.5 -11q23 0 36.5 13t13.5 35z" />
<glyph unicode="&#xe2c;" horiz-adv-x="722" d="M672 694q3 25 -18.5 45t-63.5 20q-29 0 -51.5 -11t-22.5 -31q0 -16 19.5 -26t52.5 -10q26 0 48 4t36 9zM514 0l-58 457l-250 -457h-89l76 355q4 17 10 28.5t14 22.5l-3 2q-9 -8 -19.5 -11t-27.5 -3q-34 0 -59 25.5t-25 62.5q0 48 33.5 79.5t85.5 31.5q57 0 81.5 -32.5 t14.5 -78.5l-39 -183q-4 -20 -11 -43.5t-15.5 -48.5t-17.5 -49t-16 -44l7 -1q16 41 38.5 88t49.5 96l152 273h59l37 -273q7 -49 9 -96t1 -88l7 1q1 20 2.5 44t4 49t6 48.5t7.5 43.5l70 331q-17 -4 -32 -7t-38 -3q-29 0 -54.5 6.5t-44.5 18.5t-30 30t-11 41q0 42 40 71.5 t113 29.5q61 0 98 -26.5t44 -61.5q23 15 47.5 39t42.5 53l54 -36q-35 -45 -68.5 -76t-75.5 -51l-141 -658h-79zM237 499q0 16 -11 26.5t-28 10.5q-21 0 -36 -12t-15 -35q0 -16 11.5 -27t28.5 -11q23 0 36.5 13t13.5 35z" />
<glyph unicode="&#xe2d;" horiz-adv-x="619" d="M93 0l65 306q10 45 42 73t84 28q21 0 38.5 -7t30 -19t19.5 -28t7 -34q0 -26 -9.5 -46t-24.5 -34t-34.5 -21.5t-40.5 -7.5q-23 0 -36.5 6t-19.5 14l-3 -2q2 -11 2.5 -24.5t-3.5 -32.5l-22 -100h238l65 299q15 68 -19.5 110t-123.5 42q-38 0 -72 -10t-61 -28t-45 -42.5 t-24 -52.5l-7 -32h-80l7 32q9 41 33 78t61 65t86.5 44.5t109.5 16.5q64 0 109.5 -18.5t72.5 -49.5t35 -71t-1 -83l-80 -371h-399zM316 312q0 17 -10.5 27.5t-30.5 10.5q-22 0 -36 -11.5t-14 -36.5q0 -15 10.5 -26t29.5 -11q24 0 37.5 12t13.5 35z" />
<glyph unicode="&#xe2e;" horiz-adv-x="586" d="M57 0l56 260q10 45 42 73t84 28q21 0 38.5 -7t30 -19t19.5 -28t7 -34q0 -26 -9.5 -46t-24.5 -34t-34.5 -21.5t-40.5 -7.5q-23 0 -36.5 6t-19.5 14l-3 -2q2 -11 2.5 -24.5t-3.5 -32.5l-11 -54h238l65 307q4 16 5.5 32t-0.5 31q-39 -20 -75.5 -31t-86.5 -11 q-87 0 -134 26.5t-47 69.5t50.5 74.5t153.5 31.5q56 0 107.5 -14.5t77.5 -42.5q18 17 33 33.5t26 33.5l56 -34q-17 -23 -39.5 -46t-44.5 -41q13 -46 -1 -111l-81 -379h-400zM449 500q-17 19 -52.5 28.5t-78.5 9.5q-51 0 -86 -13.5t-35 -31.5q0 -13 26.5 -22t83.5 -9 q33 0 72.5 10.5t69.5 27.5zM271 266q0 17 -10.5 27.5t-30.5 10.5q-22 0 -36 -11.5t-14 -36.5q0 -15 10.5 -26t29.5 -11q24 0 37.5 12t13.5 35z" />
<glyph unicode="&#xe2f;" horiz-adv-x="538" d="M242 505q0 17 -11 27t-29 10q-23 0 -35 -12t-12 -33q0 -14 11 -24t28 -10q23 0 35.5 11t12.5 31zM329 0l78 364q5 23 11.5 45.5t17.5 43.5l-7 2q-14 -24 -33 -45t-43.5 -37.5t-53.5 -26t-61 -9.5q-31 0 -58 10.5t-46.5 29t-30.5 43t-11 53.5q0 57 33 90t85 33 q40 0 64.5 -23t24.5 -58q0 -27 -10.5 -46t-26 -31.5t-33 -18t-30.5 -3.5l-1 -2q17 -10 55 -10q33 0 63 17.5t55.5 44.5t47 59.5t38.5 62.5h79l-127 -588h-80z" />
<glyph unicode="&#xe30;" horiz-adv-x="499" d="M527 552q-9 -46 -32.5 -82.5t-57 -61.5t-75 -38t-86.5 -13q-79 0 -122 35t-43 88q0 44 28.5 74.5t79.5 30.5q40 0 61.5 -21.5t21.5 -52.5q0 -20 -8 -35.5t-19.5 -26.5t-25.5 -17t-26 -7l-1 -2q19 -7 41 -7q71 0 122 34.5t66 101.5l6 26h75zM246 503q0 13 -10 21.5 t-24 8.5q-19 0 -30 -10.5t-11 -28.5q0 -13 9 -21.5t23 -8.5q19 0 31 10t12 29zM455 216q-9 -46 -32.5 -82.5t-57 -61.5t-75 -38t-86.5 -13q-79 0 -122 35t-43 88q0 44 28.5 74.5t79.5 30.5q40 0 61.5 -21.5t21.5 -52.5q0 -20 -8 -35.5t-19.5 -26.5t-25.5 -17t-26 -7l-1 -2 q19 -7 41 -7q71 0 122 34.5t66 101.5l6 26h75zM174 167q0 13 -10 21.5t-24 8.5q-19 0 -30 -10.5t-11 -28.5q0 -13 9 -21.5t23 -8.5q19 0 31 10t12 29z" />
<glyph unicode="&#xe31;" d="M224 873q-9 -46 -33.5 -82.5t-61 -61.5t-82.5 -38t-97 -13q-42 0 -77.5 8t-61 23.5t-40 39t-14.5 55.5q0 45 29.5 73.5t78.5 28.5q42 0 65.5 -21.5t23.5 -53.5q0 -18 -5.5 -31.5t-14.5 -23t-20 -16.5t-21 -11l-1 -2q8 -2 22.5 -4t33.5 -2q37 0 69.5 8t58.5 24.5t44 41.5 t26 58l6 26h77zM-105 823q0 13 -8.5 22t-25.5 9q-19 0 -30 -9.5t-11 -28.5q0 -13 9.5 -22t24.5 -9q19 0 30 9.5t11 28.5z" />
<glyph unicode="&#xe32;" horiz-adv-x="522" d="M314 0l83 390q6 27 4.5 51t-13 42t-34 28.5t-58.5 10.5q-61 0 -103 -36.5t-55 -93.5l-8 -35h-76l8 35q10 43 31 80t52 64t71 42t88 15q49 0 85.5 -15.5t59.5 -43t30.5 -64.5t-1.5 -80l-83 -390h-81z" />
<glyph unicode="&#xe33;" horiz-adv-x="522" d="M118 815q0 -55 -35.5 -90t-92.5 -35q-48 0 -76.5 29t-28.5 69q0 27 10 50t27.5 39.5t41 26t49.5 9.5q49 0 77 -29.5t28 -68.5zM-5 744q30 0 47 18t17 47q0 20 -12 35t-36 15q-32 0 -49.5 -19t-17.5 -47q0 -20 13 -34.5t38 -14.5zM314 0l83 390q6 27 4.5 51t-13 42 t-34 28.5t-58.5 10.5q-61 0 -103 -36.5t-55 -93.5l-8 -35h-76l8 35q10 43 31 80t52 64t71 42t88 15q49 0 85.5 -15.5t59.5 -43t30.5 -64.5t-1.5 -80l-83 -390h-81z" />
<glyph unicode="&#xe34;" d="M0 656q-45 27 -109.5 45.5t-162.5 18.5q-23 0 -49.5 -1.5t-52 -4t-48 -5.5t-37.5 -7h-14q14 39 39.5 74.5t60 63t78 44t93.5 16.5q57 0 100.5 -19.5t72 -53t40.5 -78t5 -93.5h-16zM-52 739q-6 18 -18 36t-30.5 32t-44.5 23t-60 9q-63 0 -102 -22.5t-58 -49.5 q21 5 50.5 8.5t62.5 3.5q73 0 123 -12t77 -28z" />
<glyph unicode="&#xe35;" d="M0 656q-45 27 -109.5 45.5t-162.5 18.5q-23 0 -49.5 -1.5t-52 -4t-48 -5.5t-37.5 -7h-14q14 39 39.5 74.5t60 63t78 44t93.5 16.5q66 0 117.5 -29.5t72.5 -79.5l5 2q-3 13 -5 38t3 51l9 42h72l-56 -268h-16zM-52 739q-6 18 -18 36t-30.5 32t-44.5 23t-60 9 q-63 0 -102 -22.5t-58 -49.5q21 5 50.5 8.5t62.5 3.5q73 0 123 -12t77 -28z" />
<glyph unicode="&#xe36;" d="M0 656q-45 27 -109.5 45.5t-162.5 18.5q-23 0 -49.5 -1.5t-52 -4t-48 -5.5t-37.5 -7h-14q14 39 39.5 74.5t60 63t78 44t93.5 16.5q30 0 60 -6t52 -19q17 20 41.5 34.5t50.5 14.5q35 0 55.5 -22.5t20.5 -54.5q0 -31 -19 -56t-48 -39q11 -46 5 -96h-16zM-52 739 q-6 18 -18 36t-30.5 32t-44.5 23t-60 9q-63 0 -102 -22.5t-58 -49.5q21 5 50.5 8.5t62.5 3.5q73 0 123 -12t77 -28zM-48 850q12 -11 22.5 -24.5t18.5 -29.5q12 6 21 17.5t9 25.5t-8.5 24.5t-22.5 10.5q-12 0 -23 -7.5t-17 -16.5z" />
<glyph unicode="&#xe37;" d="M0 656q-45 27 -109.5 45.5t-162.5 18.5q-23 0 -49.5 -1.5t-52 -4t-48 -5.5t-37.5 -7h-14q14 39 39.5 74.5t60 63t78 44t93.5 16.5q23 0 47.5 -5.5t37.5 -13.5l1 1q-1 4 -1.5 10t1.5 12l4 20h71l-15 -74q14 -13 25 -27t19 -32l5 2q-3 13 -4 38t4 51l9 42h70l-56 -268h-16z M-52 739q-6 18 -18 36t-30.5 32t-44.5 23t-60 9q-63 0 -102 -22.5t-58 -49.5q21 5 50.5 8.5t62.5 3.5q73 0 123 -12t77 -28z" />
<glyph unicode="&#xe38;" d="M-270 -342l16 73q2 11 5.5 16t8.5 12l-1 1q-8 -5 -16.5 -9t-18.5 -4q-28 0 -48 20t-20 51q0 43 27 71.5t74 28.5q42 0 64 -28.5t14 -67.5l-35 -164h-70zM-220 -167q0 12 -7.5 21t-21.5 9q-17 0 -27 -9t-10 -26q0 -12 8.5 -20.5t22.5 -8.5q15 0 25 8.5t10 25.5z" />
<glyph unicode="&#xe39;" d="M-445 -342l12 57h36l3 16q2 11 5.5 16t8.5 12l-1 1q-8 -5 -16.5 -9t-18.5 -4q-28 0 -48 20t-20 51q0 43 27 71.5t74 28.5q42 0 64.5 -28.5t14.5 -67.5l-23 -107h68l43 197h71l-55 -254h-245zM-360 -167q0 12 -7.5 21t-21.5 9q-17 0 -27 -9t-10 -26q0 -12 8.5 -20.5 t22.5 -8.5q15 0 25 8.5t10 25.5z" />
<glyph unicode="&#xe3a;" d="M-120 -146q0 -18 -8.5 -34t-22 -28t-31.5 -19.5t-36 -7.5q-28 0 -45 18.5t-17 44.5q0 18 8 34.5t21.5 28.5t30.5 19.5t35 7.5q29 0 47 -19t18 -45z" />
<glyph unicode="&#xe3f;" horiz-adv-x="556" d="M191 -104l22 104h-183l148 690h183l18 85h51l-18 -86q33 -2 61.5 -9.5t50 -23t34 -40.5t12.5 -61q0 -57 -18 -92t-43.5 -56t-52 -30.5t-43.5 -15.5q13 -4 31.5 -10.5t36 -21t29.5 -38.5t12 -62q0 -57 -19 -98.5t-53.5 -69.5t-82 -42.5t-103.5 -17.5l-22 -105h-51zM281 79 q29 4 55.5 14.5t46.5 28t31.5 42t11.5 56.5q0 39 -24.5 64.5t-69.5 30.5zM281 317h-89l-52 -239h89zM344 610h-89l-46 -211h89zM350 402q21 4 42 12t38 23t28 38t11 57q0 21 -6 34.5t-16.5 22.5t-24 13t-27.5 6z" />
<glyph unicode="&#xe40;" horiz-adv-x="332" d="M230 102q0 16 -11 26.5t-29 10.5q-24 0 -37 -13.5t-13 -35.5q0 -16 11 -26t27 -10q22 0 37 11.5t15 36.5zM162 177q8 7 18.5 10.5t27.5 3.5q36 0 60.5 -23t24.5 -64q0 -48 -34 -78t-87 -30q-24 0 -44 8t-33.5 22.5t-19 34.5t-0.5 44l103 480h80l-75 -351 q-3 -19 -9.5 -31.5t-13.5 -23.5z" />
<glyph unicode="&#xe41;" horiz-adv-x="608" d="M230 102q0 16 -11 26.5t-29 10.5q-24 0 -37 -13.5t-13 -35.5q0 -16 11 -26t27 -10q22 0 37 11.5t15 36.5zM162 177q8 7 18.5 10.5t27.5 3.5q36 0 60.5 -23t24.5 -64q0 -48 -34 -78t-87 -30q-24 0 -44 8t-33.5 22.5t-19 34.5t-0.5 44l103 480h80l-75 -351 q-3 -19 -9.5 -31.5t-13.5 -23.5zM506 102q0 16 -11 26.5t-29 10.5q-24 0 -37 -13.5t-13 -35.5q0 -16 11 -26t27 -10q22 0 37 11.5t15 36.5zM438 177q8 7 18.5 10.5t27.5 3.5q36 0 60.5 -23t24.5 -64q0 -48 -34 -78t-87 -30q-24 0 -44 8t-33.5 22.5t-19 34.5t-0.5 44l103 480 h80l-75 -351q-3 -19 -9.5 -31.5t-13.5 -23.5z" />
<glyph unicode="&#xe42;" horiz-adv-x="400" d="M292 102q0 16 -11 26.5t-29 10.5q-24 0 -37 -13.5t-13 -35.5q0 -16 11 -26t27 -10q22 0 37 11.5t15 36.5zM224 177q8 7 18.5 10.5t27.5 3.5q36 0 60.5 -23t24.5 -64q0 -48 -34 -78t-87 -30q-24 0 -44 8t-33.5 22.5t-19 34.5t-0.5 44l118 554q8 41 -23 55l-143 62l5 24 q7 35 26.5 66t50.5 54t73.5 36.5t95.5 13.5q59 0 101.5 -12.5t68.5 -33.5t35.5 -49.5t2.5 -59.5l-3 -14h-81l3 15q3 16 -2.5 30.5t-21.5 25.5t-42.5 17.5t-66.5 6.5q-33 0 -59.5 -6.5t-46 -17t-31.5 -23t-15 -24.5l-2 -7l89 -38q19 -8 33.5 -18.5t23.5 -25.5t11.5 -34 t-2.5 -44l-90 -424q-4 -19 -10 -31.5t-13 -23.5z" />
<glyph unicode="&#xe43;" horiz-adv-x="420" d="M312 102q0 16 -11 26.5t-29 10.5q-24 0 -37 -13.5t-13 -35.5q0 -16 11 -26t27 -10q22 0 37 11.5t15 36.5zM244 177q8 7 18.5 10.5t27.5 3.5q36 0 60.5 -23t24.5 -64q0 -48 -34 -78t-87 -30q-24 0 -44.5 8t-34 22.5t-18.5 34.5t0 44l106 493q7 33 30.5 59.5t48.5 52.5 t44.5 54.5t19.5 65.5q0 35 -24.5 55.5t-64.5 20.5q-24 0 -42.5 -6.5t-29.5 -15.5v-2q32 -2 53 -23t21 -57q0 -23 -9 -41.5t-24 -32.5t-35.5 -21.5t-43.5 -7.5q-42 0 -71 24t-29 72q0 36 18.5 67.5t49.5 55.5t69.5 37.5t79.5 13.5q79 0 121 -37.5t42 -98.5q0 -37 -20.5 -69 t-46 -61t-49 -56.5t-29.5 -55.5l-77 -357q-4 -19 -10 -31.5t-13 -23.5zM260 801q0 16 -10 27.5t-29 11.5q-22 0 -36 -13.5t-14 -36.5q0 -16 10.5 -27t26.5 -11q24 0 38 13t14 36z" />
<glyph unicode="&#xe44;" horiz-adv-x="435" d="M327 102q0 16 -11 26.5t-29 10.5q-24 0 -37 -13.5t-13 -35.5q0 -16 11 -26t27 -10q22 0 37 11.5t15 36.5zM259 177q8 7 18.5 10.5t27.5 3.5q36 0 60.5 -23t24.5 -64q0 -48 -34 -78t-87 -30q-24 0 -44.5 8t-34 22.5t-18.5 34.5t0 44l136 634q5 26 14 52.5t19 48.5l-4 2 q-30 -37 -72.5 -76.5t-96.5 -76.5h-67l25 117q14 66 5 103t-32 64l68 31q11 -16 19.5 -34t13 -41.5t3.5 -53t-9 -68.5l-6 -28q42 34 84 82t77 105h88l-157 -732q-4 -19 -10 -31.5t-13 -23.5z" />
<glyph unicode="&#xe45;" horiz-adv-x="522" d="M252 -282l145 672q6 27 4.5 51t-13 42t-34 28.5t-58.5 10.5q-61 0 -103 -36.5t-55 -93.5l-8 -35h-76l8 35q10 43 31 80t52 64t71 42t88 15q49 0 85.5 -15.5t59.5 -43t30.5 -64.5t-1.5 -80l-145 -672h-81z" />
<glyph unicode="&#xe46;" horiz-adv-x="563" d="M293 -282l170 794h-12q-26 0 -41 -13.5t-20 -34.5l-4 -21h-66l4 21q2 11 -0.5 24t-11.5 23.5t-24 17.5t-37 7q-9 0 -19 -3t-17 -5l1 -2q32 -3 50.5 -26.5t18.5 -52.5q0 -26 -9 -45.5t-24.5 -33.5t-35.5 -21t-42 -7q-41 0 -71 25.5t-30 69.5q0 33 13 61.5t37 50t57 34 t72 12.5q47 0 75.5 -17t41.5 -43q20 28 45.5 40t51.5 12h93l-185 -867h-81zM226 442q0 16 -10 27.5t-30 11.5q-22 0 -35.5 -13.5t-13.5 -36.5q0 -16 10.5 -27t27.5 -11q23 0 37 13t14 36z" />
<glyph unicode="&#xe47;" d="M-135 733q-5 4 -9 16t-4 23q0 33 23.5 55t63.5 22q38 0 58 -21.5t20 -48.5q0 -49 -34.5 -75t-82.5 -26q-56 0 -88.5 19.5t-46.5 51.5q-11 -11 -26 -30.5t-23 -38.5h-20q-27 16 -47.5 47.5t-20.5 73.5q0 27 9.5 55.5t30 51.5t52.5 38t77 15h128q42 0 67.5 15.5t46.5 36.5 l36 -46q-28 -32 -65.5 -51t-88.5 -19h-127q-51 0 -73 -26.5t-22 -61.5q0 -16 4.5 -29t12.5 -21q13 18 29.5 34.5t31.5 26.5h18q0 -13 5.5 -27.5t15 -27t21.5 -22t26 -12.5zM-70 736q19 0 28 10.5t9 28.5q0 12 -7.5 21t-22.5 9q-18 0 -27.5 -10.5t-9.5 -27.5q0 -11 8 -21 t22 -10z" />
<glyph unicode="&#xe48;" d="M13 995l40 183h75l-40 -183h-75z" />
<glyph unicode="&#xe49;" d="M230 1180q-10 -47 -37 -82.5t-63.5 -59t-79 -35t-83.5 -11.5q-52 0 -92 8l4 39q17 5 37.5 12t34.5 18l1 5q-7 1 -17 5.5t-19 13t-15 20.5t-6 27q0 34 23 56t59 22t57 -21t21 -50q0 -32 -22 -56t-48 -38v-2q29 0 57.5 10.5t52 27.5t40 40.5t22.5 50.5l5 23h73zM2 1144 q0 9 -6 18t-21 9t-22.5 -8t-7.5 -20q0 -9 6.5 -18t19.5 -9q15 0 23 8t8 20z" />
<glyph unicode="&#xe4a;" d="M-91 1038q27 0 27 28q0 9 -6 17t-18 8q-13 0 -21 -7.5t-8 -20.5q0 -8 6 -16.5t20 -8.5zM280 1204q-21 -100 -92 -152.5t-181 -52.5l10 43q14 6 28 14.5t25.5 20.5t18.5 28.5t7 37.5q0 15 -6 25t-20 10q-16 0 -29.5 -12t-24.5 -26h-39q-4 15 -13.5 27.5t-27.5 12.5 q-26 0 -43.5 -19.5t-19.5 -47.5q9 8 19.5 14.5t31.5 6.5q27 0 47 -16t20 -45q0 -42 -25 -60t-63 -18q-17 0 -33.5 6t-29 18t-20 29t-7.5 39q0 27 8.5 53t24.5 46.5t39.5 33t53.5 12.5q26 0 41.5 -11t20.5 -24q12 13 34.5 24t48.5 11q12 0 25 -3.5t24 -12t18 -22.5t7 -35 q0 -19 -7.5 -42.5t-29.5 -49.5q41 20 58.5 56t27.5 81l5 24h73z" />
<glyph unicode="&#xe4b;" d="M101 1078l-15 -83h-71l19 83l-81 -2l14 64l80 -2l16 81h71l-20 -81l83 2l-14 -64z" />
<glyph unicode="&#xe4c;" d="M85 1140q-20 -8 -43.5 -10t-49.5 -4l-1 -3q16 -7 28.5 -25.5t12.5 -39.5q0 -48 -29.5 -72.5t-71.5 -24.5q-40 0 -63.5 22.5t-23.5 56.5q0 38 22 65t58 44q28 13 56 22t57 17.5t58.5 17t60.5 21.5l16 -54zM-65 1010q21 0 30 13t9 28q0 12 -8 23.5t-27 11.5t-28.5 -12.5 t-9.5 -29.5q0 -13 8.5 -23.5t25.5 -10.5z" />
<glyph unicode="&#xe4d;" d="M118 815q0 -55 -35.5 -90t-92.5 -35q-48 0 -76.5 29t-28.5 69q0 27 10 50t27.5 39.5t41 26t49.5 9.5q49 0 77 -29.5t28 -68.5zM-5 744q30 0 47 18t17 47q0 20 -12 35t-36 15q-32 0 -49.5 -19t-17.5 -47q0 -20 13 -34.5t38 -14.5z" />
<glyph unicode="&#xe4e;" d="M-32 802q-26 0 -41 -9.5t-15 -29.5q0 -11 7 -19.5t18 -8.5t20.5 3.5t20.5 11.5l22 -45q-17 -12 -38 -19.5t-44 -7.5t-39 6t-25.5 16t-13.5 22t-4 24q0 37 26.5 62.5t68.5 33.5q-6 5 -10.5 15.5t-4.5 20.5q0 20 11 37t29.5 29t43.5 18.5t54 6.5q28 0 51 -5.5t37 -13.5 l-26 -49q-25 14 -59 14q-31 0 -50 -7.5t-19 -29.5q0 -9 5.5 -16t19.5 -7h53l-24 -53h-74z" />
<glyph unicode="&#xe4f;" horiz-adv-x="479" d="M336 280q0 -19 -8 -35.5t-21.5 -29t-31 -20t-36.5 -7.5q-28 0 -45.5 18.5t-17.5 45.5q0 19 8 35.5t21.5 29.5t31 20.5t35.5 7.5q29 0 46.5 -18.5t17.5 -46.5zM419 293q0 28 -9.5 52.5t-26.5 42.5t-40.5 28t-52.5 10q-38 0 -73.5 -15.5t-62.5 -41.5t-43.5 -60t-16.5 -71 q0 -27 9.5 -51t26 -41.5t40 -27.5t52.5 -10q38 0 73.5 15t63 40.5t44 59t16.5 70.5zM444 298q0 -44 -19.5 -82.5t-51 -67.5t-73 -46t-84.5 -17q-33 0 -59.5 11.5t-46 31.5t-30 47t-10.5 59q0 43 19 82.5t50.5 68.5t72 46.5t83.5 17.5q33 0 60.5 -11.5t47 -32t30.5 -48 t11 -59.5z" />
<glyph unicode="&#xe50;" horiz-adv-x="670" d="M533 275q0 30 -10 56t-29.5 45.5t-48 30.5t-64.5 11q-45 0 -85 -16.5t-70 -45.5t-48 -69t-18 -87q0 -63 42 -100.5t110 -37.5q43 0 83 16t70.5 44t49 67t18.5 86zM611 281q0 -62 -25 -115t-67 -92t-98 -61t-119 -22q-48 0 -88.5 15t-70 42t-45.5 64t-16 80q0 60 24 114 t65.5 94.5t97 64.5t117.5 24q51 0 92.5 -16t71 -43.5t45.5 -65.5t16 -83z" />
<glyph unicode="&#xe51;" horiz-adv-x="714" d="M335 -39q49 24 92.5 52.5t76 64.5t51.5 81t19 101q0 38 -13 67.5t-36.5 49.5t-56 30.5t-70.5 10.5q-54 0 -98 -16t-75.5 -43.5t-48.5 -66t-17 -83.5q0 -35 11 -61t27.5 -44t35.5 -27.5t36 -11.5l1 3q-16 8 -26.5 27t-10.5 42q0 21 8.5 41.5t25 36.5t39.5 25.5t53 9.5 q47 0 72.5 -28t25.5 -66q0 -35 -14.5 -64t-39.5 -49.5t-58 -32t-70 -11.5q-35 0 -70 13t-63 38.5t-45 63t-17 86.5q0 62 23.5 115t67 91.5t104.5 60.5t135 22q54 0 99 -15.5t77 -44t50 -68.5t18 -90q0 -74 -24.5 -130.5t-64.5 -101t-91.5 -78.5t-105.5 -61zM337 96 q25 0 37 16.5t12 35.5q0 16 -9.5 27.5t-26.5 11.5q-24 0 -35.5 -16t-11.5 -35q0 -14 8.5 -27t25.5 -13z" />
<glyph unicode="&#xe52;" horiz-adv-x="805" d="M42 0l120 557q8 40 -1.5 65t-39.5 41l53 58q44 -23 59.5 -65t4.5 -96l-104 -489h431q30 0 46 13.5t23 45.5l45 213q8 38 1.5 57.5t-32.5 19.5q-14 0 -28 -7t-26 -18.5t-22.5 -26t-17.5 -28.5h-46q-2 30 -20 55t-58 25q-31 0 -54 -13.5t-38 -33.5t-22.5 -42.5t-7.5 -40.5 l4 1q14 22 36.5 36t57.5 14q41 0 70 -24t29 -68q0 -32 -11 -54.5t-29.5 -37t-42.5 -21.5t-49 -7q-29 0 -55.5 10.5t-46 30t-31 46t-11.5 59.5q0 36 12 73.5t37.5 69t65 51.5t93.5 20q48 0 72 -19.5t32 -45.5q20 26 48 45.5t70 19.5q24 0 45.5 -8t36 -25.5t19.5 -44.5t-3 -65 l-46 -219q-14 -68 -53 -97.5t-104 -29.5h-512zM436 239q0 19 -11.5 31t-29.5 12q-20 0 -37 -13t-17 -40q0 -19 12.5 -30.5t29.5 -11.5q19 0 36 13t17 39z" />
<glyph unicode="&#xe53;" horiz-adv-x="800" d="M602 0l73 342q11 48 -1.5 74.5t-50.5 26.5q-45 0 -78 -37.5t-47 -104.5l-64 -301h-75l64 301q14 67 -6.5 104.5t-73.5 37.5q-42 0 -77.5 -24.5t-61 -63.5t-40 -86.5t-14.5 -93.5q0 -6 1 -16.5t2 -12.5h3q10 24 35.5 43.5t62.5 19.5q42 0 71 -24.5t29 -69.5 q0 -32 -10 -55.5t-28 -39t-42 -23t-51 -7.5q-30 0 -56.5 11t-46.5 34t-32 58t-12 83q0 59 19.5 119t55.5 108t87 78.5t115 30.5q59 0 87.5 -24t39.5 -60q26 34 65.5 59t90.5 25q32 0 57.5 -10t41.5 -31t20.5 -53.5t-4.5 -76.5l-73 -341h-76zM233 52q17 0 32.5 14t15.5 39 q0 19 -11.5 30t-29.5 11q-17 0 -34 -12.5t-17 -39.5q0 -19 12 -30.5t32 -11.5z" />
<glyph unicode="&#xe54;" horiz-adv-x="733" d="M327 0q-53 0 -98 13t-78 38.5t-51.5 64t-18.5 90.5q0 62 22 113t63.5 87t101.5 56t136 20h165q60 0 106 23.5t88 83.5l48 -40q-45 -68 -110 -103t-140 -35h-165q-112 0 -174.5 -52t-62.5 -151q0 -44 18 -70.5t45.5 -41.5t61.5 -21t67 -7l1 2q-24 16 -43.5 49.5 t-19.5 82.5q0 63 37 102t100 39q41 0 70.5 -22.5t29.5 -66.5q0 -26 -9 -46t-24 -34.5t-34.5 -22t-40.5 -7.5q-11 0 -25.5 1.5t-23.5 7.5q4 -14 14 -28.5t27 -26.5t41.5 -19.5t59.5 -7.5h133l-14 -71h-303zM459 246q0 17 -10.5 28t-30.5 11q-17 0 -33 -11t-16 -36 q0 -17 12 -28.5t29 -11.5q19 0 34 11t15 37z" />
<glyph unicode="&#xe55;" horiz-adv-x="747" d="M436 493q29 11 46 31.5t17 46.5q0 15 -9.5 25.5t-32.5 10.5q-31 0 -47 -15.5t-16 -40.5q0 -19 11.5 -34.5t30.5 -23.5zM327 0q-53 0 -98 13t-78 38.5t-51.5 64t-18.5 90.5q0 60 21 104.5t58 77t87 54t107 35.5q-16 12 -25.5 31.5t-9.5 39.5q0 24 9.5 46t28 38.5 t45.5 26.5t61 10q51 0 80 -25.5t29 -64.5q0 -34 -17.5 -58.5t-45.5 -43.5q21 -6 66 -6q60 0 109.5 27.5t91.5 87.5l48 -40q-53 -69 -118 -104t-127 -35q-60 0 -97 6.5t-63 16.5q-48 -9 -94.5 -22.5t-83.5 -38.5t-59.5 -63.5t-22.5 -97.5q0 -44 18 -70.5t45.5 -41.5t61.5 -21 t67 -7l1 2q-24 16 -43.5 49.5t-19.5 82.5q0 63 37 102t100 39q41 0 70.5 -22.5t29.5 -66.5q0 -26 -9 -46t-24 -34.5t-34.5 -22t-40.5 -7.5q-11 0 -25.5 1.5t-23.5 7.5q4 -14 14 -28.5t27 -26.5t41.5 -19.5t59.5 -7.5h133l-14 -71h-303zM459 246q0 17 -10.5 28t-30.5 11 q-17 0 -33 -11t-16 -36q0 -17 12 -28.5t29 -11.5q19 0 34 11t15 37z" />
<glyph unicode="&#xe56;" horiz-adv-x="699" d="M270 186q0 18 -10.5 29.5t-30.5 11.5q-25 0 -37.5 -15.5t-12.5 -36.5q0 -15 9 -28t29 -13q26 0 39.5 16t13.5 36zM113 328l49 229q16 78 -41 106l53 58q44 -23 59.5 -65t4.5 -96l-30 -140q19 15 41 31t49 29.5t60.5 22t75.5 8.5q54 0 94 -16.5t66.5 -45t39 -65.5 t12.5 -77q0 -85 -27.5 -144.5t-74 -97t-107.5 -54.5t-128 -17q-44 0 -81.5 13.5t-65 36t-43 52t-15.5 62.5q0 28 10 52t28 42t43 28t54 10q26 0 45 -8t31.5 -21.5t18.5 -30.5t6 -35q0 -26 -9 -46t-24 -34t-35 -23t-42 -13q14 -8 36.5 -13.5t48.5 -5.5q51 0 97 14.5t80.5 44 t55 75.5t20.5 109q0 30 -8 55t-24.5 44t-43.5 29.5t-64 10.5q-41 0 -76.5 -10t-66 -26t-56 -36.5t-46.5 -41.5h-70z" />
<glyph unicode="&#xe57;" horiz-adv-x="824" d="M451 0l70 325q9 43 4 68.5t-30 25.5q-14 0 -26.5 -8.5t-23.5 -23.5t-20 -34.5t-14 -41.5h-73q4 22 4 41.5t-4.5 34.5t-14.5 23.5t-26 8.5q-28 0 -54.5 -19.5t-47 -52.5t-33 -77.5t-12.5 -94.5q0 -6 1 -16.5t2 -12.5h3q10 24 35.5 43.5t62.5 19.5q42 0 71 -24.5t29 -69.5 q0 -32 -10 -55.5t-28 -39t-42 -23t-51 -7.5q-30 0 -56.5 11t-46.5 34t-32 58t-12 83q0 59 17.5 115.5t48 100t72.5 70t91 26.5q39 0 60 -20t26 -48q19 27 49 47.5t69 20.5q65 0 85 -43.5t4 -114.5l-57 -263h27q18 0 33 8t27 20.5t19.5 27.5t10.5 29l80 374q8 35 -3 59.5 t-41 37.5q14 15 28.5 31t28.5 31q42 -23 58.5 -63t5.5 -93l-80 -376q-17 -79 -67.5 -116t-123.5 -37h-93zM233 52q17 0 32.5 14t15.5 39q0 19 -11.5 30t-29.5 11q-17 0 -34 -12.5t-17 -39.5q0 -19 12 -30.5t32 -11.5z" />
<glyph unicode="&#xe58;" horiz-adv-x="746" d="M596 141q0 13 -7.5 25.5t-28.5 12.5q-24 0 -36 -14.5t-12 -31.5q0 -13 8 -25.5t29 -12.5q23 0 35 14.5t12 31.5zM487 64q-14 3 -29.5 23.5t-15.5 46.5q0 21 8.5 40t25 34t39 24t51.5 9q46 0 72.5 -26t26.5 -68q0 -34 -14 -62.5t-39.5 -49t-61.5 -32t-79 -11.5 q-35 0 -63 11t-48.5 28.5t-33.5 39t-19 41.5q-10 -11 -20 -26t-18.5 -31t-15.5 -31t-10 -27h-60q-20 11 -38 32t-32 48.5t-22.5 60.5t-8.5 69q0 64 24 115t66 86.5t99 54.5t123 19h135q60 0 106.5 23.5t88.5 83.5l48 -40q-45 -68 -110 -103t-140 -35h-135q-48 0 -89.5 -13.5 t-72 -39.5t-48 -63t-17.5 -84q0 -26 5 -48t12 -39t15.5 -29t14.5 -17h2q9 17 21.5 36.5t26.5 38.5t28.5 35.5t27.5 27.5h36q1 -34 10 -63t25 -50t37 -33t46 -12q4 0 11 1t10 3z" />
<glyph unicode="&#xe59;" horiz-adv-x="780" d="M549 -16q-32 14 -53 43t-29 67l-44 200q-5 21 -11.5 43t-17.5 39t-29 28t-45 11q-44 0 -76 -24t-53 -60t-31 -78t-10 -78q0 -6 1 -16.5t2 -12.5h3q10 24 35.5 43.5t62.5 19.5q42 0 71 -24.5t29 -69.5q0 -32 -10 -55.5t-28 -39t-42 -23t-51 -7.5q-30 0 -56.5 11t-46.5 34 t-32 58t-12 83q0 49 15.5 104t47 100.5t79 75.5t111.5 30q30 0 53.5 -8.5t41 -23t29.5 -33.5t20 -39q6 21 16.5 40t25.5 33.5t34.5 23t43.5 8.5q33 0 59.5 -21t37.5 -53q14 7 23 20t15 40l11 53q7 34 -4.5 59t-40.5 38q14 14 29 31t29 31q41 -23 57 -63.5t5 -93.5l-13 -62 q-14 -63 -53 -100t-88 -37h-16q-1 8 -3.5 22t-9.5 27.5t-19.5 23.5t-32.5 10q-19 0 -33.5 -11.5t-24.5 -28.5t-13.5 -38t-0.5 -39l31 -174q5 -31 18.5 -49.5t40.5 -33.5zM233 52q17 0 32.5 14t15.5 39q0 19 -11.5 30t-29.5 11q-17 0 -34 -12.5t-17 -39.5q0 -19 12 -30.5 t32 -11.5z" />
<glyph unicode="&#xe5b;" horiz-adv-x="1131" d="M1019 300q-9 -17 -24 -40t-43 -69h-35q-2 32 -8 61.5t-14 52.5q-4 -7 -10.5 -15.5t-17 -22.5t-25.5 -36t-35 -55h-50q4 38 -2 72.5t-15 54.5q-26 -46 -50 -79t-42 -63h-51q2 39 -4 75.5t-18 63.5q-14 -59 -40 -111t-65.5 -91t-93.5 -62t-124 -23q-42 0 -77.5 13t-61 38 t-39.5 61t-14 82q0 63 20.5 117t56 93.5t81.5 61.5t97 22q36 0 64 -11.5t46.5 -31t28.5 -45.5t10 -55q0 -42 -15.5 -79.5t-41 -65t-58 -43.5t-67.5 -16q-19 0 -37.5 6t-33 18t-23.5 30t-9 42q0 27 11 48.5t28.5 36.5t40 22.5t45.5 7.5q32 0 57.5 -17t28.5 -44l4 1 q5 27 3.5 51t-11.5 42t-28.5 28.5t-47.5 10.5q-40 0 -73 -18.5t-57 -49t-37 -69.5t-13 -79q0 -36 11 -63t29.5 -45t43.5 -26.5t53 -8.5q57 0 103.5 23.5t80 63t51.5 92t18 109.5v14h73q17 -23 31.5 -56.5t18.5 -67.5q20 29 40.5 59t40.5 65h40q12 -23 24 -55.5t13 -66.5 q17 30 37 60.5t37 61.5h38q13 -21 24 -47.5t16 -50.5l44 69h149l-11 -51h-116zM339 264q0 18 -12.5 30t-30.5 12q-20 0 -36.5 -12t-16.5 -38q0 -17 12 -28.5t29 -11.5q20 0 37.5 11t17.5 37z" />
<glyph unicode="&#x2000;" horiz-adv-x="616" />
<glyph unicode="&#x2001;" horiz-adv-x="1232" />
<glyph unicode="&#x2002;" horiz-adv-x="616" />
<glyph unicode="&#x2003;" horiz-adv-x="1232" />
<glyph unicode="&#x2004;" horiz-adv-x="410" />
<glyph unicode="&#x2005;" horiz-adv-x="308" />
<glyph unicode="&#x2006;" horiz-adv-x="205" />
<glyph unicode="&#x2007;" horiz-adv-x="205" />
<glyph unicode="&#x2008;" horiz-adv-x="154" />
<glyph unicode="&#x2009;" horiz-adv-x="246" />
<glyph unicode="&#x200a;" horiz-adv-x="68" />
<glyph unicode="&#x2010;" horiz-adv-x="333" d="M51 229l14 62h252l-14 -62h-252z" />
<glyph unicode="&#x2011;" horiz-adv-x="333" d="M51 229l14 62h252l-14 -62h-252z" />
<glyph unicode="&#x2012;" horiz-adv-x="333" d="M51 229l14 62h252l-14 -62h-252z" />
<glyph unicode="&#x2013;" horiz-adv-x="500" d="M12 235l11 50h500l-11 -50h-500z" />
<glyph unicode="&#x2014;" horiz-adv-x="1000" d="M12 235l11 50h1000l-11 -50h-1000z" />
<glyph unicode="&#x2018;" horiz-adv-x="278" d="M153 480l25 110l94 142h42l-78 -142h40l-25 -110h-98z" />
<glyph unicode="&#x2019;" horiz-adv-x="278" d="M150 470l79 142h-40l24 110h98l-24 -110l-95 -142h-42z" />
<glyph unicode="&#x201a;" horiz-adv-x="278" d="M15 -142l78 142h-40l24 110h98l-24 -110l-94 -142h-42z" />
<glyph unicode="&#x201c;" horiz-adv-x="500" d="M169 480l25 110l94 142h42l-78 -142h40l-25 -110h-98zM373 480l25 110l94 142h42l-78 -142h40l-25 -110h-98z" />
<glyph unicode="&#x201d;" horiz-adv-x="500" d="M356 470l79 142h-40l24 110h98l-24 -110l-95 -142h-42zM152 470l79 142h-40l24 110h98l-24 -110l-95 -142h-42z" />
<glyph unicode="&#x201e;" horiz-adv-x="500" d="M221 -142l78 142h-40l24 110h98l-24 -110l-94 -142h-42zM17 -142l78 142h-40l24 110h98l-24 -110l-94 -142h-42z" />
<glyph unicode="&#x2020;" horiz-adv-x="500" d="M175 -84l66 404l63 174l-166 -26l17 78l155 -22l22 208h80l-70 -208l165 22l-17 -78l-154 26l-15 -174l-114 -404h-32z" />
<glyph unicode="&#x2021;" horiz-adv-x="500" d="M151 -84l70 208l-164 -22l17 78l154 -26l14 170l62 170l-166 -26l17 78l155 -22l22 208h80l-70 -208l165 22l-17 -78l-154 26l-14 -170l-62 -170l166 26l-17 -78l-156 22l-22 -208h-80z" />
<glyph unicode="&#x2022;" horiz-adv-x="500" d="M470 361q-8 -38 -29.5 -70.5t-51.5 -57.5t-66.5 -39t-73.5 -14q-38 0 -67.5 14t-48.5 39t-25.5 57.5t1.5 70.5q8 37 29.5 70t51.5 57.5t65.5 38.5t73.5 14q37 0 67 -14t49 -38.5t26 -57.5t-1 -70z" />
<glyph unicode="&#x2026;" horiz-adv-x="1000" d="M78 0l24 110h98l-24 -110h-98zM411 0l24 110h98l-24 -110h-98zM744 0l24 110h98l-24 -110h-98z" />
<glyph unicode="&#x202f;" horiz-adv-x="246" />
<glyph unicode="&#x2030;" horiz-adv-x="1000" d="M981 179q0 -33 -15.5 -65.5t-41 -57.5t-58.5 -40.5t-69 -15.5q-26 0 -48 9t-37.5 24.5t-24.5 37t-9 46.5q0 36 16.5 68t42.5 57t59.5 39.5t66.5 14.5q26 0 47.5 -9t37.5 -24.5t24.5 -37t8.5 -46.5zM922 167q0 32 -22.5 51.5t-49.5 19.5q-17 0 -36.5 -8t-36.5 -22.5 t-28 -34.5t-11 -44q0 -30 20 -50.5t52 -20.5q20 0 40 9t36 24t26 34.5t10 41.5zM619 179q0 -33 -15.5 -65.5t-41 -57.5t-58.5 -40.5t-69 -15.5q-26 0 -48 9t-37.5 24.5t-24.5 37t-9 46.5q0 36 16.5 68t42.5 57t59.5 39.5t66.5 14.5q26 0 47.5 -9t37.5 -24.5t24.5 -37 t8.5 -46.5zM560 167q0 32 -22.5 51.5t-49.5 19.5q-17 0 -36.5 -8t-36.5 -22.5t-28 -34.5t-11 -44q0 -30 20 -50.5t52 -20.5q20 0 40 9t36 24t26 34.5t10 41.5zM401 605q0 -33 -15.5 -65.5t-41 -57.5t-58.5 -40.5t-69 -15.5q-26 0 -48 9t-37.5 24.5t-24.5 37t-9 46.5 q0 36 16.5 68t42.5 57t59.5 39.5t66.5 14.5q26 0 47.5 -9t37.5 -24.5t24.5 -37t8.5 -46.5zM342 593q0 32 -22.5 51.5t-49.5 19.5q-17 0 -36.5 -8t-36.5 -22.5t-28 -34t-11 -43.5q0 -30 19.5 -51t52.5 -21q20 0 40 9t36 24t26 34.5t10 41.5zM46 -10l563 742h61l-565 -742h-59 z" />
<glyph unicode="&#x2039;" horiz-adv-x="333" d="M169 102l-97 158l165 158h70l-164 -158l94 -158h-68z" />
<glyph unicode="&#x203a;" horiz-adv-x="333" d="M130 102h-68l164 158l-94 158h70l95 -158z" />
<glyph unicode="&#x2044;" horiz-adv-x="167" d="M-209 -10l603 742h62l-606 -742h-59z" />
<glyph unicode="&#x205f;" horiz-adv-x="308" />
<glyph unicode="&#x20ac;" horiz-adv-x="611" d="M512 65q-38 -35 -85.5 -55t-107.5 -20q-50 0 -87.5 15.5t-62.5 42.5t-38 64t-13 81q0 11 1 23t3 24h-83l35 62h62l19 88h-83l35 62h62q12 56 40 107t68.5 89.5t91.5 61t110 22.5q20 0 45 -3t50.5 -13.5t49.5 -31t41 -56.5l-46 -82q-4 13 -13.5 34.5t-27.5 41t-45 34 t-67 14.5q-48 0 -86 -20.5t-66 -52.5t-45.5 -70.5t-26.5 -74.5h324l-35 -62h-301l-19 -88h271l-35 -62h-250q-4 -20 -4 -43q0 -64 37.5 -104.5t101.5 -40.5q37 0 67 9t54 23t43 31t35 33z" />
<glyph unicode="&#x2113;" horiz-adv-x="521" d="M483 126q-50 -66 -108 -98.5t-121 -32.5q-45 0 -74 16t-44.5 42.5t-18.5 61t3 72.5l3 13q-17 -11 -36 -24.5t-39 -26.5l-13 40q26 19 52 36t49 35l63 286q16 71 40.5 118t54 75.5t60.5 40t60 11.5q34 0 56 -13.5t33.5 -36t12.5 -52.5t-6 -63q-22 -99 -106 -193.5 t-208 -189.5l-7 -29q-9 -44 -5.5 -75.5t17 -51.5t34 -29.5t44.5 -9.5q27 0 52.5 9.5t48 25t41.5 34.5t33 37zM211 309q46 39 87 77.5t74 77.5t55.5 78.5t31.5 80.5q11 51 0 84.5t-57 33.5q-16 0 -35 -9.5t-37.5 -31t-35.5 -57.5t-29 -88z" />
<glyph unicode="&#x2122;" horiz-adv-x="990" d="M209 310l79 358h-126l12 54h322l-12 -54h-128l-79 -358h-68zM851 310l76 344h-2l-211 -344h-44l-59 344h-2l-76 -344h-68l91 412h105l55 -312l189 312h105l-91 -412h-68z" />
<glyph unicode="&#x2126;" horiz-adv-x="798" d="M441 0l9 40q37 19 76 50t73 73t60.5 94.5t40.5 115.5q11 51 6 104t-27.5 96t-64 70.5t-104.5 27.5q-60 0 -113.5 -24t-96.5 -64.5t-73.5 -95.5t-44.5 -116q-13 -59 -9.5 -111t19 -94.5t39.5 -74.5t53 -51l-9 -40h-258l12 54h168l1 3q-25 24 -45.5 56.5t-33 73.5t-14 89 t10.5 104q17 76 56.5 140t94.5 109.5t121 71t135 25.5q73 0 126 -28t85 -75.5t41.5 -109.5t-5.5 -129q-13 -58 -37.5 -108t-55.5 -91.5t-66 -74t-68 -53.5l-1 -3h170l-12 -54h-259z" />
<glyph unicode="&#x212e;" horiz-adv-x="1056" d="M894 134q-56 -65 -141 -104t-185 -39q-85 0 -160 29t-131 79t-88.5 117t-32.5 144t32.5 145t88.5 118.5t131 79.5t160 29t160.5 -29t131.5 -79.5t88.5 -118.5t32.5 -145v-9h-668q-5 0 -5 -5v-202q0 -13 9 -23q48 -51 112.5 -80.5t139.5 -29.5q81 0 149 33.5t117 89.5h59z M829 580q0 15 -10 24q-48 48 -112 77t-138 29t-138.5 -29.5t-112.5 -79.5q-10 -10 -10 -25v-199q0 -2 1.5 -4.5t3.5 -2.5h512q2 0 3 2.5t1 4.5v203z" />
<glyph unicode="&#x2202;" horiz-adv-x="588" d="M510 380q3 10 6.5 24t5.5 25q16 73 12 132.5t-23.5 100.5t-52.5 63.5t-75 22.5q-52 0 -92 -16.5t-66 -33.5l-15 47q31 20 78 38.5t113 18.5q52 0 95 -24t70 -72.5t33.5 -121t-14.5 -169.5q-19 -85 -53 -161.5t-82 -134t-108 -91.5t-130 -34q-53 0 -87 21t-52 55t-21 76.5 t6 84.5q13 59 42.5 106.5t68.5 81.5t84.5 52t90.5 18q40 0 69 -12.5t49.5 -30t31.5 -36t15 -30.5h1zM231 48q41 0 79.5 22t71.5 58.5t59.5 84t43.5 99.5q-2 18 -12 39.5t-27.5 40t-43.5 31t-60 12.5q-35 0 -69.5 -16t-64.5 -43.5t-52 -64.5t-31 -79q-9 -39 -6 -72.5 t16.5 -58.5t37 -39t56.5 -14h2z" />
<glyph unicode="&#x2206;" horiz-adv-x="708" d="M-6 0l11 49l434 686h78l127 -686l-11 -49h-639zM495 468q-3 20 -8 46.5t-10.5 53.5t-9.5 51.5t-5 42.5h-5q-7 -14 -20 -35.5t-28.5 -46t-31 -49.5t-27.5 -45l-275 -432h497z" />
<glyph unicode="&#x220f;" horiz-adv-x="915" d="M658 -99v753h-323v-753h-66v753h-124v60h703v-60h-123v-753h-67z" />
<glyph unicode="&#x2211;" horiz-adv-x="761" d="M142 -99v45l300 360l-287 362v46h525v-58h-427v-4l268 -337l-288 -347v-3h463v-64h-554z" />
<glyph unicode="&#x2212;" horiz-adv-x="600" d="M51 229l14 62h520l-14 -62h-520z" />
<glyph unicode="&#x2215;" horiz-adv-x="167" d="M-209 -10l603 742h62l-606 -742h-59z" />
<glyph unicode="&#x2219;" horiz-adv-x="305" d="M231 259q-5 -26 -27 -43.5t-48 -17.5q-27 0 -40.5 17.5t-8.5 43.5q6 26 27.5 44.5t48.5 18.5q26 0 40 -18.5t8 -44.5z" />
<glyph unicode="&#x221a;" horiz-adv-x="774" d="M432 -155l-177 480l-81 -31l-15 42l139 54l146 -399q5 -17 9.5 -35.5t8.5 -33.5h1q2 14 6 32.5t8 35.5l207 857h52l-242 -1002h-62z" />
<glyph unicode="&#x221e;" horiz-adv-x="932" d="M837 296q0 -38 -13.5 -68.5t-36 -52.5t-52 -33.5t-60.5 -11.5q-51 0 -95.5 33t-101.5 96q-21 -24 -43.5 -47t-47 -41.5t-52.5 -29.5t-61 -11q-32 0 -60.5 12.5t-50 34.5t-34 52t-12.5 64q0 36 12.5 66t34.5 52t52 34.5t66 12.5q30 0 57 -11t52 -29t47.5 -41.5t43.5 -47.5 q21 24 43 47.5t46 41.5t51.5 29t60.5 11q35 0 63.5 -12t48.5 -33t31 -50.5t11 -65.5v-1zM282 175q26 0 50 11.5t45 29t40 38t36 37.5q-18 22 -37.5 44t-41 40t-46 29.5t-54.5 11.5q-26 0 -46 -10.5t-34 -27.5t-21.5 -39.5t-7.5 -47.5q0 -24 8.5 -45t23.5 -37t36.5 -25 t47.5 -9h1zM677 416q-28 0 -52.5 -13.5t-46.5 -32.5t-40 -39.5t-33 -34.5q27 -29 49.5 -51.5t43 -38t40.5 -23.5t42 -8q26 0 46 10.5t34 27t21.5 37.5t7.5 43q0 59 -31.5 91t-79.5 32h-1z" />
<glyph unicode="&#x222b;" horiz-adv-x="534" d="M146 -96q7 -4 20 -9t30 -5q14 0 27.5 6.5t23.5 17.5q8 10 15 24.5t12.5 35.5t8.5 50t3 70q0 62 -2.5 129t-5 135t-5 134t-2.5 126q0 84 12.5 134t44.5 81q20 20 44.5 29t49.5 9q17 0 33.5 -5t24.5 -10l-13 -47q-7 5 -18 8.5t-22 3.5q-14 0 -29 -5t-26 -19 q-22 -23 -30.5 -67t-8.5 -118q0 -60 2.5 -125.5t5 -132.5t5 -133.5t2.5 -127.5q0 -85 -14.5 -132.5t-33.5 -73.5q-17 -25 -43.5 -37t-55.5 -12q-20 0 -39.5 6t-29.5 12z" />
<glyph unicode="&#x2248;" horiz-adv-x="713" d="M620 416q-22 -41 -54.5 -69.5t-82.5 -28.5q-17 0 -32 3t-30 9t-31.5 14.5t-36.5 19.5q-25 14 -50 25t-53 11q-38 0 -63.5 -24t-46.5 -56l-30 25q25 47 63 73t84 26q40 0 70 -16.5t53 -28.5q29 -15 51.5 -26t53.5 -11q34 0 58.5 20t47.5 60zM620 237q-22 -40 -54.5 -68.5 t-82.5 -28.5q-17 0 -32 3t-30 9t-31.5 14t-36.5 19q-25 14 -50 25.5t-53 11.5q-39 0 -64 -24.5t-46 -56.5l-30 26q25 47 63 73t84 26q20 0 37.5 -5t32.5 -11.5t28 -14t25 -13.5q27 -15 50.5 -26.5t55.5 -11.5q34 0 57.5 19.5t47.5 59.5z" />
<glyph unicode="&#x2260;" horiz-adv-x="735" d="M348 166l-60 -130l-37 18l52 112h-168v45h188l75 160h-263v45h282l59 126l37 -17l-51 -109h177v-45h-196l-76 -160h272v-45h-291z" />
<glyph unicode="&#x2264;" horiz-adv-x="752" d="M159 332v47l494 240v-55l-443 -207v-2l443 -208v-55zM152 2v46h504v-46h-504z" />
<glyph unicode="&#x2265;" horiz-adv-x="751" d="M160 92v55l442 207v2l-442 208v55l494 -240v-47zM153 2v46h502v-46h-502z" />
<glyph unicode="&#x25ca;" horiz-adv-x="775" d="M400 -49l-218 406l220 406h55l219 -406l-221 -406h-55zM431 6q3 10 8.5 24t10.5 25l163 300l-163 301q-6 12 -12 26.5t-9 24.5h-2q-4 -11 -9 -24t-13 -27l-161 -298l164 -303q15 -31 20 -49h3z" />
<glyph unicode="&#x25fc;" horiz-adv-x="520" d="M0 520h520v-520h-520v520z" />
<glyph unicode="&#xf700;" horiz-adv-x="544" d="M246 260q0 16 -11.5 27.5t-28.5 11.5q-22 0 -36 -12.5t-14 -35.5q0 -16 12 -27t29 -11q23 0 36 12t13 35zM272 0l-18 124q-3 20 -0.5 34.5t7.5 32.5h-4q-13 -16 -29.5 -24.5t-41.5 -8.5q-18 0 -34 6.5t-27.5 18t-18.5 27t-7 33.5q0 26 9 46t25 34t36 21t43 7 q45 0 70.5 -26.5t28.5 -67.5l9 -109q3 -46 -3 -90h6q5 25 15 50t20 52l44 125q9 26 9 45t-14 31.5t-43.5 18.5t-78.5 6q-54 0 -104.5 -8t-79.5 -19h-10l12 56q6 28 18 59.5t34.5 58t57 43.5t85.5 17q24 0 46.5 -5.5t43.5 -12t42 -12t42 -5.5q51 0 65 61q17 -6 34 -11t36 -10 q-12 -51 -47.5 -81t-83.5 -30q-26 0 -46.5 6t-41.5 12.5t-44 12.5t-52 6q-43 0 -72 -22.5t-35 -51.5l-3 -14q18 4 50.5 9.5t83.5 5.5q38 0 76.5 -8t65.5 -27.5t36.5 -54t-11.5 -86.5l-108 -275h-93z" />
<glyph unicode="&#xf701;" d="M-140 656q-45 27 -107.5 45.5t-159.5 18.5q-23 0 -48 -1.5t-49 -4t-45 -5.5t-36 -7h-14q14 39 38.5 74.5t58.5 63t76.5 44t92.5 16.5q57 0 99 -19.5t69 -53t37.5 -78t3.5 -93.5h-16zM-192 739q-6 18 -16.5 36t-28 32t-42.5 23t-59 9q-63 0 -98.5 -22.5t-54.5 -49.5 q21 5 47 8.5t59 3.5q73 0 119.5 -12t73.5 -28z" />
<glyph unicode="&#xf702;" d="M-140 656q-45 27 -107.5 45.5t-159.5 18.5q-23 0 -48 -1.5t-49 -4t-45 -5.5t-36 -7h-14q14 39 38.5 74.5t58.5 63t76.5 44t92.5 16.5q66 0 113 -29.5t68 -79.5l5 2q-3 13 -5 38t3 51l9 42h72l-56 -268h-16zM-192 739q-6 18 -16.5 36t-28 32t-42.5 23t-59 9 q-63 0 -98.5 -22.5t-54.5 -49.5q21 5 47 8.5t59 3.5q73 0 119.5 -12t73.5 -28z" />
<glyph unicode="&#xf703;" d="M-140 656q-45 27 -107.5 45.5t-159.5 18.5q-23 0 -48 -1.5t-49 -4t-45 -5.5t-36 -7h-14q14 39 38.5 74.5t58.5 63t76.5 44t92.5 16.5q58 0 105 -22q17 20 40.5 33t49.5 13q35 0 55.5 -22.5t20.5 -54.5q0 -31 -19 -56t-48 -39q11 -46 5 -96h-16zM-192 739q-6 18 -16.5 36 t-28 32t-42.5 23t-59 9q-63 0 -98.5 -22.5t-54.5 -49.5q21 5 47 8.5t59 3.5q73 0 119.5 -12t73.5 -28zM-188 850q12 -11 22.5 -24.5t18.5 -29.5q12 6 21 17.5t9 25.5t-8.5 24.5t-22.5 10.5q-12 0 -23 -7.5t-17 -16.5z" />
<glyph unicode="&#xf704;" d="M-140 656q-45 27 -107.5 45.5t-159.5 18.5q-23 0 -48 -1.5t-49 -4t-45 -5.5t-36 -7h-14q14 39 38.5 74.5t57.5 63t73.5 44t87.5 16.5q30 0 51 -5.5t34 -13.5l1 1q-1 4 -1.5 10t1.5 12l4 20h71l-15 -74q14 -13 25 -27t19 -32l5 2q-3 13 -4 38t4 51l9 42h70l-56 -268h-16z M-192 739q-6 18 -16.5 36t-28 32t-42.5 23t-59 9q-63 0 -98.5 -22.5t-54.5 -49.5q21 5 47 8.5t59 3.5q73 0 119.5 -12t73.5 -28z" />
<glyph unicode="&#xf705;" d="M-261 684l46 217h77l-46 -217h-77z" />
<glyph unicode="&#xf706;" d="M-42 883q-11 -51 -40.5 -89t-68 -63.5t-81 -38t-78.5 -12.5q-41 0 -68 2.5t-48 6.5l3 38q19 6 41 14t37 21l1 5q-8 1 -19 5.5t-22 13t-18.5 22t-7.5 32.5q0 33 24 58.5t70 25.5q38 0 61.5 -22t23.5 -54q0 -38 -24.5 -64.5t-51.5 -41.5l1 -2q27 0 57.5 11t56.5 29.5 t46 44.5t26 58l5 25h79zM-291 845q0 10 -6.5 19.5t-22.5 9.5t-24.5 -8.5t-8.5 -22.5q0 -11 8 -20t21 -9q33 0 33 31z" />
<glyph unicode="&#xf707;" d="M-448 726q17 0 23.5 8.5t6.5 22.5q0 9 -6.5 17.5t-21.5 8.5q-16 0 -23 -8.5t-7 -21.5q0 -11 7.5 -19t20.5 -8zM-37 905q-24 -108 -103 -164.5t-201 -56.5l10 44q16 6 31.5 15.5t27.5 23t19.5 30.5t7.5 39q0 19 -8 30t-24 11q-17 0 -33 -13t-26 -28h-42q-4 17 -12.5 30 t-27.5 13q-26 0 -47 -18.5t-21 -52.5q10 9 22 14.5t29 5.5q29 0 49.5 -18t20.5 -50q0 -42 -24 -61t-58 -19q-44 0 -73 29.5t-29 75.5q0 29 8 56.5t24.5 48.5t41 33.5t57.5 12.5q29 0 47 -15t25 -29q12 14 34.5 29t50.5 15q15 0 30 -4t26.5 -13t18.5 -24t7 -37 q0 -34 -15.5 -62t-34.5 -45q23 9 41.5 25t33 36.5t24.5 44.5t16 48l6 26h77z" />
<glyph unicode="&#xf708;" d="M-202 777l-18 -93h-73l22 93l-91 -2l14 65l91 -2l18 92h73l-22 -92l92 2l-14 -65z" />
<glyph unicode="&#xf709;" d="M-33 907q-29 -13 -52 -22t-44 -15t-43.5 -9.5t-49.5 -4.5v-3q17 -8 27.5 -28t10.5 -43q0 -25 -8.5 -44t-23 -32t-33.5 -20t-40 -7q-45 0 -71 22.5t-26 61.5q0 42 23 68.5t63 46.5q30 14 60.5 24t62 18.5t63.5 18t65 23.5zM-290 730q23 0 33.5 13.5t10.5 30.5 q0 14 -10.5 26.5t-27.5 11.5q-20 -2 -30.5 -15.5t-10.5 -30.5q0 -14 9.5 -25t25.5 -11z" />
<glyph unicode="&#xf70a;" d="M-57 684l46 217h77l-46 -217h-77z" />
<glyph unicode="&#xf70b;" d="M145 883q-11 -51 -40.5 -89t-68 -63.5t-81 -38t-78.5 -12.5q-41 0 -68 2.5t-48 6.5l3 38q19 6 41 14t37 21l1 5q-8 1 -19 5.5t-22 13t-18.5 22t-7.5 32.5q0 33 24 58.5t70 25.5q38 0 61.5 -22t23.5 -54q0 -38 -24.5 -64.5t-51.5 -41.5l1 -2q27 0 57.5 11t56.5 29.5 t46 44.5t26 58l5 25h79zM-104 845q0 10 -6.5 19.5t-22.5 9.5t-24.5 -8.5t-8.5 -22.5q0 -11 8 -20t21 -9q33 0 33 31z" />
<glyph unicode="&#xf70c;" d="M-218 726q17 0 23.5 8.5t6.5 22.5q0 9 -6.5 17.5t-21.5 8.5q-16 0 -23 -8.5t-7 -21.5q0 -11 7.5 -19t20.5 -8zM193 905q-24 -108 -103 -164.5t-201 -56.5l10 44q16 6 31.5 15.5t27.5 23t19.5 30.5t7.5 39q0 19 -8 30t-24 11q-17 0 -33 -13t-26 -28h-42q-4 17 -12.5 30 t-27.5 13q-26 0 -47 -18.5t-21 -52.5q10 9 22 14.5t29 5.5q29 0 49.5 -18t20.5 -50q0 -42 -24 -61t-58 -19q-44 0 -73 29.5t-29 75.5q0 29 8 56.5t24.5 48.5t41 33.5t57.5 12.5q29 0 47 -15t25 -29q12 14 34.5 29t50.5 15q15 0 30 -4t26.5 -13t18.5 -24t7 -37 q0 -34 -15.5 -62t-34.5 -45q23 9 41.5 25t33 36.5t24.5 44.5t16 48l6 26h77z" />
<glyph unicode="&#xf70d;" d="M32 777l-18 -93h-73l22 93l-91 -2l14 65l91 -2l18 92h73l-22 -92l92 2l-14 -65z" />
<glyph unicode="&#xf70e;" d="M157 907q-29 -13 -52 -22t-44 -15t-43.5 -9.5t-49.5 -4.5v-3q17 -8 27.5 -28t10.5 -43q0 -25 -8.5 -44t-23 -32t-33.5 -20t-40 -7q-45 0 -71 22.5t-26 61.5q0 42 23 68.5t63 46.5q30 14 60.5 24t62 18.5t63.5 18t65 23.5zM-100 730q23 0 33.5 13.5t10.5 30.5 q0 14 -10.5 26.5t-27.5 11.5q-20 -2 -30.5 -15.5t-10.5 -30.5q0 -14 9.5 -25t25.5 -11z" />
<glyph unicode="&#xf70f;" horiz-adv-x="918" d="M223 102q0 16 -11 26.5t-29 10.5q-24 0 -37 -13.5t-13 -35.5q0 -16 11 -26t27 -10q22 0 37 11.5t15 36.5zM396 0l81 375q3 13 4 24.5t1 22.5q0 48 -29 74t-94 26q-57 0 -97 -19.5t-63 -42.5l-2 -8q15 -2 30.5 -7t30.5 -11.5t28 -14t22 -14.5l-8 -36q-45 -5 -78 -36.5 t-44 -86.5l-2 -12q-3 -19 -9.5 -31.5t-13.5 -23.5l2 -2q8 7 18.5 10.5t27.5 3.5q36 0 60.5 -23t24.5 -64q0 -48 -34 -78t-87 -30q-44 0 -71.5 24t-27.5 63v10.5t2 11.5l29 141q11 55 45 92t72 51q-21 11 -53.5 17.5t-63.5 6.5l10 46q16 25 42 49t59 43t73 30.5t84 11.5 q99 0 148.5 -45t49.5 -120q0 -25 -6 -53l-64 -304h230l111 514h81l-126 -585h-393z" />
<glyph unicode="&#xf710;" d="M21 873q-9 -46 -31.5 -82.5t-55.5 -61.5t-75 -38t-90 -13q-41 0 -75 8t-59.5 23.5t-39.5 39t-14 55.5q0 45 29.5 73.5t78.5 28.5q42 0 65.5 -21.5t23.5 -53.5q0 -18 -5.5 -31.5t-14.5 -23t-20 -16.5t-21 -11l-1 -2q8 -2 22.5 -4t33.5 -2q64 0 110 33t61 99l6 25h77z M-281 823q0 13 -8.5 22t-25.5 9q-19 0 -30 -9.5t-11 -28.5q0 -13 9.5 -22t24.5 -9q19 0 30 9.5t11 28.5z" />
<glyph unicode="&#xf711;" d="M-106 815q0 -55 -35.5 -90t-92.5 -35q-48 0 -76.5 29t-28.5 69q0 27 10 50t27.5 39.5t41 26t49.5 9.5q49 0 77 -29.5t28 -68.5zM-229 744q30 0 47 18t17 47q0 20 -12 35t-36 15q-32 0 -49.5 -19t-17.5 -47q0 -20 13 -34.5t38 -14.5z" />
<glyph unicode="&#xf712;" d="M-251 733q-5 4 -9 16t-4 23q0 33 23.5 55t63.5 22q38 0 58 -21.5t20 -48.5q0 -49 -34.5 -75t-82.5 -26q-56 0 -88.5 19.5t-46.5 51.5q-11 -11 -26 -30.5t-23 -38.5h-20q-27 16 -47.5 47.5t-20.5 73.5q0 27 9.5 55.5t30 51.5t52.5 38t77 15h128q42 0 67.5 15.5t46.5 36.5 l36 -46q-28 -32 -65.5 -51t-88.5 -19h-127q-51 0 -73 -26.5t-22 -61.5q0 -16 4.5 -29t12.5 -21q13 18 29.5 34.5t31.5 26.5h18q0 -13 5.5 -27.5t15 -27t21.5 -22t26 -12.5zM-186 736q19 0 28 10.5t9 28.5q0 12 -7.5 21t-22.5 9q-18 0 -27.5 -10.5t-9.5 -27.5q0 -11 8 -21 t22 -10z" />
<glyph unicode="&#xf713;" d="M-130 995l40 183h75l-40 -183h-75z" />
<glyph unicode="&#xf714;" d="M66 1180q-10 -47 -37 -82.5t-63.5 -59t-79 -35t-83.5 -11.5q-52 0 -92 8l4 39q17 5 37.5 12t34.5 18l1 5q-7 1 -17 5.5t-19 13t-15 20.5t-6 27q0 34 23 56t59 22t57 -21t21 -50q0 -32 -22 -56t-48 -38v-2q29 0 57.5 10.5t52 27.5t40 40.5t22.5 50.5l5 23h73zM-162 1144 q0 9 -6 18t-21 9t-22.5 -8t-7.5 -20q0 -9 6.5 -18t19.5 -9q15 0 23 8t8 20z" />
<glyph unicode="&#xf715;" d="M-264 1038q27 0 27 28q0 9 -6 17t-18 8q-13 0 -21 -7.5t-8 -20.5q0 -8 6 -16.5t20 -8.5zM107 1204q-21 -100 -92 -152.5t-181 -52.5l10 43q14 6 28 14.5t25.5 20.5t18.5 28.5t7 37.5q0 15 -6 25t-20 10q-16 0 -29.5 -12t-24.5 -26h-39q-4 15 -13.5 27.5t-27.5 12.5 q-26 0 -43.5 -19.5t-19.5 -47.5q9 8 19.5 14.5t31.5 6.5q27 0 47 -16t20 -45q0 -42 -25 -60t-63 -18q-17 0 -33.5 6t-29 18t-20 29t-7.5 39q0 27 8.5 53t24.5 46.5t39.5 33t53.5 12.5q26 0 41.5 -11t20.5 -24q12 13 34.5 24t48.5 11q12 0 25 -3.5t24 -12t18 -22.5t7 -35 q0 -19 -7.5 -42.5t-29.5 -49.5q41 20 58.5 56t27.5 81l5 24h73z" />
<glyph unicode="&#xf716;" d="M-42 1078l-15 -83h-71l19 83l-81 -2l14 64l80 -2l16 81h71l-20 -81l83 2l-14 -64z" />
<glyph unicode="&#xf717;" d="M-45 1140q-20 -8 -43.5 -10t-49.5 -4l-1 -3q16 -7 28.5 -25.5t12.5 -39.5q0 -48 -29.5 -72.5t-71.5 -24.5q-40 0 -63.5 22.5t-23.5 56.5q0 38 22 65t58 44q28 13 56 22t57 17.5t58.5 17t60.5 21.5l16 -54zM-195 1010q21 0 30 13t9 28q0 12 -8 23.5t-27 11.5t-28.5 -12.5 t-9.5 -29.5q0 -13 8.5 -23.5t25.5 -10.5z" />
<glyph unicode="&#xf718;" d="M-314 -545l16 73q2 11 5.5 16t8.5 12l-1 1q-8 -5 -16.5 -9t-18.5 -4q-28 0 -48 20t-20 51q0 43 27 71.5t74 28.5q42 0 64 -28.5t14 -67.5l-35 -164h-70zM-264 -370q0 12 -7.5 21t-21.5 9q-17 0 -27 -9t-10 -26q0 -12 8.5 -20.5t22.5 -8.5q15 0 25 8.5t10 25.5z" />
<glyph unicode="&#xf719;" d="M-489 -545l12 57h36l3 16q2 11 5.5 16t8.5 12l-1 1q-8 -5 -16.5 -9t-18.5 -4q-28 0 -48 20t-20 51q0 43 27 71.5t74 28.5q42 0 64.5 -28.5t14.5 -67.5l-23 -107h68l43 197h71l-55 -254h-245zM-404 -370q0 12 -7.5 21t-21.5 9q-17 0 -27 -9t-10 -26q0 -12 8.5 -20.5 t22.5 -8.5q15 0 25 8.5t10 25.5z" />
<glyph unicode="&#xf71a;" d="M-164 -349q0 -18 -8.5 -34t-22 -28t-31.5 -19.5t-36 -7.5q-28 0 -45 18.5t-17 44.5q0 18 8 34.5t21.5 28.5t30.5 19.5t35 7.5q29 0 47 -19t18 -45z" />
<glyph unicode="&#xf71b;" horiz-adv-x="665" d="M150 -146q0 18 -12.5 31t-31.5 13q-26 0 -42 -15t-16 -41q0 -17 12 -30.5t32 -13.5q26 0 42 15t16 41zM348 -263h-10l-83 60q-17 12 -28.5 24.5t-14.5 25.5h-4q-4 -20 -14 -39t-25.5 -33.5t-36.5 -23t-48 -8.5q-49 0 -75 27.5t-26 65.5q0 25 9 47t26 38t40.5 25t52.5 9 q16 0 28.5 -4t17.5 -9l4 3q-4 7 -4 21q0 4 0.5 8t1.5 9l2 9h79l-17 -75l119 -88l94 83l101 463q2 11 3.5 21.5t1.5 21.5q0 49 -32 76.5t-98 27.5q-57 0 -100.5 -19.5t-66.5 -42.5l-2 -8q15 -2 30.5 -7t30.5 -11.5t28 -14t22 -14.5l-8 -36q-41 -5 -61 -30t-30 -73l-36 -171 q-10 -45 -39 -72t-83 -27q-45 0 -72 25t-27 64q0 26 9.5 46.5t24.5 34.5t35 21.5t41 7.5t34.5 -5.5t20.5 -13.5l4 2q-2 5 -3 11.5t-1 13.5t1 14.5t3 16.5l7 31q21 96 86 124q-21 11 -53.5 17.5t-63.5 6.5l10 46q16 25 43 49t61.5 43t75.5 30.5t85 11.5q100 0 152 -46 t52 -122q0 -12 -1 -24.5t-4 -25.5l-107 -493zM152 102q0 17 -12 27t-29 10q-23 0 -36 -12.5t-13 -35.5q0 -17 11 -27t28 -10q22 0 36.5 12t14.5 36z" />
<glyph unicode="&#xf71c;" horiz-adv-x="664" d="M91 -204q25 0 40 15.5t15 41.5q0 17 -12.5 30t-30.5 13q-25 0 -40 -15t-15 -41q0 -20 12 -32t31 -12zM384 -263h-10l-50 60l-74 -60h-11l-21 28q-9 12 -14 22t-5 21q0 6 1 10h-4q-5 -14 -14.5 -28t-23.5 -25t-32.5 -18t-42.5 -7q-42 0 -71.5 25.5t-29.5 70.5 q0 24 9.5 45.5t26 37t39 24.5t48.5 9q17 0 28 -3t17 -8l2 1q-1 4 -1 12q0 11 4 24l2 7h74l-21 -94l49 -73l66 54h9l43 -52l48 43l112 512q2 11 3.5 21.5t1.5 21.5q0 49 -32 76.5t-98 27.5q-57 0 -100.5 -19.5t-66.5 -42.5l-2 -8q15 -2 30.5 -7t30.5 -11.5t28 -14t22 -14.5 l-8 -36q-41 -5 -61 -30t-30 -73l-36 -171q-10 -45 -39 -72t-83 -27q-45 0 -72 25t-27 64q0 26 9.5 46.5t24.5 34.5t35 21.5t41 7.5t34.5 -5.5t20.5 -13.5l4 2q-2 5 -3 11.5t-1 13.5t1 14.5t3 16.5l7 31q21 96 86 124q-21 11 -53.5 17.5t-63.5 6.5l10 46q16 25 43 49t61.5 43 t75.5 30.5t85 11.5q100 0 152.5 -46t52.5 -121q0 -24 -6 -51l-116 -536zM152 102q0 17 -12 27t-29 10q-23 0 -36 -12.5t-13 -35.5q0 -17 11 -27t28 -10q22 0 36.5 12t14.5 36z" />
<glyph unicode="&#xf71d;" horiz-adv-x="730" d="M237 499q0 16 -11 26.5t-28 10.5q-21 0 -36 -12t-15 -35q0 -16 11.5 -27t28.5 -11q23 0 36.5 13t13.5 35zM639 519q0 23 -21.5 41t-60.5 18q-29 0 -51.5 -11t-22.5 -31q0 -16 19.5 -26t52.5 -10q26 0 48 4t36 9v6zM526 0l-103 310l-235 -310h-71l76 355q4 17 10 28.5 t14 22.5l-3 2q-9 -8 -19.5 -11t-27.5 -3q-34 0 -59 25.5t-25 62.5q0 48 33.5 79.5t85.5 31.5q49 0 74 -24.5t25 -61.5q0 -12 -3 -25l-73 -339l182 241h63l80 -241l66 306q-17 -4 -32 -7t-38 -3q-29 0 -54.5 6.5t-44.5 18.5t-30 30t-11 41q0 42 40 71.5t113 29.5 q61 0 98 -26.5t44 -61.5q23 15 47.5 39t42.5 53l54 -36q-35 -45 -68.5 -76t-75.5 -51l-103 -477h-72z" />
<glyph unicode="&#xf883;" horiz-adv-x="620" d="M223 102q0 16 -11 26.5t-29 10.5q-24 0 -37 -13.5t-13 -35.5q0 -16 11 -26t27 -10q22 0 37 11.5t15 36.5zM367 -202l126 577q5 25 5 42q0 50 -32.5 77.5t-98.5 27.5q-57 0 -101 -19.5t-67 -42.5l-2 -8q15 -2 30.5 -7t30.5 -11.5t28 -14t22 -14.5l-8 -36q-45 -5 -78 -36.5 t-44 -86.5l-2 -12q-3 -19 -9.5 -31.5t-13.5 -23.5l2 -2q8 7 18.5 10.5t27.5 3.5q36 0 60.5 -23t24.5 -64q0 -48 -34 -78t-87 -30q-44 0 -71.5 24t-27.5 63v10.5t2 11.5l29 141q11 55 45 92t72 51q-21 11 -53.5 17.5t-63.5 6.5l10 46q16 25 43 49t62 43t76 30.5t85 11.5 q100 0 153 -46t53 -121q0 -24 -6 -51l-125 -577h-81z" />
<glyph unicode="&#xf884;" horiz-adv-x="664" d="M411 -202l126 577q2 11 3.5 21.5t1.5 21.5q0 49 -32 76.5t-98 27.5q-57 0 -100.5 -19.5t-66.5 -42.5l-2 -8q15 -2 30.5 -7t30.5 -11.5t28 -14t22 -14.5l-8 -36q-41 -5 -61 -30t-30 -73l-36 -171q-10 -45 -39 -72t-83 -27q-45 0 -72 25t-27 64q0 26 9.5 46.5t24.5 34.5 t35 21.5t41 7.5t34.5 -5.5t20.5 -13.5l4 2q-2 5 -3 11.5t-1 13.5t1 14.5t3 16.5l7 31q21 96 86 124q-21 11 -53.5 17.5t-63.5 6.5l10 46q16 25 43 49t61.5 43t75.5 30.5t85 11.5q100 0 152.5 -46t52.5 -121q0 -24 -6 -51l-125 -577h-81zM152 102q0 17 -12 27t-29 10 q-23 0 -36 -12.5t-13 -35.5q0 -17 11 -27t28 -10q22 0 36.5 12t14.5 36z" />
<glyph unicode="&#xf8ff;" horiz-adv-x="900" d="M450 -9q-112 0 -181.5 13.5t-108 52t-52 108t-13.5 181.5t13.5 181.5t52 108t108 52t181.5 13.5t181.5 -13.5t108 -52t52 -108t13.5 -181.5t-13.5 -181.5t-52 -108t-108 -52t-181.5 -13.5zM663 366q0 43 -16.5 79t-45 62t-67.5 40.5t-84 14.5t-84 -14.5t-67.5 -40.5 t-45 -62t-16.5 -79v-223h85l95 102q15 -6 33 -6q38 0 64 25t26 65q0 39 -26 64.5t-64 25.5t-64.5 -25.5t-26.5 -64.5q0 -26 13 -48l-65 -71v156q0 31 11.5 55.5t31 41.5t45.5 26.5t55 9.5t55 -9.5t45.5 -26.5t31 -41.5t11.5 -55.5v-223h70v223zM450 291q-15 0 -26.5 11 t-11.5 27t11.5 26.5t26.5 10.5t26 -10.5t11 -26.5t-11 -27t-26 -11z" />
<glyph horiz-adv-x="522" d="M-106 815q0 -55 -35.5 -90t-92.5 -35q-48 0 -76.5 29t-28.5 69q0 27 10 50t27.5 39.5t41 26t49.5 9.5q49 0 77 -29.5t28 -68.5zM-229 744q30 0 47 18t17 47q0 20 -12 35t-36 15q-32 0 -49.5 -19t-17.5 -47q0 -20 13 -34.5t38 -14.5zM314 0l83 390q6 27 4.5 51t-13 42 t-34 28.5t-58.5 10.5q-61 0 -103 -36.5t-55 -93.5l-8 -35h-76l8 35q10 43 31 80t52 64t71 42t88 15q49 0 85.5 -15.5t59.5 -43t30.5 -64.5t-1.5 -80l-83 -390h-81z" />
<glyph d="M-218 802q-26 0 -41 -9.5t-15 -29.5q0 -11 7 -19.5t18 -8.5t20.5 3.5t20.5 11.5l22 -45q-17 -12 -38 -19.5t-44 -7.5t-39 6t-25.5 16t-13.5 22t-4 24q0 37 26.5 62.5t68.5 33.5q-6 5 -10.5 15.5t-4.5 20.5q0 20 11 37t29.5 29t43.5 18.5t54 6.5q28 0 51 -5.5t37 -13.5 l-26 -49q-25 14 -59 14q-31 0 -50 -7.5t-19 -29.5q0 -9 5.5 -16t19.5 -7h53l-24 -53h-74z" />
</font>
</defs>
</svg>
