<?xml version="1.0" standalone="no"?>
<!DOCTYPE svg PUBLIC "-//W3C//DTD SVG 1.1//EN" "http://www.w3.org/Graphics/SVG/1.1/DTD/svg11.dtd" >
<svg xmlns="http://www.w3.org/2000/svg" xmlns:xlink="http://www.w3.org/1999/xlink" version="1.1">
<metadata></metadata>
<defs>
<font id="thongtermlight_oblique" horiz-adv-x="556" >
<font-face units-per-em="1000" ascent="800" descent="-200" />
<missing-glyph horiz-adv-x="278" />
<glyph unicode="&#xe2f;&#xe2f;" horiz-adv-x="704" d="M517 0l126 585h54l-126 -585h-54zM351 0l85 396q3 14 9.5 34t14.5 38q9 21 19 43l-5 2q-16 -32 -39.5 -61t-53.5 -51t-66 -34.5t-77 -12.5q-31 0 -56 10.5t-42 28t-26.5 40t-9.5 45.5q0 51 32 83t82 32q33 0 57 -21t24 -56q0 -24 -9 -42.5t-24 -31t-33 -18.5t-36 -6 q-13 0 -23 3l-2 -2q7 -7 24 -13.5t45 -6.5q37 0 71.5 15.5t65 41.5t55.5 59.5t43 69.5h54l-126 -585h-53zM250 509q0 14 -8 25.5t-27 11.5q-29 0 -43 -17t-14 -34q0 -15 7.5 -27t26.5 -12q26 0 42 17t16 36z" />
<glyph unicode="&#xe4f;&#x22;" horiz-adv-x="479" d="M336 280q0 -19 -8 -35.5t-21.5 -29t-31 -20t-36.5 -7.5q-28 0 -45.5 18.5t-17.5 45.5q0 19 8 35.5t21.5 29.5t31 20.5t35.5 7.5q29 0 46.5 -18.5t17.5 -46.5zM419 293q0 28 -9.5 52.5t-26.5 42.5t-40.5 28t-52.5 10q-38 0 -73.5 -15.5t-62.5 -41.5t-43.5 -60t-16.5 -71 q0 -27 9.5 -51t26 -41.5t40 -27.5t52.5 -10q38 0 73.5 15t63 40.5t44 59t16.5 70.5zM444 298q0 -44 -19.5 -82.5t-51 -67.5t-73 -46t-84.5 -17q-33 0 -59.5 11.5t-46 31.5t-30 47t-10.5 59q0 43 19 82.5t50.5 68.5t72 46.5t83.5 17.5q33 0 60.5 -11.5t47 -32t30.5 -48 t11 -59.5zM243 519l40 181h40l-40 -181h-40zM332 519l40 181h40l-40 -181h-40z" />
<glyph unicode="&#xe24;&#xe32;" horiz-adv-x="948" d="M702 -281l142 670q6 27 6 51q0 49 -30 76.5t-101 27.5q-57 0 -99 -19.5t-68 -42.5q4 -16 4 -38q0 -27 -6 -55l-142 -670h-54l142 670q2 12 3.5 23t1.5 22q0 51 -33.5 80.5t-106.5 29.5q-61 0 -108 -20t-77 -45v-3q35 -3 71 -17t58 -31l-6 -22q-49 -5 -83.5 -36.5 t-45.5 -83.5l-16 -73q-5 -19 -9.5 -32.5t-12.5 -27.5l4 -1q7 10 22.5 17.5t35.5 7.5q30 0 53 -20t23 -58q0 -23 -9 -42t-24 -32.5t-35.5 -21t-43.5 -7.5q-38 0 -62.5 20.5t-24.5 52.5q0 5 0.5 9t1.5 9l43 199q11 48 40.5 82.5t66.5 48.5l1 4q-21 11 -55.5 16t-64.5 5l7 32 q19 25 45.5 47t59.5 38t72 25t83 9q60 0 100 -17t61 -48q37 29 85.5 47t111.5 18q91 0 133.5 -38t42.5 -106q0 -14 -2 -29t-5 -31l-142 -670h-54zM220 94q0 18 -10.5 29.5t-29.5 11.5q-24 0 -41 -15t-17 -39q0 -17 11.5 -29t29.5 -12q24 0 40.5 15.5t16.5 38.5z" />
<glyph unicode="&#xe26;&#xe32;" horiz-adv-x="998" d="M753 -281l142 670q6 27 6 51q0 49 -30 76.5t-101 27.5q-57 0 -98 -18.5t-67 -41.5q5 -23 5 -43q0 -25 -6 -52l-143 -670h-54l143 670q2 12 3.5 23t1.5 22q0 51 -33.5 80.5t-106.5 29.5q-61 0 -108 -20t-77 -45v-3q35 -3 73.5 -17t60.5 -31l-6 -22q-49 -5 -78 -36.5 t-40 -83.5l-43 -199q-10 -44 -40.5 -67.5t-71.5 -23.5q-37 0 -60.5 22t-23.5 57q0 48 32 75.5t75 27.5q23 0 35.5 -8.5t19.5 -17.5l4 1q-1 5 -1 10.5v10.5q0 19 4 39l16 73q11 48 35 82.5t61 48.5l1 4q-11 6 -26 10t-32 6.5t-34.5 3.5t-32.5 1l7 32q38 51 103 85t153 34 q60 0 100.5 -16.5t62.5 -47.5q36 28 85 46t111 18q91 0 133.5 -38t42.5 -106q0 -14 -2 -29t-5 -31l-142 -670h-54zM148 94q0 17 -10.5 29t-29.5 12q-24 0 -41 -15.5t-17 -38.5q0 -17 12 -29t30 -12q24 0 40 15t16 39z" />
<glyph unicode="fi" horiz-adv-x="500" d="M56 0l105 472h-86l10 48h86l17 74q15 68 51.5 103t103.5 35q17 0 32 -2t32 -6l-12 -50q-13 5 -26 7.5t-30 2.5q-35 0 -57 -19t-33 -64l-18 -81h106l-10 -48h-106l-105 -472h-60zM319 0l115 520h60l-115 -520h-60zM460 634l19 88h60l-19 -88h-60z" />
<glyph unicode="fl" horiz-adv-x="500" d="M56 0l105 472h-86l10 48h86l17 74q15 68 51.5 103t103.5 35q17 0 32 -2t32 -6l-12 -50q-13 5 -26 7.5t-30 2.5q-35 0 -57 -19t-33 -64l-18 -81h106l-10 -48h-106l-105 -472h-60zM319 0l160 722h60l-160 -722h-60z" />
<glyph unicode=" "  horiz-adv-x="278" />
<glyph unicode="&#x09;" horiz-adv-x="278" />
<glyph unicode="&#xa0;" horiz-adv-x="278" />
<glyph unicode="!" horiz-adv-x="222" d="M95 222l93 500h86l-129 -500h-50zM28 0l20 90h86l-20 -90h-86z" />
<glyph unicode="&#x22;" horiz-adv-x="333" d="M156 496l50 226h50l-50 -226h-50zM267 496l50 226h50l-50 -226h-50z" />
<glyph unicode="#" d="M267 0l85 235h-148l-85 -235h-49l85 235h-118l11 48h124l58 157h-118l10 48h124l85 234h50l-85 -234h147l85 234h50l-85 -234h106l-10 -48h-113l-57 -157h106l-11 -48h-113l-85 -235h-49zM427 440h-148l-57 -157h147z" />
<glyph unicode="$" d="M189 -119l26 119q-72 3 -124.5 40.5t-69.5 105.5l55 33q6 -27 18.5 -51t31.5 -41.5t44 -28t56 -10.5l65 297q-30 9 -59 21.5t-52 31t-37 43.5t-14 59q0 55 22 96t57.5 69t79 42t87.5 15l16 70h48l-16 -70q34 -2 62 -13t49 -27.5t34 -37t18 -40.5q-1 0 -8 -5t-16 -11 t-17 -11.5t-10 -6.5q-14 43 -44.5 70t-78.5 33l-62 -282q31 -10 62.5 -23t56.5 -32t40.5 -45.5t15.5 -62.5q0 -56 -24.5 -98t-62.5 -71t-84.5 -44t-90.5 -15l-26 -119h-48zM364 674q-32 0 -63.5 -11t-57 -32t-41.5 -50.5t-16 -66.5q0 -25 10 -42.5t26.5 -30.5t38 -21.5 t44.5 -14.5zM274 48q33 0 67.5 13.5t63 36t47 53t18.5 65.5q0 25 -12.5 43.5t-32 32t-43 23t-45.5 17.5z" />
<glyph unicode="%" horiz-adv-x="889" d="M498 593q0 -39 -18 -75t-47 -63.5t-65.5 -44t-74.5 -16.5q-59 0 -95 36.5t-36 91.5q0 40 17.5 76t46.5 63.5t65.5 44t74.5 16.5q29 0 53.5 -10t42 -27t27 -41t9.5 -51zM449 583q0 39 -26 65t-68 26q-27 0 -53 -11.5t-46.5 -31t-32.5 -45.5t-12 -54q0 -39 25.5 -64.5 t67.5 -25.5q27 0 53.5 11.5t46.5 31t32.5 45t12.5 53.5zM807 199q0 -39 -17.5 -75t-46.5 -63.5t-65.5 -44t-74.5 -16.5q-59 0 -95.5 36.5t-36.5 92.5q0 39 18 75t47 63.5t65.5 44t74.5 16.5q59 0 95 -36.5t36 -92.5zM758 191q0 38 -25.5 63.5t-67.5 25.5q-27 0 -53 -11.5 t-46.5 -31t-33 -45.5t-12.5 -54q0 -38 26 -64t68 -26q27 0 53 11.5t46.5 31.5t32.5 45.5t12 54.5zM165 -10l588 742h53l-589 -742h-52z" />
<glyph unicode="&#x26;" horiz-adv-x="667" d="M409 114q-15 17 -33.5 48t-36.5 67t-34 71t-25 60q-31 -15 -62.5 -36t-56.5 -47.5t-41 -59.5t-16 -73q0 -25 10.5 -43.5t28.5 -31t41.5 -19t48.5 -6.5q32 0 59.5 7.5t49.5 18t39 23t28 21.5zM320 442q31 15 59 35.5t49 44t33 49t12 49.5q0 26 -15.5 42t-50.5 16 q-28 0 -48 -14t-33 -35.5t-19.5 -48t-6.5 -51.5q0 -47 20 -87zM592 -10q-48 2 -86 23.5t-65 55.5q-50 -38 -108 -58.5t-115 -20.5q-37 0 -70 9t-57.5 26.5t-39 44t-14.5 62.5q0 50 19 90.5t50.5 74.5t71.5 62t83 54q-12 26 -19 55t-7 60q0 48 14.5 86t40 64t59.5 40t73 14 q53 0 85.5 -27t32.5 -76q0 -44 -18 -79.5t-46.5 -64t-64 -52.5t-69.5 -46q29 -60 55 -120t62 -110q36 42 65.5 88t49.5 95l60 -12q-26 -58 -61 -111.5t-78 -101.5q20 -26 46.5 -44.5t63.5 -20.5z" />
<glyph unicode="'" horiz-adv-x="222" d="M156 496l50 226h50l-50 -226h-50z" />
<glyph unicode="(" horiz-adv-x="333" d="M148 -82q-32 61 -47.5 130t-15.5 139q0 63 14.5 132t44.5 139t76 139.5t108 134.5h72q-68 -63 -116 -132.5t-79 -139.5t-45.5 -138t-14.5 -129q0 -72 18 -142t57 -133h-72z" />
<glyph unicode=")" horiz-adv-x="333" d="M-3 -82q67 63 115 132t79 139t45.5 138.5t14.5 129.5q0 71 -17.5 141.5t-56.5 133.5h72q32 -62 47.5 -130.5t15.5 -138.5q0 -63 -14.5 -132t-44.5 -139.5t-76 -140t-108 -133.5h-72z" />
<glyph unicode="*" horiz-adv-x="500" d="M371 412l-40 124l-98 -124l-38 30l117 108l-136 30l29 52l121 -51l18 141h54l-42 -141l142 53l4 -50l-147 -34l68 -103z" />
<glyph unicode="+" horiz-adv-x="600" d="M339 233l-52 -233h-54l52 233h-233l12 54h233l51 233h54l-51 -233h233l-12 -54h-233z" />
<glyph unicode="," horiz-adv-x="278" d="M7 -150l91 150h-42l20 90h86l-20 -90l-96 -150h-39z" />
<glyph unicode="-" horiz-adv-x="333" d="M54 233l12 54h249l-12 -54h-249z" />
<glyph unicode="." horiz-adv-x="278" d="M56 0l20 90h86l-20 -90h-86z" />
<glyph unicode="/" horiz-adv-x="278" d="M-54 -10l411 742h55l-407 -742h-59z" />
<glyph unicode="0" d="M236 -10q-50 0 -85 16.5t-57.5 46.5t-33 71.5t-10.5 91.5q0 47 9 103.5t27 113.5t46.5 111t67 96t88.5 67t112 25q49 0 84 -16.5t57.5 -46.5t33 -71.5t10.5 -91.5q0 -98 -25.5 -190.5t-71.5 -165t-110 -116.5t-142 -44zM244 44q48 0 87.5 23.5t70 61.5t53 87t37 100.5 t21.5 101t7 89.5q0 79 -31 125t-101 46q-47 0 -85.5 -23t-69 -61.5t-53 -87t-37 -100t-21.5 -101.5t-7 -90q0 -80 29.5 -125.5t99.5 -45.5z" />
<glyph unicode="1" d="M94 0l12 54h124l134 606l-142 -20l9 39l173 53h42l-150 -678h120l-12 -54h-310z" />
<glyph unicode="2" d="M4 0l9 42q4 19 19.5 43.5t50 58.5t92.5 78t148 102q34 22 69.5 46t64 53.5t46.5 65t18 81.5q0 49 -31 78.5t-100 29.5q-65 0 -117.5 -41t-88.5 -122l-55 11q39 98 113 152t167 54q84 0 128.5 -39.5t44.5 -108.5q0 -45 -11 -82t-38 -72.5t-73 -71.5t-116 -78 q-36 -22 -79.5 -50.5t-83 -59t-69 -61t-36.5 -55.5h396l-12 -54h-456z" />
<glyph unicode="3" d="M203 356l12 54h54q52 0 95 10.5t73.5 32t47.5 54.5t17 78q0 49 -35 71t-98 22q-51 0 -95 -23t-92 -71l-39 34q62 62 122.5 88t120.5 26q31 0 63.5 -7t59.5 -22.5t44 -41.5t17 -64q0 -78 -41.5 -129t-116.5 -82q45 -19 73.5 -51t28.5 -84q0 -60 -22 -108.5t-61 -82.5 t-92 -52t-114 -18q-44 0 -81.5 8.5t-66 26.5t-47.5 45t-26 64l59 30q9 -35 23 -58t34 -36.5t47.5 -19.5t62.5 -6q48 0 88 13t69 38.5t45 62t16 84.5q0 58 -45.5 86t-133.5 28h-66z" />
<glyph unicode="4" d="M459 660h-7l-360 -424h273zM313 0l40 182h-339l12 51l425 489h88l-108 -487h109l-12 -53h-109l-40 -182h-66z" />
<glyph unicode="5" d="M95 160q17 -62 53 -89t94 -27t102 23t73 59t43.5 80t14.5 86q0 62 -34 98.5t-100 36.5q-23 0 -49 -7t-51 -19.5t-47 -31t-38 -42.5l-50 9l118 386h359l-12 -54h-310l-76 -251q82 64 177 64q43 0 75.5 -13.5t54.5 -37.5t33 -56.5t11 -70.5q0 -66 -23.5 -123.5t-65.5 -99.5 t-99.5 -66t-125.5 -24t-119.5 34t-68.5 101z" />
<glyph unicode="6" d="M563 623q-20 32 -54 43.5t-76 11.5q-62 0 -111 -31t-85.5 -78.5t-60.5 -104.5t-35 -108q45 41 101.5 68.5t113.5 27.5q46 0 81 -13t58 -36.5t35 -55.5t12 -70q0 -65 -25.5 -118t-67.5 -90.5t-96 -58t-111 -20.5q-54 0 -90.5 16t-58.5 44t-31 65.5t-9 80.5q0 47 10.5 105 t32.5 118t54.5 116t76 100t98.5 70.5t121 26.5q48 0 87 -15.5t71 -44.5zM256 44q46 0 86 18.5t70 49.5t47.5 72t17.5 86q0 57 -36 92.5t-108 35.5q-40 0 -77 -18.5t-66.5 -42.5t-48 -47t-20.5 -33q-4 -18 -6 -34t-2 -32q0 -69 37.5 -108t105.5 -39z" />
<glyph unicode="7" d="M83 0l456 668h-376l12 54h446l-9 -39l-458 -683h-71z" />
<glyph unicode="8" d="M410 380q70 -35 98.5 -74.5t28.5 -83.5q0 -60 -26 -103.5t-68 -72t-96 -42.5t-111 -14q-49 0 -89 7.5t-68.5 25t-44 44.5t-15.5 66q0 34 10 67.5t34.5 64.5t66 60t104.5 55q-105 40 -105 130q0 55 22 96.5t59.5 69.5t86.5 42t103 14q89 0 140 -34t51 -103q0 -77 -48 -132 t-133 -83zM316 352q-54 -20 -96.5 -39.5t-72 -42.5t-45 -51t-15.5 -65q0 -57 43.5 -83.5t114.5 -26.5q40 0 80.5 10t72.5 30.5t52 52t20 74.5q0 46 -41.5 77.5t-112.5 63.5zM328 406q40 10 75.5 25.5t62.5 37t42.5 50t15.5 64.5q0 48 -37 71.5t-99 23.5q-36 0 -70.5 -9.5 t-61.5 -28.5t-43 -47.5t-16 -66.5q0 -47 37.5 -75.5t93.5 -44.5z" />
<glyph unicode="9" d="M63 101q23 -26 51 -41.5t76 -15.5q63 0 112 27.5t85 72.5t60 101.5t37 114.5q-46 -42 -102.5 -70t-113.5 -28q-47 0 -82 14t-58.5 38.5t-35 56.5t-11.5 68q0 62 22 115.5t61.5 93t95.5 62t124 22.5q53 0 89.5 -16.5t58.5 -44.5t31.5 -65.5t9.5 -79.5q0 -47 -9.5 -105 t-30 -117.5t-51 -116t-72.5 -100.5t-95.5 -70.5t-118.5 -26.5q-60 0 -101 15.5t-73 44.5zM504 459q8 40 8 69q0 72 -37 111t-105 39q-47 0 -87.5 -18t-70.5 -49.5t-47 -73t-17 -89.5q0 -59 35.5 -95.5t107.5 -36.5q40 0 77.5 18.5t66.5 43t48 48t21 33.5z" />
<glyph unicode=":" horiz-adv-x="278" d="M56 0l20 90h86l-20 -90h-86zM123 304l20 90h86l-20 -90h-86z" />
<glyph unicode=";" horiz-adv-x="278" d="M7 -150l91 150h-42l20 90h86l-20 -90l-96 -150h-39zM123 304l20 90h86l-20 -90h-86z" />
<glyph unicode="&#x3c;" horiz-adv-x="600" d="M51 232l13 56l573 238l-13 -58l-498 -208l406 -208l-13 -58z" />
<glyph unicode="=" horiz-adv-x="600" d="M74 333l12 54h520l-12 -54h-520zM29 133l12 54h520l-12 -54h-520z" />
<glyph unicode="&#x3e;" horiz-adv-x="600" d="M-1 -6l13 58l498 208l-406 208l13 58l467 -238l-13 -56z" />
<glyph unicode="?" horiz-adv-x="389" d="M144 220l16 72q6 27 25 51t44 47.5t52.5 47.5t50.5 50t38 55t15 64t-23 53t-59 18q-25 0 -45.5 -9t-37 -22.5t-29.5 -30.5t-23 -32l-44 25q32 56 80 89.5t112 33.5q28 0 52.5 -8t42.5 -23t28.5 -37.5t10.5 -52.5q0 -42 -16 -74.5t-40.5 -59t-53.5 -49.5t-56 -47 t-48 -51.5t-28 -61.5l-10 -48h-54zM76 0l20 90h86l-20 -90h-86z" />
<glyph unicode="@" horiz-adv-x="800" d="M340 189q24 0 50.5 13.5t51.5 35.5t47.5 50.5t39.5 57.5t27 57t10 50q0 30 -18 53.5t-44 23.5q-42 0 -84 -28.5t-75 -70t-53.5 -88t-20.5 -81.5q0 -34 19 -53.5t50 -19.5zM734 172q-33 -42 -74.5 -76t-88.5 -57.5t-96.5 -36t-97.5 -12.5q-68 0 -123 22t-94 61t-60 92 t-21 115q0 90 39 171.5t103.5 144t146.5 99.5t169 37q61 0 112 -17.5t87.5 -50t56.5 -77t20 -98.5q0 -68 -29.5 -131.5t-74.5 -112.5t-97 -78.5t-97 -29.5q-23 0 -38.5 13t-15.5 40q0 4 0.5 8t1.5 9q-32 -26 -71 -48t-78 -22q-53 0 -80.5 31t-27.5 79q0 57 28 116t73 108 t101 80t112 31q35 0 59.5 -19.5t30.5 -65.5l41 66h54l-164 -295q-11 -20 -18.5 -37t-7.5 -29q0 -19 21 -19q38 0 78 29.5t72.5 74.5t53.5 97.5t21 99.5t-18 84.5t-49 64t-73.5 41t-90.5 14.5q-76 0 -147.5 -33.5t-127.5 -89.5t-90 -128.5t-34 -149.5q0 -54 18.5 -100.5 t52.5 -80t81 -53t104 -19.5q38 0 77.5 9.5t78 27.5t74 43.5t65.5 57.5h52z" />
<glyph unicode="A" horiz-adv-x="611" d="M415 668h-2l-203 -378h241zM475 0l-21 236h-273l-126 -236h-70l391 722h101l68 -722h-70z" />
<glyph unicode="B" horiz-adv-x="667" d="M309 54q42 0 81.5 10t70.5 31.5t50 56t19 82.5q0 51 -41.5 82.5t-135.5 31.5h-150l-65 -294h171zM372 402q33 0 69 7.5t66 27t49.5 53.5t19.5 86q0 55 -43.5 73.5t-128.5 18.5h-130l-59 -266h157zM60 0l160 722h202q115 0 168.5 -31.5t53.5 -98.5q0 -80 -37 -131.5 t-106 -79.5q45 -22 70 -54.5t25 -82.5q0 -64 -22.5 -110t-62.5 -76t-93.5 -44t-114.5 -14h-243z" />
<glyph unicode="C" horiz-adv-x="611" d="M577 209q-21 -48 -48 -88.5t-62.5 -69.5t-80.5 -45t-102 -16q-105 0 -158 65t-53 177q0 50 10.5 106.5t31 112.5t52 106.5t73 89.5t93.5 62t115 23q48 0 82.5 -16t56.5 -44t33 -66.5t13 -82.5l-64 -13q-5 80 -39 124t-100 44q-50 0 -91 -21t-73 -56t-56 -80.5t-40 -94.5 t-23.5 -98.5t-7.5 -92.5q0 -42 9 -77.5t28 -60.5t49 -39t72 -14q43 0 77 14.5t60 38.5t46.5 56t37.5 67z" />
<glyph unicode="D" horiz-adv-x="667" d="M278 54q81 0 142 37.5t102 97t62 134t21 148.5q0 96 -47.5 146.5t-143.5 50.5h-140l-136 -614h140zM60 0l160 722h204q66 0 113 -19t77 -52t44 -78t14 -97q0 -88 -27 -173t-79 -152.5t-128 -109t-174 -41.5h-204z" />
<glyph unicode="E" d="M60 0l160 722h412l-12 -54h-346l-59 -266h249l-12 -54h-249l-65 -294h365l-12 -54h-431z" />
<glyph unicode="F" d="M60 0l160 722h424l-12 -54h-358l-59 -266h261l-12 -54h-261l-77 -348h-66z" />
<glyph unicode="G" horiz-adv-x="667" d="M483 0l16 71h-2q-42 -42 -90.5 -61.5t-123.5 -19.5q-97 0 -154 61.5t-57 179.5q0 50 10.5 106.5t32 112t53 106.5t73 90t93 62.5t112.5 23.5q51 0 88.5 -15.5t63 -43t38 -66t12.5 -84.5l-64 -11q-1 34 -9 64.5t-25.5 53t-45.5 35.5t-68 13q-50 0 -91 -21t-74 -56.5 t-58 -81t-41.5 -95t-25 -99t-8.5 -91.5q0 -39 8.5 -74t29 -60.5t54.5 -40.5t85 -15q38 0 72 13.5t61.5 37.5t46.5 55.5t27 67.5l15 66h-182l12 54h248l-75 -338h-57z" />
<glyph unicode="H" horiz-adv-x="722" d="M516 0l77 348h-390l-77 -348h-66l160 722h66l-71 -320h390l71 320h66l-160 -722h-66z" />
<glyph unicode="I" horiz-adv-x="278" d="M66 0l160 722h66l-160 -722h-66z" />
<glyph unicode="J" horiz-adv-x="444" d="M384 722h66l-126 -570q-18 -81 -72.5 -121.5t-130.5 -40.5q-65 0 -95 23.5t-47 72.5l60 31q13 -38 32 -55.5t66 -17.5q48 0 79 30.5t46 97.5z" />
<glyph unicode="K" horiz-adv-x="611" d="M491 0l-141 398l-171 -157l-53 -241h-66l160 722h66l-87 -392l417 392h81l-294 -276l162 -446h-74z" />
<glyph unicode="L" horiz-adv-x="500" d="M60 0l160 722h66l-148 -668h322l-12 -54h-388z" />
<glyph unicode="M" horiz-adv-x="833" d="M627 0l148 668h-2l-365 -668h-63l-69 668h-2l-148 -668h-66l160 722h116l63 -612h2l336 612h116l-160 -722h-66z" />
<glyph unicode="N" horiz-adv-x="722" d="M514 0l-238 668h-2l-148 -668h-66l160 722h111l210 -602h2l133 602h66l-160 -722h-68z" />
<glyph unicode="O" horiz-adv-x="667" d="M291 -10q-54 0 -94.5 18t-68 50.5t-41 78.5t-13.5 102q0 101 30.5 191t82.5 157t121 106t147 39q54 0 94.5 -18t68 -50.5t41 -78.5t13.5 -102q0 -101 -30.5 -191t-82.5 -157t-121.5 -106t-146.5 -39zM303 44q51 0 93 20t76 54t59 78.5t42 93t25.5 98t8.5 94.5 q0 95 -43 145.5t-121 50.5q-51 0 -93 -20t-76 -54t-59 -78.5t-42 -93t-25.5 -98.5t-8.5 -94q0 -96 43 -146t121 -50z" />
<glyph unicode="P" horiz-adv-x="611" d="M60 0l160 722h218q109 0 157.5 -39.5t48.5 -107.5q0 -56 -19.5 -103t-57 -81t-92.5 -52.5t-126 -18.5h-152l-71 -320h-66zM361 374q102 0 159 49t57 141q0 51 -36 77.5t-115 26.5h-152l-65 -294h152z" />
<glyph unicode="Q" horiz-adv-x="667" d="M591 -60q-24 0 -47 4.5t-42.5 15.5t-35 28t-24.5 43q-70 -41 -151 -41q-54 0 -94.5 18t-68 50.5t-41 78.5t-13.5 102q0 101 30.5 191t82.5 157t121 106t147 39q54 0 94.5 -18t68 -50.5t41 -78.5t13.5 -102q0 -61 -13.5 -121.5t-37 -115t-56 -100t-70.5 -77.5 q14 -41 38 -55t71 -14zM361 222q83 -15 119 -96q25 26 48 65.5t40.5 86.5t28 99.5t10.5 104.5q0 95 -43 145.5t-121 50.5q-51 0 -93 -20t-76 -54t-59 -78.5t-42 -93t-25.5 -98.5t-8.5 -94q0 -96 43 -146t121 -50q65 0 122 36q-15 40 -32 56t-46 21z" />
<glyph unicode="R" horiz-adv-x="667" d="M389 384q40 0 75 12.5t61 36t41 57.5t15 76q0 48 -31.5 75t-97.5 27h-178l-63 -284h178zM481 0l-95 330h-187l-73 -330h-66l160 722h244q91 0 138 -39.5t47 -107.5q0 -91 -52.5 -151t-144.5 -82l101 -342h-72z" />
<glyph unicode="S" d="M514 542q-6 60 -40.5 98t-103.5 38q-33 0 -64 -11t-56 -31.5t-40 -50.5t-15 -69q0 -13 5.5 -25.5t19 -25t37 -26t59.5 -28.5q57 -23 95.5 -44t61.5 -42t33 -43t10 -49q0 -58 -20.5 -103.5t-56.5 -76.5t-85 -47t-107 -16q-104 0 -155 46.5t-59 146.5l65 19 q2 -83 43.5 -120.5t127.5 -37.5q34 0 66.5 12.5t57.5 35t40 54t15 69.5q0 26 -13.5 45.5t-34 34t-45 25.5t-46.5 20q-32 13 -64 27.5t-58 33.5t-42.5 44t-16.5 59q0 48 18.5 89.5t51.5 72t80 48.5t104 18q86 0 136.5 -44.5t56.5 -128.5z" />
<glyph unicode="T" d="M205 0l148 668h-214l12 54h494l-12 -54h-214l-148 -668h-66z" />
<glyph unicode="U" horiz-adv-x="722" d="M676 722h66l-108 -486q-28 -124 -105.5 -185t-209.5 -61q-216 0 -216 168q0 36 9 78l108 486h66l-109 -492q-5 -19 -6.5 -35.5t-1.5 -30.5q0 -66 41.5 -93t120.5 -27q48 0 86.5 9.5t68 31.5t49.5 57.5t32 87.5z" />
<glyph unicode="V" d="M202 0l-74 722h70l57 -628h2l341 628h70l-400 -722h-66z" />
<glyph unicode="W" horiz-adv-x="833" d="M517 0l-9 594h-2l-273 -594h-66l-31 722h67l21 -602h2l277 602h66l8 -602h2l290 602h67l-353 -722h-66z" />
<glyph unicode="X" d="M426 0l-120 316l-256 -316h-78l309 378l-136 344h78l109 -288l233 288h78l-284 -344l145 -378h-78z" />
<glyph unicode="Y" d="M201 0l68 306l-129 416h74l99 -357l269 357h74l-321 -416l-68 -306h-66z" />
<glyph unicode="Z" d="M6 0l12 54l513 614h-346l12 54h428l-12 -56l-513 -612h382l-12 -54h-464z" />
<glyph unicode="[" horiz-adv-x="333" d="M32 -72l176 794h186l-8 -36h-126l-160 -722h126l-8 -36h-186z" />
<glyph unicode="\" horiz-adv-x="278" d="M189 -10l-79 742h55l83 -742h-59z" />
<glyph unicode="]" horiz-adv-x="333" d="M3 -72l8 36h126l160 722h-126l8 36h186l-176 -794h-186z" />
<glyph unicode="^" horiz-adv-x="600" d="M504 296l-102 354l-254 -354h-66l311 426h53l124 -426h-66z" />
<glyph unicode="_" horiz-adv-x="500" d="M-68 -125l11 50h500l-11 -50h-500z" />
<glyph unicode="`" horiz-adv-x="222" d="M211 578l-106 138h77l80 -138h-51z" />
<glyph unicode="a" horiz-adv-x="500" d="M326 0l6 63q-27 -18 -51.5 -32t-48.5 -23t-49.5 -13.5t-55.5 -4.5q-53 0 -85 26.5t-32 75.5q0 66 34.5 108t89.5 69t124 43t137 30l8 36q2 10 3 18.5t1 16.5q0 35 -23 52t-77 17q-47 0 -90.5 -24.5t-81.5 -69.5l-35 24q48 63 102 90.5t117 27.5q73 0 109 -25t36 -82 q0 -13 -2 -26.5t-5 -29.5l-60 -272q-5 -20 -8 -44.5t-5 -50.5h-58zM381 294q-102 -21 -163 -43t-93.5 -45t-43 -48.5t-10.5 -53.5q0 -32 20.5 -49t55.5 -17q42 0 95 23t101 63z" />
<glyph unicode="b" d="M52 0l160 722h60l-60 -270q24 20 45 35t42.5 24.5t44 14t48.5 4.5q74 0 114.5 -51t40.5 -134q0 -57 -17.5 -120t-52 -115t-86.5 -86t-122 -34q-54 0 -92 18.5t-58 59.5l-25 -68h-42zM141 133q10 -20 22 -37.5t28 -30.5t36.5 -20t48.5 -7q46 0 85 28t67 71.5t43.5 97.5 t15.5 105q0 65 -29.5 103.5t-91.5 38.5q-22 0 -47 -9.5t-48.5 -24t-43 -30.5t-29.5 -29z" />
<glyph unicode="c" horiz-adv-x="500" d="M451 123q-23 -28 -48 -52t-54 -42t-61.5 -28.5t-69.5 -10.5q-88 0 -131.5 50t-43.5 132q0 60 18 123.5t55 115.5t92 85.5t129 33.5t112 -38t47 -103l-58 -15q-5 22 -13.5 42t-21.5 34.5t-31.5 23t-44.5 8.5q-57 0 -98.5 -28t-69.5 -72t-41.5 -97.5t-13.5 -104.5 q0 -66 31 -104t93 -38q55 0 96.5 29t83.5 79z" />
<glyph unicode="d" d="M382 0l5 68q-38 -41 -84 -59.5t-100 -18.5q-80 0 -121 43t-41 127q0 75 21.5 142t59 118t88 80.5t108.5 29.5q52 0 84.5 -19t61.5 -59l60 270h60l-160 -722h-42zM450 389q-5 13 -16.5 29t-28.5 30.5t-38 24t-43 9.5q-45 0 -85.5 -24t-70.5 -66t-48 -98.5t-18 -121.5 q0 -59 27.5 -96.5t86.5 -37.5q56 0 97.5 27t79.5 68z" />
<glyph unicode="e" horiz-adv-x="500" d="M450 117q-29 -35 -55 -59t-53.5 -39t-58 -22t-67.5 -7q-82 0 -128 42.5t-46 130.5q0 79 22 146t60.5 116t89 77t107.5 28q83 0 124.5 -46.5t41.5 -126.5q0 -45 -12 -99h-362q-9 -41 -9 -78q0 -62 29.5 -102t97.5 -40q25 0 46 5t41 17t41.5 32t47.5 51zM426 306 q1 11 1.5 21t0.5 20q0 62 -26.5 98.5t-86.5 36.5q-40 0 -72.5 -17.5t-57 -44t-40 -57.5t-21.5 -57h302z" />
<glyph unicode="f" horiz-adv-x="278" d="M56 0l105 472h-86l10 48h86l17 74q15 68 51.5 103t103.5 35q17 0 32 -2t32 -6l-12 -50q-13 5 -26 7.5t-30 2.5q-35 0 -57 -19t-33 -64l-18 -81h106l-10 -48h-106l-105 -472h-60z" />
<glyph unicode="g" horiz-adv-x="500" d="M82 51q-23 5 -39.5 16.5t-16.5 35.5q0 19 9.5 36.5t24 31.5t32 23.5t34.5 12.5q-24 19 -36.5 45.5t-12.5 56.5q0 50 21 90.5t56 69.5t80 45t94 16q38 0 65 -9.5t49 -26.5q55 46 119 46l-12 -54q-20 0 -44.5 -4t-44.5 -20q8 -14 13 -29.5t5 -35.5q0 -60 -22.5 -102.5 t-58 -70t-79.5 -40.5t-86 -13q-25 0 -44 4.5t-37 11.5q-31 -11 -45.5 -26.5t-14.5 -32.5q0 -9 6 -16t22.5 -11.5t46.5 -6.5t77 -2q103 0 149 -27t46 -77q0 -33 -14 -64t-46.5 -55t-84.5 -38.5t-127 -14.5q-59 0 -98 8t-62.5 22t-33 32t-9.5 38q0 40 26 75t93 58v2zM375 -33 q0 14 -7.5 27t-27 22.5t-53 15.5t-85.5 6q-49 0 -82.5 -9t-54 -23.5t-29.5 -33t-9 -37.5q0 -32 34 -51.5t107 -19.5q105 0 156 28t51 75zM249 219q34 0 64.5 10t53.5 31t36.5 53.5t13.5 77.5q0 47 -29 69t-81 22q-34 0 -64.5 -13t-54 -35.5t-37 -53.5t-13.5 -67 q0 -49 31.5 -71.5t79.5 -22.5z" />
<glyph unicode="h" d="M374 0l77 349q4 16 5.5 30.5t1.5 26.5q0 38 -19 57t-64 19q-24 0 -45.5 -6.5t-43 -19.5t-45.5 -31t-54 -42l-85 -383h-60l160 722h60l-63 -284q52 44 96.5 68t101.5 24q64 0 94 -28.5t30 -82.5q0 -26 -8 -64l-79 -355h-60z" />
<glyph unicode="i" horiz-adv-x="222" d="M41 0l115 520h60l-115 -520h-60zM182 634l19 88h60l-19 -88h-60z" />
<glyph unicode="j" horiz-adv-x="222" d="M156 520h60l-133 -603q-13 -57 -46 -79t-84 -22q-14 0 -28 1.5t-24 4.5l10 49q11 -3 21 -5t20 -2q30 0 47 12.5t24 41.5zM182 634l19 88h60l-19 -88h-60z" />
<glyph unicode="k" horiz-adv-x="500" d="M371 0l-103 284l-129 -116l-37 -168h-60l160 722h60l-106 -478l302 276h69l-212 -194l123 -326h-67z" />
<glyph unicode="l" horiz-adv-x="222" d="M41 0l160 722h60l-160 -722h-60z" />
<glyph unicode="m" horiz-adv-x="833" d="M650 0l88 395q3 13 3 26q0 61 -74 61q-17 0 -40.5 -8.5t-48.5 -22.5t-48 -31.5t-39 -36.5l-85 -383h-60l88 395q3 13 3 26q0 61 -74 61q-17 0 -40.5 -8.5t-48.5 -22.5t-48 -31.5t-39 -36.5l-85 -383h-60l115 520h60l-17 -79q24 21 46 37.5t44 28t47 17.5t55 6 q44 0 73.5 -25.5t31.5 -69.5q45 41 91 68t102 27t83.5 -24.5t27.5 -71.5q0 -10 -1 -21.5t-4 -23.5l-86 -389h-60z" />
<glyph unicode="n" d="M374 0l77 349q4 16 5.5 30.5t1.5 26.5q0 38 -19 57t-64 19q-24 0 -45.5 -7t-43.5 -19.5t-46 -31t-53 -41.5l-85 -383h-60l115 520h60l-18 -82q50 45 95.5 68.5t102.5 23.5q64 0 94 -28.5t30 -82.5q0 -26 -8 -64l-79 -355h-60z" />
<glyph unicode="o" horiz-adv-x="500" d="M218 38q57 0 98 31t67 77.5t38.5 102t12.5 105.5q0 62 -28.5 95t-88.5 33q-57 0 -98 -31t-67 -78t-38 -103t-12 -105q0 -62 28 -94.5t88 -32.5zM208 -10q-46 0 -78 13t-51.5 36t-28 54.5t-8.5 67.5q0 64 17 129.5t51.5 118.5t87.5 87t125 34q46 0 78.5 -13.5t53 -36.5 t30 -54.5t9.5 -68.5q0 -64 -17.5 -129t-53.5 -118t-89.5 -86.5t-125.5 -33.5z" />
<glyph unicode="p" d="M11 -184l156 704h60l-17 -80h2q41 45 83 67.5t93 22.5q40 0 70 -14.5t50 -40t29.5 -60t9.5 -74.5q0 -56 -17 -118t-51.5 -114t-86 -85.5t-119.5 -33.5q-26 0 -46.5 4.5t-38 14t-32 24.5t-29.5 35l-56 -252h-60zM141 131q4 -13 16 -29t29 -30.5t38 -24t43 -9.5 q55 0 96.5 29t69 73.5t41 98t13.5 102.5q0 29 -6.5 55t-20 45t-34.5 30t-51 11q-25 0 -47 -7.5t-43 -20t-42 -30l-45 -37.5z" />
<glyph unicode="q" d="M323 -184l56 251q-47 -40 -87.5 -58.5t-92.5 -18.5q-74 0 -115 50.5t-41 132.5q0 57 17 120t51.5 115.5t86.5 87t121 34.5q54 0 91 -23t62 -58l24 67h42l-155 -700h-60zM449 384q-10 20 -22 38t-28 31.5t-36.5 21t-48.5 7.5q-47 0 -85.5 -25.5t-66.5 -68t-43 -97 t-15 -112.5q0 -65 29 -103t92 -38q22 0 47 9.5t48.5 23.5t42.5 30t30 29z" />
<glyph unicode="r" horiz-adv-x="333" d="M38 0l115 520h60l-22 -99h2q32 48 78 78.5t96 30.5h27l-12 -58h-27q-25 0 -55 -14t-57.5 -38t-49.5 -56.5t-30 -69.5l-65 -294h-60z" />
<glyph unicode="s" horiz-adv-x="444" d="M388 404q-19 36 -45 57t-73 21q-21 0 -43 -6.5t-40.5 -19.5t-30 -33t-11.5 -47q0 -17 9.5 -29t25 -20.5t35.5 -15.5t42 -13q26 -8 51.5 -17t46 -23t33 -34.5t12.5 -50.5q0 -43 -18 -77t-47.5 -57.5t-67 -36t-77.5 -12.5q-60 0 -109.5 25t-74.5 80l51 31q12 -26 26 -43 t31 -27t37.5 -14t46.5 -4q28 0 53 9.5t44.5 26t31 38t11.5 46.5q0 17 -7 30t-19.5 22.5t-29 17t-35.5 13.5q-28 9 -57 17.5t-53 21.5t-39.5 32.5t-15.5 50.5q0 45 17 76.5t44.5 51.5t61.5 29.5t68 9.5q66 0 108 -24.5t60 -69.5z" />
<glyph unicode="t" horiz-adv-x="278" d="M222 -1q-16 -2 -32 -5.5t-31 -3.5q-53 0 -75 14.5t-22 45.5q0 15 4 31l87 391h-78l10 48h78l38 170h60l-38 -170h114l-10 -48h-114l-85 -381q-2 -5 -2 -9.5v-9.5q0 -34 43 -34q15 0 32 3t32 8z" />
<glyph unicode="u" d="M374 0l18 82q-52 -44 -96.5 -68t-101.5 -24q-64 0 -93.5 28t-29.5 82q0 27 8 65l78 355h60l-77 -349q-8 -35 -8 -57q0 -38 19.5 -57t64.5 -19q24 0 45.5 6.5t43 19.5t45.5 31t54 42l85 383h60l-115 -520h-60z" />
<glyph unicode="v" horiz-adv-x="444" d="M152 0l-63 520h64l47 -428h2l239 428h64l-294 -520h-59z" />
<glyph unicode="w" horiz-adv-x="667" d="M409 0l-24 418h-2l-209 -418h-62l-30 520h61l22 -418h2l211 418h59l24 -418h2l209 418h62l-266 -520h-59z" />
<glyph unicode="x" horiz-adv-x="444" d="M322 0l-91 219l-189 -219h-72l237 276l-102 244h72l79 -188l161 188h72l-210 -244l115 -276h-72z" />
<glyph unicode="y" horiz-adv-x="444" d="M87 520h66l50 -423h2l238 423h64l-317 -557q-22 -38 -42.5 -66t-43.5 -46t-50.5 -26.5t-62.5 -8.5q-20 0 -32 1.5t-22 4.5l10 49q14 -2 28 -4.5t31 -2.5q31 0 70 32t79 112z" />
<glyph unicode="z" horiz-adv-x="444" d="M-15 0l8 38l397 434h-276l10 48h356l-8 -38l-396 -434h308l-11 -48h-388z" />
<glyph unicode="{" horiz-adv-x="333" d="M134 -82q-68 0 -68 72q0 16 5 41l43 195q5 23 5 37q0 21 -10.5 32.5t-36.5 11.5l8 36q34 0 51.5 21t26.5 60l43 195q12 54 41.5 83.5t71.5 29.5h62l-8 -36h-50q-20 0 -32.5 -12t-21.5 -54l-44 -197q-11 -50 -35 -74.5t-61 -32.5v-2q25 -7 39 -23t14 -45q0 -14 -5 -39 l-44 -197q-5 -25 -5 -36q0 -19 8.5 -24.5t22.5 -5.5h50l-8 -36h-62z" />
<glyph unicode="|" horiz-adv-x="416" d="M223 -281v1126h52v-1126h-52z" />
<glyph unicode="}" horiz-adv-x="333" d="M21 -82l8 36h50q20 0 32 12t22 54l44 197q11 50 35 74.5t61 32.5v2q-26 6 -39.5 22t-13.5 46q0 14 5 39l44 197q2 11 3.5 19.5t1.5 15.5q0 20 -8.5 25.5t-22.5 5.5h-50l8 36h62q33 0 50.5 -18.5t17.5 -53.5q0 -16 -5 -41l-43 -195q-5 -23 -5 -37q0 -22 10.5 -33t36.5 -11 l-8 -36q-35 0 -52.5 -21t-25.5 -60l-43 -195q-12 -54 -41.5 -83.5t-71.5 -29.5h-62z" />
<glyph unicode="~" horiz-adv-x="600" d="M572 283q-12 -16 -27.5 -31t-34.5 -27t-42 -19t-50 -7t-55.5 10.5t-56.5 22.5t-54 22.5t-49 10.5q-32 0 -59 -22t-52 -48l-28 42q12 15 27 30t34 27t42 19.5t50 7.5t56 -10.5t57 -22.5t54 -22.5t49 -10.5q32 0 58.5 22t51.5 48z" />
<glyph horiz-adv-x="500" />
<glyph unicode="&#xa1;" horiz-adv-x="222" d="M-17 -202l129 500h50l-93 -500h-86zM123 430l20 90h86l-20 -90h-86z" />
<glyph unicode="&#xa2;" d="M397 474q-9 4 -16.5 6t-20.5 2q-56 0 -99 -28t-71.5 -72t-43 -97t-14.5 -104q0 -78 42 -114zM479 123q-23 -28 -48 -52t-54 -42t-61.5 -28.5t-69.5 -10.5q-15 0 -29.5 1.5t-27.5 5.5l-64 -117h-54l74 135q-37 23 -55 63t-18 94q0 60 18 123.5t54 115.5t90 85.5t126 33.5 q16 0 33 -2t30 -6l58 107h54l-70 -128q50 -37 59 -112l-58 -15q-5 20 -12.5 38.5t-18.5 33.5l-220 -402q18 -6 41 -6q55 0 96.5 29t83.5 79z" />
<glyph unicode="&#xa3;" d="M532 167q-35 -85 -94 -131t-142 -46q-36 0 -63.5 6.5t-50 17t-41.5 25t-38 29.5q-27 -29 -59.5 -50t-69.5 -28l14 62q45 18 76 49.5t51 70t30.5 81t14.5 82.5h-111l11 48h105q6 37 8 73.5t10 73.5q10 46 33 83t55 63.5t72.5 41t86.5 14.5q81 0 126.5 -47.5t46.5 -135.5 l-61 -14q0 33 -6 59t-20 45t-38.5 29t-60.5 10q-58 0 -94 -24.5t-56.5 -65.5t-29 -94.5t-10.5 -110.5h146l-11 -48h-140q-3 -13 -4 -26t-4 -27q-6 -24 -12.5 -45t-15 -41t-20 -40t-26.5 -42q15 -12 33.5 -24t38.5 -22.5t42 -17t44 -6.5q30 0 55 6.5t46.5 22t41 41.5t38.5 65 z" />
<glyph unicode="&#xa4;" d="M473 113l-44 55q-39 -28 -81.5 -41.5t-84.5 -13.5t-78.5 13.5t-63.5 41.5l-68 -55l-30 38l66 54q-14 21 -20 48.5t-6 53.5q0 56 23.5 110.5t72.5 99.5l-42 54l46 38l44 -55q39 28 81.5 41.5t84.5 13.5t78.5 -13.5t63.5 -41.5l68 55l30 -38l-66 -54q14 -21 20 -48.5 t6 -53.5q0 -55 -23.5 -110t-72.5 -100l42 -54zM274 161q45 0 89 20.5t78 54t55 77.5t21 91q0 33 -11.5 61.5t-31.5 50t-49 33.5t-63 12q-45 0 -89 -20.5t-78 -54t-55 -77.5t-21 -91q0 -33 11.5 -62t31.5 -50t48.5 -33t63.5 -12z" />
<glyph unicode="&#xa5;" d="M201 0l55 246h-176l10 48h176l3 12l-25 86h-132l11 48h108l-83 282h66l99 -357l269 357h66l-212 -282h105l-11 -48h-130l-65 -86l-3 -12h176l-10 -48h-176l-55 -246h-66z" />
<glyph unicode="&#xa6;" horiz-adv-x="416" d="M223 367v393h52v-393h-52zM223 -196v393h52v-393h-52z" />
<glyph unicode="&#xa7;" horiz-adv-x="500" d="M97 40q5 -32 28.5 -54t59.5 -22q20 0 39 5.5t34 16t24 26.5t9 38q0 21 -13.5 46t-34 52.5t-44 56.5t-44 58t-34 58t-13.5 56q0 28 12.5 50.5t33 38t45.5 24t50 8.5l3 2q-17 14 -29 35.5t-12 50.5q0 31 11 58t31 46.5t48 30.5t61 11q52 0 89 -26t49 -72l-46 -25 q-10 36 -32 57.5t-64 21.5q-15 0 -32 -5t-31.5 -16t-23.5 -28t-9 -41q0 -20 14 -42.5t34.5 -47t44.5 -51t44.5 -53.5t34.5 -55.5t14 -56.5q0 -37 -13 -62t-32.5 -40.5t-44 -23t-46.5 -8.5q14 -21 22.5 -45t8.5 -50q0 -38 -13 -65t-34.5 -44.5t-49.5 -25.5t-57 -8 q-23 0 -46 6.5t-42.5 19t-33.5 29.5t-18 38zM395 267q0 20 -16.5 53.5t-40 66t-50 56t-47.5 23.5q-12 0 -26 -5t-26 -14t-20 -22t-8 -28q0 -23 17.5 -58t41.5 -68t49 -57t41 -24q15 0 30 6t27.5 16t20 24t7.5 31z" />
<glyph unicode="&#xa8;" horiz-adv-x="222" d="M90 588l21 94h66l-21 -94h-66zM246 588l21 94h66l-21 -94h-66z" />
<glyph unicode="&#xa9;" horiz-adv-x="800" d="M820 441q0 -59 -18 -116t-50.5 -107t-76.5 -92t-95 -72t-108 -47t-114 -17q-67 0 -122 22t-94 61t-60.5 92.5t-21.5 115.5q0 89 40 170.5t105 144t148 99.5t169 37q66 0 121 -22t94.5 -61t61 -92.5t21.5 -115.5zM369 40q75 0 145.5 32t125 86.5t87.5 126t33 151.5 q0 53 -17.5 98t-50 78t-78.5 51.5t-103 18.5q-75 0 -145.5 -32t-125 -86.5t-87.5 -126.5t-33 -152q0 -53 17.5 -98t50 -77.5t78.5 -51t103 -18.5zM621 285q-16 -35 -39.5 -64.5t-52.5 -50.5t-62 -32.5t-68 -11.5q-44 0 -77.5 13t-56 36.5t-34.5 55.5t-12 71q0 61 22 114.5 t60.5 93.5t89.5 63t109 23q34 0 63 -9t50 -26.5t32.5 -43.5t11.5 -59q0 -4 -0.5 -8t-0.5 -9h-54q0 44 -28.5 74.5t-83.5 30.5q-44 0 -82 -19t-66 -50.5t-44.5 -73.5t-16.5 -87q0 -29 8 -54.5t24.5 -44.5t40.5 -30t56 -11q27 0 51.5 8.5t44.5 23.5t36 34.5t25 42.5h54z" />
<glyph unicode="&#xaa;" horiz-adv-x="300" d="M280 416l4 38q-32 -23 -60 -33.5t-67 -10.5q-35 0 -56.5 16.5t-21.5 45.5q0 45 27.5 72t65.5 42t77.5 22.5t64.5 14.5l6 25q1 4 1 10q0 16 -12 25t-44 9t-56 -12t-47 -37l-28 20q31 37 64.5 53t80.5 16t69.5 -15t22.5 -49q0 -16 -4 -32l-35 -156q-5 -23 -6.5 -35.5 t-1.5 -28.5h-44zM305 580q-18 -5 -47.5 -11.5t-58 -17t-49 -27t-20.5 -41.5q0 -14 11 -23.5t31 -9.5q28 0 60.5 13t53.5 33z" />
<glyph unicode="&#xab;" horiz-adv-x="500" d="M335 106l-87 156l156 152h66l-159 -152l90 -156h-66zM186 106l-86 156l155 152h66l-158 -152l89 -156h-66z" />
<glyph unicode="&#xac;" horiz-adv-x="600" d="M495 133l45 200h-466l12 54h520l-57 -254h-54z" />
<glyph unicode="&#xad;" horiz-adv-x="333" d="M54 233l12 54h249l-12 -54h-249z" />
<glyph unicode="&#xae;" horiz-adv-x="800" d="M518 140l-77 196h-85l-43 -196h-60l98 441h169q63 0 91.5 -22t28.5 -64q0 -39 -13 -67t-32.5 -47t-43 -30t-45.5 -15l80 -196h-68zM437 386q19 0 43.5 2t46.5 11t36.5 28t14.5 53q0 16 -7 26.5t-19 15.5t-26.5 7t-29.5 2h-96l-32 -145h69zM820 441q0 -59 -18 -116 t-50.5 -107t-76.5 -92t-95 -72t-108 -47t-114 -17q-67 0 -122 22t-94 61t-60.5 92.5t-21.5 115.5q0 89 40 170.5t105 144t148 99.5t169 37q66 0 121 -22t94.5 -61t61 -92.5t21.5 -115.5zM369 40q75 0 145.5 32t125 86.5t87.5 126t33 151.5q0 53 -17.5 98t-50 78t-78.5 51.5 t-103 18.5q-75 0 -145.5 -32t-125 -86.5t-87.5 -126.5t-33 -152q0 -53 17.5 -98t50 -77.5t78.5 -51t103 -18.5z" />
<glyph unicode="&#xaf;" horiz-adv-x="222" d="M60 617l10 44h296l-10 -44h-296z" />
<glyph unicode="&#xb0;" horiz-adv-x="400" d="M267 482q25 0 47.5 10.5t40 28t28 41t10.5 50.5q0 34 -21 56t-59 22q-25 0 -47.5 -10.5t-40 -28t-28 -41t-10.5 -50.5q0 -35 21 -56.5t59 -21.5zM440 618q0 -36 -15.5 -68t-41 -56.5t-58.5 -39t-67 -14.5q-54 0 -86 32t-32 82q0 36 15.5 68t41 56.5t58 39t67.5 14.5 q54 0 86 -32.5t32 -81.5z" />
<glyph unicode="&#xb1;" horiz-adv-x="600" d="M349 281l-41 -185h-54l41 185h-233l12 54h233l41 185h54l-41 -185h233l-12 -54h-233zM0 0l12 54h520l-12 -54h-520z" />
<glyph unicode="&#xb2;" horiz-adv-x="333" d="M41 292l7 33q3 13 9 26.5t22.5 30t46 37t77.5 49.5q51 30 82 51.5t47.5 39.5t22 34t5.5 35q0 28 -17 44t-49 16q-45 0 -78 -21t-54 -66l-44 7q24 59 72 91.5t111 32.5q52 0 81.5 -24.5t29.5 -69.5q0 -41 -16 -69.5t-41.5 -50.5t-57.5 -40.5t-64 -39.5q-32 -20 -55 -35 t-39 -26.5t-25 -21t-12 -19.5h246l-9 -44h-298z" />
<glyph unicode="&#xb3;" horiz-adv-x="333" d="M171 500l10 44h35q28 0 53 5t43.5 16t29.5 28t11 42q0 26 -20 39.5t-51 13.5q-20 0 -35 -2t-28.5 -7.5t-27 -15t-29.5 -25.5l-30 23q37 40 73.5 55.5t81.5 15.5q23 0 45 -5t38.5 -15.5t26.5 -26.5t10 -38q0 -89 -91 -123q29 -11 45 -30t16 -49q0 -42 -16.5 -72.5 t-44 -49.5t-62.5 -28t-71 -9q-57 0 -92.5 21t-46.5 65l47 24q12 -38 35 -52t69 -14q57 0 92.5 28t35.5 76q0 35 -28.5 50.5t-80.5 15.5h-43z" />
<glyph unicode="&#xb4;" horiz-adv-x="222" d="M187 578h-51l142 138h77z" />
<glyph unicode="&#xb5;" d="M374 0l18 82q-52 -44 -96.5 -68t-101.5 -24q-59 0 -89 24l-44 -198h-60l156 704h60l-77 -349q-8 -35 -8 -57q0 -38 19.5 -57t64.5 -19q24 0 45.5 6.5t43 19.5t45.5 31t54 42l85 383h60l-115 -520h-60z" />
<glyph unicode="&#xb6;" horiz-adv-x="500" d="M320 -80l168 758h-105l-168 -758h-50l92 416q-38 0 -69 11.5t-53 32t-34 48t-12 59.5q0 52 22 95.5t59.5 74.5t86 48t102.5 17h263l-10 -44h-74l-168 -758h-50z" />
<glyph unicode="&#xb7;" horiz-adv-x="278" d="M208 270q0 -12 -6 -23t-15 -19.5t-20 -13t-21 -4.5q-17 0 -29 11t-12 28q0 25 20.5 43t42.5 18q17 0 28.5 -11.5t11.5 -28.5z" />
<glyph unicode="&#xb8;" horiz-adv-x="222" d="M-60 -152q11 -6 27 -11t29 -5q35 0 55.5 12t20.5 38q0 17 -11.5 24.5t-25.5 7.5q-12 0 -24.5 -2.5t-21.5 -6.5l-12 13l78 82h38l-54 -50l1 -2q5 2 14 4t19 2q29 0 45.5 -15.5t16.5 -43.5q0 -26 -12 -45.5t-30.5 -32.5t-40.5 -19t-42 -6q-25 0 -48.5 4.5t-43.5 15.5z" />
<glyph unicode="&#xb9;" horiz-adv-x="333" d="M98 292l9 44h73l77 346l-86 -20l8 37l100 33h41l-88 -396h77l-9 -44h-202z" />
<glyph unicode="&#xba;" horiz-adv-x="300" d="M211 456q51 0 83 42.5t32 123.5q0 32 -13 48t-48 16q-32 0 -54.5 -16t-36.5 -40.5t-21 -54.5t-7 -58q0 -30 15 -45.5t50 -15.5zM205 410q-62 0 -88.5 30.5t-26.5 75.5q0 38 10.5 76.5t32.5 69.5t56 50.5t81 19.5q61 0 86.5 -31t25.5 -76q0 -37 -11 -75.5t-33 -69.5 t-55 -50.5t-78 -19.5z" />
<glyph unicode="&#xbb;" horiz-adv-x="500" d="M131 106h-66l159 152l-90 156h66l87 -156zM280 106h-66l158 152l-89 156h66l86 -156z" />
<glyph unicode="&#xbc;" horiz-adv-x="834" d="M716 374h-4l-201 -226h155zM633 0l23 104h-211l11 48l258 282h67l-63 -286h71l-10 -44h-71l-23 -104h-52zM122 292l9 44h73l77 346l-86 -20l8 37l100 33h41l-88 -396h77l-9 -44h-202zM139 -10l608 742h57l-606 -742h-59z" />
<glyph unicode="&#xbd;" horiz-adv-x="834" d="M122 292l9 44h73l77 346l-86 -20l8 37l100 33h41l-88 -396h77l-9 -44h-202zM452 0l7 33q3 13 9 26.5t22.5 30t46 37t77.5 49.5q51 30 82 51.5t47.5 39t22 33.5t5.5 35q0 28 -17 44.5t-49 16.5q-45 0 -78 -21t-53 -66l-45 7q24 59 72.5 91.5t111.5 32.5q52 0 81.5 -25 t29.5 -70q0 -41 -16 -69.5t-41.5 -50.5t-58 -40.5t-64.5 -38.5q-63 -40 -94 -62t-36 -40h246l-10 -44h-298zM127 -10l608 742h57l-606 -742h-59z" />
<glyph unicode="&#xbe;" horiz-adv-x="834" d="M716 374h-4l-201 -226h155zM633 0l23 104h-211l11 48l258 282h67l-63 -286h71l-10 -44h-71l-23 -104h-52zM199 500l10 44h35q28 0 53 5t43.5 16t29.5 28t11 42q0 26 -20 39.5t-51 13.5q-20 0 -35 -2t-28.5 -7.5t-27 -15t-29.5 -25.5l-30 23q37 40 73.5 55.5t81.5 15.5 q23 0 45 -5t38.5 -15.5t26.5 -26.5t10 -38q0 -89 -91 -123q29 -11 45 -30t16 -49q0 -42 -16.5 -72.5t-44 -49.5t-62.5 -28t-71 -9q-57 0 -92.5 21t-46.5 65l47 24q12 -38 35 -52t69 -14q57 0 92.5 28t35.5 76q0 35 -28.5 50.5t-80.5 15.5h-43zM155 -10l608 742h57l-606 -742 h-59z" />
<glyph unicode="&#xbf;" horiz-adv-x="389" d="M300 -89q-32 -56 -80 -89.5t-112 -33.5q-28 0 -52.5 7.5t-42.5 23t-28.5 38t-10.5 52.5q0 42 16 74t40 58.5t53.5 50t56 47.5t47.5 51.5t29 61.5l11 48h54l-16 -72q-7 -31 -26.5 -57.5t-44.5 -50t-52.5 -46t-50 -47t-37.5 -52t-15 -61.5q0 -35 23 -53.5t59 -18.5 q25 0 45.5 9t37.5 22.5t30 30.5t22 32zM229 430l20 90h86l-20 -90h-86z" />
<glyph unicode="&#xc0;" horiz-adv-x="611" d="M415 668h-2l-203 -378h241zM475 0l-21 236h-273l-126 -236h-70l391 722h101l68 -722h-70zM442 763l-106 138h77l80 -138h-51z" />
<glyph unicode="&#xc1;" horiz-adv-x="611" d="M415 668h-2l-203 -378h241zM475 0l-21 236h-273l-126 -236h-70l391 722h101l68 -722h-70zM418 763h-51l142 138h77z" />
<glyph unicode="&#xc2;" horiz-adv-x="611" d="M415 668h-2l-203 -378h241zM475 0l-21 236h-273l-126 -236h-70l391 722h101l68 -722h-70zM512 763l-60 101l-104 -101h-66l145 138h68l83 -138h-66z" />
<glyph unicode="&#xc3;" horiz-adv-x="611" d="M415 668h-2l-203 -378h241zM475 0l-21 236h-273l-126 -236h-70l391 722h101l68 -722h-70zM612 866q-8 -19 -17.5 -36.5t-23 -31t-31 -21.5t-39.5 -8q-16 0 -33 7t-33.5 15.5t-33 15.5t-30.5 7q-22 0 -36 -15.5t-22 -34.5h-38q6 17 16.5 34.5t25 31.5t32 22.5t36.5 8.5 q18 0 35.5 -7t34 -15t32.5 -15t31 -7q20 0 34.5 15.5t21.5 33.5h38z" />
<glyph unicode="&#xc4;" horiz-adv-x="611" d="M415 668h-2l-203 -378h241zM475 0l-21 236h-273l-126 -236h-70l391 722h101l68 -722h-70zM321 763l21 94h66l-21 -94h-66zM477 763l21 94h66l-21 -94h-66z" />
<glyph unicode="&#xc5;" horiz-adv-x="611" d="M415 668h-2l-203 -378h241zM475 0l-21 236h-273l-126 -236h-70l391 722h101l68 -722h-70zM553 871q0 -25 -11 -47t-28.5 -38.5t-39.5 -26.5t-45 -10q-35 0 -57.5 22t-22.5 57q0 24 11 46t28.5 38.5t39.5 26.5t45 10q35 0 57.5 -22t22.5 -56zM518 863q0 23 -14.5 37.5 t-37.5 14.5q-15 0 -30 -6.5t-26.5 -17.5t-19 -25.5t-7.5 -30.5q0 -23 15.5 -37.5t38.5 -14.5q15 0 29.5 6.5t26 17.5t18.5 25.5t7 30.5z" />
<glyph unicode="&#xc6;" horiz-adv-x="944" d="M587 666h-17l-296 -376h229zM439 0l52 236h-261l-178 -236h-74l562 722h465l-12 -54h-340l-59 -266h243l-12 -54h-243l-65 -294h359l-12 -54h-425z" />
<glyph unicode="&#xc7;" horiz-adv-x="611" d="M142 -152q11 -6 27 -11t29 -5q35 0 55.5 12t20.5 38q0 17 -11.5 24.5t-25.5 7.5q-12 0 -24.5 -2.5t-21.5 -6.5l-12 13l70 74q-44 6 -77 26t-55 52.5t-33.5 75.5t-11.5 94q0 50 10 106t30 110.5t50.5 104.5t71 88t92 60.5t114.5 22.5q48 0 83.5 -16t59.5 -44t36 -66.5 t14 -82.5l-64 -13q-5 80 -39 124t-100 44q-50 0 -91 -21t-73 -56t-56 -80.5t-40 -94.5t-23.5 -98.5t-7.5 -92.5q0 -42 9 -77.5t28 -60.5t49 -39t72 -14q43 0 77 14.5t60 38.5t46.5 56t37.5 67l59 -11q-21 -48 -48 -88.5t-62.5 -69.5t-80.5 -45t-102 -16l-43 -40l1 -2 q5 2 14 4t19 2q29 0 45.5 -15.5t16.5 -43.5q0 -26 -12 -45.5t-30.5 -32.5t-40.5 -19t-42 -6q-25 0 -48.5 4.5t-43.5 15.5z" />
<glyph unicode="&#xc8;" d="M60 0l160 722h412l-12 -54h-346l-59 -266h249l-12 -54h-249l-65 -294h365l-12 -54h-431zM447 763l-106 138h77l80 -138h-51z" />
<glyph unicode="&#xc9;" d="M60 0l160 722h412l-12 -54h-346l-59 -266h249l-12 -54h-249l-65 -294h365l-12 -54h-431zM423 763h-51l142 138h77z" />
<glyph unicode="&#xca;" d="M60 0l160 722h412l-12 -54h-346l-59 -266h249l-12 -54h-249l-65 -294h365l-12 -54h-431zM517 763l-60 101l-104 -101h-66l145 138h68l83 -138h-66z" />
<glyph unicode="&#xcb;" d="M60 0l160 722h412l-12 -54h-346l-59 -266h249l-12 -54h-249l-65 -294h365l-12 -54h-431zM326 763l21 94h66l-21 -94h-66zM482 763l21 94h66l-21 -94h-66z" />
<glyph unicode="&#xcc;" horiz-adv-x="278" d="M66 0l160 722h66l-160 -722h-66zM271 763l-106 138h77l80 -138h-51z" />
<glyph unicode="&#xcd;" horiz-adv-x="278" d="M66 0l160 722h66l-160 -722h-66zM247 763h-51l142 138h77z" />
<glyph unicode="&#xce;" horiz-adv-x="278" d="M66 0l160 722h66l-160 -722h-66zM341 763l-60 101l-104 -101h-66l145 138h68l83 -138h-66z" />
<glyph unicode="&#xcf;" horiz-adv-x="278" d="M66 0l160 722h66l-160 -722h-66zM150 763l21 94h66l-21 -94h-66zM306 763l21 94h66l-21 -94h-66z" />
<glyph unicode="&#xd0;" horiz-adv-x="667" d="M273 54q81 0 143 37.5t104 97t63.5 134t21.5 148.5q0 96 -47.5 146.5t-143.5 50.5h-140l-59 -266h196l-12 -54h-196l-65 -294h135zM60 0l77 348h-90l12 54h90l71 320h204q66 0 113 -19t77 -52t44 -78t14 -97q0 -88 -27.5 -173t-80 -152.5t-128.5 -109t-174 -41.5h-202z " />
<glyph unicode="&#xd1;" horiz-adv-x="722" d="M514 0l-238 668h-2l-148 -668h-66l160 722h111l210 -602h2l133 602h66l-160 -722h-68zM670 866q-8 -19 -17.5 -36.5t-23 -31t-31 -21.5t-39.5 -8q-16 0 -33 7t-33.5 15.5t-33 15.5t-30.5 7q-22 0 -36 -15.5t-22 -34.5h-38q6 17 16.5 34.5t25 31.5t32 22.5t36.5 8.5 q18 0 35.5 -7t34 -15t32.5 -15t31 -7q20 0 34.5 15.5t21.5 33.5h38z" />
<glyph unicode="&#xd2;" horiz-adv-x="667" d="M473 763l-106 138h77l80 -138h-51zM291 -10q-54 0 -94.5 18t-68 50.5t-41 78.5t-13.5 102q0 101 30.5 191t82.5 157t121 106t147 39q54 0 94.5 -18t68 -50.5t41 -78.5t13.5 -102q0 -101 -30.5 -191t-82.5 -157t-121.5 -106t-146.5 -39zM303 44q51 0 93 20t76 54t59 78.5 t42 93t25.5 98t8.5 94.5q0 95 -43 145.5t-121 50.5q-51 0 -93 -20t-76 -54t-59 -78.5t-42 -93t-25.5 -98.5t-8.5 -94q0 -96 43 -146t121 -50z" />
<glyph unicode="&#xd3;" horiz-adv-x="667" d="M449 763h-51l142 138h77zM291 -10q-54 0 -94.5 18t-68 50.5t-41 78.5t-13.5 102q0 101 30.5 191t82.5 157t121 106t147 39q54 0 94.5 -18t68 -50.5t41 -78.5t13.5 -102q0 -101 -30.5 -191t-82.5 -157t-121.5 -106t-146.5 -39zM303 44q51 0 93 20t76 54t59 78.5t42 93 t25.5 98t8.5 94.5q0 95 -43 145.5t-121 50.5q-51 0 -93 -20t-76 -54t-59 -78.5t-42 -93t-25.5 -98.5t-8.5 -94q0 -96 43 -146t121 -50z" />
<glyph unicode="&#xd4;" horiz-adv-x="667" d="M543 763l-60 101l-104 -101h-66l145 138h68l83 -138h-66zM291 -10q-54 0 -94.5 18t-68 50.5t-41 78.5t-13.5 102q0 101 30.5 191t82.5 157t121 106t147 39q54 0 94.5 -18t68 -50.5t41 -78.5t13.5 -102q0 -101 -30.5 -191t-82.5 -157t-121.5 -106t-146.5 -39zM303 44 q51 0 93 20t76 54t59 78.5t42 93t25.5 98t8.5 94.5q0 95 -43 145.5t-121 50.5q-51 0 -93 -20t-76 -54t-59 -78.5t-42 -93t-25.5 -98.5t-8.5 -94q0 -96 43 -146t121 -50z" />
<glyph unicode="&#xd5;" horiz-adv-x="667" d="M643 866q-8 -19 -17.5 -36.5t-23 -31t-31 -21.5t-39.5 -8q-16 0 -33 7t-33.5 15.5t-33 15.5t-30.5 7q-22 0 -36 -15.5t-22 -34.5h-38q6 17 16.5 34.5t25 31.5t32 22.5t36.5 8.5q18 0 35.5 -7t34 -15t32.5 -15t31 -7q20 0 34.5 15.5t21.5 33.5h38zM291 -10q-54 0 -94.5 18 t-68 50.5t-41 78.5t-13.5 102q0 101 30.5 191t82.5 157t121 106t147 39q54 0 94.5 -18t68 -50.5t41 -78.5t13.5 -102q0 -101 -30.5 -191t-82.5 -157t-121.5 -106t-146.5 -39zM303 44q51 0 93 20t76 54t59 78.5t42 93t25.5 98t8.5 94.5q0 95 -43 145.5t-121 50.5 q-51 0 -93 -20t-76 -54t-59 -78.5t-42 -93t-25.5 -98.5t-8.5 -94q0 -96 43 -146t121 -50z" />
<glyph unicode="&#xd6;" horiz-adv-x="667" d="M352 763l21 94h66l-21 -94h-66zM508 763l21 94h66l-21 -94h-66zM291 -10q-54 0 -94.5 18t-68 50.5t-41 78.5t-13.5 102q0 101 30.5 191t82.5 157t121 106t147 39q54 0 94.5 -18t68 -50.5t41 -78.5t13.5 -102q0 -101 -30.5 -191t-82.5 -157t-121.5 -106t-146.5 -39z M303 44q51 0 93 20t76 54t59 78.5t42 93t25.5 98t8.5 94.5q0 95 -43 145.5t-121 50.5q-51 0 -93 -20t-76 -54t-59 -78.5t-42 -93t-25.5 -98.5t-8.5 -94q0 -96 43 -146t121 -50z" />
<glyph unicode="&#xd7;" horiz-adv-x="600" d="M482 0l-173 222l-271 -222l-30 38l272 222l-173 222l46 38l173 -222l271 222l30 -38l-271 -222l172 -222z" />
<glyph unicode="&#xd8;" horiz-adv-x="667" d="M180 99q40 -55 123 -55q51 0 93.5 20t76 54t59 78.5t42 93.5t25 98.5t8.5 94.5q0 56 -16 94zM567 622q-41 56 -124 56q-51 0 -93 -20t-76 -54t-59 -78t-42 -93t-25.5 -98.5t-8.5 -93.5q0 -29 4 -53t12 -44zM-10 -48l118 137q-17 30 -25.5 68t-8.5 82q0 101 30.5 191 t82.5 157t121.5 106t146.5 39q51 0 89.5 -15.5t65.5 -44.5l84 98h63l-119 -137q35 -61 35 -149q0 -101 -30.5 -191t-83 -157.5t-122 -106.5t-146.5 -39q-51 0 -89 15.5t-65 43.5l-84 -97h-63z" />
<glyph unicode="&#xd9;" horiz-adv-x="722" d="M676 722h66l-108 -486q-28 -124 -105.5 -185t-209.5 -61q-216 0 -216 168q0 36 9 78l108 486h66l-109 -492q-5 -19 -6.5 -35.5t-1.5 -30.5q0 -66 41.5 -93t120.5 -27q48 0 86.5 9.5t68 31.5t49.5 57.5t32 87.5zM495 763l-106 138h77l80 -138h-51z" />
<glyph unicode="&#xda;" horiz-adv-x="722" d="M676 722h66l-108 -486q-28 -124 -105.5 -185t-209.5 -61q-216 0 -216 168q0 36 9 78l108 486h66l-109 -492q-5 -19 -6.5 -35.5t-1.5 -30.5q0 -66 41.5 -93t120.5 -27q48 0 86.5 9.5t68 31.5t49.5 57.5t32 87.5zM471 763h-51l142 138h77z" />
<glyph unicode="&#xdb;" horiz-adv-x="722" d="M565 763l-60 101l-104 -101h-66l145 138h68l83 -138h-66zM676 722h66l-108 -486q-28 -124 -105.5 -185t-209.5 -61q-216 0 -216 168q0 36 9 78l108 486h66l-109 -492q-5 -19 -6.5 -35.5t-1.5 -30.5q0 -66 41.5 -93t120.5 -27q48 0 86.5 9.5t68 31.5t49.5 57.5t32 87.5z " />
<glyph unicode="&#xdc;" horiz-adv-x="722" d="M676 722h66l-108 -486q-28 -124 -105.5 -185t-209.5 -61q-216 0 -216 168q0 36 9 78l108 486h66l-109 -492q-5 -19 -6.5 -35.5t-1.5 -30.5q0 -66 41.5 -93t120.5 -27q48 0 86.5 9.5t68 31.5t49.5 57.5t32 87.5zM374 763l21 94h66l-21 -94h-66zM530 763l21 94h66l-21 -94 h-66z" />
<glyph unicode="&#xdd;" d="M201 0l68 306l-129 416h74l99 -357l269 357h74l-321 -416l-68 -306h-66zM393 763h-51l142 138h77z" />
<glyph unicode="&#xde;" horiz-adv-x="611" d="M164 170l-38 -170h-66l160 722h66l-33 -150h152q108 0 156.5 -39.5t48.5 -106.5q0 -57 -19 -104t-56.5 -80.5t-92.5 -52.5t-126 -19h-152zM328 224q103 0 159 49.5t56 140.5q0 51 -36 77.5t-114 26.5h-152l-65 -294h152z" />
<glyph unicode="&#xdf;" horiz-adv-x="500" d="M200 58q14 -8 32.5 -14t36.5 -6q28 0 55 15.5t48 43t34 66.5t13 87q0 60 -39 85t-113 25l10 48q34 1 65 11t55 31.5t38.5 55t14.5 81.5q0 42 -24 64.5t-74 22.5q-32 0 -55 -12t-39.5 -31.5t-26.5 -44.5t-16 -50l-119 -536h-60l118 533q19 85 74 137t144 52 q66 0 102 -37.5t36 -96.5q0 -63 -35.5 -115.5t-95.5 -78.5q51 -17 76 -53.5t25 -87.5q0 -45 -13 -91.5t-39 -84.5t-65 -62.5t-91 -24.5q-11 0 -25 1.5t-29 4.5t-28 7.5t-21 9.5z" />
<glyph unicode="&#xe0;" horiz-adv-x="500" d="M326 0l6 63q-27 -18 -51.5 -32t-48.5 -23t-49.5 -13.5t-55.5 -4.5q-53 0 -85 26.5t-32 75.5q0 66 34.5 108t89.5 69t124 43t137 30l8 36q2 10 3 18.5t1 16.5q0 35 -23 52t-77 17q-47 0 -90.5 -24.5t-81.5 -69.5l-35 24q48 63 102 90.5t117 27.5q73 0 109 -25t36 -82 q0 -13 -2 -26.5t-5 -29.5l-60 -272q-5 -20 -8 -44.5t-5 -50.5h-58zM381 294q-102 -21 -163 -43t-93.5 -45t-43 -48.5t-10.5 -53.5q0 -32 20.5 -49t55.5 -17q42 0 95 23t101 63zM350 578l-106 138h77l80 -138h-51z" />
<glyph unicode="&#xe1;" horiz-adv-x="500" d="M326 0l6 63q-27 -18 -51.5 -32t-48.5 -23t-49.5 -13.5t-55.5 -4.5q-53 0 -85 26.5t-32 75.5q0 66 34.5 108t89.5 69t124 43t137 30l8 36q2 10 3 18.5t1 16.5q0 35 -23 52t-77 17q-47 0 -90.5 -24.5t-81.5 -69.5l-35 24q48 63 102 90.5t117 27.5q73 0 109 -25t36 -82 q0 -13 -2 -26.5t-5 -29.5l-60 -272q-5 -20 -8 -44.5t-5 -50.5h-58zM381 294q-102 -21 -163 -43t-93.5 -45t-43 -48.5t-10.5 -53.5q0 -32 20.5 -49t55.5 -17q42 0 95 23t101 63zM326 578h-51l142 138h77z" />
<glyph unicode="&#xe2;" horiz-adv-x="500" d="M420 578l-59 101l-105 -101h-66l145 138h68l83 -138h-66zM326 0l6 63q-27 -18 -51.5 -32t-48.5 -23t-49.5 -13.5t-55.5 -4.5q-53 0 -85 26.5t-32 75.5q0 66 34.5 108t89.5 69t124 43t137 30l8 36q2 10 3 18.5t1 16.5q0 35 -23 52t-77 17q-47 0 -90.5 -24.5t-81.5 -69.5 l-35 24q48 63 102 90.5t117 27.5q73 0 109 -25t36 -82q0 -13 -2 -26.5t-5 -29.5l-60 -272q-5 -20 -8 -44.5t-5 -50.5h-58zM381 294q-102 -21 -163 -43t-93.5 -45t-43 -48.5t-10.5 -53.5q0 -32 20.5 -49t55.5 -17q42 0 95 23t101 63z" />
<glyph unicode="&#xe3;" horiz-adv-x="500" d="M520 691q-8 -19 -17.5 -36.5t-22.5 -31t-30.5 -21.5t-39.5 -8q-16 0 -33 7t-33.5 15.5t-33 15.5t-30.5 7q-22 0 -36.5 -15.5t-21.5 -34.5h-38q5 17 15.5 34.5t25 31.5t32 22.5t36.5 8.5t36 -7t33.5 -15t32.5 -15t31 -7q20 0 34.5 15.5t21.5 33.5h38zM326 0l6 63 q-27 -18 -51.5 -32t-48.5 -23t-49.5 -13.5t-55.5 -4.5q-53 0 -85 26.5t-32 75.5q0 66 34.5 108t89.5 69t124 43t137 30l8 36q2 10 3 18.5t1 16.5q0 35 -23 52t-77 17q-47 0 -90.5 -24.5t-81.5 -69.5l-35 24q48 63 102 90.5t117 27.5q73 0 109 -25t36 -82q0 -13 -2 -26.5 t-5 -29.5l-60 -272q-5 -20 -8 -44.5t-5 -50.5h-58zM381 294q-102 -21 -163 -43t-93.5 -45t-43 -48.5t-10.5 -53.5q0 -32 20.5 -49t55.5 -17q42 0 95 23t101 63z" />
<glyph unicode="&#xe4;" horiz-adv-x="500" d="M229 588l21 94h66l-21 -94h-66zM385 588l21 94h66l-21 -94h-66zM326 0l6 63q-27 -18 -51.5 -32t-48.5 -23t-49.5 -13.5t-55.5 -4.5q-53 0 -85 26.5t-32 75.5q0 66 34.5 108t89.5 69t124 43t137 30l8 36q2 10 3 18.5t1 16.5q0 35 -23 52t-77 17q-47 0 -90.5 -24.5 t-81.5 -69.5l-35 24q48 63 102 90.5t117 27.5q73 0 109 -25t36 -82q0 -13 -2 -26.5t-5 -29.5l-60 -272q-5 -20 -8 -44.5t-5 -50.5h-58zM381 294q-102 -21 -163 -43t-93.5 -45t-43 -48.5t-10.5 -53.5q0 -32 20.5 -49t55.5 -17q42 0 95 23t101 63z" />
<glyph unicode="&#xe5;" horiz-adv-x="500" d="M462 696q0 -25 -11 -47t-28.5 -38.5t-40 -26.5t-45.5 -10q-35 0 -57.5 22t-22.5 57q0 24 11 46t29 38.5t40 26.5t45 10q35 0 57.5 -22t22.5 -56zM427 689q0 23 -15 37t-38 14q-15 0 -29.5 -6.5t-26.5 -17.5t-19.5 -25.5t-7.5 -30.5q0 -23 15.5 -37.5t38.5 -14.5 q15 0 29.5 6.5t26.5 17.5t19 25.5t7 31.5zM326 0l6 63q-27 -18 -51.5 -32t-48.5 -23t-49.5 -13.5t-55.5 -4.5q-53 0 -85 26.5t-32 75.5q0 66 34.5 108t89.5 69t124 43t137 30l8 36q2 10 3 18.5t1 16.5q0 35 -23 52t-77 17q-47 0 -90.5 -24.5t-81.5 -69.5l-35 24 q48 63 102 90.5t117 27.5q73 0 109 -25t36 -82q0 -13 -2 -26.5t-5 -29.5l-60 -272q-5 -20 -8 -44.5t-5 -50.5h-58zM381 294q-102 -21 -163 -43t-93.5 -45t-43 -48.5t-10.5 -53.5q0 -32 20.5 -49t55.5 -17q42 0 95 23t101 63z" />
<glyph unicode="&#xe6;" horiz-adv-x="778" d="M363 294q-94 -21 -151.5 -43t-88.5 -45t-41.5 -48.5t-10.5 -53.5q0 -32 20.5 -49t55.5 -17q21 0 45 6t48 17t46 27t39 36zM728 117q-29 -35 -55 -59t-53.5 -39t-58 -22t-67.5 -7q-53 0 -89.5 23.5t-57.5 64.5q-54 -52 -108.5 -70t-111.5 -18q-53 0 -85 26.5t-32 75.5 q0 64 32.5 105t84 68t116.5 44.5t131 32.5l8 36q3 13 3 28q0 31 -20 53.5t-70 22.5q-55 0 -92.5 -24.5t-65.5 -71.5l-39 26q41 63 90.5 90.5t112.5 27.5q24 0 46 -4t41 -14t33 -26t20 -41q38 42 83 63.5t93 21.5q79 0 114.5 -44t35.5 -119q0 -47 -14 -109h-338 q-11 -52 -11 -92q0 -28 5.5 -51.5t18 -40.5t32.5 -26.5t49 -9.5q25 0 46 5t41 17t41.5 32t47.5 51zM704 306q3 25 3 48q0 60 -23 94t-79 34q-34 0 -62.5 -14t-51 -38t-39 -56t-26.5 -68h278z" />
<glyph unicode="&#xe7;" horiz-adv-x="500" d="M451 123q-44 -55 -100.5 -93.5t-129.5 -39.5l-43 -40l1 -2q5 2 14 4t19 2q29 0 45.5 -15.5t16.5 -43.5q0 -26 -12 -45.5t-30.5 -32.5t-40.5 -19t-42 -6q-25 0 -48.5 4.5t-43.5 15.5l22 36q11 -5 27 -10.5t29 -5.5q35 0 55.5 12t20.5 38q0 17 -11.5 24.5t-25.5 7.5 q-12 0 -24.5 -2.5t-21.5 -6.5l-12 13l70 74q-72 9 -107.5 57t-35.5 123q0 60 18.5 123.5t55 115.5t90.5 85.5t126 33.5q74 0 114 -38t49 -103l-58 -15q-5 22 -13 42t-21 34.5t-31 23t-44 8.5q-57 0 -99 -28t-70 -72t-42 -97.5t-14 -104.5q0 -66 31 -104t93 -38q55 0 96.5 29 t83.5 79z" />
<glyph unicode="&#xe8;" horiz-adv-x="500" d="M450 117q-29 -35 -55 -59t-53.5 -39t-58 -22t-67.5 -7q-82 0 -128 44.5t-46 132.5q0 79 22.5 145.5t61 115t89.5 75.5t108 27q83 0 123.5 -46.5t40.5 -126.5q0 -45 -12 -99h-362q-9 -41 -9 -78q0 -62 29.5 -102t97.5 -40q25 0 46 5t41 17t41.5 32t47.5 51zM426 306 q1 11 1.5 21t0.5 20q0 62 -26.5 98.5t-86.5 36.5q-40 0 -72.5 -17.5t-57 -44t-40 -57.5t-21.5 -57h302zM350 578l-106 138h77l80 -138h-51z" />
<glyph unicode="&#xe9;" horiz-adv-x="500" d="M326 578h-51l142 138h77zM450 117q-29 -35 -55 -59t-53.5 -39t-58 -22t-67.5 -7q-82 0 -128 44.5t-46 132.5q0 79 22.5 145.5t61 115t89.5 75.5t108 27q83 0 123.5 -46.5t40.5 -126.5q0 -45 -12 -99h-362q-9 -41 -9 -78q0 -62 29.5 -102t97.5 -40q25 0 46 5t41 17 t41.5 32t47.5 51zM426 306q1 11 1.5 21t0.5 20q0 62 -26.5 98.5t-86.5 36.5q-40 0 -72.5 -17.5t-57 -44t-40 -57.5t-21.5 -57h302z" />
<glyph unicode="&#xea;" horiz-adv-x="500" d="M420 578l-59 101l-105 -101h-66l145 138h68l83 -138h-66zM450 117q-29 -35 -55 -59t-53.5 -39t-58 -22t-67.5 -7q-82 0 -128 44.5t-46 132.5q0 79 22.5 145.5t61 115t89.5 75.5t108 27q83 0 123.5 -46.5t40.5 -126.5q0 -45 -12 -99h-362q-9 -41 -9 -78q0 -62 29.5 -102 t97.5 -40q25 0 46 5t41 17t41.5 32t47.5 51zM426 306q1 11 1.5 21t0.5 20q0 62 -26.5 98.5t-86.5 36.5q-40 0 -72.5 -17.5t-57 -44t-40 -57.5t-21.5 -57h302z" />
<glyph unicode="&#xeb;" horiz-adv-x="500" d="M229 588l21 94h66l-21 -94h-66zM385 588l21 94h66l-21 -94h-66zM450 117q-29 -35 -55 -59t-53.5 -39t-58 -22t-67.5 -7q-82 0 -128 44.5t-46 132.5q0 79 22.5 145.5t61 115t89.5 75.5t108 27q83 0 123.5 -46.5t40.5 -126.5q0 -45 -12 -99h-362q-9 -41 -9 -78 q0 -62 29.5 -102t97.5 -40q25 0 46 5t41 17t41.5 32t47.5 51zM426 306q1 11 1.5 21t0.5 20q0 62 -26.5 98.5t-86.5 36.5q-40 0 -72.5 -17.5t-57 -44t-40 -57.5t-21.5 -57h302z" />
<glyph unicode="&#xec;" horiz-adv-x="222" d="M41 0l115 520h60l-115 -520h-60zM211 578l-106 138h77l80 -138h-51z" />
<glyph unicode="&#xed;" horiz-adv-x="222" d="M41 0l115 520h60l-115 -520h-60zM187 578h-51l142 138h77z" />
<glyph unicode="&#xee;" horiz-adv-x="222" d="M41 0l115 520h60l-115 -520h-60zM281 578l-59 101l-105 -101h-66l145 138h68l83 -138h-66z" />
<glyph unicode="&#xef;" horiz-adv-x="222" d="M41 0l115 520h60l-115 -520h-60zM90 588l21 94h66l-21 -94h-66zM246 588l21 94h66l-21 -94h-66z" />
<glyph unicode="&#xf0;" horiz-adv-x="500" d="M218 38q81 0 130.5 58t73.5 164q12 52 12 94q0 62 -28.5 95t-88.5 33q-57 0 -98 -31t-67 -78t-38 -103t-12 -105q0 -62 28 -94.5t88 -32.5zM424 510q-15 50 -46 97l-114 -53l-19 40l104 49q-13 14 -28 27.5t-33 25.5l59 26q17 -13 31.5 -26t26.5 -27l114 53l19 -40 l-104 -49q36 -51 51 -107.5t15 -115.5q0 -46 -6.5 -94.5t-21 -95t-37 -88.5t-55 -73.5t-75.5 -50t-97 -18.5q-46 0 -78 13t-51.5 36t-28 54.5t-8.5 67.5q0 64 17.5 129.5t52.5 118.5t89 87t126 34q59 0 95 -22z" />
<glyph unicode="&#xf1;" d="M374 0l77 349q4 16 5.5 30.5t1.5 26.5q0 38 -19 57t-64 19q-24 0 -45.5 -7t-43.5 -19.5t-46 -31t-53 -41.5l-85 -383h-60l115 520h60l-18 -82q50 45 95.5 68.5t102.5 23.5q64 0 94 -28.5t30 -82.5q0 -26 -8 -64l-79 -355h-60zM541 691q-8 -19 -17.5 -36.5t-22.5 -31 t-30.5 -21.5t-39.5 -8q-16 0 -33 7t-33.5 15.5t-33 15.5t-30.5 7q-22 0 -36.5 -15.5t-21.5 -34.5h-38q5 17 15.5 34.5t25 31.5t32 22.5t36.5 8.5t36 -7t33.5 -15t32.5 -15t31 -7q20 0 34.5 15.5t21.5 33.5h38z" />
<glyph unicode="&#xf2;" horiz-adv-x="500" d="M345 578l-106 138h77l80 -138h-51zM218 38q57 0 98 31t67 77.5t38.5 102t12.5 105.5q0 62 -28.5 95t-88.5 33q-57 0 -98 -31t-67 -78t-38 -103t-12 -105q0 -62 28 -94.5t88 -32.5zM208 -10q-46 0 -78 13t-51.5 36t-28 54.5t-8.5 67.5q0 64 17 129.5t51.5 118.5t87.5 87 t125 34q46 0 78.5 -13.5t53 -36.5t30 -54.5t9.5 -68.5q0 -64 -17.5 -129t-53.5 -118t-89.5 -86.5t-125.5 -33.5z" />
<glyph unicode="&#xf3;" horiz-adv-x="500" d="M321 578h-51l142 138h77zM218 38q57 0 98 31t67 77.5t38.5 102t12.5 105.5q0 62 -28.5 95t-88.5 33q-57 0 -98 -31t-67 -78t-38 -103t-12 -105q0 -62 28 -94.5t88 -32.5zM208 -10q-46 0 -78 13t-51.5 36t-28 54.5t-8.5 67.5q0 64 17 129.5t51.5 118.5t87.5 87t125 34 q46 0 78.5 -13.5t53 -36.5t30 -54.5t9.5 -68.5q0 -64 -17.5 -129t-53.5 -118t-89.5 -86.5t-125.5 -33.5z" />
<glyph unicode="&#xf4;" horiz-adv-x="500" d="M415 578l-59 101l-105 -101h-66l145 138h68l83 -138h-66zM218 38q57 0 98 31t67 77.5t38.5 102t12.5 105.5q0 62 -28.5 95t-88.5 33q-57 0 -98 -31t-67 -78t-38 -103t-12 -105q0 -62 28 -94.5t88 -32.5zM208 -10q-46 0 -78 13t-51.5 36t-28 54.5t-8.5 67.5q0 64 17 129.5 t51.5 118.5t87.5 87t125 34q46 0 78.5 -13.5t53 -36.5t30 -54.5t9.5 -68.5q0 -64 -17.5 -129t-53.5 -118t-89.5 -86.5t-125.5 -33.5z" />
<glyph unicode="&#xf5;" horiz-adv-x="500" d="M515 691q-8 -19 -17.5 -36.5t-22.5 -31t-30.5 -21.5t-39.5 -8q-16 0 -33 7t-33.5 15.5t-33 15.5t-30.5 7q-22 0 -36.5 -15.5t-21.5 -34.5h-38q5 17 15.5 34.5t25 31.5t32 22.5t36.5 8.5t36 -7t33.5 -15t32.5 -15t31 -7q20 0 34.5 15.5t21.5 33.5h38zM218 38q57 0 98 31 t67 77.5t38.5 102t12.5 105.5q0 62 -28.5 95t-88.5 33q-57 0 -98 -31t-67 -78t-38 -103t-12 -105q0 -62 28 -94.5t88 -32.5zM208 -10q-46 0 -78 13t-51.5 36t-28 54.5t-8.5 67.5q0 64 17 129.5t51.5 118.5t87.5 87t125 34q46 0 78.5 -13.5t53 -36.5t30 -54.5t9.5 -68.5 q0 -64 -17.5 -129t-53.5 -118t-89.5 -86.5t-125.5 -33.5z" />
<glyph unicode="&#xf6;" horiz-adv-x="500" d="M224 588l21 94h66l-21 -94h-66zM380 588l21 94h66l-21 -94h-66zM218 38q57 0 98 31t67 77.5t38.5 102t12.5 105.5q0 62 -28.5 95t-88.5 33q-57 0 -98 -31t-67 -78t-38 -103t-12 -105q0 -62 28 -94.5t88 -32.5zM208 -10q-46 0 -78 13t-51.5 36t-28 54.5t-8.5 67.5 q0 64 17 129.5t51.5 118.5t87.5 87t125 34q46 0 78.5 -13.5t53 -36.5t30 -54.5t9.5 -68.5q0 -64 -17.5 -129t-53.5 -118t-89.5 -86.5t-125.5 -33.5z" />
<glyph unicode="&#xf7;" horiz-adv-x="600" d="M52 233l12 54h520l-12 -54h-520zM423 477q-5 -23 -26 -40t-44 -17t-36 17t-8 40t25.5 40t43.5 17t36.5 -17t8.5 -40zM327 43q-5 -23 -26 -40t-44 -17t-36 17t-8 40t25.5 40t43.5 17t36.5 -17t8.5 -40z" />
<glyph unicode="&#xf8;" horiz-adv-x="500" d="M401 452q-29 30 -84 30q-81 0 -130.5 -58t-72.5 -164q-12 -53 -12 -93q0 -36 9 -61zM135 67q29 -29 83 -29q80 0 130 58t74 164q12 54 12 95q0 34 -9 58zM-44 -80l112 134q-14 22 -20.5 49t-6.5 57q0 64 17.5 130t53 119t89.5 87t126 34t111 -33l86 103h57l-113 -135 q26 -42 26 -106t-17.5 -129.5t-53 -119t-89.5 -87t-126 -33.5t-110 33l-86 -103h-56z" />
<glyph unicode="&#xf9;" d="M374 0l18 82q-52 -44 -96.5 -68t-101.5 -24q-64 0 -93.5 28t-29.5 82q0 27 8 65l78 355h60l-77 -349q-8 -35 -8 -57q0 -38 19.5 -57t64.5 -19q24 0 45.5 6.5t43 19.5t45.5 31t54 42l85 383h60l-115 -520h-60zM378 578l-106 138h77l80 -138h-51z" />
<glyph unicode="&#xfa;" d="M354 578h-51l142 138h77zM374 0l18 82q-52 -44 -96.5 -68t-101.5 -24q-64 0 -93.5 28t-29.5 82q0 27 8 65l78 355h60l-77 -349q-8 -35 -8 -57q0 -38 19.5 -57t64.5 -19q24 0 45.5 6.5t43 19.5t45.5 31t54 42l85 383h60l-115 -520h-60z" />
<glyph unicode="&#xfb;" d="M448 578l-59 101l-105 -101h-66l145 138h68l83 -138h-66zM374 0l18 82q-52 -44 -96.5 -68t-101.5 -24q-64 0 -93.5 28t-29.5 82q0 27 8 65l78 355h60l-77 -349q-8 -35 -8 -57q0 -38 19.5 -57t64.5 -19q24 0 45.5 6.5t43 19.5t45.5 31t54 42l85 383h60l-115 -520h-60z" />
<glyph unicode="&#xfc;" d="M257 588l21 94h66l-21 -94h-66zM413 588l21 94h66l-21 -94h-66zM374 0l18 82q-52 -44 -96.5 -68t-101.5 -24q-64 0 -93.5 28t-29.5 82q0 27 8 65l78 355h60l-77 -349q-8 -35 -8 -57q0 -38 19.5 -57t64.5 -19q24 0 45.5 6.5t43 19.5t45.5 31t54 42l85 383h60l-115 -520 h-60z" />
<glyph unicode="&#xfd;" horiz-adv-x="444" d="M87 520h66l50 -423h2l238 423h64l-317 -557q-22 -38 -42.5 -66t-43.5 -46t-50.5 -26.5t-62.5 -8.5q-20 0 -32 1.5t-22 4.5l10 49q14 -2 28 -4.5t31 -2.5q31 0 70 32t79 112zM298 578h-51l142 138h77z" />
<glyph unicode="&#xfe;" d="M11 -184l201 906h60l-62 -282h2q41 45 83 67.5t93 22.5q40 0 70 -14.5t50 -40t29.5 -60t9.5 -74.5q0 -56 -17 -118t-51.5 -114t-86 -85.5t-119.5 -33.5q-26 0 -46.5 4.5t-38 14t-32 24.5t-29.5 35l-56 -252h-60zM141 131q4 -13 16 -29t29 -30.5t38 -24t43 -9.5 q55 0 96.5 29t69 73.5t41 98t13.5 102.5q0 29 -6.5 55t-20 45t-34.5 30t-51 11q-25 0 -47 -7.5t-43 -20t-42 -30l-45 -37.5z" />
<glyph unicode="&#xff;" horiz-adv-x="444" d="M87 520h66l50 -423h2l238 423h64l-317 -557q-22 -38 -42.5 -66t-43.5 -46t-50.5 -26.5t-62.5 -8.5q-20 0 -32 1.5t-22 4.5l10 49q14 -2 28 -4.5t31 -2.5q31 0 70 32t79 112zM201 588l21 94h66l-21 -94h-66zM357 588l21 94h66l-21 -94h-66z" />
<glyph unicode="&#x131;" horiz-adv-x="222" d="M41 0l115 520h60l-115 -520h-60z" />
<glyph unicode="&#x141;" horiz-adv-x="500" d="M60 0l72 324l-92 -34l14 62l92 34l74 336h66l-68 -309l185 68l-14 -62l-185 -68l-66 -297h322l-12 -54h-388z" />
<glyph unicode="&#x142;" horiz-adv-x="222" d="M41 0l74 334l-89 -42l14 64l89 42l72 324h60l-65 -293l89 41l-14 -64l-89 -41l-81 -365h-60z" />
<glyph unicode="&#x152;" horiz-adv-x="1000" d="M516 0q-49 0 -99.5 -5t-88.5 -5q-68 0 -116.5 17t-79.5 48.5t-45.5 75.5t-14.5 99q0 95 29.5 185.5t84.5 161t132.5 113t173.5 42.5q21 0 46 -1.5t49.5 -3.5t46.5 -3.5t38 -1.5h389l-12 -54h-341l-59 -266h244l-12 -54h-244l-65 -294h360l-12 -54h-404zM622 578 q3 12 3 24q0 76 -123 76q-87 0 -154.5 -37t-114 -98t-70.5 -139t-24 -160q0 -97 53.5 -148.5t169.5 -51.5q72 0 112.5 26t51.5 74z" />
<glyph unicode="&#x153;" horiz-adv-x="833" d="M214 38q36 0 65 14.5t52 39.5t39.5 57t27.5 67t16 70.5t5 66.5q0 25 -4.5 48t-16.5 41t-32 29t-51 11q-56 0 -96.5 -31.5t-66.5 -79.5t-38 -103.5t-12 -103.5q0 -61 27 -93.5t85 -32.5zM783 117q-29 -35 -55 -59t-53.5 -39t-58 -22t-67.5 -7q-63 0 -99.5 28.5t-50.5 85.5 q-32 -48 -79 -81t-116 -33q-45 0 -76 13t-50 36t-27.5 54t-8.5 67q0 64 16.5 130t51 119t86.5 87t123 34q68 0 105 -32.5t46 -80.5q13 20 31.5 40.5t43 36.5t55 26t67.5 10q80 0 117 -45.5t37 -123.5q0 -23 -3.5 -49t-9.5 -54h-341q-5 -25 -8.5 -48t-3.5 -45 q0 -56 24.5 -91.5t84.5 -35.5q25 0 46 5t41 17t41.5 32t47.5 51zM759 306q3 24 3 45q0 61 -24.5 96t-81.5 35q-36 0 -64.5 -14t-50.5 -38t-37.5 -56t-25.5 -68h281z" />
<glyph unicode="&#x160;" d="M439 763h-68l-83 138h66l59 -101l105 101h66zM514 542q-6 60 -40.5 98t-103.5 38q-33 0 -64 -11t-56 -31.5t-40 -50.5t-15 -69q0 -13 5.5 -25.5t19 -25t37 -26t59.5 -28.5q57 -23 95.5 -44t61.5 -42t33 -43t10 -49q0 -58 -20.5 -103.5t-56.5 -76.5t-85 -47t-107 -16 q-104 0 -155 46.5t-59 146.5l65 19q2 -83 43.5 -120.5t127.5 -37.5q34 0 66.5 12.5t57.5 35t40 54t15 69.5q0 26 -13.5 45.5t-34 34t-45 25.5t-46.5 20q-32 13 -64 27.5t-58 33.5t-42.5 44t-16.5 59q0 48 18.5 89.5t51.5 72t80 48.5t104 18q86 0 136.5 -44.5t56.5 -128.5z " />
<glyph unicode="&#x161;" horiz-adv-x="444" d="M344 578h-68l-83 138h66l59 -101l105 101h66zM388 404q-19 36 -45 57t-73 21q-21 0 -43 -6.5t-40.5 -19.5t-30 -33t-11.5 -47q0 -17 9.5 -29t25 -20.5t35.5 -15.5t42 -13q26 -8 51.5 -17t46 -23t33 -34.5t12.5 -50.5q0 -43 -18 -77t-47.5 -57.5t-67 -36t-77.5 -12.5 q-60 0 -109.5 25t-74.5 80l51 31q12 -26 26 -43t31 -27t37.5 -14t46.5 -4q28 0 53 9.5t44.5 26t31 38t11.5 46.5q0 17 -7 30t-19.5 22.5t-29 17t-35.5 13.5q-28 9 -57 17.5t-53 21.5t-39.5 32.5t-15.5 50.5q0 45 17 76.5t44.5 51.5t61.5 29.5t68 9.5q66 0 108 -24.5 t60 -69.5z" />
<glyph unicode="&#x178;" d="M201 0l68 306l-129 416h74l99 -357l269 357h74l-321 -416l-68 -306h-66zM296 763l21 94h66l-21 -94h-66zM452 763l21 94h66l-21 -94h-66z" />
<glyph unicode="&#x17d;" d="M6 0l12 54l513 614h-346l12 54h428l-12 -56l-513 -612h382l-12 -54h-464zM439 763h-68l-83 138h66l59 -101l105 101h66z" />
<glyph unicode="&#x17e;" horiz-adv-x="444" d="M-15 0l8 38l397 434h-276l10 48h356l-8 -38l-396 -434h308l-11 -48h-388zM344 578h-68l-83 138h66l59 -101l105 101h66z" />
<glyph unicode="&#x192;" d="M-12 -127q8 -3 16.5 -6t16.5 -3q29 0 51 12.5t40 35t33.5 55t30.5 72.5l128 348h-134l10 48h139q13 40 32.5 91.5t48.5 97t68.5 77t93.5 31.5q15 0 29.5 -1t28.5 -5l-19 -45q-17 3 -31 3q-46 0 -76 -24.5t-50.5 -61.5t-35.5 -80.5t-30 -82.5h127l-10 -48h-132l-147 -398 q-13 -35 -32.5 -66.5t-46 -55t-59 -37.5t-71.5 -14q-20 0 -38 3z" />
<glyph unicode="&#x2c6;" horiz-adv-x="222" d="M281 578l-59 101l-105 -101h-66l145 138h68l83 -138h-66z" />
<glyph unicode="&#x2c7;" horiz-adv-x="222" d="M233 578h-68l-83 138h66l59 -101l105 101h66z" />
<glyph unicode="&#x2d8;" horiz-adv-x="222" d="M372 709q-17 -59 -63 -93t-109 -34t-94 34t-22 93h38q-1 -45 23.5 -63t64.5 -18t72.5 18t51.5 63h38z" />
<glyph unicode="&#x2d9;" horiz-adv-x="222" d="M168 588l21 94h66l-21 -94h-66z" />
<glyph unicode="&#x2da;" horiz-adv-x="222" d="M320 674q-5 -21 -17 -39.5t-28.5 -32t-36.5 -21t-40 -7.5t-36.5 7.5t-27 21t-15 32t0.5 39.5t17 39t29 31.5t37 21.5t40 8t36.5 -8t27 -21.5t14.5 -31.5t-1 -39zM286 674q7 28 -8.5 47t-42.5 19t-50.5 -19t-30.5 -47q-6 -28 9.5 -47t42.5 -19t50.5 19t29.5 47z" />
<glyph unicode="&#x2db;" horiz-adv-x="222" d="M164 -154q-16 -9 -35.5 -18.5t-40 -17t-40.5 -12t-38 -4.5q-33 0 -56 13t-23 45q0 43 27.5 72.5t66.5 48t81.5 29.5t72.5 17l-2 -9q-21 -7 -52 -18.5t-59.5 -28.5t-48.5 -39t-20 -50q0 -16 13.5 -28t33.5 -12q12 0 26.5 4.5t30 11t30 13.5t26.5 13z" />
<glyph unicode="&#x2dc;" horiz-adv-x="222" d="M381 691q-8 -19 -17.5 -36.5t-22.5 -31t-30.5 -21.5t-39.5 -8q-16 0 -33 7t-33.5 15.5t-33 15.5t-30.5 7q-22 0 -36.5 -15.5t-21.5 -34.5h-38q5 17 15.5 34.5t25 31.5t32 22.5t36.5 8.5t36 -7t33.5 -15t32.5 -15t31 -7q20 0 34.5 15.5t21.5 33.5h38z" />
<glyph unicode="&#x2dd;" horiz-adv-x="222" d="M129 578h-49l124 138h77zM252 578h-51l142 138h77z" />
<glyph unicode="&#x3a9;" horiz-adv-x="724" d="M398 0l8 36q38 23 81 63.5t79 95t60 120.5t24 141q0 42 -10 82t-31 70.5t-54.5 49t-80.5 18.5q-64 0 -121 -33t-100.5 -88.5t-69 -128t-25.5 -150.5q0 -82 28 -145t68 -95l-8 -36h-233l11 49h154l1 3q-35 38 -57.5 95t-22.5 131q0 99 34 181.5t89 141.5t124.5 92 t139.5 33q54 0 96.5 -19t71.5 -52t44 -78.5t15 -99.5q0 -72 -22 -138t-55.5 -121t-73 -97.5t-75.5 -68.5l-1 -3h156l-11 -49h-233z" />
<glyph unicode="&#x3bc;" d="M374 0l18 82q-52 -44 -96.5 -68t-101.5 -24q-59 0 -89 24l-44 -198h-60l156 704h60l-77 -349q-14 -65 1 -99t75 -34q24 0 45.5 7t43 20t45.5 31t54 41l85 383h60l-115 -520h-60z" />
<glyph unicode="&#x3c0;" horiz-adv-x="562" d="M368 0q-4 11 -1.5 44t17.5 99l74 336h-196q-9 -35 -22 -77.5t-28.5 -88t-32.5 -91t-34 -87t-33.5 -76.5t-31.5 -59h-58q24 40 50 99.5t50.5 125.5t46 132.5t35.5 121.5q-50 0 -76 -3.5t-43 -9.5l-2 39q21 11 54 18t89 7h391l-17 -51h-84l-73 -329q-7 -33 -11 -57 t-6 -41.5t-2 -29.5t1 -22h-57z" />
<glyph unicode="&#xe00;" horiz-adv-x="195" />
<glyph unicode="&#xe01;" horiz-adv-x="600" d="M413 0l83 389q2 12 3.5 23t1.5 22q0 51 -33.5 80.5t-106.5 29.5q-61 0 -108 -20t-77 -45v-3q35 -3 71 -17t58 -31l-6 -22q-49 -5 -80.5 -36.5t-42.5 -83.5l-61 -286h-54l61 286q11 48 37.5 82.5t63.5 48.5l1 4q-21 11 -55.5 16t-64.5 5l7 32q19 25 45.5 47t59.5 38t72 25 t83 9q93 0 139 -40t46 -109q0 -27 -6 -55l-83 -389h-54z" />
<glyph unicode="&#xe02;" horiz-adv-x="558" d="M123 0l11 54h63l52 240q6 26 21.5 47.5t32.5 42.5t30 43t13 49q0 29 -20.5 49t-56.5 20q-20 0 -40 -5t-34 -16v-3q44 4 67 -19t23 -54q0 -24 -9.5 -43.5t-25 -33t-36.5 -21t-43 -7.5q-16 0 -31 5.5t-27 16t-19.5 26.5t-7.5 37q0 35 14.5 65t40 52.5t58.5 35t71 12.5 q66 0 98.5 -33t32.5 -83q0 -30 -13.5 -54t-30.5 -46t-33 -42.5t-21 -42.5l-51 -238h128l114 531h54l-125 -585h-300zM236 442q0 17 -11 29.5t-31 12.5q-23 0 -40.5 -16t-17.5 -39q0 -17 11.5 -29.5t28.5 -12.5q26 0 43 16t17 39z" />
<glyph unicode="&#xe03;" horiz-adv-x="590" d="M153 0l11 54h64l60 279q9 42 31 73.5t53 52.5l35 24l-29 57l-80 -51h-6q-7 26 -21.5 42.5t-42.5 16.5q-32 0 -57.5 -21.5t-31.5 -46.5h2q11 11 27.5 17.5t35.5 6.5q38 0 58 -21.5t20 -55.5q0 -20 -8 -38.5t-22 -32.5t-35 -22.5t-46 -8.5q-38 0 -65.5 26t-27.5 71 q0 41 15.5 73t39 53.5t51.5 33t53 11.5q31 0 48.5 -14.5t24.5 -31.5l66 41l8 4t9 2q9 0 14 -8l49 -92q3 -6 3 -14q0 -15 -14 -25l-45 -31q-12 -8 -21 -16t-16 -18t-12 -24t-9 -33l-59 -279h129l114 531h54l-125 -585h-302zM233 423q0 17 -12 28.5t-29 11.5 q-25 0 -41.5 -14.5t-16.5 -38.5q0 -16 12 -28t30 -12q25 0 41 15t16 38z" />
<glyph unicode="&#xe04;" horiz-adv-x="650" d="M406 354q0 17 -10.5 28t-28.5 11q-23 0 -40.5 -16t-17.5 -41q0 -17 10.5 -27.5t27.5 -10.5q26 0 42.5 16t16.5 40zM463 0l77 363q5 28 5 49q0 60 -36 96t-107 36q-44 0 -80.5 -15t-65 -41t-47.5 -61.5t-28 -76.5l-32 -149q-8 -35 -17.5 -68t-23.5 -64l5 -2q15 36 33 77 t34 70l79 141q20 36 48 59t70 23q29 0 53 -19.5t24 -56.5q0 -47 -31 -77t-82 -30q-31 0 -50 16t-20 34h-2q-3 -14 -8.5 -30t-13.5 -30l-137 -244h-57l75 350q10 49 33 93t58 77.5t82 53t105 19.5q46 0 82.5 -14t61 -38.5t37.5 -57.5t13 -71q0 -12 -1.5 -24.5t-3.5 -24.5 l-78 -363h-54z" />
<glyph unicode="&#xe05;" horiz-adv-x="659" d="M471 0l92 429q3 13 4 24t1 21q0 61 -55 61q-33 0 -73 -28l-44 -31h-12l-31 31q-28 28 -62 28q-36 0 -58.5 -27t-33.5 -79l-49 -228q-8 -35 -17.5 -68t-23.5 -64l5 -2q15 36 34 77t35 70l79 141q20 36 48 59t70 23q29 0 53 -19.5t24 -56.5q0 -47 -31 -77t-82 -30 q-31 0 -50 16t-20 34h-2q-3 -14 -8.5 -30t-13.5 -30l-139 -244h-58l93 434q6 27 17 53.5t28.5 48.5t42.5 35.5t59 13.5q32 0 51 -10.5t31 -22.5l21 -22l32 22q17 12 39.5 22.5t55.5 10.5q52 0 75.5 -32.5t23.5 -78.5q0 -22 -4 -41l-93 -433h-54zM409 354q0 17 -10.5 28 t-28.5 11q-23 0 -40.5 -16t-17.5 -41q0 -17 10.5 -27.5t27.5 -10.5q26 0 42.5 16t16.5 40z" />
<glyph unicode="&#xe06;" horiz-adv-x="706" d="M262 199q-22 -4 -42.5 -13.5t-36 -23.5t-24.5 -33t-9 -42q0 -24 11 -36t28 -12q38 0 49 49zM505 0q-6 37 -21.5 70.5t-40 60t-57.5 44t-72 22.5l-24 -110q-11 -51 -38 -73t-69 -22q-37 0 -62 23t-25 65q0 37 14.5 65.5t39 49.5t55.5 33.5t64 16.5l19 88q9 42 31 73.5 t53 52.5l35 24l-29 57l-80 -51h-6q-7 26 -21.5 42.5t-42.5 16.5q-32 0 -57.5 -21.5t-31.5 -46.5h2q11 11 27.5 17.5t35.5 6.5q38 0 58 -21.5t20 -55.5q0 -20 -8 -38.5t-22 -32.5t-35 -22.5t-46 -8.5q-38 0 -65.5 26t-27.5 71q0 41 15.5 73t39 53.5t51.5 33t53 11.5 q31 0 48.5 -14.5t24.5 -31.5l66 41l8 4t9 2q9 0 14 -8l49 -92q3 -6 3 -14q0 -15 -14 -25l-45 -31q-12 -8 -21 -16t-16 -18t-12 -24t-9 -33l-19 -88q73 -10 128.5 -52.5t78.5 -108.5h5l107 501h54l-125 -585h-66zM233 423q0 17 -12 28.5t-29 11.5q-25 0 -41.5 -14.5 t-16.5 -38.5q0 -16 12 -28t30 -12q25 0 41 15t16 38z" />
<glyph unicode="&#xe07;" horiz-adv-x="472" d="M283 0l-243 319l41 35l189 -250q19 -27 29 -54l3 1q0 14 4 45.5t12 66.5l46 213q4 19 10 32.5t13 27.5l-4 1q-8 -10 -21 -18.5t-37 -8.5q-15 0 -28.5 6t-24 16t-17 24t-6.5 31q0 46 31.5 76t82.5 30q35 0 59.5 -20.5t24.5 -55.5q0 -5 -0.5 -9.5t-1.5 -9.5l-106 -498h-56z M397 510q0 17 -10.5 28t-28.5 11q-26 0 -42.5 -16.5t-16.5 -39.5q0 -17 10.5 -28t28.5 -11q23 0 41 16t18 40z" />
<glyph unicode="&#xe08;" horiz-adv-x="572" d="M330 342q0 17 -11.5 29t-29.5 12q-23 0 -40 -15t-17 -39q0 -17 11.5 -29t28.5 -12q27 0 42.5 15.5t15.5 38.5zM379 0l-32 234q-1 4 -1 8v9q0 20 5 43h-2q-8 -18 -29.5 -34t-51.5 -16q-40 0 -63 23.5t-23 56.5q0 23 9.5 42t25 32.5t35 21t40.5 7.5q42 0 63 -22.5t27 -64.5 l19 -128q3 -18 4.5 -42.5t1.5 -50.5q0 -14 -0.5 -27.5t-1.5 -26.5l6 1q2 31 6.5 65.5t12.5 69.5l36 163q6 27 6 51q0 60 -36.5 94.5t-109.5 34.5q-42 0 -77 -12.5t-61 -34t-43.5 -50.5t-24.5 -62l-7 -33h-54l7 33q9 41 30 78.5t54 66.5t78.5 46t102.5 17q48 0 84 -13.5 t60.5 -36.5t36.5 -55t12 -69q0 -27 -6 -55l-78 -364h-61z" />
<glyph unicode="&#xe09;" horiz-adv-x="596" d="M484 364q6 27 6 50q0 60 -37.5 95t-114.5 35q-44 0 -80 -12.5t-63 -34t-45 -50.5t-25 -62l-7 -33h-55l7 33q9 41 30.5 78.5t56 66.5t81 46t105.5 17q50 0 87.5 -13.5t63 -37.5t38 -56t12.5 -69q0 -26 -6 -53l-40 -184q20 -5 36 -25t16 -54q0 -26 -9.5 -46.5t-26 -34.5 t-37.5 -21t-45 -7q-21 0 -36.5 6.5t-26.5 17t-16.5 23t-5.5 25.5t4.5 24t9.5 16l-2 2q-10 -11 -23 -22t-39 -28l-89 -56h-54l56 260q-24 5 -40 24.5t-16 48.5q0 23 9 42t24.5 33t36 21.5t43.5 7.5q36 0 59 -20.5t23 -55.5q0 -38 -22.5 -63t-61.5 -36l-45 -206l158 99 q16 10 31.5 17.5t35.5 9.5zM499 96q0 19 -11.5 31t-31.5 12q-26 0 -43 -16.5t-17 -44.5q0 -18 11.5 -30t31.5 -12q26 0 43 15.5t17 44.5zM300 356q0 17 -10.5 28t-27.5 11q-24 0 -41.5 -16.5t-17.5 -39.5q0 -17 10.5 -28t28.5 -11q23 0 40.5 16.5t17.5 39.5z" />
<glyph unicode="&#xe0a;" horiz-adv-x="564" d="M456 378q2 11 3.5 19t1.5 16q0 16 -10 27l-29 30l-53 -43q-15 -12 -22 -24t-12 -34l-68 -315h119zM131 0l11 54h72l67 315q8 38 22 58t36 37l45 36q-28 23 -57.5 34t-68.5 11q-20 0 -40 -5t-34 -16v-3h11q39 0 59 -22t20 -51q0 -24 -9.5 -43.5t-25 -33t-36.5 -21 t-43 -7.5q-16 0 -31 5.5t-27 16t-19.5 26.5t-7.5 37q0 35 16.5 65t44 52.5t62.5 35t73 12.5q49 0 86 -17t68 -42l120 97l30 -38l-113 -90l31 -30q11 -11 16.5 -24t5.5 -32q0 -14 -5 -39l-81 -378h-298zM225 442q0 17 -11 29.5t-31 12.5q-23 0 -40.5 -16t-17.5 -39 q0 -17 11.5 -29.5t28.5 -12.5q26 0 43 16t17 39z" />
<glyph unicode="&#xe0b;" horiz-adv-x="577" d="M143 0l11 54h73l67 315q8 38 22 58t36 37l50 39l-38 36l-66 -50h-6q-7 26 -21.5 42.5t-42.5 16.5q-32 0 -57.5 -21.5t-31.5 -46.5h2q11 11 27.5 17.5t35.5 6.5q38 0 58 -21.5t20 -55.5q0 -20 -8 -38.5t-22 -32.5t-35 -22.5t-46 -8.5q-38 0 -65.5 26t-27.5 71 q0 41 15.5 73t39 53.5t51.5 33t53 11.5q31 0 48.5 -14.5t24.5 -31.5l49 38q11 8 19 8q6 0 15 -7l49 -49l116 94l31 -40l-114 -90l31 -28q20 -19 22 -57q0 -8 -1.5 -17.5t-3.5 -20.5l-81 -378h-299zM469 378q2 11 3.5 20t1.5 17q0 16 -9 26l-29 29l-54 -44q-15 -12 -22 -23.5 t-12 -33.5l-68 -315h119zM233 423q0 17 -12 28.5t-29 11.5q-25 0 -41.5 -14.5t-16.5 -38.5q0 -16 12 -28t30 -12q25 0 41 15t16 38z" />
<glyph unicode="&#xe0c;" horiz-adv-x="897" d="M220 94q0 18 -10.5 29.5t-29.5 11.5q-24 0 -41 -15t-17 -39q0 -17 11.5 -29t29.5 -12q24 0 40.5 15.5t16.5 38.5zM696 0q-14 76 -66 122.5t-126 47.5l-19 -86q-11 -49 -34 -70.5t-61 -21.5q-35 0 -55.5 21.5t-20.5 56.5q0 32 11.5 57.5t31.5 44.5t46.5 30.5t55.5 15.5 l37 171q2 12 3.5 23t1.5 22q0 52 -33.5 81t-106.5 29q-61 0 -108 -20t-77 -45v-3q35 -3 71 -17t58 -31l-6 -22q-49 -5 -83.5 -36.5t-45.5 -83.5l-16 -73q-5 -19 -9.5 -32.5t-12.5 -27.5l4 -1q7 10 22.5 17.5t35.5 7.5q30 0 53 -20t23 -58q0 -23 -9 -42t-24 -32.5t-35.5 -21 t-43.5 -7.5q-38 0 -62.5 20.5t-24.5 52.5q0 5 0.5 9t1.5 9l43 199q11 48 40.5 82.5t66.5 48.5l1 4q-21 11 -55.5 16t-64.5 5l7 32q19 25 45.5 47t59.5 38t72 25t83 9q93 0 139 -40t46 -109q0 -27 -6 -55l-37 -171q34 -2 66 -11.5t59.5 -26.5t49 -41t33.5 -55h5l107 501h54 l-125 -585h-66zM452 172q-37 -8 -61 -33.5t-24 -63.5q0 -36 28 -36q17 0 25 12.5t13 33.5z" />
<glyph unicode="&#xe0d;" horiz-adv-x="905" d="M220 94q0 18 -10.5 29.5t-29.5 11.5q-24 0 -41 -15t-17 -39q0 -17 11.5 -29t29.5 -12q24 0 40.5 15.5t16.5 38.5zM404 0l83 389q2 12 3.5 23.5t1.5 22.5q0 51 -31.5 80t-103.5 29q-60 0 -105.5 -20t-75.5 -45v-3q35 -3 71 -17t58 -31l-6 -22q-49 -5 -83.5 -36.5 t-45.5 -83.5l-16 -73q-5 -19 -9.5 -32.5t-12.5 -27.5l4 -1q7 10 22.5 17.5t35.5 7.5q30 0 53 -20t23 -58q0 -23 -9 -42t-24 -32.5t-35.5 -21t-43.5 -7.5q-38 0 -62.5 20.5t-24.5 52.5q0 5 0.5 9t1.5 9l43 199q11 48 40.5 82.5t66.5 48.5l1 4q-21 11 -55.5 16t-64.5 5l7 32 q38 51 103.5 85t152.5 34q91 0 135.5 -39.5t44.5 -108.5q0 -26 -6 -56l-71 -335h257l114 531h54l-125 -585h-366zM753 -77q-9 -44 -30 -76t-51 -54t-67.5 -32.5t-79.5 -10.5q-68 0 -111 27.5t-43 78.5q0 19 7 36.5t20.5 30.5t32 21t42.5 8q36 0 58 -21.5t22 -50.5 q0 -35 -21.5 -54t-51.5 -26l-1 -3q9 -3 23 -4t27 -1q69 0 114 34t59 97l5 23h51zM506 -125q0 15 -10.5 25t-25.5 10q-23 0 -37.5 -12.5t-14.5 -35.5q0 -15 10.5 -24.5t27.5 -9.5q21 0 35.5 12.5t14.5 34.5z" />
<glyph unicode="&#xe0e;" horiz-adv-x="653" d="M141 -180q0 19 -12 32.5t-35 13.5q-25 0 -44.5 -16.5t-19.5 -43.5q0 -20 12 -34t35 -14q25 0 44.5 17t19.5 45zM341 -292h-10l-94 68q-16 11 -29 27t-13 30h-3l-5 -25q-8 -41 -38.5 -67.5t-78.5 -26.5q-18 0 -35 6t-29.5 17.5t-20 27t-7.5 34.5q0 24 9.5 44.5t25.5 35.5 t37 23t45 8q17 0 30 -4t21 -9q10 -5 17 -12l4 3q-9 9 -9 26q0 8 3 19l2 9h54l-15 -75l132 -100l102 94l114 528q2 12 3.5 23t1.5 22q0 51 -33.5 80.5t-106.5 29.5q-61 0 -108 -20t-77 -45v-3q35 -3 73.5 -17t60.5 -31l-6 -22q-49 -5 -78 -36.5t-40 -83.5l-43 -199 q-10 -44 -40.5 -67.5t-71.5 -23.5q-37 0 -60.5 22t-23.5 57q0 48 32 75.5t75 27.5q23 0 35.5 -8.5t19.5 -17.5l4 1q-1 5 -1 10.5v10.5q0 19 4 39l16 73q11 48 35 82.5t61 48.5l1 4q-11 6 -26 10t-32 6.5t-34.5 3.5t-32.5 1l7 32q38 51 103 85t153 34q94 0 141.5 -40 t47.5 -111q0 -25 -6 -53l-118 -551zM148 94q0 17 -10.5 29t-29.5 12q-24 0 -41 -15.5t-17 -38.5q0 -17 12 -29t30 -12q24 0 40 15t16 39z" />
<glyph unicode="&#xe0f;" horiz-adv-x="653" d="M72 -242q26 0 43.5 18t17.5 45q0 19 -10.5 32t-31.5 13q-26 0 -44 -18t-18 -45q0 -19 11.5 -32t31.5 -13zM368 -292h-12l-48 63l-74 -63h-11l-27 36q-10 13 -12.5 27.5t-2.5 28.5v12h-3q-8 -42 -36.5 -70t-75.5 -28q-36 0 -61.5 22.5t-25.5 60.5q0 24 9.5 44.5t25 36 t36 24t42.5 8.5q27 0 43 -10t21 -17l4 3q-8 8 -8 29v8.5t2 9.5l2 9h54l-19 -91l46 -84l73 57h11l47 -57l61 57l121 565q2 12 3.5 23t1.5 22q0 51 -33.5 80.5t-106.5 29.5q-61 0 -108 -20t-77 -45v-3q35 -3 73.5 -17t60.5 -31l-6 -22q-49 -5 -78 -36.5t-40 -83.5l-43 -199 q-10 -44 -40.5 -67.5t-71.5 -23.5q-37 0 -60.5 22t-23.5 57q0 48 32 75.5t75 27.5q23 0 35.5 -8.5t19.5 -17.5l4 1q-1 5 -1 10.5v10.5q0 19 4 39l16 73q11 48 35 82.5t61 48.5l1 4q-11 6 -26 10t-32 6.5t-34.5 3.5t-32.5 1l7 32q38 51 103 85t153 34q94 0 141.5 -40 t47.5 -111q0 -25 -6 -53l-125 -582zM148 94q0 17 -10.5 29t-29.5 12q-24 0 -41 -15.5t-17 -38.5q0 -17 12 -29t30 -12q24 0 40 15t16 39z" />
<glyph unicode="&#xe10;" horiz-adv-x="531" d="M289 0l-18 180q-1 5 -1 11v12q0 10 0.5 19t1.5 18q-8 -17 -26 -32t-50 -15q-39 0 -61.5 23t-22.5 55q0 25 9.5 44t24.5 32.5t34.5 20.5t40.5 7q42 0 64.5 -23.5t25.5 -66.5l11 -135q1 -11 1 -19.5v-17.5q0 -14 -1 -29t-3 -34h5q3 21 10.5 51t14.5 49l60 156q10 26 10 46 q0 37 -35.5 51.5t-104.5 14.5q-51 0 -99 -7.5t-77 -19.5h-13l12 55q6 25 18.5 51.5t36 47.5t58 34.5t83.5 13.5q32 0 57 -5.5t45 -11.5t37 -11.5t32 -5.5q25 0 35 16t17 45l54 -19q-8 -40 -36.5 -65.5t-64.5 -25.5q-27 0 -46 5.5t-38 11.5t-41.5 11.5t-56.5 5.5 q-60 0 -93.5 -26.5t-41.5 -59.5l-2 -9q18 6 49.5 11.5t78.5 5.5q91 0 140 -22.5t49 -76.5q0 -27 -13 -62l-117 -305h-53zM259 291q0 17 -10.5 29t-30.5 12q-23 0 -39.5 -15.5t-16.5 -39.5q0 -17 11 -28.5t28 -11.5q26 0 42 14.5t16 39.5zM27 -284q25 0 40.5 16.5t15.5 42.5 q0 19 -10.5 30.5t-27.5 11.5q-25 0 -41.5 -16.5t-16.5 -42.5q0 -17 11 -29.5t29 -12.5zM301 -333h-14l-41 62l-68 -62h-9l-23 35q-11 16 -13.5 32t-4.5 30v2q-8 -39 -37 -66.5t-72 -27.5q-34 0 -58.5 22t-24.5 58q0 22 8.5 42t23.5 34.5t35.5 23t43.5 8.5q16 0 27 -3.5 t18 -7.5q8 -5 13 -11l4 3q-7 9 -7 22q0 9 3 21l2 9h54l-20 -92l40 -76l67 57h11l40 -57l54 57l2 8q3 12 7 19.5t12 21.5l-4 1q-7 -10 -16.5 -18.5t-30.5 -8.5q-26 0 -47 19.5t-21 50.5q0 39 27.5 63.5t69.5 24.5q32 0 54.5 -20.5t22.5 -50.5q0 -5 -2 -15l-23 -108zM380 -111 q0 14 -8.5 23.5t-24.5 9.5q-19 0 -32 -12t-13 -31q0 -14 9.5 -23.5t23.5 -9.5q19 0 32 11.5t13 31.5z" />
<glyph unicode="&#xe11;" horiz-adv-x="755" d="M565 0l95 443q3 16 3 30q0 29 -15 44.5t-47 15.5h-19l-299 -533h-62l71 333q10 45 25.5 75.5t46.5 50.5l37 24l-29 57l-74 -51h-6q-7 26 -21.5 42.5t-42.5 16.5q-32 0 -57.5 -21.5t-31.5 -46.5h2q11 11 27.5 17.5t35.5 6.5q38 0 58 -21.5t20 -55.5q0 -20 -8 -38.5 t-22 -32.5t-35 -22.5t-46 -8.5q-38 0 -65.5 26t-27.5 71q0 41 15.5 73t39 53.5t51.5 33t53 11.5q31 0 48.5 -14.5t24.5 -31.5l65 44q5 4 12 4q10 0 13 -8l50 -93q2 -6 2 -10q0 -8 -4.5 -16.5t-10.5 -12.5l-45 -29q-20 -14 -29 -34t-17 -59l-26 -121q-6 -29 -15 -62t-21 -71 h5q14 38 29.5 73t32.5 65l205 369h41q60 0 91 -26t31 -76q0 -10 -1.5 -20t-3.5 -21l-95 -443h-54zM233 423q0 17 -12 28.5t-29 11.5q-25 0 -41.5 -14.5t-16.5 -38.5q0 -16 12 -28t30 -12q25 0 41 15t16 38z" />
<glyph unicode="&#xe12;" horiz-adv-x="955" d="M408 352q0 19 -10.5 30t-30.5 11q-23 0 -39.5 -15t-16.5 -40q0 -17 11 -28.5t31 -11.5q22 0 38.5 14.5t16.5 39.5zM754 0q-14 76 -66 122.5t-126 47.5l-19 -86q-11 -49 -34 -70.5t-61 -21.5q-35 0 -55.5 21.5t-20.5 56.5q0 32 11.5 57.5t31.5 44.5t46.5 30.5t55.5 15.5 l46 211q3 13 4 24t1 20q0 62 -55 62q-33 0 -73 -28l-44 -31h-12l-31 31q-28 28 -62 28q-36 0 -58.5 -27t-33.5 -79l-62 -287q-6 -27 -13.5 -51.5t-12.5 -35.5l2 -2q10 14 25.5 33t31.5 33l115 98q12 10 29 19.5t30 15.5v2q-15 0 -30 5t-27 15t-19 24.5t-7 33.5q0 21 8.5 40 t23.5 33.5t36 23t45 8.5q38 0 60.5 -23.5t22.5 -57.5q0 -32 -19.5 -56.5t-48.5 -49.5l-286 -250h-50l93 434q6 27 17 53.5t28.5 48.5t42.5 35.5t59 13.5q32 0 51.5 -10.5t30.5 -22.5l21 -22l32 22q17 12 39.5 22.5t55.5 10.5q51 0 75.5 -32.5t24.5 -77.5q0 -19 -5 -42 l-47 -215q34 -2 66 -11.5t59.5 -26.5t49 -41t33.5 -55h5l107 501h54l-125 -585h-66zM510 172q-37 -8 -61 -33.5t-24 -63.5q0 -36 28 -36q17 0 25 12.5t13 33.5z" />
<glyph unicode="&#xe13;" horiz-adv-x="912" d="M220 94q0 18 -10.5 29.5t-29.5 11.5q-24 0 -41 -15t-17 -39q0 -17 11.5 -29t29.5 -12q24 0 40.5 15.5t16.5 38.5zM826 585h54l-82 -380q23 -11 36.5 -32t13.5 -50q0 -32 -11 -56.5t-29 -41t-41.5 -25t-48.5 -8.5q-43 0 -70 24t-27 69q0 35 19.5 59t44.5 37v3 q-26 0 -58.5 -15.5t-64.5 -41t-60.5 -58.5t-45.5 -69h-57l83 389q2 12 3.5 23.5t1.5 22.5q0 51 -32 80t-102 29q-58 0 -102.5 -20t-74.5 -45v-3q35 -3 71 -17t58 -31l-6 -22q-49 -5 -83.5 -36.5t-45.5 -83.5l-16 -73q-5 -19 -9.5 -32.5t-12.5 -27.5l4 -1q7 10 22.5 17.5 t35.5 7.5q30 0 53 -20t23 -58q0 -23 -9 -42t-24 -32.5t-35.5 -21t-43.5 -7.5q-38 0 -62.5 20.5t-24.5 52.5q0 5 0.5 9t1.5 9l43 199q11 48 40.5 82.5t66.5 48.5l1 4q-21 11 -55.5 16t-64.5 5l7 32q38 51 102.5 85t149.5 34q90 0 134.5 -39.5t44.5 -108.5q0 -26 -6 -56 l-63 -294h4q22 32 50.5 56.5t58.5 41t61 25t60 8.5q10 0 21.5 -1.5t19.5 -3.5zM722 36q32 0 54 21t22 56q0 23 -14 38.5t-40 15.5q-29 0 -51.5 -21t-22.5 -56q0 -23 14.5 -38.5t37.5 -15.5z" />
<glyph unicode="&#xe14;" horiz-adv-x="650" d="M408 352q0 19 -10.5 30t-30.5 11q-23 0 -39.5 -15t-16.5 -40q0 -17 11 -28.5t31 -11.5q22 0 38.5 14.5t16.5 39.5zM463 0l77 363q3 13 4 25.5t1 23.5q0 60 -36 96t-107 36q-44 0 -80.5 -15t-65 -41t-47.5 -61.5t-28 -76.5l-44 -208q-6 -27 -13.5 -51.5t-12.5 -35.5l2 -2 q10 14 25.5 33t31.5 33l115 98q12 10 29 19.5t30 15.5v2q-15 0 -30 5t-27 15t-19 24.5t-7 33.5q0 21 8.5 40t23.5 33.5t36 23t45 8.5q38 0 60.5 -23.5t22.5 -57.5q0 -32 -19.5 -56.5t-48.5 -49.5l-286 -250h-50l75 350q10 49 33 93t58 77.5t82 53t105 19.5q46 0 82.5 -14 t61 -38.5t37.5 -57.5t13 -71q0 -27 -5 -49l-78 -363h-54z" />
<glyph unicode="&#xe15;" horiz-adv-x="659" d="M408 352q0 19 -10.5 30t-30.5 11q-23 0 -39.5 -15t-16.5 -40q0 -17 11 -28.5t31 -11.5q22 0 38.5 14.5t16.5 39.5zM471 0l92 429q3 13 4 24t1 20q0 62 -55 62q-33 0 -73 -28l-44 -31h-12l-31 31q-28 28 -62 28q-36 0 -58.5 -27t-33.5 -79l-62 -287q-6 -27 -13.5 -51.5 t-12.5 -35.5l2 -2q10 14 25.5 33t31.5 33l115 98q12 10 29 19.5t30 15.5v2q-15 0 -30 5t-27 15t-19 24.5t-7 33.5q0 21 8.5 40t23.5 33.5t36 23t45 8.5q38 0 60.5 -23.5t22.5 -57.5q0 -32 -19.5 -56.5t-48.5 -49.5l-286 -250h-50l93 434q6 27 17 53.5t28.5 48.5t42.5 35.5 t59 13.5q32 0 51.5 -10.5t30.5 -22.5l21 -22l32 22q17 12 39.5 22.5t55.5 10.5q52 0 75.5 -33t23.5 -78q0 -22 -4 -41l-93 -433h-54z" />
<glyph unicode="&#xe16;" horiz-adv-x="600" d="M220 94q0 18 -10.5 29.5t-29.5 11.5q-24 0 -41 -15t-17 -39q0 -17 11.5 -29t29.5 -12q24 0 40.5 15.5t16.5 38.5zM413 0l83 389q2 12 3.5 23t1.5 22q0 51 -33.5 80.5t-106.5 29.5q-61 0 -108 -20t-77 -45v-3q35 -3 71 -17t58 -31l-6 -22q-49 -5 -83.5 -36.5t-45.5 -83.5 l-16 -73q-5 -19 -9.5 -32.5t-12.5 -27.5l4 -1q7 10 22.5 17.5t35.5 7.5q30 0 53 -20t23 -58q0 -23 -9 -42t-24 -32.5t-35.5 -21t-43.5 -7.5q-38 0 -62.5 20.5t-24.5 52.5q0 5 0.5 9t1.5 9l43 199q11 48 40.5 82.5t66.5 48.5l1 4q-21 11 -55.5 16t-64.5 5l7 32q19 25 45.5 47 t59.5 38t72 25t83 9q93 0 139 -40t46 -109q0 -27 -6 -55l-83 -389h-54z" />
<glyph unicode="&#xe17;" horiz-adv-x="653" d="M464 0l95 443q3 16 3 29q0 61 -62 61h-19l-297 -533h-62l81 376q4 19 10 32.5t13 27.5l-4 1q-8 -10 -21 -18.5t-37 -8.5q-15 0 -28.5 6t-24 16t-17 24t-6.5 31q0 46 31.5 76t82.5 30q35 0 59.5 -20.5t24.5 -55.5q0 -5 -0.5 -9.5t-1.5 -9.5l-59 -272q-8 -35 -18 -72.5 t-21 -68.5h5q9 25 16 43.5t14 34t15 31t19 35.5l199 357h42q60 0 91 -26t31 -76q0 -10 -1.5 -20t-3.5 -21l-95 -443h-54zM236 510q0 17 -10.5 28t-28.5 11q-26 0 -42.5 -16.5t-16.5 -39.5q0 -17 10.5 -28t28.5 -11q23 0 41 16t18 40z" />
<glyph unicode="&#xe18;" horiz-adv-x="549" d="M417 270q3 15 3 28q0 31 -19 49.5t-61 18.5h-121l-67 -314h219zM26 0l11 54h63l67 310h-84l12 58q6 32 25 62.5t50.5 54.5t76.5 39t104 15q45 0 81.5 -10.5t62 -27.5t39.5 -40.5t14 -48.5q0 -5 -0.5 -10.5t-1.5 -10.5l-3 -14h-59l3 12q2 10 2 15q0 32 -34.5 58t-106.5 26 q-47 0 -81.5 -10t-58.5 -26.5t-37 -36.5t-17 -41l-3 -16h194q61 0 94.5 -30t33.5 -79q0 -19 -4 -35l-58 -268h-385z" />
<glyph unicode="&#xe19;" horiz-adv-x="641" d="M472 36q31 0 52 22t21 55q0 23 -13 38.5t-38 15.5q-32 0 -54.5 -21t-22.5 -56q0 -23 14.5 -38.5t40.5 -15.5zM573 585h54l-82 -379q23 -11 36.5 -34t13.5 -54q0 -30 -10 -53t-27.5 -39.5t-40.5 -25t-50 -8.5q-45 0 -72 24.5t-27 66.5q0 35 18 59.5t44 37.5v3 q-34 0 -70.5 -15t-70.5 -40.5t-62 -58.5t-45 -69h-60l81 376q4 19 10 32.5t13 27.5l-4 1q-8 -10 -21 -18.5t-37 -8.5q-15 0 -28.5 6t-24 16t-17 24t-6.5 31q0 46 31.5 76t82.5 30q35 0 59 -20.5t24 -54.5q0 -5 -0.5 -10t-1.5 -10l-86 -403h4q45 63 112.5 99t141.5 36 q10 0 21 -1t20 -3zM236 510q0 17 -10.5 28t-28.5 11q-26 0 -42.5 -16.5t-16.5 -39.5q0 -17 10.5 -28t28.5 -11q23 0 41 16t18 40z" />
<glyph unicode="&#xe1a;" horiz-adv-x="640" d="M54 0l11 54h68l69 322q4 19 10.5 32.5t13.5 27.5l-4 1q-8 -10 -21 -18.5t-37 -8.5q-15 0 -28.5 6t-24 16t-17 24t-6.5 31q0 46 31.5 76t82.5 30q35 0 58.5 -20.5t23.5 -54.5q0 -5 -0.5 -10t-1.5 -10l-95 -444h274l114 531h54l-125 -585h-450zM236 510q0 17 -10.5 28 t-28.5 11q-26 0 -42.5 -16.5t-16.5 -39.5q0 -17 10.5 -28t28.5 -11q23 0 41 16t18 40z" />
<glyph unicode="&#xe1b;" horiz-adv-x="640" d="M54 0l11 54h68l69 322q4 19 10.5 32.5t13.5 27.5l-4 1q-8 -10 -21 -18.5t-37 -8.5q-15 0 -28.5 6t-24 16t-17 24t-6.5 31q0 46 31.5 76t82.5 30q35 0 58.5 -20.5t23.5 -54.5q0 -5 -0.5 -10t-1.5 -10l-95 -444h274l181 844h54l-192 -898h-450zM236 510q0 17 -10.5 28 t-28.5 11q-26 0 -42.5 -16.5t-16.5 -39.5q0 -17 10.5 -28t28.5 -11q23 0 41 16t18 40z" />
<glyph unicode="&#xe1c;" horiz-adv-x="648" d="M468 0l-126 244l-232 -244h-55l106 496q10 46 41 71.5t72 25.5q37 0 61 -21t24 -56q0 -48 -30.5 -77t-74.5 -29q-23 0 -37.5 8t-19.5 19l-4 -1q1 -5 1 -8.5v-8.5q0 -10 -1.5 -20t-3.5 -23l-62 -290l198 211h47l105 -207l107 495h54l-126 -585h-44zM309 508q0 18 -11 29.5 t-30 11.5q-24 0 -40 -15.5t-16 -38.5q0 -17 11 -29t29 -12q26 0 41.5 15.5t15.5 38.5z" />
<glyph unicode="&#xe1d;" horiz-adv-x="648" d="M468 0l-126 244l-232 -244h-55l106 496q10 46 41 71.5t72 25.5q37 0 61 -21t24 -56q0 -48 -30.5 -77t-74.5 -29q-23 0 -37.5 8t-19.5 19l-4 -1q1 -5 1 -8.5v-8.5q0 -10 -1.5 -20t-3.5 -23l-62 -290l198 211h47l105 -207l174 808h54l-193 -898h-44zM309 508q0 18 -11 29.5 t-30 11.5q-24 0 -40 -15.5t-16 -38.5q0 -17 11 -29t29 -12q26 0 41.5 15.5t15.5 38.5z" />
<glyph unicode="&#xe1e;" horiz-adv-x="707" d="M523 0l-73 494l-268 -494h-60l81 376q4 19 10 32.5t13 27.5l-4 1q-8 -10 -21 -18.5t-37 -8.5q-15 0 -28.5 6t-24 16t-17 24t-6.5 31q0 46 31.5 76t82.5 30q35 0 59 -20.5t24 -54.5q0 -5 -0.5 -10t-1.5 -10l-54 -253q-3 -15 -8 -33.5t-10.5 -36.5t-10.5 -34.5t-9 -28.5 l6 -1q4 13 12 32t17 39t18 38t14 27l178 323h49l53 -323q1 -8 2.5 -21.5t3 -30t2.5 -33.5t1 -31q0 -5 -0.5 -10t-0.5 -10l6 1q1 12 3 28.5t4 34.5t5 36.5t6 33.5l73 340h54l-125 -585h-49zM236 510q0 17 -10.5 28t-28.5 11q-26 0 -42.5 -16.5t-16.5 -39.5q0 -17 10.5 -28 t28.5 -11q23 0 41 16t18 40z" />
<glyph unicode="&#xe1f;" horiz-adv-x="707" d="M523 0l-73 494l-268 -494h-60l81 376q4 19 10 32.5t13 27.5l-4 1q-8 -10 -21 -18.5t-37 -8.5q-15 0 -28.5 6t-24 16t-17 24t-6.5 31q0 46 31.5 76t82.5 30q35 0 59 -20.5t24 -54.5q0 -5 -0.5 -10t-1.5 -10l-54 -253q-3 -15 -8 -33.5t-10.5 -36.5t-10.5 -34.5t-9 -28.5 l6 -1q4 13 12 32t17 39t18 38t14 27l178 323h49l53 -323q1 -8 2.5 -21.5t3 -30t2.5 -33.5t1 -31q0 -5 -0.5 -10t-0.5 -10l6 1q1 12 3 28.5t4 34.5t5 36.5t6 33.5l140 653h54l-192 -898h-49zM236 510q0 17 -10.5 28t-28.5 11q-26 0 -42.5 -16.5t-16.5 -39.5q0 -17 10.5 -28 t28.5 -11q23 0 41 16t18 40z" />
<glyph unicode="&#xe20;" horiz-adv-x="653" d="M467 0l83 389q2 12 3.5 23t1.5 22q0 51 -33.5 80.5t-106.5 29.5q-61 0 -108 -20t-77 -45v-3q35 -3 73.5 -17t60.5 -31l-6 -22q-49 -5 -78 -36.5t-40 -83.5l-43 -199q-10 -44 -40.5 -67.5t-71.5 -23.5q-37 0 -60.5 22t-23.5 57q0 48 32 75.5t75 27.5q23 0 35.5 -8.5 t19.5 -17.5l4 1q-1 5 -1 10.5v10.5q0 19 4 39l16 73q11 48 35 82.5t61 48.5l1 4q-11 6 -26 10t-32 6.5t-34.5 3.5t-32.5 1l7 32q38 51 103 85t153 34q94 0 141.5 -40t47.5 -111q0 -25 -6 -53l-83 -389h-54zM148 94q0 17 -10.5 29t-29.5 12q-24 0 -41 -15.5t-17 -38.5 q0 -17 12 -29t30 -12q24 0 40 15t16 39z" />
<glyph unicode="&#xe21;" horiz-adv-x="644" d="M200 199q-22 -4 -42.5 -13.5t-36 -24t-24.5 -34t-9 -42.5q0 -24 11 -35t28 -11q38 0 49 49zM443 0q-5 37 -21 71.5t-41 61.5t-57.5 44.5t-71.5 19.5l-24 -110q-11 -51 -37 -73t-69 -22q-36 0 -62 25t-26 63q0 37 14.5 66t39 49.5t55.5 33t64 16.5l28 131q4 19 10 32.5 t13 27.5l-4 1q-8 -10 -21 -18.5t-37 -8.5q-15 0 -28.5 6t-24 16t-17 24t-6.5 31q0 46 31.5 76t82.5 30q35 0 59.5 -20.5t24.5 -55.5q0 -5 -0.5 -9.5t-1.5 -9.5l-54 -253q36 -3 68.5 -16.5t59 -34.5t46.5 -49t32 -61h5l107 501h54l-125 -585h-66zM268 510q0 17 -10.5 28 t-28.5 11q-26 0 -42.5 -16.5t-16.5 -39.5q0 -17 10.5 -28t28.5 -11q23 0 41 16t18 40z" />
<glyph unicode="&#xe22;" horiz-adv-x="589" d="M53 0l40 190q8 35 30 63t57 39v4q-38 13 -61.5 40t-23.5 80q0 37 13 69.5t37 56.5t57 37.5t72 13.5q47 0 70.5 -23.5t23.5 -57.5q0 -47 -31.5 -75.5t-80.5 -28.5q-41 0 -61 23.5t-20 50.5q0 17 7 31l-3 2q-16 -17 -24.5 -45.5t-8.5 -52.5q0 -43 28.5 -69t78.5 -26h64 l-10 -51h-64q-40 0 -64 -23.5t-32 -58.5l-28 -135h292l114 531h54l-125 -585h-401zM317 504q0 18 -11 30.5t-31 12.5q-26 0 -40.5 -14.5t-14.5 -37.5q0 -17 12 -29.5t31 -12.5q24 0 39 14t15 37z" />
<glyph unicode="&#xe23;" horiz-adv-x="481" d="M279 153q-1 5 -1 10v10q0 17 4 37l24 119q1 4 1 11q0 24 -27 24h-201l12 58q7 34 25 65t47 54.5t68.5 37.5t90.5 14q45 0 79 -10.5t57 -28t35 -40t12 -47.5q0 -5 -0.5 -11t-1.5 -11l-3 -14h-58l3 12q1 5 1.5 9t0.5 9q0 34 -32.5 57.5t-95.5 23.5q-36 0 -65 -9t-50.5 -25 t-35.5 -36.5t-18 -43.5l-3 -16h139q37 0 56.5 -16.5t19.5 -45.5q0 -5 -0.5 -10.5t-1.5 -10.5l-51 -242q-9 -44 -39 -67.5t-71 -23.5q-37 0 -61.5 22t-24.5 57q0 48 32 75.5t75 27.5q23 0 35.5 -8.5t19.5 -17.5zM260 94q0 17 -10.5 29t-29.5 12q-24 0 -41 -15.5t-17 -38.5 q0 -17 12 -29t30 -12q24 0 40 15t16 39z" />
<glyph unicode="&#xe24;" horiz-adv-x="600" d="M220 94q0 18 -10.5 29.5t-29.5 11.5q-24 0 -41 -15t-17 -39q0 -17 11.5 -29t29.5 -12q24 0 40.5 15.5t16.5 38.5zM354 -281l142 670q2 12 3.5 23t1.5 22q0 51 -33.5 80.5t-106.5 29.5q-61 0 -108 -20t-77 -45v-3q35 -3 71 -17t58 -31l-6 -22q-49 -5 -83.5 -36.5 t-45.5 -83.5l-16 -73q-5 -19 -9.5 -32.5t-12.5 -27.5l4 -1q7 10 22.5 17.5t35.5 7.5q30 0 53 -20t23 -58q0 -23 -9 -42t-24 -32.5t-35.5 -21t-43.5 -7.5q-38 0 -62.5 20.5t-24.5 52.5q0 5 0.5 9t1.5 9l43 199q11 48 40.5 82.5t66.5 48.5l1 4q-21 11 -55.5 16t-64.5 5l7 32 q19 25 45.5 47t59.5 38t72 25t83 9q93 0 139 -40t46 -109q0 -27 -6 -55l-142 -670h-54z" />
<glyph unicode="&#xe25;" horiz-adv-x="607" d="M413 0q1 9 1 18v19q0 47 -7.5 100t-19.5 101.5t-28 87.5t-33 59q-33 -24 -63.5 -52t-56 -58t-45 -61t-31.5 -61l1 -2q8 7 18 13q8 5 19.5 9t25.5 4q35 0 53.5 -21.5t18.5 -52.5q0 -24 -9.5 -44.5t-26 -35t-38 -23t-44.5 -8.5q-37 0 -59.5 22.5t-22.5 64.5q0 39 14.5 82 t45.5 89t80 94.5t119 99.5h16q26 -27 46 -65.5t33.5 -82.5t21.5 -90.5t11 -89.5l4 2q0 32 4 61.5t10 58.5l31 142q4 19 4 39q0 55 -37 88.5t-110 33.5q-35 0 -68.5 -8.5t-61.5 -27.5t-49 -48t-31 -71l-8 -34h-53l7 34q20 96 89.5 151.5t179.5 55.5q95 0 146 -45t51 -117 q0 -11 -1.5 -22.5t-3.5 -23.5l-83 -385h-60zM217 92q0 17 -10.5 28t-29.5 11q-23 0 -40.5 -16t-17.5 -40q0 -17 10.5 -28t28.5 -11q24 0 41.5 16.5t17.5 39.5z" />
<glyph unicode="&#xe26;" horiz-adv-x="653" d="M407 -281l143 670q2 12 3.5 23t1.5 22q0 51 -33.5 80.5t-106.5 29.5q-61 0 -108 -20t-77 -45v-3q35 -3 73.5 -17t60.5 -31l-6 -22q-49 -5 -78 -36.5t-40 -83.5l-43 -199q-10 -44 -40.5 -67.5t-71.5 -23.5q-37 0 -60.5 22t-23.5 57q0 48 32 75.5t75 27.5q23 0 35.5 -8.5 t19.5 -17.5l4 1q-1 5 -1 10.5v10.5q0 19 4 39l16 73q11 48 35 82.5t61 48.5l1 4q-11 6 -26 10t-32 6.5t-34.5 3.5t-32.5 1l7 32q38 51 103 85t153 34q94 0 141.5 -40t47.5 -111q0 -25 -6 -53l-143 -670h-54zM148 94q0 17 -10.5 29t-29.5 12q-24 0 -41 -15.5t-17 -38.5 q0 -17 12 -29t30 -12q24 0 40 15t16 39z" />
<glyph unicode="&#xe27;" horiz-adv-x="528" d="M384 153q-1 5 -1 10v10q0 17 4 37l42 202q3 15 3 30q0 46 -30.5 73t-87.5 27q-33 0 -61.5 -10.5t-51.5 -29.5t-39 -45.5t-23 -58.5l-8 -35h-54l9 40q9 40 29.5 75t50.5 60.5t69 40t84 14.5q78 0 123 -39.5t45 -103.5q0 -21 -4 -40l-69 -323q-9 -44 -39 -67.5t-71 -23.5 q-37 0 -61.5 22t-24.5 57q0 48 32 75.5t75 27.5q23 0 35.5 -8.5t19.5 -17.5zM365 94q0 17 -10.5 29t-29.5 12q-24 0 -41 -15.5t-17 -38.5q0 -17 12 -29t30 -12q24 0 40 15t16 39z" />
<glyph unicode="&#xe28;" horiz-adv-x="654" d="M467 0l77 363q5 28 5 48q0 62 -37 96q-23 -22 -46.5 -42t-47.5 -39q16 -9 26 -25.5t10 -39.5q0 -47 -31 -77t-82 -30q-31 0 -50 16t-20 34h-2q-3 -14 -8.5 -30t-13.5 -30l-137 -244h-57l75 350q10 49 33 93t58 77.5t82 53t105 19.5q32 0 58.5 -6.5t48.5 -17.5 q20 21 38 44t35 48l39 -19q-33 -51 -77 -98q28 -25 42 -59t14 -74q0 -11 -1.5 -23.5t-3.5 -24.5l-78 -363h-54zM113 67q15 36 33 77t34 70l79 141q19 34 45 56.5t64 24.5q28 22 55 45.5t53 49.5q-15 6 -33.5 9.5t-40.5 3.5q-44 0 -80.5 -15t-65 -41t-47.5 -61.5t-28 -76.5 l-32 -149q-8 -35 -17.5 -68t-23.5 -64zM406 354q0 17 -10.5 28t-28.5 11q-23 0 -40.5 -16t-17.5 -41q0 -17 10.5 -27.5t27.5 -10.5q26 0 42.5 16t16.5 40z" />
<glyph unicode="&#xe29;" horiz-adv-x="686" d="M456 377q0 15 -10.5 27t-27.5 12q-20 0 -36.5 -14.5t-16.5 -36.5q0 -16 11 -27t27 -11q23 0 38 14.5t15 35.5zM54 0l11 54h68l69 322q4 19 10.5 32.5t13.5 27.5l-4 1q-8 -10 -21 -18.5t-37 -8.5q-15 0 -28.5 6t-24 16t-17 24t-6.5 31q0 46 31.5 76t82.5 30 q35 0 58.5 -20.5t23.5 -54.5q0 -5 -0.5 -10t-1.5 -10l-95 -444h284l42 194q-10 -2 -20 -2h-19q-39 0 -69 8.5t-49.5 23.5t-29.5 35t-10 42q0 20 7.5 39t21.5 33.5t34 23.5t45 9q35 0 56.5 -22t21.5 -52q0 -31 -22 -54.5t-51 -32.5l-1 -3q10 -3 24.5 -5t27.5 -2q21 0 42 3 l63 293h54l-59 -275q37 17 60 49t34 77l3 13h51l-4 -22q-11 -63 -54 -105.5t-101 -59.5l-55 -262h-460zM236 510q0 17 -10.5 28t-28.5 11q-26 0 -42.5 -16.5t-16.5 -39.5q0 -17 10.5 -28t28.5 -11q23 0 41 16t18 40z" />
<glyph unicode="&#xe2a;" horiz-adv-x="611" d="M416 0q1 8 1 17v18q0 48 -8 101t-20.5 102t-29 88t-33.5 59q-33 -24 -63.5 -52t-56 -58t-45 -61t-31.5 -61l1 -2q8 7 18 13q8 5 19.5 9t25.5 4q35 0 53.5 -21.5t18.5 -52.5q0 -24 -9.5 -44.5t-26 -35t-38 -23t-44.5 -8.5q-37 0 -59.5 22.5t-22.5 64.5q0 39 14.5 82 t45.5 89t80 94.5t119 99.5q26 20 52 41.5t50 45.5q-14 5 -30.5 7.5t-35.5 2.5q-35 0 -69 -8.5t-62.5 -27.5t-49.5 -48t-31 -71l-8 -34h-53l7 34q20 96 90.5 151.5t180.5 55.5q30 0 55.5 -5t47.5 -14q18 20 35 42t32 45l41 -19q-14 -24 -31.5 -46.5t-37.5 -44.5 q56 -45 56 -121q0 -20 -5 -45l-83 -385h-60zM460 118q0 32 4 61.5t10 58.5l31 142q2 10 3 19.5t1 18.5q0 60 -41 92q-26 -24 -52.5 -47t-54.5 -44q21 -29 37.5 -65t28.5 -76t19 -81.5t10 -80.5zM217 92q0 17 -10.5 28t-29.5 11q-23 0 -40.5 -16t-17.5 -40q0 -17 10.5 -28 t28.5 -11q24 0 41.5 16.5t17.5 39.5z" />
<glyph unicode="&#xe2b;" horiz-adv-x="648" d="M513 422q30 24 46 41.5t16 42.5q0 16 -11.5 28t-31.5 12q-31 0 -46 -17t-15 -40q0 -21 12.5 -37t29.5 -30zM457 0l63 294q2 6 2 12v11q0 12 -3.5 22t-12.5 18l-328 -357h-57l81 376q4 19 10.5 32.5t13.5 27.5l-4 1q-8 -10 -21 -18.5t-37 -8.5q-15 0 -28.5 6t-24 16 t-17 24t-6.5 31q0 46 31.5 76t82.5 30q35 0 59 -20.5t24 -54.5q0 -5 -0.5 -10t-1.5 -10l-69 -327q-7 -31 -16 -61.5t-15 -44.5h4q4 7 11.5 17.5t16.5 22.5t18.5 24t18.5 21l221 238q-20 18 -36.5 40.5t-16.5 54.5q0 47 32.5 78t81.5 31q25 0 42 -7t28 -18.5t16 -27t5 -32.5 q0 -30 -22.5 -57.5t-55.5 -56.5q14 -14 23.5 -29t9.5 -36q0 -5 -0.5 -9.5t-1.5 -9.5l-66 -309h-55zM236 510q0 17 -10.5 28t-28.5 11q-26 0 -42.5 -16.5t-16.5 -39.5q0 -17 10.5 -28t28.5 -11q23 0 41 16t18 40z" />
<glyph unicode="&#xe2c;" horiz-adv-x="708" d="M667 696q3 12 3 21q0 27 -22 40.5t-54 13.5q-44 0 -69.5 -15t-25.5 -31q0 -17 25.5 -28.5t72.5 -11.5q18 0 35 3t35 8zM523 0l-73 494l-268 -494h-60l81 376q4 19 10 32.5t13 27.5l-4 1q-8 -10 -21 -18.5t-37 -8.5q-15 0 -28.5 6t-24 16t-17 24t-6.5 31q0 46 31.5 76 t82.5 30q35 0 59 -20.5t24 -54.5q0 -5 -0.5 -10t-1.5 -10l-54 -253q-3 -15 -8 -33.5t-10.5 -36.5t-10.5 -34.5t-9 -28.5l6 -1q4 13 12 32t17 39t18 38t14 27l178 323h49l53 -323q1 -8 2.5 -21.5t3 -30t2.5 -33.5t1 -31q0 -5 -0.5 -10t-0.5 -10l6 1q1 12 3 28.5t4 34.5 t5 36.5t6 33.5l87 402q-21 -5 -39 -7.5t-39 -2.5q-29 0 -54 7t-43.5 18t-29 26t-10.5 32q0 18 10 35.5t29.5 31t48 22t66.5 8.5q28 0 51.5 -7t41 -19t27.5 -28.5t10 -36.5q26 16 45 32.5t31.5 30t18.5 22t6 9.5q2 -2 6 -4q3 -2 6.5 -4.5t8.5 -4.5l21 -14q-73 -89 -155 -126 l-142 -667h-49zM236 510q0 17 -10.5 28t-28.5 11q-26 0 -42.5 -16.5t-16.5 -39.5q0 -17 10.5 -28t28.5 -11q23 0 41 16t18 40z" />
<glyph unicode="&#xe2d;" horiz-adv-x="600" d="M88 0l69 325q10 46 42 71.5t73 25.5q37 0 61 -21t24 -56q0 -48 -30.5 -77t-74.5 -29q-23 0 -37.5 8t-19.5 19l-4 -1q1 -5 1 -8.5v-8.5q0 -10 -1 -20t-4 -23l-33 -151h270l70 326q5 23 5 40q0 54 -37 87.5t-115 33.5q-42 0 -78.5 -11t-65 -30.5t-47.5 -47t-26 -60.5 l-6 -29h-55l6 29q9 42 32 78.5t58.5 63.5t83 43t104.5 16q51 0 88.5 -13t62 -35.5t37 -53t12.5 -65.5q0 -11 -1.5 -23t-3.5 -24l-81 -379h-379zM307 337q0 18 -11 29.5t-30 11.5q-24 0 -40 -15.5t-16 -38.5q0 -17 11 -29t29 -12q26 0 41.5 15.5t15.5 38.5z" />
<glyph unicode="&#xe2e;" horiz-adv-x="577" d="M54 0l57 264q10 46 41 71.5t72 25.5q37 0 61 -21t24 -56q0 -48 -30.5 -77t-74.5 -29q-23 0 -37.5 8t-19.5 19l-4 -1q1 -5 1 -8.5v-8.5q0 -10 -1.5 -20t-3.5 -23l-19 -90h279l70 327q4 17 4 37q0 17 -3 32q-35 -23 -76.5 -36t-87.5 -13q-84 0 -129.5 24.5t-45.5 59.5 q0 21 12.5 40.5t37 34.5t61.5 24t85 9q58 0 104.5 -15.5t70.5 -45.5q21 20 37 38.5t24 32.5l46 -26q-21 -27 -42.5 -49t-44.5 -41q7 -21 7 -51q0 -25 -6 -55l-82 -381h-387zM453 496q-18 23 -50 35t-80 12q-23 0 -45.5 -4.5t-40.5 -12t-29 -18t-11 -21.5q0 -16 26.5 -25 t86.5 -9q37 0 75.5 10.5t67.5 32.5zM259 276q0 18 -11 29.5t-30 11.5q-24 0 -40 -15.5t-16 -38.5q0 -17 11 -29t29 -12q26 0 41.5 15.5t15.5 38.5z" />
<glyph unicode="&#xe2f;" horiz-adv-x="537" d="M351 0l85 396q3 14 9.5 34t14.5 38q9 21 19 43l-5 2q-16 -32 -39.5 -61t-53.5 -51t-66 -34.5t-77 -12.5q-31 0 -56 10.5t-42 28t-26.5 40t-9.5 45.5q0 51 32 83t82 32q33 0 57 -21t24 -56q0 -24 -9 -42.5t-24 -31t-33 -18.5t-36 -6q-13 0 -23 3l-2 -2q7 -7 24 -13.5 t45 -6.5q37 0 71.5 15.5t65 41.5t55.5 59.5t43 69.5h54l-126 -585h-53zM250 509q0 14 -8 25.5t-27 11.5q-29 0 -43 -17t-14 -34q0 -15 7.5 -27t26.5 -12q26 0 42 17t16 36z" />
<glyph unicode="&#xe30;" horiz-adv-x="509" d="M529 554q-9 -44 -33.5 -77.5t-58 -56.5t-73 -35t-78.5 -12q-42 0 -72.5 9t-50.5 24.5t-30 35.5t-10 42q0 40 27 69.5t73 29.5q38 0 60.5 -21.5t22.5 -50.5q0 -30 -22 -54.5t-51 -30.5v-2q9 -4 24.5 -5t28.5 -1q78 0 128 36.5t64 99.5l5 23h51zM260 503q0 15 -10.5 27 t-28.5 12q-20 0 -36 -14.5t-16 -36.5q0 -16 11 -27t27 -11q23 0 38 14.5t15 35.5zM453 200q-9 -44 -33.5 -77.5t-58 -56.5t-73 -35t-78.5 -12q-42 0 -72.5 9t-50.5 24.5t-30 35.5t-10 42q0 40 27 69.5t73 29.5q38 0 60.5 -21.5t22.5 -50.5q0 -30 -22 -54.5t-51 -30.5v-2 q9 -4 24.5 -5t28.5 -1q78 0 128 36.5t64 99.5l5 23h51zM184 149q0 15 -10.5 27t-28.5 12q-20 0 -36 -14.5t-16 -36.5q0 -16 11 -27t27 -11q23 0 38 14.5t15 35.5z" />
<glyph unicode="&#xe31;" horiz-adv-x="0" d="M214 865q-10 -45 -37.5 -79.5t-65 -57.5t-82.5 -34.5t-90 -11.5q-91 0 -132.5 30.5t-41.5 73.5q0 41 26 69.5t74 28.5q32 0 53.5 -20t21.5 -49t-19.5 -49t-48.5 -29l-1 -3q9 -3 27.5 -5t41.5 -2q42 0 79.5 9t66.5 27t49 43.5t27 58.5l3 14h52zM-105 808q0 14 -10 25 t-25 11q-20 0 -34.5 -13.5t-14.5 -34.5q0 -15 10 -24.5t25 -9.5q20 0 34.5 13t14.5 33z" />
<glyph unicode="&#xe32;" horiz-adv-x="523" d="M335 0l88 412q2 8 3 16t1 16q0 45 -30.5 70.5t-89.5 25.5q-65 0 -112.5 -38.5t-61.5 -103.5l-8 -35h-55l7 34q18 89 79.5 142.5t154.5 53.5q79 0 125 -38.5t46 -103.5q0 -20 -4 -39l-89 -412h-54z" />
<glyph unicode="&#xe33;" horiz-adv-x="523" d="M112 841q0 -26 -10 -48t-27 -38.5t-40.5 -26t-50.5 -9.5q-23 0 -40.5 8t-29.5 21.5t-18 31t-6 35.5q0 25 10 47.5t27.5 39t41 26t50.5 9.5q21 0 38.5 -8t29.5 -21.5t18.5 -30.5t6.5 -36zM67 837q0 23 -14 40t-40 17q-30 0 -54.5 -21t-24.5 -55q0 -24 16.5 -40t39.5 -16 q15 0 28.5 5t24.5 15t17.5 24t6.5 31zM335 0l88 412q2 8 3 16t1 16q0 45 -30.5 70.5t-89.5 25.5q-65 0 -112.5 -38.5t-61.5 -103.5l-8 -35h-55l7 34q18 89 79.5 142.5t154.5 53.5q79 0 125 -38.5t46 -103.5q0 -20 -4 -39l-89 -412h-54z" />
<glyph unicode="&#xe34;" horiz-adv-x="0" d="M11 678q-42 25 -102.5 43t-145.5 18q-27 0 -55 -1t-54 -3t-48.5 -4.5t-40.5 -5.5h-9q13 38 38 70.5t59.5 56.5t76.5 38t88 14t83.5 -13t63.5 -36t40.5 -56t14.5 -72q0 -12 -1 -24t-4 -25h-4zM-22 740q-4 18 -14.5 39t-30.5 38t-50 28.5t-72 11.5q-36 0 -64.5 -8 t-50.5 -20.5t-38.5 -27t-26.5 -27.5q23 6 61.5 9.5t83.5 3.5q71 0 121.5 -13.5t80.5 -33.5z" />
<glyph unicode="&#xe35;" horiz-adv-x="0" d="M11 678q-42 25 -102 43t-145 18q-27 0 -55 -1t-54 -3t-49 -4.5t-41 -5.5h-9q13 38 38 70.5t59.5 56.5t76.5 38t88 14q48 0 87 -14t65 -40q9 -9 17 -28t11 -34l4 1q-1 5 -1 10v11q0 31 9 79l15 73h51l-61 -284h-4zM-22 740q-4 18 -14.5 39t-30.5 38t-50 28.5t-72 11.5 q-36 0 -64.5 -8t-50.5 -20.5t-38.5 -27t-26.5 -27.5q23 6 61.5 9.5t83.5 3.5q71 0 121.5 -13.5t80.5 -33.5z" />
<glyph unicode="&#xe36;" horiz-adv-x="0" d="M11 678q-42 25 -102 43t-145 18q-27 0 -55 -1t-54 -3t-49 -4.5t-41 -5.5h-9q13 38 38 70.5t59.5 56.5t76 38t87.5 14q21 0 42.5 -3t38.5 -10q14 32 43 53.5t62 21.5q35 0 54 -20.5t19 -51.5q0 -33 -21 -59.5t-52 -39.5q17 -34 17 -74q0 -11 -1.5 -21.5t-3.5 -21.5h-4z M-22 740q-4 18 -14.5 39t-30.5 38t-50 28.5t-72 11.5q-36 0 -64.5 -8t-50.5 -20.5t-38.5 -27t-26.5 -27.5q23 6 61.5 9.5t83.5 3.5q71 0 121.5 -13.5t80.5 -33.5zM-66 876q17 -12 29 -23.5t22 -25.5q22 5 36.5 21t14.5 39q0 18 -11 29t-31 11q-23 0 -39 -15t-21 -36z" />
<glyph unicode="&#xe37;" horiz-adv-x="0" d="M11 678q-42 25 -101.5 43t-144.5 18q-27 0 -55.5 -1t-54.5 -3t-49 -4.5t-41 -5.5h-9q13 38 38 70.5t59.5 56.5t76 38t87.5 14q23 0 45.5 -3t39.5 -9l15 70h50l-20 -92q21 -17 33.5 -35.5t17.5 -46.5l4 1q-1 5 -1 10v11q0 31 9 79l15 73h51l-61 -284h-4zM-22 740 q-4 18 -14.5 39t-30.5 38t-50 28.5t-72 11.5q-36 0 -64.5 -8t-50.5 -20.5t-38.5 -27t-26.5 -27.5q23 6 61.5 9.5t83.5 3.5q71 0 121.5 -13.5t80.5 -33.5z" />
<glyph unicode="&#xe38;" horiz-adv-x="0" d="M-261 -347l14 65q4 18 9 30.5t12 25.5l-4 1q-6 -10 -16.5 -18t-33.5 -8q-28 0 -48.5 19t-20.5 53q0 41 28 67t73 26q32 0 54.5 -20t22.5 -50q0 -5 -2 -15l-38 -176h-50zM-218 -160q0 14 -9 24t-24 10q-22 0 -37 -14.5t-15 -35.5q0 -14 9 -24t25 -10q20 0 35.5 14.5 t15.5 35.5z" />
<glyph unicode="&#xe39;" horiz-adv-x="0" d="M-436 -347l11 45h44l4 20q4 18 9 30.5t12 25.5l-4 1q-6 -10 -16.5 -18t-33.5 -8q-28 0 -48.5 19t-20.5 53q0 41 28 67t73 26q32 0 54.5 -20t22.5 -50q0 -5 -2 -15l-27 -131h79l44 211h51l-55 -256h-225zM-348 -160q0 14 -9 24t-24 10q-22 0 -37 -14.5t-15 -35.5 q0 -14 9 -24t25 -10q20 0 35.5 14.5t15.5 35.5z" />
<glyph unicode="&#xe3a;" horiz-adv-x="0" d="M-124 -146q0 -17 -7.5 -32.5t-20.5 -27t-29 -18.5t-33 -7q-26 0 -42 17t-16 42q0 17 7.5 32.5t20 27.5t28.5 19t33 7q26 0 42.5 -17.5t16.5 -42.5z" />
<glyph unicode="&#xe3f;" horiz-adv-x="528" d="M178 -65l14 65h-166l147 685h166l7 32h47l-7 -32q33 0 61.5 -10t50 -28t33.5 -44t12 -59q0 -36 -12 -66t-33 -54t-50 -40.5t-63 -24.5l-1 -2q52 -10 79 -44t27 -88q0 -39 -14.5 -79t-45 -72.5t-78 -53t-113.5 -20.5l-14 -65h-47zM252 59q85 7 128 45.5t43 116.5 q0 50 -31.5 73t-83.5 28zM262 326q-9 1 -18 1h-18h-67l-59 -270h104zM327 629h-104l-52 -245h104zM321 385q31 3 59 13t49.5 28.5t34 45t12.5 62.5q0 24 -8 41t-22 28t-33 16.5t-40 7.5z" />
<glyph unicode="&#xe40;" horiz-adv-x="314" d="M184 585h54l-80 -372q-4 -19 -9 -32.5t-13 -27.5l4 -1q7 10 22.5 17.5t35.5 7.5q30 0 53 -20t23 -58q0 -23 -9 -42t-24 -32.5t-35.5 -21t-43.5 -7.5q-38 0 -62.5 20.5t-24.5 52.5q0 5 0.5 9t1.5 9zM224 94q0 18 -10.5 29.5t-29.5 11.5q-24 0 -41 -15t-17 -39 q0 -17 11.5 -29t29.5 -12q24 0 40.5 15.5t16.5 38.5z" />
<glyph unicode="&#xe41;" horiz-adv-x="589" d="M184 585h54l-80 -372q-4 -19 -9 -32.5t-13 -27.5l4 -1q7 10 22.5 17.5t35.5 7.5q30 0 53 -20t23 -58q0 -23 -9 -42t-24 -32.5t-35.5 -21t-43.5 -7.5q-38 0 -62.5 20.5t-24.5 52.5q0 5 0.5 9t1.5 9zM224 94q0 18 -10.5 29.5t-29.5 11.5q-24 0 -41 -15t-17 -39 q0 -17 11.5 -29t29.5 -12q24 0 40.5 15.5t16.5 38.5zM460 585h54l-80 -372q-4 -19 -9 -32.5t-13 -27.5l4 -1q7 10 22.5 17.5t35.5 7.5q30 0 53 -20t23 -58q0 -23 -9 -42t-24 -32.5t-35.5 -21t-43.5 -7.5q-38 0 -62.5 20.5t-24.5 52.5q0 5 0.5 9t1.5 9zM500 94 q0 18 -10.5 29.5t-29.5 11.5q-24 0 -41 -15t-17 -39q0 -17 11.5 -29t29.5 -12q24 0 40.5 15.5t16.5 38.5z" />
<glyph unicode="&#xe42;" horiz-adv-x="391" d="M273 662q3 13 3 23q0 16 -8 23.5t-25 15.5l-141 60l4 23q6 34 26.5 64t52 51.5t73 34t88.5 12.5q49 0 86.5 -11t63 -29.5t38.5 -42t13 -47.5q0 -5 -0.5 -9t-1.5 -9l-3 -14h-59l3 12q2 8 2 14q0 16 -9.5 31.5t-28 27.5t-46 19.5t-62.5 7.5q-32 0 -61.5 -8t-52.5 -22 t-39.5 -33.5t-23.5 -41.5l-1 -3l111 -47q26 -11 40.5 -25.5t14.5 -43.5q0 -7 -1 -15.5t-3 -18.5l-96 -448q-4 -19 -9 -32.5t-13 -27.5l4 -1q7 10 22.5 17.5t35.5 7.5q30 0 53 -20t23 -58q0 -23 -9 -42t-24 -32.5t-35.5 -21t-43.5 -7.5q-38 0 -62.5 20.5t-24.5 52.5 q0 5 0.5 9t1.5 9zM296 94q0 18 -10.5 29.5t-29.5 11.5q-24 0 -41 -15t-17 -39q0 -17 11.5 -29t29.5 -12q24 0 40.5 15.5t16.5 38.5z" />
<glyph unicode="&#xe43;" horiz-adv-x="391" d="M273 623q7 33 28.5 62t44 57t40 55t17.5 54q0 29 -25.5 49.5t-67.5 20.5q-27 0 -53.5 -10.5t-40.5 -24.5l-1 -3h9q22 0 37.5 -7.5t25.5 -18.5t14.5 -25.5t4.5 -27.5q0 -24 -9 -43t-23.5 -32t-33.5 -19.5t-38 -6.5q-43 0 -68.5 23t-25.5 66q0 35 16.5 67t44.5 56.5 t65.5 39t78.5 14.5q69 0 106.5 -33.5t37.5 -84.5q0 -31 -17.5 -58.5t-40 -54.5t-43.5 -55.5t-28 -62.5l-88 -407q-5 -19 -10 -32.5t-13 -27.5l4 -1q7 10 22.5 17.5t35.5 7.5q30 0 53 -20t23 -58q0 -23 -9 -42t-24 -32.5t-35.5 -21t-43.5 -7.5q-38 0 -62.5 20.5t-24.5 52.5 q0 5 0.5 9t1.5 9zM257 802q0 17 -11.5 29.5t-31.5 12.5q-24 0 -40.5 -16t-16.5 -40q0 -17 12 -29t30 -12q24 0 41 15.5t17 39.5zM305 94q0 18 -10.5 29.5t-29.5 11.5q-24 0 -41 -15t-17 -39q0 -17 11.5 -29t29.5 -12q24 0 40.5 15.5t16.5 38.5z" />
<glyph unicode="&#xe44;" horiz-adv-x="401" d="M316 779q3 16 8.5 34.5t12 36t13 32t11.5 22.5l-4 2q-17 -26 -34.5 -52t-39.5 -52t-50 -52t-67 -52h-50l25 117q5 20 6.5 36.5t1.5 31.5q0 34 -9.5 57t-25.5 42l41 22q14 -19 26.5 -45t12.5 -71q0 -16 -1.5 -34t-6.5 -39l-13 -60q48 35 91.5 89t81.5 122h65l-162 -753 q-4 -19 -9 -32.5t-13 -27.5l4 -1q7 10 22.5 17.5t35.5 7.5q30 0 53 -20t23 -58q0 -23 -9 -42t-24 -32.5t-35.5 -21t-43.5 -7.5q-38 0 -62.5 20.5t-24.5 52.5q0 5 0.5 9t1.5 9zM315 94q0 18 -10.5 29.5t-29.5 11.5q-24 0 -41 -15t-17 -39q0 -17 11.5 -29t29.5 -12 q24 0 40.5 15.5t16.5 38.5z" />
<glyph unicode="&#xe45;" horiz-adv-x="523" d="M275 -281l148 693q2 8 3 16t1 16q0 45 -30.5 70.5t-89.5 25.5q-65 0 -112.5 -38.5t-61.5 -103.5l-8 -35h-55l7 34q18 89 79.5 142.5t154.5 53.5q79 0 125 -38.5t46 -103.5q0 -20 -4 -39l-149 -693h-54z" />
<glyph unicode="&#xe46;" horiz-adv-x="550" d="M303 -281l174 812h-9q-44 0 -66.5 -20.5t-29.5 -52.5l-3 -14h-55l3 11q3 13 3 25q0 29 -19 47t-53 18q-40 0 -59 -18v-3q44 -1 62 -24t18 -50q0 -48 -30.5 -74.5t-76.5 -26.5q-16 0 -31.5 5t-27.5 15.5t-19 27t-7 39.5q0 33 12.5 61.5t35 50t54 33.5t70.5 12 q48 0 74.5 -17t36.5 -47q17 29 50.5 42.5t70.5 13.5h62l-186 -866h-54zM220 445q0 17 -12 28t-29 11q-24 0 -38.5 -15t-14.5 -39q0 -17 12 -27.5t29 -10.5q24 0 38.5 14.5t14.5 38.5z" />
<glyph unicode="&#xe47;" horiz-adv-x="0" d="M-125 721q-3 4 -6 9q-5 10 -5 24q0 30 20 50.5t54 20.5q29 0 47 -17t18 -41q0 -40 -28 -62.5t-66 -22.5q-45 0 -76.5 18t-42.5 47q-11 -10 -24.5 -28t-21.5 -36h-16q-21 14 -39.5 40t-18.5 62q0 24 7.5 48.5t24.5 45t44.5 33t68.5 12.5h116q33 0 57 14t38 32l29 -35 q-22 -25 -53 -40t-76 -15h-113q-47 0 -70 -26.5t-23 -61.5q0 -13 2.5 -22.5t5.5 -16.5q4 -8 9 -14q9 17 27.5 37t34.5 30h8q0 -14 6 -28.5t15.5 -26.5t22 -20.5t24.5 -11.5v2zM-36 762q0 12 -7.5 20t-20.5 8q-14 0 -25 -10t-11 -24q0 -11 8.5 -19.5t21.5 -8.5q15 0 24.5 8.5 t9.5 25.5z" />
<glyph unicode="&#xe48;" horiz-adv-x="0" d="M36 1029l36 167h50l-36 -167h-50z" />
<glyph unicode="&#xe49;" horiz-adv-x="0" d="M221 1210q-12 -46 -40 -80.5t-64.5 -57t-76.5 -34t-74 -11.5q-26 0 -44 1.5t-38 5.5l4 28q23 7 49 20t44 33l-2 2q-3 -3 -10.5 -4.5t-12.5 -1.5q-22 0 -38 16.5t-16 42.5q0 34 23 53.5t52 19.5q30 0 49 -18t19 -46q0 -22 -8.5 -40.5t-22 -33.5t-30 -25.5t-32.5 -16.5 q35 0 70 10.5t65 29.5t52 46.5t30 60.5l3 12h52zM6 1180q0 10 -7.5 19t-21.5 9q-18 0 -27 -10t-9 -24q0 -10 7 -19t20 -9q20 0 29 10t9 24z" />
<glyph unicode="&#xe4a;" horiz-adv-x="0" d="M-58 1093q0 9 -6 17t-20 8q-17 0 -24.5 -9.5t-7.5 -21.5q0 -9 6.5 -17t19.5 -8q17 0 24.5 9.5t7.5 21.5zM234 1214q-23 -86 -77 -134t-154 -48l7 29q28 11 50.5 34t22.5 61q0 18 -8 28t-22 10q-17 0 -30.5 -10.5t-21.5 -22.5h-26q-3 14 -12 24t-28 10q-18 0 -30.5 -9 t-20 -21t-10.5 -24.5t-3 -19.5l2 -1q7 13 19.5 22.5t33.5 9.5q24 0 40.5 -15.5t16.5 -39.5q0 -34 -20 -51.5t-52 -17.5q-16 0 -30.5 6.5t-25.5 18.5t-17.5 27.5t-6.5 33.5q0 22 6.5 43t20 38t32.5 27.5t45 10.5t39 -13.5t18 -25.5q8 12 27.5 25.5t45.5 13.5q9 0 19.5 -3 t19 -10.5t14.5 -19.5t6 -29q0 -32 -14.5 -58t-36.5 -40q28 7 46.5 21t31 32.5t20.5 41t14 46.5l3 11h49z" />
<glyph unicode="&#xe4b;" horiz-adv-x="0" d="M106 1111l-17 -82h-47l17 82h-79l9 42h79l18 81h47l-18 -81h79l-9 -42h-79z" />
<glyph unicode="&#xe4c;" horiz-adv-x="0" d="M247 1162q-26 -12 -55 -22.5t-59 -18t-59 -12.5t-54 -6v-2q20 -2 36 -18t16 -42q0 -38 -26 -59.5t-61 -21.5q-34 0 -52.5 19.5t-18.5 48.5t18.5 53.5t47.5 38.5q27 13 55.5 20.5t60 14.5t65.5 17t72 29zM-11 994q25 0 34 14t9 30q0 13 -9.5 23.5t-28.5 10.5 q-22 0 -31.5 -14t-9.5 -31q0 -14 9.5 -23.5t26.5 -9.5z" />
<glyph unicode="&#xe4d;" horiz-adv-x="0" d="M112 841q0 -26 -10 -48t-27 -38.5t-40.5 -26t-50.5 -9.5q-23 0 -40.5 8t-29.5 21.5t-18 31t-6 35.5q0 25 10 47.5t27.5 39t41 26t50.5 9.5q21 0 38.5 -8t29.5 -21.5t18.5 -30.5t6.5 -36zM67 837q0 23 -14 40t-40 17q-30 0 -54.5 -21t-24.5 -55q0 -24 16.5 -40t39.5 -16 q15 0 28.5 5t24.5 15t17.5 24t6.5 31z" />
<glyph unicode="&#xe4e;" horiz-adv-x="0" d="M4 695q-12 -8 -25 -13.5t-33 -5.5q-38 0 -55 18t-17 38q0 32 22 55.5t64 33.5q-8 3 -11.5 11t-3.5 18q0 35 31 55t87 20q18 0 37 -3t31 -10l-18 -34q-10 5 -22 7.5t-27 2.5q-31 0 -51 -10.5t-20 -32.5q0 -8 7 -14t24 -6h39l-18 -37h-60q-23 0 -40.5 -12t-17.5 -32 q0 -12 7.5 -19.5t20.5 -7.5q9 0 18 2.5t16 7.5z" />
<glyph unicode="&#xe4f;" horiz-adv-x="479" d="M336 280q0 -19 -8 -35.5t-21.5 -29t-31 -20t-36.5 -7.5q-28 0 -45.5 18.5t-17.5 45.5q0 19 8 35.5t21.5 29.5t31 20.5t35.5 7.5q29 0 46.5 -18.5t17.5 -46.5zM419 293q0 28 -9.5 52.5t-26.5 42.5t-40.5 28t-52.5 10q-38 0 -73.5 -15.5t-62.5 -41.5t-43.5 -60t-16.5 -71 q0 -27 9.5 -51t26 -41.5t40 -27.5t52.5 -10q38 0 73.5 15t63 40.5t44 59t16.5 70.5zM444 298q0 -44 -19.5 -82.5t-51 -67.5t-73 -46t-84.5 -17q-33 0 -59.5 11.5t-46 31.5t-30 47t-10.5 59q0 43 19 82.5t50.5 68.5t72 46.5t83.5 17.5q33 0 60.5 -11.5t47 -32t30.5 -48 t11 -59.5z" />
<glyph unicode="&#xe50;" horiz-adv-x="680" d="M557 281q0 34 -12 62.5t-34 48.5t-52.5 31t-67.5 11q-49 0 -93.5 -18.5t-78 -51.5t-53.5 -77.5t-20 -95.5q0 -35 12 -63t33.5 -47.5t52 -30.5t67.5 -11q48 0 92.5 18.5t78.5 51.5t54.5 77t20.5 95zM610 286q0 -58 -24 -111.5t-65.5 -94.5t-97 -65.5t-118.5 -24.5 q-47 0 -86.5 14.5t-67.5 41t-43.5 62.5t-15.5 79q0 58 24 111.5t65.5 94.5t96.5 65.5t118 24.5q48 0 87 -15t67.5 -41t44 -62t15.5 -79z" />
<glyph unicode="&#xe51;" horiz-adv-x="697" d="M343 -52q48 23 89 52.5t72 67t48.5 84t17.5 103.5q0 81 -47 129.5t-127 48.5q-53 0 -99.5 -20t-81 -54t-54 -79t-19.5 -95q0 -41 11.5 -69t28.5 -45t37.5 -25t38.5 -8q16 0 27.5 1t20.5 5l-1 2q-16 0 -30.5 6.5t-25.5 17.5t-17.5 25.5t-6.5 32.5q0 21 9 40t24.5 33.5 t37 23.5t46.5 9q45 0 69 -25t24 -63q0 -32 -13.5 -59.5t-37 -48t-55 -32.5t-67.5 -12q-30 0 -61 12t-55.5 35.5t-40.5 59.5t-16 84q0 60 23 114t64 95t98.5 65t126.5 24q50 0 91 -16t70 -44.5t45 -69t16 -89.5q0 -70 -22 -125t-58.5 -98.5t-83 -76.5t-94.5 -57zM388 145 q0 17 -12.5 32t-35.5 15q-32 0 -48.5 -20.5t-16.5 -43.5q0 -17 12.5 -32t35.5 -15q32 0 48.5 20.5t16.5 43.5z" />
<glyph unicode="&#xe52;" horiz-adv-x="802" d="M67 0l114 534q4 16 4 35q0 51 -41 69l39 44q28 -15 42 -42t14 -62q0 -22 -4 -41l-105 -488h422q35 0 53.5 15t26.5 52l48 225q5 23 5 39q0 24 -10.5 37.5t-33.5 13.5q-17 0 -32 -8t-28 -20t-23.5 -26.5t-17.5 -28.5h-27q-1 15 -6 29.5t-15.5 26.5t-26.5 19.5t-38 7.5 q-39 0 -64.5 -19.5t-41.5 -45.5t-22.5 -53.5t-6.5 -43.5q0 -5 0.5 -12t1.5 -10l3 1q8 38 36 63.5t69 25.5q34 0 61 -22t27 -61q0 -28 -10.5 -49t-27.5 -35t-39 -21t-46 -7q-25 0 -47.5 8.5t-39.5 24.5t-27 39.5t-10 52.5q0 32 11.5 69.5t34.5 69.5t59 53.5t85 21.5 q43 0 69 -21t34 -43q16 23 46 43.5t69 20.5q35 0 61 -20.5t26 -70.5q0 -10 -1 -21.5t-4 -24.5l-50 -230q-14 -61 -47.5 -87.5t-90.5 -26.5h-478zM443 247q0 22 -14.5 34.5t-33.5 12.5q-11 0 -23 -4.5t-22 -13.5t-16.5 -21.5t-6.5 -28.5q0 -23 15 -33.5t33 -10.5 q24 0 46 16.5t22 48.5z" />
<glyph unicode="&#xe53;" horiz-adv-x="804" d="M609 0l70 325q2 12 3.5 22.5t1.5 20.5q0 30 -14.5 47t-48.5 17q-48 0 -85 -39t-52 -109l-61 -284h-53l61 284q6 28 6 52q0 46 -23 71t-68 25q-47 0 -84.5 -26t-63.5 -67.5t-40 -92t-14 -98.5q0 -14 0.5 -29.5t2.5 -22.5l3 1q8 38 35 62.5t69 24.5q37 0 63 -21t26 -61 q0 -29 -10.5 -50t-27 -34.5t-37 -20.5t-41.5 -7q-27 0 -51 10.5t-42 31t-29 51.5t-11 73q0 55 17 112.5t49.5 104.5t80.5 77.5t110 30.5q30 0 52 -9t37 -23t23 -32.5t11 -36.5q10 18 25.5 36t35.5 32.5t43.5 23.5t50.5 9q48 0 77.5 -25.5t29.5 -78.5q0 -11 -1 -22.5 t-4 -24.5l-70 -330h-52zM295 95q0 22 -13.5 34.5t-35.5 12.5q-23 0 -44.5 -15.5t-21.5 -48.5q0 -22 15 -34t33 -12q24 0 45.5 15.5t21.5 47.5z" />
<glyph unicode="&#xe54;" horiz-adv-x="726" d="M315 0q-45 0 -86 12t-71.5 37t-48.5 62t-18 87q0 63 21.5 114t62 87.5t99.5 56t134 19.5h168q65 0 113.5 23.5t88.5 80.5l33 -29q-47 -66 -107.5 -94.5t-131.5 -28.5h-168q-120 0 -189.5 -58.5t-69.5 -166.5q0 -42 14.5 -72.5t39 -49.5t56 -28t65.5 -9h68l1 2 q-35 13 -61.5 52t-26.5 95q0 34 10.5 61t29 45t43 27.5t51.5 9.5q38 0 64.5 -22.5t26.5 -62.5q0 -29 -10 -49t-26.5 -33.5t-37 -19.5t-42.5 -6q-20 0 -37.5 8.5t-24.5 17.5l-2 -2q3 -18 14 -38.5t31 -38.5t50 -30t71 -12h124l-9 -47h-312zM479 248q0 22 -13.5 34.5 t-35.5 12.5q-25 0 -47 -17t-22 -49q0 -22 14.5 -35t34.5 -13q27 0 48 17t21 50z" />
<glyph unicode="&#xe55;" horiz-adv-x="735" d="M440 486q34 11 57 36t23 59q0 20 -12.5 33.5t-41.5 13.5q-39 0 -58.5 -21t-19.5 -52q0 -23 13.5 -42t38.5 -27zM315 0q-45 0 -85.5 12t-71.5 37t-49 62t-18 87q0 77 29.5 127.5t73.5 81t94.5 46t91.5 21.5q-21 11 -32 34.5t-11 46.5t9 44t26 36.5t41.5 24.5t56.5 9 q45 0 73 -23.5t28 -61.5q0 -20 -7.5 -37t-19.5 -31.5t-26.5 -25t-28.5 -17.5q14 -4 35 -6t44 -2q75 0 127.5 28.5t91.5 85.5l34 -29q-48 -66 -112 -97.5t-143 -31.5q-40 0 -76 7t-62 18q-46 -8 -96 -21t-91.5 -39.5t-68.5 -70.5t-27 -114q0 -42 14.5 -72t39 -49t56.5 -28 t66 -9h67l1 2q-35 13 -61.5 52t-26.5 95q0 34 10.5 61t29 45t43 27.5t51.5 9.5q38 0 64.5 -22.5t26.5 -62.5q0 -29 -10 -49t-26.5 -33.5t-37 -19.5t-42.5 -6q-20 0 -37.5 8.5t-24.5 17.5l-2 -2q3 -18 14 -38.5t31 -38.5t50 -30t71 -12h124l-9 -47h-312zM479 248 q0 22 -13.5 34.5t-35.5 12.5q-25 0 -47 -17t-22 -49q0 -22 14.5 -35t34.5 -13q27 0 48 17t21 50z" />
<glyph unicode="&#xe56;" horiz-adv-x="683" d="M204 72q11 -11 36 -21.5t62 -10.5q52 0 99 13.5t82.5 43t56.5 75t21 110.5q0 31 -8.5 58t-27.5 47.5t-48 32t-70 11.5t-75.5 -9.5t-63.5 -25.5t-53 -35.5t-43 -39.5h-53l46 213q2 10 3 19.5t1 17.5q0 25 -9.5 43t-29.5 27l34 41q28 -15 43.5 -42.5t15.5 -63.5 q0 -20 -4 -39l-33 -154q17 16 37.5 33.5t46.5 31.5t60.5 23t79.5 9q52 0 90.5 -16t64 -43t38 -62.5t12.5 -74.5q0 -79 -25.5 -134.5t-67.5 -90t-97 -50t-115 -15.5q-43 0 -80 12t-64 33t-42 48.5t-15 58.5q0 51 33 84.5t88 33.5q22 0 38.5 -7t27.5 -19t17 -27t6 -31 q0 -27 -10 -47t-26 -32.5t-36 -19t-41 -6.5zM271 175q0 17 -12 32t-35 15q-33 0 -50 -20t-17 -43q0 -17 13 -32.5t36 -15.5q32 0 48.5 20.5t16.5 43.5z" />
<glyph unicode="&#xe57;" horiz-adv-x="853" d="M296 96q0 22 -14 34t-34 12q-12 0 -23.5 -4t-21.5 -12.5t-16 -20t-6 -26.5q0 -23 15 -35t34 -12q26 0 46 16t20 48zM477 0l70 325q8 35 8 56q0 25 -10.5 38t-35.5 13q-35 0 -60.5 -30.5t-36.5 -79.5h-48q5 25 5 42q0 31 -14 49.5t-44 18.5q-36 0 -67 -21.5t-53 -58 t-34.5 -85.5t-12.5 -103q0 -19 1 -39.5t3 -28.5l4 1q8 38 36.5 63.5t70.5 25.5q16 0 31.5 -5.5t27.5 -16t19.5 -26t7.5 -35.5q0 -29 -10 -50.5t-26.5 -35.5t-37.5 -21t-42 -7q-28 0 -53 12t-43.5 35t-29 56.5t-10.5 76.5q0 54 14 109.5t42 100.5t68.5 73.5t93.5 28.5 q45 0 67 -24.5t22 -57.5q16 32 44.5 57t74.5 25t67 -24.5t21 -68.5q0 -14 -2 -28t-5 -30l-61 -283h31q48 0 76.5 25.5t39.5 73.5l83 388q4 16 4 35q0 25 -10 43.5t-31 27.5l39 42q55 -31 55 -103q0 -17 -5 -42l-82 -390q-16 -75 -64 -111t-116 -36h-82z" />
<glyph unicode="&#xe58;" horiz-adv-x="735" d="M533 45q-32 0 -57.5 20t-25.5 58q0 22 7.5 42t22.5 35t37 24t51 9q23 0 40 -7.5t28 -20t16 -28.5t5 -33q0 -33 -13.5 -61t-38.5 -48.5t-59 -32t-76 -11.5q-39 0 -69 14t-51.5 35t-33.5 45.5t-14 45.5h-3q-12 -12 -23 -29t-20 -36t-16 -37.5t-10 -31.5h-32q-20 10 -39 29 t-34 45t-24.5 58.5t-9.5 69.5q0 65 23.5 116t64.5 86.5t96 54.5t119 19h137q65 0 114 23.5t87 80.5l34 -29q-47 -66 -107.5 -94.5t-130.5 -28.5h-138q-53 0 -98.5 -16t-79.5 -45.5t-53 -72t-19 -95.5q0 -26 5.5 -48t14.5 -39t19.5 -30t20.5 -22h7q7 17 18.5 38t25.5 40.5 t30 36t32 25.5h29v-7q0 -28 8 -56.5t25.5 -51.5t43.5 -37.5t62 -14.5q30 0 52 10v3zM611 143q0 20 -12.5 34t-35.5 14q-32 0 -48.5 -20t-16.5 -43q0 -17 12.5 -32.5t35.5 -15.5q32 0 48.5 19t16.5 44z" />
<glyph unicode="&#xe59;" horiz-adv-x="777" d="M323 97q0 21 -13.5 33t-33.5 12q-24 0 -46 -15.5t-22 -48.5q0 -22 15 -34t33 -12q26 0 46.5 16.5t20.5 48.5zM568 -15q-32 13 -49.5 38.5t-26.5 68.5l-45 205q-5 24 -12 48t-19 43.5t-32 32t-51 12.5q-49 0 -84 -26.5t-57.5 -65t-33 -82t-10.5 -77.5q0 -32 6 -56t15 -38 l3 1q1 18 10 35t23.5 30.5t34.5 22t43 8.5q35 0 61.5 -21t26.5 -61q0 -29 -10.5 -50t-27 -35t-37 -21t-41.5 -7q-30 0 -59 12.5t-51.5 37t-36 60t-13.5 80.5t12.5 97.5t41 98t74 75.5t111.5 30q35 0 60.5 -10.5t43 -28.5t28 -40.5t15.5 -46.5l2 1q3 24 12.5 46.5t25 40 t37.5 28.5t50 11q35 0 62 -22.5t34 -62.5q17 5 31.5 21.5t22.5 52.5l13 63q2 9 3 17.5t1 16.5q0 26 -10 44.5t-30 27.5l36 42q57 -31 57 -104q0 -17 -5 -42l-14 -65q-14 -61 -50 -95.5t-80 -34.5h-14q0 2 -1 15.5t-6.5 29.5t-16.5 28.5t-32 12.5q-26 0 -44.5 -12.5 t-30.5 -32.5t-17.5 -45t-5.5 -50q0 -12 1.5 -27.5t3.5 -26.5l29 -129q6 -29 18.5 -49.5t35.5 -31.5z" />
<glyph unicode="&#xe5b;" horiz-adv-x="1115" d="M1008 307l-66 -112h-31q-2 38 -8 72.5t-19 54.5l-81 -142h-44q3 39 -4 77t-19 59l-90 -150h-45q4 44 -3 83.5t-28 73.5q-11 -60 -35.5 -116t-63 -99t-92.5 -69t-124 -26q-42 0 -77 13.5t-60.5 39t-39.5 63t-14 85.5q0 59 20.5 110.5t55 90t80.5 60.5t98 22 q37 0 64.5 -12.5t45.5 -33t26.5 -47.5t8.5 -56q0 -40 -16 -74.5t-41.5 -60t-58.5 -40t-66 -14.5q-18 0 -35 6t-30.5 17t-21.5 26.5t-8 35.5q0 29 11.5 50.5t28.5 35t38 20t40 6.5q41 0 63.5 -22t22.5 -51q0 -10 -1 -15l2 -1q11 17 16 39t5 44q0 41 -24 69.5t-73 28.5 q-44 0 -80.5 -20.5t-62 -53.5t-39.5 -74.5t-14 -84.5q0 -39 11.5 -67.5t31.5 -47.5t47 -28.5t57 -9.5q48 0 89 17.5t73.5 49.5t56 75.5t36.5 96.5q5 20 7 37t3 33h56q20 -26 34 -67t13 -79l88 146h33q7 -12 13.5 -28.5t11.5 -36t7 -40t0 -39.5l82 144h31q17 -26 25.5 -57 t7.5 -63l52 91h145l-6 -35h-116zM349 266q0 22 -14.5 34.5t-34.5 12.5q-23 0 -44 -16t-21 -49q0 -21 14.5 -33.5t31.5 -12.5q27 0 47.5 15.5t20.5 48.5z" />
<glyph unicode="&#x2000;" horiz-adv-x="621" />
<glyph unicode="&#x2001;" horiz-adv-x="1243" />
<glyph unicode="&#x2002;" horiz-adv-x="621" />
<glyph unicode="&#x2003;" horiz-adv-x="1243" />
<glyph unicode="&#x2004;" horiz-adv-x="414" />
<glyph unicode="&#x2005;" horiz-adv-x="310" />
<glyph unicode="&#x2006;" horiz-adv-x="207" />
<glyph unicode="&#x2007;" horiz-adv-x="207" />
<glyph unicode="&#x2008;" horiz-adv-x="155" />
<glyph unicode="&#x2009;" horiz-adv-x="248" />
<glyph unicode="&#x200a;" horiz-adv-x="69" />
<glyph unicode="&#x2010;" horiz-adv-x="333" d="M54 233l12 54h249l-12 -54h-249z" />
<glyph unicode="&#x2011;" horiz-adv-x="333" d="M54 233l12 54h249l-12 -54h-249z" />
<glyph unicode="&#x2012;" horiz-adv-x="333" d="M54 233l12 54h249l-12 -54h-249z" />
<glyph unicode="&#x2013;" horiz-adv-x="500" d="M13 238l10 44h500l-10 -44h-500z" />
<glyph unicode="&#x2014;" horiz-adv-x="1000" d="M13 238l10 44h1000l-10 -44h-1000z" />
<glyph unicode="&#x2018;" horiz-adv-x="222" d="M129 492l20 90l96 150h39l-91 -150h42l-20 -90h-86z" />
<glyph unicode="&#x2019;" horiz-adv-x="222" d="M127 482l91 150h-42l20 90h86l-20 -90l-96 -150h-39z" />
<glyph unicode="&#x201a;" horiz-adv-x="222" d="M-13 -150l91 150h-42l20 90h86l-20 -90l-96 -150h-39z" />
<glyph unicode="&#x201c;" horiz-adv-x="444" d="M166 492l20 90l96 150h39l-91 -150h42l-20 -90h-86zM333 492l20 90l96 150h39l-91 -150h42l-20 -90h-86z" />
<glyph unicode="&#x201d;" horiz-adv-x="444" d="M312 482l91 150h-42l20 90h86l-20 -90l-96 -150h-39zM145 482l91 150h-42l20 90h86l-20 -90l-96 -150h-39z" />
<glyph unicode="&#x201e;" horiz-adv-x="444" d="M172 -150l91 150h-42l20 90h86l-20 -90l-96 -150h-39zM5 -150l91 150h-42l20 90h86l-20 -90l-96 -150h-39z" />
<glyph unicode="&#x2020;" horiz-adv-x="500" d="M178 -80l70 404l57 177l-156 -18l14 62l148 -17l31 204h60l-59 -204l156 17l-14 -62l-148 18l-21 -177l-110 -404h-28z" />
<glyph unicode="&#x2021;" horiz-adv-x="500" d="M162 -80l59 204l-155 -17l13 62l148 -18l21 175l57 175l-156 -18l14 62l148 -17l31 204h60l-59 -204l156 17l-14 -62l-148 18l-21 -175l-57 -175l156 18l-13 -62l-149 17l-31 -204h-60z" />
<glyph unicode="&#x2022;" horiz-adv-x="500" d="M474 400q0 -44 -19.5 -84t-51 -70t-72 -48t-82.5 -18q-33 0 -59.5 10.5t-45.5 29.5t-29.5 45t-10.5 56q0 41 18.5 80.5t49.5 70.5t71.5 50t85.5 19q32 0 59 -10.5t46 -29.5t29.5 -45t10.5 -56z" />
<glyph unicode="&#x2026;" horiz-adv-x="1000" d="M84 0l20 90h86l-20 -90h-86zM417 0l20 90h86l-20 -90h-86zM750 0l20 90h86l-20 -90h-86z" />
<glyph unicode="&#x202f;" horiz-adv-x="248" />
<glyph unicode="&#x2030;" horiz-adv-x="1000" d="M982 179q0 -35 -16 -67.5t-42 -57.5t-59.5 -40t-68.5 -15q-27 0 -49.5 9t-38 24.5t-24.5 37t-9 46.5q0 35 16 68t42.5 58t60 40t68.5 15q27 0 49 -9t38 -25t24.5 -37.5t8.5 -46.5zM937 169q0 35 -23.5 59.5t-61.5 24.5q-25 0 -48.5 -10.5t-42 -28.5t-30 -41t-11.5 -47 q0 -35 24 -59t62 -24q24 0 47.5 10.5t42 28.5t30 40.5t11.5 46.5zM613 179q0 -35 -16 -67.5t-42 -57.5t-59.5 -40t-68.5 -15q-27 0 -49.5 9t-38 24.5t-24.5 37t-9 46.5q0 35 16 68t42.5 58t60 40t68.5 15q27 0 49 -9t38 -25t24.5 -37.5t8.5 -46.5zM568 169q0 35 -23.5 59.5 t-61.5 24.5q-25 0 -48.5 -10.5t-42 -28.5t-30 -41t-11.5 -47q0 -35 24 -59t62 -24q24 0 47.5 10.5t42 28.5t30 40.5t11.5 46.5zM404 604q0 -35 -16 -67.5t-42 -57.5t-59.5 -40t-68.5 -15q-27 0 -49.5 9t-38 24.5t-24.5 37t-9 46.5q0 35 16 68t42.5 58t60 40t68.5 15 q27 0 49 -9t38 -25t24.5 -37.5t8.5 -46.5zM359 594q0 35 -23.5 59.5t-61.5 24.5q-25 0 -48.5 -10.5t-42 -28.5t-29.5 -40.5t-11 -46.5q0 -35 23.5 -59.5t61.5 -24.5q24 0 47.5 10.5t42 28.5t30 40.5t11.5 46.5zM42 -10l572 742h52l-572 -742h-52z" />
<glyph unicode="&#x2039;" horiz-adv-x="333" d="M168 106l-86 156l155 152h66l-158 -152l89 -156h-66z" />
<glyph unicode="&#x203a;" horiz-adv-x="333" d="M131 106h-66l158 152l-89 156h66l86 -156z" />
<glyph unicode="&#x2044;" horiz-adv-x="167" d="M-209 -10l608 742h57l-606 -742h-59z" />
<glyph unicode="&#x205f;" horiz-adv-x="310" />
<glyph unicode="&#x20ac;" d="M485 75q-42 -42 -94 -63.5t-104 -21.5t-88 18t-58.5 48.5t-32.5 70.5t-10 83q0 9 0.5 18t1.5 18h-69l26 48h47q4 23 8.5 48t12.5 50h-62l28 48h48q18 60 47.5 113.5t69 93t88.5 62.5t106 23q63 0 111 -28.5t68 -85.5l-40 -73q-6 26 -19.5 50t-33 42.5t-44.5 29.5t-56 11 q-45 0 -82.5 -21.5t-67 -55.5t-50.5 -76.5t-32 -84.5h326l-27 -48h-312q-8 -24 -12 -49t-9 -49h277l-26 -48h-255q-2 -8 -2 -16v-16q0 -34 8 -65t24.5 -54t42 -37t61.5 -14q60 0 109.5 28.5t92.5 79.5z" />
<glyph unicode="&#x2113;" horiz-adv-x="477" d="M439 118q-45 -60 -96.5 -91.5t-111.5 -31.5q-34 0 -57.5 10t-38.5 28t-21.5 42.5t-6.5 53.5q0 32 7 63l3 14q-17 -11 -35 -24t-35 -26l-13 37q26 18 49.5 35t45.5 35l64 288q15 70 38.5 116.5t50.5 74t55.5 38.5t54.5 11q47 0 69 -29t22 -75q0 -56 -23 -112t-63.5 -111 t-95.5 -109t-120 -106l-7 -32q-5 -20 -6.5 -37t-1.5 -32q0 -57 24.5 -81.5t61.5 -24.5q25 0 48.5 9t44 23.5t38 32.5t30.5 35zM195 310q50 44 94.5 89.5t77.5 91.5t52.5 93t19.5 95q0 30 -13.5 48t-44.5 18q-15 0 -33 -9.5t-36 -32t-34.5 -58.5t-28.5 -88z" />
<glyph unicode="&#x2122;" horiz-adv-x="990" d="M220 310l81 368h-137l10 44h320l-10 -44h-133l-81 -368h-50zM859 310l81 368h-2l-230 -368h-30l-68 368h-2l-81 -368h-50l91 412h85l60 -328l202 328h85l-91 -412h-50z" />
<glyph unicode="&#x2126;" horiz-adv-x="724" d="M398 0l8 36q38 23 81 63.5t79 95t60 120.5t24 141q0 42 -10 82t-31 70.5t-54.5 49t-80.5 18.5q-64 0 -121 -33t-100.5 -88.5t-69 -128t-25.5 -150.5q0 -82 28 -145t68 -95l-8 -36h-233l11 49h154l1 3q-35 38 -57.5 95t-22.5 131q0 99 34 181.5t89 141.5t124.5 92 t139.5 33q54 0 96.5 -19t71.5 -52t44 -78.5t15 -99.5q0 -72 -22 -138t-55.5 -121t-73 -97.5t-75.5 -68.5l-1 -3h156l-11 -49h-233z" />
<glyph unicode="&#x212e;" horiz-adv-x="1056" d="M894 134q-55 -65 -140.5 -104t-185.5 -39q-85 0 -160 29t-130.5 79t-88 117t-32.5 144t32.5 145t88 118.5t130.5 79.5t160 29q86 0 161 -29t131 -79.5t88.5 -118.5t32.5 -145v-9h-667q-6 0 -6 -5v-202q0 -7 2.5 -12.5t6.5 -10.5q49 -51 113.5 -80.5t139.5 -29.5 q80 0 148 33.5t117 89.5h59zM830 580q0 14 -10 24q-49 48 -113 77t-137 29q-74 0 -138.5 -29.5t-113.5 -79.5q-10 -12 -10 -25v-199q0 -2 2 -4.5t4 -2.5h511q3 0 4 2.5t1 4.5v203z" />
<glyph unicode="&#x2202;" horiz-adv-x="539" d="M475 386q11 48 18 88.5t7 77.5q0 95 -38.5 148t-98.5 53q-47 0 -83.5 -15.5t-61.5 -33.5l-13 43q29 20 72 38t102 18q37 0 69.5 -14.5t56.5 -43.5t38 -73.5t14 -105.5q0 -65 -18 -149q-20 -89 -52.5 -166.5t-77 -134.5t-99.5 -89.5t-119 -32.5q-38 0 -65.5 13t-45 35 t-26 51.5t-8.5 62.5q0 75 26.5 136t67.5 104.5t90.5 67.5t94.5 24q36 0 62 -11.5t44 -27.5t28.5 -33.5t14.5 -29.5h1zM452 320q-2 18 -11 39t-25.5 39t-39.5 29.5t-54 11.5q-39 0 -77.5 -22.5t-69.5 -60.5t-50 -87t-19 -103q0 -56 26 -89t75 -33q39 0 75.5 22.5t68 60 t57.5 87.5t44 106z" />
<glyph unicode="&#x2206;" horiz-adv-x="647" d="M-7 0l10 44l411 691h66l103 -690l-10 -45h-580zM457 471q-2 21 -6 46.5t-8 51.5t-7.5 50.5t-4.5 42.5h-5q-7 -15 -19 -36.5t-26.5 -45.5t-29 -48.5t-26.5 -44.5l-262 -438h458z" />
<glyph unicode="&#x220f;" horiz-adv-x="851" d="M615 -99v760h-300v-760h-58v760h-112v54h640v-54h-112v-760h-58z" />
<glyph unicode="&#x2211;" horiz-adv-x="712" d="M141 -99v41l279 364l-266 367v42h479v-52h-395v-4l250 -345l-269 -353v-3h430v-57h-508z" />
<glyph unicode="&#x2212;" horiz-adv-x="600" d="M52 233l12 54h520l-12 -54h-520z" />
<glyph unicode="&#x2215;" horiz-adv-x="167" d="M-209 -10l608 742h57l-606 -742h-59z" />
<glyph unicode="&#x2219;" horiz-adv-x="278" d="M208 270q0 -12 -6 -23t-15 -19.5t-20 -13t-21 -4.5q-17 0 -29 11t-12 28q0 25 20.5 43t42.5 18q17 0 28.5 -11.5t11.5 -28.5z" />
<glyph unicode="&#x221a;" horiz-adv-x="729" d="M410 -156l-164 483l-75 -27l-14 38l127 48l135 -396q5 -18 9.5 -37.5t7.5 -33.5h1q2 14 6 32.5t7 36.5l192 859h45l-222 -1003h-55z" />
<glyph unicode="&#x221e;" horiz-adv-x="881" d="M452 263q-20 -23 -41 -44.5t-44 -39t-49.5 -28t-57.5 -10.5q-30 0 -57 12t-47.5 32.5t-32 48.5t-11.5 60q0 33 11.5 61.5t32 49.5t49 32.5t62.5 11.5q28 0 53.5 -10.5t49 -28t45 -39.5t41.5 -45q19 22 39.5 44.5t43.5 39.5t49 28t57 11q33 0 60 -11t46 -31t29.5 -47.5 t10.5 -61.5q0 -36 -12.5 -65t-33.5 -49.5t-48.5 -31.5t-57.5 -11q-49 0 -91 31.5t-96 90.5zM429 293q-17 19 -35.5 40t-39 38t-44 28.5t-51.5 11.5q-24 0 -43.5 -9.5t-32.5 -26t-20 -37.5t-7 -43q0 -24 7.5 -44.5t22 -36t35 -24.5t46.5 -9q25 0 47.5 11t42.5 28t38 36.5 t34 36.5zM478 297q26 -28 47 -49.5t40.5 -36.5t38 -22.5t39.5 -7.5q25 0 44 10t32.5 26t20.5 36t7 41q0 57 -30 87t-75 30q-27 0 -50.5 -13t-44.5 -31t-38.5 -37.5t-30.5 -32.5z" />
<glyph unicode="&#x222b;" horiz-adv-x="510" d="M146 -100q7 -4 19 -8.5t27 -4.5q13 0 28 6.5t27.5 28t20.5 62t8 109.5q0 61 -2 129t-4.5 136.5t-4.5 135.5t-2 126q0 67 9.5 114.5t27.5 77.5t43.5 44t58.5 14q15 0 30 -4.5t23 -9.5l-12 -42q-6 5 -16.5 8t-20.5 3q-45 0 -66 -48.5t-21 -161.5q0 -60 2 -126t4.5 -134 t4.5 -135t2 -128q0 -80 -12 -129t-31 -77t-43.5 -37.5t-49.5 -9.5q-19 0 -36.5 6t-25.5 11z" />
<glyph unicode="&#x2248;" horiz-adv-x="666" d="M577 410q-10 -19 -22 -36t-27.5 -30t-35 -20.5t-43.5 -7.5q-31 0 -56.5 11.5t-62.5 31.5q-24 14 -47 24.5t-49 10.5q-36 0 -59 -23t-43 -53l-28 21q23 45 58 70t79 25q18 0 34.5 -4.5t30.5 -11.5t26 -14t23 -13q27 -14 48 -24.5t50 -10.5q32 0 54 19t43 57zM577 243 q-20 -38 -49.5 -65.5t-77.5 -27.5q-32 0 -57.5 11.5t-62.5 31.5q-24 14 -47 24.5t-49 10.5q-36 0 -59.5 -23.5t-42.5 -53.5l-28 22q23 45 58 69.5t78 24.5q38 0 66 -15.5t49 -26.5q26 -14 47.5 -24.5t50.5 -10.5q32 0 53.5 18.5t43.5 56.5z" />
<glyph unicode="&#x2260;" horiz-adv-x="686" d="M325 174l-56 -120l-33 16l48 104h-155v41h173l70 151h-243v41h260l54 118l34 -15l-48 -103h164v-41h-181l-70 -151h251v-41h-268z" />
<glyph unicode="&#x2264;" horiz-adv-x="703" d="M151 328v43l456 229v-51l-409 -197v-3l409 -199v-51zM145 14v43h465v-43h-465z" />
<glyph unicode="&#x2265;" horiz-adv-x="703" d="M152 99v51l409 198v2l-409 199v51l456 -229v-43zM146 14v43h463v-43h-463z" />
<glyph unicode="&#x25ca;" horiz-adv-x="731" d="M381 -44l-202 401l204 402h48l203 -402l-204 -401h-49zM409 7q2 9 7.5 24t10.5 26l152 298l-153 300q-5 12 -10.5 26.5t-8.5 25.5h-2q-4 -11 -8.5 -24.5t-11.5 -27.5l-151 -296l153 -302q8 -15 12 -28t6 -22h4z" />
<glyph unicode="&#x25fc;" horiz-adv-x="520" d="M0 520h520v-520h-520v520z" />
<glyph unicode="&#xf700;" horiz-adv-x="531" d="M289 0l-18 180q-1 5 -1 10v10q0 10 1 20t3 20h-2q-8 -17 -26 -32t-50 -15q-39 0 -61.5 23t-22.5 55q0 25 9.5 44t24.5 32.5t34.5 20.5t40.5 7q42 0 64 -23.5t26 -66.5l11 -135q1 -11 1 -19.5v-17.5q0 -14 -1 -29t-3 -34h5q3 21 10 51t15 49l60 156q10 26 10 46 q0 38 -35.5 52t-104.5 14q-51 0 -99 -7.5t-77 -19.5h-13l12 55q6 25 18.5 51.5t36 47.5t58 34.5t83.5 13.5q32 0 57 -5.5t45 -11.5t37 -11.5t32 -5.5q25 0 35 16t17 45l54 -19q-8 -40 -36.5 -65.5t-64.5 -25.5q-27 0 -46 5.5t-38 11.5t-41.5 11.5t-56.5 5.5 q-60 0 -93.5 -26.5t-41.5 -59.5l-2 -9q18 6 49.5 11.5t78.5 5.5q91 0 140 -22.5t49 -76.5q0 -27 -13 -62l-117 -305h-53zM259 291q0 17 -10.5 29t-30.5 12q-23 0 -39.5 -15.5t-16.5 -39.5q0 -17 11 -28.5t28 -11.5q26 0 42 14.5t16 39.5z" />
<glyph unicode="&#xf701;" horiz-adv-x="0" d="M-111 678q-42 25 -102 43t-145 18q-55 0 -109 -4.5t-90 -9.5h-8q12 38 37 70.5t59.5 56.5t76.5 38t88 14t83.5 -13t64 -37t41 -57t14.5 -72q0 -11 -1.5 -23t-3.5 -24h-5zM-143 740q-4 18 -14.5 39t-30.5 38t-50 28.5t-72 11.5q-36 0 -64.5 -8t-51 -20.5t-39 -27 t-26.5 -27.5q24 6 62.5 9.5t83.5 3.5q71 0 121 -13.5t81 -33.5z" />
<glyph unicode="&#xf702;" horiz-adv-x="0" d="M-111 678q-42 25 -102.5 43t-145.5 18q-55 0 -108.5 -4.5t-89.5 -9.5h-8q12 38 37 70.5t59.5 56.5t76.5 38t88 14q34 0 65 -7.5t55 -22t39.5 -36.5t20.5 -50l5 1q-1 5 -1.5 10t-0.5 12q0 15 2.5 35t7.5 43l15 73h51l-61 -284h-5zM-143 740q-4 18 -14.5 39t-30.5 38 t-50 28.5t-72 11.5q-36 0 -64.5 -8t-51 -20.5t-39 -27t-26.5 -27.5q24 6 62.5 9.5t83.5 3.5q71 0 121 -13.5t81 -33.5z" />
<glyph unicode="&#xf703;" horiz-adv-x="0" d="M-111 678q-42 25 -102 43t-145 18q-55 0 -109 -4.5t-90 -9.5h-8q12 38 37 70.5t59.5 56.5t76.5 38t88 14q20 0 42 -3t39 -10q13 32 42 53.5t63 21.5t53 -20.5t19 -51.5q0 -33 -21 -59.5t-51 -39.5q17 -34 17 -74q0 -20 -5 -43h-5zM-143 740q-4 18 -14.5 39t-30.5 38 t-50 28.5t-72 11.5q-36 0 -64.5 -8t-51 -20.5t-39 -27t-26.5 -27.5q24 6 62.5 9.5t83.5 3.5q71 0 121 -13.5t81 -33.5zM-187 876q17 -12 28.5 -23.5t21.5 -25.5q22 5 36.5 21t14.5 39q0 18 -10.5 29t-30.5 11q-23 0 -39 -15t-21 -36z" />
<glyph unicode="&#xf704;" horiz-adv-x="0" d="M-111 678q-42 25 -102 43t-145 18q-55 0 -109 -4.5t-90 -9.5h-8q12 38 37 70.5t59.5 56.5t76.5 38t88 14q22 0 44.5 -3t39.5 -9l15 70h51l-20 -92q20 -17 32.5 -35.5t17.5 -46.5l5 1q-1 5 -1.5 10t-0.5 12q0 15 2.5 35t7.5 43l15 73h51l-61 -284h-5zM-143 740 q-4 18 -14.5 39t-30.5 38t-50 28.5t-72 11.5q-36 0 -64.5 -8t-51 -20.5t-39 -27t-26.5 -27.5q24 6 62.5 9.5t83.5 3.5q71 0 121 -13.5t81 -33.5z" />
<glyph unicode="&#xf705;" horiz-adv-x="0" d="M-252 684l44 205h54l-44 -205h-54z" />
<glyph unicode="&#xf706;" horiz-adv-x="0" d="M-30 882q-13 -51 -45.5 -89t-74 -63t-86.5 -37.5t-82 -12.5q-29 0 -49.5 1.5t-42.5 5.5l5 29q24 8 53 24t49 39l-1 2q-12 -7 -28 -7q-21 0 -38.5 17t-17.5 43q0 38 24 59.5t59 21.5q30 0 50.5 -18.5t20.5 -49.5q0 -24 -9.5 -44.5t-24.5 -37.5t-33.5 -29.5t-35.5 -19.5 q41 0 82.5 12t76 34t60 52.5t34.5 67.5l3 12h54zM-276 849q0 11 -7 21t-24 10q-20 0 -30 -12.5t-10 -27.5q0 -11 7.5 -20.5t21.5 -9.5q23 0 32.5 12.5t9.5 26.5z" />
<glyph unicode="&#xf707;" horiz-adv-x="0" d="M-356 751q0 10 -7.5 19t-21.5 9q-17 0 -25.5 -10.5t-8.5 -24.5q0 -10 7 -18.5t21 -8.5q17 0 26 10t9 24zM-36 884q-22 -95 -84.5 -147.5t-167.5 -52.5l7 32q14 6 28.5 14.5t26 21t19 29.5t7.5 38q0 20 -9 32.5t-26 12.5q-18 0 -33 -11.5t-23 -25.5h-29q-3 15 -13 26.5 t-32 11.5q-20 0 -33 -10.5t-21 -24.5t-11.5 -28t-3.5 -21l2 -1q7 12 20.5 23t38.5 11t42 -15.5t17 -41.5q0 -37 -23.5 -56.5t-55.5 -19.5q-38 0 -61 24.5t-23 67.5q0 22 6.5 45t20.5 42.5t34.5 32t49.5 12.5t44 -14.5t21 -27.5q8 13 29 27.5t50 14.5q25 0 45.5 -18t20.5 -61 q0 -31 -16.5 -56.5t-40.5 -39.5q31 8 52 23t35 35t23 44.5t15 51.5l3 13h52z" />
<glyph unicode="&#xf708;" horiz-adv-x="0" d="M-190 780l-21 -96h-50l21 96h-92l9 46h92l21 95h50l-21 -95h93l-9 -46h-93z" />
<glyph unicode="&#xf709;" horiz-adv-x="0" d="M-28 902q-27 -13 -59 -24.5t-65 -19.5t-64.5 -13.5t-58.5 -6.5l-1 -2q23 -3 40.5 -21t17.5 -45q0 -42 -28 -66t-69 -24q-34 0 -56 21.5t-22 55.5q0 32 21 57.5t53 42.5q29 15 60.5 23t66 15.5t72 18t79.5 31.5zM-310 717q24 0 36 15t12 34q0 15 -9 26.5t-29 11.5 q-25 0 -37.5 -15.5t-12.5 -34.5q0 -15 10 -26t30 -11z" />
<glyph unicode="&#xf70a;" horiz-adv-x="0" d="M-43 684l44 205h54l-44 -205h-54z" />
<glyph unicode="&#xf70b;" horiz-adv-x="0" d="M122 882q-13 -51 -45.5 -89t-74 -63t-86.5 -37.5t-82 -12.5q-29 0 -49.5 1.5t-42.5 5.5l5 29q24 8 53 24t49 39l-1 2q-12 -7 -28 -7q-21 0 -38.5 17t-17.5 43q0 38 24 59.5t59 21.5q30 0 50.5 -18.5t20.5 -49.5q0 -24 -9.5 -44.5t-24.5 -37.5t-33.5 -29.5t-35.5 -19.5 q41 0 82.5 12t76 34t60 52.5t34.5 67.5l3 12h54zM-124 849q0 11 -7 21t-24 10q-20 0 -30 -12.5t-10 -27.5q0 -11 7.5 -20.5t21.5 -9.5q23 0 32.5 12.5t9.5 26.5z" />
<glyph unicode="&#xf70c;" horiz-adv-x="0" d="M-193 751q0 10 -7.5 19t-21.5 9q-17 0 -25.5 -10.5t-8.5 -24.5q0 -10 7 -18.5t21 -8.5q17 0 26 10t9 24zM127 884q-22 -95 -84.5 -147.5t-167.5 -52.5l7 32q14 6 28.5 14.5t26 21t19 29.5t7.5 38q0 20 -9 32.5t-26 12.5q-18 0 -33 -11.5t-23 -25.5h-29q-3 15 -13 26.5 t-32 11.5q-20 0 -33 -10.5t-21 -24.5t-11.5 -28t-3.5 -21l2 -1q7 12 20.5 23t38.5 11t42 -15.5t17 -41.5q0 -37 -23.5 -56.5t-55.5 -19.5q-38 0 -61 24.5t-23 67.5q0 22 6.5 45t20.5 42.5t34.5 32t49.5 12.5t44 -14.5t21 -27.5q8 13 29 27.5t50 14.5q25 0 45.5 -18t20.5 -61 q0 -31 -16.5 -56.5t-40.5 -39.5q31 8 52 23t35 35t23 44.5t15 51.5l3 13h52z" />
<glyph unicode="&#xf70d;" horiz-adv-x="0" d="M29 780l-21 -96h-50l21 96h-93l9 46h93l21 95h50l-21 -95h93l-9 -46h-93z" />
<glyph unicode="&#xf70e;" horiz-adv-x="0" d="M161 902q-27 -13 -59 -24.5t-65 -19.5t-64.5 -13.5t-58.5 -6.5l-1 -2q23 -3 40.5 -21t17.5 -45q0 -42 -28 -66t-69 -24q-34 0 -56 21.5t-22 55.5q0 32 21 57.5t53 42.5q29 15 60.5 23t66 15.5t72 18t79.5 31.5zM-121 717q24 0 36 15t12 34q0 15 -9 26.5t-29 11.5 q-25 0 -37.5 -15.5t-12.5 -34.5q0 -15 10 -26t30 -11z" />
<glyph unicode="&#xf70f;" horiz-adv-x="905" d="M220 94q0 18 -10.5 29.5t-29.5 11.5q-24 0 -41 -15t-17 -39q0 -17 11.5 -29t29.5 -12q24 0 40.5 15.5t16.5 38.5zM404 0l83 389q2 12 3.5 23.5t1.5 22.5q0 51 -31.5 80t-103.5 29q-60 0 -105.5 -20t-75.5 -45v-3q35 -3 71 -17t58 -31l-6 -22q-49 -5 -83.5 -36.5 t-45.5 -83.5l-16 -73q-5 -19 -9.5 -32.5t-12.5 -27.5l4 -1q7 10 22.5 17.5t35.5 7.5q30 0 53 -20t23 -58q0 -23 -9 -42t-24 -32.5t-35.5 -21t-43.5 -7.5q-38 0 -62.5 20.5t-24.5 52.5q0 5 0.5 9t1.5 9l43 199q11 48 40.5 82.5t66.5 48.5l1 4q-21 11 -55.5 16t-64.5 5l7 32 q38 51 103.5 85t152.5 34q91 0 135.5 -39.5t44.5 -108.5q0 -26 -6 -56l-71 -335h257l114 531h54l-125 -585h-366z" />
<glyph unicode="&#xf710;" horiz-adv-x="0" d="M45 865q-10 -45 -35.5 -79.5t-59.5 -57.5t-73 -34.5t-77 -11.5q-91 0 -132.5 30.5t-41.5 73.5q0 41 26 69.5t74 28.5q32 0 53.5 -20t21.5 -49t-19.5 -49t-48.5 -29l-1 -3q9 -3 27.5 -5t41.5 -2q35 0 66.5 9t57 27t43.5 43.5t25 58.5l3 14h52zM-244 808q0 14 -10 25 t-25 11q-20 0 -34.5 -13.5t-14.5 -34.5q0 -15 10 -24.5t25 -9.5q20 0 34.5 13t14.5 33z" />
<glyph unicode="&#xf711;" horiz-adv-x="0" d="M-100 841q0 -26 -10 -48t-27 -38.5t-40.5 -26t-50.5 -9.5q-23 0 -40.5 8t-29.5 21.5t-18 31t-6 35.5q0 25 10 47.5t27.5 39t41 26t50.5 9.5q21 0 38.5 -8t29.5 -21.5t18.5 -30.5t6.5 -36zM-145 837q0 23 -14 40t-40 17q-30 0 -54.5 -21t-24.5 -55q0 -24 16.5 -40 t39.5 -16q15 0 28.5 5t24.5 15t17.5 24t6.5 31z" />
<glyph unicode="&#xf712;" horiz-adv-x="0" d="M-220 721q-3 4 -6 9q-5 10 -5 24q0 30 20 50.5t54 20.5q29 0 47 -17t18 -41q0 -40 -28 -62.5t-66 -22.5q-45 0 -76.5 18t-42.5 47q-11 -10 -24.5 -28t-21.5 -36h-16q-21 14 -39.5 40t-18.5 62q0 24 7.5 48.5t24.5 45t44.5 33t68.5 12.5h116q33 0 57 14t38 32l29 -35 q-22 -25 -53 -40t-76 -15h-113q-47 0 -70 -26.5t-23 -61.5q0 -13 2.5 -22.5t5.5 -16.5q4 -8 9 -14q9 17 27.5 37t34.5 30h8q0 -14 6 -28.5t15.5 -26.5t22 -20.5t24.5 -11.5v2zM-131 762q0 12 -7.5 20t-20.5 8q-14 0 -25 -10t-11 -24q0 -11 8.5 -19.5t21.5 -8.5 q15 0 24.5 8.5t9.5 25.5z" />
<glyph unicode="&#xf713;" horiz-adv-x="0" d="M-83 1029l36 167h50l-36 -167h-50z" />
<glyph unicode="&#xf714;" horiz-adv-x="0" d="M80 1210q-12 -46 -40 -80.5t-64.5 -57t-76.5 -34t-74 -11.5q-26 0 -44 1.5t-38 5.5l4 28q23 7 49 20t44 33l-2 2q-3 -3 -10.5 -4.5t-12.5 -1.5q-22 0 -38 16.5t-16 42.5q0 34 23 53.5t52 19.5q30 0 49 -18t19 -46q0 -22 -8.5 -40.5t-22 -33.5t-30 -25.5t-32.5 -16.5 q35 0 70 10.5t65 29.5t52 46.5t30 60.5l3 12h52zM-135 1180q0 10 -7.5 19t-21.5 9q-18 0 -27 -10t-9 -24q0 -10 7 -19t20 -9q20 0 29 10t9 24z" />
<glyph unicode="&#xf715;" horiz-adv-x="0" d="M-203 1093q0 9 -6 17t-20 8q-17 0 -24.5 -9.5t-7.5 -21.5q0 -9 6.5 -17t19.5 -8q17 0 24.5 9.5t7.5 21.5zM89 1214q-23 -86 -77 -134t-154 -48l7 29q28 11 50.5 34t22.5 61q0 18 -8 28t-22 10q-17 0 -30.5 -10.5t-21.5 -22.5h-26q-3 14 -12 24t-28 10q-18 0 -30.5 -9 t-20 -21t-10.5 -24.5t-3 -19.5l2 -1q7 13 19.5 22.5t33.5 9.5q24 0 40.5 -15.5t16.5 -39.5q0 -34 -20 -51.5t-52 -17.5q-16 0 -30.5 6.5t-25.5 18.5t-17.5 27.5t-6.5 33.5q0 22 6.5 43t20 38t32.5 27.5t45 10.5t39 -13.5t18 -25.5q8 12 27.5 25.5t45.5 13.5q9 0 19.5 -3 t19 -10.5t14.5 -19.5t6 -29q0 -32 -14.5 -58t-36.5 -40q28 7 46.5 21t31 32.5t20.5 41t14 46.5l3 11h49z" />
<glyph unicode="&#xf716;" horiz-adv-x="0" d="M-18 1111l-17 -82h-46l17 82h-79l9 42h79l18 81h46l-18 -81h80l-9 -42h-80z" />
<glyph unicode="&#xf717;" horiz-adv-x="0" d="M57 1162q-26 -12 -55 -22.5t-59 -18t-59 -12.5t-54 -6v-2q20 -2 36 -18t16 -42q0 -38 -26 -59.5t-61 -21.5q-34 0 -52.5 19.5t-18.5 48.5t18.5 53.5t47.5 38.5q27 13 55.5 20.5t60 14.5t65.5 17t72 29zM-201 994q25 0 34 14t9 30q0 13 -9.5 23.5t-28.5 10.5 q-22 0 -31.5 -14t-9.5 -31q0 -14 9.5 -23.5t26.5 -9.5z" />
<glyph unicode="&#xf718;" horiz-adv-x="0" d="M-302 -537l14 65q4 18 9 30.5t12 25.5l-4 1q-6 -10 -16.5 -18t-33.5 -8q-28 0 -48.5 19t-20.5 53q0 41 28 67t73 26q32 0 54.5 -19.5t22.5 -49.5q0 -6 -2 -16l-38 -176h-50zM-259 -350q0 14 -9 24t-24 10q-22 0 -37 -14.5t-15 -35.5q0 -14 9 -24t25 -10q20 0 35.5 14.5 t15.5 35.5z" />
<glyph unicode="&#xf719;" horiz-adv-x="0" d="M-477 -537l11 45h44l4 20q4 18 9 30.5t12 25.5l-4 1q-6 -10 -16.5 -18t-33.5 -8q-28 0 -48.5 19t-20.5 53q0 41 28 67t73 26q32 0 54.5 -19.5t22.5 -49.5q0 -6 -2 -16l-27 -131h79l44 211h51l-55 -256h-225zM-389 -350q0 14 -9 24t-24 10q-22 0 -37 -14.5t-15 -35.5 q0 -14 9 -24t25 -10q20 0 35.5 14.5t15.5 35.5z" />
<glyph unicode="&#xf71a;" horiz-adv-x="0" d="M-166 -336q0 -17 -7.5 -32.5t-20 -27t-28.5 -18.5t-33 -7q-26 0 -42.5 17t-16.5 43q0 17 7.5 32.5t20.5 27t29 18.5t33 7q26 0 42 -17.5t16 -42.5z" />
<glyph unicode="&#xf71b;" horiz-adv-x="653" d="M147 -150q0 19 -12 32.5t-35 13.5q-25 0 -44.5 -16.5t-19.5 -43.5q0 -20 12 -34t35 -14q25 0 44.5 17t19.5 45zM347 -262h-10l-94 68q-16 11 -29 27t-13 30h-3l-5 -25q-8 -41 -38.5 -67.5t-78.5 -26.5q-18 0 -35 6t-29.5 17.5t-20 27t-7.5 34.5q0 24 9.5 44.5t25.5 35.5 t37 23t45 8q17 0 30 -4t21 -9q10 -5 17 -12l4 3q-9 9 -9 26q0 8 3 19l2 9h54l-15 -75l132 -100l102 94l108 498q2 12 3.5 23t1.5 22q0 51 -33.5 80.5t-106.5 29.5q-61 0 -108 -20t-77 -45v-3q35 -3 73.5 -17t60.5 -31l-6 -22q-49 -5 -78 -36.5t-40 -83.5l-43 -199 q-10 -44 -40.5 -67.5t-71.5 -23.5q-37 0 -60.5 22t-23.5 57q0 48 32 75.5t75 27.5q23 0 35.5 -8.5t19.5 -17.5l4 1q-1 5 -1 10.5v10.5q0 19 4 39l16 73q11 48 35 82.5t61 48.5l1 4q-11 6 -26 10t-32 6.5t-34.5 3.5t-32.5 1l7 32q38 51 103 85t153 34q94 0 141.5 -40 t47.5 -111q0 -25 -6 -53l-112 -521zM148 94q0 17 -10.5 29t-29.5 12q-24 0 -41 -15.5t-17 -38.5q0 -17 12 -29t30 -12q24 0 40 15t16 39z" />
<glyph unicode="&#xf71c;" horiz-adv-x="653" d="M78 -212q26 0 43.5 18t17.5 45q0 19 -10.5 32t-31.5 13q-26 0 -44 -18t-18 -45q0 -19 11.5 -32t31.5 -13zM374 -262h-12l-48 63l-74 -63h-11l-27 36q-10 13 -12.5 27.5t-2.5 28.5v12h-3q-8 -42 -36.5 -70t-75.5 -28q-36 0 -61.5 22.5t-25.5 60.5q0 24 9.5 44.5t25 36 t36 24t42.5 8.5q27 0 43 -10t21 -17l4 3q-8 8 -8 29v8.5t2 9.5l2 9h54l-19 -91l46 -84l73 57h11l47 -57l61 57l115 535q2 12 3.5 23t1.5 22q0 51 -33.5 80.5t-106.5 29.5q-61 0 -108 -20t-77 -45v-3q35 -3 73.5 -17t60.5 -31l-6 -22q-49 -5 -78 -36.5t-40 -83.5l-43 -199 q-10 -44 -40.5 -67.5t-71.5 -23.5q-37 0 -60.5 22t-23.5 57q0 48 32 75.5t75 27.5q23 0 35.5 -8.5t19.5 -17.5l4 1q-1 5 -1 10.5v10.5q0 19 4 39l16 73q11 48 35 82.5t61 48.5l1 4q-11 6 -26 10t-32 6.5t-34.5 3.5t-32.5 1l7 32q38 51 103 85t153 34q94 0 141.5 -40 t47.5 -111q0 -25 -6 -53l-119 -552zM148 94q0 17 -10.5 29t-29.5 12q-24 0 -41 -15.5t-17 -38.5q0 -17 12 -29t30 -12q24 0 40 15t16 39z" />
<glyph unicode="&#xf71d;" horiz-adv-x="736" d="M236 510q0 17 -10.5 28t-28.5 11q-26 0 -42.5 -16.5t-16.5 -39.5q0 -17 10.5 -28t28.5 -11q23 0 41 16t18 40zM659 533q3 12 3 21q0 27 -22 40.5t-54 13.5q-44 0 -69.5 -15t-25.5 -31q0 -17 25.5 -28.5t72.5 -11.5q18 0 35 3t35 8zM552 0l-116 320l-252 -320h-62l81 376 q4 19 10 32.5t13 27.5l-4 1q-8 -10 -21 -18.5t-37 -8.5q-15 0 -28.5 6t-24 16t-17 24t-6.5 31q0 46 31.5 76t82.5 30q35 0 59 -20.5t24 -54.5q0 -5 -0.5 -10t-1.5 -10l-87 -407l223 284h47l99 -280l84 389q-21 -5 -39 -7.5t-39 -2.5q-29 0 -54 7t-43.5 18t-29 26t-10.5 32 q0 18 10 35.5t29.5 31t48 22t66.5 8.5q28 0 51.5 -7t41 -19t27.5 -28.5t10 -36.5q26 16 45 32.5t31.5 30t18.5 22t6 9.5q2 -2 6 -4q3 -2 6.5 -4.5t8.5 -4.5l21 -14q-72 -89 -153 -126l-108 -504h-48z" />
<glyph unicode="&#xf883;" horiz-adv-x="600" d="M220 94q0 18 -10.5 29.5t-29.5 11.5q-24 0 -41 -15t-17 -39q0 -17 11.5 -29t29.5 -12q24 0 40.5 15.5t16.5 38.5zM369 -210l127 599q2 12 3.5 23t1.5 22q0 51 -33.5 80.5t-106.5 29.5q-61 0 -108 -20t-77 -45v-3q35 -3 71 -17t58 -31l-6 -22q-49 -5 -83.5 -36.5 t-45.5 -83.5l-16 -73q-5 -19 -9.5 -32.5t-12.5 -27.5l4 -1q7 10 22.5 17.5t35.5 7.5q30 0 53 -20t23 -58q0 -23 -9 -42t-24 -32.5t-35.5 -21t-43.5 -7.5q-38 0 -62.5 20.5t-24.5 52.5q0 5 0.5 9t1.5 9l43 199q11 48 40.5 82.5t66.5 48.5l1 4q-21 11 -55.5 16t-64.5 5l7 32 q19 25 45.5 47t59.5 38t72 25t83 9q93 0 139 -40t46 -109q0 -27 -6 -55l-127 -599h-54z" />
<glyph unicode="&#xf884;" horiz-adv-x="653" d="M422 -210l128 599q2 12 3.5 23t1.5 22q0 51 -33.5 80.5t-106.5 29.5q-61 0 -108 -20t-77 -45v-3q35 -3 73.5 -17t60.5 -31l-6 -22q-49 -5 -78 -36.5t-40 -83.5l-43 -199q-10 -44 -40.5 -67.5t-71.5 -23.5q-37 0 -60.5 22t-23.5 57q0 48 32 75.5t75 27.5q23 0 35.5 -8.5 t19.5 -17.5l4 1q-1 5 -1 10.5v10.5q0 19 4 39l16 73q11 48 35 82.5t61 48.5l1 4q-11 6 -26 10t-32 6.5t-34.5 3.5t-32.5 1l7 32q38 51 103 85t153 34q94 0 141.5 -40t47.5 -111q0 -25 -6 -53l-128 -599h-54zM148 94q0 17 -10.5 29t-29.5 12q-24 0 -41 -15.5t-17 -38.5 q0 -17 12 -29t30 -12q24 0 40 15t16 39z" />
<glyph unicode="&#xf8ff;" horiz-adv-x="900" d="M450 -9q-112 0 -181.5 13.5t-108 52t-52 108t-13.5 181.5t13.5 181.5t52 108t108 52t181.5 13.5t181.5 -13.5t108 -52t52 -108t13.5 -181.5t-13.5 -181.5t-52 -108t-108 -52t-181.5 -13.5zM663 366q0 43 -16.5 79t-45 62t-67.5 40.5t-84 14.5t-84 -14.5t-67.5 -40.5 t-45 -62t-16.5 -79v-223h85l95 102q15 -6 33 -6q38 0 64 25t26 65q0 39 -26 64.5t-64 25.5t-64.5 -25.5t-26.5 -64.5q0 -26 13 -48l-65 -71v156q0 31 11.5 55.5t31 41.5t45.5 26.5t55 9.5t55 -9.5t45.5 -26.5t31 -41.5t11.5 -55.5v-223h70v223zM450 291q-15 0 -26.5 11 t-11.5 27t11.5 26.5t26.5 10.5t26 -10.5t11 -26.5t-11 -27t-26 -11z" />
<glyph horiz-adv-x="523" d="M-100 841q0 -26 -10 -48t-27 -38.5t-40.5 -26t-50.5 -9.5q-23 0 -40.5 8t-29.5 21.5t-18 31t-6 35.5q0 25 10 47.5t27.5 39t41 26t50.5 9.5q21 0 38.5 -8t29.5 -21.5t18.5 -30.5t6.5 -36zM-145 837q0 23 -14 40t-40 17q-30 0 -54.5 -21t-24.5 -55q0 -24 16.5 -40 t39.5 -16q15 0 28.5 5t24.5 15t17.5 24t6.5 31zM335 0l88 412q2 8 3 16t1 16q0 45 -30.5 70.5t-89.5 25.5q-65 0 -112.5 -38.5t-61.5 -103.5l-8 -35h-55l7 34q18 89 79.5 142.5t154.5 53.5q79 0 125 -38.5t46 -103.5q0 -20 -4 -39l-89 -412h-54z" />
<glyph horiz-adv-x="0" d="M-213 695q-12 -8 -25 -13.5t-33 -5.5q-38 0 -55 18t-17 38q0 32 22 55.5t64 33.5q-8 3 -11.5 11t-3.5 18q0 35 31 55t87 20q18 0 37 -3t31 -10l-18 -34q-10 5 -22 7.5t-27 2.5q-31 0 -51 -10.5t-20 -32.5q0 -8 7 -14t24 -6h39l-18 -37h-60q-23 0 -40.5 -12t-17.5 -32 q0 -12 7.5 -19.5t20.5 -7.5q9 0 18 2.5t16 7.5z" />
</font>
</defs>
</svg>
