<?xml version="1.0" encoding="UTF-8"?>
<svg width="40px" height="36px" viewBox="0 0 40 36" version="1.1" xmlns="http://www.w3.org/2000/svg" xmlns:xlink="http://www.w3.org/1999/xlink">
    <title>F2A00219-4BB9-45C9-AB03-57BB67533661@1x</title>
    <g id="Branding" stroke="none" stroke-width="1" fill="none" fill-rule="evenodd">
        <g transform="translate(-292.000000, -1923.000000)" id="Group-4">
            <g transform="translate(292.000000, 1923.000000)">
                <rect id="Rectangle-Copy-4" x="0" y="0" width="40" height="36"></rect>
                <g id="Logo-size40,24px-square-04" transform="translate(1.000000, 6.000000)">
                    <path d="M7.45006019,0.0399583164 L16.9301708,0.0399583164 C17.5305947,0.0158860367 18.1052359,0.285238509 18.4708462,0.76212158 C18.8364566,1.23900465 18.9473835,1.86387141 18.7682533,2.4374573 L14.3528593,21.4176576 C13.9951981,22.7923956 12.7757045,23.7679906 11.3559856,23.8151566 L1.91583337,23.8151566 C1.31555571,23.8405654 0.740750055,23.5709966 0.376450185,23.0932263 C0.0121503155,22.615456 -0.095653916,21.9897987 0.0877403932,21.4176576 L4.49314477,2.4374573 C4.85080597,1.06271924 6.07029965,0.0871243032 7.4900185,0.0399583164" id="Path" fill="#DF3333" fill-rule="nonzero"></path>
                    <path d="M16.140994,0.0399583164 L26.9896769,0.0399583164 C28.3182909,0.0399583164 27.7189162,1.10884328 27.4092392,2.4374573 L22.9938453,21.3776993 C22.6841683,22.7063133 22.7840641,23.7751983 21.4654397,23.7751983 L10.6067672,23.7751983 C10.0047632,23.80401 9.42688094,23.5358656 9.06018349,23.0575646 C8.69348604,22.5792636 8.58456725,21.9515805 8.76868463,21.3776993 L13.1840786,2.39749898 C13.5388029,1.02085894 14.7600225,0.0438832489 16.1809523,0" id="Path" fill="#004888" fill-rule="nonzero"></path>
                    <path d="M26.6000833,0.0399583164 L36.0801939,0.0399583164 C36.6820762,0.00973026299 37.2601888,0.278077239 37.6255957,0.75729939 C37.9910026,1.23652154 38.0967533,1.86504444 37.9082869,2.4374573 L33.5028825,21.4176576 C33.1452213,22.7923956 31.9257276,23.7679906 30.5060087,23.8151566 L21.0758461,23.8151566 C20.4738421,23.8439684 19.8959598,23.575824 19.5292624,23.0975229 C19.1625649,22.6192219 19.0536461,21.9915388 19.2377635,21.4176576 L23.6431679,2.4374573 C24.0008291,1.06271924 25.2203228,0.0871243032 26.6400416,0.0399583164" id="Path" fill="#008089" fill-rule="nonzero"></path>
                    <path d="M24.9917611,17.9013257 L25.8808336,17.9013257 L26.1405627,17.0422219 L25.2514901,17.0422219 L24.9917611,17.9013257 Z M25.7010212,15.5337955 L25.4013338,16.5327534 C25.5692965,16.4477887 25.7428508,16.3743619 25.9207919,16.3129827 C26.0720748,16.2764284 26.2255711,16.2497334 26.3803126,16.233066 L26.6000833,15.5238059 L25.7010212,15.5337955 Z M26.1505523,14.0653274 L25.8508649,15.0642853 C26.0197049,14.9869755 26.1931929,14.9202493 26.370323,14.8644937 C26.5212977,14.8302586 26.6751387,14.8101924 26.8298436,14.8045562 L27.0396248,14.0853065 L26.1505523,14.0653274 Z M28.1484681,14.0653274 L26.9896769,17.8413883 L27.2993539,17.8413883 L27.059604,18.630565 L26.749927,18.630565 L26.6899895,18.9002837 L25.5911358,18.9002837 L25.6610629,18.6605338 L23.4333867,18.6605338 L23.6531575,17.9312945 L23.8829178,17.9312945 L25.0516986,14.0453482 L25.2814589,13.266161 L26.4102813,13.266161 L26.2904064,13.6557546 C26.4680869,13.5334187 26.6634946,13.439084 26.869802,13.3760464 C27.5035437,13.3072479 28.1403617,13.2705725 28.7778116,13.266161 L28.5380617,14.0453482 L28.1484681,14.0653274 Z" id="Shape" fill="#FFFFFF"></path>
                    <path d="M28.647947,13.2361923 L29.8466965,13.2361923 L29.8466965,13.6857234 C29.8466965,13.76564 29.906634,13.7956087 30.0464881,13.7956087 L30.286238,13.7956087 L30.0664673,14.5348376 L29.4171446,14.5348376 C28.8577282,14.5348376 28.647947,14.335046 28.6579366,14.0653274 L28.647947,13.2361923 Z" id="Path" fill="#FFFFFF" fill-rule="nonzero"></path>
                    <path d="M28.8077803,16.732545 L27.6689683,16.732545 L27.8587703,16.0732328 L29.1674051,16.0732328 L29.3472176,15.4838476 L28.0685514,15.4838476 L28.2883222,14.7446187 L31.8645915,14.7446187 L31.6448208,15.4838476 L30.4460713,15.4838476 L30.2562693,16.0732328 L31.4550188,16.0732328 L31.2652168,16.732545 L29.9865506,16.732545 L29.7567903,17.0122532 L30.286238,17.0122532 L30.4161025,17.8413883 C30.4161025,17.9213049 30.4161025,17.9712528 30.4161025,18.0012215 C30.5080338,18.0232811 30.6038795,18.0232811 30.6958107,18.0012215 L30.855644,18.0012215 L30.6059045,18.8003879 L29.9166236,18.8003879 C29.812852,18.7807418 29.7142379,18.739936 29.6269258,18.6805129 C29.5156675,18.6269463 29.4374162,18.5226113 29.4171446,18.4008047 L29.2872801,17.5716696 L28.6978949,18.3908151 C28.5045734,18.6851188 28.1705871,18.8559073 27.818812,18.8403462 L26.9896769,18.8403462 L27.2094476,18.1210965 L27.5291142,18.1210965 C27.6093013,18.1191243 27.6879425,18.0986093 27.7588745,18.061159 C27.8294105,18.0296547 27.8886555,17.9773796 27.9286973,17.9113153 L28.8077803,16.732545 Z" id="Path" fill="#FFFFFF" fill-rule="nonzero"></path>
                    <path d="M16.3208064,14.904452 L19.3176802,14.904452 L19.0979094,15.6336913 L17.9091495,15.6336913 L17.7193475,16.2430556 L18.9980136,16.2430556 L18.7782429,16.992274 L17.4895872,16.992274 L17.1898998,17.991232 C17.1898998,18.1011173 17.4895872,18.1111069 17.6094621,18.1111069 L18.2188265,18.0212007 L17.9990557,18.9002837 L16.6005146,18.9002837 C16.4941302,18.9088218 16.3872326,18.9088218 16.2808481,18.9002837 C16.1887692,18.87347 16.110252,18.8127976 16.0610774,18.7304608 C15.9787782,18.6459253 15.9516631,18.5219705 15.9911503,18.4107943 L16.3907335,17.0921698 L15.7014525,17.0921698 L15.9312128,16.3329618 L16.6204938,16.3329618 L16.8003062,15.7235975 L16.1010357,15.7235975 L16.3208064,14.904452 Z" id="Path" fill="#FFFFFF" fill-rule="nonzero"></path>
                    <path d="M18.348691,13.645765 L19.5873988,13.645765 L19.3576385,14.3949835 L17.6693996,14.3949835 L17.4895872,14.5548167 C17.4096705,14.6347334 17.3797018,14.5548167 17.279806,14.6547125 C17.1079367,14.7485201 16.9161373,14.7998949 16.7203896,14.8045562 L16.1809523,14.8045562 L16.4007231,14.0753169 L16.5605563,14.0753169 C16.6525312,14.0970049 16.7482897,14.0970049 16.8402645,14.0753169 C16.9155363,14.0081414 16.9766645,13.9266371 17.020077,13.835567 L17.3297539,13.2761506 L18.5684617,13.2761506 L18.348691,13.645765 Z" id="Path" fill="#FFFFFF" fill-rule="nonzero"></path>
                    <path d="M20.7262108,14.904452 C20.9926009,14.6917601 21.3089809,14.5507647 21.6452521,14.4948793 C21.7751166,14.4948793 22.64421,14.4948793 22.64421,14.4948793 L22.7740745,14.0853065 L20.9959294,14.0853065 L20.7262108,14.904452 Z M22.3645018,15.2241185 L20.626315,15.2241185 L20.5264192,15.5637642 L21.9948874,15.5637642 C22.0713326,15.5571793 22.1482024,15.5571793 22.2246477,15.5637642 L22.3645018,15.2241185 Z M20.1168465,13.2262027 L21.1757419,13.2262027 L21.0258982,13.76564 C21.1989419,13.623225 21.3864387,13.4993432 21.5853146,13.3960256 C21.8350107,13.3278233 22.0885229,13.2744523 22.3445226,13.2361923 L24.0527406,13.2361923 L23.4733451,15.1741706 C23.4167121,15.4032125 23.3185192,15.6199139 23.1836473,15.8135037 C23.1165207,15.9270524 23.0198528,16.0202679 22.9039391,16.0832223 C22.7814571,16.1543482 22.6452505,16.1986154 22.5043559,16.2130869 L21.9749082,16.2130869 L20.3366172,16.2130869 L19.867107,17.7414925 C19.867107,17.9013257 19.8071695,17.9712528 19.867107,18.0112111 C19.8991931,18.0627044 19.9563132,18.0931684 20.0169507,18.0911277 L20.74619,18.0212007 L20.4964505,18.8603253 L19.6872946,18.8603253 L19.107899,18.8603253 C18.99124,18.8746595 18.8729595,18.8537865 18.7682533,18.8003879 C18.6883367,18.7304608 18.5684617,18.6405546 18.5784513,18.5506484 C18.6004947,18.4125042 18.6305136,18.2757514 18.6683575,18.1410756 L20.1168465,13.2262027 Z" id="Shape" fill="#FFFFFF"></path>
                    <path d="M23.1936368,16.3629306 L23.1037306,16.8324408 C23.0779731,16.9657489 23.0116874,17.0878543 22.9139286,17.182076 C22.7598818,17.3244826 22.5537762,17.3968004 22.3445226,17.3818676 L21.7551375,17.3818676 L21.7551375,17.9013257 C21.7551375,18.0511694 21.7551375,18.0411798 21.7551375,18.061159 C21.7816036,18.0654489 21.8085879,18.0654489 21.8350541,18.061159 L22.0248561,18.061159 L22.5842725,18.061159 L22.3545122,18.8303566 L21.7051896,18.8303566 C21.4058028,18.8618776 21.1031322,18.8312705 20.816117,18.7404504 C20.7062316,18.6705233 20.6962421,18.5806171 20.6962421,18.4307734 L20.6962421,16.4328576 L21.6952,16.4328576 L21.6952,16.8524199 L21.9449395,16.8524199 C22.0041726,16.8654146 22.0655187,16.8654146 22.1247519,16.8524199 C22.1581724,16.8233034 22.1824573,16.7851413 22.1946789,16.7425346 L22.2945747,16.4128785 L23.1936368,16.3629306 Z" id="Path" fill="#FFFFFF" fill-rule="nonzero"></path>
                    <path d="M8.57888263,6.08365367 C8.57888263,6.25347651 7.87961209,9.28031898 7.87961209,9.29030856 C7.83599272,9.78826356 7.62467853,10.2566767 7.28023734,10.6189226 C7.08265318,10.7786923 6.83501721,10.863596 6.58096681,10.8586725 C6.40147682,10.8813363 6.22078779,10.8268939 6.08369591,10.7088425 C5.94660403,10.5907912 5.86594551,10.4201843 5.86171711,10.2393186 L5.86171711,10.0994645 L6.0115608,9.28031898 C6.0115608,9.28031898 6.70084176,6.51320557 6.8207167,6.14359114 C6.8207167,6.14359114 6.8207167,6.14359114 6.8207167,6.14359114 C6.28863533,6.1821091 5.75446542,6.1821091 5.22238405,6.14359114 L5.22238405,6.34338273 L4.52311351,9.4601314 L4.46317604,9.71986046 L4.34330109,10.5889538 C4.33720266,10.8114288 4.38882659,11.0316909 4.49314477,11.2282869 C4.81281131,11.7877033 5.73185258,11.8776095 6.2513107,11.8776095 C6.84611876,11.8986896 7.4357871,11.7607554 7.95952872,11.4780264 C8.54443827,11.0598999 8.92540933,10.4140632 9.00843453,9.6998813 L9.08835116,9.39020435 C9.08835116,9.39020435 9.80760085,6.52319515 9.9274758,6.14359114 C9.9274758,6.14359114 9.9274758,6.14359114 9.9274758,6.14359114 C9.47838788,6.17181908 9.02797055,6.17181908 8.57888263,6.14359114" id="Path" fill="#FFFFFF" fill-rule="nonzero"></path>
                    <path d="M12.5047872,11.7877033 C12.0252874,11.7877033 11.8654541,11.7877033 11.3060377,11.7877033 L11.3060377,11.7877033 L11.4558814,11.1483703 L11.5158189,10.8586725 C11.6110692,10.4836451 11.6844498,10.1034004 11.7355896,9.71986046 C11.7355896,9.62995425 11.7355896,9.39020435 11.5058293,9.39020435 C11.3791207,9.39880718 11.2560817,9.43640242 11.1462045,9.50008972 C11.0762774,9.73983962 10.9464129,10.419131 10.8764858,10.7188184 C10.7366317,11.368141 10.7266421,11.4380681 10.6667047,11.7677242 L10.6667047,11.7677242 C10.1772153,11.7677242 10.0073924,11.7677242 9.44797601,11.7677242 L9.44797601,11.7677242 C9.53788222,11.3881202 9.63777801,10.9985266 9.72768422,10.608933 C9.88729193,9.95072809 10.0073814,9.28356449 10.0873091,8.61101718 L10.0873091,8.61101718 C10.6367359,8.53110055 10.77659,8.51112139 11.3659752,8.39124644 L11.3659752,8.45118392 L11.276069,8.78084003 L11.5757564,8.61101718 C11.8167073,8.49779729 12.0787816,8.43653318 12.3449539,8.43120476 C12.6270759,8.39768963 12.8982264,8.55147645 13.0142557,8.81080876 C13.1241411,9.0805274 13.0142557,9.41018351 12.9043704,10.0595062 L12.8244537,10.3891623 C12.6746101,11.1184015 12.6446413,11.2582556 12.5647247,11.7577346 L12.5047872,11.7877033 Z" id="Path" fill="#FFFFFF" fill-rule="nonzero"></path>
                    <path d="M14.4427656,11.7877033 L13.7934429,11.7877033 L13.1640994,11.7877033 L13.1640994,11.7877033 L13.1640994,11.7877033 C13.2340265,11.5179847 13.2839744,11.4180889 13.3139431,11.3181931 C13.37306,11.1630732 13.4165633,11.0024454 13.4438076,10.8386933 C13.5337139,10.4790685 13.5836618,10.229329 13.6236201,9.99956868 C13.6635784,9.76980836 13.6835575,9.59998551 13.7035367,9.39020435 L13.7035367,9.39020435 L13.7035367,9.39020435 L14.3528593,9.30029814 L15.0221611,9.17043361 L15.0221611,9.23037109 C15.0221611,9.45014183 14.9122758,9.67990214 14.8623279,9.90966246 C14.81238,10.1394228 14.7524425,10.3591935 14.7024946,10.5889538 C14.5926092,11.0684536 14.5526509,11.2482661 14.5326718,11.3781306 C14.5126926,11.5079951 14.5326718,11.5679326 14.4527551,11.8176721 L14.4527551,11.8176721 L14.4427656,11.7877033 Z" id="Path" fill="#FFFFFF" fill-rule="nonzero"></path>
                    <path d="M17.4795976,10.0894749 C17.4246861,10.3614065 17.330461,10.6238905 17.1998894,10.8686621 C17.1250032,10.9996437 16.9905897,11.0855191 16.8402645,11.0984224 C16.8402645,11.0984224 16.5605563,11.0984224 16.5605563,10.7487871 C16.5640577,10.5663004 16.590915,10.3850134 16.640473,10.2093498 C16.7603479,9.65992299 16.9101916,9.21039193 17.2897956,9.21039193 C17.6693996,9.21039193 17.6094621,9.55003762 17.4795976,10.109454 M18.7183054,10.1594019 C18.8730162,9.74695072 18.8287832,9.28618967 18.5984305,8.91070455 C18.3024466,8.60484711 17.8832893,8.4504207 17.4596184,8.49114223 C16.9382282,8.44505568 16.4183417,8.59461207 16.0011399,8.91070455 C15.6734,9.25357509 15.4514296,9.68364268 15.3618068,10.1494124 C15.261911,10.5989434 15.1420361,11.3981097 15.8812649,11.6977971 C16.1312377,11.78695 16.395077,11.8309232 16.6604521,11.8276617 C17.2288465,11.8531919 17.781164,11.6351719 18.1788681,11.2282869 C18.4414188,10.9037507 18.6198439,10.5194505 18.6983263,10.109454" id="Shape" fill="#FFFFFF" fill-rule="nonzero"></path>
                    <path d="M30.3761442,11.8376512 C29.7967486,11.8376512 29.6269258,11.8376512 29.0974781,11.8376512 L29.0974781,11.8376512 C29.2373322,11.2882244 29.3871759,10.7487871 29.5170404,10.1893707 C29.6768737,9.48011056 29.716832,9.19041277 29.7767695,8.75087129 L29.7767695,8.75087129 C30.3461755,8.66096508 30.5060087,8.64098592 31.1053835,8.53110055 L31.1053835,8.58104844 C30.9954981,9.0305795 30.8956023,9.48011056 30.785717,9.92964162 C30.5659462,10.8786516 30.4860296,11.3581514 30.406113,11.8576304 L30.3761442,11.8376512 Z" id="Path" fill="#FFFFFF" fill-rule="nonzero"></path>
                    <path d="M29.5070508,10.1594019 C29.4503009,10.427636 29.3561445,10.6865662 29.2273426,10.9285995 C29.1091802,11.0666042 28.9393075,11.1497334 28.7578324,11.1583599 C28.7578324,11.1583599 28.4881138,11.1583599 28.4781242,10.8087246 C28.4865386,10.6266806 28.5133133,10.4459515 28.5580408,10.2692873 C28.6879053,9.71986046 28.837749,9.2703294 29.2073635,9.2703294 C29.5769779,9.2703294 29.6369154,9.60997509 29.5070508,10.1693915 M30.6458629,10.2193394 C30.8156857,9.49010014 30.1363943,10.1594019 30.0364985,9.90966246 C29.9366027,9.65992299 29.9665715,8.78084003 29.3072593,8.52111097 C28.7973011,8.45792895 28.2880647,8.64378166 27.9386869,9.02058992 C27.6084371,9.35634577 27.3888259,9.78511053 27.3093434,10.2493082 C27.2094476,10.6888496 27.0895727,11.4980055 27.8288015,11.7877033 C28.0361809,11.878648 28.2619941,11.9197049 28.4881138,11.9075783 C29.2273426,11.9075783 29.7967486,10.7487871 30.2163109,10.299256 C30.6358733,9.84972499 30.595915,10.4391102 30.6458629,10.2193394" id="Shape" fill="#FFFFFF" fill-rule="nonzero"></path>
                    <path d="M21.9948874,11.7877033 C21.5153876,11.7877033 21.3555543,11.7877033 20.7961379,11.7877033 L20.7961379,11.7877033 L20.9459815,11.1483703 L21.0159086,10.8586725 C21.1158044,10.4091414 21.2157002,9.85971457 21.2256898,9.71986046 C21.2356793,9.58000635 21.2256898,9.39020435 20.9959294,9.39020435 C20.8692208,9.39880718 20.7461818,9.43640242 20.6363046,9.50008972 C20.5763671,9.73983962 20.436513,10.419131 20.366586,10.7188184 C20.2367214,11.368141 20.2267319,11.4380681 20.1667944,11.7677242 L20.1667944,11.7677242 C19.6673154,11.7677242 19.4974926,11.7677242 18.9380761,11.7677242 L18.9380761,11.7677242 C19.0379719,11.3881202 19.1278782,10.9985266 19.2177844,10.608933 C19.3773921,9.95072809 19.4974815,9.28356449 19.5774092,8.61101718 L19.5774092,8.61101718 C20.1268361,8.53110055 20.2666902,8.51112139 20.8660649,8.39124644 L20.8660649,8.45118392 L20.7861483,8.78084003 L21.0858357,8.61101718 C21.322911,8.49684572 21.581944,8.43549581 21.8450437,8.43120476 C22.1271656,8.39768963 22.3983161,8.55147645 22.5143455,8.81080876 C22.6242308,9.0805274 22.5143455,9.41018351 22.4044601,10.0595062 L22.3245435,10.3891623 C22.1746998,11.1184015 22.144731,11.2582556 22.0648144,11.7577346 L21.9948874,11.7877033 Z" id="Path" fill="#FFFFFF" fill-rule="nonzero"></path>
                    <path d="M26.1006044,6.08365367 L25.7110108,6.08365367 C24.7120529,6.08365367 24.2625218,6.08365367 24.092699,6.08365367 C24.092699,6.15358072 24.092699,6.29343483 24.092699,6.29343483 L23.7230845,8.00165286 L22.8040433,11.8076825 C23.7031054,11.8076825 24.0727198,11.8076825 24.2225635,11.8076825 C24.2225635,11.6378596 24.472303,10.6189226 24.472303,10.6189226 C24.472303,10.6189226 24.6521154,9.86970415 24.662105,9.84972499 C24.6900265,9.80531717 24.7275825,9.76776116 24.7719903,9.73983962 L24.851907,9.73983962 C25.6657182,9.827869 26.4860977,9.64906836 27.1894685,9.23037109 C27.6696924,8.86789844 28.0002531,8.34184496 28.1184993,7.75191338 C28.1602878,7.58537165 28.180433,7.41413771 28.1784368,7.24244485 C28.1930137,7.0088412 28.1297817,6.77699057 27.9986244,6.58313262 C27.6489891,6.09364325 26.9996665,6.08365367 26.1405627,6.08365367 M26.6200625,7.91174664 C26.5459143,8.27966794 26.3063805,8.59290439 25.9707398,8.76086087 C25.6830374,8.87920781 25.3721534,8.93045242 25.0616881,8.91070455 L24.851907,8.91070455 L24.851907,8.82079834 L25.2415006,7.1225699 L25.2415006,6.91278873 L25.3913442,6.91278873 L26.2204793,6.98271579 C26.5486945,7.12890819 26.7062995,7.50540883 26.5801042,7.84181959" id="Shape" fill="#FFFFFF" fill-rule="nonzero"></path>
                    <path d="M35.081236,8.47116307 L35.0312881,8.47116307 C34.4419029,8.58104844 34.3420071,8.6010276 33.8025698,8.67095466 L33.8025698,8.72090255 C33.8025698,8.72090255 33.8025698,8.72090255 33.8025698,8.72090255 L33.8025698,8.72090255 C33.3929971,9.64993341 33.4129763,9.45014183 33.0833201,10.1793811 C33.0876936,10.1495719 33.0876936,10.1192841 33.0833201,10.0894749 L32.9834244,8.47116307 L32.9334765,8.47116307 C32.3241121,8.58104844 32.304133,8.6010276 31.734727,8.67095466 L31.734727,8.72090255 C31.734727,8.72090255 31.734727,8.72090255 31.734727,8.78084003 L31.734727,8.78084003 C31.7941966,9.06116556 31.8375559,9.34466822 31.8645915,9.62995425 C31.8645915,9.91965204 31.9345186,10.1993603 31.9644873,10.4790685 C32.0244248,10.9385891 32.0543935,11.1683494 32.1243206,11.8776095 C31.7447166,12.5169426 31.6448208,12.7566925 31.2851959,13.3161089 L31.2851959,13.3660568 L32.3840496,13.3660568 L32.4739558,13.266161 C32.7836328,12.5968592 35.151163,8.53110055 35.151163,8.53110055" id="Path" fill="#FFFFFF" fill-rule="nonzero"></path>
                    <path d="M15.002182,8.91070455 C15.3218485,8.69093381 15.3618068,8.39124644 15.0920882,8.23141318 C14.7443681,8.07922226 14.3422533,8.12095114 14.0331928,8.34129855 C13.7135263,8.56106929 13.6835575,8.86075666 13.9532762,9.02058992 C14.2975789,9.17306856 14.6969558,9.13122908 15.002182,8.91070455" id="Path" fill="#FFFFFF" fill-rule="nonzero"></path>
                    <path d="M32.3540809,13.2561715 L31.8945602,14.0453482 C31.7303131,14.3581267 31.3981097,14.5457239 31.045446,14.524848 L30.3062172,14.524848 L30.5259879,13.8055983 L30.665842,13.8055983 C30.7217609,13.818086 30.7797459,13.818086 30.8356649,13.8055983 C30.8799098,13.7906413 30.9160417,13.7581225 30.9355606,13.7156921 L31.2052793,13.2861402 L32.3540809,13.2561715 Z" id="Path" fill="#FFFFFF" fill-rule="nonzero"></path>
                </g>
            </g>
        </g>
    </g>
</svg>