<?xml version="1.0" encoding="UTF-8"?>
<svg width="40px" height="36px" viewBox="0 0 40 36" version="1.1" xmlns="http://www.w3.org/2000/svg" xmlns:xlink="http://www.w3.org/1999/xlink">
    <title>A8D2989D-435F-43F7-B3C4-A584B2BD080E@1x</title>
    <defs>
        <linearGradient x1="-55.958866%" y1="54.1957759%" x2="236.514493%" y2="54.1957759%" id="linearGradient-1">
            <stop stop-color="#007940" offset="0%"></stop>
            <stop stop-color="#19893C" offset="24%"></stop>
            <stop stop-color="#49A834" offset="75%"></stop>
            <stop stop-color="#5BB431" offset="100%"></stop>
        </linearGradient>
        <linearGradient x1="-114.324818%" y1="52.9875762%" x2="-25.1824818%" y2="52.9875762%" id="linearGradient-2">
            <stop stop-color="#007940" offset="0%"></stop>
            <stop stop-color="#19893C" offset="24%"></stop>
            <stop stop-color="#49A834" offset="75%"></stop>
            <stop stop-color="#5BB431" offset="100%"></stop>
        </linearGradient>
        <linearGradient x1="-423.69267%" y1="94.0092166%" x2="-142.287001%" y2="94.0092166%" id="linearGradient-3">
            <stop stop-color="#007940" offset="0%"></stop>
            <stop stop-color="#19893C" offset="24%"></stop>
            <stop stop-color="#49A834" offset="75%"></stop>
            <stop stop-color="#5BB431" offset="100%"></stop>
        </linearGradient>
        <linearGradient x1="-0.517335766%" y1="50.3563342%" x2="101.863139%" y2="50.3563342%" id="linearGradient-4">
            <stop stop-color="#1F286F" offset="0%"></stop>
            <stop stop-color="#1B3179" offset="11%"></stop>
            <stop stop-color="#085EA9" offset="71%"></stop>
            <stop stop-color="#006FBB" offset="100%"></stop>
        </linearGradient>
        <linearGradient x1="-0.836397059%" y1="50.4129782%" x2="99.1810662%" y2="50.4129782%" id="linearGradient-5">
            <stop stop-color="#6C2C2F" offset="0%"></stop>
            <stop stop-color="#A31833" offset="40%"></stop>
            <stop stop-color="#D30737" offset="80%"></stop>
            <stop stop-color="#E50038" offset="100%"></stop>
        </linearGradient>
    </defs>
    <g id="Branding" stroke="none" stroke-width="1" fill="none" fill-rule="evenodd">
        <g transform="translate(-148.000000, -1923.000000)" id="Group-7">
            <g transform="translate(148.000000, 1923.000000)">
                <rect id="Rectangle-Copy" x="0" y="0" width="40" height="36"></rect>
                <g id="Logo/Card/ITMX/40px-Copy" fill-rule="nonzero">
                    <g id="Logo-size40,24px-square-03" transform="translate(0.000000, 3.000000)">
                        <path d="M40,24.6 C39.9944941,28.0329279 37.2129279,30.8144941 33.78,30.82 L0,30.82 L0,6.22 C0.00550590947,2.78707206 2.78707206,0.00550590947 6.22,1.77635684e-15 L40,1.77635684e-15 L40,24.6 Z" id="Path" fill="#FFFFFF"></path>
                        <path d="M29,18.29 L31.57,18.29 L31.88,18.29 C32.4057499,18.1590157 32.774737,17.6868208 32.774737,17.145 C32.774737,16.6031792 32.4057499,16.1309843 31.88,16 C31.7769013,15.9901515 31.6730987,15.9901515 31.57,16 L29,16 L29,18.29 Z" id="Path" fill="url(#linearGradient-1)"></path>
                        <path d="M31.26,2.08 C28.8078557,2.08 26.82,4.06785571 26.82,6.52 L26.82,11.14 L33.54,11.14 C34.96,11.22 36.01,11.95 36.01,13.22 C35.9504751,14.2989524 35.0889524,15.1604751 34.01,15.22 L34.01,15.27 C35.45,15.37 36.56,16.16 36.56,17.41 C36.56,18.66 35.34,19.63 33.73,19.63 L26.82,19.63 L26.82,28.6900113 L33.33,28.6900113 C34.5092929,28.6926561 35.641195,28.2260445 36.4760206,27.3930949 C37.3108462,26.5601454 37.78,25.4292959 37.78,24.25 L37.78,2.08 L31.26,2.08 Z" id="Path" fill="url(#linearGradient-2)"></path>
                        <path d="M32.47,13.55 C32.4810993,13.0179904 32.0960462,12.560205 31.57,12.48 L31.32,12.48 L29,12.48 L29,14.65 L31.33,14.65 L31.58,14.65 C32.116274,14.5682848 32.5020216,14.0915181 32.47,13.55 Z" id="Path" fill="url(#linearGradient-3)"></path>
                        <path d="M6.67,2.07998872 C5.49070712,2.07734393 4.35880502,2.54395549 3.52397943,3.37690506 C2.68915384,4.20985464 2.22,5.34070412 2.22,6.52 L2.22,17.52 C3.4126868,18.1363097 4.72814516,18.4779872 6.07,18.52 C6.68845566,18.5901732 7.30681884,18.3876072 7.76388355,17.9651104 C8.22094826,17.5426136 8.47141952,16.9420554 8.45,16.32 L8.45,11.14 L12.27,11.14 L12.27,16.29 C12.27,18.29 11.03,19.93 6.78,19.93 C5.24466062,19.9399028 3.71369133,19.7653186 2.22,19.41 L2.22,28.77 L8.74,28.77 C11.1921443,28.77 13.18,26.7821443 13.18,24.33 L13.18,2.07998872 L6.67,2.07998872 Z" id="Path" fill="url(#linearGradient-4)"></path>
                        <path d="M19,2.08 C16.5478557,2.08 14.56,4.06785571 14.56,6.52 L14.56,12.34 C15.69,11.34 17.63,10.77 20.79,10.91 C21.9696128,10.9868409 23.1405228,11.1641502 24.29,11.44 L24.29,13.32 C23.2444233,12.7656842 22.0986955,12.4257056 20.92,12.32 C18.52,12.14 17.07,13.32 17.07,15.39 C17.07,17.46 18.52,18.64 20.92,18.46 C22.09895,18.3556273 23.244937,18.0155719 24.29,17.46 L24.29,19.41 C23.1405228,19.6858498 21.9696128,19.8631591 20.79,19.94 C17.63,20.08 15.69,19.48 14.56,18.51 L14.56,28.74 L21,28.74 C22.1775612,28.74 23.3068926,28.2722156 24.1395541,27.4395541 C24.9722156,26.6068926 25.44,25.4775612 25.44,24.3 L25.44,2.08 L19,2.08 Z" id="Path" fill="url(#linearGradient-5)"></path>
                    </g>
                </g>
            </g>
        </g>
    </g>
</svg>