<?xml version="1.0" encoding="UTF-8"?>
<svg width="40px" height="36px" viewBox="0 0 40 36" version="1.1" xmlns="http://www.w3.org/2000/svg" xmlns:xlink="http://www.w3.org/1999/xlink">
    <title>CAC115E4-F997-45FD-A629-461FD48E033F@1x</title>
    <g id="Branding" stroke="none" stroke-width="1" fill="none" fill-rule="evenodd">
        <g transform="translate(-196.000000, -1923.000000)" id="Group-5">
            <g transform="translate(195.000000, 1923.000000)">
                <rect id="Rectangle" x="1" y="0" width="40" height="36"></rect>
                <g id="Logo-size40,24px-square-02" transform="translate(0.000000, 1.000000)">
                    <rect id="Rectangle" x="0" y="0" width="42" height="34.4505"></rect>
                    <path d="M10.395,30.114 L10.395,28.392 C10.395,27.812101 9.92489899,27.342 9.345,27.342 C8.95853309,27.3123625 8.58717014,27.498044 8.379,27.825 C8.18223545,27.5181819 7.84043039,27.3353559 7.476,27.342 C7.15828296,27.325128 6.85513263,27.4767032 6.678,27.741 L6.678,27.405 L6.0585,27.405 L6.0585,30.1455 L6.6675,30.1455 L6.6675,28.5915 C6.64162554,28.4000506 6.70354657,28.2071503 6.83601568,28.0665293 C6.96848479,27.9259082 7.15734815,27.8525912 7.35,27.867 C7.749,27.867 7.9485,28.119 7.9485,28.5915 L7.9485,30.114 L8.547,30.114 L8.547,28.5915 C8.52160144,28.4019882 8.58219908,28.2110394 8.71222758,28.0708524 C8.84225608,27.9306654 9.02811618,27.855902 9.219,27.867 C9.6285,27.867 9.8175,28.119 9.8175,28.5915 L9.8175,30.114 L10.395,30.114 Z M19.2885,27.3735 L18.312,27.3735 L18.312,26.544 L17.7135,26.544 L17.7135,27.3735 L17.157,27.3735 L17.157,27.9195 L17.7135,27.9195 L17.7135,29.169 C17.7135,29.799 17.9655,30.219 18.669,30.219 C18.928685,30.2181698 19.1830742,30.1454872 19.404,30.009 L19.236,29.4945 C19.0780311,29.592556 18.8968581,29.6469079 18.711,29.652 C18.417,29.652 18.312,29.4735 18.312,29.2005 L18.312,27.9195 L19.2885,27.9195 L19.2885,27.3735 Z M24.36,27.3105 C24.0661769,27.2997831 23.7908538,27.4536401 23.646,27.7095 L23.646,27.3735 L23.1,27.3735 L23.1,30.114 L23.688,30.114 L23.688,28.581 C23.688,28.119 23.8875,27.867 24.276,27.867 C24.4021509,27.867 24.5270531,27.8919804 24.6435,27.9405 L24.8325,27.384 C24.694265,27.3350387 24.5486493,27.3101774 24.402,27.3105 L24.36,27.3105 Z M16.695,27.594 C16.3544979,27.3960066 15.9651762,27.2977665 15.5715,27.3105 C14.8785,27.3105 14.4375,27.636 14.4375,28.182 C14.4375,28.728 14.7735,28.9065 15.3825,28.9905 L15.666,28.9905 C15.9915,28.9905 16.1385,29.1165 16.1385,29.274 C16.1385,29.4315 15.9285,29.5995 15.519,29.5995 C15.1911888,29.6111207 14.869134,29.5111727 14.6055,29.316 L14.3325,29.778 C14.6758677,30.0204529 15.0882961,30.1456544 15.5085,30.135 C16.3065,30.135 16.758,29.7675 16.758,29.2425 C16.758,28.7175 16.401,28.5075 15.8025,28.4235 L15.5295,28.4235 C15.267,28.4235 15.057,28.3395 15.057,28.161 C15.057,27.9825 15.2565,27.8355 15.582,27.8355 C15.8815441,27.8415656 16.1744675,27.9247414 16.4325,28.077 L16.695,27.594 Z M32.634,27.3105 C32.3375989,27.3005561 32.0595429,27.4536883 31.9095,27.7095 L31.9095,27.3735 L31.3215,27.3735 L31.3215,30.114 L31.92,30.114 L31.92,28.581 C31.92,28.119 32.109,27.867 32.4975,27.867 C32.6271558,27.8658833 32.7557096,27.8908799 32.8755,27.9405 L33.054,27.384 C32.9191401,27.336015 32.7771409,27.3111652 32.634,27.3105 L32.634,27.3105 Z M24.969,28.77 C24.9536617,29.1597145 25.1032309,29.537856 25.3810051,29.8116335 C25.6587794,30.085411 26.0390487,30.2294844 26.4285,30.2085 C26.7915511,30.20784 27.1407203,30.0689233 27.405,29.82 L27.1215,29.337 C26.9181783,29.4981217 26.666913,29.5868036 26.4075,29.589 C26.1780972,29.58946 25.9587467,29.4948971 25.8015838,29.3277873 C25.6444209,29.1606774 25.5634803,28.9359433 25.578,28.707 C25.5633295,28.4790063 25.6445584,28.2552479 25.8020708,28.0897602 C25.9595832,27.9242725 26.1790601,27.8320995 26.4075,27.8355 C26.6650479,27.8384819 26.9150211,27.9230316 27.1215,28.077 L27.405,27.6045 C26.9715341,27.2568588 26.3815191,27.1770225 25.8712522,27.3969651 C25.3609853,27.6169078 25.0138993,28.1006669 24.969,28.6545 L24.969,28.77 Z M30.534,28.77 L30.534,27.405 L29.946,27.405 L29.946,27.72 C29.7366922,27.454432 29.4122996,27.3059149 29.0745,27.321 C28.33036,27.3847508 27.7587872,28.0073842 27.7587872,28.75425 C27.7587872,29.5011158 28.33036,30.1237492 29.0745,30.1875 C29.4122996,30.2025851 29.7366922,30.054068 29.946,29.7885 L29.946,30.1245 L30.534,30.1245 L30.534,28.77 Z M28.35,28.77 C28.3785503,28.3198239 28.7616059,27.9749784 29.212297,27.9937178 C29.6629882,28.0124572 30.0160943,28.3879117 30.0071746,28.8389041 C29.998255,29.2898964 29.6305796,29.6510956 29.1795,29.652 C28.9491002,29.6556392 28.7278264,29.562051 28.5699612,29.3941943 C28.4120959,29.2263375 28.332246,28.9997436 28.35,28.77 L28.35,28.77 Z M21.1785,27.342 C20.7970241,27.3229608 20.4256963,27.4684142 20.158645,27.7414893 C19.8915937,28.0145643 19.7544578,28.3890436 19.782,28.77 C19.7547527,29.1518341 19.8916215,29.5271688 20.1582661,29.8018329 C20.4249108,30.0764969 20.7960263,30.2244243 21.1785,30.2085 C21.5878326,30.220255 21.9873646,30.082099 22.302,29.82 L22.05,29.358 C21.8262478,29.5372968 21.5491922,29.6370368 21.2625,29.6415 C20.8519554,29.6782209 20.4876592,29.3793112 20.4435,28.9695 L22.47,28.9695 C22.4754714,28.8925972 22.4754714,28.8154028 22.47,28.7385 C22.5054667,28.3737521 22.3855756,28.010946 22.1397596,27.7391494 C21.8939436,27.4673528 21.5449661,27.3117351 21.1785,27.3105 L21.1785,27.342 Z M21.1785,27.867 C21.3567318,27.8641934 21.5287764,27.9323153 21.6567748,28.0563752 C21.7847732,28.1804352 21.8582369,28.3502675 21.861,28.5285 L20.4015,28.5285 C20.4294609,28.1465733 20.7537482,27.8547147 21.1365,27.867 L21.1785,27.867 Z M36.057,28.77 L36.057,26.271 L35.4585,26.271 L35.4585,27.72 C35.2513993,27.4574978 34.9316584,27.3093252 34.5975,27.321 C33.85336,27.3847508 33.2817872,28.0073842 33.2817872,28.75425 C33.2817872,29.5011158 33.85336,30.1237492 34.5975,30.1875 C34.9316584,30.1991748 35.2513993,30.0510022 35.4585,29.7885 L35.4585,30.1245 L36.057,30.1245 L36.057,28.77 Z M33.8415,28.77 C33.8700503,28.3198239 34.2531059,27.9749784 34.703797,27.9937178 C35.1544882,28.0124572 35.5075943,28.3879117 35.4986746,28.8389041 C35.489755,29.2898964 35.1220796,29.6510956 34.671,29.652 C34.4406002,29.6556392 34.2193264,29.562051 34.0614612,29.3941943 C33.9035959,29.2263375 33.823746,28.9997436 33.8415,28.77 L33.8415,28.77 Z M13.755,28.77 L13.755,27.405 L13.1565,27.405 L13.1565,27.72 C12.9493993,27.4574978 12.6296584,27.3093252 12.2955,27.321 C11.55136,27.3847508 10.9797872,28.0073842 10.9797872,28.75425 C10.9797872,29.5011158 11.55136,30.1237492 12.2955,30.1875 C12.6296584,30.1991748 12.9493993,30.0510022 13.1565,29.7885 L13.1565,30.1245 L13.755,30.1245 L13.755,28.77 Z M11.55,28.77 C11.5785503,28.3198239 11.9616059,27.9749784 12.412297,27.9937178 C12.8629882,28.0124572 13.2160943,28.3879117 13.2071746,28.8389041 C13.198255,29.2898964 12.8305796,29.6510956 12.3795,29.652 C12.1491002,29.6556392 11.9278264,29.562051 11.7699612,29.3941943 C11.6120959,29.2263375 11.532246,28.9997436 11.55,28.77 L11.55,28.77 Z M37.065,29.7465 C37.0992975,29.7365826 37.1357025,29.7365826 37.17,29.7465 L37.254,29.7465 C37.2809426,29.7736058 37.3023418,29.8057046 37.317,29.841 C37.3228744,29.8757535 37.3228744,29.9112465 37.317,29.946 C37.3218848,29.9808296 37.3218848,30.0161704 37.317,30.051 C37.302131,30.0831129 37.2806651,30.1117341 37.254,30.135 L37.17,30.198 L37.065,30.198 L36.9495,30.198 L36.8655,30.135 C36.8360646,30.1144502 36.8139859,30.0850119 36.8025,30.051 C36.7976152,30.0161704 36.7976152,29.9808296 36.8025,29.946 C36.7966256,29.9112465 36.7966256,29.8757535 36.8025,29.841 C36.818848,29.831407 36.836546,29.8243278 36.855,29.82 L36.939,29.82 C36.962579,29.77146 37.0039391,29.7338599 37.0545,29.715 L37.065,29.7465 Z M37.065,30.2295 L37.1385,30.2295 L37.212,30.2295 C37.2150155,30.2086083 37.2150155,30.1873917 37.212,30.1665 C37.2156281,30.1386175 37.2156281,30.1103825 37.212,30.0825 C37.2179615,30.0548173 37.2179615,30.0261827 37.212,29.9985 C37.2174251,29.9743003 37.2174251,29.9491997 37.212,29.925 L37.1385,29.925 L36.981,29.925 L36.9075,29.925 C36.9020749,29.9491997 36.9020749,29.9743003 36.9075,29.9985 C36.9015385,30.0261827 36.9015385,30.0548173 36.9075,30.0825 C36.9038719,30.1103825 36.9038719,30.1386175 36.9075,30.1665 C36.9044845,30.1873917 36.9044845,30.2086083 36.9075,30.2295 L36.981,30.2295 L37.065,30.2295 Z M37.065,29.8935 C37.065,29.8935 37.128,29.8935 37.1385,29.8935 L37.0755,29.8935 L37.1595,29.988 L37.0965,29.988 L37.0125,29.8935 L37.0125,29.8935 L37.0125,29.988 L36.96,29.988 L36.96,29.82 L37.065,29.8935 Z" id="Shape" fill="#000000" fill-rule="nonzero"></path>
                    <rect id="Rectangle" fill="#F26522" fill-rule="nonzero" x="16.4955" y="6.531" width="9.009" height="16.191"></rect>
                    <path d="M17.0625,14.6265 C17.062362,11.4665636 18.5141064,8.48177707 21,6.531 C16.7763479,3.21378796 10.7127871,3.69840412 7.06962641,7.64435307 C3.42646576,11.590302 3.42646576,17.673198 7.06962641,21.6191469 C10.7127871,25.5650959 16.7763479,26.049712 21,22.7325 C18.5137107,20.777428 17.0622726,17.7894007 17.0625,14.6265 Z" id="Path" fill="#E51B24" fill-rule="nonzero"></path>
                    <path d="M36.7117059,21.0809118 L36.7117059,20.6979706 L36.8722941,20.6979706 L36.8722941,20.6115 L36.477,20.6115 L36.477,20.6979706 L36.6252353,20.6979706 L36.6252353,21.0809118 L36.7117059,21.0809118 Z M37.4899412,21.0809118 L37.4899412,20.6115 L37.3664118,20.6115 L37.2305294,20.9326765 L37.0946471,20.6115 L36.9711176,20.6115 L36.9711176,21.0809118 L37.0575882,21.0809118 L37.0575882,20.7226765 L37.1811176,21.0315 L37.2799412,21.0315 L37.4034706,20.7226765 L37.4034706,21.0809118 L37.4899412,21.0809118 Z" id="Shape" fill="#231F20" fill-rule="nonzero"></path>
                    <path d="M37.6635,14.6265 C37.6574931,18.5668493 35.4063176,22.1592465 31.8629656,23.8829187 C28.3196137,25.6065908 24.1037189,25.1601157 21,22.7325 C23.4863749,20.7797273 24.9382559,17.7932973 24.9382559,14.63175 C24.9382559,11.4702027 23.4863749,8.48377273 21,6.531 C24.1001019,4.09574409 28.3182311,3.6434833 31.8641401,5.36616499 C35.4100491,7.08884667 37.6617183,10.6842799 37.6635,14.6265 Z" id="Path" fill="#F99F1C" fill-rule="nonzero"></path>
                </g>
            </g>
        </g>
    </g>
</svg>