<?xml version="1.0" encoding="UTF-8"?>
<svg width="40px" height="36px" viewBox="0 0 40 36" version="1.1" xmlns="http://www.w3.org/2000/svg" xmlns:xlink="http://www.w3.org/1999/xlink">
    <title>29B2621D-EFCF-435A-BA06-918CA10CB670@1x</title>
    <defs>
        <linearGradient x1="49.9340832%" y1="100%" x2="49.9340832%" y2="0%" id="linearGradient-1">
            <stop stop-color="#FFFFFF" offset="0%"></stop>
            <stop stop-color="#D7282F" offset="100%"></stop>
        </linearGradient>
        <linearGradient x1="49.9829557%" y1="-0.318268619%" x2="49.9829557%" y2="99.6817314%" id="linearGradient-2">
            <stop stop-color="#FFFFFF" offset="0%"></stop>
            <stop stop-color="#0071CE" offset="100%"></stop>
        </linearGradient>
    </defs>
    <g id="Branding" stroke="none" stroke-width="1" fill="none" fill-rule="evenodd">
        <g transform="translate(-100.000000, -1923.000000)" id="Group-8">
            <g transform="translate(100.000000, 1923.000000)">
                <rect id="Rectangle" x="0" y="0" width="40" height="36"></rect>
                <g id="Logo/Card/ITMX/40px" fill-rule="nonzero">
                    <g id="Logo-size40,24px-square-05" transform="translate(2.000000, 5.000000)">
                        <path d="M1.29789474,14.5421053 C1.29789474,14.5421053 4.47157895,1.36421053 18,8.41432187e-16 C25.3421053,0.426315789 24.0536842,5.21052632 24.0536842,5.21052632 C23.2559878,3.88174065 21.680353,3.23453617 20.1789474,3.61894737 C14.9579808,4.90840883 11.2284674,9.50839986 11.0463158,14.8831579 L1.29789474,14.5421053 Z" id="Path" fill="url(#linearGradient-1)"></path>
                        <path d="M35.4694737,0.985263158 C35.4694737,0.985263158 32.2957895,14.1821053 18.7863158,15.5747368 C11.4442105,15.1578947 12.7326316,10.3642105 12.7326316,10.3642105 C13.5275478,11.6966012 15.1037934,12.3479106 16.6073684,11.9652632 C21.8279986,10.6691384 25.5556809,6.0675389 25.74,0.691578947 L35.4694737,0.985263158 Z" id="Path" fill="url(#linearGradient-2)"></path>
                        <rect id="Rectangle" fill="#1A4984" x="0" y="17.7157895" width="36" height="7.74947368"></rect>
                        <g id="Group" transform="translate(1.771579, 18.964965)" fill="#FFFFFF">
                            <path d="M-8.41432187e-16,0.0771402654 L1.67684211,0.0771402654 C1.90391509,0.0607484677 2.13187438,0.0607484677 2.35894737,0.0771402654 C2.54731696,0.101579817 2.72823958,0.16619504 2.88947368,0.26661395 C3.05048977,0.370895766 3.17860979,0.518726556 3.25894737,0.692929739 C3.34512203,0.870096335 3.39044582,1.06434117 3.39157895,1.26135079 C3.41141246,1.62147768 3.26471572,1.97075563 2.99368421,2.20871921 C2.62605213,2.47359608 2.17566886,2.59795564 1.72421053,2.55924553 L0.587368421,2.55924553 L0.587368421,4.27398237 L-8.41432187e-16,4.27398237 L-8.41432187e-16,0.0771402654 Z M0.587368421,2.08556132 L1.73368421,2.08556132 C2.42526316,2.08556132 2.77578947,1.82977184 2.77578947,1.30871921 C2.77993241,1.14998643 2.73348308,0.994049402 2.64315789,0.863456055 C2.56505409,0.746868289 2.44719564,0.662683679 2.31157895,0.62661395 C2.11654185,0.602339856 1.91924762,0.602339856 1.72421053,0.62661395 L0.587368421,0.62661395 L0.587368421,2.08556132 Z" id="Shape"></path>
                            <path d="M5.80736842,1.34661395 L5.61789474,1.82029816 C5.497609,1.74797836 5.36033609,1.70875752 5.22,1.70661395 C5.02713742,1.69845045 4.84667115,1.80157403 4.75578947,1.97187711 C4.64128427,2.19722622 4.58895946,2.44903934 4.60421053,2.70135079 L4.60421053,4.30240342 L4.05473684,4.30240342 L4.05473684,1.24240342 L4.55684211,1.24240342 L4.55684211,1.69714027 L4.55684211,1.69714027 C4.65672865,1.40064327 4.92661806,1.19447775 5.23894737,1.17608763 C5.44070511,1.17822691 5.63775089,1.23734065 5.80736842,1.34661395 L5.80736842,1.34661395 Z" id="Path"></path>
                            <path d="M7.45578947,1.17608763 C7.85393753,1.16258956 8.2415658,1.30539997 8.53578947,1.57398237 C8.83568567,1.87728479 8.99093804,2.29474116 8.96210526,2.72029816 C9.01355195,3.19266273 8.8419211,3.66202056 8.49789474,3.98977184 C8.20420338,4.23061942 7.83560249,4.36130519 7.45578947,4.35924553 C7.06758695,4.367414 6.68993614,4.23253871 6.39473684,3.98029816 C5.81482195,3.27944226 5.81482195,2.26536458 6.39473684,1.56450869 C6.68462298,1.30226232 7.0651038,1.16297916 7.45578947,1.17608763 Z M7.45578947,3.93292974 C7.73135565,3.9498342 7.9974185,3.82921904 8.16631579,3.61082448 C8.33534127,3.3561401 8.41834374,3.05401109 8.40315789,2.74871921 C8.42525096,2.43678441 8.32692624,2.12824821 8.12842105,1.88661395 C7.9501827,1.70432821 7.70599772,1.60157396 7.45105263,1.60157396 C7.19610754,1.60157396 6.95192256,1.70432821 6.77368421,1.88661395 C6.57819783,2.13679352 6.4835546,2.45114422 6.50842105,2.76766658 C6.4841025,3.08121218 6.57881468,3.39240935 6.77368421,3.63924553 C6.94588447,3.83395524 7.19600333,3.94164531 7.45578947,3.93292974 L7.45578947,3.93292974 Z" id="Shape"></path>
                            <path d="M13.9452632,4.29292974 L13.3863158,4.29292974 L13.3863158,2.3981929 C13.3972475,2.27844186 13.3972475,2.15794393 13.3863158,2.0381929 C13.3608195,1.93546657 13.3046432,1.84294093 13.2252632,1.77292974 C13.1150374,1.68607823 12.9769746,1.64230223 12.8368421,1.64977184 C12.6295941,1.64866786 12.4297152,1.72658677 12.2778947,1.86766658 C12.1130222,2.05871034 12.0311831,2.30763771 12.0505263,2.55924553 L12.0505263,4.33082448 L11.4915789,4.33082448 L11.4915789,2.29398237 C11.5137047,2.10252376 11.4629747,1.90974971 11.3494737,1.75398237 C11.2356768,1.65091915 11.0860494,1.59650918 10.9326316,1.60240342 C10.7155635,1.59818423 10.5064107,1.68390259 10.3547368,1.83924553 C10.1730869,2.08772784 10.0918889,2.39560356 10.1273684,2.70135079 L10.1273684,4.28345605 L9.59684211,4.28345605 L9.59684211,1.24240342 L10.0894737,1.24240342 L10.0894737,1.66871921 L10.0894737,1.66871921 C10.2921992,1.3444673 10.6549698,1.15582658 11.0368421,1.17608763 C11.238119,1.16500717 11.4384346,1.21098124 11.6147368,1.30871921 C11.7702131,1.39632662 11.8881813,1.53788841 11.9463158,1.70661395 C12.1492515,1.37798667 12.5074497,1.17739567 12.8936842,1.17608763 C13.1685197,1.14815339 13.4418577,1.2415727 13.6421053,1.43187711 C13.8252278,1.63972291 13.9143616,1.91398054 13.8884211,2.18977184 L13.9452632,4.29292974 Z" id="Path"></path>
                            <path d="M15.2810526,1.63082448 C15.4903387,1.31788409 15.8533484,1.14363942 16.2284211,1.17608763 C16.6075047,1.15992522 16.9734247,1.31674804 17.2231579,1.60240342 C17.4794517,1.92435739 17.6106781,2.32813096 17.5926316,2.73924553 C17.6132733,3.17321453 17.4637129,3.59810196 17.1757895,3.92345605 C16.9254106,4.2092754 16.560905,4.36896358 16.1810526,4.35924553 C15.8573466,4.36900858 15.5481302,4.22494187 15.3473684,3.97082448 L15.3473684,3.97082448 L15.3473684,5.4581929 L14.7978947,5.4581929 L14.7978947,1.24240342 L15.2810526,1.24240342 L15.2810526,1.63082448 Z M16.1242105,3.93292974 C16.3697746,3.93823705 16.6040293,3.82985056 16.7589474,3.63924553 C16.9499022,3.36224642 17.0371166,3.02680638 17.0052632,2.69187711 C17.0261455,2.38598727 16.942649,2.08205997 16.7684211,1.82977184 C16.6223933,1.62736374 16.388007,1.50744449 16.1384211,1.50744449 C15.8888351,1.50744449 15.6544488,1.62736374 15.5084211,1.82977184 C15.3347087,2.08624309 15.2483292,2.39189366 15.2621053,2.70135079 C15.2395418,3.00445152 15.3232895,3.30594312 15.4989474,3.55398237 C15.629932,3.77785101 15.8651407,3.92040173 16.1242105,3.93292974 L16.1242105,3.93292974 Z" id="Shape"></path>
                            <path d="M19.4684211,4.28345605 C19.3328475,4.29428612 19.1966262,4.29428612 19.0610526,4.28345605 C18.8786007,4.3001035 18.6956909,4.25687028 18.54,4.16029816 C18.4327952,4.09294296 18.3601823,3.98229479 18.3410526,3.85714027 C18.3231577,3.68708342 18.3231577,3.51561816 18.3410526,3.34556132 L18.3410526,1.64029816 L17.9431579,1.64029816 L17.9431579,1.24240342 L18.3410526,1.24240342 L18.3410526,0.484508686 L18.8810526,0.171877108 L18.8810526,1.24240342 L19.4305263,1.24240342 L19.4305263,1.64029816 L18.8810526,1.64029816 L18.8810526,3.42135079 C18.8735505,3.53481501 18.8930295,3.64844278 18.9378947,3.75292974 C18.9378947,3.81924553 19.0515789,3.84766658 19.1842105,3.84766658 C19.2660518,3.85697789 19.348685,3.85697789 19.4305263,3.84766658 L19.4684211,4.28345605 Z" id="Path"></path>
                            <path d="M23.8073684,2.95714027 C23.6158576,3.83293941 22.8061585,4.43211673 21.9126316,4.35924553 C21.3096685,4.41100715 20.7182542,4.17162516 20.3210526,3.715035 C19.9859336,3.26410298 19.8124011,2.71347113 19.8284211,2.15187711 C19.7962804,1.56868531 20.0092118,0.998578681 20.4157895,0.579245529 C20.8146522,0.189926889 21.3556315,-0.0189321798 21.9126316,0.00135079175 C22.3051417,-0.00831031073 22.6914394,0.100645439 23.0210526,0.313982371 C23.3397671,0.544916121 23.567664,0.880058662 23.6652632,1.26135079 L23.0873684,1.39398237 C23.0117645,1.13189151 22.8560746,0.90001285 22.6421053,0.730824476 C22.4257232,0.580424428 22.1665236,0.503993765 21.9031579,0.512929739 C21.4881202,0.486073525 21.0835012,0.650013978 20.8042105,0.958192897 C20.5348294,1.30662641 20.4002685,1.74058534 20.4252632,2.18029816 C20.3906492,2.65041071 20.5325161,3.11654491 20.8231579,3.48766658 C21.3300046,3.99825875 22.1321414,4.06644037 22.7178947,3.64871921 C22.9527866,3.43671232 23.1123867,3.15408711 23.1726316,2.84345605 L23.8073684,2.95714027 Z" id="Path"></path>
                            <path d="M27.2178947,4.29292974 L26.6494737,4.29292974 C26.5879445,4.17494437 26.5493672,4.04635319 26.5357895,3.91398237 C26.203727,4.19369896 25.7856723,4.35088754 25.3515789,4.35924553 C25.0637058,4.37702538 24.7787232,4.29320698 24.5463158,4.12240342 C24.3632033,3.96229402 24.2581573,3.73090557 24.2581573,3.48766658 C24.2581573,3.24442759 24.3632033,3.01303914 24.5463158,2.85292974 C24.8275366,2.66260884 25.1547367,2.55136082 25.4936842,2.53082448 L26.0052632,2.455035 C26.1632185,2.43662748 26.3188069,2.40169947 26.4694737,2.35082448 C26.4817533,2.24063923 26.4817533,2.12943077 26.4694737,2.01924553 C26.4540577,1.94808072 26.4251119,1.88054066 26.3842105,1.82029816 C26.3225736,1.74475825 26.2402775,1.68879695 26.1473684,1.65924553 C26.0078232,1.60891962 25.8597775,1.58639093 25.7115789,1.59292974 C25.5174203,1.58100989 25.323801,1.62367175 25.1526316,1.71608763 C25.0015515,1.82836104 24.8997184,1.99468843 24.8684211,2.18029816 L24.3378947,2.11398237 C24.3802401,1.82276574 24.5459257,1.56388193 24.7926316,1.40345605 C25.09718,1.23812846 25.4412364,1.15948702 25.7873684,1.17608763 C26.0848444,1.15434475 26.3826768,1.21325665 26.6494737,1.34661395 C26.808792,1.42487738 26.9287585,1.56540946 26.9810526,1.735035 C27.0273242,1.93054924 27.0495936,2.13097434 27.0473684,2.33187711 L27.0473684,3.02345605 C27.0473684,3.44977184 27.0473684,3.73398237 27.0473684,3.87608763 C27.0748238,4.0253175 27.132885,4.16724488 27.2178947,4.29292974 Z M26.4978947,2.94766658 L26.4978947,2.7581929 C26.157624,2.86138365 25.8088988,2.9342989 25.4557895,2.97608763 C25.0389474,3.02345605 24.84,3.19398237 24.84,3.46871921 C24.8347277,3.60455607 24.8945527,3.73476346 25.0010526,3.81924553 C25.1436237,3.91432495 25.3130783,3.96084188 25.4842105,3.95187711 C25.7394659,3.95530189 25.9888902,3.8754861 26.1947368,3.72450869 C26.4104501,3.52635185 26.5223706,3.23955576 26.4978947,2.94766658 L26.4978947,2.94766658 Z" id="Shape"></path>
                            <path d="M29.6147368,1.34661395 L29.4252632,1.82029816 C29.3049774,1.74797836 29.1677045,1.70875752 29.0273684,1.70661395 C28.8345058,1.69845045 28.6540396,1.80157403 28.5631579,1.97187711 C28.4486527,2.19722622 28.3963279,2.44903934 28.4115789,2.70135079 L28.4115789,4.30240342 L27.8621053,4.30240342 L27.8621053,1.24240342 L28.3642105,1.24240342 L28.3642105,1.69714027 L28.3642105,1.69714027 C28.4640971,1.40064327 28.7339865,1.19447775 29.0463158,1.17608763 C29.2480735,1.17822691 29.4451193,1.23734065 29.6147368,1.34661395 L29.6147368,1.34661395 Z" id="Path"></path>
                            <path d="M32.5515789,4.29292974 L32.04,4.29292974 L32.04,3.90450869 L32.04,3.90450869 C31.8538346,4.21315355 31.5086517,4.38941715 31.1494737,4.35924553 C30.7837679,4.35649367 30.4375939,4.19379188 30.2021053,3.91398237 C29.9302609,3.59591679 29.7911835,3.18546889 29.8136842,2.76766658 C29.7895057,2.34704519 29.921028,1.93224408 30.1831579,1.60240342 C30.4214159,1.32860423 30.7675907,1.17282557 31.1305263,1.17608763 C31.4714259,1.15481534 31.7997641,1.30827779 32.0021053,1.58345605 L32.0021053,1.58345605 L32.0021053,0.0771402654 L32.5515789,0.0771402654 L32.5515789,4.29292974 Z M31.1968421,3.93292974 C31.4299328,3.93696574 31.6525141,3.83610862 31.8031579,3.6581929 C31.9877488,3.41779903 32.0756244,3.11699385 32.0494737,2.815035 C32.0680693,2.50303325 31.9921309,2.19267644 31.8315789,1.92450869 C31.6864211,1.70754589 31.4387047,1.58189262 31.1778947,1.59292974 C30.9210261,1.57746016 30.6754297,1.70025832 30.5336842,1.915035 C30.3793782,2.17188158 30.3036321,2.46827939 30.3157895,2.76766658 C30.3080733,2.98891737 30.3501623,3.20907509 30.4389474,3.41187711 C30.5030672,3.57184175 30.6157165,3.70768361 30.7610526,3.80029816 C30.8892785,3.88815007 31.0414152,3.93445256 31.1968421,3.93292974 L31.1968421,3.93292974 Z" id="Shape"></path>
                        </g>
                    </g>
                </g>
            </g>
        </g>
    </g>
</svg>