<?xml version="1.0" encoding="UTF-8"?>
<svg width="40px" height="36px" viewBox="0 0 40 36" version="1.1" xmlns="http://www.w3.org/2000/svg" xmlns:xlink="http://www.w3.org/1999/xlink">
    <title>58387C87-0F2E-4624-A6AA-5BEAD90B9F98@1x</title>
    <g id="Branding" stroke="none" stroke-width="1" fill="none" fill-rule="evenodd">
        <g transform="translate(-244.000000, -1923.000000)" id="Group-6">
            <g transform="translate(243.000000, 1923.000000)">
                <rect id="Rectangle" x="1" y="0" width="40" height="36"></rect>
                <g id="Logo-size40,24px-square-06" transform="translate(0.000000, 9.000000)">
                    <path d="M9.01608241,1.92889439 C5.11567367,1.92311109 1.94907212,5.08032085 1.94327003,8.98072959 C1.93748388,12.8811383 5.0946913,16.0477422 8.99510003,16.0535472 C12.8955088,16.0593362 16.062115,12.9021311 16.0679226,9.00172236 C16.0707,7.12867636 15.3293055,5.33123926 14.0068299,4.00482776 C12.6843543,2.67841626 10.8891284,1.9316834 9.01608241,1.92889439 Z" id="Path" fill="#FFFFFF" fill-rule="nonzero"></path>
                    <path d="M15.7531091,9.00172236 C15.7531091,6.27165416 14.1079813,3.81060506 11.5853202,2.76683622 C9.06265908,1.72306737 6.15961223,2.30228184 4.23066537,4.23423328 C2.30171852,6.16618473 1.72702311,9.07012956 2.77471701,11.5911631 C3.8224109,14.1121965 6.28601751,15.7534805 9.01608241,15.7492428 C10.8046705,15.7492428 12.5198497,15.0380055 13.7835878,13.7722989 C15.0473259,12.5065924 15.7558868,10.7903082 15.7531091,9.00172236 Z" id="Path"></path>
                    <g id="Group" opacity="0.4">
                        <path d="M20.0450644,0.93199151 C19.8763561,1.27198549 19.5773701,1.5293405 19.2160543,1.64556979 C18.9079778,1.78120181 18.5765965,1.85602984 18.2401311,1.86593955 L18.1142055,1.86593955 C18.4258701,2.00022651 18.7744137,2.02247398 19.1006225,1.92890234 C19.467397,1.83443479 19.7878126,1.61088906 20.0030892,1.29927445 C20.0789846,1.16558491 20.1014785,1.0081276 20.066052,0.858534923 C20.066052,0.858534923 20.0555582,0.890016317 20.0450644,0.93199151 Z" id="Path"></path>
                        <path d="M18.7858086,0.00853726528 C18.6539505,0.0284592981 18.5322846,0.0911356502 18.4395132,0.186931835 C18.2064286,0.506411001 18.1585956,0.924949874 18.3135877,1.28878065 L18.607414,1.18384267 C18.4290194,0.764090739 18.3870442,0.207919432 18.7858086,0.00853726528 Z" id="Path"></path>
                        <path d="M19.1425977,2.10729691 C18.9909423,2.14085718 18.8361893,2.15844276 18.6808706,2.1597659 L18.5129698,2.1597659 C18.6577274,2.2258482 18.8156179,2.25814398 18.9746969,2.25421009 C19.3848404,2.24805525 19.758989,2.01873837 19.9506202,1.65606359 C19.7242182,1.87298961 19.4460439,2.0283337 19.1425977,2.10729691 L19.1425977,2.10729691 Z" id="Path"></path>
                        <path d="M18.9537093,0.155450441 C19.0515754,0.0366288037 19.2227588,0.00959984206 19.3524737,0.0924876512 C19.194498,-0.0282205065 18.9752657,-0.0282205065 18.81729,0.0924876512 C18.6493892,0.249894625 18.6284016,0.585696168 18.81729,1.04742329 L19.1006225,0.890016317 C18.9012404,0.606683765 18.8382776,0.302363616 18.9537093,0.155450441 Z" id="Path"></path>
                        <path d="M19.8142008,0.386314002 C19.751238,0.323351212 19.5833372,0.239400827 19.1950667,0.323351212 L19.4154365,0.323351212 C19.535018,0.324641246 19.6385933,0.406638388 19.6672876,0.522733379 C19.751238,0.921497712 18.9117342,1.41470623 17.9463047,1.5721132 C18.3538446,1.62053315 18.7669158,1.55893482 19.1425977,1.39371863 C19.4558732,1.30096637 19.7151699,1.07980162 19.856176,0.785078335 C19.9148891,0.654276495 19.8988625,0.50202375 19.8142008,0.386314002 L19.8142008,0.386314002 Z" id="Path"></path>
                        <path d="M17.8518605,1.12087988 C17.8408865,1.20798391 17.8408865,1.29612081 17.8518605,1.38322483 L18.0932179,1.38322483 C17.9527196,1.0411159 17.9798847,0.653043782 18.1666745,0.333845011 C17.9619714,0.544355739 17.8488071,0.827266543 17.8518605,1.12087988 Z" id="Path"></path>
                        <path d="M0.935857765,7.95234253 C1.27494737,8.11934291 1.52954979,8.41954577 1.63894225,8.78135259 C1.7825005,9.08721481 1.86110822,9.41951109 1.86980581,9.75727583 C1.86980581,9.75727583 1.86980581,9.84122622 1.86980581,9.87270761 C2.00601068,9.56106685 2.02465137,9.21062183 1.9222748,8.88629058 C1.83959329,8.50589602 1.6142637,8.17165713 1.29264691,7.95234253 C1.15895736,7.87644711 1.00150006,7.85395321 0.85190738,7.88937974 L0.935857765,7.95234253 Z" id="Path"></path>
                        <path d="M0.0124035204,9.15912933 C0.0323255532,9.29098741 0.0950019053,9.41265327 0.19079809,9.50542467 C0.510277256,9.73850925 0.928816129,9.78634227 1.29264691,9.63135025 C1.2640135,9.53125631 1.22896159,9.43311096 1.18770892,9.3375239 C0.757463195,9.51591847 0.211785687,9.55789366 0.0124035204,9.15912933 Z" id="Path"></path>
                        <path d="M2.11116317,8.80234019 C2.15268429,8.94916484 2.17386934,9.10099103 2.17412596,9.25357351 C2.17412596,9.3165363 2.17412596,9.3690053 2.17412596,9.43196808 C2.22849605,9.29528644 2.25352285,9.1487009 2.24758255,9.00172236 C2.26934985,8.56534565 2.03600451,8.15596786 1.64943605,7.95234253 C1.87738551,8.18870278 2.03695938,8.48246377 2.11116317,8.80234019 L2.11116317,8.80234019 Z" id="Path"></path>
                        <path d="M0.159316696,9.00172236 C0.0404950588,8.90385633 0.0134660972,8.73267291 0.0963539063,8.60295802 C-0.0321179688,8.75822265 -0.0321179688,8.9828771 0.0963539063,9.13814173 C0.25376088,9.30604251 0.589562424,9.3270301 1.05128955,9.13814173 L0.893882573,8.85480918 C0.589562424,9.06468515 0.306229871,9.10666034 0.159316696,9.00172236 Z" id="Path"></path>
                        <path d="M0.390180257,8.1307371 C0.316723669,8.19369989 0.232773283,8.36160066 0.327217468,8.7498712 C0.323089644,8.6764726 0.323089644,8.60290003 0.327217468,8.52950144 C0.328507501,8.4099199 0.410504643,8.30634456 0.526599634,8.27765028 C0.914870169,8.19369989 1.41857248,9.03320375 1.57597946,9.99863319 C1.61901497,9.59119095 1.5576224,9.17949961 1.39758489,8.80234019 C1.30483263,8.48906466 1.08366787,8.22976804 0.78894459,8.08876191 C0.65814275,8.03004877 0.505890005,8.04607537 0.390180257,8.1307371 L0.390180257,8.1307371 Z" id="Path"></path>
                        <path d="M1.12474613,10.1035712 C1.21209962,10.1093306 1.2997376,10.1093306 1.38709109,10.1035712 C1.38709109,10.0196208 1.38709109,9.9356704 1.38709109,9.86221381 C1.04388369,10.0029109 0.654185174,9.971735 0.337711266,9.77826343 C0.547790499,9.98489067 0.83008682,10.1015732 1.12474613,10.1035712 L1.12474613,10.1035712 Z" id="Path"></path>
                        <path d="M41.0641422,5.00358523 C40.7913035,4.91963484 40.5604399,4.63630229 40.350564,4.18506896 C40.2202489,3.87573009 40.1490614,3.54470861 40.140688,3.20914573 L40.140688,3.08322015 C40.0055397,3.39467772 39.9832729,3.74352426 40.0777252,4.06963718 C40.1744619,4.43255764 40.397781,4.74892632 40.7073531,4.96161003 C40.8410426,5.03750545 40.9984999,5.05999935 41.1480926,5.02457282 C41.1189551,5.02348448 41.090364,5.01633671 41.0641422,5.00358523 L41.0641422,5.00358523 Z" id="Path"></path>
                        <path d="M41.9875965,3.75482324 C41.9691219,3.61946947 41.9064002,3.49402602 41.8092019,3.3980341 C41.5009352,3.18727988 41.1091997,3.14027162 40.7598221,3.27210852 C40.7884555,3.37220245 40.8235074,3.47034781 40.8647601,3.56593487 C41.2425368,3.3875403 41.7882143,3.34556511 41.9875965,3.75482324 Z" id="Path"></path>
                        <path d="M39.8888368,4.10111858 C39.8684044,3.95140138 39.8684044,3.79960246 39.8888368,3.64988525 C39.8888368,3.58692247 39.8888368,3.53445347 39.8888368,3.47149068 C39.8265037,3.61744448 39.7943765,3.77451076 39.7943926,3.93321781 C39.7726253,4.36959452 40.0059707,4.77897231 40.3925391,4.98259763 C40.1418367,4.74451863 39.9666713,4.43797927 39.8888368,4.10111858 Z" id="Path"></path>
                        <path d="M41.8406833,3.91223021 C41.9595049,4.01009624 41.9865339,4.18127966 41.9036461,4.31099454 C42.032118,4.15572991 42.032118,3.93107546 41.9036461,3.77581083 C41.7462391,3.61840386 41.4104376,3.58692247 40.9487105,3.77581083 L41.1061174,4.05914339 C41.4104376,3.83877362 41.6937701,3.80729223 41.8406833,3.91223021 Z" id="Path"></path>
                        <path d="M41.6098197,4.80420306 C41.6727825,4.74124027 41.7672267,4.5733395 41.6727825,4.18506896 C41.6769104,4.25846756 41.6769104,4.33204013 41.6727825,4.40543873 C41.6754307,4.52637808 41.5917206,4.63211714 41.4734004,4.65728989 C41.0851298,4.74124027 40.5814275,3.90173641 40.4240205,2.93630697 C40.3750824,3.34385446 40.4367011,3.75706202 40.6024151,4.13259997 C40.6951674,4.44587551 40.9163321,4.70517212 41.2110554,4.84617825 C41.3410479,4.90970157 41.4959032,4.89340102 41.6098197,4.80420306 L41.6098197,4.80420306 Z" id="Path"></path>
                        <path d="M40.8752539,2.8103814 C40.7881498,2.79940732 40.7000129,2.79940732 40.6129089,2.8103814 C40.6129089,2.88383798 40.6129089,2.96778837 40.6129089,3.05173875 C40.9538796,2.90438193 41.3451727,2.93177244 41.6622887,3.12519534 C41.4558845,2.91425418 41.1701957,2.79997865 40.8752539,2.8103814 Z" id="Path"></path>
                        <path d="M10.3278072,16.6831827 C10.1505645,17.032797 9.83447335,17.2917632 9.45682194,17.3967609 C9.15037739,17.5372815 8.81799111,17.6123364 8.4808987,17.6171307 L8.40744211,17.6171307 C8.72033574,17.7479504 9.06885336,17.7664886 9.39385915,17.6695997 C9.75520532,17.5755465 10.071351,17.3561042 10.285832,17.0504656 C10.3607429,16.9164416 10.3831825,16.7593641 10.3487948,16.6097261 C10.3463518,16.6352894 10.3392381,16.6601873 10.3278072,16.6831827 L10.3278072,16.6831827 Z" id="Path"></path>
                        <path d="M9.0685514,15.7597284 C8.93480831,15.7735807 8.81117964,15.8372682 8.72225606,15.938123 C8.4943355,16.2397026 8.44623249,16.640561 8.59633048,16.9875028 C8.69323495,16.9639492 8.78800729,16.9323584 8.87966303,16.8930586 C8.71176226,16.5047881 8.66978707,15.9486168 9.0685514,15.7597284 Z" id="Path"></path>
                        <path d="M9.45682194,17.8479943 C9.30606434,17.8866679 9.15068592,17.9043245 8.99509481,17.9004633 L8.79571265,17.9004633 C8.94047021,17.9665456 9.09836071,17.9988413 9.25743977,17.9949074 C9.67448615,17.9941356 10.0574124,17.7643798 10.2543506,17.3967609 C10.0309074,17.6121461 9.75652282,17.76739 9.45682194,17.8479943 Z" id="Path"></path>
                        <path d="M9.23645217,15.8961478 C9.33665173,15.7814791 9.50456117,15.7549671 9.63521651,15.833185 C9.4772408,15.7124769 9.2580085,15.7124769 9.1000328,15.833185 C8.93213202,15.990592 8.91114443,16.3263935 9.1000328,16.7986144 L9.45682194,16.6621951 C9.16299559,16.3473811 9.12102039,16.0535548 9.23645217,15.8961478 Z" id="Path"></path>
                        <path d="M10.0969436,16.1375052 C10.0339808,16.0640486 9.86608007,15.9800982 9.47780953,16.0745424 L9.6981793,16.0745424 C9.81477705,16.0745424 9.91738308,16.1514969 9.95003045,16.2634307 C10.0339808,16.6621951 9.19447698,17.1658974 8.22904754,17.3128106 C8.64403234,17.3774723 9.06880912,17.3266443 9.45682194,17.1658974 C9.77009747,17.0731451 10.0293941,16.8519804 10.1704002,16.5572571 C10.2289955,16.414891 10.20042,16.2515115 10.0969436,16.1375052 L10.0969436,16.1375052 Z" id="Path"></path>
                        <path d="M8.12410956,16.872071 C8.11399898,16.955717 8.11399898,17.0402762 8.12410956,17.1239222 L8.36546692,17.1239222 C8.22659386,16.781553 8.2537068,16.3942253 8.43892351,16.0745424 C8.23548308,16.2901066 8.12276105,16.5756691 8.12410956,16.872071 L8.12410956,16.872071 Z" id="Path"></path>
                    </g>
                    <path d="M15.4592745,7.85789835 C14.913597,9.48443708 13.2345893,10.9010998 10.5062018,12.1498618 C8.66446225,12.9852081 6.67251095,13.4385734 4.65066234,13.4825742 C4.39881118,13.4825742 4.14696003,13.4825742 3.90560267,13.4825742 C5.77807482,14.284843 7.87290411,14.4036986 9.82410487,13.8183757 C12.0089756,13.2598951 13.9131529,11.9195037 15.175942,10.0511022 C15.6574494,9.25832701 15.7975113,8.3043919 15.5642125,7.40666502 C15.5470762,7.56067544 15.511854,7.71213053 15.4592745,7.85789835 L15.4592745,7.85789835 Z" id="Path" fill="#000B8C" fill-rule="nonzero"></path>
                    <path d="M7.91423359,2.34865427 C7.11560572,2.44939385 6.37524233,2.81957554 5.81547395,3.3980341 C4.65066234,4.62580849 4.20992282,6.82950612 5.07041427,9.97764559 C5.66031749,9.82153744 6.23883122,9.62519339 6.80189098,9.38999289 C5.75251116,6.80851852 5.5111538,3.49247828 7.91423359,2.34865427 Z" id="Path" fill="#000B8C" fill-rule="nonzero"></path>
                    <path d="M10.0549684,14.8782494 C9.17194119,15.0937224 8.26696674,15.2064041 7.35806229,15.2140509 C7.00127315,15.2140509 6.6654716,15.2140509 6.30868246,15.1615819 C7.1698843,15.5475557 8.10384102,15.7443665 9.0475638,15.7387408 C11.5386455,15.7325481 13.8230008,14.3522486 14.9870536,12.1498618 C13.6184794,13.4865522 11.9145509,14.4291509 10.0549684,14.8782494 L10.0549684,14.8782494 Z" id="Path" fill="#EA0029" fill-rule="nonzero"></path>
                    <path d="M8.91114443,3.17766433 C9.49892057,2.47996735 10.5114613,2.32315794 11.2827428,2.8103814 C10.3124018,2.1505037 9.01908168,2.22810291 8.13460336,2.99926976 C7.15868012,3.94371161 6.99077935,5.96901467 8.25003514,8.760365 C8.95311962,8.38258826 9.53027852,8.04678672 9.93953666,7.77394796 C8.4704049,5.85358288 8.21855374,4.09062478 8.91114443,3.17766433 Z" id="Path" fill="#EA0029" fill-rule="nonzero"></path>
                    <path d="M14.084587,4.5943271 C13.6753288,4.17457517 12.678418,3.67087285 10.3278072,4.22704416 C10.773023,4.21086932 11.2188118,4.23193021 11.6605196,4.29000695 C12.3806391,4.27966236 13.0159318,4.75937322 13.2031079,5.45481855 C13.6753288,7.82641695 8.65929327,10.8486308 2.86671664,11.8035665 C5.3134031,12.0929073 7.79310835,11.7309065 10.0549684,10.7541867 C12.468542,9.70480684 13.769773,8.52950144 14.3364381,7.09185108 C14.7188483,6.27649142 14.6220851,5.31692288 14.084587,4.5943271 Z" id="Path" fill="#EA0029" fill-rule="nonzero"></path>
                    <path d="M2.25807634,9.00172236 C2.25534886,9.52876583 2.31880798,10.0540663 2.44696471,10.5652983 C2.94017323,10.5128293 3.43338175,10.4183851 3.88461507,10.3239409 C2.83523525,6.80851852 3.88461507,4.89864725 4.34634219,4.13259997 C3.01139988,5.40018573 2.25629095,7.16084175 2.25807634,9.00172236 L2.25807634,9.00172236 Z" id="Path" fill="#EA0029" fill-rule="nonzero"></path>
                    <path d="M35.9326749,6.25234722 C35.5996628,5.94450893 35.2066907,5.70872569 34.7783571,5.55975653 C34.3149288,5.38965728 33.8237584,5.30779554 33.3302129,5.31839917 C32.3209479,5.2563744 31.3352256,5.63992394 30.6333068,6.367779 C30.0118058,7.0600516 29.6843448,7.9671561 29.7203463,8.89678437 C29.6844049,9.86738013 30.0311038,10.8132652 30.6857758,11.5307277 C31.237384,12.2017888 32.062806,12.5875 32.9314486,12.5801076 L33.1308308,12.5801076 C33.5064221,12.5921367 33.8816199,12.5461219 34.2431734,12.4436882 C34.3374215,12.4135361 34.4287416,12.3749007 34.5160121,12.3282564 L34.5160121,10.6282611 C34.3971986,10.7414509 34.270995,10.8466206 34.1382354,10.943075 C33.8922485,11.0823102 33.612734,11.1512814 33.3302129,11.1424572 C32.7367871,11.1701254 32.1594343,10.9450054 31.7413681,10.5229386 C31.3233019,10.1008718 31.1036906,9.52140116 31.1370091,8.92826577 C31.1332499,8.5846153 31.2048909,8.24432049 31.3468851,7.93135494 C31.4894326,7.64511913 31.6980617,7.39692247 31.9555254,7.20728286 C32.1370435,7.08022503 32.3346621,6.97788681 32.5431781,6.90296271 C32.7559296,6.82927312 32.9791525,6.79029769 33.2042874,6.78753093 C33.5242043,6.78475054 33.8426759,6.830752 34.1487292,6.92395031 C34.4080488,7.00516886 34.645083,7.14523455 34.8413199,7.33320844 C34.9806233,7.47903446 35.0910093,7.64995472 35.1666276,7.83691075 C35.2455027,8.03340339 35.2812878,8.24453573 35.2715656,8.45604485 L35.2715656,12.5171448 L36.8246477,12.5171448 L36.8246477,8.31962547 C36.8308841,7.93520984 36.7482869,7.55454419 36.5832904,7.20728286 C36.4191014,6.8561007 36.1994158,6.53365887 35.9326749,6.25234722 Z" id="Path" fill="#000B8C" fill-rule="nonzero"></path>
                    <rect id="Rectangle" fill="#000B8C" fill-rule="nonzero" x="38.1048911" y="5.44432475" width="1.42715656" height="7.05183242"></rect>
                    <path d="M39.7524175,3.91223021 C39.7466373,4.4266298 39.3259698,4.83950104 38.8115521,4.8356584 C38.2971344,4.83181575 37.8826816,4.41270625 37.8845802,3.89827772 C37.8864918,3.38384918 38.3040373,2.96782084 38.8184694,2.96778837 C39.0679968,2.96778837 39.3071544,3.06760963 39.4826084,3.24503505 C39.6580624,3.42246048 39.7552211,3.66271861 39.7524175,3.91223021 L39.7524175,3.91223021 Z" id="Path" fill="#000B8C" fill-rule="nonzero"></path>
                    <polygon id="Path" fill="#000B8C" fill-rule="nonzero" points="15.7111257 3.71284804 18.1142055 3.71284804 18.1142055 12.4961572 19.8142008 12.4961572 19.8142008 3.71284804 22.2277744 3.71284804 22.2277744 2.24371629 15.7111257 2.24371629"></polygon>
                    <path d="M28.1357828,5.85358288 C27.6012336,5.42544861 26.9314191,5.20217711 26.2468991,5.22395499 C25.8830574,5.22135509 25.5236648,5.30401538 25.1975193,5.46531235 L24.8617178,5.63321312 L24.5259162,5.86407668 L24.5259162,2.24371629 L23.0987596,2.24371629 L23.0987596,12.4961572 L24.5469038,12.4961572 L24.5469038,8.43505725 C24.5447528,8.22638392 24.5694408,8.01829998 24.6203604,7.81592316 C24.6852383,7.62337898 24.7809256,7.44263625 24.9036929,7.28073945 C25.2076605,6.86742334 25.7040446,6.64107218 26.2154177,6.68259295 C26.3973677,6.67489014 26.5781901,6.71467108 26.7401076,6.79802473 C26.9152735,6.87214938 27.0700382,6.98732313 27.191341,7.13382627 C27.3128496,7.28499852 27.4085798,7.45518547 27.4746735,7.63752859 C27.5404967,7.86239494 27.57233,8.09583898 27.5691177,8.33011927 L27.5691177,12.5276386 L29.0067681,12.5276386 L29.0067681,7.67950378 C29.0208736,6.96751414 28.6980052,6.29065747 28.1357828,5.85358288 Z" id="Path" fill="#000B8C" fill-rule="nonzero"></path>
                    <path d="M18.1037117,13.6924502 L18.3135877,13.6924502 L18.3135877,13.8183757 C18.4129302,13.7092982 18.5543406,13.6481478 18.7018582,13.650475 C18.8931778,13.6612056 19.0721423,13.7484321 19.1984649,13.8925188 C19.3247874,14.0366054 19.3878517,14.2254431 19.3734613,14.4165222 C19.3977799,14.6002971 19.3412356,14.7855894 19.2184532,14.9244745 C19.0956707,15.0633595 18.9187095,15.1421964 18.7333396,15.1405943 C18.5786721,15.1424007 18.4289302,15.0862475 18.3135877,14.9831874 L18.3135877,15.6442966 L18.0932179,15.7387408 L18.1037117,13.6924502 Z M19.1530915,14.4165222 C19.1530915,14.0597331 18.9537093,13.8288695 18.6703768,13.8288695 C18.3870442,13.8288695 18.3030939,13.9128199 18.3030939,14.1226959 L18.3030939,14.7838052 C18.4063244,14.8998857 18.5573407,14.9618411 18.712352,14.951706 C18.8456233,14.9469811 18.9706838,14.8861268 19.0566441,14.7841738 C19.1426045,14.6822209 19.1814497,14.5486753 19.1635853,14.4165222 L19.1530915,14.4165222 Z" id="Shape" fill="#000B8C" fill-rule="nonzero"></path>
                    <path d="M20.2759279,13.650475 C20.4234455,13.6481478 20.5648559,13.7092982 20.6641985,13.8183757 L20.6641985,13.6924502 L20.8845682,13.6924502 L20.8845682,15.0986191 L20.6641985,15.0986191 L20.6641985,14.9831874 C20.5499772,15.0880871 20.3994788,15.1445241 20.2444465,15.1405943 C20.0590766,15.1421964 19.8821154,15.0633595 19.759333,14.9244745 C19.6365505,14.7855894 19.5800062,14.6002971 19.6043248,14.4165222 C19.5899344,14.2254431 19.6529987,14.0366054 19.7793212,13.8925188 C19.9056438,13.7484321 20.0846083,13.6612056 20.2759279,13.650475 Z M20.2759279,14.951706 C20.4312036,14.9634853 20.5829221,14.9012418 20.6851861,14.7838052 L20.6851861,14.1226959 C20.6851861,13.9128199 20.4753101,13.8288695 20.3179031,13.8288695 C20.1604961,13.8288695 19.8351884,14.0597331 19.8351884,14.4165222 C19.8174202,14.5435807 19.8521141,14.6723997 19.9312899,14.773349 C20.0104658,14.8742982 20.1273077,14.9386873 20.2549403,14.951706 L20.2759279,14.951706 Z" id="Shape" fill="#000B8C" fill-rule="nonzero"></path>
                    <path d="M21.7975287,15.7387408 C21.6419764,15.7410962 21.4878463,15.7088364 21.3462953,15.6442966 L21.3462953,15.4344207 C21.4839174,15.5132116 21.6389949,15.5564891 21.7975287,15.5603463 C22.1123426,15.5603463 22.2277744,15.3924455 22.2277744,15.1196067 L22.2277744,14.9097308 C22.1210635,15.0577781 21.9485117,15.1440541 21.7660473,15.1405943 C21.6399588,15.1539829 21.5145753,15.1096576 21.4249161,15.0199984 C21.3352569,14.9303392 21.2909316,14.8049556 21.3043201,14.6788672 L21.3043201,13.6924502 L21.5246899,13.6924502 L21.5246899,14.5529416 C21.5246899,14.846768 21.5981465,14.9412122 21.7975287,14.9412122 C22.0254397,14.9471931 22.2164534,14.7701561 22.2277744,14.5424478 L22.2277744,13.6924502 L22.4481442,13.6924502 L22.4481442,15.0986191 C22.4650664,15.2749202 22.4015719,15.4494502 22.2753212,15.5736645 C22.1490705,15.6978789 21.9735313,15.7585273 21.7975287,15.7387408 L21.7975287,15.7387408 Z" id="Path" fill="#000B8C" fill-rule="nonzero"></path>
                    <path d="M24.8197426,14.1122021 L24.8197426,15.0986191 L24.6098666,15.0986191 L24.6098666,14.2486215 C24.6098666,13.9547951 24.53641,13.8498571 24.3370278,13.8498571 C24.1075359,13.8553895 23.9228082,14.0401171 23.9172759,14.2696091 L23.9172759,15.1091129 L23.7073999,15.1091129 L23.7073999,14.2486215 C23.7073999,13.9547951 23.6444372,13.8498571 23.4345612,13.8498571 C23.2091758,13.8608037 23.0305411,14.0440188 23.0253031,14.2696091 L23.0253031,15.1091129 L22.8049333,15.1091129 L22.8049333,13.6924502 L23.0253031,13.6924502 L23.0253031,13.8813385 C23.1240705,13.7351919 23.289663,13.648453 23.4660426,13.650475 C23.6429385,13.6339891 23.8110545,13.7306558 23.8857945,13.8918323 C24.0032624,13.7441667 24.179896,13.6558499 24.3685092,13.650475 C24.4938724,13.6363908 24.6187252,13.6809083 24.7068969,13.7711305 C24.7950686,13.8613527 24.8367045,13.9871958 24.8197426,14.1122021 Z" id="Path" fill="#000B8C" fill-rule="nonzero"></path>
                    <path d="M25.8586286,14.951706 C26.0078759,14.9477315 26.154557,14.9119556 26.2888743,14.846768 L26.2888743,15.0461501 C26.1602135,15.1048897 26.0210062,15.1370145 25.8796162,15.1405943 C25.4681311,15.1550832 25.1228109,14.8332542 25.108322,14.4217691 C25.0938331,14.0102841 25.4156621,13.6649639 25.8271472,13.650475 C26.2049239,13.650475 26.4357875,13.9023261 26.4357875,14.3430657 C26.4409725,14.3813682 26.4409725,14.4201949 26.4357875,14.4584974 L25.3864077,14.4584974 C25.3861682,14.722899 25.5944665,14.9404549 25.8586286,14.951706 L25.8586286,14.951706 Z M25.3234449,14.2486215 L26.2468991,14.2486215 C26.2468991,13.8918323 26.0580108,13.7868944 25.837641,13.7868944 C25.7063792,13.7718782 25.5749728,13.8138107 25.4766707,13.902082 C25.3783686,13.9903533 25.3225888,14.1165064 25.3234449,14.2486215 L25.3234449,14.2486215 Z" id="Shape" fill="#000B8C" fill-rule="nonzero"></path>
                    <path d="M26.8870208,14.2486215 L26.8870208,15.0881253 L26.666651,15.0881253 L26.666651,13.6924502 L26.8870208,13.6924502 L26.8870208,13.8813385 C26.9993204,13.7343521 27.1742729,13.6488198 27.3592417,13.650475 C27.4853302,13.6370864 27.6107137,13.6814117 27.7003729,13.7710709 C27.7900321,13.8607302 27.8343574,13.9861137 27.8209689,14.1122021 L27.8209689,15.0986191 L27.6005991,15.0986191 L27.6005991,14.2486215 C27.6005991,13.9547951 27.5271425,13.8498571 27.3277603,13.8498571 C27.1016907,13.8535852 26.9132808,14.0240512 26.8870208,14.2486215 Z" id="Path" fill="#000B8C" fill-rule="nonzero"></path>
                    <path d="M28.6394851,14.951706 C28.7157245,14.9492267 28.7906785,14.9313805 28.8598549,14.899237 L28.8598549,15.0776315 C28.794407,15.1203149 28.7176037,15.1422587 28.6394851,15.1405943 C28.4191154,15.1405943 28.2931898,15.0251625 28.2931898,14.689361 L28.2931898,13.8498571 L28.0833138,13.8498571 L28.0833138,13.6924502 L28.2931898,13.6924502 L28.2931898,13.1992417 L28.5030657,13.1047975 L28.5030657,13.7134378 L28.8808425,13.7134378 L28.8808425,13.8708447 L28.5345471,13.8708447 L28.5345471,14.7313362 C28.4715843,14.8572618 28.5135595,14.951706 28.6394851,14.951706 Z" id="Path" fill="#000B8C" fill-rule="nonzero"></path>
                    <path d="M30.1820735,14.2486215 L30.1820735,15.0881253 L29.9721975,15.0881253 L29.9721975,13.6924502 L30.1820735,13.6924502 L30.1820735,13.8813385 C30.294373,13.7343521 30.4693256,13.6488198 30.6542944,13.650475 C30.7803828,13.6370864 30.9057663,13.6814117 30.9954255,13.7710709 C31.0850848,13.8607302 31.1294101,13.9861137 31.1160215,14.1122021 L31.1160215,15.0986191 L30.9061455,15.0986191 L30.9061455,14.2486215 C30.9061455,13.9547951 30.832689,13.8498571 30.622813,13.8498571 C30.3967433,13.8535852 30.2083335,14.0240512 30.1820735,14.2486215 Z" id="Path" fill="#000B8C" fill-rule="nonzero"></path>
                    <path d="M32.1549075,14.951706 C32.3038671,14.9456362 32.4501267,14.9099631 32.5851533,14.846768 L32.5851533,15.0461501 C32.4564924,15.1048897 32.3172851,15.1370145 32.1758951,15.1405943 C31.9097109,15.1518415 31.6577463,15.0202268 31.5149138,14.7953282 C31.3720814,14.5704295 31.3600807,14.2864144 31.4834324,14.0502685 C31.6067841,13.8141226 31.8467482,13.6617222 32.1129323,13.650475 C32.5012029,13.650475 32.7320664,13.9023261 32.7320664,14.3430657 C32.7320664,14.3430657 32.7320664,14.427016 32.7320664,14.4584974 L31.6826866,14.4584974 C31.6824471,14.722899 31.8907454,14.9404549 32.1549075,14.951706 L32.1549075,14.951706 Z M31.6197238,14.2486215 L32.5431781,14.2486215 C32.5431781,13.8918323 32.3542897,13.7868944 32.1339199,13.7868944 C32.0026582,13.7718782 31.8712518,13.8138107 31.7729496,13.902082 C31.6746475,13.9903533 31.6188677,14.1165064 31.6197238,14.2486215 L31.6197238,14.2486215 Z" id="Shape" fill="#000B8C" fill-rule="nonzero"></path>
                    <path d="M33.4561385,14.951706 C33.5322313,14.9481608 33.6069823,14.9303629 33.6765083,14.899237 L33.6765083,15.0776315 C33.6110604,15.1203149 33.5342571,15.1422587 33.4561385,15.1405943 C33.2252749,15.1405943 33.0993494,15.0251625 33.0993494,14.689361 L33.0993494,13.8498571 L32.8999672,13.8498571 L32.8999672,13.6924502 L33.0993494,13.6924502 L33.0993494,13.1992417 L33.3197191,13.1047975 L33.3197191,13.7134378 L33.6870021,13.7134378 L33.6870021,13.8708447 L33.3407067,13.8708447 L33.3407067,14.7313362 C33.2882377,14.8572618 33.3302129,14.951706 33.4561385,14.951706 Z" id="Path" fill="#000B8C" fill-rule="nonzero"></path>
                    <polygon id="Path" fill="#000B8C" fill-rule="nonzero" points="35.4184788 15.0986191 35.2295904 15.0986191 34.8308261 13.9547951 34.4425555 15.0986191 34.264161 15.0986191 33.8549028 13.6924502 34.0752726 13.6924502 34.3795928 14.8152866 34.7468757 13.6924502 34.9357641 13.6924502 35.3240346 14.74183 35.6178609 13.6924502 35.8382307 13.6924502"></polygon>
                    <path d="M36.6462532,15.1405943 C36.4548512,15.1444324 36.2709083,15.0664056 36.1406424,14.9261193 C36.0103765,14.785833 35.9461703,14.5966221 35.9641563,14.4060285 C35.9462116,14.2098598 36.0126492,14.015331 36.1468433,13.8711225 C36.2810373,13.726914 36.4702898,13.6466713 36.6672408,13.650475 C36.8604446,13.6435704 37.0472531,13.7202585 37.179878,13.8609212 C37.3125029,14.001584 37.3780792,14.1925768 37.3598315,14.3850409 C37.3746218,14.582261 37.3056637,14.7765904 37.1698674,14.9203747 C37.0340712,15.064159 36.8439961,15.1441 36.6462532,15.1405943 Z M36.6462532,14.9726936 C36.7905907,14.9678956 36.9262571,14.9026205 37.0200782,14.79283 C37.1138992,14.6830394 37.1572252,14.5388553 37.1394617,14.3955347 C37.1676074,14.2041203 37.0812384,14.0139276 36.9185905,13.9091552 C36.7559425,13.8043828 36.5470577,13.8043828 36.3844097,13.9091552 C36.2217617,14.0139276 36.1353927,14.2041203 36.1635385,14.3955347 C36.1740323,14.7313362 36.3524268,14.9726936 36.656747,14.9726936 L36.6462532,14.9726936 Z" id="Shape" fill="#000B8C" fill-rule="nonzero"></path>
                    <path d="M38.3777299,13.6609688 L38.3147671,13.8603509 C38.1010685,13.8286529 37.9009919,13.9728942 37.8635338,14.1856587 L37.8635338,15.0986191 L37.643164,15.0986191 L37.643164,13.6924502 L37.8635338,13.6924502 L37.8635338,13.9023261 C37.9489782,13.7499659 38.108641,13.6541682 38.2832857,13.650475 L38.3777299,13.6609688 Z" id="Path" fill="#000B8C" fill-rule="nonzero"></path>
                    <polygon id="Path" fill="#000B8C" fill-rule="nonzero" points="39.0913082 14.2486215 39.7524175 15.0881253 39.5005663 15.0881253 38.9339012 14.3955347 38.8289632 14.5004726 38.8289632 15.0881253 38.6085934 15.0881253 38.6085934 13.1992417 38.8289632 13.1047975 38.8289632 14.2486215 39.4166159 13.6609688 39.7104423 13.6609688"></polygon>
                </g>
            </g>
        </g>
    </g>
</svg>