<?xml version="1.0" encoding="utf-8"?>
<!-- Generator: Adobe Illustrator 24.3.0, SVG Export Plug-In . SVG Version: 6.00 Build 0)  -->
<svg version="1.1"
	 id="Layer_1" inkscape:version="1.0.2 (e86c870879, 2021-01-15)" sodipodi:docname="Visa_2021.svg" xmlns:cc="http://creativecommons.org/ns#" xmlns:dc="http://purl.org/dc/elements/1.1/" xmlns:inkscape="http://www.inkscape.org/namespaces/inkscape" xmlns:rdf="http://www.w3.org/1999/02/22-rdf-syntax-ns#" xmlns:sodipodi="http://sodipodi.sourceforge.net/DTD/sodipodi-0.dtd" xmlns:svg="http://www.w3.org/2000/svg"
	 xmlns="http://www.w3.org/2000/svg" xmlns:xlink="http://www.w3.org/1999/xlink" x="0px" y="0px" viewBox="0 0 35.7 20.9"
	 enable-background="new 0 0 35.7 20.9" xml:space="preserve">
<sodipodi:namedview  bordercolor="#666666" borderopacity="1" fit-margin-bottom="0.5" fit-margin-left="0.5" fit-margin-right="0.5" fit-margin-top="0.5" gridtolerance="10" guidetolerance="10" id="namedview3735" inkscape:current-layer="Layer_1" inkscape:cx="473.80866" inkscape:cy="-26.853447" inkscape:document-rotation="0" inkscape:pageopacity="0" inkscape:pageshadow="2" inkscape:window-height="705" inkscape:window-maximized="1" inkscape:window-width="1366" inkscape:window-x="-8" inkscape:window-y="-8" inkscape:zoom="0.49497088" objecttolerance="10" pagecolor="#ffffff" showgrid="false">
	<inkscape:grid  empspacing="5" enabled="true" id="grid3787" snapvisiblegridlinesonly="true" type="xygrid" visible="true">
		</inkscape:grid>
</sodipodi:namedview>
<path id="path3789" inkscape:connector-curvature="0" fill="#1434CB" d="M23.3,4.5c-2.5,0-4.7,1.3-4.7,3.6c0,2.7,3.9,2.9,3.9,4.3
	c0,0.6-0.7,1.1-1.8,1.1c-1.6,0-2.8-0.7-2.8-0.7l-0.5,2.4c0,0,1.4,0.6,3.2,0.6c2.7,0,4.8-1.3,4.8-3.8c0-2.9-3.9-3.1-3.9-4.3
	c0-0.4,0.5-0.9,1.7-0.9c1.3,0,2.3,0.5,2.3,0.5L26,5C26,5,24.9,4.5,23.3,4.5L23.3,4.5z M0.7,4.7L0.6,5.1c0,0,1,0.2,2,0.6
	c1.2,0.4,1.3,0.7,1.5,1.5l2.2,8.5h3l4.6-10.9h-3L8,12.1L6.8,5.8C6.7,5.1,6.1,4.7,5.4,4.7C5.4,4.7,0.7,4.7,0.7,4.7z M15,4.7
	l-2.3,10.9h2.8l2.3-10.9L15,4.7L15,4.7z M30.8,4.7c-0.7,0-1,0.4-1.3,1l-4.1,9.9h3l0.6-1.7h3.6l0.3,1.7h2.6L33.2,4.7L30.8,4.7
	L30.8,4.7z M31.2,7.7l0.9,4.1h-2.4L31.2,7.7L31.2,7.7z"/>
</svg>
