<?xml version="1.0" encoding="UTF-8"?>
<svg width="1280px" height="739px" viewBox="0 0 1280 739" version="1.1" xmlns="http://www.w3.org/2000/svg" xmlns:xlink="http://www.w3.org/1999/xlink">
    <title>D34DB292-84FE-4F08-8CFD-EE7A897233E7@1x</title>
    <defs>
        <rect id="path-1" x="0" y="0" width="1280" height="738"></rect>
    </defs>
    <g id="Branding" stroke="none" stroke-width="1" fill="none" fill-rule="evenodd">
        <g transform="translate(-100.000000, -637.000000)" id="Group">
            <g transform="translate(100.000000, 637.729474)">
                <rect id="Rectangle" x="0" y="0.270526248" width="1280" height="738"></rect>
                <g id="Group-4-+-Rectangle-Mask">
                    <mask id="mask-2" fill="white">
                        <use xlink:href="#path-1"></use>
                    </mask>
                    <g id="Mask"></g>
                    <g id="Group-4" opacity="0.24" mask="url(#mask-2)">
                        <g transform="translate(492.000000, -440.000000)">
                            <g id="Group-34" stroke="none" stroke-width="1" fill-rule="evenodd" transform="translate(227.000000, 0.000000)">
                                <path d="M1840.38271,1466.165 C1628.81579,1436.29848 1118.08989,1267.24284 995.328039,548.346736 L993.056712,534.971403 C993.056712,534.971403 991.985276,527.852579 989.001606,527.852579 C986.007717,527.852579 984.966935,534.971403 984.966935,534.971403 L982.669334,548.346736 C859.907485,1267.24284 349.172828,1436.29848 137.613201,1466.165" id="Stroke-2" stroke="#6E5E5E" stroke-width="0.707"></path>
                                <path d="M1849.55735,1447.10088 C1591.46108,1421.32706 1110.77333,1198.22658 995.988125,514.4949 L993.867879,501.849104 C993.867879,501.849104 992.862131,492.662772 988.999708,492.662772 C985.317561,492.662772 984.154892,501.231186 984.154892,501.849104 L981.995234,514.4949 C867.067711,1199.77831 385.473474,1421.29059 128.439143,1447.10088" id="Stroke-4" stroke="#6E5E5E" stroke-width="0.684"></path>
                                <path d="M1858.73192,1428.03669 C1554.10556,1406.35631 1103.45669,1129.21026 996.648138,480.642991 L994.679703,468.726732 C994.679703,468.726732 993.738183,457.472162 988.997737,457.472162 C984.625872,457.472162 983.341317,467.491625 983.341317,468.726732 L981.321062,480.642991 C874.227134,1132.31444 421.774047,1406.28262 119.265013,1428.03669" id="Stroke-6" stroke="#6E5E5E" stroke-width="0.66"></path>
                                <path d="M1867.90649,1408.97257 C1516.75078,1391.38489 1096.13933,1060.194 997.307421,446.791155 L995.490798,435.604433 C995.490798,435.604433 994.614235,422.282355 988.995767,422.282355 C983.934912,422.282355 982.528471,433.751409 982.528471,435.604433 L980.64689,446.791155 C881.388017,1064.84991 458.074621,1391.27473 110.090152,1408.97257" id="Stroke-8" stroke="#6E5E5E" stroke-width="0.637"></path>
                                <path d="M1877.08106,1389.90838 C1479.39599,1376.4134 1088.82196,991.178402 997.967434,412.939246 L996.301892,402.48279 C996.301892,402.48279 995.491017,387.091746 988.993796,387.091746 C983.243223,387.091746 981.715625,400.011848 981.715625,402.48279 L979.971987,412.939246 C888.54744,997.386033 494.375194,1376.26677 100.916751,1389.90838" id="Stroke-10" stroke="#6E5E5E" stroke-width="0.613"></path>
                                <path d="M1886.25563,1370.84426 C1442.04048,1361.44272 1081.50533,922.162146 998.626717,379.08814 L997.112986,369.360492 C997.112986,369.360492 996.367068,351.901938 988.991826,351.901938 C982.551534,351.901938 980.902779,366.271631 980.902779,369.360492 L979.297815,379.08814 C895.707593,929.921503 530.675767,1361.25887 91.7418907,1370.84426" id="Stroke-12" stroke="#6E5E5E" stroke-width="0.59"></path>
                                <path d="M1895.4302,1351.78014 C1404.68569,1346.4713 1074.18869,853.145891 999.28673,345.236304 L997.92408,336.238193 C997.92408,336.238193 997.24385,316.711402 988.989125,316.711402 C981.860575,316.711402 980.089203,332.532144 980.089203,336.238193 L978.623643,345.236304 C902.867016,862.457703 566.97634,1346.25098 82.56776,1351.78014" id="Stroke-14" stroke="#6E5E5E" stroke-width="0.566"></path>
                                <path d="M1904.60411,1332.71595 C1367.33025,1331.49981 1066.8714,784.130292 999.946816,311.384395 L998.735248,303.115821 C998.735248,303.115821 998.120705,281.521522 988.987227,281.521522 C981.168959,281.521522 979.27643,298.792584 979.27643,303.115821 L977.949543,311.384395 C910.027972,794.9931 603.276987,1331.24302 73.3937023,1332.71595" id="Stroke-16" stroke="#6E5E5E" stroke-width="0.542"></path>
                                <path d="M1913.77868,1313.66212 C1329.97547,1316.52913 1059.55476,715.113307 1000.6061,277.532558 L999.546342,269.994251 C999.546342,269.994251 998.996757,246.330985 988.985257,246.330985 C980.478,246.330985 978.463584,265.052367 978.463584,269.994251 L977.275371,277.532558 C917.187395,727.5293 639.57756,1316.23512 64.2195716,1313.66212" id="Stroke-18" stroke="#6E5E5E" stroke-width="0.519"></path>
                                <path d="M1922.95325,1294.58772 C1292.61996,1301.55844 1052.23813,646.097782 1001.26611,243.680722 L1000.35744,236.871952 C1000.35744,236.871952 999.873538,211.141178 988.983286,211.141178 C979.787041,211.141178 977.650008,231.312879 977.650008,236.871952 L976.601199,243.680722 C924.347548,660.06477 675.878133,1301.22723 55.0447111,1294.58772" id="Stroke-20" stroke="#6E5E5E" stroke-width="0.495"></path>
                                <path d="M1932.12781,1275.52352 C1255.26517,1286.58695 1044.92076,577.081453 1001.9254,209.828813 L1001.16853,203.74958 C1001.16853,203.74958 1000.74886,175.951298 988.980586,175.951298 C979.095352,175.951298 976.837892,197.572589 976.837892,203.74958 L975.927026,209.828813 C931.506971,592.600897 712.178706,1286.21927 45.8713103,1275.52352" id="Stroke-22" stroke="#6E5E5E" stroke-width="0.472"></path>
                                <path d="M1941.30238,1256.45941 C1217.90966,1271.61554 1037.6034,508.065198 1002.58541,175.977707 L1001.97962,170.627281 C1001.97962,170.627281 1001.62564,140.760761 988.978615,140.760761 C978.404393,140.760761 976.024317,163.833102 976.024317,170.627281 L975.252124,175.977707 C938.667854,525.136367 748.47928,1271.21138 36.6964497,1256.45941" id="Stroke-24" stroke="#6E5E5E" stroke-width="0.448"></path>
                                <path d="M1950.47695,1237.39529 C1180.55487,1256.64485 1030.28676,439.049672 1003.24542,142.125871 L1002.79072,137.504982 C1002.79072,137.504982 1002.50242,105.570954 988.976644,105.570954 C977.712703,105.570954 975.211471,130.092885 975.211471,137.504982 L974.577952,142.125871 C945.827277,457.671837 784.779853,1256.20348 27.5215892,1237.39529" id="Stroke-26" stroke="#6E5E5E" stroke-width="0.424"></path>
                                <path d="M1959.65152,1218.3311 C1143.19936,1241.67337 1022.97013,370.032614 1003.90471,108.273962 L1003.60181,104.38334 C1003.60181,104.38334 1003.37848,70.3803439 988.974674,70.3803439 C977.021744,70.3803439 974.398625,96.3533249 974.398625,104.38334 L973.903779,108.273962 C952.98743,390.207963 821.080426,1241.19552 18.3481884,1218.3311" id="Stroke-28" stroke="#6E5E5E" stroke-width="0.401"></path>
                                <path d="M1968.82609,1199.26698 C1105.84458,1226.70195 1015.65276,301.017088 1004.56472,74.4221255 L1004.41291,71.2610411 C1004.41291,71.2610411 1004.25526,35.1905367 988.971973,35.1905367 C976.330055,35.1905367 973.585049,62.613108 973.585049,71.2610411 L973.229607,74.4221255 C960.146853,322.743434 857.380999,1226.18763 9.17332783,1199.26698" id="Stroke-30" stroke="#6E5E5E" stroke-width="0.377"></path>
                                <path d="M1978,1180.20286 C1068.48913,1211.73127 1008.33547,232.000833 1005.22407,40.5702894 L1005.22407,38.1387422 C1005.22407,38.1387422 1005.13138,0 988.970076,0 C975.639169,0 972.772276,28.8736206 972.772276,38.1387422 L972.555507,40.5702894 C967.306349,255.279633 893.681646,1211.17974 0,1180.20286" id="Stroke-32" stroke="#6E5E5E" stroke-width="0.354"></path>
                            </g>
                            <path d="M1505,1598 C1332.04631,1573.58698 914.532733,1435.39001 814.174268,847.715636 L812.321049,836.781101 C812.321049,836.781101 811.441519,830.96 809.00073,830.96 C806.558481,830.96 805.705957,836.781101 805.705957,836.781101 L803.825732,847.715636 C703.468726,1435.39001 285.954417,1573.58698 113,1598" id="Stroke-35" stroke="#6E5E5E" stroke-width="1.604"></path>
                            <path d="M1512,1578.025 C1303.39478,1556.75923 908.920479,1377.2293 814.679838,816.772151 L812.942021,809.370005 C812.942021,809.370005 812.11289,799 808.99927,799 C806.028705,799 805.082795,805.928893 805.082795,806.402146 L803.309214,819.741468 C708.960553,1381.38649 313.795796,1556.7308 106,1578.025" id="Stroke-37" stroke="#6E5E5E" stroke-width="1.526"></path>
                            <path d="M1519,1558.05 C1274.74765,1539.92751 903.308803,1319.10261 815.184638,785.828677 L813.562941,781.956947 C813.562941,781.956947 812.784935,767.04 808.99854,767.04 C805.498972,767.04 804.460414,775.076463 804.460414,776.02253 L802.792737,791.763823 C714.45181,1327.41312 341.63503,1539.87138 99,1558.05" id="Stroke-39" stroke="#6E5E5E" stroke-width="1.448"></path>
                            <path d="M1527,1540.0725 C1246.90673,1525.07224 898.259544,1262.65894 816.194066,755.907916 L814.687426,755.561431 C814.687426,755.561431 813.958572,736.07875 809.496348,736.07875 C805.465741,736.07875 804.333753,745.233983 804.333753,746.653478 L802.770879,764.818056 C720.379681,1275.13532 369.66497,1524.9869 92,1540.0725" id="Stroke-41" stroke="#6E5E5E" stroke-width="1.37"></path>
                            <path d="M1533,1520.0975 C1217.24178,1508.23779 891.643774,1204.55166 815.699095,724.963286 L814.308643,728.145124 C814.308643,728.145124 813.630943,704.11875 808.494888,704.11875 C803.935754,704.11875 802.709614,714.380249 802.709614,716.272291 L801.254167,736.837577 C724.874242,1221.17902 396.520892,1508.12478 84,1520.0975" id="Stroke-43" stroke="#6E5E5E" stroke-width="1.292"></path>
                            <path d="M1541,1499.12375 C1189.58069,1490.40234 887.030081,1145.47569 817.205542,693.020727 L815.930535,699.725578 C815.930535,699.725578 815.303255,671.16 809.493428,671.16 C804.405813,671.16 803.086991,682.527636 803.086991,684.891825 L801.737499,707.856666 C731.368928,1166.25052 425.374487,1490.26169 78,1499.12375" id="Stroke-45" stroke="#6E5E5E" stroke-width="1.214"></path>
                            <path d="M1547,1480.1475 C1159.92118,1474.55563 880.416256,1087.95983 816.709758,662.101342 L815.551644,672.340576 C815.551644,672.340576 814.974778,639.2 808.491968,639.2 C802.875187,639.2 801.46369,651.687066 801.46369,654.526395 L800.220141,679.918441 C735.861566,1112.90916 452.223653,1474.38643 70,1480.1475" id="Stroke-47" stroke="#6E5E5E" stroke-width="1.135"></path>
                            <path d="M1554,1461.17125 C1131.54961,1458.71662 875.258544,1030.89985 817.70955,632.155191 L816.667556,645.916294 C816.667556,645.916294 816.142181,608.23875 808.990514,608.23875 C802.849464,608.23875 801.345578,621.831448 801.345578,625.141957 L800.210184,652.932445 C741.899396,1059.99383 480.791667,1458.51832 64,1461.17125" id="Stroke-49" stroke="#6E5E5E" stroke-width="1.057"></path>
                            <path d="M1561,1441.19625 C1102.91676,1441.87468 869.649675,972.867449 818.214507,601.209648 L817.287839,618.490465 C817.287839,618.490465 816.812831,576.27875 808.98869,576.27875 C802.318871,576.27875 800.722376,590.976262 800.722376,594.759037 L799.693556,624.945448 C747.387175,1006.105 508.614812,1441.64805 57,1441.19625" id="Stroke-51" stroke="#6E5E5E" stroke-width="0.979"></path>
                            <path d="M1568,1421.20003 C1073.96224,1425.01031 863.577478,914.853665 818.225825,570.262276 L817.414671,591.060364 C817.414671,591.060364 816.989745,544.31875 808.487588,544.31875 C801.285031,544.31875 799.594091,560.119994 799.594091,564.373139 L798.670499,596.953144 C752.338305,952.228746 535.756347,1424.75609 49,1421.20003" id="Stroke-53" stroke="#6E5E5E" stroke-width="0.901"></path>
                            <path d="M1576,1402.17998 C1046.3148,1409.13414 858.966615,856.631815 819.73135,538.376171 L819.036314,562.741294 C819.036314,562.741294 818.661782,511.36 809.486859,511.36 C801.755304,511.36 799.970987,528.301751 799.970987,533.0354 L799.154027,568.086443 C758.829482,898.235681 564.595904,1408.85101 43,1402.17998" id="Stroke-55" stroke="#6E5E5E" stroke-width="0.823"></path>
                            <path d="M1582,1382.14086 C1016.67027,1392.22788 852.355886,798.587912 819.23574,507.428472 L818.656811,535.310344 C818.656811,535.310344 818.332669,479.4 808.485034,479.4 C800.225256,479.4 798.3483,497.445029 798.3483,502.649723 L797.637232,540.093469 C763.320535,844.328827 591.431889,1391.91644 35,1382.14086" id="Stroke-57" stroke="#6E5E5E" stroke-width="0.745"></path>
                            <path d="M1590,1362.0857 C989.027045,1375.30172 847.744244,740.566794 820.740835,476.47894 L820.277273,507.874005 C820.277273,507.874005 820.004246,447.44 809.48321,447.44 C800.695239,447.44 798.724917,466.586426 798.724917,472.262411 L798.121191,512.095637 C769.809588,790.44198 620.26589,1374.96201 29,1362.0857" id="Stroke-59" stroke="#6E5E5E" stroke-width="0.666"></path>
                            <path d="M1596,1344.01492 C959.388049,1360.37443 841.1349,683.857835 820.246257,446.560921 L819.898782,481.502514 C819.898782,481.502514 819.676136,416.47875 808.48175,416.47875 C799.165627,416.47875 797.101948,436.747981 797.101948,442.900672 L796.604825,485.16787 C774.300003,737.921276 647.097185,1360.00608 21,1344.01492" id="Stroke-61" stroke="#6E5E5E" stroke-width="0.588"></path>
                            <path d="M1604,1323.93628 C931.327273,1343.42248 836.041934,625.857354 821.258986,415.610063 L821.027443,454.061193 C821.027443,454.061193 820.854334,384.51875 808.980644,384.51875 C799.129484,384.51875 796.971827,405.888833 796.971827,412.510846 L796.580322,457.166242 C780.270798,684.049128 675.342469,1343.02587 14,1323.93628" id="Stroke-63" stroke="#6E5E5E" stroke-width="0.51"></path>
                            <path d="M1611,1303.84888 C903.11584,1326.45721 830.916175,567.883709 822.256274,384.65827 L822.140215,426.615507 C822.140215,426.615507 822.018317,352.55875 809.478832,352.55875 C799.105783,352.55875 796.856865,375.027904 796.856865,382.120243 L796.571462,429.160821 C786.277975,630.200543 703.752707,1326.03311 8,1303.84888" id="Stroke-65" stroke="#6E5E5E" stroke-width="0.432"></path>
                            <path d="M1617,1284.75213 C873.483231,1310.50772 824.306771,510.132658 821.760871,353.740682 L821.760871,399.247863 C821.760871,399.247863 821.69007,320.59875 808.477373,320.59875 C797.575547,320.59875 795.23329,344.191151 795.23329,351.759763 L795.055194,401.235344 C790.765556,576.64035 730.577056,1310.05496 0,1284.75213" id="Stroke-67" stroke="#6E5E5E" stroke-width="0.354"></path>
                        </g>
                    </g>
                </g>
            </g>
        </g>
    </g>
</svg>