<?xml version="1.0" encoding="utf-8"?>
<!-- Generator: Adobe Illustrator 24.3.0, SVG Export Plug-In . SVG Version: 6.00 Build 0)  -->
<svg version="1.1" id="Layer_1" xmlns="http://www.w3.org/2000/svg" xmlns:xlink="http://www.w3.org/1999/xlink" x="0px" y="0px"
	 viewBox="0 0 1920 738" style="enable-background:new 0 0 1920 738;" xml:space="preserve">
<style type="text/css">
	.st0{fill:none;}
	.st1{filter:url(#Adobe_OpacityMaskFilter);}
	.st2{fill-rule:evenodd;clip-rule:evenodd;fill:#FFFFFF;}
	.st3{opacity:0.24;mask:url(#mask-2_2_);}
	.st4{fill:none;stroke:#6E5E5E;stroke-width:0.707;}
	.st5{fill:none;stroke:#6E5E5E;stroke-width:0.684;}
	.st6{fill:none;stroke:#6E5E5E;stroke-width:0.66;}
	.st7{fill:none;stroke:#6E5E5E;stroke-width:0.637;}
	.st8{fill:none;stroke:#6E5E5E;stroke-width:0.613;}
	.st9{fill:none;stroke:#6E5E5E;stroke-width:0.59;}
	.st10{fill:none;stroke:#6E5E5E;stroke-width:0.566;}
	.st11{fill:none;stroke:#6E5E5E;stroke-width:0.542;}
	.st12{fill:none;stroke:#6E5E5E;stroke-width:0.519;}
	.st13{fill:none;stroke:#6E5E5E;stroke-width:0.495;}
	.st14{fill:none;stroke:#6E5E5E;stroke-width:0.472;}
	.st15{fill:none;stroke:#6E5E5E;stroke-width:0.448;}
	.st16{fill:none;stroke:#6E5E5E;stroke-width:0.424;}
	.st17{fill:none;stroke:#6E5E5E;stroke-width:0.401;}
	.st18{fill:none;stroke:#6E5E5E;stroke-width:0.377;}
	.st19{fill:none;stroke:#6E5E5E;stroke-width:0.354;}
	.st20{fill:none;stroke:#6E5E5E;stroke-width:1.604;}
	.st21{fill:none;stroke:#6E5E5E;stroke-width:1.526;}
	.st22{fill:none;stroke:#6E5E5E;stroke-width:1.448;}
	.st23{fill:none;stroke:#6E5E5E;stroke-width:1.37;}
	.st24{fill:none;stroke:#6E5E5E;stroke-width:1.292;}
	.st25{fill:none;stroke:#6E5E5E;stroke-width:1.214;}
	.st26{fill:none;stroke:#6E5E5E;stroke-width:1.135;}
	.st27{fill:none;stroke:#6E5E5E;stroke-width:1.057;}
	.st28{fill:none;stroke:#6E5E5E;stroke-width:0.979;}
	.st29{fill:none;stroke:#6E5E5E;stroke-width:0.901;}
	.st30{fill:none;stroke:#6E5E5E;stroke-width:0.823;}
	.st31{fill:none;stroke:#6E5E5E;stroke-width:0.745;}
	.st32{fill:none;stroke:#6E5E5E;stroke-width:0.666;}
	.st33{fill:none;stroke:#6E5E5E;stroke-width:0.588;}
	.st34{fill:none;stroke:#6E5E5E;stroke-width:0.51;}
	.st35{fill:none;stroke:#6E5E5E;stroke-width:0.432;}
</style>
<g id="Branding_1_">
	<g id="Group" transform="translate(-100.000000, -637.000000)">
		<g transform="translate(100.000000, 637.729474)">
			<rect id="Rectangle" x="318.1" y="-0.5" class="st0" width="1280" height="738"/>
			<g id="Group-4-_x2B_-Rectangle-Mask">
				<g id="Mask_1_">
				</g>
				<defs>
					<filter id="Adobe_OpacityMaskFilter" filterUnits="userSpaceOnUse" x="810" y="-440.9" width="2205" height="1599">
						<feColorMatrix  type="matrix" values="1 0 0 0 0  0 1 0 0 0  0 0 1 0 0  0 0 0 1 0"/>
					</filter>
				</defs>
				<mask maskUnits="userSpaceOnUse" x="810" y="-440.9" width="2205" height="1599" id="mask-2_2_">
					<g class="st1">
						<rect id="path-1_2_" x="318.1" y="-0.7" class="st2" width="1280" height="738"/>
					</g>
				</mask>
				<g id="Group-4" class="st3">
					<g transform="translate(492.000000, -440.000000)">
						<g id="Group-34" transform="translate(227.000000, 0.000000)">
							<path id="Stroke-2" class="st4" d="M2158.4,1465.4c-211.6-29.9-722.3-198.9-845.1-917.8l-2.3-13.4c0,0-1.1-7.1-4.1-7.1
								c-3,0-4,7.1-4,7.1l-2.3,13.4c-122.8,718.9-633.5,888-845.1,917.8"/>
							<path id="Stroke-4" class="st5" d="M2167.6,1446.4c-258.1-25.8-738.8-248.9-853.6-932.6l-2.1-12.6c0,0-1-9.2-4.9-9.2
								c-3.7,0-4.8,8.6-4.8,9.2l-2.2,12.6c-114.9,685.3-596.5,906.8-853.6,932.6"/>
							<path id="Stroke-6" class="st6" d="M2176.8,1427.3c-304.6-21.7-755.3-298.8-862.1-947.4l-2-11.9c0,0-0.9-11.3-5.7-11.3
								c-4.4,0-5.7,10-5.7,11.3l-2,11.9c-107.1,651.7-559.5,925.6-862.1,947.4"/>
							<path id="Stroke-8" class="st7" d="M2186,1408.2c-351.2-17.6-771.8-348.8-870.6-962.2l-1.8-11.2c0,0-0.9-13.3-6.5-13.3
								c-5.1,0-6.5,11.5-6.5,13.3l-1.9,11.2c-99.3,618.1-522.6,944.5-870.6,962.2"/>
							<path id="Stroke-10" class="st8" d="M2195.1,1389.2c-397.7-13.5-788.3-398.7-879.1-977l-1.7-10.5c0,0-0.8-15.4-7.3-15.4
								c-5.8,0-7.3,12.9-7.3,15.4l-1.7,10.5c-91.4,584.4-485.6,963.3-879.1,977"/>
							<path id="Stroke-12" class="st9" d="M2204.3,1370.1c-444.2-9.4-804.8-448.7-887.6-991.8l-1.5-9.7c0,0-0.7-17.5-8.1-17.5
								c-6.4,0-8.1,14.4-8.1,17.5l-1.6,9.7c-83.6,550.8-448.6,982.2-887.6,991.8"/>
							<path id="Stroke-14" class="st10" d="M2213.5,1351.1c-490.7-5.3-821.2-498.6-896.1-1006.5l-1.4-9c0,0-0.7-19.5-8.9-19.5
								c-7.1,0-8.9,15.8-8.9,19.5l-1.5,9c-75.8,517.2-411.6,1001-896.1,1006.5"/>
							<path id="Stroke-16" class="st11" d="M2222.7,1332c-537.3-1.2-837.7-548.6-904.7-1021.3l-1.2-8.3c0,0-0.6-21.6-9.7-21.6
								c-7.8,0-9.7,17.3-9.7,21.6l-1.3,8.3C1228.1,794.3,921.3,1330.5,391.4,1332"/>
							<path id="Stroke-18" class="st12" d="M2231.8,1312.9c-583.8,2.9-854.2-598.5-913.2-1036.1l-1.1-7.5c0,0-0.5-23.7-10.6-23.7
								c-8.5,0-10.5,18.7-10.5,23.7l-1.2,7.5c-60.1,450-337.7,1038.7-913.1,1036.1"/>
							<path id="Stroke-20" class="st13" d="M2241,1293.9c-630.3,7-870.7-648.5-921.7-1050.9l-0.9-6.8c0,0-0.5-25.7-11.4-25.7
								c-9.2,0-11.3,20.2-11.3,25.7l-1,6.8c-52.3,416.4-300.7,1057.5-921.6,1050.9"/>
							<path id="Stroke-22" class="st14" d="M2250.2,1274.8C1573.3,1285.9,1363,576.4,1320,209.1l-0.8-6.1c0,0-0.4-27.8-12.2-27.8
								c-9.9,0-12.1,21.6-12.1,27.8l-0.9,6.1c-44.4,382.8-263.7,1076.4-930.1,1065.7"/>
							<path id="Stroke-24" class="st15" d="M2259.4,1255.7c-723.4,15.2-903.7-748.4-938.7-1080.5l-0.6-5.4c0,0-0.4-29.9-13-29.9
								c-10.6,0-13,23.1-13,29.9l-0.8,5.4c-36.6,349.2-226.8,1095.2-938.6,1080.5"/>
							<path id="Stroke-26" class="st16" d="M2268.5,1236.7c-769.9,19.2-920.2-798.3-947.2-1095.3l-0.5-4.6c0,0-0.3-31.9-13.8-31.9
								c-11.3,0-13.8,24.5-13.8,31.9l-0.6,4.6c-28.8,315.5-189.8,1114.1-947.1,1095.3"/>
							<path id="Stroke-28" class="st17" d="M2277.7,1217.6C1461.3,1240.9,1341,369.3,1322,107.5l-0.3-3.9c0,0-0.2-34-14.6-34
								c-12,0-14.6,26-14.6,34l-0.5,3.9c-20.9,281.9-152.8,1132.9-955.6,1110.1"/>
							<path id="Stroke-30" class="st18" d="M2286.9,1198.5c-863,27.4-953.2-898.2-964.3-1124.8l-0.2-3.2c0,0-0.2-36.1-15.4-36.1
								c-12.6,0-15.4,27.4-15.4,36.1l-0.4,3.2c-13.1,248.3-115.8,1151.8-964.1,1124.8"/>
							<path id="Stroke-32" class="st19" d="M2296.1,1179.5c-909.5,31.5-969.7-948.2-972.8-1139.6v-2.4c0,0-0.1-38.1-16.3-38.1
								c-13.3,0-16.2,28.9-16.2,38.1l-0.2,2.4c-5.2,214.7-78.9,1170.6-972.6,1139.6"/>
						</g>
						<path id="Stroke-35" class="st20" d="M1823.1,1597.3c-173-24.4-590.5-162.6-690.8-750.3l-1.9-10.9c0,0-0.9-5.8-3.3-5.8
							c-2.4,0-3.3,5.8-3.3,5.8l-1.9,10.9c-100.4,587.7-517.9,725.9-690.8,750.3"/>
						<path id="Stroke-37" class="st21" d="M1830.1,1577.3C1621.4,1556,1227,1376.5,1132.7,816l-1.7-7.4c0,0-0.8-10.4-3.9-10.4
							c-3,0-3.9,6.9-3.9,7.4l-1.8,13.3c-94.3,561.6-489.5,737-697.3,758.3"/>
						<path id="Stroke-39" class="st22" d="M1837.1,1557.3c-244.3-18.1-615.7-238.9-703.8-772.2l-1.6-3.9c0,0-0.8-14.9-4.6-14.9
							c-3.5,0-4.5,8-4.5,9l-1.7,15.7c-88.3,535.6-461.2,748.1-703.8,766.3"/>
						<path id="Stroke-41" class="st23" d="M1845.1,1539.3c-280.1-15-628.7-277.4-710.8-784.2l-1.5-0.3c0,0-0.7-19.5-5.2-19.5
							c-4,0-5.2,9.2-5.2,10.6l-1.6,18.2c-82.4,510.3-433.1,760.2-710.8,775.3"/>
						<path id="Stroke-43" class="st24" d="M1851.1,1519.4c-315.8-11.9-641.4-315.5-717.3-795.1l-1.4,3.2c0,0-0.7-24-5.8-24
							c-4.6,0-5.8,10.3-5.8,12.2l-1.5,20.6c-76.4,484.3-404.7,771.3-717.3,783.3"/>
						<path id="Stroke-45" class="st25" d="M1859.1,1498.4c-351.4-8.7-654-353.6-723.8-806.1l-1.3,6.7c0,0-0.6-28.6-6.4-28.6
							c-5.1,0-6.4,11.4-6.4,13.7l-1.3,23c-70.4,458.4-376.4,782.4-723.7,791.3"/>
						<path id="Stroke-47" class="st26" d="M1865.1,1479.4c-387.1-5.6-666.6-392.2-730.3-818l-1.2,10.2c0,0-0.6-33.1-7.1-33.1
							c-5.6,0-7,12.5-7,15.3l-1.2,25.4c-64.4,433-348,794.5-730.2,800.2"/>
						<path id="Stroke-49" class="st27" d="M1872.1,1460.4c-422.5-2.5-678.7-430.3-736.3-829l-1,13.8c0,0-0.5-37.7-7.7-37.7
							c-6.1,0-7.6,13.6-7.6,16.9l-1.1,27.8c-58.3,407.1-319.4,805.6-736.2,808.2"/>
						<path id="Stroke-51" class="st28" d="M1879.1,1440.5c-458.1,0.7-691.4-468.3-742.8-840l-0.9,17.3c0,0-0.5-42.2-8.3-42.2
							c-6.7,0-8.3,14.7-8.3,18.5l-1,30.2c-52.3,381.2-291.1,816.7-742.7,816.3"/>
						<path id="Stroke-53" class="st29" d="M1886.1,1420.5c-494,3.8-704.4-506.3-749.8-850.9l-0.8,20.8c0,0-0.4-46.7-8.9-46.7
							c-7.2,0-8.9,15.8-8.9,20.1l-0.9,32.6c-46.3,355.3-262.9,827.8-749.7,824.2"/>
						<path id="Stroke-55" class="st30" d="M1894.1,1401.5c-529.7,7-717-545.5-756.3-863.8l-0.7,24.4c0,0-0.4-51.4-9.5-51.4
							c-7.7,0-9.5,16.9-9.5,21.7l-0.8,35.1c-40.3,330.1-234.6,840.8-756.2,834.1"/>
						<path id="Stroke-57" class="st31" d="M1900.1,1381.4c-565.3,10.1-729.6-583.6-762.8-874.7l-0.6,27.9c0,0-0.3-55.9-10.2-55.9
							c-8.3,0-10.1,18-10.1,23.2l-0.7,37.4c-34.3,304.2-206.2,851.8-762.6,842"/>
						<path id="Stroke-59" class="st32" d="M1908.1,1361.4c-601,13.2-742.3-621.5-769.3-885.6l-0.5,31.4c0,0-0.3-60.4-10.8-60.4
							c-8.8,0-10.8,19.1-10.8,24.8l-0.6,39.8c-28.3,278.3-177.9,862.9-769.1,850"/>
						<path id="Stroke-61" class="st33" d="M1914.1,1343.3c-636.6,16.4-754.9-660.2-775.8-897.5l-0.3,34.9c0,0-0.2-65-11.4-65
							c-9.3,0-11.4,20.3-11.4,26.4l-0.5,42.3c-22.3,252.8-149.5,874.8-775.6,858.8"/>
						<path id="Stroke-63" class="st34" d="M1922.1,1323.2c-672.7,19.5-768-698.1-782.7-908.3l-0.2,38.5c0,0-0.2-69.5-12-69.5
							c-9.9,0-12,21.4-12,28l-0.4,44.7c-16.3,226.9-121.2,885.9-782.6,866.8"/>
						<path id="Stroke-65" class="st35" d="M1929.1,1303.1c-707.9,22.6-780.1-736-788.7-919.2l-0.1,42c0,0-0.1-74.1-12.7-74.1
							c-10.4,0-12.6,22.5-12.6,29.6l-0.3,47c-10.3,201-92.8,896.9-788.6,874.7"/>
						<path id="Stroke-67" class="st19" d="M1935.1,1284c-743.5,25.8-792.7-774.6-795.2-931v45.5c0,0-0.1-78.6-13.3-78.6
							c-10.9,0-13.2,23.6-13.2,31.2l-0.2,49.5c-4.3,175.4-64.5,908.8-795.1,883.5"/>
					</g>
				</g>
			</g>
		</g>
	</g>
</g>
</svg>
