<?xml version="1.0" encoding="UTF-8"?>
<svg width="200px" height="200px" viewBox="0 0 200 200" version="1.1" xmlns="http://www.w3.org/2000/svg" xmlns:xlink="http://www.w3.org/1999/xlink">
    <title>3DE51D44-F1E8-4318-A730-B0A7EE2FBF0A@1x</title>
    <g id="Icon-and-Graphic" stroke="none" stroke-width="1" fill="none" fill-rule="evenodd">
        <g id="Icon" transform="translate(-324.000000, -909.000000)">
            <g id="Group-3" transform="translate(324.000000, 909.000000)">
                <rect id="Rectangle-Copy" x="0" y="0" width="200" height="200"></rect>
                <g id="Graphic/Payment-Result/200px/Check-Notification-Copy" fill-rule="nonzero">
                    <g id="Graphic-02" transform="translate(29.000000, 25.000000)">
                        <path d="M24.5586391,146.860303 C24.5586391,145.130303 42.3886391,143.730303 64.3886391,143.730303 C86.3886391,143.730303 104.218639,145.130303 104.218639,146.860303 C104.218639,148.590303 86.3886391,150.000303 64.3886391,150.000303 C42.3886391,150.000303 24.5586391,148.600303 24.5586391,146.860303 Z" id="Path" fill="#FFD03E" opacity="0.12"></path>
                        <path d="M83.7186391,139.000303 C83.7186391,138.050303 93.4986391,137.280303 105.558639,137.280303 C117.618639,137.280303 127.398639,138.050303 127.398639,139.000303 C127.398639,139.950303 117.618639,140.720303 105.558639,140.720303 C93.4986391,140.720303 83.7186391,140.000303 83.7186391,139.000303 Z" id="Path" fill="#FFD03E" opacity="0.12"></path>
                        <path d="M58.3486391,79.4903033 C59.8086391,78.7703033 63.0086391,63.7203033 60.1686391,62.9203033 C57.9586391,62.3003033 57.2486391,64.6303033 57.0586391,65.5003033 C56.7586391,66.8603033 56.2486391,70.1903033 55.2686391,69.8103033 C53.5086391,69.1203033 55.8686391,60.8103033 56.2686391,58.8103033 C56.6686391,56.8103033 57.0486391,52.6603033 55.4086391,51.0203033 C53.7686391,49.3803033 52.9686391,48.9003033 52.3686391,52.5303033 C51.7686391,56.1603033 51.5086391,63.4503033 49.7986391,61.3703033 C48.0886391,59.2903033 49.6086391,53.6903033 49.3086391,50.1603033 C49.0086391,46.6303033 47.2286391,40.0003033 45.1786391,41.6903033 C43.3386391,43.2003033 45.7186391,53.4103033 43.9286391,53.0203033 C42.4986391,52.7003033 42.9286391,49.6903033 42.0886391,45.1003033 C41.2486391,40.5103033 40.4486391,36.1603033 37.6686391,36.4003033 C35.4386391,36.5903033 36.5886391,39.4003033 36.9986391,41.9103033 C37.4086391,44.4203033 37.8486391,47.9103033 36.5786391,47.2203033 C35.3086391,46.5303033 34.4686391,34.2203033 30.7986391,33.7203033 C28.3686391,33.3903033 29.3886391,35.9703033 29.6986391,38.8903033 C30.0086391,41.8103033 29.9086391,42.8903033 29.3086391,42.7303033 C28.7086391,42.5703033 27.6486391,38.7303033 27.1186391,36.5903033 C26.5886391,34.4503033 25.1186391,31.5903033 23.1186391,31.9803033 C21.1186391,32.3703033 22.3086391,35.7503033 23.0386391,36.8803033 C23.7686391,38.0103033 23.9786391,39.4003033 23.6386391,39.6103033 C23.2986391,39.8203033 20.6386391,36.2603033 19.0086391,37.9303033 C17.3786391,39.6003033 20.2786391,42.7503033 22.5486391,43.2503033 C24.8186391,43.7503033 27.8486391,44.5103033 27.6686391,45.3303033 C27.4886391,46.1503033 24.8686391,45.5803033 22.7986391,45.1303033 C20.7286391,44.6803033 19.7986391,44.9603033 19.6786391,45.5103033 C19.2786391,47.3503033 21.6786391,49.5103033 23.1386391,49.8303033 C24.5986391,50.1503033 33.3586391,50.9303033 33.1386391,52.1503033 C32.9186391,53.3703033 29.6286391,52.7403033 27.9586391,52.3703033 C26.2886391,52.0003033 22.3986391,51.1403033 21.9586391,53.1903033 C21.5186391,55.2403033 26.5186391,57.4903033 29.7386391,58.0003033 C32.9586391,58.5103033 38.2486391,58.9303033 38.0386391,59.8703033 C37.8286391,60.8103033 33.5386391,61.1903033 31.5086391,60.7503033 C29.4786391,60.3103033 26.0886391,58.4703033 25.5086391,61.0003033 C24.9286391,63.5303033 27.8686391,64.7103033 31.8686391,65.5903033 C33.5386391,65.9603033 37.6586391,66.8203033 40.2086391,65.9203033 C43.0986391,64.9203033 44.7086391,64.8503033 44.9786391,65.5103033 C45.5286391,66.8303033 42.8586391,67.3903033 40.8586391,67.3703033 C38.8586391,67.3503033 32.6686391,66.8803033 33.1586391,69.9603033 C33.6486391,73.0403033 38.7186391,72.1403033 40.7986391,71.9603033 C42.8786391,71.7803033 50.1486391,70.6003033 50.4286391,72.1903033 C50.7086391,73.7803033 46.6986391,73.3903033 45.4286391,73.4003033 C44.1586391,73.4103033 41.5886391,74.2603033 42.2186391,75.2503033 C42.8486391,76.2403033 55.7286391,80.7703033 58.3486391,79.4903033 Z" id="Path" fill="#FFD03E" opacity="0.12"></path>
                        <path d="M82.6786391,57.0703033 C85.1986391,64.5103033 92.4086391,65.9303033 100.678639,61.7903033 C97.0686391,55.5303033 88.8686391,51.1403033 82.6786391,57.0703033 Z" id="Path" fill="#666666"></path>
                        <path d="M121.618639,21.2103033 C123.248639,21.0803033 124.848639,20.4203033 124.698639,19.4103033 C124.548639,18.4003033 122.948639,18.2803033 121.378639,18.5103033 C122.148639,17.3103033 122.498639,15.9903033 121.758639,15.5103033 C120.298639,14.5103033 117.538639,18.8803033 117.758639,20.2703033 C117.758639,22.1503033 121.758639,25.2103033 122.758639,23.8203033 C123.278639,23.1403033 122.608639,22.1003033 121.618639,21.2103033 Z" id="Path" fill="#FCBA06"></path>
                        <path d="M107.228639,30.2503033 C107.189146,30.2593047 107.148133,30.2593047 107.108639,30.2503033 C106.985577,30.1803183 106.941126,30.0247384 107.008639,29.9003033 C108.473706,27.2413444 110.408264,24.8697317 112.718639,22.9003033 C114.628639,21.2703033 116.598639,20.1303033 117.718639,20.0003033 C117.785031,19.9918509 117.85204,20.0103724 117.904667,20.051722 C117.957294,20.0930716 117.991144,20.1537962 117.998639,20.2203033 C118.016488,20.3607439 117.918695,20.4896529 117.778639,20.5103033 C115.848639,20.7303033 110.468639,24.5103033 107.448639,30.1003033 C107.406774,30.1855012 107.323242,30.2424544 107.228639,30.2503033 Z" id="Path" fill="#FFD03E"></path>
                        <path d="M119.198639,21.4003033 C119.161454,21.0933656 119.01609,20.8097297 118.788639,20.6003033 C119.218639,20.5103033 119.788639,20.1003033 119.618639,19.6003033 C119.448639,19.1003033 118.928639,19.4303033 118.468639,19.6503033 C118.538535,19.484074 118.585628,19.3091554 118.608639,19.1303033 C118.768639,17.6703033 117.318639,19.4903033 117.538639,20.2503033 C117.626748,20.5190158 117.744119,20.7772322 117.888639,21.0203033 C118.248639,21.7003033 119.158639,22.0003033 119.198639,21.4003033 Z" id="Path" fill="#FFD03E"></path>
                        <path d="M59.0286391,79.2003033 C51.2386391,73.8203033 43.2586391,77.6403033 38.2686391,87.5903033 C46.2586391,91.0003033 57.2986391,89.3903033 59.0286391,79.2003033 Z" id="Path" fill="#999999"></path>
                        <path d="M40.7586391,86.7003033 C40.6581167,86.7034323 40.5663046,86.6435548 40.5286391,86.5503033 C40.4980614,86.4895225 40.4935775,86.4189044 40.5162223,86.3547444 C40.538867,86.2905843 40.5866839,86.2384253 40.6486391,86.2103033 C43.6486391,84.8103033 47.7986391,83.2703033 51.4486391,81.9103033 C54.4486391,80.7903033 57.2886391,79.7303033 58.9186391,78.9703033 C58.9794199,78.9397255 59.050038,78.9352417 59.114198,78.9578864 C59.1783581,78.9805311 59.2305171,79.0283481 59.2586391,79.0903033 C59.3150978,79.2201285 59.2573109,79.3712632 59.1286391,79.4303033 C57.4886391,80.2003033 54.6486391,81.2603033 51.6286391,82.4303033 C47.9786391,83.7803033 43.8486391,85.3203033 40.8686391,86.7203033 L40.7586391,86.7003033 Z" id="Path" fill="#666666"></path>
                        <path d="M80.4286391,56.1103033 C89.9686391,59.5303033 97.1886391,53.3703033 99.6186391,41.6903033 C90.3886391,40.3203033 79.4086391,45.0703033 80.4286391,56.1103033 Z" id="Path" fill="#999999"></path>
                        <path d="M80.4286391,56.3603033 C80.3551565,56.3596857 80.2856671,56.3267696 80.2386391,56.2703033 C80.1897511,56.2231825 80.1621326,56.1582032 80.1621326,56.0903033 C80.1621326,56.0224033 80.1897511,55.9574241 80.2386391,55.9103033 C81.7186391,54.6603033 84.3886391,52.7703033 87.2386391,50.7703033 C90.6386391,48.3703033 94.4986391,45.6303033 97.2386391,43.3703033 C97.3044947,43.2890306 97.412643,43.2551387 97.5131039,43.2842906 C97.6135647,43.3134425 97.6867722,43.3999605 97.698894,43.5038608 C97.7110158,43.6077611 97.659691,43.708808 97.5686391,43.7603033 C94.8486391,46.0403033 90.9886391,48.7603033 87.5686391,51.1903033 C84.7586391,53.1903033 82.1086391,55.0603033 80.6386391,56.3003033 C80.580213,56.3489857 80.5039653,56.3707708 80.4286391,56.3603033 L80.4286391,56.3603033 Z" id="Path" fill="#666666"></path>
                        <g id="Group" opacity="0.12" transform="translate(75.613435, 69.950303)" fill="#FFD03E">
                            <path d="M33.5352038,10.28 C36.5352038,12.78 39.6752038,10.98 41.4652038,9.76 C40.5052038,9.05 36.4352038,6.48 33.5352038,10.28 Z" id="Path"></path>
                            <path d="M0.255203836,18.31 C0.163590349,18.3102501 0.0791781325,18.2603701 0.0352038362,18.18 C-1.42108547e-14,18.1207946 -0.00931087966,18.0496618 0.00961975114,17.9834045 C0.0285503819,17.9171473 0.0739896742,17.8616419 0.135203836,17.83 C4.66018484,15.4305195 9.46748899,13.6063642 14.4452038,12.4 C20.8385495,10.7870306 27.4117403,9.99730671 34.0052038,10.05 C34.1448782,10.055376 34.2552039,10.1702223 34.2552039,10.31 C34.2552039,10.4480712 34.143275,10.56 34.0052038,10.56 L34.0052038,10.56 C27.4514646,10.5104254 20.9183475,11.3001798 14.5652038,12.91 C9.62752417,14.1136178 4.85789672,15.9240609 0.365203836,18.3 C0.329618022,18.3108778 0.292167845,18.3142823 0.255203836,18.31 Z" id="Path"></path>
                            <path d="M4.25520384,14.18 C9.10520384,8.05 5.54520384,3.55 2.96520384,0 C1.66520384,1.99 -3.55479616,8.55 4.25520384,14.18 Z" id="Path"></path>
                            <path d="M11.2552038,11.34 C16.2552038,7.55 14.3852038,3.34 13.0852038,0.07 C11.6152038,1.34 6.25520384,5.4 11.2552038,11.34 Z" id="Path"></path>
                            <path d="M19.2552038,9.81 C24.1952038,7.65 23.4752038,3.75 23.0552038,0.76 C21.5752038,1.54 16.2552038,3.84 19.2552038,9.81 Z" id="Path"></path>
                            <path d="M27.0752038,8.97 C30.3952038,8.53 30.6452038,6.08 30.9052038,4.22 C29.9052038,4.43 26.3352038,4.89 27.0752038,8.97 Z" id="Path"></path>
                            <path d="M6.44520384,17.64 C13.3452038,17.48 14.6252038,22.38 15.7552038,26.08 C13.6352038,25.97 6.25520384,26.16 6.44520384,17.64 Z" id="Path"></path>
                            <path d="M14.0452038,14.7 C19.8952038,13.63 21.6452038,17.64 23.1052038,20.64 C21.2552038,20.83 15.0152038,21.99 14.0452038,14.7 Z" id="Path"></path>
                            <path d="M23.5052038,12.58 C27.5552038,12.99 27.9452038,15.95 28.3352038,18.2 C27.1052038,17.98 22.7652038,17.55 23.5052038,12.58 Z" id="Path"></path>
                            <path d="M29.9852038,11.61 C32.3452038,11.41 32.8852038,13.06 33.3452038,14.31 C32.6152038,14.31 30.0852038,14.54 29.9852038,11.61 Z" id="Path"></path>
                        </g>
                        <path d="M118.558639,121.770303 C124.308639,113.850303 133.418639,114.830303 141.728639,122.830303 C135.108639,129.000303 123.748639,131.140303 118.558639,121.770303 Z" id="Path" fill="#666666"></path>
                        <path d="M114.458639,119.900303 C112.458639,107.250303 121.858639,99.7703033 136.938639,99.5403033 C136.428639,111.320303 127.868639,123.810303 114.458639,119.900303 Z" id="Path" fill="#999999"></path>
                        <path d="M114.458639,120.160303 C114.382242,120.15995 114.30957,120.127248 114.258639,120.070303 C114.162128,119.969708 114.162128,119.810898 114.258639,119.710303 C116.158639,118.170303 119.128639,115.330303 122.258639,112.320303 C126.068639,108.670303 130.388639,104.530303 133.858639,101.710303 C133.928306,101.65306 134.023177,101.637487 134.107514,101.669239 C134.191852,101.700991 134.252843,101.775325 134.267514,101.864239 C134.282185,101.953154 134.248306,102.043141 134.178639,102.100303 C130.718639,104.920303 126.418639,109.100303 122.608639,112.690303 C119.458639,115.690303 116.488639,118.560303 114.608639,120.100303 C114.567539,120.137783 114.514249,120.159099 114.458639,120.160303 L114.458639,120.160303 Z" id="Path" fill="#666666"></path>
                        <path d="M49.5886391,140.820303 C53.1186391,138.500303 61.8086391,121.430303 54.9786391,118.120303 C48.4986391,114.980303 46.4486391,128.340303 46.0586391,130.070303 C44.7086391,123.520303 42.9486391,117.160303 38.6186391,118.310303 C34.2886391,119.460303 38.6186391,128.720303 38.6186391,128.720303 C34.6886391,123.720303 24.8786391,116.000303 20.4186391,118.310303 C15.9586391,120.620303 29.4786391,128.930303 29.4786391,128.930303 C23.3286391,125.450303 4.95863912,120.750303 23.3086391,129.610303 C14.9086391,126.900303 -1.48136088,125.560303 16.7386391,131.230303 C5.73863912,130.280303 0.208639117,131.770303 0.0086391168,133.320303 C-0.191360883,134.870303 3.00863912,137.040303 17.2086391,137.400303 C10.2086391,138.550303 6.69863912,140.190303 8.49863912,140.820303 L49.5886391,140.820303 Z" id="Path" fill="#DBDBDA"></path>
                        <path d="M26.1086391,132.580303 C26.1113785,132.428307 26.0522051,132.281728 25.9447098,132.174233 C25.8372145,132.066737 25.6906357,132.007564 25.5386391,132.010303 C25.2238368,132.010303 24.9686391,132.265501 24.9686391,132.580303 C24.9739832,132.892865 25.2260772,133.144959 25.5386391,133.150303 C25.8534414,133.150303 26.1086391,132.895106 26.1086391,132.580303 L26.1086391,132.580303 Z" id="Path" fill="#FFFFFF"></path>
                        <path d="M45.6486391,135.930303 C45.6526815,135.572589 45.4397724,135.248026 45.1100449,135.109261 C44.7803174,134.970496 44.3993999,135.045147 44.1464413,135.298105 C43.8934828,135.551064 43.8188316,135.931982 43.957597,136.261709 C44.0963623,136.591437 44.4209246,136.804346 44.7786391,136.800303 C45.0093775,136.800303 45.2306654,136.708643 45.393822,136.545486 C45.5569787,136.38233 45.6486391,136.161042 45.6486391,135.930303 Z" id="Path" fill="#FFFFFF"></path>
                        <path d="M34.2486391,129.440303 C34.2486391,129.02609 33.9128527,128.690303 33.4986391,128.690303 C33.0844256,128.690303 32.7486391,129.02609 32.7486391,129.440303 C32.7486391,129.854517 33.0844256,130.190303 33.4986391,130.190303 C33.9128527,130.190303 34.2486391,129.854517 34.2486391,129.440303 L34.2486391,129.440303 Z" id="Path" fill="#FFFFFF"></path>
                        <path d="M46.3486391,0.930303271 C46.9866466,0.322337951 47.8374264,-0.0115123553 48.7186391,0.000303271364 C49.5933139,-0.00235481774 50.4365379,0.326359593 51.0786391,0.920303271 C51.8206265,1.73423982 52.1838671,2.82396157 52.0786391,3.92030327 C52.0416952,4.59627142 51.9344501,5.26655385 51.7586391,5.92030327 C51.5386391,6.81030327 51.1586391,8.28030327 50.5986391,10.3103033 C50.3085724,11.3164895 50.0748758,12.3380774 49.8986391,13.3703033 C49.7786391,14.1803033 49.5786391,15.8203033 49.3086391,18.2803033 L48.1686391,18.2803033 C47.7986391,15.1803033 47.5386391,13.2803033 47.4086391,12.5403033 C47.2028823,11.5039484 46.9425195,10.479187 46.6286391,9.47030327 C46.1219725,7.8236366 45.8019725,6.7136366 45.6686391,6.14030327 C45.4796823,5.46863469 45.3689483,4.77738628 45.3386391,4.08030327 C45.2241939,2.93570394 45.58996,1.79494846 46.3486391,0.930303271 L46.3486391,0.930303271 Z M46.3486391,22.4403033 C47.4952146,21.3004848 49.2871348,21.1289513 50.629127,22.0305489 C51.9711193,22.9321465 52.4896872,24.6559473 51.8678673,26.148315 C51.2460474,27.6406828 49.6569014,28.4862694 48.0717606,28.1682283 C46.4866199,27.8501871 45.3466525,26.4570338 45.3486391,24.8403033 C45.3318918,23.9396744 45.6862758,23.0717953 46.3286391,22.4403033 L46.3486391,22.4403033 Z" id="Shape" fill="#FFD03E"></path>
                        <path d="M13.1286391,87.2703033 L12.3686391,87.2703033 C12.3119574,86.1658905 12.38242,85.0586224 12.5786391,83.9703033 C12.8817864,82.9299058 13.3152214,81.9319973 13.8686391,81.0003033 C14.4451646,80.0272074 14.9145699,78.9945156 15.2686391,77.9203033 C15.5125931,76.983669 15.6269915,76.0180122 15.6086391,75.0503033 C15.7174978,73.6713689 15.346571,72.2971733 14.5586391,71.1603033 C13.9742747,70.3758543 13.0567769,69.9097063 12.0786391,69.9003033 C11.4237687,69.8817606 10.7820296,70.0862709 10.2586391,70.4803033 C9.94358795,70.681426 9.74024441,71.0178671 9.70863912,71.3903033 C9.75441533,71.7474134 9.88095064,72.0894007 10.0786391,72.3903033 C10.5764452,73.1722595 10.8719801,74.0657369 10.9386391,74.9903033 C10.9546641,75.6037172 10.7114242,76.19548 10.2686391,76.6203033 C9.82952654,77.0517354 9.23402255,77.2863279 8.61863912,77.2703033 C7.91613584,77.2855447 7.24014179,77.0020633 6.75863912,76.4903033 C6.23528452,75.9277615 5.96123704,75.1777369 5.99863912,74.4103033 C6.0142376,72.8094667 6.74856584,71.3004222 7.99863912,70.3003033 C9.61533571,69.0431762 11.6343764,68.4175579 13.6786391,68.5403033 C15.7985929,68.3929156 17.8967395,69.0459102 19.5586391,70.3703033 C20.8410851,71.4876824 21.5715933,73.1094106 21.5586391,74.8103033 C21.5637348,76.0522041 21.1981381,77.2673779 20.5086391,78.3003033 C19.4210823,79.7345663 18.0619315,80.9408127 16.5086391,81.8503033 C15.4826425,82.4269821 14.5844825,83.2060679 13.8686391,84.1403033 C13.3857947,85.1132954 13.1326331,86.1841005 13.1286391,87.2703033 Z M12.9686391,90.1703001 C14.416895,90.1723503 15.6832362,91.1468265 16.0561902,92.5462387 C16.4291442,93.9456509 15.815726,95.4210973 14.5605744,96.1436231 C13.3054227,96.8661489 11.7214723,96.6556137 10.6986391,95.6303033 C9.78446926,94.7139193 9.51239748,93.3370539 10.0093101,92.1418368 C10.5062227,90.9466197 11.6742424,90.1684737 12.9686391,90.1703001 L12.9686391,90.1703001 Z" id="Shape" fill="#FFD03E"></path>
                        <path d="M118.738639,42.8903033 C124.668639,42.8903033 129.008639,46.3903033 129.008639,51.4003033 L129.008639,51.6103033 C129.008639,56.4103033 125.918639,58.5003033 122.828639,59.8303033 L121.918639,60.2103033 C120.961246,60.5343497 120.377864,61.5024264 120.538639,62.5003033 L120.538639,64.0003033 L115.738639,64.0003033 L115.738639,62.2003033 C115.738639,59.4903033 116.568639,57.7803033 119.198639,56.6503033 L120.078639,56.2803033 C122.748639,55.1103033 124.168639,54.0603033 124.168639,51.6403033 C124.168639,49.0103033 121.918639,47.3903033 118.738639,47.3903033 C115.558639,47.3903033 112.868639,49.0003033 112.868639,52.2403033 L112.868639,53.4103033 L108.068639,53.4103033 L108.068639,52.0003033 C108.098639,46.3103033 112.728639,42.8903033 118.738639,42.8903033 Z M118.118639,66.0503033 C119.582356,66.0422163 120.906078,66.9187864 121.46996,68.2695529 C122.033843,69.6203193 121.72626,71.1778835 120.691239,72.2129037 C119.656219,73.2479238 118.098655,73.5555067 116.747889,72.9916243 C115.397122,72.4277418 114.520552,71.1040205 114.528639,69.6403033 C114.50363,68.6807277 114.873824,67.7529942 115.552577,67.0742414 C116.23133,66.3954886 117.159064,66.0252942 118.118639,66.0503033 Z" id="Shape" fill="#FFD03E"></path>
                        <path d="M45.3686391,104.840303 L31.9486391,81.6003033 C31.7285041,81.0953975 31.2477801,80.753122 30.6986391,80.7103033 L30.6986391,107.000303 L44.1286391,107.000303 C45.4886391,107.000303 46.0486391,106.000303 45.3686391,104.840303 Z" id="Path" fill="#EF5A36"></path>
                        <path d="M29.4586391,81.6003033 L16.0386391,104.840303 C15.3586391,106.030303 15.9186391,107.000303 17.2786391,107.000303 L30.6986391,107.000303 L30.6986391,80.7103033 C30.1531999,80.7566666 29.6771042,81.0983805 29.4586391,81.6003033 Z" id="Path" fill="#FF825C"></path>
                        <path d="M29.5686391,89.5703033 C29.8752566,89.2846521 30.279591,89.1272122 30.6986391,89.1303033 C31.1182554,89.1240918 31.5237131,89.2819692 31.8286391,89.5703033 C32.1886323,89.9591905 32.3667222,90.4825567 32.3186391,91.0103033 C32.3054484,91.3488317 32.251732,91.6845592 32.1586391,92.0103033 C32.0586391,92.4303033 31.8786391,93.1303033 31.6086391,94.1003033 C31.4712985,94.580384 31.3611238,95.0678236 31.2786391,95.5603033 C31.2186391,95.9403033 31.1186391,96.7303033 30.9886391,97.9003033 L30.4386391,97.9003033 C30.2586391,96.4203033 30.1386391,95.5103033 30.0786391,95.1603033 C29.9801314,94.6676799 29.8566386,94.1803841 29.7086391,93.7003033 C29.4686391,92.9003033 29.3186391,92.3603033 29.2486391,92.0903033 C29.1583418,91.7639446 29.1046776,91.4285434 29.0886391,91.0903033 C29.0310979,90.5390127 29.2049234,89.9885654 29.5686391,89.5703033 Z M29.5686391,99.8303033 C30.2034201,99.2037946 31.2238581,99.2037946 31.8586391,99.8303033 C32.3222566,100.293506 32.4611229,100.990411 32.2104627,101.595941 C31.9598025,102.201472 31.369,102.596329 30.7136391,102.596329 C30.0582783,102.596329 29.4674757,102.201472 29.2168155,101.595941 C28.9661553,100.990411 29.1050216,100.293506 29.5686391,99.8303033 L29.5686391,99.8303033 Z" id="Shape" fill="#FFFFFF"></path>
                        <path d="M112.228639,35.5203033 L99.7786391,13.9403033 C99.5696592,13.476527 99.1255634,13.1625972 98.6186391,13.1203033 L98.6186391,37.5203033 L111.068639,37.5203033 C112.338639,37.5203033 112.868639,36.6203033 112.228639,35.5203033 Z" id="Path" fill="#EF5A36"></path>
                        <path d="M97.4586391,13.9403033 L85.0086391,35.5203033 C84.3786391,36.6203033 84.8986391,37.5203033 86.1686391,37.5203033 L98.6186391,37.5203033 L98.6186391,13.1203033 C98.1117148,13.1625972 97.667619,13.476527 97.4586391,13.9403033 Z" id="Path" fill="#FF825C"></path>
                        <path d="M97.5686391,21.3403033 C98.1586829,20.795214 99.0685953,20.795214 99.6586391,21.3403033 C99.9962232,21.7008279 100.163616,22.1884516 100.118639,22.6803033 C100.102376,22.9816789 100.052056,23.2802457 99.9686391,23.5703033 C99.8786391,23.9603033 99.7086391,24.5703033 99.4586391,25.5103033 C99.3319973,25.9546313 99.2285245,26.4052386 99.1486391,26.8603033 C99.0986391,27.2203033 99.0086391,27.9503033 98.8886391,29.0403033 L98.3786391,29.0403033 C98.2086391,27.6603033 98.0986391,26.8203033 98.0386391,26.4903033 C97.9472881,26.0341172 97.8304381,25.5834102 97.6886391,25.1403033 C97.4786391,24.3903033 97.3286391,23.9003033 97.2686391,23.6503033 C97.1830055,23.3539291 97.1326572,23.0484822 97.1186391,22.7403033 C97.0675313,22.231375 97.2305713,21.7241393 97.5686391,21.3403033 L97.5686391,21.3403033 Z M97.5686391,30.8703033 C98.1542742,30.2853965 99.103004,30.2853965 99.6886391,30.8703033 C100.118023,31.2991533 100.246699,31.9444764 100.014637,32.5052172 C99.7825749,33.0659579 99.2355024,33.4316232 98.6286391,33.4316232 C98.0217759,33.4316232 97.4747034,33.0659579 97.2426413,32.5052172 C97.0105792,31.9444764 97.1392551,31.2991533 97.5686391,30.8703033 L97.5686391,30.8703033 Z" id="Shape" fill="#FFFFFF"></path>
                        <circle id="Oval" fill="#FCBA06" transform="translate(88.539597, 25.841249) rotate(-6.440000) translate(-88.539597, -25.841249) " cx="88.5395972" cy="25.8412493" r="3.8"></circle>
                        <path d="M87.8686391,27.6403154 C87.801877,27.6409464 87.737426,27.6158822 87.6886391,27.5703033 L86.3686391,26.3003033 C86.2708519,26.1963531 86.2708519,26.0342535 86.3686391,25.9303033 C86.4157599,25.8814153 86.4807392,25.8537968 86.5486391,25.8537968 C86.6165391,25.8537968 86.6815183,25.8814153 86.7286391,25.9303033 L87.8686391,27.0003033 L90.3986391,24.4703033 C90.4980504,24.370892 90.6592279,24.370892 90.7586391,24.4703033 C90.8580504,24.5697145 90.8580504,24.730892 90.7586391,24.8303033 L88.0486391,27.5403033 C88.006713,27.5989899 87.940617,27.6357099 87.8686391,27.6403154 L87.8686391,27.6403154 Z" id="Path" fill="#FFFFFF"></path>
                        <circle id="Oval" fill="#FCBA06" transform="translate(36.106053, 117.643899) rotate(-4.090000) translate(-36.106053, -117.643899) " cx="36.1060526" cy="117.643899" r="3.8"></circle>
                        <path d="M37.4686391,119.260303 C37.4007056,119.257255 37.3364239,119.228686 37.2886391,119.180303 L34.5786391,116.470303 C34.4808519,116.366353 34.4808519,116.204253 34.5786391,116.100303 C34.6811314,116.008631 34.8361469,116.008631 34.9386391,116.100303 L37.6486391,118.820303 C37.6975271,118.867424 37.7251456,118.932403 37.7251456,119.000303 C37.7251456,119.068203 37.6975271,119.133182 37.6486391,119.180303 C37.6021156,119.23048 37.5370589,119.259394 37.4686391,119.260303 L37.4686391,119.260303 Z" id="Path" fill="#FFFFFF"></path>
                        <path d="M34.7586391,119.260303 C34.6902193,119.259394 34.6251626,119.23048 34.5786391,119.180303 C34.5297511,119.133182 34.5021326,119.068203 34.5021326,119.000303 C34.5021326,118.932403 34.5297511,118.867424 34.5786391,118.820303 L37.2886391,116.100303 C37.3911314,116.008631 37.5461469,116.008631 37.6486391,116.100303 C37.7464263,116.204253 37.7464263,116.366353 37.6486391,116.470303 L34.9386391,119.180303 C34.8908543,119.228686 34.8265726,119.257255 34.7586391,119.260303 L34.7586391,119.260303 Z" id="Path" fill="#FFFFFF"></path>
                        <path d="M54.2386391,73.3303033 C54.2386391,82.2703033 54.2386391,122.330303 54.2386391,140.670303 L57.4886391,140.670303 C59.3186391,136.130303 71.4886391,81.9603033 72.7186391,73.3303033 L54.2386391,73.3303033 Z" id="Path" fill="#333333"></path>
                        <path d="M57.5186391,141.850303 L57.5186391,140.670303 L54.2686391,140.670303 C54.2474356,141.404114 54.1228764,142.131271 53.8986391,142.830303 C54.7486391,143.150303 55.9786391,142.310303 57.5186391,141.850303 Z" id="Path" fill="#F0CCC0"></path>
                        <path d="M57.5186391,141.850303 C55.9786391,142.310303 54.7486391,143.150303 53.8986391,142.850303 C53.4486391,143.170303 46.8986391,145.540303 46.1886391,146.000303 C45.4786391,146.460303 45.6086391,147.200303 46.3286391,147.200303 C47.3986391,147.200303 56.1486391,146.810303 56.1486391,146.810303 L56.4686391,147.200303 L58.4686391,147.200303 C59.0586391,146.150303 58.8686391,143.000303 57.5186391,141.850303 Z" id="Path" fill="#000000"></path>
                        <path d="M81.4086391,141.850303 L81.4086391,140.670303 L78.1586391,140.670303 C78.1374356,141.404114 78.0128764,142.131271 77.7886391,142.830303 C78.6386391,143.150303 79.8686391,142.310303 81.4086391,141.850303 Z" id="Path" fill="#F0CCC0"></path>
                        <path d="M81.4086391,141.850303 C79.8686391,142.310303 78.6386391,143.150303 77.7886391,142.850303 C77.3386391,143.170303 70.7886391,145.540303 70.0786391,146.000303 C69.3686391,146.460303 69.4986391,147.200303 70.2286391,147.200303 C71.2886391,147.200303 80.0386391,146.810303 80.0386391,146.810303 L80.3586391,147.200303 L82.3586391,147.200303 C82.9486391,146.150303 82.7886391,143.000303 81.4086391,141.850303 Z" id="Path" fill="#000000"></path>
                        <path d="M78.2086391,73.3303033 C78.3886391,76.7203033 81.4086391,122.330303 81.4086391,140.670303 L78.1586391,140.670303 C76.3386391,136.130303 60.9286391,81.9603033 59.6986391,73.3303033 L78.2086391,73.3303033 Z" id="Path" fill="#666666"></path>
                        <path d="M62.3286391,34.5403033 C59.3286391,38.5403033 50.7386391,48.8103033 48.7086391,50.5403033 C46.6786391,52.2703033 43.6086391,56.4803033 48.8186391,55.7303033 C53.5786391,54.4003033 61.8186391,51.2803033 64.2486391,47.2903033 C66.6786391,43.3003033 62.3286391,34.5403033 62.3286391,34.5403033 Z" id="Path" fill="#ED9F00"></path>
                        <path d="M78.2086391,73.3303033 L54.2086391,73.3303033 C54.8386391,64.6703033 55.0186391,42.6303033 58.9986391,37.7903033 C63.6986391,32.0503033 67.0686391,32.7103033 71.6786391,37.3203033 C77.9186391,43.5403033 79.1586391,66.1103033 78.2086391,73.3303033 Z" id="Path" fill="#FCBA06"></path>
                        <path d="M58.8086391,73.3403033 L57.8086391,73.3403033 C57.9986391,64.5903033 58.1986391,59.7403033 58.3486391,56.1903033 C58.4386391,54.1903033 58.4986391,52.6803033 58.5486391,51.0103033 C58.7086391,44.5603033 61.3686391,37.3903033 62.8186391,35.2003033 L63.6786391,35.7603033 C61.1929487,40.4733501 59.779257,45.6773745 59.5386391,51.0003033 C59.5386391,52.6803033 59.4286391,54.2403033 59.3486391,56.2103033 C59.1986391,59.7503033 58.9886391,64.6003033 58.8086391,73.3403033 Z" id="Path" fill="#ED9F00"></path>
                        <path d="M68.1786391,28.3403033 C68.0386391,29.5003033 67.9886391,33.9103033 68.9686391,35.1703033 C68.2586391,35.7003033 64.5286391,36.4603033 61.7386391,35.3403033 C62.3386391,34.6003033 63.2886391,34.1003033 62.5186391,32.7903033 C61.7486391,31.4803033 60.2786391,33.2803033 59.1586391,30.9403033 C57.8586391,28.2103033 57.4586391,22.8203033 58.7586391,21.3203033 C60.1986391,19.6403033 63.0886391,17.5903033 66.9886391,19.8803033 C70.1686391,21.7403033 68.4686391,26.0003033 68.1786391,28.3403033 Z" id="Path" fill="#F0CCC0"></path>
                        <path d="M65.2486391,25.7003033 C64.3686391,25.7003033 64.8186391,23.3903033 64.1686391,22.8403033 C63.5186391,22.2903033 60.8286391,21.8403033 58.3386391,22.0803033 C55.8486391,22.3203033 54.3386391,19.0803033 55.8786391,17.7603033 C57.4186391,16.4403033 58.8786391,18.2703033 60.1086391,17.8703033 C61.4986391,17.4103033 61.2486391,15.7203033 63.3086391,15.8703033 C65.2086391,16.0303033 64.3086391,17.8003033 65.5486391,18.1103033 C66.7886391,18.4203033 68.6286391,16.7803033 70.1486391,18.7303033 C71.2686391,20.1803033 69.5786391,21.0303033 69.7586391,22.6403033 C69.8686391,23.6403033 72.3786391,26.6403033 69.6786391,27.8703033 C66.9786391,29.1003033 67.5986391,26.3603033 67.7386391,25.2203033 C67.8786391,24.0803033 67.3686391,23.3303033 66.7986391,23.3103033 C66.2286391,23.2903033 66.5086391,25.6803033 65.2486391,25.7003033 Z" id="Path" fill="#000000"></path>
                        <path d="M68.6086391,34.1003033 C67.9486391,34.4303033 63.8186391,35.1603033 62.3986391,34.3303033 C62.130276,34.6290702 61.9078424,34.9660908 61.7386391,35.3303033 C64.0890777,36.2696726 66.717571,36.2300652 69.0386391,35.2203033 L68.6086391,34.1003033 Z" id="Path" fill="#ED9F00"></path>
                        <path d="M71.5886391,37.1403033 C75.9386391,40.7903033 84.8686391,52.2503033 84.8686391,60.6803033 C84.8686391,69.1103033 77.7386391,77.0903033 75.3986391,79.4303033 L72.5586391,76.5903033 C74.2886391,74.8503033 78.8886391,63.4103033 78.0386391,60.1903033 C77.1886391,56.9703033 73.1286391,53.4803033 69.5286391,49.8803033 C65.9286391,46.2803033 65.5786391,43.2503033 66.2186391,40.9803033 C66.8586391,38.7103033 69.7686391,35.6203033 71.5886391,37.1403033 Z" id="Path" fill="#FFD03E"></path>
                        <path d="M72.5286391,76.5903033 C71.7549481,76.4904364 70.9805606,76.7696626 70.4486391,77.3403033 C71.1686391,77.7203033 75.3686391,79.4303033 75.3686391,79.4303033 L72.5286391,76.5903033 Z" id="Path" fill="#F0CCC0"></path>
                        <path d="M75.3886391,79.6003033 C75.3886391,79.6003033 72.3886391,76.4103033 72.1086391,76.2303033 C72.5926083,75.3955454 73.1409372,74.5997999 73.7486391,73.8503033 C74.3986391,74.3603033 77.7486391,77.2503033 77.7486391,77.3903033 C77.4786391,77.7303033 75.3886391,79.6003033 75.3886391,79.6003033 Z" id="Path" fill="#ED9F00"></path>
                        <path d="M58.0986391,32.7303033 C56.9886391,34.5403033 39.9986391,52.7303033 44.0986391,55.0903033 C46.9254377,56.5854366 50.4274975,55.6267478 52.0986391,52.9003033 C53.2286391,51.2003033 60.5586391,35.7503033 60.7086391,34.7003033 C59.7746894,34.1329529 58.9002742,33.4729537 58.0986391,32.7303033 L58.0986391,32.7303033 Z" id="Path" fill="#FFD03E"></path>
                        <path d="M58.1286391,32.5503033 C57.2943452,33.2883938 56.5371304,34.1092682 55.8686391,35.0003033 C55.841464,35.8238992 56.2139581,36.6098619 56.8686391,37.1103033 C57.8104477,37.5927614 58.9268306,37.5927614 59.8686391,37.1103033 C60.2186391,36.3003033 60.8086391,35.0303033 61.1486391,34.2203033 C61.6486391,33.2003033 58.1286391,32.5503033 58.1286391,32.5503033 Z" id="Path" fill="#ED9F00"></path>
                        <path d="M59.5986391,31.3003033 C61.2486391,31.0903033 63.4086391,29.7003033 63.6586391,29.9903033 C63.9086391,30.2803033 61.7386391,31.9103033 61.2586391,32.0903033 C61.4636648,33.1666598 61.1527928,34.276917 60.4186391,35.0903033 C59.9835534,35.5382281 59.3187824,35.674483 58.7425643,35.4338402 C58.1663462,35.1931974 57.7959293,34.6246227 57.8086391,34.0003033 C57.8086391,33.6203033 58.0186391,31.0803033 58.9486391,30.5103033 C59.1786391,31.0003033 59.2786391,31.3403033 59.5986391,31.3003033 Z" id="Path" fill="#E8B7AA"></path>
                        <path d="M105.558639,110.290303 C98.4538944,110.330887 92.3633341,115.375785 91.0007965,122.348771 C89.638259,129.321757 93.3817653,136.288254 99.9486391,139.000303 L111.168639,139.000303 C117.78971,136.320289 121.582474,129.323525 120.214477,122.312844 C118.84648,115.302164 112.701539,110.244548 105.558639,110.250298 L105.558639,110.290303 Z" id="Path" fill="#FCBA06"></path>
                        <path d="M92.6686391,127.250303 C92.6740723,121.478028 96.0064214,116.226026 101.226569,113.762441 C106.446717,111.298856 112.619312,112.065117 117.078639,115.730303 C113.473174,111.343705 107.690314,109.383894 102.160795,110.674646 C96.6312756,111.965398 92.3137339,116.28294 91.0229818,121.812459 C89.7322296,127.341978 91.6920409,133.124838 96.0786391,136.730303 C93.8712939,134.06462 92.665075,130.711261 92.6686391,127.250303 Z" id="Path" fill="#FFD03E"></path>
                        <path d="M100.128639,111.310303 L100.128639,111.310303 C98.3586391,111.880303 98.1286391,111.070303 98.1286391,110.140303 L98.1286391,108.070303 C98.1614279,105.884631 99.942721,104.130057 102.128639,104.130303 L109.128639,104.130303 C111.314557,104.130057 113.09585,105.884631 113.128639,108.070303 L113.128639,110.140303 C113.128639,111.070303 112.898639,111.880303 111.128639,111.310303 L111.128639,111.310303 C112.664298,111.912555 114.090102,112.763983 115.348639,113.830303 L115.348639,113.830303 L115.348639,108.070303 C115.343133,104.66499 112.583953,101.905809 109.178639,101.900303 L102.178639,101.900303 C98.7733254,101.905809 96.0141449,104.66499 96.0086391,108.070303 L96.0086391,113.830303 L96.0086391,113.830303 C97.2368415,112.773279 98.6282052,111.922251 100.128639,111.310303 Z" id="Path" fill="#FCBA06"></path>
                        <path d="M109.038639,101.900271 L107.868639,101.900271 C111.27233,101.90582 114.028644,104.666608 114.028639,108.070303 L114.028639,112.910303 C114.448639,113.200303 114.848639,113.500303 115.238639,113.830303 L115.238639,108.070303 C115.235993,106.429528 114.580972,104.857154 113.417956,103.699766 C112.254941,102.542378 110.679408,101.894991 109.038639,101.900271 L109.038639,101.900271 Z" id="Path" fill="#ED9F00"></path>
                        <path d="M95.8686391,108.070303 L95.8686391,113.830303 C96.2586391,113.500303 96.6586391,113.200303 97.0786391,112.910303 L97.0786391,108.070303 C97.0786346,104.666608 99.8349481,101.90582 103.238639,101.900303 L102.038639,101.900303 C98.6333254,101.905809 95.8741449,104.66499 95.8686391,108.070303 Z" id="Path" fill="#FFD03E"></path>
                        <path d="M112.398639,130.000303 C112.330219,129.999394 112.265163,129.97048 112.218639,129.920303 L109.978639,127.680303 L107.728639,130.000303 C107.681518,130.049191 107.616539,130.07681 107.548639,130.07681 C107.480739,130.07681 107.41576,130.049191 107.368639,130.000303 L105.558639,128.190303 L103.748639,130.000303 C103.701518,130.049191 103.636539,130.07681 103.568639,130.07681 C103.500739,130.07681 103.43576,130.049191 103.388639,130.000303 L101.138639,127.760303 L98.8686391,130.000303 C98.7692279,130.099715 98.6080504,130.099714 98.5086391,130.000303 C98.4092279,129.900892 98.4092279,129.739715 98.5086391,129.640303 L100.928639,127.220303 C101.032589,127.122516 101.194689,127.122516 101.298639,127.220303 L103.538639,129.460303 L105.348639,127.650303 C105.39576,127.601415 105.460739,127.573797 105.528639,127.573797 C105.596539,127.573797 105.661518,127.601415 105.708639,127.650303 L107.518639,129.460303 L109.758639,127.220303 C109.862589,127.122516 110.024689,127.122516 110.128639,127.220303 L112.548639,129.640303 C112.597527,129.687424 112.625146,129.752403 112.625146,129.820303 C112.625146,129.888203 112.597527,129.953182 112.548639,130.000303 C112.499643,130.014471 112.447636,130.014471 112.398639,130.000303 Z" id="Path" fill="#333333"></path>
                        <path d="M110.658639,124.170303 C110.591877,124.170946 110.527426,124.145882 110.478639,124.100303 L107.998639,121.610303 C107.899228,121.510892 107.899228,121.349715 107.998639,121.250303 C108.09805,121.150892 108.259228,121.150892 108.358639,121.250303 L110.838639,123.740303 C110.887527,123.787424 110.915146,123.852403 110.915146,123.920303 C110.915146,123.988203 110.887527,124.053182 110.838639,124.100303 C110.791089,124.147814 110.725794,124.173206 110.658639,124.170303 Z" id="Path" fill="#333333"></path>
                        <path d="M108.178639,124.170303 C108.111484,124.173206 108.046189,124.147814 107.998639,124.100303 C107.949751,124.053182 107.922133,123.988203 107.922133,123.920303 C107.922133,123.852403 107.949751,123.787424 107.998639,123.740303 L110.478639,121.250303 C110.542947,121.185995 110.636678,121.16088 110.724524,121.184419 C110.81237,121.207957 110.880985,121.276573 110.904524,121.364419 C110.928062,121.452265 110.902947,121.545995 110.838639,121.610303 L108.358639,124.100303 C108.309852,124.145882 108.245401,124.170946 108.178639,124.170303 L108.178639,124.170303 Z" id="Path" fill="#333333"></path>
                        <path d="M100.458639,124.170303 C100.391484,124.173206 100.326189,124.147814 100.278639,124.100303 C100.229751,124.053182 100.202133,123.988203 100.202133,123.920303 C100.202133,123.852403 100.229751,123.787424 100.278639,123.740303 L102.758639,121.250303 C102.85805,121.150892 103.019228,121.150892 103.118639,121.250303 C103.21805,121.349715 103.21805,121.510892 103.118639,121.610303 L100.638639,124.100303 C100.589852,124.145882 100.525401,124.170946 100.458639,124.170303 Z" id="Path" fill="#333333"></path>
                        <path d="M102.938639,124.170303 C102.871877,124.170946 102.807426,124.145882 102.758639,124.100303 L100.278639,121.610303 C100.179228,121.510892 100.179228,121.349715 100.278639,121.250303 C100.37805,121.150892 100.539228,121.150892 100.638639,121.250303 L103.118639,123.740303 C103.167527,123.787424 103.195146,123.852403 103.195146,123.920303 C103.195146,123.988203 103.167527,124.053182 103.118639,124.100303 C103.071089,124.147814 103.005794,124.173206 102.938639,124.170303 Z" id="Path" fill="#333333"></path>
                        <rect id="Rectangle" fill="#FFD664" x="101.438639" y="101.520303" width="3" height="3"></rect>
                        <rect id="Rectangle" fill="#FFD03E" x="101.438639" y="103.650303" width="3" height="1"></rect>
                        <rect id="Rectangle" fill="#FFE39C" x="101.438639" y="101.520303" width="3" height="1"></rect>
                        <path d="M117.958639,116.910303 C118.707787,118.72061 119.09181,120.661114 119.088639,122.620303 C119.088639,128.880303 115.698639,133.860303 109.778639,136.450303 C103.858639,139.040303 95.7786391,136.450303 95.7786391,136.450303 C97.0248507,137.541215 98.4443374,138.416565 99.9786391,139.040303 L99.9786391,139.040303 C103.63384,140.120476 107.523438,140.120476 111.178639,139.040303 L111.178639,139.040303 C115.336843,137.350372 118.514111,133.879344 119.830705,129.588294 C121.147299,125.297244 120.463499,120.64155 117.968639,116.910303 L117.958639,116.910303 Z" id="Path" fill="#ED9F00"></path>
                    </g>
                </g>
            </g>
        </g>
    </g>
</svg>