<?xml version="1.0" encoding="UTF-8"?>
<svg width="200px" height="200px" viewBox="0 0 200 200" version="1.1" xmlns="http://www.w3.org/2000/svg" xmlns:xlink="http://www.w3.org/1999/xlink">
    <title>21B75F1B-411E-46F8-B104-ECA550F035C6@1x</title>
    <defs>
        <linearGradient x1="0.064879353%" y1="49.9946238%" x2="100.011523%" y2="49.9946238%" id="linearGradient-1">
            <stop stop-color="#DC8B00" offset="0%"></stop>
            <stop stop-color="#FBBA05" offset="100%"></stop>
        </linearGradient>
        <linearGradient x1="-0.418290266%" y1="37.2524541%" x2="101.827768%" y2="57.1632307%" id="linearGradient-2">
            <stop stop-color="#DC8B00" offset="0%"></stop>
            <stop stop-color="#FBBA05" offset="100%"></stop>
        </linearGradient>
        <linearGradient x1="77.9924989%" y1="84.6944486%" x2="5.18429144%" y2="21.0894576%" id="linearGradient-3">
            <stop stop-color="#DC8B00" offset="0%"></stop>
            <stop stop-color="#FBBA05" offset="100%"></stop>
        </linearGradient>
        <linearGradient x1="1.10439829%" y1="45.7626454%" x2="96.4598938%" y2="53.8206108%" id="linearGradient-4">
            <stop stop-color="#FBBA05" offset="0%"></stop>
            <stop stop-color="#DC8B00" offset="100%"></stop>
        </linearGradient>
    </defs>
    <g id="Icon-and-Graphic" stroke="none" stroke-width="1" fill="none" fill-rule="evenodd">
        <g id="Icon" transform="translate(-547.000000, -909.000000)">
            <g id="Group-2" transform="translate(547.000000, 909.000000)">
                <rect id="Rectangle-Copy-2" x="0" y="0" width="200" height="200"></rect>
                <g id="Graphic-01" transform="translate(5.000000, 21.000000)">
                    <path d="M165.189962,155.820836 C165.189962,154.470836 152.969962,153.370836 137.899962,153.370836 C122.829962,153.370836 110.609962,154.470836 110.609962,155.820836 C110.609962,157.170836 122.829962,158.260836 137.899962,158.260836 C152.969962,158.260836 165.189962,157.130836 165.189962,155.820836 Z" id="Path" fill="#FFD03E" fill-rule="nonzero" opacity="0.12"></path>
                    <path d="M130.869962,140.870836 C130.869962,139.520836 109.469962,138.420836 83.0799616,138.420836 C56.6899616,138.420836 35.2899616,139.520836 35.2899616,140.870836 C35.2899616,142.220836 56.6899616,143.310836 83.0799616,143.310836 C109.469962,143.310836 130.869962,142.220836 130.869962,140.870836 Z" id="Path" fill="#FFD03E" fill-rule="nonzero" opacity="0.12"></path>
                    <path d="M170.219962,134.860836 C170.118287,134.859552 170.024184,134.806854 169.969962,134.720836 C165.349962,126.720836 154.899962,113.720836 151.209962,110.400836 C151.096791,110.287597 151.096791,110.104074 151.209962,109.990836 C151.261141,109.934404 151.333778,109.902219 151.409962,109.902219 C151.486145,109.902219 151.558782,109.934404 151.609962,109.990836 C155.329962,113.310836 165.849962,126.390836 170.489962,134.450836 C170.567002,134.586565 170.522808,134.758923 170.389962,134.840836 C170.336772,134.865084 170.277327,134.872078 170.219962,134.860836 Z" id="Path" fill="#FFD03E" fill-rule="nonzero"></path>
                    <path d="M170.879962,134.380836 C171.325299,134.397488 171.716586,134.681194 171.870852,135.099291 C172.025118,135.517388 171.911878,135.987251 171.584083,136.289167 C171.256288,136.591083 170.778717,136.665388 170.374688,136.477336 C169.970659,136.289284 169.720016,135.876038 169.739962,135.430836 C169.767009,134.827103 170.276045,134.358254 170.879962,134.380836 L170.879962,134.380836 Z" id="Path" stroke="#FFD03E" stroke-width="0.58" stroke-linecap="round" stroke-linejoin="round"></path>
                    <path d="M169.839962,124.590836 C170.26883,124.611749 170.642719,124.889321 170.786839,125.29379 C170.930959,125.698259 170.816839,126.149719 170.497827,126.437116 C170.178816,126.724514 169.717937,126.791072 169.330647,126.605675 C168.943356,126.420279 168.706167,126.019554 168.729962,125.590836 C168.767482,125.011608 169.259973,124.567923 169.839962,124.590836 L169.839962,124.590836 Z" id="Path" stroke="#FFD03E" stroke-width="0.58" stroke-linecap="round" stroke-linejoin="round"></path>
                    <path d="M158.999962,123.830836 C159.490698,123.847658 159.92261,124.15938 160.093168,124.61983 C160.263726,125.080281 160.139107,125.598151 159.777747,125.930602 C159.416387,126.263053 158.889945,126.344159 158.445279,126.135888 C158.000613,125.927617 157.725902,125.47127 157.749962,124.980836 C157.782365,124.320326 158.339046,123.80818 158.999962,123.830836 Z" id="Path" stroke="#FFD03E" stroke-width="0.58" stroke-linecap="round" stroke-linejoin="round"></path>
                    <path d="M161.999962,115.190836 C162.496561,115.212271 162.944001,115.497012 163.173737,115.937797 C163.403473,116.378583 163.380601,116.908448 163.113737,117.327797 C162.846873,117.747147 162.376561,117.992272 161.879962,117.970836 C161.383362,117.9494 160.935922,117.664659 160.706186,117.223874 C160.476451,116.783089 160.499323,116.253224 160.766186,115.833874 C161.03305,115.414524 161.503362,115.1694 161.999962,115.190836 L161.999962,115.190836 Z" id="Path" stroke="#FFD03E" stroke-width="0.58" stroke-linecap="round" stroke-linejoin="round"></path>
                    <path d="M167.139962,134.530836 C167.642541,134.552927 168.032053,134.978256 168.009962,135.480836 C167.98787,135.983415 167.562541,136.372927 167.059962,136.350836 C166.73485,136.336545 166.442058,136.149895 166.291878,135.861195 C166.141699,135.572494 166.156947,135.225604 166.331878,134.951195 C166.50681,134.676785 166.81485,134.516545 167.139962,134.530836 L167.139962,134.530836 Z" id="Path" stroke="#FFD03E" stroke-width="0.58" stroke-linecap="round" stroke-linejoin="round"></path>
                    <path d="M167.269962,134.840836 L167.269962,134.840836 C167.193547,134.83345 167.123516,134.795012 167.076252,134.734515 C167.028989,134.674017 167.008638,134.596767 167.019962,134.520836 C167.019962,134.390836 167.019962,134.210836 167.079962,134.010836 C167.296704,132.779725 167.343808,131.524729 167.219962,130.280836 C167.179741,130.129651 167.26245,129.972939 167.409962,129.920836 C167.482871,129.896011 167.562787,129.902316 167.630902,129.938265 C167.699017,129.974215 167.749316,130.036635 167.769962,130.110836 C167.946264,131.441899 167.905739,132.792735 167.649962,134.110836 C167.649962,134.310836 167.599962,134.480836 167.589962,134.610836 C167.559769,134.759333 167.420337,134.85955 167.269962,134.840836 Z" id="Path" fill="#FFD03E" fill-rule="nonzero"></path>
                    <path d="M168.729962,125.890836 L168.729962,125.890836 C166.858772,125.790506 165.015588,125.392163 163.269962,124.710836 C163.123606,124.6418 163.060926,124.467191 163.129962,124.320836 C163.198997,124.17448 163.373606,124.1118 163.519962,124.180836 C165.195948,124.833573 166.964278,125.218286 168.759962,125.320836 C168.83607,125.323358 168.907868,125.35677 168.95881,125.413372 C169.009752,125.469974 169.035443,125.544883 169.029962,125.620836 C169.019267,125.777075 168.88646,125.896601 168.729962,125.890836 L168.729962,125.890836 Z" id="Path" fill="#FFD03E" fill-rule="nonzero"></path>
                    <path d="M158.999962,124.130836 L158.879962,124.130836 C158.809793,124.100385 158.755136,124.042552 158.728692,123.970777 C158.702249,123.899001 158.706321,123.819532 158.739962,123.750836 C159.162779,122.324939 159.29205,120.82811 159.119962,119.350836 C159.074288,119.199078 159.1589,119.03876 159.309962,118.990836 C159.382871,118.966011 159.462787,118.972316 159.530902,119.008265 C159.599017,119.044215 159.649316,119.106635 159.669962,119.180836 C159.885391,120.798202 159.745473,122.443093 159.259962,124.000836 C159.202838,124.087613 159.103658,124.137202 158.999962,124.130836 Z" id="Path" fill="#FFD03E" fill-rule="nonzero"></path>
                    <path d="M160.679962,116.350836 L160.619962,116.350836 C158.865755,115.954731 157.133402,115.467403 155.429962,114.890836 C155.289129,114.8218 155.230926,114.651668 155.299962,114.510836 C155.368997,114.370003 155.539129,114.3118 155.679962,114.380836 C156.279962,114.670836 159.749962,115.560836 160.749962,115.790836 C160.889473,115.828356 160.980091,115.962841 160.962482,116.106233 C160.944872,116.249625 160.824406,116.358187 160.679962,116.360836 L160.679962,116.350836 Z" id="Path" fill="#FFD03E" fill-rule="nonzero"></path>
                    <path d="M40.2499616,93.3908355 C33.7399616,97.8808355 34.3599616,105.250836 40.6599616,112.110836 C45.7299616,106.880836 47.7099616,97.7608355 40.2499616,93.3908355 Z" id="Path" fill="#333333" fill-rule="nonzero"></path>
                    <path d="M37.0499616,92.8708355 C35.6199616,94.1108355 18.0499616,90.7308355 18.5099616,87.3408355 C18.8399616,84.6908355 21.6599616,84.9908355 22.6699616,85.1708355 C24.2599616,85.4708355 28.0499616,86.4308355 28.0899616,85.1708355 C28.0899616,82.9708355 18.2399616,81.7708355 15.8499616,81.3308355 C13.4599616,80.8908355 8.92996161,79.3808355 7.90996161,76.8908355 C6.88996161,74.4008355 6.76996161,73.2708355 10.9099616,74.2708355 C15.0499616,75.2708355 22.9699616,78.2708355 21.5299616,75.5108355 C20.0899616,72.7508355 13.3999616,71.8508355 9.75996161,69.9308355 C6.11996161,68.0108355 -0.16003839,63.1308355 2.57996161,61.7308355 C5.02996161,60.4508355 14.8699616,67.6008355 15.2499616,65.5108355 C15.5599616,63.8308355 12.1599616,62.9208355 7.60996161,59.9708355 C3.05996161,57.0208355 -1.20003839,54.1908355 0.30996161,51.3208355 C1.51996161,49.0208355 3.99996161,51.5308355 6.49996161,53.1308355 C8.99996161,54.7308355 12.4999616,56.7308355 12.3799616,55.0708355 C12.2599616,53.4108355 -0.57003839,46.9208355 0.54996161,42.7708355 C1.28996161,40.0208355 3.54996161,42.2708355 6.54996161,43.9208355 C9.54996161,45.5708355 10.6999616,45.9208355 10.8299616,45.2408355 C10.9599616,44.5608355 7.31996161,41.6608355 5.26996161,40.1308355 C3.21996161,38.6008355 0.80996161,35.7108355 2.16996161,33.7508355 C3.52996161,31.7908355 6.55996161,34.5808355 7.43996161,35.8708355 C8.31996161,37.1608355 9.69996161,38.0208355 10.0899616,37.7508355 C10.4799616,37.4808355 7.86996161,33.0208355 10.3799616,32.0408355 C12.8899616,31.0608355 14.9599616,35.5708355 14.4699616,38.2208355 C13.9799616,40.8708355 13.4699616,44.4708355 14.3799616,44.6408355 C15.2899616,44.8108355 15.9099616,41.7508355 16.3799616,39.3408355 C16.8499616,36.9308355 17.5499616,36.0608355 18.1999616,36.1808355 C20.3499616,36.5808355 21.5799616,40.0608355 21.2499616,41.8208355 C20.9199616,43.5808355 17.8199616,53.2508355 19.2499616,53.5108355 C20.6799616,53.7708355 21.4599616,50.0208355 21.8199616,48.0708355 C22.1799616,46.1208355 23.0199616,41.5708355 25.4099616,42.0108355 C27.7999616,42.4508355 27.9399616,48.8208355 26.9999616,52.4908355 C26.0599616,56.1608355 24.1499616,62.0108355 25.2599616,62.2108355 C26.3699616,62.4108355 28.6999616,58.0008355 29.1399616,55.6308355 C29.5799616,53.2608355 29.1399616,48.8108355 32.1399616,49.3508355 C35.1399616,49.8908355 35.0199616,53.6208355 34.1399616,58.2708355 C33.7799616,60.2708355 32.8499616,65.0208355 30.7299616,67.3308355 C28.3199616,69.9608355 27.5599616,71.6608355 28.1399616,72.2508355 C29.2999616,73.4308355 31.1399616,70.8308355 31.9799616,68.6808355 C32.8199616,66.5308355 35.1599616,59.6808355 38.2299616,61.6208355 C41.2999616,63.5608355 38.0499616,68.5508355 36.9399616,70.7008355 C35.8299616,72.8508355 31.2699616,80.1308355 32.8399616,81.1308355 C34.4099616,82.1308355 35.8399616,77.6908355 36.3799616,76.3508355 C36.9199616,75.0108355 38.9999616,72.6008355 39.8099616,73.7308355 C40.6199616,74.8608355 39.5999616,90.6408355 37.0499616,92.8708355 Z" id="Path" fill="#FFD03E" fill-rule="nonzero" opacity="0.12"></path>
                    <path d="M40.4099616,91.9908355 C30.4999616,87.3808355 22.1399616,93.2808355 18.4099616,105.610836 C28.1599616,107.980836 40.4199616,103.950836 40.4099616,91.9908355 Z" id="Path" fill="#999999" fill-rule="nonzero"></path>
                    <path d="M20.9999616,104.130836 C20.9055344,104.130836 20.8166179,104.086377 20.7599616,104.010836 C20.6704741,103.880687 20.701594,103.702859 20.8299616,103.610836 C23.9799616,101.420836 28.3999616,98.8608355 32.2999616,96.6108355 C35.4999616,94.7408355 38.5299616,92.9908355 40.2299616,91.8008355 C40.36011,91.711348 40.5379379,91.7424679 40.6299616,91.8708355 C40.6756853,91.9325052 40.694082,92.0102438 40.6808482,92.0858657 C40.6676144,92.1614875 40.6239109,92.2283586 40.5599616,92.2708355 C38.8399616,93.4708355 35.7999616,95.2708355 32.5599616,97.1008355 C28.6699616,99.3608355 24.2599616,101.920836 21.1299616,104.100836 C21.0891228,104.119582 21.0448855,104.129791 20.9999616,104.130836 L20.9999616,104.130836 Z" id="Path" fill="#666666" fill-rule="nonzero"></path>
                    <path d="M151.119962,94.5508355 C149.539962,108.210836 159.889962,115.850836 176.069962,115.470836 C174.999962,102.860836 165.389962,89.8208355 151.119962,94.5508355 Z" id="Path" fill="#CCCCCC" fill-rule="nonzero"></path>
                    <path d="M147.469962,85.9408355 C143.709962,84.8808355 139.849962,79.6408355 140.469962,75.8408355 C141.089962,72.0408355 144.679962,71.6208355 144.469962,69.4808355 C144.259962,67.3408355 140.599962,64.4808355 141.539962,61.7008355 C143.209962,56.7008355 150.759962,60.9008355 152.359962,57.3808355 C153.959962,53.8608355 149.609962,51.8008355 150.599962,48.2708355 C151.589962,44.7408355 157.599962,48.5308355 160.389962,45.0208355 C163.179962,41.5108355 170.389962,35.1508355 173.569962,39.7708355 C176.079962,43.4208355 170.569962,44.4908355 170.479962,46.4008355 C170.379962,48.5808355 173.129962,49.0408355 172.479962,51.4008355 C171.579962,54.7608355 166.979962,54.5508355 166.699962,57.4008355 C166.419962,60.2508355 170.069962,61.4008355 167.699962,64.4008355 C164.769962,68.1108355 159.149962,63.2008355 157.949962,69.3008355 C156.749962,75.4008355 164.559962,73.6308355 164.349962,77.5008355 C164.119962,81.7208355 156.589962,80.5008355 157.109962,83.3108355 C157.759962,87.2108355 153.299962,87.5808355 147.469962,85.9408355 Z" id="Path" fill="#FFD03E" fill-rule="nonzero" opacity="0.12"></path>
                    <path d="M146.489962,85.8608355 L146.489962,85.8608355 C146.412725,85.85093 146.342717,85.8103791 146.295695,85.7483102 C146.248673,85.6862412 146.228588,85.6078697 146.239962,85.5308355 C146.247359,85.1152234 146.213864,84.6998912 146.139962,84.2908355 C145.979962,83.0508355 145.749962,81.3508355 146.669962,80.1908355 C147.155267,79.6057771 147.683389,79.0576003 148.249962,78.5508355 C149.215873,77.7634461 150.014828,76.7911016 150.599962,75.6908355 C151.446279,73.6592912 151.628294,71.4121022 151.119962,69.2708355 C150.789392,67.9542315 150.817013,66.5731692 151.199962,65.2708355 C151.582905,64.3716732 152.411336,63.7408497 153.379962,63.6108355 C154.332017,63.4084506 155.186058,62.8861443 155.799962,62.1308355 C156.34612,61.5093897 156.623091,60.6964635 156.569962,59.8708355 C156.529255,58.6908311 156.952916,57.541919 157.749962,56.6708355 C158.420585,55.7676458 159.398927,55.1415074 160.499962,54.9108355 C161.501817,54.7000015 162.401534,54.1531144 163.049962,53.3608355 C164.406555,51.7787705 165.154672,49.7648812 165.159962,47.6808355 C165.111596,46.8776652 165.318079,46.0797313 165.749962,45.4008355 C166.285485,44.7007656 167.18178,44.3798215 168.039962,44.5808355 C168.150296,44.6006346 168.239339,44.6822488 168.26865,44.790445 C168.297962,44.8986412 168.262293,45.0140414 168.177041,45.0868272 C168.09179,45.1596129 167.972224,45.1767481 167.869962,45.1308355 C167.228507,45.0045126 166.571444,45.2572291 166.179962,45.7808355 C165.850351,46.3719506 165.697619,47.04536 165.739962,47.7208355 C165.723566,49.9240684 164.92631,52.0500851 163.489962,53.7208355 C162.764225,54.5949708 161.768839,55.2034577 160.659962,55.4508355 C159.675226,55.6486434 158.798767,56.2044467 158.199962,57.0108355 C157.50186,57.7866379 157.141946,58.8087948 157.199962,59.8508355 C157.253753,60.8082078 156.930713,61.7486115 156.299962,62.4708355 C155.589219,63.3244262 154.608543,63.9100099 153.519962,64.1308355 C152.669962,64.3908355 152.059962,64.5708355 151.699962,65.4608355 C151.372213,66.6791784 151.372213,67.9624927 151.699962,69.1808355 C152.232044,71.4334234 152.035977,73.7967269 151.139962,75.9308355 C150.517771,77.0836197 149.675145,78.102925 148.659962,78.9308355 C148.107627,79.4111744 147.595889,79.9362911 147.129962,80.5008355 C146.359962,81.5008355 146.559962,82.9608355 146.729962,84.1608355 C146.81388,84.6224663 146.844081,85.0922594 146.819962,85.5608355 C146.823769,85.6469307 146.789087,85.7302591 146.72532,85.7882296 C146.661552,85.8462 146.575305,85.8728065 146.489962,85.8608355 L146.489962,85.8608355 Z" id="Path" fill="#FFD03E" fill-rule="nonzero"></path>
                    <path d="M147.709962,89.7008355 C159.469962,103.340836 175.999962,100.130836 189.999962,84.2108355 C176.929962,74.0208355 155.789962,71.7508355 147.709962,89.7008355 Z" id="Path" fill="#999999" fill-rule="nonzero"></path>
                    <path d="M147.709962,89.9908355 C147.568524,89.9799504 147.45572,89.8683452 147.443324,89.7270318 C147.430928,89.5857185 147.522579,89.4561786 147.659962,89.4208355 C151.049962,88.7808355 156.799962,88.1908355 162.899962,87.5708355 C170.269962,86.8208355 178.619962,85.9808355 184.799962,84.8408355 C184.875556,84.8261772 184.953876,84.8421852 185.017656,84.8853304 C185.081436,84.9284756 185.125438,84.9952152 185.139962,85.0708355 C185.164356,85.2302555 185.058346,85.380436 184.899962,85.4108355 C178.709962,86.5508355 170.339962,87.4108355 162.899962,88.1508355 C156.819962,88.7608355 151.079962,89.3508355 147.709962,89.9808355 L147.709962,89.9908355 Z" id="Path" fill="#666666" fill-rule="nonzero"></path>
                    <path d="M100.519962,31.1308355 C99.0399616,28.1308355 101.229962,25.7908355 102.639962,24.5408355 C102.999962,25.4808355 104.339962,29.4508355 100.519962,31.1308355 Z" id="Path" fill="#DBDBDA" fill-rule="nonzero"></path>
                    <path d="M86.9199616,57.8908355 C86.8080469,57.8873728 86.7081236,57.8197923 86.6632446,57.7172117 C86.6183656,57.6146311 86.6365495,57.4953788 86.7099616,57.4108355 C91.4199616,52.4108355 97.4699616,42.7008355 100.329962,30.6408355 C100.369279,30.4866844 100.525443,30.3929859 100.679962,30.4308355 C100.755503,30.4472296 100.820906,30.4941233 100.860676,30.560407 C100.900579,30.6266908 100.911045,30.7064669 100.889962,30.7808355 C97.9999616,42.9408355 91.8899616,52.7108355 87.1299616,57.7808355 C87.0806625,57.8479155 87.0031763,57.8885035 86.9199616,57.8908355 L86.9199616,57.8908355 Z" id="Path" fill="#DBDBDA" fill-rule="nonzero"></path>
                    <path d="M91.0499616,54.9908355 C97.2499616,52.1808355 100.309962,56.1408355 102.759962,59.0708355 C100.799962,59.7808355 94.1599616,62.8108355 91.0499616,54.9908355 Z" id="Path" fill="#DBDBDA" fill-rule="nonzero"></path>
                    <path d="M94.9099616,49.7308355 C99.1699616,46.3108355 102.339962,48.7808355 104.829962,50.5708355 C103.449962,51.5108355 98.8899616,55.2008355 94.9099616,49.7308355 Z" id="Path" fill="#DBDBDA" fill-rule="nonzero"></path>
                    <path d="M97.8999616,43.2908355 C100.769962,39.5708355 103.899962,41.0008355 106.349962,41.9908355 C105.379962,43.0608355 102.319962,47.0508355 97.8999616,43.2908355 Z" id="Path" fill="#DBDBDA" fill-rule="nonzero"></path>
                    <path d="M100.269962,36.8408355 C101.339962,34.1308355 103.459962,34.4308355 105.089962,34.6008355 C104.699962,35.4108355 103.559962,38.3208355 100.269962,36.8408355 Z" id="Path" fill="#DBDBDA" fill-rule="nonzero"></path>
                    <path d="M88.5899616,52.4408355 C90.1799616,46.6508355 86.3099616,44.5308355 83.4199616,42.8008355 C83.0599616,44.6108355 81.3399616,50.8108355 88.5899616,52.4408355 Z" id="Path" fill="#DBDBDA" fill-rule="nonzero"></path>
                    <path d="M92.6799616,46.6408355 C94.8099616,41.9208355 91.7899616,39.6408355 89.5699616,37.7308355 C88.9999616,39.2308355 86.7199616,44.2808355 92.6799616,46.6408355 Z" id="Path" fill="#DBDBDA" fill-rule="nonzero"></path>
                    <path d="M96.4599616,39.1308355 C96.9699616,35.6308355 94.5499616,34.6708355 92.7299616,33.8708355 C92.6599616,34.9108355 92.0999616,38.6708355 96.4599616,39.1308355 Z" id="Path" fill="#DBDBDA" fill-rule="nonzero"></path>
                    <path d="M98.6499616,33.8308355 C99.3099616,31.8308355 98.0299616,31.0708355 97.0799616,30.4208355 C96.9199616,31.0308355 96.1999616,33.1308355 98.6499616,33.8308355 Z" id="Path" fill="#DBDBDA" fill-rule="nonzero"></path>
                    <path d="M132.759962,99.3708355 C133.749166,100.264535 134.293399,101.549334 134.247125,102.881656 C134.20085,104.213978 133.568787,105.457922 132.519962,106.280836 L97.0099616,135.280836 C94.671498,137.080695 91.3782603,136.941544 89.1999616,134.950836 L21.3299616,70.0608355 C20.3302684,69.1688445 19.7789138,67.8785559 19.8252856,66.5395697 C19.8716575,65.2005834 20.5109546,63.9515296 21.5699616,63.1308355 L57.0799616,34.1308355 C59.4171109,32.3268335 62.7133219,32.46611 64.8899616,34.4608355 L132.759962,99.3708355 Z" id="Path" fill="#333333" fill-rule="nonzero"></path>
                    <path d="M89.1599616,130.130836 L126.999962,99.1308355 C127.236409,98.9364861 127.37831,98.6501843 127.390532,98.3443287 C127.401249,98.0384731 127.28119,97.7423477 127.059962,97.5308355 L63.9999616,37.1308355 C63.5964149,36.777378 62.9935083,36.777378 62.5899616,37.1308355 L24.7099616,68.1308355 C24.4768444,68.3251085 24.337181,68.6092283 24.3249759,68.9124686 C24.314295,69.2157089 24.4321486,69.5095463 24.6499616,69.7208355 L87.7499616,130.030836 C88.1279114,130.414064 88.7317083,130.456886 89.1599616,130.130836 L89.1599616,130.130836 Z" id="Path" fill="#FFFFFF" fill-rule="nonzero"></path>
                    <path d="M37.7899616,54.7308452 C37.6160648,54.7318363 37.4508948,54.654757 37.3399616,54.5208355 C37.2428351,54.4021478 37.1976339,54.2493285 37.2145701,54.0969031 C37.2315062,53.9444778 37.3091507,53.8053079 37.4299616,53.7108355 L45.2999616,47.2708355 C45.4383972,47.0639007 45.6934578,46.9684015 45.933759,47.0335305 C46.1740602,47.0986595 46.3459887,47.309886 46.3609823,47.5584048 C46.375976,47.8069237 46.2306895,48.0372884 45.9999616,48.1308355 L38.1299616,54.5708355 C38.0375237,54.6604211 37.91791,54.7167099 37.7899616,54.7308452 L37.7899616,54.7308452 Z" id="Path" fill="#000000" fill-rule="nonzero"></path>
                    <path d="M109.199962,119.370836 C108.658188,118.884473 108.359682,118.183109 108.384773,117.455484 C108.409863,116.727859 108.755972,116.048724 109.329962,115.600836 C110.603321,114.612281 112.404532,114.688389 113.589962,115.780836 C114.135026,116.265362 114.435902,116.967526 114.41077,117.696381 C114.385637,118.425236 114.037108,119.105006 113.459962,119.550836 C112.186603,120.53939 110.385391,120.463282 109.199962,119.370836 Z" id="Path" stroke="#999999" stroke-width="0.46"></path>
                    <path d="M133.599962,105.050836 C133.309973,105.517379 132.945084,105.932946 132.519962,106.280836 L97.0099616,135.280836 C94.671498,137.080695 91.3782603,136.941544 89.1999616,134.950836 L21.3299616,70.0608355 C19.860594,68.7100696 19.4538169,66.5541509 20.3299616,64.7608355 L20.3299616,64.7608355 C19.6721743,66.3249146 19.111117,67.9279353 18.6499616,69.5608355 C17.9399616,72.2008355 18.4699616,73.8608355 20.0899616,75.4008355 L86.7999616,139.270836 C88.9766013,141.265561 92.2728123,141.404838 94.6099616,139.600836 L129.499962,111.070836 C130.158599,110.603387 130.70511,109.995395 131.099962,109.290836 C131.479962,108.600836 133.599962,105.050836 133.599962,105.050836 Z" id="Path" fill="#000000" fill-rule="nonzero"></path>
                    <path d="M69.8899616,101.000836 C69.4599616,100.090836 70.1099616,98.8908355 71.3499616,98.3108355 C72.5899616,97.7308355 73.9299616,97.9908355 74.3499616,98.9008355 C74.7699616,99.8108355 74.1299616,101.020836 72.8999616,101.600836 C71.6699616,102.180836 70.3199616,101.910836 69.8899616,101.000836 Z" id="Path" fill="#FFD03E" fill-rule="nonzero" opacity="0.12"></path>
                    <ellipse id="Oval" fill="#FFD03E" fill-rule="nonzero" opacity="0.12" cx="56.6399616" cy="89.0808355" rx="4.88" ry="3.6"></ellipse>
                    <ellipse id="Oval" fill="#FFD03E" fill-rule="nonzero" opacity="0.12" cx="67.7699616" cy="67.5008355" rx="16.27" ry="12.01"></ellipse>
                    <ellipse id="Oval" fill="#FFD03E" fill-rule="nonzero" opacity="0.12" transform="translate(95.571340, 75.268875) rotate(-42.610000) translate(-95.571340, -75.268875) " cx="95.5713397" cy="75.2688747" rx="5.15" ry="4.73"></ellipse>
                    <path d="M83.7199616,103.660836 L97.9199616,92.3108355 L97.9199616,92.3108355 C100.919962,89.9708355 106.149962,90.5508355 109.629962,93.6508355 C111.532292,95.1780501 112.603285,97.5127418 112.519962,99.9508355 C113.059962,97.6808355 112.099962,94.9508355 109.749962,92.8808355 C106.269962,89.7908355 101.049962,89.2008355 98.0399616,91.5508355 L98.0399616,91.5508355 L83.8399616,102.900836 C82.6903141,103.791429 81.9652135,105.121988 81.8399616,106.570836 C82.1193057,105.416054 82.7820774,104.390168 83.7199616,103.660836 Z" id="Path" fill="url(#linearGradient-1)" fill-rule="nonzero"></path>
                    <path d="M84.7499616,112.870836 C88.2499616,115.990836 93.5099616,116.560836 96.5099616,114.170836 L110.719962,102.810836 C111.62305,102.083966 112.259605,101.07814 112.529962,99.9508355 C112.613285,97.5127418 111.542292,95.1780501 109.639962,93.6508355 C106.159962,90.5508355 100.939962,89.9708355 97.9299616,92.3108355 L97.9299616,92.3108355 L83.7299616,103.660836 C82.7995224,104.393311 82.1440372,105.418828 81.8699616,106.570836 C81.78423,109.007206 82.8513735,111.341583 84.7499616,112.870836 L84.7499616,112.870836 Z" id="Path" fill="#FCBA06" fill-rule="nonzero"></path>
                    <path d="M92.7999616,106.810836 L91.0599616,105.260836 L91.6299616,104.810836 C91.8840536,104.584054 92.2017513,104.440915 92.5399616,104.400836 C92.8651572,104.410756 93.1736715,104.547076 93.3999616,104.780836 C93.6468392,104.968873 93.8258463,105.232119 93.9099616,105.530836 C93.9099616,105.760836 93.7999616,106.010836 93.4699616,106.280836 L92.7999616,106.810836 M90.6499616,103.920836 L89.0799616,105.130836 L94.2599616,109.730836 L95.2599616,108.940836 L93.8099616,107.660836 L94.3999616,107.180836 C94.944752,106.831459 95.3099563,106.261741 95.3999616,105.620836 C95.3540144,104.9668 95.016141,104.368176 94.4799616,103.990836 C93.9701593,103.497498 93.3065714,103.193942 92.5999616,103.130836 C91.875719,103.13999 91.1807267,103.417987 90.6499616,103.910836" id="Shape" fill="#FFFFFF" fill-rule="nonzero"></path>
                    <path d="M97.4199616,103.640836 L96.4799616,101.860836 L98.4799616,102.750836 L97.3699616,103.640836 M95.3699616,100.110836 L94.3699616,100.880836 L97.6199616,107.010836 L98.6799616,106.170836 L97.9699616,104.840836 L99.8299616,103.360836 L101.359962,104.020836 L102.419962,103.180836 L95.4199616,100.130836" id="Shape" fill="#FFFFFF" fill-rule="nonzero"></path>
                    <polyline id="Path" fill="#FFFFFF" fill-rule="nonzero" points="100.979962 95.6608355 99.9099616 96.5208355 100.879962 98.9908355 97.9899616 98.0508355 96.9199616 98.9108355 101.589962 100.460836 103.629962 102.280836 104.619962 101.490836 102.579962 99.6708355 100.979962 95.6608355"></polyline>
                    <path d="M56.5699616,118.280836 C56.4189776,118.28661 56.2906437,118.171552 56.2799616,118.020836 L56.1199616,115.870836 C56.1134228,115.715815 56.2261698,115.581386 56.3799616,115.560836 C56.4569177,115.555344 56.5328899,115.580745 56.5910686,115.631416 C56.6492473,115.682088 56.6848365,115.753854 56.6899616,115.830836 L56.8599616,117.970836 C56.8654528,118.047792 56.8400526,118.123764 56.7893807,118.181943 C56.7387089,118.240121 56.666943,118.27571 56.5899616,118.280836 L56.5699616,118.280836 Z" id="Path" fill="#FFD03E" fill-rule="nonzero"></path>
                    <path d="M51.3399616,113.700836 C51.2028814,113.675046 51.1035806,113.555321 51.1035806,113.415836 C51.1035806,113.27635 51.2028814,113.156625 51.3399616,113.130836 L53.4899616,113.010836 C53.6270418,113.036625 53.7263426,113.15635 53.7263426,113.295836 C53.7263426,113.435321 53.6270418,113.555046 53.4899616,113.580836 L51.3399616,113.700836 Z" id="Path" fill="#FFD03E" fill-rule="nonzero"></path>
                    <path d="M52.0799616,118.130836 C52.0101136,118.132021 51.9423451,118.107054 51.8899616,118.060836 C51.7820042,117.945489 51.7820042,117.766182 51.8899616,117.650836 L53.8899616,115.370836 C53.9426265,115.317085 54.0147104,115.286795 54.0899616,115.286795 C54.1652129,115.286795 54.2372967,115.317085 54.2899616,115.370836 C54.4031324,115.484074 54.4031324,115.667597 54.2899616,115.780836 L52.2899616,118.060836 C52.2325479,118.112023 52.156605,118.137337 52.0799616,118.130836 Z" id="Path" fill="#FFD03E" fill-rule="nonzero"></path>
                    <path d="M111.459962,70.2708355 L111.459962,70.2708355 L109.289962,70.1308355 C109.129799,70.1308355 108.999962,70.0009981 108.999962,69.8408355 C108.999962,69.6806729 109.129799,69.5508355 109.289962,69.5508355 L111.429962,69.7208355 C111.506943,69.7259607 111.578709,69.7615498 111.629381,69.8197285 C111.680053,69.8779073 111.705453,69.9538794 111.699962,70.0308355 C111.683091,70.1557316 111.584858,70.2539654 111.459962,70.2708355 L111.459962,70.2708355 Z" id="Path" fill="#FFD03E" fill-rule="nonzero"></path>
                    <path d="M106.759962,67.1908355 L106.759962,67.1908355 C106.683853,67.1883134 106.612055,67.1549013 106.561113,67.0982993 C106.510171,67.0416972 106.484481,66.9667883 106.489962,66.8908355 L106.609962,64.7408355 C106.625702,64.5830528 106.761512,64.4647668 106.919962,64.4708355 C106.996943,64.4759607 107.068709,64.5115498 107.119381,64.5697285 C107.170053,64.6279073 107.195453,64.7038794 107.189962,64.7808355 L107.069962,66.9208355 C107.064836,66.9978169 107.029247,67.0695829 106.971069,67.1202547 C106.91289,67.1709265 106.836918,67.1963268 106.759962,67.1908355 Z" id="Path" fill="#FFD03E" fill-rule="nonzero"></path>
                    <path d="M108.999962,67.7908355 C108.916377,67.7875381 108.837406,67.7516423 108.779962,67.6908355 C108.672004,67.5754886 108.672004,67.3961824 108.779962,67.2808355 L111.069962,65.2808355 C111.1832,65.1676647 111.366724,65.1676647 111.479962,65.2808355 C111.533713,65.3335004 111.564002,65.4055843 111.564002,65.4808355 C111.564002,65.5560868 111.533713,65.6281706 111.479962,65.6808355 L109.189962,67.6808355 C109.141582,67.7387605 109.074285,67.7777217 108.999962,67.7908355 Z" id="Path" fill="#FFD03E" fill-rule="nonzero"></path>
                    <path d="M141.279962,71.3208355 C148.689962,74.8108355 151.989962,83.0808355 152.369962,84.0208355 C153.279962,86.2408355 151.999962,94.7508355 151.999962,94.7508355 L141.279962,71.3208355 Z" id="Path" fill="#ED9F00" fill-rule="nonzero"></path>
                    <path d="M108.859962,93.7508355 C108.169962,93.9808355 106.339962,93.8308355 105.339962,94.2208355 C104.339962,94.6108355 101.159962,96.8708355 101.339962,97.4408355 C101.519962,98.0108355 103.609962,96.2608355 104.129962,96.1708355 C104.419962,96.6608355 105.549962,98.4008355 106.509962,97.9008355 C107.282866,97.6228133 107.971495,97.1511026 108.509962,96.5308355 C108.844908,96.1902555 109.2669,95.9481293 109.729962,95.8308355 L108.859962,93.7508355 Z" id="Path" fill="#FCDDD6" fill-rule="nonzero"></path>
                    <path d="M154.629962,99.9508355 C154.469962,113.400836 152.139962,115.560836 151.329962,128.590836 C150.669962,139.220836 154.329962,147.330836 154.789962,150.920836 L152.339962,150.920836 C150.549962,146.160836 139.099962,128.780836 142.469962,99.9208355 L154.629962,99.9508355 Z" id="Path" fill="#000000" fill-rule="nonzero"></path>
                    <path d="M155.349962,151.820836 C155.119962,151.500836 154.789962,150.920836 154.789962,150.920836 L152.339962,150.920836 C152.57485,151.430297 152.674717,151.991621 152.629962,152.550836 C153.269962,152.790836 154.199962,152.130836 155.349962,151.820836 Z" id="Path" fill="#FFD3C9" fill-rule="nonzero"></path>
                    <path d="M155.349962,151.820836 C154.199962,152.160836 153.269962,152.820836 152.629962,152.550836 C152.299962,152.790836 147.339962,154.550836 146.839962,154.920836 C146.339962,155.290836 146.399962,155.820836 146.939962,155.820836 C147.739962,155.820836 154.319962,155.530836 154.319962,155.530836 C154.404817,155.623379 154.48492,155.72017 154.559962,155.820836 L156.059962,155.820836 C156.555355,154.456448 156.284656,152.931382 155.349962,151.820836 L155.349962,151.820836 Z" id="Path" fill="#000000" fill-rule="nonzero"></path>
                    <path d="M154.629962,99.9508355 C154.629962,112.210836 146.629962,112.760836 141.259962,124.660836 C137.559962,132.830836 132.399962,148.760836 132.259962,150.920836 L129.819962,150.920836 C128.489962,145.110836 129.049962,122.920836 136.699962,99.9208355 L154.629962,99.9508355 Z" id="Path" fill="#333333" fill-rule="nonzero"></path>
                    <path d="M132.219962,151.820836 C132.219962,151.410836 132.219962,150.920836 132.219962,150.920836 L129.779962,150.920836 C129.808356,151.479143 129.70918,152.036582 129.489962,152.550836 C130.139962,152.790836 131.069962,152.130836 132.219962,151.820836 Z" id="Path" fill="#FFD3C9" fill-rule="nonzero"></path>
                    <path d="M132.219962,151.820836 C131.069962,152.160836 130.139962,152.820836 129.499962,152.550836 C129.169962,152.790836 124.209962,154.550836 123.709962,154.920836 C123.209962,155.290836 123.269962,155.820836 123.809962,155.820836 C124.609962,155.820836 131.189962,155.530836 131.189962,155.530836 C131.274817,155.623379 131.35492,155.72017 131.429962,155.820836 L132.939962,155.820836 C133.426295,154.454165 133.152331,152.932139 132.219962,151.820836 Z" id="Path" fill="#000000" fill-rule="nonzero"></path>
                    <path d="M108.559962,93.2408355 C108.559962,93.2408355 116.709962,89.8008355 119.449962,87.5008355 C122.449962,84.7108355 126.049962,76.2408355 130.449962,74.1008355 L131.979962,73.2908355 C133.970407,72.3698134 136.014039,71.5683891 138.099962,70.8908355 C141.819962,70.7208355 143.149962,71.8908355 146.439962,77.5308355 C149.729962,83.1708355 154.629962,99.9508355 154.629962,99.9508355 C151.399962,102.030836 135.999962,102.030836 135.999962,102.030836 C133.919211,96.4055766 132.329931,90.6105582 131.249962,84.7108355 C129.129962,86.3308355 126.029962,88.9708355 122.999962,91.4108355 C119.089962,93.9408355 115.299962,95.0108355 109.549962,96.5008355 C109.559962,96.5008355 109.119962,95.0208355 108.559962,93.2408355 Z" id="Path" fill="#FFD03E" fill-rule="nonzero"></path>
                    <path d="M128.319962,63.7908355 C128.679962,65.2608355 129.319962,69.7908355 130.679962,70.9508355 C131.819962,71.9508355 133.289962,71.5908355 135.219962,69.9508355 C137.149962,68.3108355 135.699962,64.2508355 135.549962,62.9508355 C135.299962,60.9708355 127.569962,60.7008355 128.319962,63.7908355 Z" id="Path" fill="#FFD3C9" fill-rule="nonzero"></path>
                    <path d="M133.099962,70.7308355 C133.259962,71.4908355 133.369962,72.6508355 133.369962,72.6508355 C133.849962,72.9408355 138.559962,71.6508355 137.819962,71.0708355 C137.147512,69.6757324 136.54673,68.2472063 136.019962,66.7908355 L133.099962,70.7308355 Z" id="Path" fill="#FFD3C9" fill-rule="nonzero"></path>
                    <path d="M133.669962,60.0308355 C130.969962,59.8808355 127.109962,58.8208355 126.889962,59.2308355 C126.889962,59.3108355 127.049962,59.4108355 127.009962,59.5008355 C126.969962,59.5908355 125.259962,58.4508355 124.569962,59.4408355 C123.879962,60.4308355 125.569962,63.2708355 128.319962,63.7908355 C131.069962,64.3108355 129.529962,66.5408355 130.799962,66.9208355 C132.069962,67.3008355 133.049962,70.0708355 134.699962,69.4708355 C136.349962,68.8708355 137.699962,69.4708355 137.229962,68.4708355 C136.759962,67.4708355 136.939962,65.0608355 136.229962,63.3608355 C135.519962,61.6608355 135.159962,60.1308355 133.669962,60.0308355 Z" id="Path" fill="#000000" fill-rule="nonzero"></path>
                    <path d="M131.119962,66.1308355 C130.979962,65.7108355 130.649962,65.4508355 130.379962,65.5308355 C130.109962,65.6108355 130.009962,66.0308355 130.149962,66.4508355 C130.289962,66.8708355 130.609962,67.1408355 130.879962,67.0508355 C131.149962,66.9608355 131.259962,66.5908355 131.119962,66.1308355 Z" id="Path" fill="#F7D3C9" fill-rule="nonzero"></path>
                    <path d="M133.099962,85.2808355 C133.239962,82.8308355 134.679962,81.4608355 134.249962,81.2808355 C133.819962,81.1008355 125.959962,88.4908355 124.419962,90.2808355 C126.979962,88.1908355 129.469962,86.1008355 131.259962,84.7308355 C132.337801,90.6234738 133.923721,96.4117475 135.999962,102.030836 C136.139962,101.640836 132.999962,87.7308355 133.099962,85.2808355 Z" id="Path" fill="#FCBA06" fill-rule="nonzero"></path>
                    <polygon id="Path" fill="#FFD03E" fill-rule="nonzero" points="88.9699616 116.400836 87.3699616 120.780836 90.4199616 120.830836"></polygon>
                    <rect id="Rectangle" fill="#FCBA06" fill-rule="nonzero" transform="translate(88.876533, 122.085129) rotate(-89.000000) translate(-88.876533, -122.085129) " x="87.5915328" y="121.695129" width="2.57" height="1"></rect>
                    <path d="M37.1799616,34.2608355 L36.7399616,32.9908355 C36.6804677,32.7434664 36.7522234,32.4828799 36.9299616,32.3008355 C37.7203881,31.4821549 38.7933022,30.9957672 39.9299616,30.9408355 C40.6399616,30.9408355 41.0999616,31.1008355 41.2099616,31.4308355 L41.6499616,32.7008355 C41.5399616,32.3708355 41.0799616,32.1808355 40.3699616,32.2108355 C39.2157749,32.2531147 38.1227509,32.7404958 37.3199616,33.5708355 C37.1598608,33.7624803 37.1072155,34.0219464 37.1799616,34.2608355 L37.1799616,34.2608355 Z" id="Path" fill="#ED9F00" fill-rule="nonzero"></path>
                    <path d="M38.4699616,34.7608355 C37.3199616,34.7608355 36.8299616,34.2708355 37.3699616,33.5708355 C38.1727509,32.7404958 39.2657749,32.2531147 40.4199616,32.2108355 C41.5599616,32.2108355 42.0499616,32.6908355 41.5099616,33.4008355 C40.7049098,34.2220566 39.6187513,34.7079697 38.4699616,34.7608355 L38.4699616,34.7608355 Z" id="Path" fill="#FCBA06" fill-rule="nonzero"></path>
                    <path d="M71.6699616,94.8008355 L72.0999616,96.0708355 C72.1511865,96.3228126 72.0765745,96.5839549 71.8999616,96.7708355 C71.0870506,97.5925131 69.9946009,98.0780463 68.8399616,98.1308355 C68.1199616,98.1308355 67.6699616,97.9508355 67.5599616,97.6208355 L67.1299616,96.3508355 C67.2399616,96.6708355 67.6999616,96.8808355 68.4099616,96.8508355 C69.5633906,96.8190666 70.6598531,96.3424995 71.4699616,95.5208355 C71.6547344,95.3304651 71.7300773,95.0592305 71.6699616,94.8008355 L71.6699616,94.8008355 Z" id="Path" fill="#ED9F00" fill-rule="nonzero"></path>
                    <path d="M70.3799616,94.2908355 C71.5299616,94.2908355 72.0199616,94.7908355 71.4699616,95.4908355 C70.6598531,96.3124995 69.5633906,96.7890666 68.4099616,96.8208355 C67.2699616,96.8208355 66.7799616,96.3208355 67.3299616,95.6208355 C68.1428166,94.8091628 69.2320648,94.3341792 70.3799616,94.2908355 Z" id="Path" fill="#FCBA06" fill-rule="nonzero"></path>
                    <path d="M55.0599616,4.39083553 L54.1299616,4.87083553 C53.7876771,5.041328 53.3910966,5.06656495 53.0299616,4.94083553 C51.8879195,4.47302107 51.1386888,3.36494834 51.1299616,2.13083553 C51.0831518,1.51505374 51.3841264,0.924680617 51.9099616,0.600835526 L52.8299616,0.120835526 C52.3024187,0.437334561 52.0030629,1.02827065 52.0599616,1.64083553 C52.0585014,2.89006045 52.8313137,4.00944327 53.9999616,4.45083553 C54.3480402,4.5665743 54.727167,4.54511429 55.0599616,4.39083553 L55.0599616,4.39083553 Z" id="Path" fill="#ED9F00" fill-rule="nonzero"></path>
                    <path d="M55.8299616,2.86083553 C55.8299616,4.07083553 54.9899616,4.78083553 53.9499616,4.45083553 C52.8111842,3.99730533 52.062862,2.89659866 52.0599616,1.67083553 C52.0599616,0.460835526 52.8899616,-0.249164474 53.9399616,0.080835526 C55.078739,0.534365722 55.8270612,1.6350724 55.8299616,2.86083553 L55.8299616,2.86083553 Z" id="Path" fill="#FFD03E" fill-rule="nonzero"></path>
                    <path d="M97.5999616,71.4808355 L96.3299616,72.3008355 C95.8279717,72.6137285 95.251305,72.7863832 94.6599616,72.8008355 C92.1899616,72.8908355 89.5699616,70.5908355 88.8099616,67.6708355 C88.2399616,65.5008355 88.8099616,63.6008355 90.2199616,62.7308355 L91.4999616,61.9108355 C90.1399616,62.7808355 89.4999616,64.6908355 90.0799616,66.8508355 C90.8399616,69.7708355 93.4699616,72.0708355 95.9299616,71.9908355 C96.5226471,71.9758542 97.1000265,71.7995288 97.5999616,71.4808355 Z" id="Path" fill="#E19100" fill-rule="nonzero"></path>
                    <path d="M93.1699616,61.4108355 C95.6399616,61.3208355 98.2599616,63.6308355 99.0199616,66.5408355 C99.7799616,69.4508355 98.3999616,71.9008355 95.9299616,71.9908355 C93.4599616,72.0808355 90.8399616,69.7708355 90.0799616,66.8508355 C89.3199616,63.9308355 90.7099616,61.4908355 93.1699616,61.4108355 Z" id="Path" fill="#FCBA06" fill-rule="nonzero"></path>
                    <path d="M93.9999616,62.5208355 L94.1899616,63.2208355 C95.0294743,63.4778306 95.6715987,64.1579505 95.8799616,65.0108355 L95.1199616,65.0108355 C95.0231823,64.4701285 94.5769867,64.0607747 94.0299616,64.0108355 C93.5699616,64.0108355 93.3099616,64.4808355 93.4499616,65.0108355 C93.5195858,65.2793002 93.6696251,65.5200611 93.8799616,65.7008355 C94.0593071,65.8688829 94.2942572,65.9649988 94.5399616,65.9708355 C95.5611946,66.059707 96.4069923,66.8002859 96.6299616,67.8008355 C96.914979,68.5217802 96.5911332,69.3401474 95.8899616,69.6708355 L96.0599616,70.3208355 L95.2999616,70.3208355 L95.1299616,69.6608355 C94.295156,69.4021853 93.6549892,68.7279268 93.4399616,67.8808355 L94.1999616,67.8808355 C94.2967409,68.4215426 94.7429365,68.8308964 95.2899616,68.8808355 C95.7499616,68.8808355 96.0099616,68.4108355 95.8699616,67.8808355 C95.7731823,67.3401285 95.3269867,66.9307747 94.7799616,66.8808355 C94.3079742,66.874495 93.8552463,66.6926909 93.5099616,66.3708355 C93.1386115,66.0390051 92.8682814,65.6092495 92.7299616,65.1308355 C92.4382024,64.4125499 92.7587263,63.5914816 93.4599616,63.2608355 L93.2799616,62.5508355 L93.9999616,62.5208355 Z" id="Path" fill="#FFE357" fill-rule="nonzero"></path>
                    <path d="M96.1799616,62.4208355 C95.3183169,61.7644367 94.2631167,61.4127033 93.1799616,61.4208355 C90.7199616,61.5008355 89.3299616,63.9508355 90.0899616,66.8608355 C90.3613781,67.8724979 90.8416911,68.8160916 91.4999616,69.6308355 L95.6999616,64.4508355 C95.7257345,63.7492989 95.8888107,63.0596226 96.1799616,62.4208355 Z" id="Path" fill="#4C4C4C" fill-rule="nonzero" style="mix-blend-mode: screen;"></path>
                    <path d="M72.6899616,15.3708355 L73.6899616,16.7308355 C74.4899616,17.8808355 74.3299616,19.6508355 73.0899616,21.3408355 C71.3399616,23.7108355 68.0899616,25.0508355 65.8799616,24.3408355 C65.2979868,24.1741006 64.7857262,23.8232372 64.4199616,23.3408355 L63.4199616,21.9808355 C63.7886713,22.4601359 64.2998144,22.8102339 64.8799616,22.9808355 C67.1099616,23.7208355 70.3399616,22.3808355 72.0899616,19.9808355 C73.3299616,18.2808355 73.4899616,16.5208355 72.6899616,15.3708355 Z" id="Path" fill="#E19100" fill-rule="nonzero"></path>
                    <path d="M71.2199616,14.3208355 C73.4499616,15.0608355 73.8399616,17.5908355 72.0899616,19.9708355 C70.3399616,22.3508355 67.0899616,23.6908355 64.8799616,22.9708355 C62.6699616,22.2508355 62.2699616,19.7008355 64.0199616,17.3208355 C65.7699616,14.9408355 68.9999616,13.5908355 71.2199616,14.3208355 Z" id="Path" fill="#FCBA06" fill-rule="nonzero"></path>
                    <path d="M70.5199616,15.4008355 L70.0999616,15.9808355 C70.6099616,16.3508355 70.6499616,17.1108355 70.0999616,17.8308355 L69.4099616,17.6108355 C69.7399616,17.1608355 69.6599616,16.6908355 69.2399616,16.5508355 C68.7170247,16.458817 68.1887107,16.6818829 67.8899616,17.1208355 C67.7469205,17.301921 67.6789029,17.5310329 67.6999616,17.7608355 C67.7375074,17.9578177 67.879285,18.1187543 68.0699616,18.1808355 C68.8699616,18.4408355 69.0699616,19.3408355 68.4099616,20.1808355 C67.9033109,20.8880821 67.0899073,21.3114977 66.2199616,21.3208355 L65.8299616,21.8608355 L65.1399616,21.6408355 L65.5299616,21.1008355 C65.0199616,20.7308355 64.9799616,19.9708355 65.5299616,19.2408355 L66.2199616,19.4608355 C65.8899616,19.9108355 65.9699616,20.3908355 66.3899616,20.5208355 C66.9113935,20.6203037 67.4420389,20.4001842 67.7399616,19.9608355 C68.0599616,19.5108355 67.9799616,19.0408355 67.5599616,18.9008355 C67.1953368,18.7921171 66.9240011,18.4858954 66.8599616,18.1108355 C66.8190984,17.6699657 66.9478396,17.2300999 67.2199616,16.8808355 C67.7298297,16.177308 68.5412169,15.7549421 69.4099616,15.7408355 L69.8299616,15.1608355 L70.5199616,15.4008355 Z" id="Path" fill="#FFD03E" fill-rule="nonzero"></path>
                    <path d="M72.6099616,15.2708355 C72.2582847,14.8047405 71.7736747,14.4561002 71.2199616,14.2708355 C68.9999616,13.5408355 65.7699616,14.8808355 64.0199616,17.2708355 C63.4154373,18.0450261 63.0411517,18.9738088 62.9399616,19.9508355 L72.6099616,15.2708355 Z" id="Path" fill="#4C4C4C" fill-rule="nonzero" style="mix-blend-mode: screen;"></path>
                    <path d="M56.3599616,81.9908355 L56.4499616,83.3508355 C56.4909595,84.5598998 55.890156,85.7006659 54.8699616,86.3508355 C52.7158048,87.8358059 49.8766708,87.8674397 47.6899616,86.4308355 C46.9211304,85.8993372 46.4211776,85.0600004 46.3199616,84.1308355 L46.2199616,82.7608355 C46.3136406,83.7057638 46.8183657,84.5616019 47.5999616,85.1008355 C49.7855901,86.532699 52.6209625,86.4971085 54.7699616,85.0108355 C55.7987289,84.3580215 56.4039654,83.2084528 56.3599616,81.9908355 L56.3599616,81.9908355 Z" id="Path" fill="#E19100" fill-rule="nonzero"></path>
                    <ellipse id="Oval" fill="#FCBA06" fill-rule="nonzero" transform="translate(51.296787, 82.346407) rotate(-4.060000) translate(-51.296787, -82.346407) " cx="51.296787" cy="82.3464073" rx="5.08" ry="3.74"></ellipse>
                    <path d="M49.0699616,79.9708355 L49.5399616,80.3308355 C50.2564264,80.0072117 51.0895903,80.0791668 51.7399616,80.5208355 L51.1199616,80.9808355 C50.7157401,80.7054532 50.1841831,80.7054532 49.7799616,80.9808355 C49.6077478,81.0887134 49.5031708,81.2776233 49.5031708,81.4808355 C49.5031708,81.6840478 49.6077478,81.8729576 49.7799616,81.9808355 C49.9702413,82.1227624 50.2026537,82.1967118 50.4399616,82.1908355 C50.6829354,82.1931448 50.9206004,82.1197482 51.1199616,81.9808355 C51.8927693,81.4565638 52.9071539,81.4565638 53.6799616,81.9808355 C53.947126,82.1570696 54.1233347,82.4418169 54.1618474,82.7595463 C54.20036,83.0772758 54.0972843,83.3958757 53.8799616,83.6308355 L54.3099616,83.9608355 L53.6899616,84.4208355 L53.2599616,84.0908355 C52.5400606,84.414264 51.7040945,84.3423937 51.0499616,83.9008355 L51.6799616,83.4408355 C52.0792781,83.7202216 52.6106452,83.7202216 53.0099616,83.4408355 C53.1821754,83.3329576 53.2867524,83.1440478 53.2867524,82.9408355 C53.2867524,82.7376233 53.1821754,82.5487134 53.0099616,82.4408355 C52.6075246,82.1597239 52.0723986,82.1597239 51.6699616,82.4408355 C51.2934583,82.7079956 50.8415634,82.848118 50.3799616,82.8408355 C49.9289764,82.84953 49.4871768,82.7127825 49.1199616,82.4508355 C48.8513182,82.2762522 48.6730881,81.9923194 48.6326378,81.6744949 C48.5921874,81.3566705 48.6936137,81.037145 48.9099616,80.8008355 L48.4399616,80.4408355 L49.0699616,79.9708355 Z" id="Path" fill="#FFD03E" fill-rule="nonzero"></path>
                    <path d="M47.7999616,79.7408355 C45.7999616,81.2308355 45.6799616,83.6108355 47.5999616,85.0508355 C48.4166273,85.6270868 49.373529,85.9725386 50.3699616,86.0508355 L52.7999616,78.7308355 C51.0652883,78.3803497 49.2625765,78.7444975 47.7999616,79.7408355 Z" id="Path" fill="#4C4C4C" fill-rule="nonzero" style="mix-blend-mode: screen;"></path>
                    <path d="M76.1399616,52.1308355 C74.6014192,49.6935 72.5249781,47.6410047 70.0699616,46.1308355 C66.0699616,43.6308355 61.2699616,42.6608355 57.3099616,43.9008355 C55.4164704,44.4570719 53.7625555,45.6288882 52.6099616,47.2308355 L50.0599616,50.8308355 C51.2162006,49.2281841 52.87348,48.056477 54.7699616,47.5008355 C57.5030542,46.7243009 60.4072854,46.7940303 63.0999616,47.7008355 C67.4314598,49.0504839 71.1490422,51.8829276 73.5999616,55.7008355 C76.3299616,60.1008355 76.3799616,64.7008355 74.1799616,67.8208355 L76.7299616,64.2008355 C78.9299616,61.1308355 78.8799616,56.5008355 76.1399616,52.1308355 Z" id="Path" fill="url(#linearGradient-2)" fill-rule="nonzero"></path>
                    <path d="M75.4699616,53.0608355 C79.4699616,59.5908355 77.6699616,66.5208355 71.3499616,68.5108355 C65.0299616,70.5008355 56.5699616,66.8208355 52.5199616,60.3008355 C48.4699616,53.7808355 50.3099616,46.8408355 56.6299616,44.8508355 C62.9499616,42.8608355 71.4099616,46.5408355 75.4699616,53.0608355 Z" id="Path" fill="#FFD03E" fill-rule="nonzero"></path>
                    <path d="M79.5199616,66.1808355 C78.6699616,67.3808355 77.8299616,68.5908355 76.9799616,69.8008355 C75.5531942,71.7712616 73.5134792,73.2131291 71.1799616,73.9008355 C63.3799616,76.3508355 52.9999616,71.8308355 47.9999616,63.7908355 C44.6299616,58.3608355 44.5699616,52.7208355 47.2699616,48.8808355 L47.2699616,48.8808355 L49.8199616,45.2508355 C47.1099616,49.1308355 47.1799616,54.7408355 50.5499616,60.1308355 C55.5499616,68.1308355 65.9299616,72.6908355 73.7199616,70.2408355 C76.0478829,69.5636461 78.086871,68.1363545 79.5199616,66.1808355 L79.5199616,66.1808355 Z" id="Path" fill="url(#linearGradient-3)" fill-rule="nonzero"></path>
                    <path d="M78.7899616,51.2708355 C83.7899616,59.2708355 81.5199616,67.8208355 73.7199616,70.2708355 C65.9199616,72.7208355 55.5499616,68.2108355 50.5499616,60.1308355 C45.5499616,52.0508355 47.8199616,43.5708355 55.6199616,41.1308355 C63.4199616,38.6908355 73.7899616,43.2208355 78.7899616,51.2708355 Z M53.1999616,59.3308355 C57.1999616,65.8508355 65.6999616,69.5408355 72.0299616,67.5508355 C78.3599616,65.5608355 80.1999616,58.6208355 76.1399616,52.1308355 C72.0799616,45.6408355 63.6399616,41.9208355 57.3099616,43.9108355 C50.9799616,45.9008355 49.1399616,52.8008355 53.1999616,59.3308355 Z" id="Shape" fill="#FFE950" fill-rule="nonzero"></path>
                    <path d="M55.8499616,57.2708355 L56.7099616,56.9908355 C56.2897427,55.9154897 56.3970554,54.7054455 56.9999616,53.7208355 L56.3399616,54.6608355 L56.3399616,54.6608355 C55.8349221,55.4306057 55.6585034,56.3703053 55.8499616,57.2708355 L55.8499616,57.2708355 Z" id="Path" fill="#FBBA05" fill-rule="nonzero"></path>
                    <path d="M62.9399616,57.0108355 C63.2906696,57.5294438 63.416894,58.1677786 63.2899616,58.7808355 C63.7022946,58.4667564 63.9692731,57.9985841 64.0296164,57.4837804 C64.0899597,56.9689767 63.9384852,56.451755 63.6099616,56.0508355 C62.9221491,55.0454815 62.6797329,53.8008371 62.9399616,52.6108355 C63.0478987,52.2493271 63.2207132,51.9104752 63.4499616,51.6108355 L63.4499616,51.6108355 L62.8099616,52.5208355 L62.8099616,52.5208355 C62.5545435,52.8467992 62.3674817,53.2209229 62.2599616,53.6208355 C62.0169221,54.7962918 62.2623944,56.0200437 62.9399616,57.0108355 L62.9399616,57.0108355 Z" id="Path" fill="#FBBA05" fill-rule="nonzero"></path>
                    <path d="M59.9999616,54.4708355 C59.4321392,54.63453 58.9941534,55.0877501 58.8499616,55.6608355 C58.9944463,55.5638814 59.1529593,55.4896838 59.3199616,55.4408355 L59.9999616,54.4708355 Z" id="Path" fill="#E19100" fill-rule="nonzero"></path>
                    <path d="M72.4999616,54.4708355 C72.5837849,54.6946963 72.6473727,54.9256204 72.6899616,55.1608355 L73.3999616,54.9408355 L74.0799616,53.9408355 L72.4999616,54.4708355 Z" id="Path" fill="#E19100" fill-rule="nonzero"></path>
                    <polygon id="Path" fill="#FBBA05" fill-rule="nonzero" points="69.2099616 56.9908355 68.5299616 57.9608355 69.8099616 60.0108355 70.4899616 59.0508355"></polygon>
                    <path d="M70.4899616,59.0508355 L69.8099616,60.0508355 C70.4826517,59.8546532 71.0726718,59.4437464 71.4899616,58.8808355 L71.4899616,58.8808355 L71.4899616,58.8808355 L72.1599616,57.8808355 C71.7402837,58.4368531 71.1558782,58.8462869 70.4899616,59.0508355 L70.4899616,59.0508355 Z" id="Path" fill="#E19100" fill-rule="nonzero"></path>
                    <path d="M74.0799616,53.9808355 L72.4999616,54.4708355 C72.9081163,55.3369903 72.9224409,56.3371887 72.5392583,57.2146769 C72.1560757,58.092165 71.4127014,58.7614905 70.4999616,59.0508355 L69.2199616,56.9908355 C70.4299616,56.6108355 70.7899616,55.2808355 70.0099616,53.9908355 C69.2690585,52.7510625 67.8240148,52.1168489 66.4099616,52.4108355 C65.8522409,52.567272 65.4163981,53.0031148 65.2599616,53.5608355 C65.1232825,54.1879818 65.2537057,54.8437205 65.6199616,55.3708355 C67.0999616,57.7508355 66.4199616,60.2808355 64.1099616,61.0108355 C61.8607978,61.5117195 59.5176138,60.7447198 57.9999616,59.0108355 L56.5499616,59.4608355 L55.2699616,57.4108355 L56.7199616,56.9508355 C56.3153439,56.0856989 56.3029027,55.088215 56.685817,54.2132558 C57.0687313,53.3382967 57.8099066,52.670623 58.7199616,52.3808355 L59.9999616,54.3808355 C58.7799616,54.7708355 58.4299616,56.0908355 59.2099616,57.3808355 C59.9550525,58.6208129 61.4049029,59.2513572 62.8199616,58.9508355 C64.0299616,58.5708355 64.3799616,57.2508355 63.5999616,55.9508355 C62.9121491,54.9454815 62.6697329,53.7008371 62.9299616,52.5108355 C63.2119897,51.4410342 64.0427805,50.6026216 65.1099616,50.3108355 C67.3593429,49.8054379 69.7048031,50.5731827 71.2199616,52.3108355 L72.7899616,51.8108355 L74.0799616,53.9808355 Z" id="Path" fill="#FFE950" fill-rule="nonzero"></path>
                    <polygon id="Path" fill="#FBBA05" fill-rule="nonzero" points="55.2599616 57.4508355 54.5799616 58.4108355 55.8599616 60.4708355 56.5399616 59.5108355"></polygon>
                    <polygon id="Path" fill="#E19100" fill-rule="nonzero" points="56.5399616 59.5108355 55.8599616 60.4708355 57.3099616 60.0108355 57.9899616 59.0508355"></polygon>
                    <path d="M65.4299616,60.2908355 L65.4299616,60.2908355 C65.3235832,60.3892621 65.209927,60.4795185 65.0899616,60.5608355 C64.7875959,60.7833344 64.4493801,60.9524423 64.0899616,61.0608355 C61.8407978,61.5617195 59.4976138,60.7947198 57.9799616,59.0608355 L57.2999616,60.0608355 C58.8182904,61.8001885 61.1675073,62.5679065 63.4199616,62.0608355 C64.0502678,61.8608603 64.602555,61.4693655 64.9999616,60.9408355 L64.9999616,60.9408355 L65.6899616,59.9408355 C65.6177146,60.0675525 65.5304147,60.1850716 65.4299616,60.2908355 L65.4299616,60.2908355 Z" id="Path" fill="url(#linearGradient-4)" fill-rule="nonzero"></path>
                    <path d="M69.6899616,56.7708355 C70.0960502,56.4519616 70.3574387,55.9836692 70.4156943,55.470644 C70.4739499,54.9576188 70.3242147,54.4426421 69.9999616,54.0408355 C69.2590585,52.8010625 67.8140148,52.1668489 66.3999616,52.4608355 C65.8422409,52.617272 65.4063981,53.0531148 65.2499616,53.6108355 L65.2499616,53.6108355 C65.3944463,53.5138814 65.5529593,53.4396838 65.7199616,53.3908355 C67.1320965,53.0917778 68.578307,53.7224862 69.3199616,54.9608355 C69.6617306,55.4607064 69.7945163,56.0743917 69.6899616,56.6708355 L69.6899616,56.7708355 Z" id="Path" fill="#E19100" fill-rule="nonzero"></path>
                    <path d="M55.6199616,41.1308355 C47.8199616,43.5808355 45.5499616,52.1308355 50.5499616,60.1308355 C52.6118831,63.3840869 55.4459181,66.0772789 58.7999616,67.9708355 L59.9999616,65.7208355 C57.2373627,64.1892051 54.9002154,61.992974 53.1999616,59.3308355 C49.1399616,52.8008355 50.9999616,45.8808355 57.3099616,43.8808355 C61.2099616,42.6508355 65.8999616,43.5808355 69.8899616,46.0008355 L70.9999616,43.7208355 C66.1499616,40.7708355 60.3999616,39.6508355 55.6199616,41.1308355 Z M59.2199616,57.4008355 C58.4399616,56.1508355 58.7899616,54.8308355 60.0099616,54.4008355 L58.7299616,52.4008355 C57.8199066,52.690623 57.0787313,53.3582967 56.695817,54.2332558 C56.3129027,55.108215 56.3253439,56.1056989 56.7299616,56.9708355 L55.2799616,57.4308355 L56.5599616,59.4808355 L57.9999616,59.0508355 C59.1074346,60.2482363 60.6017614,61.0166461 62.2199616,61.2208355 L63.5599616,58.5708355 C63.3588607,58.7710508 63.111596,58.9187228 62.8399616,59.0008355 C61.4216606,59.3060107 59.9663759,58.6748513 59.2199616,57.4308355 L59.2199616,57.4008355 Z M65.1199616,50.4008355 C64.0527805,50.6926216 63.2219897,51.5310342 62.9399616,52.6008355 C62.6797329,53.7908371 62.9221491,55.0354815 63.6099616,56.0408355 C63.9356913,56.5216134 64.0743987,57.104896 63.9999616,57.6808355 L65.3699616,54.9608355 C65.1840419,54.5359038 65.1419081,54.0618982 65.2499616,53.6108355 C65.4063981,53.0531148 65.8422409,52.617272 66.3999616,52.4608355 C66.4838724,52.4303591 66.5711813,52.4102109 66.6599616,52.4008355 L67.6599616,50.4008355 C66.8265494,50.185473 65.9516523,50.1889175 65.1199616,50.4108355 L65.1199616,50.4008355 Z" id="Shape" fill="#4C4C4C" fill-rule="nonzero" style="mix-blend-mode: screen;"></path>
                </g>
            </g>
        </g>
    </g>
</svg>