<?xml version="1.0" encoding="UTF-8"?>
<svg width="200px" height="200px" viewBox="0 0 200 200" version="1.1" xmlns="http://www.w3.org/2000/svg" xmlns:xlink="http://www.w3.org/1999/xlink">
    <title>F46FAFCE-46CE-4BF6-87CA-ADDECD163F9D@1x</title>
    <g id="Icon-and-Graphic" stroke="none" stroke-width="1" fill="none" fill-rule="evenodd">
        <g id="Icon" transform="translate(-100.000000, -909.000000)">
            <g id="Group-4" transform="translate(100.000000, 909.000000)">
                <rect id="Rectangle" x="0" y="0" width="200" height="200"></rect>
                <g id="Graphic-04" transform="translate(26.000000, 18.000000)">
                    <path d="M43.38,115.181114 C46.24,112.421114 51.02,103.301114 44.99,97.0411141 C42.26,94.2111141 41.38,93.6211141 39.8,93.6811141 C38.8,93.6811141 37.92,94.2611141 37.25,93.6811141 C36.03,92.5211141 40.35,87.9511141 36.32,83.3311141 C32.29,78.7111141 28.32,80.8111141 27.32,79.5511141 C26.32,78.2911141 27.61,76.0811141 25.03,74.6911141 C22.45,73.3011141 20.03,77.4211141 16.48,76.0911141 C12.93,74.7611141 6.14,73.7511141 4.81,77.2611141 C3.48,80.7711141 6.4,81.7011141 7.13,84.1711141 C7.86,86.6411141 5.07,93.4911141 10.54,95.5511141 C16.01,97.6111141 18.28,97.5511141 18.27,104.821114 C18.26,112.091114 24.34,116.091114 27.88,115.751114 C31.42,115.411114 30.36,117.191114 28.46,118.051114 C26.56,118.911114 29.23,120.701114 31.83,120.611114 C34.43,120.521114 39.79,118.641114 43.38,115.181114 Z" id="Path" fill="#FFD03E" fill-rule="nonzero" opacity="0.12"></path>
                    <path d="M44.27,117.221114 C44.1650378,117.221114 44.0703701,117.158002 44.03,117.061114 C37.3674409,101.464834 25.6336354,88.5752663 10.73,80.4811141 C10.6646821,80.4510725 10.6147193,80.3953253 10.591984,80.3271195 C10.5692487,80.2589136 10.5757706,80.1843382 10.61,80.1211141 C10.6804655,79.993499 10.8370585,79.9413013 10.97,80.0011141 C25.9876616,88.1558206 37.8101155,101.144663 44.52,116.861114 C44.5465216,116.924766 44.5466714,116.996347 44.5204163,117.060109 C44.4941612,117.123871 44.443652,117.174592 44.38,117.201114 C44.3456674,117.217142 44.3077772,117.224031 44.27,117.221114 L44.27,117.221114 Z" id="Path" fill="#FCBA06" fill-rule="nonzero"></path>
                    <path d="M20.12,86.4011141 L20.12,86.4011141 C20.0490487,86.3961384 19.9832334,86.3623134 19.9378861,86.3075187 C19.8925388,86.252724 19.871619,86.1817441 19.88,86.1111141 C20.200637,83.715516 20.9780289,81.4037085 22.17,79.3011141 C22.2612999,79.2059772 22.4079625,79.1907019 22.5169078,79.2649827 C22.625853,79.3392636 22.6652097,79.4813702 22.61,79.6011141 C21.4731384,81.6274924 20.7268755,83.8493206 20.41,86.1511141 C20.4048878,86.2227972 20.3714091,86.2894846 20.3169777,86.3364082 C20.2625463,86.3833319 20.191654,86.4066195 20.12,86.4011141 L20.12,86.4011141 Z" id="Path" fill="#FCBA06" fill-rule="nonzero"></path>
                    <path d="M12.38,86.8811141 C12.2878802,86.8829786 12.2011693,86.8377381 12.15,86.7611141 C12.0712655,86.6366083 12.1068625,86.4719719 12.23,86.3911141 C13.9525518,85.3993999 15.8031892,84.6490506 17.73,84.1611141 C17.8663832,84.1572837 17.9841922,84.2558007 18.0045558,84.3907095 C18.0249194,84.5256182 17.9414375,84.6545187 17.81,84.6911141 C15.9570007,85.1635812 14.1772178,85.8869334 12.52,86.8411141 C12.4788964,86.8692566 12.429767,86.8832936 12.38,86.8811141 Z" id="Path" fill="#FCBA06" fill-rule="nonzero"></path>
                    <path d="M29.28,94.5511141 L29.28,94.5511141 C29.1308831,94.5511141 29.01,94.430231 29.01,94.2811141 C29.0387523,91.4586981 29.9748817,88.7204319 31.68,86.4711141 C31.7202271,86.4129443 31.7824152,86.3736721 31.8522276,86.3623512 C31.9220401,86.3510303 31.9934519,86.3686376 32.05,86.4111141 C32.1696793,86.4951417 32.2007126,86.6591746 32.12,86.7811141 C30.4935699,88.944781 29.6065214,91.5743713 29.59,94.2811141 C29.5908737,94.3602241 29.5570063,94.4357369 29.4973473,94.487698 C29.4376882,94.5396591 29.3582411,94.5628397 29.28,94.5511141 L29.28,94.5511141 Z" id="Path" fill="#FCBA06" fill-rule="nonzero"></path>
                    <path d="M18.58,93.3311141 C18.4729283,93.3299708 18.3758844,93.2678627 18.33,93.1711141 C18.3002668,93.1063544 18.2984165,93.0322293 18.3248815,92.9660667 C18.3513466,92.8999041 18.4038072,92.8475035 18.47,92.8211141 C20.24,92.0211141 24.47,90.5611141 25.89,90.6711141 C26.0312076,90.6867678 26.136127,90.8091736 26.13,90.9511141 C26.1248878,91.0227972 26.0914091,91.0894846 26.0369777,91.1364082 C25.9825463,91.1833319 25.911654,91.2066195 25.84,91.2011141 C24.6,91.0911141 20.46,92.5111141 18.69,93.3111141 L18.58,93.3311141 Z" id="Path" fill="#FCBA06" fill-rule="nonzero"></path>
                    <path d="M29.95,103.711114 C29.8450378,103.711114 29.7503701,103.648002 29.71,103.551114 C29.6526886,103.418457 29.7099866,103.264193 29.84,103.201114 L30.61,102.841114 C32.1026068,101.992604 33.7599155,101.474268 35.47,101.321114 C35.6191169,101.321114 35.74,101.441997 35.74,101.591114 C35.74,101.734708 35.623594,101.851114 35.48,101.851114 L35.48,101.851114 C33.8511202,102.013255 32.2740894,102.513953 30.85,103.321114 L30.07,103.681114 C30.0341749,103.703543 29.9921651,103.714045 29.95,103.711114 L29.95,103.711114 Z" id="Path" fill="#FCBA06" fill-rule="nonzero"></path>
                    <path d="M38.55,106.291131 C38.4152026,106.2926 38.299963,106.194433 38.28,106.061114 C38.05,104.211114 38.87,100.721114 40.12,98.2911141 C40.1869205,98.1593134 40.3473831,98.1058258 40.48,98.1711141 C40.6076151,98.2415796 40.6598128,98.3981726 40.6,98.5311141 C39.3983551,100.832525 38.7834952,103.395013 38.81,105.991114 C38.8213819,106.06173 38.8031698,106.133915 38.7596506,106.19068 C38.7161313,106.247444 38.6511492,106.283772 38.58,106.291131 L38.55,106.291131 Z" id="Path" fill="#FCBA06" fill-rule="nonzero"></path>
                    <path d="M22.07,160.471114 C22.07,158.651114 34.55,157.171114 49.95,157.171114 C65.35,157.171114 77.83,158.651114 77.83,160.471114 C77.83,162.291114 65.35,163.781114 49.95,163.781114 C34.55,163.781114 22.07,162.301114 22.07,160.471114 Z" id="Path" fill="#FFD03E" fill-rule="nonzero" opacity="0.12"></path>
                    <path d="M21.61,145.751114 C21.61,143.931114 44.7,142.451114 73.18,142.451114 C101.66,142.451114 124.75,143.931114 124.75,145.751114 C124.75,147.571114 101.68,149.091114 73.18,149.091114 C44.68,149.091114 21.61,147.581114 21.61,145.751114 Z" id="Path" fill="#FFD03E" fill-rule="nonzero" opacity="0.12"></path>
                    <path d="M39.76,127.731114 C30.93,123.951114 23.76,129.361114 20.76,140.281114 C29.44,142.091114 40.1,138.221114 39.76,127.731114 Z" id="Path" fill="#999999" fill-rule="nonzero"></path>
                    <path d="M38.68,125.941114 C35.77,110.021114 21.48,104.991114 3.38,111.011114 C8.89,124.851114 24.25,136.201114 38.68,125.941114 Z" id="Path" fill="#333333" fill-rule="nonzero"></path>
                    <path d="M38.68,126.211114 L38.59,126.211114 C35.67,125.211114 30.94,123.011114 25.94,120.731114 C19.88,117.961114 13.01,114.821114 7.7,112.901114 C7.58691608,112.835745 7.53684096,112.698801 7.58108377,112.575904 C7.62532659,112.453008 7.75119897,112.379404 7.88,112.401114 C13.21,114.331114 20.09,117.471114 26.16,120.241114 C31.16,122.521114 35.87,124.681114 38.77,125.711114 C38.8372808,125.733661 38.8924232,125.782728 38.922637,125.846932 C38.9528509,125.911136 38.9555109,125.9849 38.93,126.051114 C38.8882872,126.151448 38.7885798,126.21526 38.68,126.211114 Z" id="Path" fill="#999999" fill-rule="nonzero"></path>
                    <path d="M14.47,52.9411141 C7.84,55.9411141 2.36,51.8811141 7.10542736e-15,43.6711141 C6.52,42.2011141 14.61,45.0111141 14.47,52.9411141 Z" id="Path" fill="#333333" fill-rule="nonzero"></path>
                    <path d="M16.34,53.2011141 C8,46.9611141 9.19,37.2911141 17.83,28.5811141 C24.23,35.7211141 26.37,47.8311141 16.34,53.2011141 Z" id="Path" fill="#999999" fill-rule="nonzero"></path>
                    <path d="M16.34,53.4711141 L16.34,53.4711141 C16.1944407,53.4504144 16.0921996,53.3170563 16.11,53.1711141 C16.34,51.1711141 16.45,47.8711141 16.57,44.3411141 C16.71,40.0511141 16.87,35.1911141 17.28,31.5611141 C17.3006901,31.4143063 17.4322311,31.3090734 17.58,31.3211141 C17.7255593,31.3418139 17.8278004,31.4751719 17.81,31.6211141 C17.4,35.2211141 17.24,40.0811141 17.1,44.3611141 C16.98,47.9011141 16.88,51.2511141 16.64,53.2311141 C16.6324714,53.3029066 16.596508,53.3686949 16.5401401,53.4137892 C16.4837722,53.4588836 16.4116941,53.4795285 16.34,53.4711141 L16.34,53.4711141 Z" id="Path" fill="#333333" fill-rule="nonzero"></path>
                    <path d="M108.12,32.0911141 C102.39,37.4311141 104.06,44.5711141 111.22,50.3811141 C115.43,44.5311141 116.05,35.3111141 108.12,32.0911141 Z" id="Path" fill="#333333" fill-rule="nonzero"></path>
                    <path d="M101.6,135.351114 C102.6,136.841114 119.37,138.231114 119.85,135.031114 C120.22,132.541114 117.59,132.101114 116.62,132.031114 C115.1,131.891114 111.41,131.801114 111.69,130.691114 C112.2,128.691114 121.49,130.101114 123.78,130.311114 C126.07,130.521114 130.56,130.311114 132.12,128.311114 C133.68,126.311114 134.12,125.311114 130.05,125.171114 C125.98,125.031114 118.05,125.741114 120.05,123.591114 C122.05,121.441114 128.37,122.331114 132.16,121.511114 C135.95,120.691114 142.91,117.851114 140.79,115.851114 C138.89,114.071114 128.13,118.061114 128.31,116.061114 C128.46,114.461114 131.78,114.501114 136.66,112.971114 C141.54,111.441114 146.13,109.971114 145.49,106.971114 C144.98,104.571114 142.06,106.211114 139.42,106.971114 C136.78,107.731114 133.05,108.721114 133.59,107.251114 C134.13,105.781114 147.41,103.161114 147.45,99.1111141 C147.45,96.4211141 144.81,97.8811141 141.68,98.6311141 C138.55,99.3811141 137.4,99.4011141 137.46,98.7411141 C137.52,98.0811141 141.58,96.3811141 143.83,95.5111141 C146.08,94.6411141 149.01,92.6211141 148.27,90.5111141 C147.53,88.4011141 144.07,90.1511141 142.94,91.1011141 C141.81,92.0511141 140.34,92.4711141 140.06,92.1011141 C139.78,91.7311141 143.28,88.3611141 141.24,86.8311141 C139.2,85.3011141 136.18,88.8311141 135.95,91.4111141 C135.72,93.9911141 135.32,97.3511141 134.4,97.2711141 C133.48,97.1911141 133.74,94.2711141 133.95,91.9511141 C134.16,89.6311141 133.72,88.6711141 133.1,88.6211141 C131.05,88.4311141 129.05,91.2811141 128.9,92.9611141 C128.75,94.6411141 129.12,104.221114 127.75,104.091114 C126.38,103.961114 126.63,100.371114 126.75,98.5011141 C126.87,96.6311141 127.31,92.2911141 125.03,92.0811141 C122.75,91.8711141 120.98,97.6211141 120.87,101.191114 C120.76,104.761114 121.04,110.561114 119.99,110.461114 C118.94,110.361114 117.93,105.761114 118.14,103.461114 C118.35,101.161114 119.85,97.2711141 117.04,97.0111141 C114.23,96.7511141 113.34,100.161114 112.94,104.601114 C112.77,106.461114 112.4,111.061114 113.74,113.701114 C115.26,116.701114 115.52,118.441114 114.84,118.831114 C113.49,119.601114 112.5,116.831114 112.25,114.611114 C112,112.391114 111.65,105.611114 108.37,106.611114 C105.09,107.611114 106.77,112.951114 107.24,115.191114 C107.71,117.431114 110.01,125.191114 108.33,125.671114 C106.65,126.151114 106.51,121.791114 106.33,120.431114 C106.15,119.071114 104.86,116.431114 103.87,117.211114 C102.88,117.991114 99.85,132.681114 101.6,135.351114 Z" id="Path" fill="#FFD03E" fill-rule="nonzero" opacity="0.12"></path>
                    <path d="M42.92,24.7411661 C42.8158276,24.738562 42.7224221,24.6762917 42.68,24.5811141 C40.68,20.1511141 35.84,9.76111411 24.02,2.34111411 C23.9614896,2.30412299 23.920146,2.2453265 23.9051294,2.17775202 C23.8901129,2.11017754 23.9026633,2.03940458 23.94,1.98111411 C23.9752937,1.91809353 24.0352128,1.87259511 24.1053968,1.85552333 C24.1755808,1.83845155 24.2497035,1.8513452 24.31,1.89111411 C36.26,9.40111411 41.1,19.8911141 43.17,24.3611141 C43.1997332,24.4258739 43.2015835,24.4999989 43.1751185,24.5661615 C43.1486534,24.6323241 43.0961928,24.6847247 43.03,24.7111141 C42.9970208,24.7315753 42.9588008,24.7419989 42.92,24.7411661 L42.92,24.7411661 Z" id="Path" fill="#999999" fill-rule="nonzero"></path>
                    <path d="M25.9,8.39111411 C25.8104657,8.39340997 25.7265437,8.34763437 25.68,8.27111411 C25.6393934,8.21206849 25.6249574,8.13888114 25.6401017,8.0688388 C25.655246,7.99879646 25.6986276,7.93811024 25.76,7.90111411 C27.1204137,6.98589881 28.7204188,6.49198419 30.36,6.48111411 C30.4309513,6.48608979 30.4967666,6.51991483 30.5421139,6.57470952 C30.5874612,6.62950421 30.608381,6.70048412 30.6,6.77111411 C30.5842275,6.91642055 30.4556925,7.0227943 30.31,7.01111411 C28.7910448,7.04102523 27.3125579,7.50608917 26.05,8.35111411 C26.0047695,8.37831886 25.9527707,8.39218521 25.9,8.39111411 L25.9,8.39111411 Z" id="Path" fill="#999999" fill-rule="nonzero"></path>
                    <path d="M29.13,5.9711549 C28.9984097,5.97338679 28.8843526,5.88045132 28.86,5.75111411 C28.611766,4.21077612 28.5513244,2.64601085 28.68,1.09111411 C28.7054581,0.945139868 28.8438046,0.846958534 28.99,0.871114111 C29.132988,0.901212784 29.2287894,1.03620569 29.21,1.18111411 C29.0937941,2.67404869 29.1643391,4.17564978 29.42,5.65111411 C29.4382496,5.79374198 29.3415178,5.92564901 29.2,5.95111411 L29.13,5.9711549 Z" id="Path" fill="#999999" fill-rule="nonzero"></path>
                    <path d="M34.03,10.70112 C33.8973499,10.7019998 33.7853032,10.6028815 33.77,10.4711141 C33.5472038,8.94883305 33.6150691,7.39811171 33.97,5.90111411 C34.0330792,5.77110067 34.187343,5.71380271 34.32,5.77111411 C34.4513904,5.83814174 34.508252,5.9956045 34.45,6.13111411 C34.1422505,7.53029008 34.0914242,8.97375767 34.3,10.3911141 C34.3181894,10.5392271 34.2170247,10.6755794 34.07,10.70112 L34.03,10.70112 Z" id="Path" fill="#999999" fill-rule="nonzero"></path>
                    <path d="M30.62,12.8711141 C30.5202846,12.8723497 30.4280072,12.8185212 30.38,12.7311141 C30.3131827,12.6011211 30.3619373,12.4415605 30.49,12.3711141 C32.0197697,11.4962549 33.8721172,11.3925235 35.49,12.0911141 L35.75,12.1811141 C35.8393164,12.2096954 35.9066002,12.2837553 35.9265064,12.3753961 C35.9464125,12.467037 35.9159166,12.5623365 35.8465064,12.6253961 C35.7770961,12.6884558 35.6793164,12.7096954 35.59,12.6811141 L35.31,12.5911141 C33.8239241,11.9263322 32.1090112,12.0156118 30.7,12.8311141 C30.6763536,12.8497847 30.6491243,12.8633994 30.62,12.8711141 L30.62,12.8711141 Z" id="Path" fill="#999999" fill-rule="nonzero"></path>
                    <path d="M38.28,16.2111141 C38.1455566,16.2169182 38.0306403,16.1152615 38.02,15.9811141 L38.02,15.6811141 C37.84,14.3011141 37.6,12.4211141 38.88,11.4711141 C38.9550258,11.4139516 39.0548483,11.4011571 39.1418653,11.43755 C39.2288824,11.473943 39.2898741,11.5539946 39.3018654,11.64755 C39.3138566,11.7411055 39.2750258,11.8339516 39.2,11.8911141 C38.2,12.6611141 38.39,14.3611141 38.55,15.6111141 L38.55,15.9211141 C38.5616802,16.0668066 38.4553064,16.1953416 38.31,16.2111141 L38.28,16.2111141 Z" id="Path" fill="#999999" fill-rule="nonzero"></path>
                    <path d="M39.34,17.8911141 C39.3040541,17.9013957 39.2659459,17.9013957 39.23,17.8911141 C37.9211794,17.0912972 36.3176646,16.9364751 34.88,17.4711141 C34.8137065,17.493033 34.741383,17.4873666 34.6793121,17.4553906 C34.6172412,17.4234147 34.5706399,17.3678168 34.55,17.3011141 C34.5037693,17.160333 34.5796367,17.0085982 34.72,16.9611141 C36.2862239,16.3825192 38.030635,16.5481278 39.46,17.4111141 C39.5918007,17.4780347 39.6452883,17.6384972 39.58,17.7711141 C39.530062,17.854295 39.4365075,17.9010723 39.34,17.8911141 L39.34,17.8911141 Z" id="Path" fill="#999999" fill-rule="nonzero"></path>
                    <path d="M40.68,20.2211141 L40.68,20.2211141 C40.6091865,20.2186022 40.5424658,20.1872973 40.4952732,20.1344416 C40.4480806,20.0815859 40.4245048,20.0117588 40.43,19.9411141 C40.51,18.4811141 40.96,16.6511141 41.97,15.9411141 C42.0859798,15.8527486 42.2516344,15.8751343 42.34,15.9911141 C42.4283656,16.1070939 42.4059798,16.2727486 42.29,16.3611141 C41.59,16.8811141 41.05,18.3611141 40.96,20.0111141 C40.9308157,20.1403209 40.8122102,20.2292751 40.68,20.2211141 L40.68,20.2211141 Z" id="Path" fill="#999999" fill-rule="nonzero"></path>
                    <path d="M42.53,23.8911141 C42.4810036,23.9052818 42.4289964,23.9052818 42.38,23.8911141 C41.6,23.3411141 39.58,22.1511141 37.74,22.8911141 C37.6506836,22.928627 37.548139,22.9156406 37.4709936,22.8570468 C37.3938483,22.798453 37.3538226,22.7031535 37.3659936,22.6070468 C37.3781647,22.5109401 37.4406836,22.428627 37.53,22.3911141 C39.62,21.5311141 41.83,22.8311141 42.68,23.3911141 C42.7748017,23.4584937 42.8158013,23.5790103 42.7817565,23.6902232 C42.7477117,23.8014362 42.6462744,23.8783497 42.53,23.8811141 L42.53,23.8911141 Z" id="Path" fill="#999999" fill-rule="nonzero"></path>
                    <path d="M22.01,1.92111411 C21.7420657,1.23811048 22.0778207,0.467141346 22.7603791,0.198074793 C23.4429375,-0.0709917605 24.2144623,0.263484331 24.4846604,0.945595584 C24.7548585,1.62770684 24.4216622,2.39978529 23.74,2.67111411 C23.4112048,2.80198776 23.0438091,2.79642965 22.7191232,2.65566989 C22.3944374,2.51491012 22.1392363,2.25055635 22.01,1.92111411 Z" id="Path" fill="#333333" fill-rule="nonzero"></path>
                    <path d="M27.91,1.34111411 C27.7240797,0.828338573 27.9833649,0.261162327 28.4927971,0.0662678063 C29.0022294,-0.128626715 29.5738705,0.120660402 29.7776792,0.626592329 C29.9814879,1.13252426 29.7422756,1.70845408 29.24,1.92111411 C28.9873567,2.02808154 28.7018615,2.02655159 28.4503792,1.91688259 C28.1988968,1.80721359 28.0035174,1.59903884 27.91,1.34111411 Z" id="Path" fill="#333333" fill-rule="nonzero"></path>
                    <path d="M24.43,8.81111411 C24.2365048,8.29850954 24.4915384,7.72565038 25.0019399,7.52641664 C25.5123415,7.32718289 26.0880257,7.5757738 26.2929729,8.08390814 C26.4979201,8.59204248 26.2558032,9.17047931 25.75,9.38111411 C25.499777,9.48531605 25.2179731,9.48347913 24.9691298,9.37602406 C24.7202865,9.268569 24.5257229,9.06470179 24.43,8.81111411 L24.43,8.81111411 Z" id="Path" fill="#333333" fill-rule="nonzero"></path>
                    <path d="M33.58,5.87111411 C33.4730326,5.61847081 33.4745625,5.33297563 33.5842315,5.08149327 C33.6939005,4.83001091 33.9020753,4.63463151 34.16,4.54111411 C34.6846705,4.33400736 35.2778932,4.59144364 35.485,5.11611413 C35.6921067,5.64078462 35.4346705,6.23400731 34.91,6.44111411 C34.6586474,6.54856101 34.3742663,6.54842923 34.1230134,6.44074942 C33.8717605,6.33306961 33.6755402,6.12722936 33.58,5.87111411 Z" id="Path" fill="#333333" fill-rule="nonzero"></path>
                    <path d="M33.48,17.4511141 C33.2940797,16.9383386 33.5533649,16.3711623 34.0627971,16.1762678 C34.5722294,15.9813733 35.1438705,16.2306604 35.3476792,16.7365923 C35.5514879,17.2425243 35.3122756,17.8184541 34.81,18.0311141 C34.5573567,18.1380815 34.2718615,18.1365516 34.0203792,18.0268826 C33.7688968,17.9172136 33.5735174,17.7090388 33.48,17.4511141 Z" id="Path" fill="#333333" fill-rule="nonzero"></path>
                    <path d="M41.54,16.0911141 C41.4330326,15.8384708 41.4345625,15.5529756 41.5442315,15.3014933 C41.6539005,15.0500109 41.8620753,14.8546315 42.12,14.7611141 C42.370223,14.6569122 42.6520269,14.6587491 42.9008702,14.7662042 C43.1497135,14.8736592 43.3442771,15.0775264 43.44,15.3311141 C43.6498681,15.8557846 43.3946704,16.4512458 42.87,16.661114 C42.3453295,16.8709822 41.7498682,16.6157846 41.54,16.0911141 L41.54,16.0911141 Z" id="Path" fill="#333333" fill-rule="nonzero"></path>
                    <path d="M29.48,13.1811141 C29.2557398,12.5954547 29.5466339,11.9386358 30.1310359,11.7111192 C30.715438,11.4836027 31.3738659,11.7708364 31.6046317,12.353963 C31.8353975,12.9370897 31.5518332,13.5971062 30.97,13.8311141 C30.3790612,14.0627621 29.7121841,13.7718425 29.48,13.1811141 Z" id="Path" fill="#333333" fill-rule="nonzero"></path>
                    <path d="M38.12,11.7611141 C38.0054209,11.4788154 38.008607,11.1623989 38.1288472,10.8824646 C38.2490874,10.6025303 38.4763762,10.3823727 38.76,10.2711141 C39.344501,10.0418289 40.0043691,10.3283247 40.2359388,10.9119243 C40.4675086,11.4955239 40.1835961,12.1565076 39.6009067,12.3903584 C39.0182174,12.6242091 38.3561282,12.3428843 38.12,11.7611141 L38.12,11.7611141 Z" id="Path" fill="#333333" fill-rule="nonzero"></path>
                    <circle id="Oval" fill="#333333" fill-rule="nonzero" transform="translate(37.128078, 22.913318) rotate(-40.730000) translate(-37.128078, -22.913318) " cx="37.1280777" cy="22.9133177" r="1.15"></circle>
                    <path d="M109.85,33.3511141 C109.55,44.3511141 118.3,49.6411141 131.12,48.2011141 C129.41,38.2611141 120.84,28.5911141 109.85,33.3511141 Z" id="Path" fill="#999999" fill-rule="nonzero"></path>
                    <path d="M128.43,46.7711141 C128.38387,46.781127 128.33613,46.781127 128.29,46.7711141 C125.03,44.7711141 120.92,41.7011141 117.29,39.0111141 C114.29,36.8011141 111.48,34.7111141 109.71,33.6211141 C109.587845,33.5403027 109.548611,33.3790038 109.62,33.2511141 C109.700858,33.1279766 109.865494,33.0923796 109.99,33.1711141 C111.78,34.2711141 114.61,36.3611141 117.61,38.5811141 C121.23,41.2611141 125.33,44.3011141 128.61,46.3111141 C128.712696,46.3742558 128.76109,46.4978282 128.728585,46.6139179 C128.69608,46.7300076 128.590553,46.8104822 128.47,46.8111141 L128.43,46.7711141 Z" id="Path" fill="#333333" fill-rule="nonzero"></path>
                    <rect id="Rectangle" fill="#333333" fill-rule="nonzero" x="39.72" y="22.5211141" width="66.92" height="123.23" rx="6.18"></rect>
                    <rect id="Rectangle" fill="#FFFFFF" fill-rule="nonzero" x="42.81" y="29.3411141" width="60.74" height="105.7"></rect>
                    <path d="M79.23,26.9811141 L67.13,26.9811141 C66.8625965,26.9444701 66.6633144,26.7160167 66.6633144,26.4461141 C66.6633144,26.1762115 66.8625965,25.9477581 67.13,25.9111141 L79.23,25.9111141 C79.4974035,25.9477581 79.6966856,26.1762115 79.6966856,26.4461141 C79.6966856,26.7160167 79.4974035,26.9444701 79.23,26.9811141 L79.23,26.9811141 Z" id="Path" fill="#000000" fill-rule="nonzero"></path>
                    <path d="M69.8099851,140.251114 C69.815519,138.391226 71.3267545,136.887444 73.1866469,136.891114 C75.0465393,136.894797 76.5518177,138.404542 76.5499852,140.264438 C76.5481493,142.124333 75.0398961,143.631114 73.18,143.631114 C72.2844851,143.631114 71.4257935,143.274693 70.7935076,142.640531 C70.1612218,142.006369 69.8073427,141.146625 69.8099851,140.251114 Z" id="Path" stroke="#999999" stroke-width="0.49"></path>
                    <rect id="Rectangle" fill="#FFD03E" fill-rule="nonzero" x="46.45" y="91.7811141" width="49.56" height="39.9" rx="3.23"></rect>
                    <path d="M89.26,84.8411141 C89.26,82.0410304 91.5299163,79.7711141 94.33,79.7711141 C97.1300837,79.7711141 99.4,82.0410304 99.4,84.8411141 C99.4,87.6411978 97.1300837,89.9111141 94.33,89.9111141 C91.5299163,89.9111141 89.26,87.6411978 89.26,84.8411141 L89.26,84.8411141 Z" id="Path" fill="#FFD03E" fill-rule="nonzero"></path>
                    <path d="M95.13,84.7311141 C95.4498333,84.4921041 95.6533392,84.1287008 95.69,83.7311141 L95.69,83.7311141 L95.69,83.3011141 C95.7340153,82.7892285 95.4858088,82.2962312 95.0483928,82.026729 C94.6109768,81.7572268 94.0590232,81.7572268 93.6216072,82.026729 C93.1841912,82.2962312 92.9359847,82.7892285 92.98,83.3011141 L92.98,83.7311141 L92.98,83.7311141 C93.0203265,84.1299624 93.2273623,84.4931831 93.55,84.7311141 C93.03,84.7311141 91.24,85.4211141 91.65,87.0911141 L97.02,87.0911141 C97.0989234,86.5245321 96.9410157,85.9504552 96.5834266,85.5039419 C96.2258376,85.0574286 95.7001362,84.7778984 95.13,84.7311141 L95.13,84.7311141 Z" id="Path" fill="#ED9F00" fill-rule="nonzero"></path>
                    <path d="M71.23,97.8811141 L54.98,97.8811141 C54.7590861,97.8811141 54.58,97.702028 54.58,97.4811141 C54.58,97.2602002 54.7590861,97.0811141 54.98,97.0811141 L71.23,97.0811141 C71.4509139,97.0811141 71.63,97.2602002 71.63,97.4811141 C71.63,97.702028 71.4509139,97.8811141 71.23,97.8811141 L71.23,97.8811141 Z" id="Path" fill="#FFFFFF" fill-rule="nonzero"></path>
                    <path d="M90.98,97.8811141 L76.86,97.8811141 C76.6390861,97.8811141 76.46,97.702028 76.46,97.4811141 C76.46,97.2602002 76.6390861,97.0811141 76.86,97.0811141 L90.98,97.0811141 C91.2009139,97.0811141 91.38,97.2602002 91.38,97.4811141 C91.38,97.702028 91.2009139,97.8811141 90.98,97.8811141 L90.98,97.8811141 Z" id="Path" fill="#FFFFFF" fill-rule="nonzero"></path>
                    <path d="M90.98,101.551114 L51.48,101.551114 C51.2590861,101.551114 51.08,101.372028 51.08,101.151114 C51.08,100.9302 51.2590861,100.751114 51.48,100.751114 L90.98,100.751114 C91.2009139,100.751114 91.38,100.9302 91.38,101.151114 C91.38,101.372028 91.2009139,101.551114 90.98,101.551114 L90.98,101.551114 Z" id="Path" fill="#FFFFFF" fill-rule="nonzero"></path>
                    <path d="M62.33,105.231114 L51.48,105.231114 C51.2590861,105.231114 51.08,105.052028 51.08,104.831114 C51.08,104.6102 51.2590861,104.431114 51.48,104.431114 L62.33,104.431114 C62.5509139,104.431114 62.73,104.6102 62.73,104.831114 C62.73,105.052028 62.5509139,105.231114 62.33,105.231114 L62.33,105.231114 Z" id="Path" fill="#FFFFFF" fill-rule="nonzero"></path>
                    <path d="M90.98,105.231114 L64.68,105.231114 C64.4590861,105.231114 64.28,105.052028 64.28,104.831114 C64.28,104.6102 64.4590861,104.431114 64.68,104.431114 L90.98,104.431114 C91.2009139,104.431114 91.38,104.6102 91.38,104.831114 C91.38,105.052028 91.2009139,105.231114 90.98,105.231114 L90.98,105.231114 Z" id="Path" fill="#FFFFFF" fill-rule="nonzero"></path>
                    <path d="M74.48,108.901114 L51.48,108.901114 C51.3370937,108.901114 51.2050429,108.824875 51.1335898,108.701114 C51.0621366,108.577354 51.0621366,108.424875 51.1335898,108.301114 C51.2050429,108.177354 51.3370937,108.101114 51.48,108.101114 L74.48,108.101114 C74.7009139,108.101114 74.88,108.2802 74.88,108.501114 C74.88,108.722028 74.7009139,108.901114 74.48,108.901114 L74.48,108.901114 Z" id="Path" fill="#FFFFFF" fill-rule="nonzero"></path>
                    <path d="M90.98,108.901114 L80.6,108.901114 C80.4570937,108.901114 80.3250429,108.824875 80.2535898,108.701114 C80.1821366,108.577354 80.1821366,108.424875 80.2535898,108.301114 C80.3250429,108.177354 80.4570937,108.101114 80.6,108.101114 L90.98,108.101114 C91.2009139,108.101114 91.38,108.2802 91.38,108.501114 C91.38,108.722028 91.2009139,108.901114 90.98,108.901114 L90.98,108.901114 Z" id="Path" fill="#FFFFFF" fill-rule="nonzero"></path>
                    <path d="M90.98,112.581114 L51.48,112.581114 C51.2590861,112.581114 51.08,112.402028 51.08,112.181114 C51.08,111.9602 51.2590861,111.781114 51.48,111.781114 L90.98,111.781114 C91.2009139,111.781114 91.38,111.9602 91.38,112.181114 C91.38,112.402028 91.2009139,112.581114 90.98,112.581114 L90.98,112.581114 Z" id="Path" fill="#FFFFFF" fill-rule="nonzero"></path>
                    <path d="M90.98,116.251114 L51.48,116.251114 C51.2590861,116.251114 51.08,116.072028 51.08,115.851114 C51.08,115.6302 51.2590861,115.451114 51.48,115.451114 L90.98,115.451114 C91.2009139,115.451114 91.38,115.6302 91.38,115.851114 C91.38,116.072028 91.2009139,116.251114 90.98,116.251114 L90.98,116.251114 Z" id="Path" fill="#FFFFFF" fill-rule="nonzero"></path>
                    <path d="M67.01,119.931114 L51.48,119.931114 C51.2590861,119.931114 51.08,119.752028 51.08,119.531114 C51.08,119.3102 51.2590861,119.131114 51.48,119.131114 L67.01,119.131114 C67.2309139,119.131114 67.41,119.3102 67.41,119.531114 C67.41,119.752028 67.2309139,119.931114 67.01,119.931114 Z" id="Path" fill="#FFFFFF" fill-rule="nonzero"></path>
                    <path d="M90.98,119.931114 L70.21,119.931114 C69.9890861,119.931114 69.81,119.752028 69.81,119.531114 C69.81,119.3102 69.9890861,119.131114 70.21,119.131114 L90.98,119.131114 C91.2009139,119.131114 91.38,119.3102 91.38,119.531114 C91.38,119.752028 91.2009139,119.931114 90.98,119.931114 L90.98,119.931114 Z" id="Path" fill="#FFFFFF" fill-rule="nonzero"></path>
                    <path d="M86.68,123.601114 L51.48,123.601114 C51.2590861,123.601114 51.08,123.422028 51.08,123.201114 C51.08,122.9802 51.2590861,122.801114 51.48,122.801114 L86.68,122.801114 C86.9009139,122.801114 87.08,122.9802 87.08,123.201114 C87.08,123.422028 86.9009139,123.601114 86.68,123.601114 L86.68,123.601114 Z" id="Path" fill="#FFFFFF" fill-rule="nonzero"></path>
                    <path d="M74.28,69.9811141 C74.0160477,69.9653766 73.8023168,69.7608185 73.7750235,69.4978098 C73.7477301,69.2348011 73.9149036,68.9907152 74.17,68.9211141 C76.1449043,68.4724123 77.613451,66.8138391 77.8197153,64.7991344 C78.0259795,62.7844296 76.9239834,60.8626858 75.0809723,60.0231083 C73.2379613,59.1835307 71.064756,59.6132674 69.68,61.0911141 C69.4726887,61.2785001 69.15666,61.2767641 68.9514198,61.0871118 C68.7461797,60.8974595 68.7195382,60.582551 68.89,60.3611141 C70.5851631,58.5243003 73.2676659,57.9826335 75.5427465,59.0177524 C77.8178272,60.0528713 79.1718426,62.4310778 78.9007752,64.9158284 C78.6297078,67.400579 76.7947563,69.4308935 74.35,69.9511141 L74.28,69.9811141 Z" id="Path" fill="#FFD03E" fill-rule="nonzero"></path>
                    <path d="M65.82,69.0911287 C65.6313165,69.0925101 65.4561192,68.9934856 65.36,68.8311141 C64.1161604,66.6890135 63.8101769,64.1289622 64.514133,61.7540563 C65.2180892,59.3791505 66.8697436,57.3993711 69.08,56.2811141 C69.2057514,56.2149008 69.3528265,56.201965 69.4882052,56.245211 C69.6235839,56.288457 69.7359226,56.3842611 69.8,56.5111141 C69.9320708,56.7737121 69.8298485,57.0937125 69.57,57.2311141 C67.6403366,58.2188875 66.198445,59.95269 65.5790023,62.0300893 C64.9595596,64.1074887 65.2164331,66.3478321 66.29,68.2311141 C66.4335591,68.4882725 66.3445828,68.8130357 66.09,68.9611141 C66.0147065,69.0300031 65.9208067,69.0752141 65.82,69.0911287 Z" id="Path" fill="#FFD03E" fill-rule="nonzero"></path>
                    <path d="M77.34,72.2311141 C77.1471406,72.2284356 76.9709616,72.1211962 76.88,71.9511141 C76.8087086,71.8296416 76.7897423,71.6844453 76.8274393,71.5487361 C76.8651363,71.413027 76.9562717,71.2984145 77.08,71.2311141 C80.7508711,69.1345857 82.1569943,64.5438781 80.29,60.7511141 C80.2237867,60.6253628 80.2108509,60.4782876 80.2540969,60.3429089 C80.2973429,60.2075303 80.393147,60.0951915 80.52,60.0311141 C80.7852338,59.9005376 81.1061589,60.0075126 81.24,60.2711141 C81.8783724,61.5091007 82.2206878,62.8783624 82.2400117,64.2711141 C82.2452453,67.5287256 80.489739,70.5348866 77.65,72.1311141 C77.5580976,72.1928765 77.4506698,72.2275307 77.34,72.2311141 L77.34,72.2311141 Z" id="Path" fill="#FFD03E" fill-rule="nonzero"></path>
                    <path d="M61.73,66.6411141 C61.4641963,66.6391237 61.239372,66.4439932 61.2,66.1811141 C61.099621,65.5594893 61.0494589,64.9307911 61.0499957,64.3011141 C61.0610241,57.608091 66.4869701,52.1866182 73.18,52.1810549 C75.0276672,52.1753084 76.8517196,52.5962436 78.51,53.4111141 C78.6886328,53.4950715 78.8089056,53.6679508 78.8255127,53.8646301 C78.8421198,54.0613093 78.7525384,54.2519082 78.5905127,54.3646301 C78.4284871,54.4773519 78.2186328,54.4950715 78.04,54.4111141 C76.5288226,53.6658118 74.8649499,53.2823679 73.18,53.2911141 C67.097341,53.2964872 62.1584607,58.2085743 62.12,64.2911141 C62.1227645,64.8667939 62.166206,65.4415587 62.25,66.0111141 C62.2730511,66.1504222 62.2395598,66.2931695 62.1569557,66.4076887 C62.0743517,66.522208 61.9494647,66.5990306 61.81,66.6211141 L61.73,66.6411141 Z" id="Path" fill="#FFD03E" fill-rule="nonzero"></path>
                    <path d="M73.18,76.4311141 C72.2566623,76.4230484 71.3373056,76.3089677 70.44,76.0911141 C70.1549729,76.0218284 69.9773798,75.7376794 70.04,75.4511141 C70.1221817,75.1788293 70.4046296,75.0199524 70.68,75.0911141 C73.9656787,75.8456861 77.4161675,75.063331 80.055084,72.9654313 C82.6940005,70.8675316 84.234254,67.6823202 84.24,64.3111141 C84.2409315,63.3313125 84.1097498,62.3558586 83.85,61.4111141 C83.7735551,61.1240408 83.9433504,60.829133 84.23,60.7511141 C84.3666131,60.7146394 84.5121373,60.7342664 84.6342062,60.8056297 C84.7562752,60.8769931 84.844767,60.9941755 84.88,61.1311141 C85.8789645,64.7771757 85.117917,68.6805765 82.8224376,71.6843192 C80.5269582,74.6880618 76.9604305,76.4474967 73.18,76.4411314 L73.18,76.4311141 Z" id="Path" fill="#FFD03E" fill-rule="nonzero"></path>
                    <path d="M62.32,74.4711179 C62.1669294,74.4716922 62.021084,74.4060618 61.92,74.2911141 C58.0133159,69.8577057 57.0625248,63.5483436 59.4891968,58.1605284 C61.9158688,52.7727131 67.2709276,49.3035058 73.18,49.2911141 C73.4474035,49.3277581 73.6466856,49.5562115 73.6466856,49.8261141 C73.6466856,50.0960167 73.4474035,50.3244701 73.18,50.3611141 C67.6928828,50.3749167 62.7196759,53.5929559 60.4588214,58.5926742 C58.1979669,63.5923924 59.0663126,69.4519606 62.68,73.5811141 C62.869814,73.8068726 62.847755,74.1421694 62.63,74.3411141 C62.5443275,74.4182357 62.4350554,74.4640595 62.32,74.4711179 Z" id="Path" fill="#FFD03E" fill-rule="nonzero"></path>
                    <path d="M75.46,79.1811141 C75.1974218,79.1799237 74.9737608,78.9900228 74.93,78.7311141 C74.9069489,78.591806 74.9404402,78.4490588 75.0230443,78.3345395 C75.1056483,78.2200202 75.2305353,78.1431976 75.37,78.1211141 C80.0853073,77.3666485 84.090847,74.2607914 85.9958399,69.8819395 C87.9008328,65.5030877 87.4425071,60.455253 84.78,56.4911141 C84.6728203,56.3339173 84.6576457,56.1314817 84.7401923,55.9600629 C84.822739,55.7886441 84.990466,55.6742848 85.1801924,55.6600629 C85.3699187,55.645841 85.5528203,55.7339172 85.66,55.8911141 C88.5355447,60.1543767 89.03529,65.5907431 86.9851815,70.306803 C84.935073,75.0228628 80.6189282,78.3657238 75.54,79.1711141 L75.46,79.1811141 Z" id="Path" fill="#FFD03E" fill-rule="nonzero"></path>
                    <path d="M54.85,156.091114 L54.85,155.091114 L57.68,155.091114 C57.7024514,155.736573 57.8134899,156.375886 58.01,156.991114 C57.28,157.241114 56.2,156.511114 54.85,156.091114 Z" id="Path" fill="#F7D3C9" fill-rule="nonzero"></path>
                    <path d="M54.85,156.091114 C56.2,156.491114 57.28,157.221114 58.03,156.941114 C58.42,157.221114 64.2,159.301114 64.79,159.711114 C65.38,160.121114 65.3,160.761114 64.66,160.761114 C63.73,160.761114 56.06,160.421114 56.06,160.421114 C55.9,160.591114 55.77,160.761114 55.77,160.761114 L54.02,160.761114 C53.5,159.871114 53.68,157.151114 54.85,156.091114 Z" id="Path" fill="#000000" fill-rule="nonzero"></path>
                    <path d="M36.23,156.091114 L36.23,155.091114 L39.08,155.091114 C39.1024514,155.736573 39.2134899,156.375886 39.41,156.991114 C38.68,157.241114 37.58,156.511114 36.23,156.091114 Z" id="Path" fill="#F7D3C9" fill-rule="nonzero"></path>
                    <path d="M36.23,156.091114 C37.58,156.491114 38.67,157.221114 39.41,156.941114 C39.8,157.221114 45.58,159.301114 46.17,159.711114 C46.76,160.121114 46.68,160.761114 46.04,160.761114 C45.11,160.761114 37.44,160.421114 37.44,160.421114 C37.3396802,160.528508 37.2461649,160.642063 37.16,160.761114 L35.4,160.761114 C34.88,159.871114 35.02,157.151114 36.23,156.091114 Z" id="Path" fill="#000000" fill-rule="nonzero"></path>
                    <path d="M39.89,67.1911141 C35.46,75.4211141 34.48,80.2411141 34.51,84.2611141 C34.56,88.9811141 38.26,98.4611141 38.26,98.4611141 C38.41,93.9011141 37.86,74.7511141 39.89,67.1911141 Z" id="Path" fill="#ED9F00" fill-rule="nonzero"></path>
                    <path d="M56.68,96.1911141 C56.44,91.7211141 56.56,80.6511141 56.5,78.7211141 C56.38,75.2911141 58.03,69.9611141 56.08,67.7911141 C54.8722908,66.20805 53.0614266,65.1975878 51.08,65.0011141 C47.89,64.7411141 39.47,63.1911141 38.46,70.6411141 C37.46,77.8111141 37.29,93.7011141 38,96.1911141 L56.68,96.1911141 Z" id="Path" fill="#FCBA06" fill-rule="nonzero"></path>
                    <path d="M38.06,96.1911141 C36.64,101.391114 35.46,148.761114 35.46,155.061114 L39.89,155.061114 C40.53,151.291114 45.51,120.521114 46.57,113.311114 C45.16,106.231114 38.06,96.1911141 38.06,96.1911141 Z" id="Path" fill="#000000" fill-rule="nonzero"></path>
                    <path d="M56.68,96.1911141 C57.39,101.861114 58.45,145.931114 58.45,155.061114 L53.81,155.061114 C53.18,149.151114 47.29,120.671114 43.32,113.311114 C40.48,108.061114 37.2,104.431114 38.06,96.1911141 L56.68,96.1911141 Z" id="Path" fill="#333333" fill-rule="nonzero"></path>
                    <path d="M44.42,59.0011141 C44.63,60.0011141 44.98,63.7111141 44.21,64.8911141 C44.87,65.3111141 47.21,65.6311141 50.61,64.9511141 C50.03,64.3511141 49.14,63.6811141 49.71,62.4811141 C50.28,61.2811141 51.71,62.7411141 52.52,60.6011141 C53.46,58.1111141 53.4,53.3611141 52.16,52.1511141 C50.2786964,50.029516 47.0704601,49.7402488 44.84,51.4911141 C42.19,53.3711141 43.99,56.9611141 44.42,59.0011141 Z" id="Path" fill="#F8D8D0" fill-rule="nonzero"></path>
                    <path d="M50.98,55.8711141 C51.75,55.8711141 51.47,54.4311141 51.47,53.6811141 C51.4951222,53.4134245 51.6269801,53.1671282 51.8358232,52.997796 C52.0446662,52.8284638 52.3128986,52.7503626 52.58,52.7811141 C54.78,52.7811141 55.9,49.8711141 54.41,48.7811141 C52.92,47.6911141 51.78,49.4511141 50.71,49.1911141 C49.46,48.8911141 49.55,47.3911141 47.71,47.7011141 C45.87,48.0111141 46.95,49.4711141 45.91,49.8411141 C44.87,50.2111141 43.12,48.9011141 41.91,50.7211141 C41.03,52.0811141 42.73,53.2211141 42.69,54.6411141 C42.69,55.5311141 41.78,59.2411141 44.24,59.9311141 C45.4009919,60.2012675 46.6207527,59.8874908 47.507261,59.0906294 C48.3937693,58.293768 48.8353191,57.1142318 48.69,55.9311141 C48.6,54.9311141 48.87,54.1711141 49.37,54.1911141 C50.19,54.2211141 49.87,55.9511141 50.98,55.8711141 Z" id="Path" fill="#000000" fill-rule="nonzero"></path>
                    <path d="M69.03,73.0011141 L66.42,71.5811141 C64.5484007,73.9768352 62.8251794,76.4848569 61.26,79.0911141 C60.3807559,76.356097 59.318353,73.6833854 58.08,71.0911141 C56.08,66.8811141 54.35,66.2311141 52.8,66.7611141 C51.25,67.2911141 51.95,71.4011141 52.41,73.4911141 C53.21,77.1511141 56.23,82.9011141 57.6,85.2911141 C58.81,87.4111141 61.21,89.2911141 62.04,87.2311141 C64.23,83.8911141 69.03,73.0011141 69.03,73.0011141 Z" id="Path" fill="#FFD03E" fill-rule="nonzero"></path>
                    <path d="M66.68,71.7111141 C67.01,71.0111141 67.13,69.1111141 67.6,68.0911141 C68.35,66.4511141 71.37,64.5611141 71.94,64.8211141 C72.51,65.0811141 69.94,66.5311141 69.78,67.0711141 C70.26,67.4211141 71.93,68.8211141 71.3,69.7611141 C70.9153919,70.5271205 70.3403213,71.1813925 69.63,71.6611141 C69.13,71.9011141 68.76,72.8411141 68.76,72.8411141 L66.68,71.7111141 Z" id="Path" fill="#F7D3C9" fill-rule="nonzero"></path>
                    <path d="M118.82,83.3611141 L113.87,83.3611141 C113.6614,83.3896999 113.455207,83.2944343 113.341766,83.1170583 C113.228325,82.9396823 113.228325,82.7125459 113.341766,82.53517 C113.455207,82.357794 113.6614,82.2625283 113.87,82.2911141 L118.82,82.2911141 C119.0286,82.2625283 119.234793,82.357794 119.348234,82.53517 C119.461675,82.7125459 119.461675,82.9396823 119.348234,83.1170583 C119.234793,83.2944343 119.0286,83.3896999 118.82,83.3611141 Z" id="Path" fill="#FFD03E" fill-rule="nonzero"></path>
                    <path d="M112.39,79.3611141 C112.232713,79.3581806 112.083913,79.2892245 111.98,79.1711141 C111.793884,78.9460261 111.820466,78.6137501 112.04,78.4211141 L115.81,75.1911141 C115.954693,75.0678575 116.154151,75.0311562 116.33324,75.0948353 C116.51233,75.1585145 116.643843,75.3128996 116.67824,75.4998353 C116.712637,75.6867711 116.644693,75.8778575 116.5,76.0011141 L112.73,79.2311141 C112.634707,79.3117821 112.514804,79.3576275 112.39,79.3611141 L112.39,79.3611141 Z" id="Path" fill="#FFD03E" fill-rule="nonzero"></path>
                    <path d="M116.15,90.5911277 C116.024358,90.5920393 115.902974,90.5456275 115.81,90.4611141 L112.04,87.2411141 C111.820466,87.0484782 111.793884,86.7162021 111.98,86.4911141 C112.071195,86.3832252 112.201688,86.3162081 112.342506,86.3049427 C112.483324,86.2936772 112.622812,86.3390958 112.73,86.4311141 L116.5,89.6511141 C116.719534,89.8437501 116.746116,90.1760261 116.56,90.4011141 C116.458533,90.5224553 116.308172,90.5921347 116.15,90.5911277 L116.15,90.5911277 Z" id="Path" fill="#FFD03E" fill-rule="nonzero"></path>
                    <rect id="Rectangle" fill="#FCBA06" fill-rule="nonzero" x="97.3" y="14.8411141" width="34.56" height="19.25"></rect>
                    <polygon id="Path" fill="#FFD03E" fill-rule="nonzero" points="97.29 14.8511141 114.58 24.4711141 131.86 14.8411141"></polygon>
                    <polygon id="Path" fill="#ED9F00" fill-rule="nonzero" points="97.29 14.8511141 114.58 29.3711141 131.86 14.8411141 114.58 24.4711141"></polygon>
                    <rect id="Rectangle" fill="#FCBA06" fill-rule="nonzero" x="9.77" y="50.3911141" width="25.86" height="14.4"></rect>
                    <polygon id="Path" fill="#FFD03E" fill-rule="nonzero" points="9.77 50.3911141 22.7 57.5911141 35.63 50.3911141"></polygon>
                    <polygon id="Path" fill="#ED9F00" fill-rule="nonzero" points="9.77 50.3911141 22.7 61.2611141 35.63 50.3911141 22.7 57.5911141"></polygon>
                    <rect id="Rectangle" fill="#FCBA06" fill-rule="nonzero" x="123.46" y="117.971114" width="19.51" height="10.86"></rect>
                    <polygon id="Path" fill="#FFD03E" fill-rule="nonzero" points="123.46 117.971114 133.21 123.411114 142.97 117.971114"></polygon>
                    <polygon id="Path" fill="#ED9F00" fill-rule="nonzero" points="123.46 117.971114 133.21 126.171114 142.97 117.971114 133.21 123.411114"></polygon>
                </g>
            </g>
        </g>
    </g>
</svg>