<?xml version="1.0" encoding="UTF-8"?>
<svg width="200px" height="200px" viewBox="0 0 200 200" version="1.1" xmlns="http://www.w3.org/2000/svg" xmlns:xlink="http://www.w3.org/1999/xlink">
    <title>A3696521-72A8-4C3A-839A-545A6E7965D5@1x</title>
    <defs>
        <linearGradient x1="0.09375%" y1="50.0294605%" x2="100%" y2="50.0294605%" id="linearGradient-1">
            <stop stop-color="#FFD03E" offset="0%"></stop>
            <stop stop-color="#FCBA06" offset="100%"></stop>
        </linearGradient>
    </defs>
    <g id="Icon-and-Graphic" stroke="none" stroke-width="1" fill="none" fill-rule="evenodd">
        <g id="Icon" transform="translate(-772.000000, -909.000000)">
            <g id="Group" transform="translate(772.000000, 909.000000)">
                <rect id="Rectangle-Copy-3" x="0" y="0" width="200" height="200"></rect>
                <g id="Graphic/Payment-Result/200px/Check-Notification-Copy-3" fill-rule="nonzero">
                    <g id="Graphic-03" transform="translate(5.000000, 29.000000)">
                        <path d="M176.560667,139.85 C176.560667,138.47 162.040667,137.35 144.140667,137.35 C126.240667,137.35 111.720667,138.47 111.720667,139.85 C111.720667,141.23 126.240667,142.36 144.140667,142.36 C162.040667,142.36 176.560667,141.24 176.560667,139.85 Z" id="Path" fill="#FFD03E" opacity="0.12"></path>
                        <path d="M133.360667,116.09 C133.360667,113.78 109.110667,111.91 79.2106673,111.91 C49.3106673,111.91 25.0506673,113.78 25.0506673,116.09 C25.0506673,118.4 49.3006673,120.28 79.2106673,120.28 C109.120667,120.28 133.360667,118.41 133.360667,116.09 Z" id="Path" fill="#FFD03E" opacity="0.12"></path>
                        <g id="Group" opacity="0.12" transform="translate(158.389315, 111.140000)" fill="#FFD03E">
                            <path d="M25.7013523,9.6 C27.5213523,7.36 30.1013523,8.23 31.5813523,8.87 C30.9713523,9.52 28.3613523,11.98 25.7013523,9.6 Z" id="Path"></path>
                            <path d="M16.9613523,10.7 C11.2811668,10.7624896 5.63137484,9.86312115 0.251352321,8.04 C0.0539890731,7.96094375 -0.0470443734,7.74130582 0.0213523215,7.54 C0.0548954018,7.44411988 0.126381736,7.36624685 0.219048452,7.32464138 C0.311715168,7.28303592 0.41741138,7.28135761 0.511352321,7.32 C6.03135232,9.32 15.6413523,10.92 26.0813523,9.19 C26.1811685,9.16969556 26.2849403,9.19143918 26.3682094,9.25010605 C26.4514785,9.30877292 26.5068786,9.39917313 26.5213523,9.5 C26.5514904,9.70913601 26.4095999,9.90423541 26.2013523,9.94 C23.1474232,10.4464379 20.0569883,10.7006296 16.9613523,10.7 Z" id="Path"></path>
                            <path d="M3.81135232,10.04 C8.08135232,14.04 5.97135232,17.73 4.47135232,20.63 C3.26135232,19.35 -1.33864768,15.11 3.81135232,10.04 Z" id="Path"></path>
                            <path d="M9.24135232,11.37 C13.3513523,13.6 12.4513523,16.92 11.8713523,19.47 C10.6613523,18.7 6.24135232,16.32 9.24135232,11.37 Z" id="Path"></path>
                            <path d="M15.3113523,11.59 C19.2013523,12.59 19.1113523,15.59 19.1413523,17.83 C17.9813523,17.42 13.8113523,16.33 15.3113523,11.59 Z" id="Path"></path>
                            <path d="M21.1813523,11.32 C23.6813523,11.27 24.1813523,13.05 24.5513523,14.39 C23.7913523,14.34 21.1113523,14.41 21.1813523,11.32 Z" id="Path"></path>
                            <path d="M5.01135232,7.28 C10.1013523,6.61 10.4913523,2.86 10.9013523,-2.84217094e-14 C9.36135232,0.32 3.89135232,1.04 5.01135232,7.28 Z" id="Path"></path>
                            <path d="M10.9413523,8.58 C15.3713523,8.7 16.2013523,5.58 16.9413523,3.17 C15.5813523,3.24 10.8213523,3.1 10.9413523,8.58 Z" id="Path"></path>
                            <path d="M18.1513523,9.04 C21.0813523,8.28 21.0313523,6.04 21.0613523,4.36 C20.1913523,4.68 17.0413523,5.49 18.1513523,9.04 Z" id="Path"></path>
                            <path d="M23.0313523,9.04 C24.7913523,8.92 25.0313523,7.64 25.2013523,6.67 C24.6613523,6.75 22.7813523,6.88 23.0313523,9.04 Z" id="Path"></path>
                        </g>
                        <path d="M38.9706673,44.61 C38.8762401,44.61 38.7873236,44.5655418 38.7306673,44.49 C35.8406673,40.18 28.4706673,24.18 25.8106673,14.74 C25.7859837,14.6684058 25.792502,14.5897363 25.8286321,14.5231809 C25.8647622,14.4566255 25.9271825,14.4083029 26.0006673,14.39 C26.154702,14.3507678 26.3126008,14.4384893 26.3606673,14.59 C28.9706673,23.94 36.3306673,39.86 39.2506673,44.18 C39.3315395,44.3106636 39.2964495,44.4817271 39.1706673,44.57 C39.1132641,44.6124071 39.0399653,44.6270668 38.9706673,44.61 L38.9706673,44.61 Z" id="Path" fill="#FCBA06"></path>
                        <path d="M25.3606673,14.69 C24.9475929,14.5892381 24.6238217,14.2687789 24.518818,13.8567624 C24.4138142,13.4447459 24.5447143,13.0084123 24.8591761,12.7222354 C25.1736378,12.4360586 25.6203417,12.3467419 26.0206673,12.49 C26.5967046,12.6961372 26.9105003,13.3172014 26.7346979,13.9032092 C26.5588956,14.489217 25.9550492,14.8349886 25.3606673,14.69 L25.3606673,14.69 Z" id="Path" fill="#FCBA06"></path>
                        <path d="M23.9706673,24.93 C23.5901794,24.815675 23.2995858,24.5070465 23.2083502,24.1203719 C23.1171146,23.7336972 23.2390979,23.3277215 23.5283502,23.0553719 C23.8176025,22.7830222 24.2301794,22.685675 24.6106673,22.8 C25.1787951,22.9945421 25.4859103,23.6087725 25.3006673,24.18 C25.1228445,24.7402853 24.5421241,25.0677592 23.9706673,24.93 L23.9706673,24.93 Z" id="Path" fill="#FCBA06"></path>
                        <path d="M34.8006673,28.49 C34.1346689,28.2904582 33.7561567,27.5891801 33.9548454,26.9229267 C34.153534,26.2566734 34.8543268,25.8772633 35.520834,26.0750985 C36.1873413,26.2729336 36.5676486,26.9732399 36.3706673,27.64 C36.2757501,27.9612842 36.0567923,28.2315415 35.7621865,28.3910414 C35.4675807,28.5505414 35.1215844,28.586151 34.8006673,28.49 L34.8006673,28.49 Z" id="Path" fill="#FCBA06"></path>
                        <path d="M29.4606673,36.5 C28.6898145,36.2710189 28.2492438,35.4618197 28.4752578,34.6900918 C28.7012717,33.9183639 29.5087701,33.4746834 30.2813618,33.6977269 C31.0539534,33.9207704 31.500737,34.726556 31.2806673,35.5 C31.1738987,35.8752423 30.9213891,36.1921443 30.5794662,36.3800141 C30.2375433,36.5678838 29.8346525,36.611092 29.4606673,36.5 Z" id="Path" fill="#FCBA06"></path>
                        <path d="M29.2106673,15.49 C28.7210841,15.3192427 28.4432269,14.8026019 28.5706673,14.3 C28.6720323,13.9002346 29.0084195,13.6037017 29.4177424,13.5532839 C29.8270654,13.5028662 30.2253562,13.7089062 30.4207007,14.0721249 C30.6160452,14.4353435 30.5683706,14.8812305 30.3006487,15.1949378 C30.0329268,15.508645 29.6000777,15.6258189 29.2106673,15.49 Z" id="Path" fill="#FCBA06"></path>
                        <path d="M27.7606673,20.11 C27.6135128,20.1103758 27.4911779,19.9967791 27.4806673,19.85 C27.6503212,18.4654918 28.0349465,17.1159292 28.6206673,15.85 C28.7006673,15.65 28.7706673,15.48 28.8106673,15.36 C28.8353426,15.2870072 28.8890065,15.2274085 28.9590207,15.1952398 C29.0290349,15.1630711 29.1092112,15.1611757 29.1806673,15.19 C29.2512028,15.2148556 29.3088635,15.2668958 29.340798,15.3345216 C29.3727324,15.4021474 29.3762862,15.4797381 29.3506673,15.55 L29.1506673,16.06 C28.6172058,17.2583925 28.2472275,18.5230459 28.0506673,19.82 C28.0561484,19.8959527 28.0304577,19.9708617 27.9795159,20.0274637 C27.928574,20.0840658 27.8567757,20.1174779 27.7806673,20.12 L27.7606673,20.11 Z" id="Path" fill="#FCBA06"></path>
                        <path d="M30.4506673,27.02 C30.3840888,27.0196579 30.3199844,26.9947283 30.2706673,26.95 C28.7437202,25.8648836 27.0567465,25.0247707 25.2706673,24.46 C25.1196053,24.4120753 25.0349932,24.2517576 25.0806673,24.1 C25.0989701,24.0265152 25.1472927,23.9640949 25.2138482,23.9279648 C25.2804036,23.8918347 25.359073,23.8853165 25.4306673,23.91 C27.3086158,24.4899129 29.081202,25.3677651 30.6806673,26.51 C30.7873339,26.622 30.7873339,26.798 30.6806673,26.91 C30.626109,26.9814684 30.5405485,27.0223887 30.4506673,27.02 Z" id="Path" fill="#FCBA06"></path>
                        <path d="M33.2206673,33.3700008 C33.0680008,33.3703635 32.9411956,33.2523034 32.9306673,33.1 C33.1400179,31.4056018 33.7020955,29.7738732 34.5806673,28.31 C34.6800785,28.1884974 34.8591646,28.1705887 34.9806673,28.27 C35.1021699,28.3694113 35.1200785,28.5484974 35.0206673,28.67 C34.2283099,30.0218538 33.7116934,31.5173227 33.5006673,33.07 C33.506433,33.2264988 33.3869066,33.3593058 33.2306673,33.3700008 L33.2206673,33.3700008 Z" id="Path" fill="#FCBA06"></path>
                        <path d="M35.9706673,39.03 C35.9014266,39.0278475 35.8347542,39.003284 35.7806673,38.96 C35.2506673,38.51 31.9406673,36.71 30.9806673,36.22 C30.8405059,36.1448876 30.7869754,35.9709134 30.8606673,35.83 C30.8947888,35.7633466 30.9541861,35.7131372 31.02559,35.6905886 C31.0969939,35.66804 31.1744545,35.6750311 31.2406673,35.71 C31.8406673,36.01 35.5006673,37.98 36.1506673,38.52 C36.2044182,38.5726649 36.2347081,38.6447487 36.2347081,38.72 C36.2347081,38.7952513 36.2044182,38.8673351 36.1506673,38.92 C36.1089055,38.9804534 36.0435148,39.0204143 35.9706673,39.03 Z" id="Path" fill="#FCBA06"></path>
                        <path d="M154.970667,109.55 C163.080667,107.77 165.420667,100.36 162.030667,91.18 C154.970667,94.25 149.410667,102.33 154.970667,109.55 Z" id="Path" fill="#666666"></path>
                        <path d="M154.720667,110.1 C162.650667,118.4 173.080667,115.82 181.460667,105.2 C172.810667,99.18 159.280667,98.39 154.720667,110.1 Z" id="Path" fill="#999999"></path>
                        <path d="M154.720667,110.38 C154.589693,110.384144 154.473362,110.296896 154.440667,110.17 C154.402818,110.015482 154.496516,109.859318 154.650667,109.82 C156.790667,109.3 160.440667,108.74 164.300667,108.14 C168.970667,107.42 174.300667,106.61 178.150667,105.68 C178.223647,105.662036 178.300785,105.674166 178.36473,105.713661 C178.428674,105.753156 178.474056,105.8167 178.490667,105.89 C178.511683,105.963126 178.500869,106.041725 178.460886,106.106459 C178.420904,106.171192 178.355464,106.216052 178.280667,106.23 C174.370667,107.17 169.070667,107.99 164.390667,108.71 C160.540667,109.3 156.900667,109.86 154.790667,110.38 L154.720667,110.38 Z" id="Path" fill="#666666"></path>
                        <path d="M39.4506673,88.18 C46.5506673,97.44 42.3406673,107.52 30.3706673,114.3 C25.6306673,104.66 26.9706673,90.94 39.4506673,88.18 Z" id="Path" fill="#666666"></path>
                        <path d="M31.7806673,77.92 C36.1906673,76.64 40.6606673,70.45 39.9306673,66 C39.2006673,61.55 34.9306673,61.09 35.2106673,58.57 C35.4906673,56.05 39.6906673,52.67 38.5606673,49.41 C36.5606673,43.61 27.7306673,48.57 25.8106673,44.41 C23.8906673,40.25 28.9706673,37.83 27.8106673,33.7 C26.6506673,29.57 19.5806673,34.09 16.2906673,30 C13.0006673,25.91 4.43066727,18.51 0.750667272,24 C-2.15933273,28.31 4.32066727,29.51 4.45066727,31.76 C4.59066727,34.31 1.37066727,34.88 2.14066727,37.67 C3.24066727,41.6 8.64066727,41.31 9.00066727,44.67 C9.36066727,48.03 5.09066727,49.4 7.90066727,52.89 C11.3806673,57.21 17.9006673,51.39 19.4006673,58.53 C20.9006673,65.67 11.6906673,63.7 11.9806673,68.23 C12.3006673,73.23 21.1206673,71.65 20.5406673,74.98 C19.7206673,79.53 24.9706673,79.92 31.7806673,77.92 Z" id="Path" fill="#FFD03E" opacity="0.12"></path>
                        <path d="M32.9706673,77.7700047 C32.8270238,77.7708266 32.7060555,77.6628192 32.6906673,77.52 C32.6569919,76.9750161 32.6871972,76.4279636 32.7806673,75.89 C32.9606673,74.47 33.1806673,72.71 32.2606673,71.56 C31.7001929,70.9026358 31.091867,70.287625 30.4406673,69.72 C29.2202443,68.7515191 28.2068558,67.5476952 27.4606673,66.18 C26.0406673,63.18 26.4106673,60.58 26.7306673,58.29 C27.0912705,56.8412904 27.0602095,55.3227521 26.6406673,53.89 C26.1906673,52.82 25.4306673,52.6 24.4606673,52.32 C23.2038796,52.0635816 22.0738043,51.3820049 21.2606673,50.39 C20.5276789,49.5670562 20.1439051,48.4910548 20.1906673,47.39 C20.2273107,46.1444293 19.766759,44.9354811 18.9106673,44.03 C18.191385,43.0729131 17.144753,42.4143181 15.9706673,42.18 C14.6688883,41.9099593 13.4979189,41.2045561 12.6506673,40.18 C10.9503176,38.2414271 9.99969259,35.7584514 9.97066727,33.18 C10.0044891,32.3758783 9.81036183,31.5785698 9.41066727,30.88 C8.94693021,30.2613988 8.16819114,29.965478 7.41066727,30.12 C7.25890971,30.1656741 7.09859193,30.0810619 7.05066727,29.93 C7.02900104,29.8583881 7.03689587,29.7810837 7.07259078,29.7153299 C7.1082857,29.6495761 7.16881138,29.6008427 7.24066727,29.58 C8.22495973,29.3419857 9.25747876,29.701803 9.88066727,30.5 C10.3873541,31.2800938 10.6325271,32.2012435 10.5806673,33.13 C10.6127319,35.5883944 11.51638,37.9555978 13.1306673,39.81 C13.9135271,40.7407293 14.988642,41.3787484 16.1806673,41.62 C17.4580685,41.8815755 18.6000148,42.590859 19.4006673,43.62 C20.3347047,44.621883 20.8375204,45.950753 20.8006673,47.32 C20.7461321,48.3026508 21.0842707,49.2667058 21.7406673,50 C22.479344,50.9069231 23.5126024,51.5261704 24.6606673,51.75 C25.7822858,51.8857519 26.7484309,52.6046551 27.2006673,53.64 C27.6629957,55.1665808 27.7113114,56.7886073 27.3406673,58.34 C27.0206673,60.55 26.6706673,63.06 28.0206673,65.9 C28.7178257,67.1945453 29.6703705,68.3341972 30.8206673,69.25 C31.4885491,69.8378902 32.1134803,70.472847 32.6906673,71.15 C33.7706673,72.49 33.5206673,74.47 33.3406673,75.92 C33.2532998,76.4047962 33.2230934,76.8981665 33.2506673,77.39 C33.2687483,77.5490889 33.1587106,77.6943387 33.0006673,77.72 L32.9706673,77.7700047 Z" id="Path" fill="#FCBA06"></path>
                        <path d="M40.2206673,77.59 C41.5906673,92.82 29.8606673,101.03 11.8706673,100.18 C13.3806673,86.18 24.4906673,71.92 40.2206673,77.59 Z" id="Path" fill="#999999"></path>
                        <path d="M15.4806673,97.83 C15.3862401,97.83 15.2973236,97.7855418 15.2406673,97.71 C15.1511798,97.5798516 15.1822996,97.4020237 15.3106673,97.31 C19.6506673,94.22 25.1106673,89.62 29.9206673,85.57 C33.9206673,82.22 37.6606673,79.05 40.0506673,77.36 C40.1334161,77.2824956 40.2537427,77.260321 40.3586833,77.3032369 C40.463624,77.3461527 40.5339316,77.4462878 40.5386591,77.5595661 C40.5433867,77.6728443 40.4816671,77.7784894 40.3806673,77.83 C38.0106673,79.5 34.2606673,82.66 30.2906673,86.01 C25.4706673,90.07 19.9706673,94.67 15.6406673,97.78 C15.5925266,97.8101605 15.5374152,97.8273829 15.4806673,97.83 L15.4806673,97.83 Z" id="Path" fill="#666666"></path>
                        <rect id="Rectangle" fill="#999999" x="77.4606673" y="11.65" width="3.49" height="11.86"></rect>
                        <rect id="Rectangle" fill="#999999" transform="translate(45.027926, 32.741728) rotate(-45.000000) translate(-45.027926, -32.741728) " x="40.0679262" y="30.931728" width="9.92" height="3.62"></rect>
                        <rect id="Rectangle" fill="#DBDBDA" transform="translate(41.807087, 29.518799) rotate(-45.000000) translate(-41.807087, -29.518799) " x="37.7870874" y="26.7587991" width="8.04" height="5.52"></rect>
                        <rect id="Rectangle" fill="#999999" transform="translate(113.381647, 32.751993) rotate(-135.000000) translate(-113.381647, -32.751993) " x="108.421647" y="30.9419926" width="9.92" height="3.62"></rect>
                        <rect id="Rectangle" fill="#DBDBDA" transform="translate(116.620808, 29.514922) rotate(-135.000000) translate(-116.620808, -29.514922) " x="112.600808" y="26.7549215" width="8.04" height="5.52"></rect>
                        <circle id="Oval" fill="#FCBA06" transform="translate(79.210310, 66.913303) rotate(-2.940000) translate(-79.210310, -66.913303) " cx="79.2103104" cy="66.9133028" r="48.14"></circle>
                        <path d="M119.650667,40.81 C130.308902,59.9116262 126.991174,83.7672791 111.525112,99.2356658 C96.0590488,114.704053 72.2038947,118.025364 53.1006673,107.37 C72.1569016,119.671976 97.2152898,117.00295 113.252767,100.963062 C129.290245,84.9231746 131.955506,59.8643858 119.650667,40.81 L119.650667,40.81 Z" id="Path" fill="#ED9F00"></path>
                        <path d="M38.3606673,66.92 C38.3442709,50.5767954 48.0727147,35.7975526 63.0906672,29.3507156 C78.1086197,22.9038786 95.5238325,26.0310184 107.360667,37.3 C97.1323481,26.5708986 81.8934928,22.2263856 67.545124,25.9488098 C53.1967551,29.671234 41.9919012,40.8760879 38.2694771,55.2244567 C34.5470529,69.5728256 38.8915659,84.8116808 49.6206673,95.04 C42.3900879,87.4639236 38.3573151,77.392736 38.3606673,66.92 Z" id="Path" fill="#ED9F00"></path>
                        <circle id="Oval" fill="#FFFFFF" cx="79.2106673" cy="66.92" r="40.85"></circle>
                        <path d="M40.8506673,69.41 C40.8479223,53.2096496 50.4211968,38.5392304 65.2510585,32.017991 C80.0809202,25.4967516 97.3633889,28.3577059 109.300667,39.31 C99.1404533,28.2999298 83.767446,23.7367338 69.2456637,27.4204048 C54.7238814,31.1040759 43.3847432,42.4432142 39.7010721,56.9649964 C36.0174011,71.4867787 40.5805971,86.8597861 51.5906673,97.02 C44.6701688,89.492125 40.8360668,79.6355556 40.8506673,69.41 L40.8506673,69.41 Z" id="Path" fill="#FFD983"></path>
                        <rect id="Rectangle" fill="#333333" x="78.9206673" y="28.24" width="1" height="3.57"></rect>
                        <rect id="Rectangle" fill="#333333" transform="translate(75.904897, 29.200247) rotate(-5.000000) translate(-75.904897, -29.200247) " x="75.6198971" y="28.3752473" width="1" height="1.65"></rect>
                        <rect id="Rectangle" fill="#333333" transform="translate(69.404973, 30.353465) rotate(-15.000000) translate(-69.404973, -30.353465) " x="69.1199731" y="29.5284651" width="1" height="1.65"></rect>
                        <rect id="Rectangle" fill="#333333" transform="translate(63.201906, 32.602599) rotate(-25.000000) translate(-63.201906, -32.602599) " x="62.9169058" y="31.7775987" width="1" height="1.65"></rect>
                        <rect id="Rectangle" fill="#333333" transform="translate(57.484692, 35.902485) rotate(-35.000000) translate(-57.484692, -35.902485) " x="57.1996922" y="35.0774851" width="1" height="1.65"></rect>
                        <rect id="Rectangle" fill="#333333" transform="translate(52.437249, 40.148799) rotate(-45.000000) translate(-52.437249, -40.148799) " x="52.1522487" y="39.3237991" width="1" height="1.65"></rect>
                        <rect id="Rectangle" fill="#333333" transform="translate(48.191267, 45.217820) rotate(-55.000000) translate(-48.191267, -45.217820) " x="47.9062674" y="44.3928197" width="1" height="1.65"></rect>
                        <rect id="Rectangle" fill="#333333" transform="translate(44.889172, 50.923340) rotate(-65.000000) translate(-44.889172, -50.923340) " x="44.6041723" y="50.0983401" width="1" height="1.65"></rect>
                        <rect id="Rectangle" fill="#333333" transform="translate(42.633772, 57.123348) rotate(-75.000000) translate(-42.633772, -57.123348) " x="42.3487722" y="56.2983483" width="1" height="1.65"></rect>
                        <rect id="Rectangle" fill="#333333" transform="translate(41.487936, 63.629116) rotate(-85.000000) translate(-41.487936, -63.629116) " x="41.2029355" y="62.8041163" width="1" height="1.65"></rect>
                        <rect id="Rectangle" fill="#333333" transform="translate(41.481004, 70.224054) rotate(-5.000000) translate(-41.481004, -70.224054) " x="40.6560042" y="69.9390545" width="1.65" height="1"></rect>
                        <rect id="Rectangle" fill="#333333" transform="translate(42.638578, 76.722032) rotate(-15.000000) translate(-42.638578, -76.722032) " x="41.8135779" y="76.4370316" width="1.65" height="1"></rect>
                        <rect id="Rectangle" fill="#333333" transform="translate(44.899566, 82.922285) rotate(-24.990000) translate(-44.899566, -82.922285) " x="44.0745664" y="82.6372853" width="1.65" height="1"></rect>
                        <rect id="Rectangle" fill="#333333" transform="translate(48.189455, 88.634898) rotate(-35.000000) translate(-48.189455, -88.634898) " x="47.3644552" y="88.3498975" width="1.65" height="1"></rect>
                        <rect id="Rectangle" fill="#333333" transform="translate(52.435746, 93.697296) rotate(-45.000000) translate(-52.435746, -93.697296) " x="51.6107457" y="93.4122961" width="1.65" height="1"></rect>
                        <rect id="Rectangle" fill="#333333" transform="translate(57.486910, 97.945629) rotate(-55.020000) translate(-57.486910, -97.945629) " x="56.66191" y="97.6606293" width="1.65" height="1"></rect>
                        <rect id="Rectangle" fill="#333333" transform="translate(63.199082, 101.227312) rotate(-64.990000) translate(-63.199082, -101.227312) " x="62.3740819" y="100.942312" width="1.65" height="1"></rect>
                        <rect id="Rectangle" fill="#333333" transform="translate(69.402339, 103.496953) rotate(-75.000000) translate(-69.402339, -103.496953) " x="68.5773386" y="103.211953" width="1.65" height="1"></rect>
                        <rect id="Rectangle" fill="#333333" transform="translate(75.909699, 104.650788) rotate(-85.010000) translate(-75.909699, -104.650788) " x="75.0846987" y="104.365788" width="1.65" height="1"></rect>
                        <rect id="Rectangle" fill="#333333" transform="translate(82.504811, 104.647947) rotate(-5.000000) translate(-82.504811, -104.647947) " x="82.2198114" y="103.822947" width="1" height="1.65"></rect>
                        <rect id="Rectangle" fill="#333333" transform="translate(89.007144, 103.498427) rotate(-15.000000) translate(-89.007144, -103.498427) " x="88.7221443" y="102.673427" width="1" height="1.65"></rect>
                        <rect id="Rectangle" fill="#333333" transform="translate(95.215451, 101.242331) rotate(-25.010000) translate(-95.215451, -101.242331) " x="94.9304506" y="100.417331" width="1" height="1.65"></rect>
                        <rect id="Rectangle" fill="#333333" transform="translate(100.925820, 97.954355) rotate(-34.990000) translate(-100.925820, -97.954355) " x="100.64082" y="97.1293554" width="1" height="1.65"></rect>
                        <rect id="Rectangle" fill="#333333" transform="translate(105.974243, 93.698799) rotate(-45.000000) translate(-105.974243, -93.698799) " x="105.689243" y="92.8737991" width="1" height="1.65"></rect>
                        <rect id="Rectangle" fill="#333333" transform="translate(110.229914, 88.643787) rotate(-55.000000) translate(-110.229914, -88.643787) " x="109.944914" y="87.8187872" width="1" height="1.65"></rect>
                        <rect id="Rectangle" fill="#333333" transform="translate(113.529539, 82.938158) rotate(-65.000000) translate(-113.529539, -82.938158) " x="113.244539" y="82.113158" width="1" height="1.65"></rect>
                        <rect id="Rectangle" fill="#333333" transform="translate(115.785943, 76.738387) rotate(-75.000000) translate(-115.785943, -76.738387) " x="115.500943" y="75.9133867" width="1" height="1.65"></rect>
                        <rect id="Rectangle" fill="#333333" transform="translate(116.927850, 70.221416) rotate(-85.000000) translate(-116.927850, -70.221416) " x="116.64285" y="69.3964161" width="1" height="1.65"></rect>
                        <rect id="Rectangle" fill="#333333" transform="translate(116.934484, 63.616749) rotate(-4.990000) translate(-116.934484, -63.616749) " x="116.109484" y="63.3317494" width="1.65" height="1"></rect>
                        <rect id="Rectangle" fill="#333333" transform="translate(115.783199, 57.117272) rotate(-15.000000) translate(-115.783199, -57.117272) " x="114.958199" y="56.8322722" width="1.65" height="1"></rect>
                        <rect id="Rectangle" fill="#333333" transform="translate(113.523547, 50.935371) rotate(-25.010000) translate(-113.523547, -50.935371) " x="112.698547" y="50.650371" width="1.65" height="1"></rect>
                        <rect id="Rectangle" fill="#333333" transform="translate(110.222933, 45.197955) rotate(-34.980000) translate(-110.222933, -45.197955) " x="109.397933" y="44.912955" width="1.65" height="1"></rect>
                        <rect id="Rectangle" fill="#333333" transform="translate(105.985746, 40.146160) rotate(-45.000000) translate(-105.985746, -40.146160) " x="105.160746" y="39.8611599" width="1.65" height="1"></rect>
                        <rect id="Rectangle" fill="#333333" transform="translate(100.923575, 35.901480) rotate(-55.000000) translate(-100.923575, -35.901480) " x="100.098575" y="35.61648" width="1.65" height="1"></rect>
                        <rect id="Rectangle" fill="#333333" transform="translate(95.203088, 32.602676) rotate(-64.990000) translate(-95.203088, -32.602676) " x="94.3780875" y="32.3176763" width="1.65" height="1"></rect>
                        <rect id="Rectangle" fill="#333333" transform="translate(88.997718, 30.352194) rotate(-75.000000) translate(-88.997718, -30.352194) " x="88.1727177" y="30.0671937" width="1.65" height="1"></rect>
                        <rect id="Rectangle" fill="#333333" transform="translate(82.504043, 29.205309) rotate(-85.000000) translate(-82.504043, -29.205309) " x="81.6790426" y="28.9203091" width="1.65" height="1"></rect>
                        <rect id="Rectangle" fill="#333333" transform="translate(72.798901, 30.588335) rotate(-10.000000) translate(-72.798901, -30.588335) " x="72.5139006" y="28.8033351" width="1" height="3.57"></rect>
                        <rect id="Rectangle" fill="#333333" transform="translate(66.582214, 32.238557) rotate(-20.000000) translate(-66.582214, -32.238557) " x="66.2972144" y="30.4535573" width="1" height="3.57"></rect>
                        <rect id="Rectangle" fill="#333333" transform="translate(60.754648, 34.966930) rotate(-30.000000) translate(-60.754648, -34.966930) " x="60.4696485" y="33.1819304" width="1" height="3.57"></rect>
                        <rect id="Rectangle" fill="#333333" transform="translate(55.489941, 38.660557) rotate(-40.000000) translate(-55.489941, -38.660557) " x="55.2049407" y="36.8755566" width="1" height="3.57"></rect>
                        <rect id="Rectangle" fill="#333333" transform="translate(50.938627, 43.205100) rotate(-50.000000) translate(-50.938627, -43.205100) " x="50.6536269" y="41.4201003" width="1" height="3.57"></rect>
                        <rect id="Rectangle" fill="#333333" transform="translate(47.247601, 48.476022) rotate(-60.000000) translate(-47.247601, -48.476022) " x="46.9626009" y="46.691022" width="1" height="3.57"></rect>
                        <rect id="Rectangle" fill="#333333" transform="translate(44.525448, 54.301139) rotate(-70.000000) translate(-44.525448, -54.301139) " x="44.2404479" y="52.5161395" width="1" height="3.57"></rect>
                        <rect id="Rectangle" fill="#333333" transform="translate(42.865347, 60.515493) rotate(-80.000000) translate(-42.865347, -60.515493) " x="42.5803474" y="58.7304926" width="1" height="3.57"></rect>
                        <rect id="Rectangle" fill="#333333" x="40.5206673" y="66.64" width="3.57" height="1"></rect>
                        <rect id="Rectangle" fill="#333333" transform="translate(42.861432, 73.324979) rotate(-10.010000) translate(-42.861432, -73.324979) " x="41.076432" y="73.0399791" width="3.57" height="1"></rect>
                        <rect id="Rectangle" fill="#333333" transform="translate(44.525332, 79.555577) rotate(-19.990000) translate(-44.525332, -79.555577) " x="42.7403321" y="79.2705775" width="3.57" height="1"></rect>
                        <rect id="Rectangle" fill="#333333" transform="translate(47.236945, 85.386137) rotate(-29.990000) translate(-47.236945, -85.386137) " x="45.451945" y="85.1011366" width="3.57" height="1"></rect>
                        <rect id="Rectangle" fill="#333333" transform="translate(50.942658, 90.641005) rotate(-40.010000) translate(-50.942658, -90.641005) " x="49.1576584" y="90.356005" width="3.57" height="1"></rect>
                        <rect id="Rectangle" fill="#333333" transform="translate(55.478120, 95.188329) rotate(-50.010000) translate(-55.478120, -95.188329) " x="53.6931196" y="94.9033291" width="3.57" height="1"></rect>
                        <rect id="Rectangle" fill="#333333" transform="translate(60.751479, 98.860977) rotate(-60.010000) translate(-60.751479, -98.860977) " x="58.9664791" y="98.5759768" width="3.57" height="1"></rect>
                        <rect id="Rectangle" fill="#333333" transform="translate(66.580490, 101.602806) rotate(-70.010000) translate(-66.580490, -101.602806) " x="64.7954903" y="101.317806" width="3.57" height="1"></rect>
                        <rect id="Rectangle" fill="#333333" transform="translate(72.802540, 103.268719) rotate(-79.990000) translate(-72.802540, -103.268719) " x="71.0175401" y="102.983719" width="3.57" height="1"></rect>
                        <rect id="Rectangle" fill="#333333" x="78.9206673" y="102.03" width="1" height="3.57"></rect>
                        <rect id="Rectangle" fill="#333333" transform="translate(85.613149, 103.258145) rotate(-10.000000) translate(-85.613149, -103.258145) " x="85.3281491" y="101.473145" width="1" height="3.57"></rect>
                        <rect id="Rectangle" fill="#333333" transform="translate(91.819153, 101.603652) rotate(-20.000000) translate(-91.819153, -101.603652) " x="91.534153" y="99.8186522" width="1" height="3.57"></rect>
                        <rect id="Rectangle" fill="#333333" transform="translate(97.655986, 98.874614) rotate(-30.000000) translate(-97.655986, -98.874614) " x="97.3709859" y="97.0896139" width="1" height="3.57"></rect>
                        <rect id="Rectangle" fill="#333333" transform="translate(102.927873, 95.181205) rotate(-40.000000) translate(-102.927873, -95.181205) " x="102.642873" y="93.3962048" width="1" height="3.57"></rect>
                        <rect id="Rectangle" fill="#333333" transform="translate(107.465326, 90.630364) rotate(-50.000000) translate(-107.465326, -90.630364) " x="107.180326" y="88.8453638" width="1" height="3.57"></rect>
                        <rect id="Rectangle" fill="#333333" transform="translate(111.163938, 85.369678) rotate(-60.000000) translate(-111.163938, -85.369678) " x="110.878938" y="83.5846782" width="1" height="3.57"></rect>
                        <rect id="Rectangle" fill="#333333" transform="translate(113.878363, 79.548862) rotate(-70.000000) translate(-113.878363, -79.548862) " x="113.593363" y="77.7638618" width="1" height="3.57"></rect>
                        <rect id="Rectangle" fill="#333333" transform="translate(115.541484, 73.324098) rotate(-80.000000) translate(-115.541484, -73.324098) " x="115.256484" y="71.5390983" width="1" height="3.57"></rect>
                        <rect id="Rectangle" fill="#333333" x="114.320667" y="66.64" width="3.57" height="1"></rect>
                        <rect id="Rectangle" fill="#333333" transform="translate(115.548421, 60.516738) rotate(-10.010000) translate(-115.548421, -60.516738) " x="113.763421" y="60.2317385" width="3.57" height="1"></rect>
                        <rect id="Rectangle" fill="#333333" transform="translate(113.878705, 54.298507) rotate(-19.990000) translate(-113.878705, -54.298507) " x="112.093705" y="54.0135067" width="3.57" height="1"></rect>
                        <rect id="Rectangle" fill="#333333" transform="translate(111.155783, 48.491240) rotate(-29.990000) translate(-111.155783, -48.491240) " x="109.370783" y="48.2062401" width="3.57" height="1"></rect>
                        <rect id="Rectangle" fill="#333333" transform="translate(107.474265, 43.200653) rotate(-39.990000) translate(-107.474265, -43.200653) " x="105.689265" y="42.9156535" width="3.57" height="1"></rect>
                        <rect id="Rectangle" fill="#333333" transform="translate(102.928514, 38.664899) rotate(-49.990000) translate(-102.928514, -38.664899) " x="101.143514" y="38.3798993" width="3.57" height="1"></rect>
                        <rect id="Rectangle" fill="#333333" transform="translate(97.652641, 34.956080) rotate(-60.010000) translate(-97.652641, -34.956080) " x="95.8676415" y="34.6710802" width="3.57" height="1"></rect>
                        <rect id="Rectangle" fill="#333333" transform="translate(91.823832, 32.253129) rotate(-69.980000) translate(-91.823832, -32.253129) " x="90.0388321" y="31.968129" width="3.57" height="1"></rect>
                        <rect id="Rectangle" fill="#333333" transform="translate(85.617290, 30.580630) rotate(-79.990000) translate(-85.617290, -30.580630) " x="83.8322896" y="30.2956302" width="3.57" height="1"></rect>
                        <path d="M111.180667,55.28 C106.288567,41.8276471 93.4949274,32.8800951 79.1806673,32.8999669 L79.1806673,66.9 L111.180667,55.28 Z" id="Path" fill="url(#linearGradient-1)"></path>
                        <rect id="Rectangle" fill="#DBDBDA" x="68.5606673" y="-7.10542736e-15" width="21.3" height="13.84" rx="1.45"></rect>
                        <rect id="Rectangle" fill="#999999" x="87.6106673" y="-7.10542736e-15" width="1" height="13.84"></rect>
                        <rect id="Rectangle" fill="#999999" x="85.6606673" y="-7.10542736e-15" width="1" height="13.84"></rect>
                        <rect id="Rectangle" fill="#999999" x="83.7206673" y="-7.10542736e-15" width="1" height="13.84"></rect>
                        <rect id="Rectangle" fill="#999999" x="81.7706673" y="-7.10542736e-15" width="1" height="13.84"></rect>
                        <rect id="Rectangle" fill="#999999" x="79.8306673" y="-7.10542736e-15" width="1" height="13.84"></rect>
                        <rect id="Rectangle" fill="#999999" x="77.8806673" y="-7.10542736e-15" width="1" height="13.84"></rect>
                        <rect id="Rectangle" fill="#999999" x="75.9306673" y="-7.10542736e-15" width="1" height="13.84"></rect>
                        <rect id="Rectangle" fill="#999999" x="73.9906673" y="-7.10542736e-15" width="1" height="13.84"></rect>
                        <rect id="Rectangle" fill="#999999" x="72.0406673" y="-7.10542736e-15" width="1" height="13.84"></rect>
                        <rect id="Rectangle" fill="#999999" x="70.0906673" y="-7.10542736e-15" width="1" height="13.84"></rect>
                        <path d="M111.320667,55.23 C109.430667,54.77 107.460667,55.38 104.510667,56.46 L78.8006673,65.81 L79.6106673,68.03 L105.320667,58.68 C108.270667,57.6 110.180667,56.8 111.320667,55.23 Z" id="Path" fill="#333333"></path>
                        <circle id="Oval" fill="#ED9F00" cx="79.2106673" cy="66.92" r="4.32"></circle>
                        <rect id="Rectangle" fill="#FCBA06" transform="translate(70.523301, 58.231728) rotate(-45.000000) translate(-70.523301, -58.231728) " x="70.238301" y="38.126728" width="1" height="40.21"></rect>
                        <circle id="Oval" fill="#DDE2F8" cx="79.2106673" cy="66.92" r="1.26"></circle>
                        <rect id="Rectangle" fill="#FFD03E" opacity="0.12" x="67.9606673" y="75.51" width="22.48" height="4.84"></rect>
                        <rect id="Rectangle" fill="#FFD03E" opacity="0.12" x="72.4906673" y="82.11" width="13.44" height="1.64"></rect>
                        <path d="M155.640667,44.24 L155.640667,44.24 C155.49959,44.1763885 155.427037,44.0184772 155.470667,43.87 C155.798957,42.8442647 156.046381,41.7943858 156.210667,40.73 L156.680667,37.98 C156.841929,36.8019997 157.119964,35.6429608 157.510667,34.52 C157.711371,33.98143 158.123091,33.5480406 158.650667,33.32 C159.734877,32.9333261 160.933865,33.4478009 161.400667,34.5 C161.604372,35.0210092 161.586309,35.6026351 161.350667,36.11 C160.783877,37.1730972 160.113991,38.1779253 159.350667,39.11 L157.670667,41.36 C157.044581,42.2261385 156.479868,43.1350248 155.980667,44.08 C155.918908,44.2064966 155.777503,44.2730403 155.640667,44.24 Z M155.300667,45 C156.084549,45.2909648 156.604697,46.038859 156.604697,46.875 C156.604697,47.711141 156.084549,48.4590352 155.300667,48.75 C154.805005,48.9583475 154.24633,48.9583475 153.750667,48.75 C153.256207,48.5400545 152.86699,48.1400254 152.670667,47.64 C152.455301,47.1457765 152.455301,46.5842235 152.670667,46.09 C152.876088,45.5936955 153.272507,45.2008794 153.770667,45 C154.259132,44.7903997 154.812203,44.7903997 155.300667,45 L155.300667,45 Z" id="Shape" fill="#FCBA06"></path>
                        <path d="M162.350667,54.41 C162.22893,54.4121065 162.119785,54.3353007 162.080667,54.22 C162.055048,54.1497381 162.058602,54.0721474 162.090537,54.0045216 C162.122471,53.9368958 162.180132,53.8848556 162.250667,53.86 L166.020667,52.44 C166.090827,52.4107144 166.169878,52.4112172 166.23966,52.4413928 C166.309441,52.4715684 166.363951,52.5288225 166.390667,52.6 C166.444671,52.7490682 166.36895,52.9138743 166.220667,52.97 L162.450667,54.39 L162.350667,54.41 Z" id="Path" fill="#FCBA06"></path>
                        <path d="M149.440667,36.91 L149.440667,36.91 C149.284428,36.8993058 149.164902,36.7664988 149.170667,36.61 L149.620667,28.22 C149.646457,28.0829198 149.766182,27.983619 149.905667,27.983619 C150.045152,27.983619 150.164877,28.0829198 150.190667,28.22 L149.740667,36.61 C149.743491,36.6903973 149.712791,36.7683551 149.655907,36.8252397 C149.599022,36.8821242 149.521065,36.9128236 149.440667,36.91 Z" id="Path" fill="#FCBA06"></path>
                        <path d="M162.740667,47.36 C162.599294,47.3582256 162.458506,47.3414652 162.320667,47.31 C162.166028,47.2823857 162.063053,47.1346397 162.090667,46.98 C162.118282,46.8253603 162.266028,46.7223858 162.420667,46.75 C162.846262,46.8382441 163.289465,46.7517654 163.650667,46.51 C163.996675,46.2737236 164.242579,45.9173411 164.340667,45.51 C164.448593,44.9341218 164.783785,44.4259282 165.270667,44.1 C165.752533,43.7693116 166.34868,43.6500823 166.920667,43.77 C167.804294,43.9410646 168.659337,43.3635747 168.830667,42.48 C169.067214,41.285518 170.225405,40.5074285 171.420667,40.74 C171.551225,40.7911296 171.626504,40.9283435 171.599479,41.0659273 C171.572453,41.203511 171.450865,41.3020546 171.310667,41.3 C170.884552,41.2120741 170.44098,41.2992492 170.079831,41.5418956 C169.718683,41.7845419 169.47032,42.1622611 169.390667,42.59 C169.279388,43.1629269 168.945013,43.6681577 168.461138,43.9944916 C167.977264,44.3208256 167.383548,44.4415163 166.810667,44.33 C166.388282,44.241085 165.947899,44.3277178 165.590667,44.57 C165.24185,44.8034402 164.995107,45.1610391 164.900667,45.57 C164.700188,46.6057328 163.795614,47.3553565 162.740667,47.36 L162.740667,47.36 Z" id="Path" fill="#ED9F00"></path>
                        <path d="M144.290667,49.04 C144.25454,49.0488972 144.216794,49.0488972 144.180667,49.04 C144.040215,48.9761944 143.974297,48.8135985 144.030667,48.67 L144.940667,46.54 L142.810667,45.63 C142.74165,45.5983586 142.687795,45.5409126 142.660667,45.47 C142.630651,45.3997382 142.630651,45.3202618 142.660667,45.25 L143.570667,43.13 L141.440667,42.18 C141.37165,42.1483586 141.317795,42.0909126 141.290667,42.02 C141.260651,41.9497382 141.260651,41.8702618 141.290667,41.8 L142.200667,39.67 L140.080667,38.76 C140.009755,38.7328724 139.952309,38.6790169 139.920667,38.61 C139.895503,38.5388254 139.895503,38.4611746 139.920667,38.39 L140.920667,36 C140.981419,35.856406 141.147073,35.7892487 141.290667,35.85 C141.434261,35.9107513 141.501419,36.076406 141.440667,36.22 L140.530667,38.35 L142.660667,39.26 C142.729684,39.2916414 142.78354,39.3490874 142.810667,39.42 C142.840683,39.4902618 142.840683,39.5697382 142.810667,39.64 L141.970667,41.78 L144.100667,42.69 C144.169684,42.7216414 144.22354,42.7790874 144.250667,42.85 C144.280683,42.9202618 144.280683,42.9997382 144.250667,43.07 L143.300667,45.18 L145.430667,46.09 C145.498405,46.1183913 145.552276,46.1722618 145.580667,46.24 C145.610683,46.3102618 145.610683,46.3897382 145.580667,46.46 L144.580667,48.85 C144.536666,48.9705055 144.418718,49.0477818 144.290667,49.04 Z" id="Path" fill="#ED9F00"></path>
                        <path d="M179.880667,54.11 C179.360667,52.87 176.570667,55.6 176.020667,56.27 C176.140667,55.77 176.020667,54.14 175.760667,54.15 C175.500667,54.16 175.100667,56.8 174.890667,57.22 C174.680667,57.64 174.570667,58.06 174.420667,58.44 C174.110667,59.2 175.420667,59.5 175.490667,60.28 C175.490667,60.28 177.070667,59.18 177.490667,58.8 C178.120667,58.18 180.580667,55.79 179.880667,54.11 Z" id="Path" fill="#F8D8D0"></path>
                        <path d="M134.910667,38.78 C133.660667,38.31 133.740667,42.21 133.850667,43.07 C133.570667,42.64 132.340667,41.58 132.130667,41.82 C131.920667,42.06 133.610667,44.11 133.780667,44.55 C133.950667,44.99 134.170667,45.36 134.340667,45.73 C134.690667,46.47 135.790667,45.73 136.420667,46.2 C136.420667,46.2 136.690667,44.3 136.700667,43.74 C136.700667,42.86 136.620667,39.42 134.910667,38.78 Z" id="Path" fill="#F8D8D0"></path>
                        <path d="M174.160667,58.49 C174.160667,58.49 166.160667,67.06 164.860667,67.38 C162.940667,67.99 156.660667,67.9 152.610667,67.27 L151.310667,75.36 C151.310667,75.36 164.620667,73.29 167.480667,71.78 C171.570667,68.1 174.790667,62.7 176.180667,60.11 C175.605372,59.4579942 174.922044,58.9099789 174.160667,58.49 Z" id="Path" fill="#ED9F00"></path>
                        <path d="M154.110667,67.76 C151.419154,66.7944323 148.543555,66.4525061 145.700667,66.76 L145.700667,66.76 C143.600667,66.22 139.060667,61.07 138.410667,59.29 C137.760667,57.51 136.730667,48.53 136.790667,45.92 L133.870667,45.57 C133.870667,45.57 132.790667,57.66 133.770667,61.21 C134.520667,63.93 138.130667,68.72 140.090667,72.62 C138.463226,77.5326098 137.324378,82.5937843 136.690667,87.73 C139.490667,89.29 149.400667,90.27 149.400667,90.27 C150.250667,88.28 159.470667,71.46 154.110667,67.76 Z" id="Path" fill="#FCBA06"></path>
                        <path d="M140.100667,76.79 C140.900667,73.17 142.540667,73.17 141.490667,71.37 C140.440667,69.57 137.880667,68.63 135.670667,65.15 C137.180667,67.68 138.990667,70.44 140.090667,72.64 C138.542438,77.2600332 137.444006,82.0187888 136.810667,86.85 C138.087751,83.55838 139.186019,80.20015 140.100667,76.79 L140.100667,76.79 Z" id="Path" fill="#ED9F00"></path>
                        <path d="M136.690667,87.75 C134.340667,93.06 131.690667,104.51 131.370667,111.39 L131.370667,111.39 C122.670667,111.56 115.450667,114.86 110.780667,117.04 C110.780667,117.76 110.780667,119.4 110.780667,119.4 C113.980667,119.33 124.780667,119.55 132.530667,118.58 C134.350667,118.35 136.070667,117.92 137.240667,115.9 C140.500667,110.25 143.240667,106.02 146.580667,96.75 C146.570667,96.75 139.800667,88.49 136.690667,87.75 Z" id="Path" fill="#000000"></path>
                        <path d="M109.970667,117.03 L110.830667,117.03 L110.830667,119.39 C110.294316,119.401082 109.762288,119.488631 109.250667,119.65 C108.970667,119.04 109.580667,118.18 109.970667,117.03 Z" id="Path" fill="#FCCCC0"></path>
                        <path d="M109.970667,117.03 C109.630667,118.15 108.970667,119.03 109.240667,119.66 C109.010667,119.98 107.240667,124.75 106.920667,125.24 C106.600667,125.73 106.050667,125.66 106.050667,125.13 C106.050667,124.36 106.380667,118.01 106.380667,118.01 C106.291767,117.92809 106.198283,117.8513 106.100667,117.78 L106.100667,116.32 C107.425944,115.862001 108.894278,116.131385 109.970667,117.03 Z" id="Path" fill="#000000"></path>
                        <path d="M159.450667,135.62 C159.320667,135.16 159.090667,134.04 159.090667,134.04 L161.270667,134.04 C161.323048,134.659764 161.436942,135.272781 161.610667,135.87 C161.080667,136.18 160.610667,135.65 159.450667,135.62 Z" id="Path" fill="#FCCCC0"></path>
                        <path d="M159.200667,134.56 C160.200667,135.13 160.960667,135.92 161.610667,135.83 C161.880667,136.13 166.160667,138.83 166.610667,139.29 C167.060667,139.75 166.830667,140.23 166.320667,140.11 C165.560667,139.95 159.430667,138.28 159.430667,138.28 C159.270667,138.39 159.140667,138.5 159.140667,138.5 L157.730667,138.18 C157.557936,136.799822 158.114593,135.429006 159.200667,134.56 Z" id="Path" fill="#000000"></path>
                        <path d="M159.500667,110.42 C157.500667,106.29 153.060667,98.66 149.400667,90.29 C149.400667,90.29 139.400667,88.86 136.690667,87.75 C134.990667,90.75 136.230667,95.93 137.960667,99.54 C140.280667,104.36 144.680667,108.04 153.140667,114.75 C153.510667,121.51 156.720667,129.4 159.140667,134.04 L161.320667,134.04 C161.090667,130.8 160.160667,121.18 159.500667,110.42 Z" id="Path" fill="#333333"></path>
                        <path d="M160.470667,134.01 C160.380667,133.29 160.220667,131.94 160.030667,130.21 C159.030667,121.44 157.890667,112.01 157.340667,111.27 C157.270667,111.17 157.090667,110.95 156.840667,110.63 C146.840667,97.84 144.910667,91.5 144.840667,89.57 L144.330667,89.49 C144.400667,91.49 146.480667,97.82 156.620667,110.79 C156.880667,111.11 157.050667,111.33 157.120667,111.43 C157.680667,112.18 159.120667,124.38 159.760667,130.24 C159.950667,131.95 160.110667,133.29 160.200667,134.02 L160.470667,134.01 Z" id="Path" fill="#666666"></path>
                        <path d="M146.970667,62.56 C147.205792,63.9503331 147.123749,65.3758226 146.730667,66.73 C147.420667,67.2 151.730667,68.9 151.730667,67.07 C151.058443,66.8210088 150.682906,66.1044656 150.860667,65.41 C151.280667,64.41 152.380667,65.69 153.080667,64.09 C153.890667,62.22 154.020667,58.59 153.080667,57.61 C151.722812,55.9153774 149.277343,55.5773144 147.510667,56.84 C145.470667,58.18 146.710667,60.99 146.970667,62.56 Z" id="Path" fill="#F8D8D0"></path>
                        <path d="M149.050667,60.57 C149.650667,60.57 149.280667,59.47 149.510667,58.91 C149.740667,58.35 151.870667,57.67 152.330667,57.7 C154.010667,57.81 154.970667,55.6 153.870667,54.7 C152.770667,53.8 151.870667,55.12 151.030667,54.88 C150.190667,54.64 150.210667,53.46 148.830667,53.63 C147.450667,53.8 148.180667,54.95 147.380667,55.19 C146.580667,55.43 145.280667,54.37 144.310667,55.72 C143.580667,56.72 145.150667,57.8 145.070667,58.89 C145.070667,59.57 144.510667,62.41 146.360667,63.02 C148.210667,63.63 147.420667,62.41 147.360667,60.5 C147.360667,59.73 147.560667,59.16 147.940667,59.19 C148.520667,59.27 148.200667,60.59 149.050667,60.57 Z" id="Path" fill="#000000"></path>
                        <path d="M146.230667,66.73 C145.970667,66.44 146.630667,64.89 147.050667,65.19 C148.389359,65.6660419 149.821328,65.8202012 151.230667,65.64 C151.530667,65.64 151.540667,66.44 151.740667,67.07 C151.815318,67.2918335 151.783591,67.5356902 151.654662,67.7310367 C151.525734,67.9263831 151.313987,68.0514269 151.080667,68.07 C150.790667,68.0900125 147.630667,68.3 146.230667,66.73 Z" id="Path" fill="#ED9F00"></path>
                    </g>
                </g>
            </g>
        </g>
    </g>
</svg>