<?xml version="1.0" encoding="utf-8"?>
<!-- Generator: Adobe Illustrator 24.3.0, SVG Export Plug-In . SVG Version: 6.00 Build 0)  -->
<svg version="1.1" id="Layer_1" xmlns="http://www.w3.org/2000/svg" xmlns:xlink="http://www.w3.org/1999/xlink" x="0px" y="0px"
	 viewBox="0 0 659.31 660.09" style="enable-background:new 0 0 659.31 660.09;" xml:space="preserve">
<style type="text/css">
	.st0{fill:#6F5F60;}
	.st1{fill:#FED403;}
</style>
<g>
	<path class="st0" d="M110.92,0.11c137.19-0.18,274.39-0.02,411.59-0.08c14.7,0.17,29.56-0.81,44.08,2.09
		c21.1,3.95,41.03,13.99,56.64,28.76c23.08,21.61,35.82,53.14,36.06,84.59c-0.01,141.69-0.01,283.38,0,425.08
		c0.53,27.37-8.02,55.09-25.11,76.63c-11.32,14.28-26.11,25.86-42.87,33.08c-14.68,6.53-30.76,9.6-46.79,9.79
		c-134.99,0-269.99,0-404.98,0c-17.04-0.18-34.37,1.05-51.08-3.09c-31.76-7-59.88-28.66-74.66-57.63
		C3.73,580.45-0.29,558.84,0.02,537.57c0.03-133.01,0-266.02,0.01-399.03c0.08-15.01-0.61-30.18,2.39-44.99
		C7.71,64.81,24.07,38.01,48.1,21.18C66.29,8.04,88.55,0.89,110.92,0.11z M257.3,83.3c-15.69,4.36-30.62,10.96-45.28,17.95
		c-1.56,4.58-0.79,9.5-0.91,14.25c0.42,50.56,8.27,101.64,27.92,148.49c8.72,20.42,19.52,40.15,33.94,57.13
		c0.51,0.03,1.53,0.09,2.04,0.12c14.28-29.41,23.78-60.9,30.7-92.78c7.51-34.9,12.26-70.39,14.68-105.98
		c1.05-7.28,0.48-14.68,1.36-21.98c0.19-9.11,0.54-18.23,0.26-27.33C300.13,73.65,278.3,77.09,257.3,83.3z M335.1,74.09
		c-0.32,17.17,0.73,34.32,1.94,51.42c2.07,29.18,5.78,58.24,11.18,87c7.34,37.3,17.06,74.57,34.09,108.73
		c0.46-0.02,1.38-0.06,1.84-0.08c3.76-4.32,7.1-8.98,10.52-13.56c21.94-32.39,35.3-69.91,43.08-108.05
		c6.55-32.01,8.82-64.72,8.27-97.36c-28.43-15.62-60.32-24.57-92.5-27.96c-4.33-0.22-8.66-0.44-12.96-1.04
		C338.77,73.31,336.34,72.36,335.1,74.09z M82.92,267.9c-4.92,20.15-6.62,40.94-6.75,61.62c0.73,8.65,0.89,17.35,1.97,25.98
		c4.52-0.5,8.33-3.17,12.34-5.08c11.53-6.31,22.6-13.7,32.12-22.81c32.39-29.41,51.53-70.54,62.6-112.25
		c8.04-30.6,12.44-62.18,13.15-93.81c-0.02-3.88,1.7-8.32-0.59-11.8C140.26,144.09,97.84,202.61,82.92,267.9z M458.34,115.54
		c1.03,7.96,0.31,16.03,1.29,24c2.15,30.07,7.24,60,16.07,88.86c10.68,34.04,26.87,67.22,52.21,92.8
		c13.51,13.99,29.69,25.38,47.39,33.43c1.19,0.38,2.44,0.54,3.69,0.77c7.49-58.57-7.01-119.57-39.58-168.81
		c-20.68-31.03-47.97-57.95-80.17-76.9C458.67,111.59,457.99,113.53,458.34,115.54z M203.42,284.96
		c-5.84,19.91-14.74,38.91-26.15,56.24c-20.73,31.02-50.22,56.98-85.38,70.24c0.67,4.62,2.98,8.75,4.7,13.03
		c10.53,25.14,25.62,48.2,43.48,68.73c0.87-0.11,1.74-0.26,2.61-0.45c21.59-12.19,40.49-28.63,57.34-46.71
		c20.53-22.52,38.06-47.81,52.07-74.88c0.71-1.25,1.55-3.2,0.25-4.35c-21.98-22.84-37.57-51.48-46.64-81.73
		C204.93,285.03,204.18,284.99,203.42,284.96z M327.34,285c-2.9,17.46-6.84,34.74-11.27,51.87c-11.29,42.24-26.4,83.6-46.82,122.31
		c-16.58,31.35-37,60.94-62.39,85.81c0.05,0.41,0.15,1.22,0.2,1.63c30.6,16.78,64.68,27.14,99.44,30.18
		c10.65,0.49,21.34,1.99,31.99,0.59c39.02-1.03,77.43-12.27,111.72-30.72c0-0.79-0.15-1.53-0.47-2.19
		c-15.41-15.51-29.43-32.5-41.34-50.86c-23.16-34.95-40.44-73.5-54.05-113.06c-10.65-31.16-18.82-63.15-24.58-95.56
		C328.96,284.99,328.15,284.99,327.34,285z M450.25,289.33c-7.31,22.67-18.42,44.16-32.9,63.09c-4.18,5.61-9.16,10.53-13.53,15.98
		c7.83,15.9,17.1,31.09,27.39,45.51c21.46,30.01,47.62,57.24,79.31,76.5c1.97,1.32,4.01,2.72,6.48,2.84
		c19.63-22.08,35.43-47.56,46.22-75.07c0.97-2.19,1.84-4.44,1.98-6.85c-22.55-8.13-42.42-22.33-59.61-38.84
		c-24.43-24.12-42.07-54.77-51.88-87.6C450.99,284.31,450.96,287.54,450.25,289.33z"/>
</g>
<g>
	<path class="st1" d="M257.3,83.3c21-6.21,42.83-9.65,64.71-10.13c0.28,9.1-0.07,18.22-0.26,27.33c-0.88,7.3-0.31,14.7-1.36,21.98
		c-2.42,35.59-7.17,71.08-14.68,105.98c-6.92,31.88-16.42,63.37-30.7,92.78c-0.51-0.03-1.53-0.09-2.04-0.12
		c-14.42-16.98-25.22-36.71-33.94-57.13c-19.65-46.85-27.5-97.93-27.92-148.49c0.12-4.75-0.65-9.67,0.91-14.25
		C226.68,94.26,241.61,87.66,257.3,83.3z"/>
	<path class="st1" d="M335.1,74.09c1.24-1.73,3.67-0.78,5.46-0.9c4.3,0.6,8.63,0.82,12.96,1.04c32.18,3.39,64.07,12.34,92.5,27.96
		c0.55,32.64-1.72,65.35-8.27,97.36c-7.78,38.14-21.14,75.66-43.08,108.05c-3.42,4.58-6.76,9.24-10.52,13.56
		c-0.46,0.02-1.38,0.06-1.84,0.08c-17.03-34.16-26.75-71.43-34.09-108.73c-5.4-28.76-9.11-57.82-11.18-87
		C335.83,108.41,334.78,91.26,335.1,74.09z"/>
	<path class="st1" d="M82.92,267.9c14.92-65.29,57.34-123.81,114.84-158.15c2.29,3.48,0.57,7.92,0.59,11.8
		c-0.71,31.63-5.11,63.21-13.15,93.81c-11.07,41.71-30.21,82.84-62.6,112.25c-9.52,9.11-20.59,16.5-32.12,22.81
		c-4.01,1.91-7.82,4.58-12.34,5.08c-1.08-8.63-1.24-17.33-1.97-25.98C76.3,308.84,78,288.05,82.92,267.9z"/>
	<path class="st1" d="M458.34,115.54c-0.35-2.01,0.33-3.95,0.9-5.85c32.2,18.95,59.49,45.87,80.17,76.9
		c32.57,49.24,47.07,110.24,39.58,168.81c-1.25-0.23-2.5-0.39-3.69-0.77c-17.7-8.05-33.88-19.44-47.39-33.43
		c-25.34-25.58-41.53-58.76-52.21-92.8c-8.83-28.86-13.92-58.79-16.07-88.86C458.65,131.57,459.37,123.5,458.34,115.54z"/>
	<path class="st1" d="M203.42,284.96c0.76,0.03,1.51,0.07,2.28,0.12c9.07,30.25,24.66,58.89,46.64,81.73
		c1.3,1.15,0.46,3.1-0.25,4.35c-14.01,27.07-31.54,52.36-52.07,74.88c-16.85,18.08-35.75,34.52-57.34,46.71
		c-0.87,0.19-1.74,0.34-2.61,0.45c-17.86-20.53-32.95-43.59-43.48-68.73c-1.72-4.28-4.03-8.41-4.7-13.03
		c35.16-13.26,64.65-39.22,85.38-70.24C188.68,323.87,197.58,304.87,203.42,284.96z"/>
	<path class="st1" d="M327.34,285c0.81-0.01,1.62-0.01,2.43,0c5.76,32.41,13.93,64.4,24.58,95.56
		c13.61,39.56,30.89,78.11,54.05,113.06c11.91,18.36,25.93,35.35,41.34,50.86c0.32,0.66,0.47,1.4,0.47,2.19
		c-34.29,18.45-72.7,29.69-111.72,30.72c-10.65,1.4-21.34-0.1-31.99-0.59c-34.76-3.04-68.84-13.4-99.44-30.18
		c-0.05-0.41-0.15-1.22-0.2-1.63c25.39-24.87,45.81-54.46,62.39-85.81c20.42-38.71,35.53-80.07,46.82-122.31
		C320.5,319.74,324.44,302.46,327.34,285z"/>
	<path class="st1" d="M450.25,289.33c0.71-1.79,0.74-5.02,3.46-4.44c9.81,32.83,27.45,63.48,51.88,87.6
		c17.19,16.51,37.06,30.71,59.61,38.84c-0.14,2.41-1.01,4.66-1.98,6.85c-10.79,27.51-26.59,52.99-46.22,75.07
		c-2.47-0.12-4.51-1.52-6.48-2.84c-31.69-19.26-57.85-46.49-79.31-76.5c-10.29-14.42-19.56-29.61-27.39-45.51
		c4.37-5.45,9.35-10.37,13.53-15.98C431.83,333.49,442.94,312,450.25,289.33z"/>
</g>
</svg>
