<?xml version="1.0" encoding="UTF-8"?>
<svg width="240px" height="112px" viewBox="0 0 240 112" version="1.1" xmlns="http://www.w3.org/2000/svg" xmlns:xlink="http://www.w3.org/1999/xlink">
    <title>944E5271-BF4D-4A8E-916D-DD5EBE3885A0@1x</title>
    <g id="Branding" stroke="none" stroke-width="1" fill="none" fill-rule="evenodd">
        <g id="DOTCOM---Design-System_Branding" transform="translate(-524.000000, -1076.000000)">
            <g id="Logo/Krungsri/Horizontal/THA" transform="translate(524.000000, 1076.000000)">
                <g id="Logo_Krungsri_Horizontal_THA" transform="translate(0.000000, 0.098165)">
                    <polygon id="Fill-1" fill="#6E5E5E" points="0 94.3764706 239.725294 94.3764706 239.725294 1.11413101e-13 0 1.11413101e-13"></polygon>
                    <path d="M36.9448312,52.8831059 L36.9448312,52.8831059 C36.9283764,52.8725647 36.9191617,52.8607059 36.9191617,52.8607059 L36.9191617,52.8593882 C34.8247955,50.7010824 32.2953645,47.1605647 30.6893765,42.0540235 C30.6893765,42.0540235 30.6242155,41.8537412 30.5254868,41.8537412 C30.4247834,41.8537412 30.3583061,42.0652235 30.3583061,42.0652235 C26.902141,53.3126588 18.527967,57.7616941 15.645087,58.7308235 L15.645087,58.7360941 C15.4884373,58.7920941 15.4884373,58.9126588 15.5068667,58.9936941 C16.9687107,62.9584941 19.1631221,66.5780706 21.918971,69.6791529 C21.9683354,69.7226353 22.0690388,69.7621647 22.2151573,69.6949647 C31.1975006,64.5660235 36.2951959,54.5723294 36.9711589,53.1756235 C37.0481673,53.0267294 36.9823481,52.9272471 36.9448312,52.8831059" id="Fill-2" fill="#FFD300"></path>
                    <path d="M57.2890126,52.8831059 L57.2890126,52.8831059 C57.3028346,52.8725647 57.3127075,52.8607059 57.3127075,52.8607059 L57.3127075,52.8593882 C59.4090483,50.7010824 61.9417703,47.1605647 63.5438091,42.0540235 C63.5438091,42.0540235 63.6116028,41.8537412 63.708357,41.8537412 C63.8024785,41.8537412 63.8709304,42.0652235 63.8709304,42.0652235 C67.3317028,53.3126588 75.7111424,57.7616941 78.5841495,58.7308235 L78.5841495,58.7360941 C78.7401409,58.7920941 78.7440901,58.9126588 78.7256607,58.9936941 C77.261184,62.9584941 75.0667726,66.5780706 72.31224,69.6791529 C72.264192,69.7226353 72.1654632,69.7621647 72.0193447,69.6949647 C63.0363432,64.5660235 57.9386479,54.5723294 57.2554448,53.1756235 C57.1843601,53.0267294 57.2508375,52.9272471 57.2890126,52.8831059" id="Fill-4" fill="#FFD300"></path>
                    <path d="M63.3586597,76.6612329 L63.3586597,76.6612329 C50.6627985,64.2937976 47.3343227,42.2370447 47.3343227,42.2370447 C47.3343227,42.2370447 47.2869328,41.8536094 47.1197521,41.8536094 C46.9486223,41.8536094 46.8985997,42.2370447 46.8985997,42.2370447 C46.8985997,42.2370447 43.574073,64.2937976 30.872288,76.6612329 L30.8768954,76.6612329 C30.8768954,76.6612329 30.7511807,76.7686212 30.8880846,76.8575624 C35.6422039,79.4803388 41.095981,80.9883859 46.8985997,81.0213271 C46.971659,81.0285741 47.0420855,81.0331859 47.1197521,81.0331859 C47.1908368,81.0331859 47.2625797,81.0285741 47.3343227,81.0213271 C53.1395742,80.9883859 58.5940094,79.4803388 63.3468123,76.8575624 C63.4823998,76.7673035 63.3586597,76.6612329 63.3586597,76.6612329" id="Fill-6" fill="#FFD300"></path>
                    <path d="M64.6943283,18.50464 C64.5047691,18.4044988 64.4962126,18.6568282 64.4962126,18.6568282 C64.5179329,22.6446871 65.0471191,44.6019576 80.3889113,51.3166871 C80.5291062,51.3647812 80.5725468,51.2494871 80.5784706,51.2284047 C80.7291965,49.93184 80.8213433,48.6174871 80.8213433,47.2827106 C80.8213433,35.0984282 74.3592164,24.4327341 64.6943283,18.50464" id="Fill-8" fill="#FFD300"></path>
                    <path d="M29.5395813,18.50464 C29.7265078,18.4044988 29.7344061,18.6568282 29.7344061,18.6568282 C29.7186095,22.6446871 29.1867905,44.6019576 13.8417073,51.3166871 C13.7048034,51.3647812 13.6659701,51.2494871 13.6554391,51.2284047 C13.5033968,49.93184 13.4151991,48.6174871 13.4151991,47.2827106 C13.4151991,35.0984282 19.8727186,24.4327341 29.5395813,18.50464" id="Fill-10" fill="#FFD300"></path>
                    <path d="M62.6734821,17.3497882 C58.2965068,15.0636706 53.358752,13.7209882 48.110989,13.5666764 C47.9701359,13.5608941 47.9839579,13.7361412 47.9839579,13.7361412 C47.9839579,20.4311059 49.0574687,36.0992471 54.2933844,46.7003765 C54.3348504,46.8018353 54.4289719,46.7642824 54.463856,46.7432 C54.4750453,46.7326588 54.4882091,46.7267294 54.4915001,46.7135529 C55.0147625,46.1594824 63.1059141,37.2541647 62.7893239,17.5790588 C62.7814256,17.4426824 62.7169228,17.3774588 62.6734821,17.3497882" id="Fill-12" fill="#FFD300"></path>
                    <path d="M31.5604275,17.3497882 C35.9347701,15.0636706 40.8784486,13.7209882 46.116997,13.5666764 C46.2637737,13.5608941 46.2499517,13.7361412 46.2499517,13.7361412 C46.2499517,20.4311059 45.1757827,36.0992471 39.9418417,46.7003765 C39.8957682,46.8018353 39.802305,46.7642824 39.77137,46.7432 C39.757548,46.7326588 39.754257,46.7267294 39.7417514,46.7135529 C39.2191471,46.1594824 31.1200972,37.2541647 31.4380039,17.5790588 C31.4518259,17.4426824 31.5202778,17.3774588 31.5604275,17.3497882" id="Fill-14" fill="#FFD300"></path>
                    <path d="M116.928626,29.1931294 L120.711254,29.1931294 C120.711254,29.1931294 121.341143,29.3492706 121.341143,29.8611765 L121.341143,31.7118118 L121.420784,31.7118118 C122.462044,29.6167529 124.4873,28.7550118 127.047666,28.7550118 L127.047666,32.1216 L127.047666,33.2172235 C126.739632,33.2172235 126.453319,33.2475294 126.172271,33.2725647 C123.529631,33.5360941 121.341143,35.0250353 121.341143,38.6090353 L121.341143,46.0807529 C121.341143,46.0807529 121.431974,47.4464941 120.149816,47.4464941 L116.928626,47.4464941 L116.928626,29.1931294 Z" id="Fill-16" fill="#FEFEFE"></path>
                    <path d="M209.135897,29.1931294 L212.906019,29.1931294 C212.906019,29.1931294 213.5392,29.3492706 213.5392,29.8611765 L213.5392,31.7118118 L213.605677,31.7118118 C214.651544,29.6167529 216.688648,28.7550118 219.227293,28.7550118 L219.227293,32.1216 L219.227293,33.2172235 C218.935714,33.2172235 218.646768,33.2475294 218.366378,33.2719059 C215.730978,33.5360941 213.5392,35.0250353 213.5392,38.6090353 L213.5392,46.0807529 C213.5392,46.0807529 213.638587,47.4464941 212.339974,47.4464941 L209.135897,47.4464941 L209.135897,29.1931294 Z" id="Fill-18" fill="#FEFEFE"></path>
                    <path d="M146.021492,30.0546071 L146.021492,46.7109835 C146.021492,46.7109835 146.012936,47.4488659 145.360668,47.4488659 L141.614898,47.4488659 L141.614898,45.6423718 L141.541839,45.6423718 C140.559158,46.9198306 138.802445,47.8863247 136.308556,47.8863247 C133.212422,47.8863247 129.641073,46.6003012 129.641073,41.2882071 L129.641073,29.1928659 L133.401323,29.1928659 C133.401323,29.1928659 134.042402,29.2943247 134.042402,30.0546071 L134.042402,40.0226071 C134.042402,42.5333835 135.042853,43.6362541 137.291236,43.6362541 C140.617079,43.6362541 141.614898,41.2117835 141.614898,39.0126306 L141.614898,29.1928659 L145.294848,29.1928659 C145.294848,29.1928659 146.021492,29.2943247 146.021492,30.0546071" id="Fill-20" fill="#FEFEFE"></path>
                    <path d="M150.343443,29.1931294 L153.981927,29.1931294 C153.981927,29.1931294 154.742138,29.2952471 154.742138,29.9995294 L154.742138,30.9904 L154.827703,30.9904 C156.111835,29.4039529 158.035072,28.7550118 159.794418,28.7550118 C164.119397,28.7550118 166.068961,30.9482353 166.068961,34.9584941 L166.068961,46.7580235 C166.068961,46.7580235 166.108452,47.4464941 165.429856,47.4464941 L161.674872,47.4464941 L161.674872,36.3005176 C161.674872,34.6310588 160.919926,33.0077176 158.63995,33.0077176 C156.515307,33.0077176 154.742138,34.4485647 154.742138,37.8138353 L154.742138,46.7112471 C154.742138,46.7112471 154.753327,47.4464941 154.081314,47.4464941 L150.343443,47.4464941 L150.343443,29.1931294 Z" id="Fill-22" fill="#FEFEFE"></path>
                    <path d="M186.781203,30.0140894 L186.781203,47.0743247 C186.781203,51.8086306 182.879442,54.1619482 177.985786,54.1619482 C172.209495,54.1619482 169.861067,50.1299482 169.861067,47.8405365 L174.48618,47.8405365 C174.80672,49.1087718 176.028324,50.1299482 178.222735,50.1299482 C181.075338,50.1299482 182.381191,48.6811953 182.381191,46.4359247 L182.381191,44.4851482 C180.968053,46.0076894 178.759161,46.5176188 177.178843,46.5176188 C172.625472,46.5176188 169.24829,43.1325835 169.24829,37.6340424 C169.24829,32.1506541 172.625472,28.7550776 177.178843,28.7550776 C179.809635,28.7550776 181.228697,29.6517365 182.302208,30.9483012 L182.381191,30.9483012 L182.381191,29.1931953 L186.028231,29.1931953 C186.028231,29.1931953 186.781203,29.1931953 186.781203,30.0140894 M178.185876,32.8075012 C174.871881,32.8075012 173.898415,35.6878776 173.860898,37.6340424 C173.898415,39.58416 174.871881,42.4678306 178.185876,42.4678306 C181.513036,42.4678306 182.481894,39.58416 182.516778,37.6340424 C182.481894,35.6878776 181.513036,32.8075012 178.185876,32.8075012" id="Fill-24" fill="#FEFEFE"></path>
                    <path d="M205.385388,32.5972706 L203.305502,34.5592471 L202.875045,34.9584941 C202.775658,34.7845647 202.68746,34.6040471 202.561087,34.4294588 C201.871961,33.3713882 200.493707,32.368 198.27955,32.368 C196.223359,32.3245176 194.935278,33.0432941 194.935278,34.1217882 C194.935278,37.3131294 206.437179,34.6040471 206.437179,41.5025882 C206.437179,45.8982588 202.503167,47.8865882 198.321674,47.8865882 C194.350803,47.8865882 191.521237,46.6565647 189.86391,44.9739294 C189.506512,44.6023529 189.936969,44.2208941 189.936969,44.2208941 L192.804053,42.0046118 C193.80582,43.4928941 195.709311,44.2821647 198.060372,44.2821647 C200.160662,44.2821647 201.61395,43.1325176 201.61395,42.1502118 C201.61395,39.0385882 190.307531,41.6106353 190.307531,34.6659765 C190.307531,30.5516235 193.87888,28.7550118 198.398683,28.7550118 C202.071393,28.7550118 204.279626,30.3467294 205.401843,31.4726588 C206.013303,32.0563765 205.385388,32.5972706 205.385388,32.5972706" id="Fill-26" fill="#FEFEFE"></path>
                    <path d="M226.252766,22.3604706 C226.252766,21.8044235 225.520857,21.7517176 225.520857,21.7517176 L221.836958,21.7517176 L221.836958,25.5854118 C221.836958,25.5854118 221.752051,26.2099765 222.481986,26.2099765 L226.252766,26.2099765 L226.252766,22.3604706 Z M221.836958,29.1931294 L225.570222,29.1931294 C225.570222,29.1931294 226.234337,29.2511059 226.234337,29.9224471 L226.234337,46.7112471 C226.234337,46.7112471 226.344913,47.4464941 225.553767,47.4464941 L221.836958,47.4464941 L221.836958,29.1931294 Z" id="Fill-28" fill="#FEFEFE"></path>
                    <path d="M114.599943,29.1931294 L109.875442,29.1931294 C108.967138,29.1931294 108.24181,29.8453647 108.24181,29.8453647 L101.974508,36.0442353 L101.974508,26.1658353 C101.974508,25.3640471 101.299862,24.8271059 101.299862,24.8271059 L97.5698889,21.7517176 L97.5698889,47.4464941 L101.21693,47.4464941 C102.045593,47.4464941 101.974508,46.4905412 101.974508,46.4905412 L101.974508,41.6290824 C101.974508,41.4360471 102.135765,41.2384 102.367449,41.2384 C102.679432,41.2384 103.066448,41.6653176 103.066448,41.6653176 L108.151638,46.7112471 C108.151638,46.7112471 109.040855,47.4464941 110.089355,47.4464941 L114.599943,47.4464941 L105.39908,38.3099294 L114.599943,29.1931294 Z" id="Fill-30" fill="#FEFEFE"></path>
                    <path d="M114.830047,63.3239435 C114.239649,63.46032 113.692691,63.6876141 113.20563,63.9728847 C112.727782,64.2647435 112.336816,64.6165553 112.017593,65.0737788 C111.69837,65.5606494 111.543037,66.1153788 111.543037,66.7834259 C111.543037,66.7834259 111.543037,67.8335906 111.923472,68.5042729 C112.191356,68.9970729 112.669203,69.4826259 113.117432,69.8192847 C113.566319,70.1638494 114.053381,70.4596612 114.593098,70.7113318 C115.119651,70.9610259 115.606713,71.2054494 116.064815,71.4729318 C116.498563,71.7542494 116.880314,72.0270024 117.175184,72.3458729 C117.483218,72.6746259 117.633944,73.0942965 117.633944,73.6048847 C117.633944,73.9646024 117.434512,74.2900612 117.054077,74.5825788 C116.682199,74.8724612 115.228253,75.2104376 113.641352,74.6675671 C113.272107,74.53712 111.717458,73.7597082 111.717458,73.7597082 L111.717458,76.1321318 C112.188065,76.3706259 112.571133,76.5702494 112.998957,76.6894965 C113.409669,76.8265318 114.357465,77.1197082 115.502061,77.1197082 C117.085012,77.1197082 118.205254,76.7178259 118.943745,75.9779671 C119.672364,75.2209788 120.054115,74.2900612 120.054115,73.1305318 C120.054115,72.6186259 119.944855,72.1561318 119.73555,71.7634729 C119.538093,71.3734494 119.268234,71.0229553 118.943745,70.6974965 C118.624522,70.3753318 118.261859,70.0762259 117.853122,69.8390494 C117.443068,69.6130729 117.054077,69.3752376 116.664427,69.1644141 C116.310978,68.9792847 115.987148,68.8172141 115.673191,68.6630494 C115.364499,68.5246965 115.078843,68.3520847 114.830047,68.1669553 C114.569403,67.99632 114.37392,67.7657318 114.22451,67.5213082 C114.065228,67.2933553 113.993485,66.98832 113.993485,66.6338729 C113.993485,66.2998494 114.065228,66.0231435 114.22451,65.7958494 C114.37392,65.5784376 114.569403,65.4137318 114.803061,65.2938259 C115.062389,65.1758965 115.519174,65.0737788 115.806803,65.0500612 C117.795201,64.8392376 119.425542,65.7774024 119.425542,65.7774024 L119.425542,63.7982965 C117.822187,63.2218259 116.189871,63.0610729 114.830047,63.3239435" id="Fill-32" fill="#FEFEFE"></path>
                    <path d="M106.830779,64.5573271 C105.944195,63.6165271 104.612673,63.1520565 102.846086,63.1520565 C101.049222,63.1520565 99.7051946,63.6165271 98.8186103,64.5573271 C97.9208367,65.4651859 97.4805064,66.8065506 97.4805064,68.5425506 L97.4805064,76.7626918 L99.0970254,76.7626918 L99.0970254,76.79168 L99.3010649,76.79168 C99.6841325,76.79168 99.8618443,76.54528 99.8618443,76.2264094 L99.8618443,76.2165271 L99.8651352,76.2165271 L99.8651352,69.1282447 C99.8651352,68.5425506 99.8842228,67.9963859 99.9322708,67.5213741 C99.980977,67.0121035 100.113274,66.6016565 100.306124,66.2254682 C100.495025,65.8710212 100.795818,65.5785035 101.178228,65.3894212 C101.572485,65.1753035 102.117468,65.0738447 102.846086,65.0738447 C103.504278,65.0738447 104.044653,65.1753035 104.429037,65.3610918 C104.812105,65.5389741 105.118164,65.80448 105.299167,66.1417976 C105.50913,66.4718682 105.632212,66.8651859 105.691449,67.3197741 C105.746737,67.7657976 105.778988,68.2671624 105.778988,68.81728 L105.778988,76.7626918 L107.394191,76.7626918 L107.469225,76.7626918 L107.58375,76.7626918 C107.977349,76.7626918 108.168225,76.54528 108.168225,76.2165271 L108.168225,75.9991153 L108.168225,68.5425506 C108.168225,66.8065506 107.716705,65.4651859 106.830779,64.5573271" id="Fill-34" fill="#FEFEFE"></path>
                    <path d="M150.089578,63.3239435 C149.476801,63.46032 148.934451,63.6876141 148.449364,63.9728847 C147.964935,64.2647435 147.566071,64.6165553 147.254746,65.0737788 C146.944079,65.5606494 146.786113,66.1153788 146.786113,66.7834259 C146.786113,66.7834259 146.786113,67.8335906 147.166548,68.5042729 C147.43904,68.9970729 147.918862,69.4826259 148.363799,69.8192847 C148.815977,70.1638494 149.314228,70.4596612 149.830909,70.7113318 C150.360095,70.9610259 150.85308,71.2054494 151.305258,71.4729318 C151.755461,71.7542494 152.126682,72.0270024 152.430108,72.3458729 C152.729585,72.6746259 152.881628,73.0942965 152.881628,73.6048847 C152.881628,73.9646024 152.694043,74.2900612 152.309001,74.5825788 C151.9233,74.8724612 150.473304,75.2104376 148.89496,74.6675671 C148.511234,74.53712 146.959876,73.7597082 146.959876,73.7597082 L146.959876,76.1321318 C147.43904,76.3706259 147.81026,76.5702494 148.245983,76.6894965 C148.663935,76.8265318 149.594618,77.1197082 150.750403,77.1197082 C152.337303,77.1197082 153.443723,76.7178259 154.186822,75.9779671 C154.932553,75.2209788 155.295875,74.2900612 155.295875,73.1305318 C155.295875,72.6186259 155.186615,72.1561318 154.989816,71.7634729 C154.781169,71.3734494 154.521841,71.0229553 154.186822,70.6974965 C153.85641,70.3753318 153.499011,70.0762259 153.090274,69.8390494 C152.696676,69.6130729 152.301761,69.3752376 151.896314,69.1644141 C151.565902,68.9792847 151.229566,68.8172141 150.921532,68.6630494 C150.615473,68.5246965 150.32916,68.3520847 150.07444,68.1669553 C149.818403,67.99632 149.610414,67.7657318 149.472852,67.5213082 C149.314228,67.2933553 149.241827,66.98832 149.241827,66.6338729 C149.241827,66.2998494 149.314228,66.0231435 149.472852,65.7958494 C149.610414,65.5784376 149.815112,65.4137318 150.050745,65.2938259 C150.304807,65.1758965 150.768174,65.0737788 151.070284,65.0500612 C153.036303,64.8392376 154.659404,65.7774024 154.659404,65.7774024 L154.659404,63.7982965 C153.071187,63.2218259 151.430315,63.0610729 150.089578,63.3239435" id="Fill-36" fill="#FEFEFE"></path>
                    <path d="M118.860155,78.4511247 C119.196491,78.4511247 119.39329,78.7060894 119.39329,79.0256188 L119.39329,81.7538071 C119.39329,82.2202541 118.87661,82.4732424 118.87661,82.4732424 L117.344339,83.3040188 L117.344339,78.4511247 L118.860155,78.4511247 Z" id="Fill-38" fill="#FEFEFE"></path>
                    <path d="M128.614755,63.76272 C129.079438,63.76272 129.272947,64.0157082 129.272947,64.5256376 L129.272947,76.0313318 C129.272947,76.6446965 128.666752,76.7626259 128.666752,76.7626259 L125.704231,76.7626259 L122.148021,67.8335906 L124.047562,67.8335906 C124.691932,67.8335906 124.843974,68.3342965 124.843974,68.3342965 L126.860674,73.5673318 L126.860674,63.76272 L128.614755,63.76272 Z" id="Fill-40" fill="#FEFEFE"></path>
                    <path d="M139.991731,64.7188047 L141.101443,63.2970635 C141.101443,63.2970635 141.423957,62.8477459 142.018962,62.8477459 L143.823724,62.8477459 L143.823724,62.8773929 L141.51742,65.8684518" id="Fill-42" fill="#FEFEFE"></path>
                    <path d="M154.808089,59.7750588 C154.808089,60.3857882 154.681716,60.6275765 154.08342,60.6275765 L146.423384,60.6275765 L146.423384,60.5985882 L147.560739,59.1346824 C147.560739,59.1346824 147.832573,58.6899765 148.625035,58.6899765 L152.76572,58.6899765 L152.76572,57.1845647 C152.76572,56.5619765 153.173141,56.3472 153.173141,56.3472 L154.808089,55.4775529 L154.808089,59.7750588 Z" id="Fill-44" fill="#FEFEFE"></path>
                    <path d="M142.112228,64.5573271 C141.223011,63.6165271 139.891489,63.1520565 138.115029,63.1520565 C136.325406,63.1520565 134.978745,63.6165271 134.083604,64.5573271 C133.212817,65.4651859 132.759981,66.8065506 132.759981,68.5425506 L132.759981,76.7626918 L134.383082,76.7626918 L134.374525,76.79168 L134.56935,76.79168 C134.976113,76.79168 135.15909,76.54528 135.15909,76.2264094 L135.15909,76.2165271 L135.15909,71.0717741 L137.277151,71.0717741 C137.745784,71.0717741 137.866891,70.9610918 138.012351,70.7496094 C138.038021,70.7423624 139.013461,69.1282447 139.013461,69.1282447 L135.15909,69.1282447 C135.15909,68.5425506 135.177519,67.9963859 135.216353,67.5213741 C135.262426,67.0121035 135.395381,66.6016565 135.581649,66.2254682 C135.782397,65.8710212 136.077926,65.5785035 136.463626,65.3894212 C136.853934,65.1753035 137.408789,65.0738447 138.115029,65.0738447 C138.790334,65.0738447 139.314913,65.1753035 139.707195,65.3610918 C140.108692,65.5389741 140.39698,65.80448 140.594438,66.1417976 C140.780048,66.4718682 140.912344,66.8651859 140.972898,67.3197741 C141.028844,67.7657976 141.065703,68.2671624 141.065703,68.81728 L141.065703,76.7626918 L142.678931,76.7626918 L142.751332,76.7626918 L142.871781,76.7626918 C143.251558,76.7626918 143.433219,76.54528 143.433219,76.2165271 L143.433219,75.9991153 L143.433219,68.5425506 C143.433219,66.8065506 142.996838,65.4651859 142.112228,64.5573271" id="Fill-46" fill="#FEFEFE"></path>
                    <path d="M36.1143906,104.919887 C36.1143906,103.670758 35.1014335,102.654852 33.8535019,102.654852 C32.6062284,102.654852 31.5945877,103.670758 31.5945877,104.919887 C31.5945877,106.16704 32.6062284,107.182946 33.8535019,107.182946 C35.1014335,107.182946 36.1143906,106.16704 36.1143906,104.919887 M36.0696336,99.4812988 C35.2791453,99.4812988 34.5327558,99.6440282 33.8535019,99.9530165 C33.1755643,99.6440282 32.4265421,99.4812988 31.636712,99.4812988 C28.6360156,99.4812988 26.203997,101.914334 26.203997,104.919887 C26.203997,107.923464 28.6360156,110.359134 31.636712,110.359134 C32.4265421,110.359134 33.1755643,110.191793 33.8535019,109.886758 C34.5327558,110.191793 35.2791453,110.359134 36.0696336,110.359134 C39.0716463,110.359134 41.5023486,107.923464 41.5023486,104.919887 C41.5023486,101.914334 39.0716463,99.4812988 36.0696336,99.4812988 M33.8535019,109.837346 C31.139119,109.837346 28.942733,107.630946 28.942733,104.919887 C28.942733,102.206193 31.139119,99.9991341 33.8535019,99.9991341 C36.565252,99.9991341 38.7649289,102.206193 38.7649289,104.919887 C38.7649289,107.630946 36.565252,109.837346 33.8535019,109.837346" id="Fill-48" fill="#D92128"></path>
                    <path d="M69.4700363,108.635454 C67.2354752,108.635454 65.6985973,107.06416 65.6985973,104.944066 L65.6985973,104.922325 C65.6985973,102.882607 67.2894469,101.201948 69.4608216,101.201948 C70.7568012,101.201948 71.5367584,101.55376 72.2851225,102.194136 L71.2873038,103.39056 C70.7370554,102.933995 70.2401206,102.661901 69.410799,102.661901 C68.2602798,102.661901 67.3473678,103.679125 67.3473678,104.903878 L67.3473678,104.922325 C67.3473678,106.23536 68.2497487,107.201854 69.5266407,107.201854 C70.0959766,107.201854 70.6113408,107.056913 71.013496,106.770325 L71.013496,105.780113 L69.4213301,105.780113 L69.4213301,104.380113 L72.5378681,104.380113 L72.5378681,107.498984 C71.8026679,108.126842 70.7877362,108.635454 69.4700363,108.635454 L69.4700363,108.635454 Z M61.414427,102.760725 L61.414427,104.380113 L64.5513691,104.380113 L64.5513691,105.780113 L61.414427,105.780113 L61.414427,108.518842 L59.832134,108.518842 L59.832134,101.32976 L65.3721342,101.32976 L65.3721342,102.760725 L61.414427,102.760725 Z M55.5578366,108.624254 C53.630651,108.624254 52.4590697,107.553007 52.4590697,105.436207 L52.4590697,101.32976 L54.0360972,101.32976 L54.0360972,105.394042 C54.0360972,106.566748 54.6192551,107.170889 55.5775823,107.170889 C56.5392005,107.170889 57.1217003,106.588489 57.1217003,105.446748 L57.1217003,101.32976 L58.7020187,101.32976 L58.7020187,105.385478 C58.7020187,107.559595 57.4863385,108.624254 55.5578366,108.624254 L55.5578366,108.624254 Z M49.7644325,108.518842 L49.7644325,103.822748 L47.7437838,106.890231 L47.6977103,106.890231 L45.7099712,103.859642 L45.7099712,108.518842 L44.1579549,108.518842 L44.1579549,101.32976 L45.8574061,101.32976 L47.7437838,104.372207 L49.6295032,101.32976 L51.3342199,101.32976 L51.3342199,108.518842 L49.7644325,108.518842 Z" id="Fill-50" fill="#58585B"></path>
                    <polygon id="Fill-52" fill="#6E5E5E" points="2.7497278 108.35104 2.7497278 103.029064 3.7508375 103.029064 3.7508375 107.507746 4.39389087 107.507746 4.39389087 107.541346 4.07730062 108.35104"></polygon>
                    <path d="M9.04368671,108.35104 L9.04368671,105.310569 C9.04368671,104.366475 8.55135925,103.839416 7.64963652,103.839416 C6.75581208,103.839416 6.26348462,104.366475 6.26348462,105.310569 L6.26348462,106.086005 L6.2891541,106.086005 C6.43922183,105.785581 6.83940243,105.444311 7.36595586,105.444311 L7.94187367,105.444311 L7.94187367,106.34624 L7.37385416,106.34624 C6.77358325,106.34624 6.41486873,106.588028 6.32272188,107.206664 L6.15554117,108.35104 L5.26303312,108.35104 L5.26303312,105.159699 C5.26303312,103.723464 6.2977106,102.929581 7.64963652,102.929581 C9.00946073,102.929581 10.0447964,103.723464 10.0447964,105.159699 L10.0447964,108.35104 L9.04368671,108.35104 Z" id="Fill-54" fill="#6E5E5E"></path>
                    <path d="M14.9288427,104.424518 C14.470083,104.024612 13.9685409,103.805882 13.3840666,103.805882 C12.6409681,103.805882 12.2414457,104.039765 12.2414457,104.466024 C12.2414457,104.925224 12.9002956,105.084 13.5933716,105.234871 C14.5530152,105.444376 15.6041475,105.811341 15.6041475,106.904988 C15.6041475,107.950541 14.4365152,108.451247 13.4847699,108.451247 C12.5080133,108.451247 11.6405166,108.142259 10.9974632,107.465647 L11.6069488,106.746212 C12.0736068,107.264706 12.8252618,107.590824 13.4512021,107.590824 C14.0356764,107.590824 14.6194926,107.347718 14.6194926,106.904988 C14.6194926,106.454353 13.9942104,106.245506 13.2675666,106.103859 C12.3836151,105.927953 11.240336,105.593929 11.240336,104.492376 C11.240336,103.5384 12.1828666,102.928988 13.36827,102.928988 C14.202199,102.928988 14.9782071,103.271576 15.4869893,103.705741 L14.9288427,104.424518 Z" id="Fill-56" fill="#6E5E5E"></path>
                    <polygon id="Fill-58" fill="#6E5E5E" points="10.9661991 102.185506 10.9661991 102.101835 11.5421169 101.383718 13.3027799 101.383718 13.3027799 100.940329 14.0037541 100.589835 14.078788 100.589835 14.078788 101.417318 14.4881833 101.417318 14.4881833 100.940329 15.1891575 100.589835 15.2641914 100.589835 15.2641914 102.185506"></polygon>
                    <path d="M17.4504412,106.187398 L17.4504412,106.404151 C17.4504412,107.147304 18.125746,107.54128 18.8859575,107.54128 C19.9871124,107.54128 20.462985,106.680198 20.462985,105.652433 C20.462985,104.507398 19.7699091,103.840009 18.8030253,103.840009 C18.0757234,103.840009 17.4418847,104.132527 16.9331025,104.666833 L16.3400717,103.931586 C17.0575007,103.222033 17.8506218,102.929515 18.860288,102.929515 C20.3965076,102.929515 21.4647529,104.072574 21.4647529,105.601704 C21.4647529,107.348245 20.5630302,108.451774 18.8859575,108.451774 C17.5004638,108.451774 16.4493315,107.682268 16.4493315,106.287539 L16.4493315,105.301939 L18.3600623,105.301939 L18.3600623,106.187398 L17.4504412,106.187398 Z" id="Fill-60" fill="#6E5E5E"></path>
                    <path d="M81.0064269,108.35104 L81.0064269,106.287605 C81.0064269,105.250616 80.3725882,104.83424 79.8308964,104.691934 C78.8534816,105.402146 78.2518943,106.521487 78.2518943,107.649393 L78.2518943,108.35104 L77.2514428,108.35104 L77.2514428,103.029064 L78.2518943,103.029064 L78.2518943,105.302005 C78.4941088,104.449487 79.8545913,103.422381 81.5487769,102.861722 L82.0081948,103.639134 C81.5987995,103.764311 81.0228817,103.998852 80.7148479,104.17344 C81.4243787,104.466616 82.0081948,105.142569 82.0081948,106.053722 L82.0081948,108.35104 L81.0064269,108.35104 Z" id="Fill-62" fill="#6E5E5E"></path>
                    <path d="M87.1672994,108.35104 L87.1672994,107.606569 L87.1501864,107.598005 C86.8243815,108.117158 86.3063845,108.451181 85.4066364,108.451181 C84.2541426,108.451181 83.4195554,107.806852 83.4195554,106.396311 L83.4195554,103.029064 L84.4213233,103.029064 L84.4213233,106.236875 C84.4213233,107.113769 84.86297,107.549911 85.7989187,107.549911 C86.5992799,107.549911 87.1422881,106.981346 87.1422881,105.995087 L87.1422881,103.029064 L88.1433978,103.029064 L88.1433978,108.35104 L87.1672994,108.35104 Z" id="Fill-64" fill="#6E5E5E"></path>
                    <path d="M87.7869211,101.392875 C87.7869211,101.23344 87.6947743,101.074664 87.5275936,101.074664 C87.3610711,101.074664 87.2518112,101.23344 87.2518112,101.392875 C87.2518112,101.558899 87.3610711,101.69264 87.5275936,101.69264 C87.6947743,101.69264 87.7869211,101.558899 87.7869211,101.392875 L87.7869211,101.392875 Z M83.8640981,102.18544 L83.8640981,102.101769 L84.4479142,101.383652 L86.7015629,101.383652 C86.7094612,100.958052 87.0859469,100.581864 87.5275936,100.581864 C87.9870114,100.581864 88.3450678,100.958052 88.3450678,101.392875 C88.3450678,101.842852 87.9870114,102.18544 87.5275936,102.18544 L83.8640981,102.18544 Z" id="Fill-66" fill="#6E5E5E"></path>
                    <polygon id="Fill-68" fill="#6E5E5E" points="87.3685086 100.506296 87.3191442 100.506296 87.3191442 99.0858729 88.1280619 99.0858729 88.1280619 100.180838"></polygon>
                    <path d="M90.8163146,108.392216 L88.9049257,104.924828 L89.973171,104.924828 L91.4330403,107.515322 C92.1675824,107.323605 92.6763646,106.429581 92.6763646,105.426852 C92.6763646,104.524922 92.2597292,103.797581 91.4007889,103.797581 L90.7156113,103.797581 L90.7156113,103.76464 L90.9663824,102.929252 L91.541642,102.929252 C92.9692599,102.929252 93.6952455,104.166522 93.6952455,105.418287 C93.6952455,106.787981 92.8850114,108.259134 91.4007889,108.392216 L90.8163146,108.392216 Z" id="Fill-70" fill="#6E5E5E"></path>
                    <path d="M95.0733674,108.35104 L95.0733674,102.995464 C95.0733674,102.219369 96.0343274,101.684405 96.0343274,101.015699 C96.0343274,100.673769 95.7322174,100.481393 95.4077289,100.481393 C94.9068449,100.481393 94.5652434,100.841111 94.3217124,101.300311 L93.6378512,100.673769 C93.9386448,100.172405 94.4730965,99.6203106 95.3735029,99.6203106 C96.417395,99.6203106 97.0183241,100.214569 97.0183241,100.982758 C97.0183241,101.876781 96.0744771,102.202899 96.0744771,102.995464 L96.0744771,107.507746 L96.7175305,107.507746 L96.7175305,107.541346 L96.4002821,108.35104 L95.0733674,108.35104 Z" id="Fill-72" fill="#6E5E5E"></path>
                    <path d="M101.466253,108.35104 L101.466253,107.606569 L101.450456,107.598005 C101.125309,108.117158 100.606654,108.451181 99.7055895,108.451181 C98.5537539,108.451181 97.7198249,107.806852 97.7198249,106.396311 L97.7198249,103.029064 L98.7209346,103.029064 L98.7209346,106.236875 C98.7209346,107.113769 99.1632395,107.549911 100.097872,107.549911 C100.899549,107.549911 101.441899,106.981346 101.441899,105.995087 L101.441899,103.029064 L102.443009,103.029064 L102.443009,108.35104 L101.466253,108.35104 Z" id="Fill-74" fill="#6E5E5E"></path>
                    <path d="M107.518589,108.35104 L107.518589,106.337016 C107.168431,105.894287 106.551047,105.576734 105.941562,105.576734 C105.28337,105.576734 104.606091,105.844216 104.606091,106.662475 C104.606091,107.206664 105.098418,107.573628 105.557836,107.573628 C105.933005,107.573628 106.17522,107.499181 106.40098,107.290334 L106.884092,108.017016 C106.51748,108.326005 106.133754,108.451181 105.557836,108.451181 C104.448125,108.451181 103.604981,107.715275 103.604981,106.579464 C103.604981,105.267746 104.83185,104.683369 105.807949,104.683369 C106.5754,104.683369 107.159875,104.983793 107.518589,105.292781 L107.518589,104.942287 C107.518589,104.182005 106.851841,103.822946 106.100186,103.822946 C105.315621,103.822946 104.789726,104.089769 104.380989,104.608264 L103.647105,103.981722 C104.264489,103.230664 105.106975,102.929581 106.17522,102.929581 C106.383867,102.929581 106.63398,102.971087 106.851841,103.046193 C107.594281,103.046193 108.035928,102.861722 108.571038,102.445346 L109.155512,103.189158 C108.887628,103.404593 108.312369,103.597628 107.927985,103.639134 C108.338038,103.957346 108.520357,104.350005 108.520357,104.983793 L108.520357,108.35104 L107.518589,108.35104 Z" id="Fill-76" fill="#6E5E5E"></path>
                    <path d="M113.629308,108.35104 L113.629308,105.201205 C113.629308,104.357252 113.003367,103.839416 112.160882,103.839416 C111.467806,103.839416 110.858978,104.216264 110.633877,104.582569 C110.817512,104.741346 110.976137,104.950852 111.075523,105.193958 L111.075523,107.507746 L111.960791,107.507746 L111.960791,107.531464 L111.692907,108.35104 L110.075072,108.35104 L110.075072,105.310569 C109.982925,105.093158 109.774278,104.808546 109.57353,104.674805 L109.57353,104.599699 C109.831541,103.772216 110.901103,102.929581 112.177337,102.929581 C113.629308,102.929581 114.630417,103.755746 114.630417,105.201205 L114.630417,108.35104 L113.629308,108.35104 Z" id="Fill-78" fill="#6E5E5E"></path>
                    <path d="M118.595957,108.35104 L118.595957,105.008828 C118.595957,104.232075 118.171423,103.822946 117.486904,103.822946 C116.819497,103.822946 116.360738,104.182005 116.009921,104.700499 L115.417549,103.972499 C115.859196,103.320922 116.677328,102.929581 117.461234,102.929581 C118.839488,102.929581 119.598383,103.730052 119.598383,105.008828 L119.598383,108.35104 L118.595957,108.35104 Z" id="Fill-80" fill="#6E5E5E"></path>
                    <path d="M124.781972,103.028998 L125.783082,103.028998 L125.783082,106.329045 C125.783082,107.823915 124.81554,108.451115 123.405693,108.451115 C122.011643,108.451115 121.034887,107.823915 121.034887,106.329045 L121.034887,103.028998 L122.036654,103.028998 L122.036654,106.178833 C122.036654,107.155868 122.469745,107.54128 123.405693,107.54128 C124.35678,107.54128 124.781972,107.155868 124.781972,106.178833 L124.781972,103.028998 Z" id="Fill-82" fill="#6E5E5E"></path>
                    <path d="M124.608407,102.185506 C123.86465,102.185506 123.465786,101.834353 123.465786,101.224941 L123.465786,100.882353 L124.366193,100.882353 L124.366193,101.132706 C124.366193,101.317176 124.491249,101.417318 124.673568,101.417318 L127.195101,101.417318 L127.195101,101.475294 L126.861398,102.185506 L124.608407,102.185506 Z" id="Fill-84" fill="#6E5E5E"></path>
                    <path d="M130.983982,108.35104 L130.983982,107.606569 L130.968185,107.598005 C130.641722,108.117158 130.124383,108.451181 129.223977,108.451181 C128.072141,108.451181 127.238212,107.806852 127.238212,106.396311 L127.238212,103.029064 L128.238664,103.029064 L128.238664,106.236875 C128.238664,107.113769 128.680969,107.549911 129.615601,107.549911 C130.417279,107.549911 130.959629,106.981346 130.959629,105.995087 L130.959629,103.029064 L131.96008,103.029064 L131.96008,108.35104 L130.983982,108.35104 Z" id="Fill-86" fill="#6E5E5E"></path>
                    <path d="M137.044612,108.35104 L137.044612,105.201205 C137.044612,104.357252 136.435784,103.839416 135.593299,103.839416 C134.899565,103.839416 134.297978,104.216264 134.073534,104.582569 C134.258486,104.741346 134.415794,104.950852 134.516497,105.193958 L134.516497,108.35104 L133.515387,108.35104 L133.515387,105.310569 C133.423899,105.093158 133.213936,104.808546 133.013187,104.674805 L133.013187,104.599699 C133.272515,103.772216 134.332862,102.929581 135.609754,102.929581 C137.060408,102.929581 138.045722,103.755746 138.045722,105.201205 L138.045722,108.35104 L137.044612,108.35104 Z" id="Fill-88" fill="#6E5E5E"></path>
                    <path d="M142.012578,108.35104 L142.012578,105.008828 C142.012578,104.232075 141.586069,103.822946 140.902208,103.822946 C140.233485,103.822946 139.774726,104.182005 139.424567,104.700499 L138.831537,103.972499 C139.2745,103.320922 140.092632,102.929581 140.877197,102.929581 C142.254792,102.929581 143.013687,103.730052 143.013687,105.008828 L143.013687,108.35104 L142.012578,108.35104 Z" id="Fill-90" fill="#6E5E5E"></path>
                    <path d="M147.897075,104.424518 C147.438974,104.024612 146.936774,103.805882 146.352957,103.805882 C145.609859,103.805882 145.209678,104.039765 145.209678,104.466024 C145.209678,104.925224 145.86787,105.084 146.562262,105.234871 C147.521906,105.444376 148.573038,105.811341 148.573038,106.904988 C148.573038,107.950541 147.405406,108.451247 146.453661,108.451247 C145.476904,108.451247 144.609407,108.142259 143.965038,107.465647 L144.574523,106.746212 C145.042498,107.264706 145.794153,107.590824 146.419435,107.590824 C147.003909,107.590824 147.588383,107.347718 147.588383,106.904988 C147.588383,106.454353 146.961785,106.245506 146.235799,106.103859 C145.35119,105.927953 144.208569,105.593929 144.208569,104.492376 C144.208569,103.5384 145.150441,102.928988 146.337161,102.928988 C147.17109,102.928988 147.94644,103.271576 148.457197,103.705741 L147.897075,104.424518 Z" id="Fill-92" fill="#6E5E5E"></path>
                    <polygon id="Fill-94" fill="#6E5E5E" points="149.709012 108.35104 149.709012 103.029064 150.710779 103.029064 150.710779 107.507746 151.353175 107.507746 151.353175 107.541346 151.036584 108.35104"></polygon>
                    <path d="M153.424241,108.392216 L151.512194,104.924828 L152.580439,104.924828 L154.040967,107.515322 C154.775509,107.323605 155.283633,106.429581 155.283633,105.426852 C155.283633,104.524922 154.867655,103.797581 154.008057,103.797581 L153.323537,103.797581 L153.323537,103.76464 L153.574967,102.929252 L154.150226,102.929252 C155.577186,102.929252 156.303172,104.166522 156.303172,105.418287 C156.303172,106.787981 155.493596,108.259134 154.008057,108.392216 L153.424241,108.392216 Z" id="Fill-96" fill="#6E5E5E"></path>
                    <polygon id="Fill-98" fill="#6E5E5E" points="151.78067 102.185506 151.78067 102.101835 152.364486 101.383718 156.078004 101.383718 156.078004 102.185506"></polygon>
                    <path d="M161.261462,108.35104 L161.261462,107.606569 L161.245007,107.598005 C160.918544,108.117158 160.401864,108.451181 159.500799,108.451181 C158.349622,108.451181 157.514376,107.806852 157.514376,106.396311 L157.514376,103.029064 L158.515486,103.029064 L158.515486,106.236875 C158.515486,107.113769 158.958449,107.549911 159.893081,107.549911 C160.694101,107.549911 161.235793,106.981346 161.235793,105.995087 L161.235793,103.029064 L162.23756,103.029064 L162.23756,108.35104 L161.261462,108.35104 Z" id="Fill-100" fill="#6E5E5E"></path>
                    <path d="M167.463537,108.35104 L167.463537,105.050334 C167.463537,104.357252 167.096925,103.839416 166.395292,103.839416 C165.277024,103.839416 164.693208,104.683369 164.693208,105.543134 L164.693208,108.35104 L163.692098,108.35104 L163.692098,103.029064 L164.667539,103.029064 L164.667539,103.972499 C165.02757,103.422381 165.661408,102.929581 166.603939,102.929581 C167.622162,102.929581 168.464647,103.663511 168.464647,104.942287 L168.464647,108.35104 L167.463537,108.35104 Z" id="Fill-102" fill="#6E5E5E"></path>
                    <polygon id="Fill-104" fill="#6E5E5E" points="164.185413 102.185506 164.185413 102.101835 164.769229 101.383718 167.574443 101.383718 167.574443 100.958118 168.408372 100.589835 168.483406 100.589835 168.483406 102.185506"></polygon>
                    <polygon id="Fill-106" fill="#6E5E5E" points="167.691074 100.506296 167.639735 100.506296 167.639735 99.0858729 168.449311 99.0858729 168.449311 100.180838"></polygon>
                    <path d="M170.119407,108.35104 L170.119407,102.995464 C170.119407,102.219369 171.079051,101.684405 171.079051,101.015699 C171.079051,100.673769 170.778257,100.481393 170.452452,100.481393 C169.952884,100.481393 169.610625,100.841111 169.36841,101.300311 L168.683891,100.673769 C168.983368,100.172405 169.51782,99.6203106 170.419542,99.6203106 C171.462776,99.6203106 172.063706,100.214569 172.063706,100.982758 C172.063706,101.876781 171.120517,102.202899 171.120517,102.995464 L171.120517,107.507746 L171.76357,107.507746 L171.76357,107.541346 L171.445663,108.35104 L170.119407,108.35104 Z" id="Fill-108" fill="#6E5E5E"></path>
                    <path d="M176.520059,108.35104 L176.520059,106.287605 C176.520059,105.250616 175.88622,104.83424 175.34387,104.691934 C174.367113,105.402146 173.767501,106.521487 173.767501,107.649393 L173.767501,108.35104 L172.765075,108.35104 L172.765075,103.029064 L173.767501,103.029064 L173.767501,105.302005 C174.009715,104.449487 175.36954,103.422381 177.063067,102.861722 L177.521827,103.639134 C177.112431,103.764311 176.537172,103.998852 176.229796,104.17344 C176.938011,104.466616 177.521827,105.142569 177.521827,106.053722 L177.521827,108.35104 L176.520059,108.35104 Z" id="Fill-110" fill="#6E5E5E"></path>
                    <path d="M186.721373,109.035624 C186.429136,109.570588 185.969718,109.871671 185.345094,109.871671 C184.676371,109.871671 184.235383,109.520518 183.808875,109.520518 C183.507423,109.520518 183.274423,109.7208 183.041423,109.971153 L182.464847,109.336047 C182.814347,108.951953 183.241513,108.650871 183.758194,108.650871 C184.259736,108.650871 184.835654,109.027718 185.303628,109.027718 C185.528071,109.027718 185.828865,108.868282 185.995388,108.577741 L186.721373,109.035624 Z M185.727504,103.029129 L186.72993,103.029129 L186.72993,106.187529 C186.72993,107.598071 185.853218,108.300376 184.53486,108.300376 C183.216502,108.300376 182.340449,107.598071 182.340449,106.187529 L182.340449,105.168329 C182.340449,104.324376 181.839565,103.839482 180.995763,103.839482 C180.386935,103.839482 179.836029,104.216329 179.610269,104.582635 C179.794563,104.741412 179.952529,104.950918 180.052574,105.194024 L180.052574,107.507812 L180.937842,107.507812 L180.937842,107.531529 L180.669958,108.351106 L179.052123,108.351106 L179.052123,105.310635 C178.959976,105.093224 178.751329,104.808612 178.55058,104.674871 L178.55058,104.599765 C178.80925,103.772282 179.794563,102.928988 180.987865,102.928988 C182.39837,102.928988 183.3409,103.723529 183.3409,105.168329 L183.3409,106.028753 C183.3409,106.904988 183.68316,107.398447 184.53486,107.398447 C185.385244,107.398447 185.727504,106.904988 185.727504,106.028753 L185.727504,103.029129 Z" id="Fill-112" fill="#6E5E5E"></path>
                    <polygon id="Fill-114" fill="#6E5E5E" points="185.921802 102.285911 185.863223 102.285911 185.863223 100.506428 186.73072 100.506428 186.73072 101.884687"></polygon>
                    <path d="M191.972822,108.35104 L191.972822,105.050334 C191.972822,104.357252 191.604893,103.839416 190.904577,103.839416 C189.785651,103.839416 189.201835,104.683369 189.201835,105.543134 L189.201835,108.35104 L188.200067,108.35104 L188.200067,103.029064 L189.176165,103.029064 L189.176165,103.972499 C189.536196,103.422381 190.170035,102.929581 191.113224,102.929581 C192.13013,102.929581 192.973932,103.663511 192.973932,104.942287 L192.973932,108.35104 L191.972822,108.35104 Z" id="Fill-116" fill="#6E5E5E"></path>
                    <polygon id="Fill-118" fill="#6E5E5E" points="188.694698 102.185506 188.694698 102.101835 189.278514 101.383718 192.083727 101.383718 192.083727 100.958118 192.916998 100.589835 192.99269 100.589835 192.99269 102.185506"></polygon>
                    <polygon id="Fill-120" fill="#6E5E5E" points="192.199043 100.506296 192.14902 100.506296 192.14902 99.0858729 192.959254 99.0858729 192.959254 100.180838"></polygon>
                    <path d="M198.08354,108.35104 L198.08354,106.337016 C197.732724,105.894287 197.11534,105.576734 196.505855,105.576734 C195.846347,105.576734 195.171042,105.844216 195.171042,106.662475 C195.171042,107.206664 195.662711,107.573628 196.122787,107.573628 C196.498615,107.573628 196.740171,107.499181 196.964614,107.290334 L197.449044,108.017016 C197.082431,108.326005 196.698047,108.451181 196.122787,108.451181 C195.012418,108.451181 194.169274,107.715275 194.169274,106.579464 C194.169274,105.267746 195.396143,104.683369 196.3729,104.683369 C197.140352,104.683369 197.724826,104.983793 198.08354,105.292781 L198.08354,104.942287 C198.08354,104.182005 197.415476,103.822946 196.664479,103.822946 C195.879914,103.822946 195.354677,104.089769 194.945282,104.608264 L194.211398,103.981722 C194.828124,103.230664 195.671268,102.929581 196.740171,102.929581 C196.947501,102.929581 197.198273,102.971087 197.415476,103.046193 C198.157916,103.046193 198.599563,102.861722 199.134673,102.445346 L199.717831,103.189158 C199.452579,103.404593 198.876662,103.597628 198.492936,103.639134 C198.901673,103.957346 199.085308,104.350005 199.085308,104.983793 L199.085308,108.35104 L198.08354,108.35104 Z" id="Fill-122" fill="#6E5E5E"></path>
                    <polygon id="Fill-124" fill="#6E5E5E" points="198.334904 110.999247 198.260528 110.999247 198.260528 109.837082 197.758328 109.837082 197.758328 109.687529 197.916952 109.151906 199.103014 109.151906 199.103014 110.456376"></polygon>
                    <path d="M204.344721,108.35104 L204.344721,105.310569 C204.344721,104.424452 203.801713,103.839416 202.925002,103.839416 C201.765926,103.839416 201.280839,104.724875 201.280839,105.626805 C201.280839,106.772499 201.898881,107.514993 202.757821,107.514993 L203.535804,107.514993 L203.535804,107.557158 L203.242908,108.391887 L202.641321,108.391887 C201.131429,108.391887 200.262616,107.113769 200.262616,105.676875 C200.262616,104.156969 201.232132,102.929581 202.892092,102.929581 C204.344721,102.929581 205.345173,103.872358 205.345173,105.302005 L205.345173,108.35104 L204.344721,108.35104 Z" id="Fill-126" fill="#6E5E5E"></path>
                    <path d="M209.920067,103.028998 L210.921834,103.028998 L210.921834,106.487821 C210.921834,107.823915 209.961533,108.451115 208.860378,108.451115 C207.717099,108.451115 206.749557,107.848951 206.749557,106.504951 L206.749557,105.668245 C206.749557,104.90928 207.491339,104.474456 207.491339,104.014598 C207.491339,103.915115 207.416305,103.872292 207.341929,103.872292 L206.506684,103.872292 L206.506684,103.847256 L206.799579,103.028998 L207.499895,103.028998 C208.034347,103.028998 208.459539,103.36368 208.459539,103.905892 C208.459539,104.599633 207.750008,105.034456 207.750008,105.677468 L207.750008,106.413374 C207.750008,107.231633 208.20087,107.549845 208.878149,107.549845 C209.511329,107.549845 209.920067,107.215162 209.920067,106.396245 L209.920067,103.028998 Z" id="Fill-128" fill="#6E5E5E"></path>
                    <path d="M213.110125,106.187398 L213.110125,106.404151 C213.110125,107.147304 213.785429,107.54128 214.546299,107.54128 C215.646796,107.54128 216.12201,106.680198 216.12201,105.652433 C216.12201,104.507398 215.430251,103.840009 214.461392,103.840009 C213.735407,103.840009 213.101568,104.132527 212.592128,104.666833 L211.999755,103.931586 C212.717842,103.222033 213.510305,102.929515 214.52063,102.929515 C216.056191,102.929515 217.123778,104.072574 217.123778,105.601704 C217.123778,107.348245 216.223372,108.451774 214.546299,108.451774 C213.158831,108.451774 212.108357,107.682268 212.108357,106.287539 L212.108357,105.301939 L214.019746,105.301939 L214.019746,106.187398 L213.110125,106.187398 Z" id="Fill-130" fill="#6E5E5E"></path>
                    <path d="M219.521702,108.392216 L217.609655,104.924828 L218.677901,104.924828 L220.138428,107.515322 C220.874287,107.323605 221.382411,106.429581 221.382411,105.426852 C221.382411,104.524922 220.965117,103.797581 220.105519,103.797581 L219.420999,103.797581 L219.420999,103.76464 L219.67177,102.929252 L220.247688,102.929252 C221.674648,102.929252 222.400633,104.166522 222.400633,105.418287 C222.400633,106.787981 221.590399,108.259134 220.105519,108.392216 L219.521702,108.392216 Z" id="Fill-132" fill="#6E5E5E"></path>
                    <path d="M223.736368,108.35104 L223.736368,102.368922 C223.736368,101.60864 223.051848,100.915558 222.250829,100.688922 C222.551622,100.155275 223.386868,99.6203106 224.445898,99.6203106 C225.055384,99.6203106 225.706994,99.8047812 226.224333,100.080828 L225.780711,100.815416 C225.530598,100.665205 224.929011,100.447793 224.463011,100.447793 C224.145105,100.447793 223.912763,100.481393 223.670548,100.573628 C224.203684,100.841111 224.737477,101.467652 224.737477,102.335981 L224.737477,107.507746 L225.381189,107.507746 L225.381189,107.541346 L225.063282,108.35104 L223.736368,108.35104 Z" id="Fill-134" fill="#6E5E5E"></path>
                    <path d="M229.888881,108.35104 L229.888881,106.337016 C229.537407,105.894287 228.920681,105.576734 228.311195,105.576734 C227.651687,105.576734 226.975724,105.844216 226.975724,106.662475 C226.975724,107.206664 227.468052,107.573628 227.926811,107.573628 C228.303297,107.573628 228.561967,107.499181 228.78641,107.290334 L229.254384,108.017016 C228.887771,108.326005 228.503387,108.451181 227.926811,108.451181 C226.816442,108.451181 225.975931,107.715275 225.975931,106.579464 C225.975931,105.267746 227.200826,104.683369 228.176266,104.683369 C228.945692,104.683369 229.52885,104.983793 229.888881,105.292781 L229.888881,104.875746 C229.888881,104.182005 229.278079,103.822946 228.510628,103.822946 C227.743834,103.822946 227.192928,104.124028 226.750623,104.608264 L226.016081,103.981722 C226.667032,103.263605 227.47595,102.929581 228.569865,102.929581 C229.829644,102.929581 230.889991,103.655605 230.889991,104.867181 L230.889991,108.35104 L229.888881,108.35104 Z" id="Fill-136" fill="#6E5E5E"></path>
                    <path d="M235.973272,108.35104 L235.973272,105.201205 C235.973272,104.357252 235.365103,103.839416 234.521301,103.839416 C233.828883,103.839416 233.227954,104.216264 233.002194,104.582569 C233.18583,104.741346 233.344454,104.950852 233.445157,105.193958 L233.445157,108.35104 L232.444047,108.35104 L232.444047,105.310569 C232.351901,105.093158 232.142596,104.808546 231.941847,104.674805 L231.941847,104.599699 C232.201175,103.772216 233.260863,102.929581 234.537756,102.929581 C235.990385,102.929581 236.97504,103.755746 236.97504,105.201205 L236.97504,108.35104 L235.973272,108.35104 Z" id="Fill-138" fill="#6E5E5E"></path>
                </g>
            </g>
        </g>
    </g>
</svg>