<?xml version="1.0" encoding="UTF-8"?>
<svg width="240px" height="112px" viewBox="0 0 240 112" version="1.1" xmlns="http://www.w3.org/2000/svg" xmlns:xlink="http://www.w3.org/1999/xlink">
    <title>4472A197-F7E9-481F-9DF6-0566C52B950C@1x</title>
    <defs>
        <polygon id="path-1" points="0.540243814 0.428646 15.6977423 0.428646 15.6977423 11.2766667 0.540243814 11.2766667"></polygon>
        <polygon id="path-3" points="0 112 239.68 112 239.68 0 0 0"></polygon>
    </defs>
    <g id="Branding" stroke="none" stroke-width="1" fill="none" fill-rule="evenodd">
        <g id="DOTCOM---Design-System_Branding" transform="translate(-839.000000, -1076.000000)">
            <g id="Logo/Krungsri/Horizontal/THA-Copy" transform="translate(839.000000, 1076.000000)">
                <g id="Logo_Krungsri_Horizontal_ENG" transform="translate(0.000000, -0.000000)">
                    <polygon id="Fill-1" fill="#6E5E5E" points="0 95.2 239.68 95.2 239.68 0 0 0"></polygon>
                    <path d="M36.9448312,53.0896703 L36.9448312,53.0896703 C36.9290346,53.079057 36.9191617,53.0677803 36.9191617,53.0677803 L36.9191617,53.065127 C34.8247955,50.8933737 32.2953645,47.325967 30.6900347,42.1851337 C30.6900347,42.1851337 30.6242155,41.982817 30.5254868,41.982817 C30.4247834,41.982817 30.3583061,42.1950837 30.3583061,42.1950837 C26.902141,53.5234903 18.527967,58.0049703 15.645087,58.9807337 L15.645087,58.9860403 C15.4884373,59.043087 15.4884373,59.1631503 15.5068667,59.2447403 C16.9680525,63.2366803 19.1624639,66.8823603 21.918971,70.0033437 C21.9683354,70.0471237 22.0690388,70.087587 22.2151573,70.019927 C31.1968424,64.855877 36.2951959,54.7931103 36.9711589,53.383527 C37.0481673,53.2349403 36.9823481,53.134777 36.9448312,53.0896703" id="Fill-2" fill="#FFD300"></path>
                    <path d="M57.2893417,53.0896703 L57.2893417,53.0896703 C57.3025055,53.079057 57.3123784,53.0677803 57.3123784,53.0677803 L57.3123784,53.065127 C59.4087192,50.8933737 61.9420994,47.325967 63.5441382,42.1851337 C63.5441382,42.1851337 63.6119319,41.982817 63.7086861,41.982817 C63.8028076,41.982817 63.8706013,42.1950837 63.8706013,42.1950837 C67.3313737,53.5234903 75.7114715,58.0049703 78.5844786,58.9807337 L78.5844786,58.9860403 C78.74047,59.043087 78.7444192,59.1631503 78.7259898,59.2447403 C77.2608549,63.2366803 75.0664435,66.8823603 72.3125691,70.0033437 C72.2638629,70.0471237 72.1651341,70.087587 72.0196738,70.019927 C63.0360141,64.855877 57.9383188,54.7931103 57.2557739,53.383527 C57.184031,53.2349403 57.2505084,53.134777 57.2893417,53.0896703" id="Fill-4" fill="#FFD300"></path>
                    <path d="M63.3589888,77.0331513 L63.3589888,77.0331513 C50.6624694,64.5817213 47.3346517,42.368678 47.3346517,42.368678 C47.3346517,42.368678 47.2866037,41.982618 47.1200812,41.982618 C46.9489514,41.982618 46.8982706,42.368678 46.8982706,42.368678 C46.8982706,42.368678 43.5744021,64.5817213 30.8726171,77.0331513 L30.8772245,77.0331513 C30.8772245,77.0331513 30.7508516,77.141938 30.8884137,77.231488 C35.6418748,79.8715547 41.0956519,81.3912513 46.8982706,81.4237547 C46.9713299,81.4317147 47.0417564,81.4356947 47.1200812,81.4356947 C47.1905077,81.4356947 47.2622507,81.4317147 47.3346517,81.4237547 C53.1392451,81.3912513 58.5943385,79.8715547 63.3471414,77.231488 C63.4820707,77.1406113 63.3589888,77.0331513 63.3589888,77.0331513" id="Fill-6" fill="#FFD300"></path>
                    <path d="M64.6946574,18.4732223 C64.50444,18.371069 64.4965417,18.625789 64.4965417,18.625789 C64.518262,22.6409457 65.04679,44.7498457 80.3885822,51.5131923 C80.5287771,51.5609523 80.5722178,51.4455323 80.5787997,51.4236423 C80.7288674,50.1162123 80.8216724,48.7935257 80.8216724,47.4476223 C80.8216724,35.180599 74.3595455,24.4418957 64.6946574,18.4732223" id="Fill-8" fill="#FFD300"></path>
                    <path d="M29.5395813,18.4732223 C29.7265078,18.371069 29.7344061,18.625789 29.7344061,18.625789 C29.7179513,22.6409457 29.1867905,44.7498457 13.8417073,51.5131923 C13.7048034,51.5609523 13.6659701,51.4455323 13.6554391,51.4236423 C13.5033968,50.1162123 13.4151991,48.7935257 13.4151991,47.4476223 C13.4151991,35.180599 19.8727186,24.4418957 29.5395813,18.4732223" id="Fill-10" fill="#FFD300"></path>
                    <path d="M62.6738112,17.309802 C58.2961777,15.0086987 53.3584229,13.656162 48.111318,13.5008247 C47.970465,13.4956353 47.9836288,13.672082 47.9836288,13.672082 C47.9836288,20.4128753 49.0571396,36.188932 54.2930553,46.8619653 C54.3351795,46.9641187 54.4286428,46.9263087 54.4641851,46.9057453 C54.4747162,46.8944687 54.4885382,46.889162 54.4918292,46.8745687 C55.0150916,46.3173687 63.105585,37.351092 62.789653,17.540642 C62.7817547,17.403332 62.7172519,17.3383253 62.6738112,17.309802" id="Fill-12" fill="#FFD300"></path>
                    <path d="M31.5604275,17.309802 C35.9341119,15.0086987 40.8784486,13.656162 46.116997,13.5008247 C46.2631155,13.4956353 46.2499517,13.672082 46.2499517,13.672082 C46.2499517,20.4128753 45.1757827,36.188932 39.9418417,46.8619653 C39.8957682,46.9641187 39.802305,46.9263087 39.77137,46.9057453 C39.7582062,46.8944687 39.754257,46.889162 39.7417514,46.8745687 C39.2184889,46.3173687 31.1200972,37.351092 31.4380039,17.540642 C31.4518259,17.403332 31.5202778,17.3383253 31.5604275,17.309802" id="Fill-14" fill="#FFD300"></path>
                    <path d="M116.928362,29.2355403 L120.711649,29.2355403 C120.711649,29.2355403 121.341538,29.392087 121.341538,29.9081603 L121.341538,31.7708003 L121.421179,31.7708003 C122.461122,29.6620637 124.487037,28.7937603 127.048061,28.7937603 L127.048061,32.184057 L127.048061,33.286517 C126.739369,33.286517 126.453055,33.3176937 126.172666,33.342237 C123.529368,33.606907 121.341538,35.1060403 121.341538,38.715237 L121.341538,46.237437 C121.341538,46.237437 121.43171,47.6131903 120.150211,47.6131903 L116.928362,47.6131903 L116.928362,29.2355403 Z" id="Fill-16" fill="#FEFEFE"></path>
                    <path d="M209.135568,29.2355403 L212.906348,29.2355403 C212.906348,29.2355403 213.539529,29.392087 213.539529,29.9081603 L213.539529,31.7708003 L213.605348,31.7708003 C214.650557,29.6620637 216.688318,28.7937603 219.226964,28.7937603 L219.226964,32.184057 L219.226964,33.286517 C218.935385,33.286517 218.647097,33.3176937 218.366707,33.3409103 C215.730649,33.606907 213.539529,35.1060403 213.539529,38.715237 L213.539529,46.237437 C213.539529,46.237437 213.638916,47.6131903 212.340304,47.6131903 L209.135568,47.6131903 L209.135568,29.2355403 Z" id="Fill-18" fill="#FEFEFE"></path>
                    <path d="M146.021163,30.102318 L146.021163,46.8733747 C146.021163,46.8733747 146.013265,47.6156447 145.360338,47.6156447 L141.614569,47.6156447 L141.614569,45.7967847 L141.542168,45.7967847 C140.558829,47.0823247 138.802774,48.056098 136.308885,48.056098 C133.212093,48.056098 129.640744,46.760608 129.640744,41.4128147 L129.640744,29.2353413 L133.400994,29.2353413 C133.400994,29.2353413 134.042731,29.3368313 134.042731,30.102318 L134.042731,40.1392147 C134.042731,42.6665147 135.042524,43.7769347 137.290907,43.7769347 C140.61675,43.7769347 141.614569,41.3352047 141.614569,39.1223247 L141.614569,29.2353413 L145.294519,29.2353413 C145.294519,29.2353413 146.021163,29.3368313 146.021163,30.102318" id="Fill-20" fill="#FEFEFE"></path>
                    <path d="M150.343113,29.2355403 L153.982256,29.2355403 C153.982256,29.2355403 154.742467,29.3376937 154.742467,30.046797 L154.742467,31.0444503 L154.828032,31.0444503 C156.111506,29.4464803 158.034743,28.7937603 159.794089,28.7937603 C164.119067,28.7937603 166.06929,31.0026603 166.06929,35.039707 L166.06929,46.920007 C166.06929,46.920007 166.108781,47.6131903 165.430185,47.6131903 L161.675201,47.6131903 L161.675201,36.390917 C161.675201,34.7106937 160.920255,33.075577 158.639621,33.075577 C156.514978,33.075577 154.742467,34.5269503 154.742467,37.9145937 L154.742467,46.8735737 C154.742467,46.8735737 154.753657,47.6131903 154.081643,47.6131903 L150.343113,47.6131903 L150.343113,29.2355403 Z" id="Fill-22" fill="#FEFEFE"></path>
                    <path d="M186.781532,30.06212 L186.781532,47.2391367 C186.781532,52.00784 182.879771,54.3785933 177.986115,54.3785933 C172.208508,54.3785933 169.861396,50.3170033 169.861396,48.00993 L174.486509,48.00993 C174.807049,49.2881733 176.027995,50.3170033 178.222406,50.3170033 C181.075009,50.3170033 182.380862,48.8570067 182.380862,46.5963667 L182.380862,44.63091 C180.968382,46.1645367 178.75949,46.6779567 177.178514,46.6779567 C172.625143,46.6779567 169.247961,43.2690867 169.247961,37.7342333 C169.247961,32.2126467 172.625143,28.7938267 177.178514,28.7938267 C179.809965,28.7938267 181.229026,29.6966233 182.302537,31.0027267 L182.380862,31.0027267 L182.380862,29.2356067 L186.027902,29.2356067 C186.027902,29.2356067 186.781532,29.2356067 186.781532,30.06212 M178.186205,32.8733267 C174.87221,32.8733267 173.898086,35.7740833 173.860569,37.7342333 C173.898086,39.6970367 174.87221,42.6004467 178.186205,42.6004467 C181.513365,42.6004467 182.481565,39.6970367 182.517107,37.7342333 C182.481565,35.7740833 181.513365,32.8733267 178.186205,32.8733267" id="Fill-24" fill="#FEFEFE"></path>
                    <path d="M205.385718,32.6623867 L203.305831,34.6384567 L202.875374,35.0397733 C202.775987,34.8646533 202.687131,34.6822367 202.561417,34.5071167 C201.87229,33.4424667 200.494036,32.4315467 198.279221,32.4315467 C196.223688,32.3877667 194.93429,33.1108 194.93429,34.19734 C194.93429,37.4105267 206.437508,34.6822367 206.437508,41.6293267 C206.437508,46.0544233 202.503496,48.0563633 198.320687,48.0563633 C194.350474,48.0563633 191.521566,46.81792 189.864239,45.12443 C189.506841,44.75031 189.935982,44.3655767 189.935982,44.3655767 L192.804382,42.1341233 C193.805491,43.6332567 195.708324,44.4272667 198.059385,44.4272667 C200.160333,44.4272667 201.614279,43.2690867 201.614279,42.28072 C201.614279,39.1477967 190.30786,41.7381133 190.30786,34.7459167 C190.30786,30.6027367 193.879209,28.7938267 198.399012,28.7938267 C202.071722,28.7938267 204.279955,30.39644 205.402172,31.5300767 C206.012974,32.1171267 205.385718,32.6623867 205.385718,32.6623867" id="Fill-26" fill="#FEFEFE"></path>
                    <path d="M226.252437,22.3547837 C226.252437,21.7949303 225.521186,21.7418637 225.521186,21.7418637 L221.836629,21.7418637 L221.836629,25.6018003 C221.836629,25.6018003 221.751722,26.2313037 222.481657,26.2313037 L226.252437,26.2313037 L226.252437,22.3547837 Z M221.836629,29.2355403 L225.569892,29.2355403 C225.569892,29.2355403 226.234666,29.2939137 226.234666,29.969187 L226.234666,46.8735737 C226.234666,46.8735737 226.345242,47.6131903 225.554096,47.6131903 L221.836629,47.6131903 L221.836629,29.2355403 Z" id="Fill-28" fill="#FEFEFE"></path>
                    <path d="M114.598956,29.2355403 L109.875771,29.2355403 C108.966809,29.2355403 108.242139,29.8922403 108.242139,29.8922403 L101.973521,36.1328803 L101.973521,26.1868603 C101.973521,25.380247 101.300191,24.8383037 101.300191,24.8383037 L97.5695598,21.7418637 L97.5695598,47.6131903 L101.2166,47.6131903 C102.045922,47.6131903 101.973521,46.6506937 101.973521,46.6506937 L101.973521,41.755957 C101.973521,41.5616003 102.135436,41.3632637 102.36712,41.3632637 C102.678444,41.3632637 103.066778,41.7924403 103.066778,41.7924403 L108.151967,46.8735737 C108.151967,46.8735737 109.040526,47.6131903 110.089026,47.6131903 L114.598956,47.6131903 L105.399409,38.4134203 L114.598956,29.2355403 Z" id="Fill-30" fill="#FEFEFE"></path>
                    <path d="M114.830376,63.6058253 C114.23932,63.7431353 113.692362,63.971322 113.2053,64.2585453 C112.727453,64.5530653 112.336487,64.906622 112.017922,65.3676387 C111.698699,65.8565153 111.543366,66.4157053 111.543366,67.0883253 C111.543366,67.0883253 111.543366,68.1456787 111.923801,68.8202887 C112.191027,69.3177887 112.668216,69.8066653 113.117761,70.1456287 C113.566648,70.4918887 114.05371,70.7897253 114.592769,71.0424553 C115.119322,71.2938587 115.607042,71.541282 116.064486,71.8105953 C116.497576,72.0931753 116.880643,72.3677953 117.175513,72.6888487 C117.483547,73.0205153 117.634273,73.4430587 117.634273,73.9564787 C117.634273,74.3186587 117.434841,74.6470087 117.054406,74.9408653 C116.682528,75.2320687 115.228582,75.573022 113.641023,75.0264353 C113.27112,74.8957587 111.717129,74.1130253 111.717129,74.1130253 L111.717129,76.500362 C112.188394,76.7404887 112.571462,76.942142 112.998628,77.061542 C113.409998,77.2001787 114.357136,77.495362 115.50239,77.495362 C117.085341,77.495362 118.204925,77.0900653 118.944075,76.345142 C119.672693,75.5836353 120.053786,74.6470087 120.053786,73.4782153 C120.053786,72.9634687 119.945184,72.4971453 119.735879,72.102462 C119.537764,71.7097687 119.267905,71.3575387 118.944075,71.0291887 C118.624193,70.705482 118.26153,70.4036653 117.852793,70.1655287 C117.442739,69.937342 117.054406,69.6978787 116.664756,69.4849487 C116.311307,69.298552 115.987477,69.135372 115.67352,68.980152 C115.364169,68.8415153 115.078514,68.667722 114.830376,68.4813253 C114.569732,68.3101853 114.372933,68.076692 114.224839,67.831922 C114.065557,67.6024087 113.993814,67.294622 113.993814,66.9377487 C113.993814,66.6014387 114.065557,66.3228387 114.224839,66.0933253 C114.372933,65.8744253 114.569732,65.7099187 114.802074,65.5878653 C115.062059,65.4704553 115.518186,65.3676387 115.807133,65.3430953 C117.794872,65.1308287 119.425871,66.0754153 119.425871,66.0754153 L119.425871,64.082762 C117.821858,63.5023453 116.1902,63.340492 114.830376,63.6058253" id="Fill-32" fill="#FEFEFE"></path>
                    <path d="M106.830516,64.8469883 C105.944589,63.8997483 104.611751,63.4320983 102.846481,63.4320983 C101.049617,63.4320983 99.7049314,63.8997483 98.8190052,64.8469883 C97.9205734,65.7603983 97.4809013,67.1116083 97.4809013,68.8594917 L97.4809013,77.136565 L99.0967621,77.136565 L99.0967621,77.1650883 L99.3014598,77.1650883 C99.6845274,77.1650883 99.861581,76.917665 99.861581,76.5966117 L99.861581,76.5859983 L99.8655301,76.5859983 L99.8655301,69.4485317 C99.8655301,68.8594917 99.8833013,68.3102517 99.9326657,67.8319883 C99.9813719,67.317905 100.112352,66.905975 100.306519,66.5272117 C100.49542,66.169675 100.796213,65.8744917 101.177965,65.684115 C101.57288,65.4698583 102.117862,65.367705 102.846481,65.367705 C103.504673,65.367705 104.043732,65.4698583 104.429432,65.6569183 C104.8125,65.835355 105.117901,66.1026783 105.299561,66.4429683 C105.508866,66.774635 105.632607,67.1713083 105.690527,67.628345 C105.747132,68.0767583 105.778725,68.5822183 105.778725,69.1354383 L105.778725,77.136565 L107.394586,77.136565 L107.46962,77.136565 L107.584145,77.136565 C107.977086,77.136565 108.168619,76.917665 108.168619,76.5859983 L108.168619,76.3670983 L108.168619,68.8594917 C108.168619,67.1116083 107.716442,65.7603983 106.830516,64.8469883" id="Fill-34" fill="#FEFEFE"></path>
                    <path d="M150.089907,63.6058253 C149.476472,63.7431353 148.934122,63.971322 148.448377,64.2585453 C147.964606,64.5530653 147.5664,64.906622 147.255075,65.3676387 C146.944409,65.8565153 146.785784,66.4157053 146.785784,67.0883253 C146.785784,67.0883253 146.785784,68.1456787 147.166877,68.8202887 C147.439369,69.3177887 147.918532,69.8066653 148.36347,70.1456287 C148.815648,70.4918887 149.314557,70.7897253 149.831238,71.0424553 C150.359766,71.2938587 150.85341,71.541282 151.304929,71.8105953 C151.75579,72.0931753 152.126352,72.3677953 152.429779,72.6888487 C152.729256,73.0205153 152.88064,73.4430587 152.88064,73.9564787 C152.88064,74.3186587 152.694372,74.6470087 152.308672,74.9408653 C151.922971,75.2320687 150.472975,75.573022 148.894631,75.0264353 C148.511563,74.8957587 146.959547,74.1130253 146.959547,74.1130253 L146.959547,76.500362 C147.439369,76.7404887 147.810589,76.942142 148.244996,77.061542 C148.664264,77.2001787 149.594947,77.495362 150.750732,77.495362 C152.336974,77.495362 153.444052,77.0900653 154.187151,76.345142 C154.932224,75.5836353 155.296204,74.6470087 155.296204,73.4782153 C155.296204,72.9634687 155.185628,72.4971453 154.990145,72.102462 C154.78084,71.7097687 154.522171,71.3575387 154.187151,71.0291887 C153.856739,70.705482 153.499341,70.4036653 153.090603,70.1655287 C152.697005,69.937342 152.300773,69.6978787 151.895985,69.4849487 C151.565573,69.298552 151.229895,69.135372 150.921862,68.980152 C150.615802,68.8415153 150.328831,68.667722 150.074769,68.4813253 C149.818732,68.3101853 149.610085,68.076692 149.473181,67.831922 C149.314557,67.6024087 149.241498,67.294622 149.241498,66.9377487 C149.241498,66.6014387 149.314557,66.3228387 149.473181,66.0933253 C149.610085,65.8744253 149.814783,65.7099187 150.051074,65.5878653 C150.304478,65.4704553 150.767186,65.3676387 151.070613,65.3430953 C153.036632,65.1308287 154.659733,66.0754153 154.659733,66.0754153 L154.659733,64.082762 C153.070858,63.5023453 151.430644,63.340492 150.089907,63.6058253" id="Fill-36" fill="#FEFEFE"></path>
                    <path d="M118.860484,78.8352953 C119.196162,78.8352953 119.392961,79.0920053 119.392961,79.4143853 L119.392961,82.1612487 C119.392961,82.6302253 118.876939,82.886272 118.876939,82.886272 L117.344669,83.722072 L117.344669,78.8352953 L118.860484,78.8352953 Z" id="Fill-38" fill="#FEFEFE"></path>
                    <path d="M128.615084,64.046345 C129.079109,64.046345 129.273276,64.3017283 129.273276,64.814485 L129.273276,76.3996017 C129.273276,77.0178283 128.666423,77.136565 128.666423,77.136565 L125.70456,77.136565 L122.147691,68.145745 L124.047891,68.145745 C124.691603,68.145745 124.843645,68.649215 124.843645,68.649215 L126.860345,73.918735 L126.860345,64.046345 L128.615084,64.046345 Z" id="Fill-40" fill="#FEFEFE"></path>
                    <path d="M139.99206,65.008908 L141.101772,63.5774347 C141.101772,63.5774347 141.424286,63.126368 142.017975,63.126368 L143.824053,63.126368 L143.824053,63.1548913 L141.516433,66.167088" id="Fill-42" fill="#FEFEFE"></path>
                    <path d="M154.80776,60.031321 C154.80776,60.6468943 154.682045,60.8903377 154.083749,60.8903377 L146.423713,60.8903377 L146.423713,60.8604877 L147.561068,59.3872243 C147.561068,59.3872243 147.832243,58.9394743 148.625365,58.9394743 L152.766049,58.9394743 L152.766049,57.424421 C152.766049,56.7949177 153.172812,56.578671 153.172812,56.578671 L154.80776,55.7043977 L154.80776,60.031321 Z" id="Fill-44" fill="#FEFEFE"></path>
                    <path d="M142.111899,64.8469883 C141.22334,63.8997483 139.891818,63.4320983 138.115358,63.4320983 C136.324418,63.4320983 134.978416,63.8997483 134.083934,64.8469883 C133.212488,65.7603983 132.759652,67.1116083 132.759652,68.8594917 L132.759652,77.136565 L134.382094,77.136565 L134.374196,77.1650883 L134.569679,77.1650883 C134.975783,77.1650883 135.158761,76.917665 135.158761,76.5966117 L135.158761,76.5859983 L135.158761,71.4066917 L137.276822,71.4066917 C137.744796,71.4066917 137.86722,71.293925 138.012022,71.080995 C138.03835,71.0736983 139.01379,69.4485317 139.01379,69.4485317 L135.158761,69.4485317 C135.158761,68.8594917 135.176532,68.3102517 135.216023,67.8319883 C135.262755,67.317905 135.395052,66.905975 135.58132,66.5272117 C135.782068,66.169675 136.077596,65.8744917 136.463297,65.684115 C136.854263,65.4698583 137.409118,65.367705 138.115358,65.367705 C138.790005,65.367705 139.314584,65.4698583 139.706866,65.6569183 C140.107705,65.835355 140.397309,66.1026783 140.594767,66.4429683 C140.780377,66.774635 140.912673,67.1713083 140.971911,67.628345 C141.028515,68.0767583 141.065374,68.5822183 141.065374,69.1354383 L141.065374,77.136565 L142.678602,77.136565 L142.751003,77.136565 L142.871452,77.136565 C143.251887,77.136565 143.433548,76.917665 143.433548,76.5859983 L143.433548,76.3670983 L143.433548,68.8594917 C143.433548,67.1116083 142.996508,65.7603983 142.111899,64.8469883" id="Fill-46" fill="#FEFEFE"></path>
                    <g id="Group-50" transform="translate(70.426521, 99.603333)">
                        <mask id="mask-2" fill="white">
                            <use xlink:href="#path-1"></use>
                        </mask>
                        <g id="Clip-49"></g>
                        <path d="M10.3578324,5.853386 C10.3578324,4.60698267 9.35540633,3.59539933 8.11998036,3.59539933 C6.88455439,3.59539933 5.87883735,4.60698267 5.87883735,5.853386 C5.87883735,7.09846267 6.88455439,8.10871933 8.11998036,8.10871933 C9.35540633,8.10871933 10.3578324,7.09846267 10.3578324,5.853386 M10.3143918,0.428646 C9.53245992,0.428646 8.79199417,0.591826 8.11998036,0.897622667 C7.44862475,0.591826 6.70684261,0.428646 5.92425258,0.428646 C2.94922573,0.428646 0.540243814,2.85511933 0.540243814,5.853386 C0.540243814,8.850326 2.94922573,11.2767993 5.92425258,11.2767993 C6.70684261,11.2767993 7.44862475,11.1096393 8.11998036,10.8078227 C8.79199417,11.1096393 9.53245992,11.2767993 10.3143918,11.2767993 C13.2900768,11.2767993 15.6977423,8.850326 15.6977423,5.853386 C15.6977423,2.85511933 13.2900768,0.428646 10.3143918,0.428646 M8.11998036,10.7593993 C5.43060875,10.7593993 3.25528491,8.55845933 3.25528491,5.853386 C3.25528491,3.14565933 5.43060875,0.946046 8.11998036,0.946046 C10.8067192,0.946046 12.985334,3.14565933 12.985334,5.853386 C12.985334,8.55845933 10.8067192,10.7593993 8.11998036,10.7593993" id="Fill-48" fill="#D92128" mask="url(#mask-2)"></path>
                    </g>
                    <path d="M113.837954,109.16336 C111.623139,109.16336 110.100741,107.598556 110.100741,105.47987 L110.100741,105.45798 C110.100741,103.4242 111.677111,101.747293 113.82874,101.747293 C115.110897,101.747293 115.882956,102.096206 116.624738,102.736986 L115.637451,103.930323 C115.089835,103.47594 114.60014,103.2053 113.777401,103.2053 C112.637413,103.2053 111.733715,104.21821 111.733715,105.44007 L111.733715,105.45798 C111.733715,106.76939 112.626881,107.731886 113.891926,107.731886 C114.457313,107.731886 114.965437,107.58927 115.364959,107.301383 L115.364959,106.314343 L113.787932,106.314343 L113.787932,104.919353 L116.876826,104.919353 L116.876826,108.028396 C116.146891,108.655246 115.140516,109.16336 113.837954,109.16336 L113.837954,109.16336 Z M105.854746,103.302146 L105.854746,104.919353 L108.964702,104.919353 L108.964702,106.314343 L105.854746,106.314343 L105.854746,109.045286 L104.287592,109.045286 L104.287592,101.874653 L109.776911,101.874653 L109.776911,103.302146 L105.854746,103.302146 Z M100.052128,109.15142 C98.138764,109.15142 96.9783719,108.080136 96.9783719,105.9714 L96.9783719,101.874653 L98.5415774,101.874653 L98.5415774,105.930936 C98.5415774,107.09973 99.120128,107.702036 100.071215,107.702036 C101.024935,107.702036 101.603486,107.120293 101.603486,105.982676 L101.603486,101.874653 L103.166691,101.874653 L103.166691,105.92165 C103.166691,108.089423 101.963516,109.15142 100.052128,109.15142 L100.052128,109.15142 Z M94.3094042,109.045286 L94.3094042,104.362153 L92.307843,107.42211 L92.263086,107.42211 L90.2911434,104.397973 L90.2911434,109.045286 L88.7549238,109.045286 L88.7549238,101.874653 L90.4385784,101.874653 L92.307843,104.911393 L94.1757913,101.874653 L95.863395,101.874653 L95.863395,109.045286 L94.3094042,109.045286 Z" id="Fill-51" fill="#58585B"></path>
                    <path d="M4.83099603,105.675686 L7.04581138,105.675686 C6.67459121,104.815342 6.31390212,103.943722 5.95255483,103.080726 L5.93280907,103.080726 L4.83099603,105.675686 Z M7.48219253,106.731712 L4.3932985,106.731712 C4.14647658,107.305496 3.90952754,107.888566 3.66994573,108.463676 L2.39766102,108.463676 L5.40164831,101.606136 L6.51333422,101.606136 L9.48770288,108.463676 L8.21475998,108.463676 L7.48219253,106.731712 Z" id="Fill-53" fill="#6E5E5E"></path>
                    <path d="M14.6325248,105.792233 L14.6325248,108.463477 L13.4833219,108.463477 L13.4833219,103.463933 L14.6325248,103.463933 L14.6325248,104.230747 L14.6516123,104.230747 C14.9853156,103.664923 15.4499989,103.348513 16.1819082,103.348513 C16.8670859,103.348513 17.3706026,103.675537 17.6555996,104.240033 C18.0926389,103.6364 18.7014663,103.348513 19.3846694,103.348513 C20.4970135,103.348513 21.1051827,104.173037 21.1051827,105.312643 L21.1051827,108.463477 L19.9454488,108.463477 L19.9454488,105.81147 C19.9454488,105.12094 19.7841918,104.393263 18.9568448,104.393263 C18.2348084,104.393263 17.8741193,104.95776 17.8741193,105.73386 L17.8741193,108.463477 L16.7143854,108.463477 L16.7236,105.81147 C16.7236,105.12094 16.5623431,104.393263 15.734996,104.393263 C15.0689059,104.393263 14.6325248,104.920613 14.6325248,105.792233" id="Fill-55" fill="#6E5E5E"></path>
                    <path d="M23.5129799,105.082268 L25.8416624,105.082268 C25.6613179,104.574154 25.2631118,104.259734 24.6819285,104.259734 C24.131022,104.259734 23.7038555,104.584768 23.5129799,105.082268 L23.5129799,105.082268 Z M23.3615958,105.877604 L23.3615958,105.993024 C23.3615958,106.989351 24.0079401,107.629468 24.8537166,107.629468 C25.414496,107.629468 25.8890522,107.372758 26.2694871,106.978738 L26.9823088,107.639418 C26.4787921,108.177381 25.8232331,108.578034 24.7780245,108.578034 C23.1338614,108.578034 22.2117348,107.447714 22.2117348,105.983738 C22.2117348,104.489911 23.1621637,103.348978 24.6634991,103.348978 C26.2036679,103.348978 27.0494443,104.479961 27.0974923,105.877604 L23.3615958,105.877604 Z" id="Fill-57" fill="#6E5E5E"></path>
                    <path d="M29.4598743,105.792233 L29.4598743,108.463477 L28.3100132,108.463477 L28.3100132,103.463933 L29.4598743,103.463933 L29.4598743,104.230747 L29.4789618,104.230747 C29.8120069,103.664923 30.2773485,103.348513 31.0092577,103.348513 C31.6937772,103.348513 32.1972939,103.675537 32.4822909,104.240033 C32.9193303,103.6364 33.5281577,103.348513 34.2126771,103.348513 C35.324363,103.348513 35.9318741,104.173037 35.9318741,105.312643 L35.9318741,108.463477 L34.7727983,108.463477 L34.7727983,105.81147 C34.7727983,105.12094 34.6115413,104.393263 33.7848525,104.393263 C33.0621579,104.393263 32.7014688,104.95776 32.7014688,105.73386 L32.7014688,108.463477 L31.5417349,108.463477 L31.5502914,105.81147 C31.5502914,105.12094 31.3890344,104.393263 30.5623455,104.393263 C29.8962554,104.393263 29.4598743,104.920613 29.4598743,105.792233" id="Fill-59" fill="#6E5E5E"></path>
                    <path d="M40.0616326,107.602205 C40.9172819,107.602205 41.4767449,106.902388 41.4767449,105.964435 C41.4767449,105.062965 40.907409,104.335951 40.0616326,104.335951 C39.2151979,104.335951 38.5879412,105.053678 38.5879412,105.954485 C38.5879412,106.884478 39.2151979,107.602205 40.0616326,107.602205 L40.0616326,107.602205 Z M37.447953,101.116795 L38.5780683,101.462391 L38.5780683,104.259668 L38.6076869,104.259668 C38.9874636,103.732318 39.548243,103.348911 40.3268839,103.348911 C41.611016,103.348911 42.6753121,104.412235 42.6753121,105.954485 C42.6753121,107.534545 41.6294454,108.577968 40.3268839,108.577968 C39.5199407,108.577968 38.9209862,108.185275 38.5879412,107.678488 C38.5780683,107.678488 38.5780683,107.687775 38.5780683,107.687775 C38.5688536,107.687775 38.5688536,107.678488 38.5688536,107.678488 L38.5688536,108.463875 L37.4288654,108.463875 L37.4288654,101.116795 L37.447953,101.116795 Z" id="Fill-61" fill="#6E5E5E"></path>
                    <path d="M44.9993215,105.082268 L47.328004,105.082268 C47.1483177,104.574154 46.7474789,104.259734 46.1682701,104.259734 C45.6167054,104.259734 45.1895389,104.584768 44.9993215,105.082268 L44.9993215,105.082268 Z M44.8472792,105.877604 L44.8472792,105.993024 C44.8472792,106.989351 45.4942817,107.629468 46.3394,107.629468 C46.8995212,107.629468 47.3747356,107.372758 47.7558287,106.978738 L48.4686504,107.639418 C47.9644755,108.177381 47.3089164,108.578034 46.2637079,108.578034 C44.6188866,108.578034 43.69676,107.447714 43.69676,105.983738 C43.69676,104.489911 44.6478471,103.348978 46.1498407,103.348978 C47.6880349,103.348978 48.5344695,104.479961 48.5818594,105.877604 L44.8472792,105.877604 Z" id="Fill-63" fill="#6E5E5E"></path>
                    <path d="M50.9449653,103.464132 L50.9449653,104.613026 L50.9647111,104.613026 C51.2687957,103.923822 51.8203604,103.348712 52.8366085,103.348712 L52.8366085,104.584502 C51.4392673,104.613026 50.9449653,105.523119 50.9449653,106.817282 L50.9449653,108.463676 L49.7957625,108.463676 L49.7957625,103.464132 L50.9449653,103.464132 Z" id="Fill-65" fill="#6E5E5E"></path>
                    <path d="M60.5591068,105.973655 C60.5591068,105.073512 59.9983274,104.375022 59.0577714,104.375022 C58.1363029,104.375022 57.5748653,105.073512 57.5748653,105.973655 C57.5748653,106.873798 58.1830345,107.554378 59.0577714,107.554378 C59.9410647,107.554378 60.5591068,106.873798 60.5591068,105.973655 M56.4046003,105.973655 C56.4046003,104.517638 57.4425687,103.348845 59.0577714,103.348845 C60.6821887,103.348845 61.7188407,104.517638 61.7188407,105.973655 C61.7188407,107.497332 60.5979401,108.577902 59.0577714,108.577902 C57.5287919,108.577902 56.4046003,107.497332 56.4046003,105.973655" id="Fill-67" fill="#6E5E5E"></path>
                    <path d="M63.2072756,104.479828 L62.5517166,104.479828 L62.5517166,103.464265 L63.2072756,103.464265 L63.2072756,102.966765 C63.2072756,101.950538 63.6456314,101.300472 64.766532,101.300472 C65.099577,101.300472 65.4234074,101.348232 65.7643507,101.433802 L65.7643507,102.448038 C65.5069977,102.371755 65.2792634,102.314708 65.0521872,102.314708 C64.51971,102.314708 64.3577949,102.621832 64.3577949,103.101422 L64.3577949,103.464265 L65.755136,103.464265 L65.755136,104.479828 L64.3577949,104.479828 L64.3577949,110.504222 L64.3387073,110.504222 L63.2072756,110.159952 L63.2072756,104.479828 Z" id="Fill-69" fill="#6E5E5E"></path>
                    <path d="M124.835615,107.687708 C125.480643,107.687708 126.071041,107.391198 126.071041,106.844612 C126.071041,106.298688 125.500389,105.972328 124.854703,105.972328 C124.208358,105.972328 123.75289,106.288738 123.75289,106.844612 C123.75289,107.381912 124.189271,107.687708 124.835615,107.687708 M123.466576,104.871195 L122.839319,104.171378 C123.408655,103.654642 124.199144,103.348845 125.006745,103.348845 C126.289561,103.348845 127.230775,104.000238 127.230775,105.322262 L127.230775,108.463808 L126.108558,108.463808 L126.108558,108.022028 L126.081572,108.022028 C125.709694,108.376912 125.177875,108.607752 124.569706,108.607752 C123.485664,108.607752 122.545108,107.936458 122.545108,106.844612 C122.545108,105.714292 123.466576,105.073512 124.569706,105.073512 C125.167344,105.073512 125.699163,105.283125 126.071041,105.638008 L126.099343,105.638008 L126.099343,105.370022 C126.099343,104.670205 125.614914,104.345172 124.921838,104.345172 C124.370273,104.345172 123.818709,104.574685 123.466576,104.871195" id="Fill-71" fill="#6E5E5E"></path>
                    <path d="M133.925638,107.19923 C134.694406,107.19923 135.388799,106.584983 135.388799,105.753163 C135.388799,104.929303 134.685192,104.354193 133.897336,104.354193 C133.09895,104.354193 132.528297,104.947213 132.528297,105.753163 C132.528297,106.57636 133.108164,107.19923 133.925638,107.19923 L133.925638,107.19923 Z M132.357167,108.549113 C132.813953,109.01013 133.308913,109.209793 133.830201,109.209793 C134.704937,109.209793 135.407886,108.549113 135.407886,107.620446 L135.407886,107.31465 L135.388799,107.31465 C135.008364,107.832713 134.448901,108.184943 133.6413,108.184943 C132.357167,108.184943 131.32249,107.19923 131.32249,105.753163 C131.32249,104.36348 132.366382,103.34858 133.631427,103.34858 C134.419282,103.34858 135.000466,103.73066 135.379584,104.21025 L135.398672,104.21025 L135.398672,103.464 L136.558406,103.464 L136.558406,107.69673 C136.558406,109.238316 135.436189,110.20612 133.839415,110.20612 C132.946249,110.20612 132.186038,109.852563 131.635131,109.24893 L132.357167,108.549113 Z" id="Fill-73" fill="#6E5E5E"></path>
                    <polygon id="Fill-75" fill="#6E5E5E" points="139.254162 108.463742 138.103642 108.463742 138.103642 101.116662 139.254162 101.462259"></polygon>
                    <path d="M144.716364,105.972328 C144.716364,105.073512 144.155584,104.373695 143.215028,104.373695 C142.292901,104.373695 141.731464,105.073512 141.731464,105.972328 C141.731464,106.873798 142.339633,107.553052 143.215028,107.553052 C144.098321,107.553052 144.716364,106.873798 144.716364,105.972328 M140.562515,105.972328 C140.562515,104.517638 141.599167,103.348845 143.215028,103.348845 C144.840762,103.348845 145.876097,104.517638 145.876097,105.972328 C145.876097,107.496005 144.755197,108.577902 143.215028,108.577902 C141.684074,108.577902 140.562515,107.496005 140.562515,105.972328" id="Fill-77" fill="#6E5E5E"></path>
                    <path d="M149.768512,107.600878 C150.62482,107.600878 151.184941,106.902388 151.184941,105.964435 C151.184941,105.062965 150.614288,104.334625 149.768512,104.334625 C148.924052,104.334625 148.295479,105.053678 148.295479,105.954485 C148.295479,106.883151 148.924052,107.600878 149.768512,107.600878 L149.768512,107.600878 Z M147.156149,101.116795 L148.284948,101.462391 L148.284948,104.259668 L148.315883,104.259668 C148.696318,103.730991 149.257097,103.348911 150.034422,103.348911 C151.317895,103.348911 152.383508,104.412235 152.383508,105.954485 C152.383508,107.533218 151.338299,108.577968 150.034422,108.577968 C149.227478,108.577968 148.62984,108.185275 148.295479,107.678488 C148.284948,107.678488 148.284948,107.687775 148.284948,107.687775 C148.275733,107.687775 148.275733,107.678488 148.275733,107.678488 L148.275733,108.463875 L147.137061,108.463875 L147.137061,101.116795 L147.156149,101.116795 Z" id="Fill-79" fill="#6E5E5E"></path>
                    <path d="M155.590679,107.687708 C156.237023,107.687708 156.826105,107.391198 156.826105,106.844612 C156.826105,106.298688 156.256769,105.972328 155.609767,105.972328 C154.964739,105.972328 154.507295,106.288738 154.507295,106.844612 C154.507295,107.381912 154.945651,107.687708 155.590679,107.687708 M154.22164,104.871195 L153.5957,104.171378 C154.165036,103.654642 154.952891,103.348845 155.761809,103.348845 C157.045941,103.348845 157.985839,104.000238 157.985839,105.322262 L157.985839,108.463808 L156.864938,108.463808 L156.864938,108.022028 L156.83532,108.022028 C156.466074,108.376912 155.932939,108.607752 155.32477,108.607752 C154.242044,108.607752 153.30083,107.936458 153.30083,106.844612 C153.30083,105.714292 154.22164,105.073512 155.32477,105.073512 C155.925041,105.073512 156.456859,105.283125 156.826105,105.638008 L156.855724,105.638008 L156.855724,105.370022 C156.855724,104.670205 156.371295,104.345172 155.676902,104.345172 C155.125337,104.345172 154.575089,104.574685 154.22164,104.871195" id="Fill-81" fill="#6E5E5E"></path>
                    <polygon id="Fill-83" fill="#6E5E5E" points="160.681398 108.463742 159.532195 108.463742 159.532195 101.116662 160.681398 101.462259"></polygon>
                    <mask id="mask-4" fill="white">
                        <use xlink:href="#path-3"></use>
                    </mask>
                    <g id="Clip-86"></g>
                    <path d="M168.955856,108.463477 L170.115589,108.463477 L170.115589,103.463933 L168.955856,103.463933 L168.955856,108.463477 Z M168.908466,102.668597 L170.172194,102.668597 L170.172194,101.519703 L168.908466,101.519703 L168.908466,102.668597 Z M165.47797,104.48016 L164.821753,104.48016 L164.821753,103.463933 L165.47797,103.463933 L165.47797,102.965107 C165.47797,101.95087 165.91501,101.300803 167.037227,101.300803 C167.368955,101.300803 167.692786,101.347237 168.034387,101.432807 L168.034387,102.44837 C167.777692,102.372087 167.549958,102.313713 167.322224,102.313713 C166.790405,102.313713 166.628489,102.622163 166.628489,103.099763 L166.628489,103.463933 L168.025831,103.463933 L168.025831,104.48016 L166.628489,104.48016 L166.628489,110.504553 L166.607427,110.504553 L165.47797,110.158293 L165.47797,104.48016 Z" id="Fill-85" fill="#6E5E5E" mask="url(#mask-4)"></path>
                    <path d="M172.915735,103.464132 L172.915735,104.229619 L172.934822,104.229619 C173.285639,103.675072 173.779282,103.348712 174.539494,103.348712 C175.595892,103.348712 176.318586,104.056489 176.318586,105.311516 L176.318586,108.463676 L175.158852,108.463676 L175.158852,105.809016 C175.158852,105.168899 174.940333,104.392799 174.094556,104.392799 C173.41991,104.392799 172.915735,104.890299 172.915735,105.791106 L172.915735,108.463676 L171.766532,108.463676 L171.766532,103.464132 L172.915735,103.464132 Z" id="Fill-87" fill="#6E5E5E" mask="url(#mask-4)"></path>
                    <path d="M179.707221,107.687708 C180.353565,107.687708 180.942647,107.391198 180.942647,106.844612 C180.942647,106.298688 180.371995,105.972328 179.726308,105.972328 C179.08128,105.972328 178.623837,106.288738 178.623837,106.844612 C178.623837,107.381912 179.060877,107.687708 179.707221,107.687708 M178.339498,104.871195 L177.712242,104.171378 C178.281577,103.654642 179.069433,103.348845 179.878351,103.348845 C181.162483,103.348845 182.102381,104.000238 182.102381,105.322262 L182.102381,108.463808 L180.98148,108.463808 L180.98148,108.022028 L180.951862,108.022028 C180.5813,108.376912 180.049481,108.607752 179.441311,108.607752 C178.35727,108.607752 177.417372,107.936458 177.417372,106.844612 C177.417372,105.714292 178.339498,105.073512 179.441311,105.073512 C180.040266,105.073512 180.572085,105.283125 180.942647,105.638008 L180.972265,105.638008 L180.972265,105.370022 C180.972265,104.670205 180.48652,104.345172 179.792128,104.345172 C179.241879,104.345172 178.690315,104.574685 178.339498,104.871195" id="Fill-88" fill="#6E5E5E" mask="url(#mask-4)"></path>
                    <path d="M184.751668,103.464132 L184.751668,104.229619 L184.76944,104.229619 C185.120914,103.675072 185.615216,103.348712 186.375428,103.348712 C187.430509,103.348712 188.151887,104.056489 188.151887,105.311516 L188.151887,108.463676 L186.99347,108.463676 L186.99347,105.809016 C186.99347,105.168899 186.77495,104.392799 185.929174,104.392799 C185.254527,104.392799 184.751668,104.890299 184.751668,105.791106 L184.751668,108.463676 L183.601149,108.463676 L183.601149,103.464132 L184.751668,103.464132 Z" id="Fill-89" fill="#6E5E5E" mask="url(#mask-4)"></path>
                    <path d="M189.261269,105.972328 C189.261269,104.526262 190.278176,103.348845 191.884822,103.348845 C192.77733,103.348845 193.434205,103.703728 193.948253,104.248988 L193.243988,104.929568 C192.82472,104.517638 192.464689,104.345172 191.93287,104.345172 C191.010743,104.345172 190.440091,105.034375 190.440091,105.972328 C190.440091,106.873798 191.039045,107.581575 191.93287,107.581575 C192.464689,107.581575 192.845124,107.371298 193.252544,106.968655 L193.948253,107.659185 C193.44342,108.195822 192.77733,108.577902 191.884822,108.577902 C190.317009,108.577902 189.261269,107.438958 189.261269,105.972328" id="Fill-90" fill="#6E5E5E" mask="url(#mask-4)"></path>
                    <path d="M195.197962,108.463477 L196.357696,108.463477 L196.357696,103.463933 L195.197962,103.463933 L195.197962,108.463477 Z M195.149914,102.668597 L196.414958,102.668597 L196.414958,101.519703 L195.149914,101.519703 L195.149914,102.668597 Z" id="Fill-91" fill="#6E5E5E" mask="url(#mask-4)"></path>
                    <path d="M199.900347,107.687708 C200.546692,107.687708 201.135773,107.391198 201.135773,106.844612 C201.135773,106.298688 200.566437,105.972328 199.920751,105.972328 C199.274407,105.972328 198.817622,106.288738 198.817622,106.844612 C198.817622,107.381912 199.255319,107.687708 199.900347,107.687708 M198.532625,104.871195 L197.905368,104.171378 C198.47602,103.654642 199.263876,103.348845 200.072793,103.348845 C201.354293,103.348845 202.296823,104.000238 202.296823,105.322262 L202.296823,108.463808 L201.174607,108.463808 L201.174607,108.022028 L201.146304,108.022028 C200.774426,108.376912 200.243265,108.607752 199.635754,108.607752 C198.551712,108.607752 197.610498,107.936458 197.610498,106.844612 C197.610498,105.714292 198.532625,105.073512 199.635754,105.073512 C200.233392,105.073512 200.765211,105.283125 201.135773,105.638008 L201.165392,105.638008 L201.165392,105.370022 C201.165392,104.670205 200.681621,104.345172 199.98657,104.345172 C199.435006,104.345172 198.884757,104.574685 198.532625,104.871195" id="Fill-92" fill="#6E5E5E" mask="url(#mask-4)"></path>
                    <polygon id="Fill-93" fill="#6E5E5E" mask="url(#mask-4)" points="204.991066 108.463742 203.841863 108.463742 203.841863 101.116662 204.991066 101.462259"></polygon>
                    <path d="M211.783802,107.19923 C212.553887,107.19923 213.246963,106.584983 213.246963,105.753163 C213.246963,104.929303 212.543356,104.354193 211.754184,104.354193 C210.955797,104.354193 210.386461,104.947213 210.386461,105.753163 C210.386461,106.57636 210.966328,107.19923 211.783802,107.19923 L211.783802,107.19923 Z M210.215331,108.549113 C210.672116,109.01013 211.16576,109.209793 211.688365,109.209793 C212.561785,109.209793 213.26605,108.549113 213.26605,107.620446 L213.26605,107.31465 L213.246963,107.31465 C212.867186,107.832713 212.305748,108.184943 211.498147,108.184943 C210.215331,108.184943 209.179337,107.19923 209.179337,105.753163 C209.179337,104.36348 210.224546,103.34858 211.489591,103.34858 C212.277446,103.34858 212.857313,103.73066 213.237748,104.21025 L213.256836,104.21025 L213.256836,103.464 L214.415253,103.464 L214.415253,107.69673 C214.415253,109.238316 213.295669,110.20612 211.697579,110.20612 C210.804413,110.20612 210.044201,109.852563 209.493295,109.24893 L210.215331,108.549113 Z" id="Fill-94" fill="#6E5E5E" mask="url(#mask-4)"></path>
                    <path d="M217.064738,103.464132 L217.064738,104.613026 L217.082509,104.613026 C217.387252,103.923822 217.938817,103.348712 218.955723,103.348712 L218.955723,104.584502 C217.558382,104.613026 217.064738,105.523119 217.064738,106.815956 L217.064738,108.463676 L215.914219,108.463676 L215.914219,103.464132 L217.064738,103.464132 Z" id="Fill-95" fill="#6E5E5E" mask="url(#mask-4)"></path>
                    <path d="M223.610653,105.972328 C223.610653,105.073512 223.049874,104.373695 222.108001,104.373695 C221.187191,104.373695 220.625753,105.073512 220.625753,105.972328 C220.625753,106.873798 221.233922,107.553052 222.108001,107.553052 C222.992611,107.553052 223.610653,106.873798 223.610653,105.972328 M219.456805,105.972328 C219.456805,104.517638 220.493457,103.348845 222.108001,103.348845 C223.733735,103.348845 224.770387,104.517638 224.770387,105.972328 C224.770387,107.496005 223.64817,108.577902 222.108001,108.577902 C220.57968,108.577902 219.456805,107.496005 219.456805,105.972328" id="Fill-96" fill="#6E5E5E" mask="url(#mask-4)"></path>
                    <path d="M229.385299,108.463742 L229.385299,107.696929 L229.356996,107.696929 C229.023951,108.232902 228.530307,108.577835 227.779969,108.577835 C226.753848,108.577835 225.982447,107.925779 225.982447,106.624319 L225.982447,103.464199 L227.142181,103.464199 L227.142181,106.347045 C227.142181,106.902255 227.45548,107.545025 228.206477,107.545025 C229.091087,107.545025 229.374768,106.836585 229.374768,105.781885 L229.374768,103.464199 L230.534501,103.464199 L230.534501,108.463742 L229.385299,108.463742 Z" id="Fill-97" fill="#6E5E5E" mask="url(#mask-4)"></path>
                    <path d="M234.713822,107.600878 C235.549725,107.600878 236.128934,106.873865 236.128934,105.954485 C236.128934,105.044391 235.568813,104.334625 234.713822,104.334625 C233.868045,104.334625 233.239472,105.044391 233.239472,105.954485 C233.239472,106.883151 233.868045,107.600878 234.713822,107.600878 L234.713822,107.600878 Z M232.081055,103.464331 L233.230258,103.464331 L233.230258,104.249055 L233.259876,104.249055 C233.609376,103.741605 234.190559,103.348911 234.978415,103.348911 C236.280976,103.348911 237.327501,104.382385 237.327501,105.954485 C237.327501,107.513981 236.290849,108.577968 234.978415,108.577968 C234.171472,108.577968 233.609376,108.204511 233.239472,107.687775 L233.221043,107.687775 C233.230258,108.616441 233.230258,109.555721 233.230258,110.504288 C232.603001,110.341108 232.4141,110.282735 232.081055,110.158028 L232.081055,103.464331 Z" id="Fill-98" fill="#6E5E5E" mask="url(#mask-4)"></path>
                    <path d="M119.485898,108.31018 C119.485898,109.236194 118.985014,109.765534 117.984563,109.899527 C117.959551,109.778137 117.921376,109.59373 117.870037,109.344317 C118.408438,109.248797 118.678297,108.955604 118.678297,108.46341 L118.193209,108.46341 L118.193209,107.065104 L119.485898,107.065104 L119.485898,108.31018 Z" id="Fill-99" fill="#6E5E5E" mask="url(#mask-4)"></path>
                </g>
            </g>
        </g>
    </g>
</svg>