<?xml version="1.0" encoding="utf-8"?>
<!-- Generator: Adobe Illustrator 24.3.0, SVG Export Plug-In . SVG Version: 6.00 Build 0)  -->
<svg version="1.1" id="Layer_1" xmlns="http://www.w3.org/2000/svg" xmlns:xlink="http://www.w3.org/1999/xlink" x="0px" y="0px"
	 viewBox="0 0 1002.84 336.97" style="enable-background:new 0 0 1002.84 336.97;" xml:space="preserve">
<style type="text/css">
	.st0{fill:#FFFFFF;}
	.st1{fill:#013D6A;}
</style>
<g>
	<g>
		<path class="st0" d="M11.03,11.09c326.91-0.13,653.81-0.01,980.72-0.06c-0.06,104.96,0.03,209.93-0.05,314.9
			c-326.89-0.04-653.79-0.06-980.68,0.01C11.1,220.99,11.07,116.04,11.03,11.09z M945.57,18.99c-0.53,1.69-1.62,3.02-2.99,4.08
			c-3.56,0.7-7.58,0.93-10.32,3.59c-2.11,1.89-2.22,5.15-1.28,7.64c2.19,4.32,8.36,5.11,12.14,2.48c2.62-1.92,2.64-5.97,0.61-8.32
			c3.57-1,8.45-3.12,8.32-7.51C949.98,20.02,947.74,19.55,945.57,18.99z M681.08,25.49c-0.86,3.54,2.35,6.34,5.47,7.16
			c-1.1,1.19-2.2,2.37-3.27,3.58c1.64,0.67,3.19,1.75,5.01,1.95c9.37-0.64,19.76-5.95,21.98-15.83c-2.42-0.04-4.82-0.06-7.21-0.07
			c-1.46,3.76-4.44,6.48-7.46,8.99c0.18-2.86,0.9-6.3-1.53-8.47C690.24,19.49,682.96,20.4,681.08,25.49z M639.91,42.25
			c-2.53,7.86-5.43,15.62-7.17,23.72c0.75-5.77,1-11.59,0.63-17.39c-0.28-4.36-5.1-6.87-9.07-6.35c-4.39-0.24-9.29,3.82-7.93,8.52
			c1.02,3.86,5.19,5.24,8.75,5.57c0.32,6.7-0.59,13.48,0.62,20.12c0.75,0.53,1.5,1.06,2.26,1.61c2.21,0.03,4.43,0.06,6.66,0.11
			c3-7.78,5.51-15.74,8.54-23.5c2.02,7.9,4.91,15.55,7.04,23.42c3.1-0.26,6.76,0.94,9.41-1.21c1.42-1.24,1.19-3.37,1.34-5.06
			c-0.05-9.85,0.01-19.7-0.06-29.55c-2.75,0.02-5.5,0-8.25-0.02c0.02,6.96-0.01,13.92,0.08,20.87c-1.89-7.02-4.43-13.84-6.44-20.82
			C644.18,42.26,642.04,42.26,639.91,42.25z M673.88,53.93c0.26,0.25,0.78,0.75,1.04,1c6.66-0.1,13.7-0.51,19.84,2.59
			c0.37,2.39,0.41,4.81,0.36,7.23c-3.45,0.13-7.58,1.38-8.67,5.07c-1.3,3.36,1.17,6.4,3.66,8.34c4.09,0.96,9.34,1.2,12.15-2.53
			c1.97-3.63,1.08-7.96,1.3-11.92c0-3.52,0.41-8.07-2.97-10.28c-4.95-3.16-11.06-3.02-16.68-3.73c1.65-1.02,3.27-2.59,5.38-2.33
			c4.55,0.54,9.03,3.96,13.65,1.73c1.7-0.89,4.57-1.8,4-4.22c-1.63-1.15-3.32-2.19-4.97-3.28c-0.94,0.56-1.86,1.12-2.77,1.7
			c-4.7-0.15-9.23-2.86-13.98-1.38C679.15,42.85,675.48,48.45,673.88,53.93z M726.72,43.92c-3.74,1.9-6.4,5.42-7.54,9.41
			c2.27,0,4.55,0,6.84-0.09c0.61,0.45,1.24,0.91,1.87,1.38c-2.96,0.32-5.18,3.11-4.94,6.05c-0.08,5.82,0.03,11.64-0.04,17.46
			c7.81-0.12,15.62,0.12,23.43-0.08c3.33-0.11,7.01-2.04,7.42-5.68c0.45-5.54,0.04-11.12,0.19-16.67c-0.1-2.78,0.48-5.92-1.43-8.24
			c-1.61-2.55-4.44-3.81-7.02-5.1C739.27,41.31,732.47,40.86,726.72,43.92z M772.2,44.43c-2.7,2.12-3.07,6.51-0.45,8.85
			c1.68,2.29,4.72,2.34,7.27,2.9c-0.02,1.86-0.03,3.73-0.04,5.59c-3.93,0.62-8.43,2.79-9.28,7.05c-0.87,3.55,1.43,7.2,4.76,8.45
			c3.68,1.7,7.92,0.88,11.29-1.14c1.25-2.3,1.39-4.92,1.43-7.48c4.67,1.57,7.97,5.45,10.46,9.53c2.71,0.06,5.44-0.17,7.99-1.21
			c1.53-3.92,0.97-8.16,1.04-12.27c-0.01-7.48-0.02-14.96,0.02-22.45c-2.84,0.02-5.68,0.03-8.51,0.08c0,8.32-0.04,16.65,0.03,24.97
			c-3.34-2.53-7.2-4.22-11.19-5.4c0.07-5.18,0.12-10.37-0.12-15.55C783.67,41.69,776.47,40.73,772.2,44.43z M826.08,42.27
			c0.07,9.86-0.16,19.73,0.06,29.6c0.31,6.59,8.95,8.62,13.86,5.65c2.96-1.42,4.62-5.43,2.94-8.4c-1.32-3.29-5.14-4.23-8.32-4.36
			c-0.24-7.48-0.11-14.97-0.11-22.45C831.69,42.27,828.88,42.26,826.08,42.27z M878.47,42.27c-2.33,7.85-5.64,15.45-6.63,23.64
			c0.01-6.04,0.68-12.11,0.02-18.13c-0.24-2.94-3.11-4.28-5.33-5.56c-3.45-0.26-6.84,0.3-9.83,2.06c-1.07,1.91-2.36,3.93-1.82,6.23
			c0.65,3.01,3.71,4.45,6.25,5.6c0.67-0.02,2.01-0.07,2.68-0.1c0.18,6.44-0.43,12.94,0.26,19.34c1.43,3.88,6.17,2.6,9.35,2.78
			c2.66-7.82,5.62-15.55,8.16-23.42c2.66,7.75,4.89,15.65,7.43,23.44c2.46-0.05,4.94-0.07,7.42-0.1c0.57-0.32,1.73-0.96,2.3-1.28
			c0.37-1.68,0.89-3.35,0.88-5.08c0.07-9.8-0.04-19.61,0.04-29.41c-2.81-0.02-5.62-0.04-8.41-0.05c0.14,7.91-0.28,15.83,0.63,23.71
			c-1.63-8.11-4.53-15.87-7.07-23.72C882.68,42.25,880.57,42.26,878.47,42.27z M938.05,42.27c-0.15,9.57,0.41,19.17-0.34,28.72
			c-4.77,1.49-9.8,0.67-14.7,0.91c-0.07-2.84,0.08-5.67,0.9-8.4c2.66-0.34,5.33-0.41,8.02-0.41c-0.01-2.02-0.03-4.03-0.02-6.03
			c-3.03,0.02-6.18,0.41-8.97-1c3.12-0.85,7.05-1.86,8.05-5.43c1.07-2.95-0.69-5.65-2.76-7.57c-4.03-1.03-8.87-1.59-12.21,1.42
			c-3.33,3.36-1.63,8.48-2.07,12.68c1.19,1.44,2.56,2.75,4.36,3.42c-1.38,1.44-3.35,2.83-3.26,5.05c-0.17,4.16-0.01,8.33-0.05,12.5
			c7.11-0.04,14.22-0.01,21.34-0.02c2.56,0.03,5.27-0.4,7.42-1.9c2.23-1.76,2.54-4.81,2.63-7.45c0.11-8.81-0.1-17.62,0.1-26.43
			C943.67,42.26,940.86,42.24,938.05,42.27z M617.67,91.36c-0.16,50.74-0.02,101.49-0.07,152.23c10.77,0.67,21.57,0.03,32.36,0.35
			c1.13-9.01,0.22-18.09,0.29-27.12c0.87-9.27-0.8-18.57,0.32-27.82c12.56-0.02,25.13,0.11,37.69-0.02
			c14.21-0.69,29.77-4.62,38.98-16.3c7.15-9.67,8.76-22.25,8.65-33.97c-0.13-12.44-3.27-25.98-12.89-34.59
			c-10.34-9.6-24.95-12.71-38.67-12.74C662.11,91.34,639.89,91.41,617.67,91.36z M58.2,102.7c-0.01,44-0.04,88-0.01,132.01
			c0.01,2.89,0.01,5.78-0.14,8.68c5.05,0.78,10.17,0.42,15.26,0.48c144.33-0.01,288.67,0.02,433.01-0.02
			c32.88,0.08,65.76-0.07,98.64,0.08c0.47-21.75,0.08-43.53,0.21-65.29c-0.07-29.1,0.13-58.21-0.11-87.31
			c-182.14,0.07-364.29,0.09-546.44-0.01C58.05,95.08,58.13,98.9,58.2,102.7z M761.22,119.51c-8.41,7-12.32,18.07-12.79,28.76
			c9.76-0.02,19.52-0.03,29.29-0.01c0.98-4.15,2.27-8.55,5.56-11.49c3.91-3.18,9.15-3.95,14.05-3.85
			c5.54,0.05,11.61,0.11,16.28,3.53c3.26,2.92,4.33,8.07,2.57,12.07c-2.07,3.73-6.47,5.13-10.38,5.98
			c-10.12,2.04-20.56,2.18-30.61,4.67c-7.87,1.84-15.9,4.83-21.59,10.81c-6.43,6.4-9.17,15.74-8.88,24.66
			c-0.2,9.04,3.1,18.45,10.11,24.41c9.39,7.92,22.53,10.22,34.43,8.18c11.01-1.59,20.72-7.97,28.46-15.7
			c0.57,4.3,1.24,8.63,2.74,12.72c11.1,0.07,22.21-0.01,33.31,0.05c-0.05-1.49-0.09-2.97-0.13-4.45c-1.65-1.14-3.69-2-4.58-3.9
			c-1.75-3.12-1.39-6.85-1.63-10.29c-0.17-21.01,0.16-42.02-0.16-63.03c-0.04-9.43-3.63-19.49-11.92-24.7
			c-12.28-7.26-26.95-9.39-41.03-8.89C782.71,109.5,770.33,111.78,761.22,119.51z M856.49,109.22
			c10.23,32.83,20.64,65.61,30.64,98.51c-2.68,11.99-6.35,23.77-9.45,35.67c10.63,0.13,21.26,0.02,31.89,0.05
			c11.92-44.81,24.43-89.48,36.53-134.25c-10.64-0.03-21.28-0.03-31.92,0.01c-3.36,13.98-7.85,27.66-11.05,41.67
			c-4.87-13.77-8.68-27.89-13.33-41.73C878.69,109.25,867.59,109.13,856.49,109.22z"/>
	</g>
	<path class="st0" d="M686.8,25.03c1,0.13,2.01,0.26,3.03,0.4c0.01,0.92,0.02,1.85,0.04,2.78c-1.12,0.03-2.22,0.05-3.32,0.07
		C686.62,27.19,686.7,26.11,686.8,25.03z"/>
	<path class="st0" d="M936.59,30.86c1.06,0.04,2.14,0.09,3.23,0.15c0.01,0.6,0.02,1.81,0.02,2.41c-1.11-0.01-2.22-0.02-3.31-0.03
		C936.54,32.76,936.57,31.49,936.59,30.86z"/>
	<path class="st0" d="M622.86,47.18c0.68-0.1,2.02-0.29,2.69-0.39c1.26,1.35,1.13,2.94,0.3,4.47c-1-0.03-1.98-0.06-2.96-0.08
		c-0.35-0.82-0.7-1.63-1.04-2.43C622.11,48.36,622.61,47.57,622.86,47.18z"/>
	<path class="st0" d="M776.11,47.3c1.15-0.12,2.31-0.22,3.49-0.31c0.41,0.95,0.83,1.9,1.26,2.86c-1.66,1.42-3.64,1.84-5.2,0.04
		C775.77,49.24,775.99,47.95,776.11,47.3z"/>
	<path class="st0" d="M860.71,47.24c1.44-0.08,2.89-0.13,4.36-0.15c-0.07,1.35-0.15,2.69-0.23,4.04c-1.17,0.04-2.32,0.07-3.47,0.11
		C861.11,49.91,860.9,48.58,860.71,47.24z"/>
	<path class="st0" d="M921.12,47.18c1.26-0.06,2.53-0.1,3.82-0.12c0,1.41-0.03,2.83-0.06,4.26c-1.47-0.15-2.9-0.48-4.27-0.98
		C920.77,49.28,920.94,48.23,921.12,47.18z"/>
	<path class="st0" d="M727.63,54.32c1.69-7.35,11.36-8.6,16.89-4.8c2.26,4.73,1.06,10.08,1.36,15.12c-0.22,2.46,0.7,5.92-2.08,7.22
		c-4.21,0.71-8.51,0.27-12.74,0.29c0.02-1.53,0.06-3.05,0.1-4.56c3.67-0.09,8.33-1.68,8.94-5.84
		C741.2,55.32,732.7,51.65,727.63,54.32z"/>
	<path class="st0" d="M729.88,59.19c1.26-0.29,2.52-0.58,3.8-0.86c0.21,1.64,0.24,3.3,0.08,4.96c-1.4-0.39-2.78-0.81-4.14-1.25
		C729.68,61.33,729.81,59.9,729.88,59.19z"/>
	<path class="st0" d="M775.72,72.02c-0.36-2.47,0.91-4.24,3.37-4.69c-0.07,1.72-0.15,3.44-0.25,5.15
		C777.79,72.33,776.75,72.17,775.72,72.02z"/>
	<path class="st0" d="M691.74,70.61c0.87-0.51,1.74-1.01,2.62-1.52c0.77,0.5,1.56,1,2.35,1.5c-0.03,0.72-0.06,1.44-0.07,2.16
		c-0.88,0.51-1.74,1.03-2.59,1.54C692.94,73.29,692.15,72.04,691.74,70.61z"/>
	<path class="st0" d="M832.86,70.29c0.96-0.39,1.95-0.83,2.98-1.07c0.81,0.73,1.54,1.57,2.3,2.39c-0.9,0.89-1.8,1.77-2.69,2.66
		c-0.79-0.49-1.58-0.99-2.35-1.47C833.01,71.96,832.93,71.12,832.86,70.29z"/>
	<path class="st0" d="M85.96,110.53c3.13-0.02,6.25-0.01,9.37,0.04c14.37-0.09,28.73-0.02,43.09-0.05
		c10.58,0.25,21.75,4.12,27.89,13.21c8.6,13.39,5.74,33.13-6.86,43.06c-4.91,3.81-11.05,5.32-17.09,6.12
		c-13.57,0.2-27.14,0.06-40.71,0.09c-0.02,15.14,0,30.28,0.01,45.42c-5.24,0.16-10.48,0.04-15.72,0.1
		c-0.06-28.91,0.02-57.81-0.05-86.72c5.27-0.04,10.53-0.07,15.79,0.04c-0.14,9.56,0.04,19.12-0.07,28.68
		c10.58,0.03,21.15,0.02,31.73,0.03c6.13-0.07,12.57-1.47,17.43-5.41c4.5-4.49,5.27-11.52,4.4-17.53
		c-0.61-5.69-4.72-10.64-10.03-12.59c-4.38-1.58-9.12-1.8-13.73-1.8c-15.16,0-30.32,0-45.48,0
		C85.92,118.99,85.93,114.76,85.96,110.53z"/>
	<path class="st0" d="M546.06,118.06c4.81-0.14,9.63-0.1,14.45-0.1c0.02,7.33,0,14.66,0.02,22c4.45,0.02,8.89,0,13.34,0.05
		c-0.02,3.48-0.02,6.96,0.04,10.45c-4.45,0.61-8.94,0.46-13.4,0.44c0.1,17.27-0.08,34.54,0.07,51.81c-0.3,2.51,1.69,4.18,3.5,5.52
		c3.26,0.04,6.52,0.08,9.78-0.04c0.02,3.58,0,7.16-0.08,10.75c-6.2,0.98-12.54,1.42-18.73,0.07c-6.65-2.42-8.76-9.85-8.83-16.27
		c-0.23-17.27-0.06-34.55-0.09-51.83c-3.73,0.05-7.46-0.12-11.16-0.51c0.07-3.46,0.08-6.92-0.01-10.38
		c3.71-0.03,7.42-0.07,11.14,0.01C546.09,132.7,546.17,125.38,546.06,118.06z"/>
	<path class="st0" d="M650.57,118.1c10.26,0.14,20.52-0.01,30.77,0.09c6.61,0.1,13.72,2.18,17.99,7.53c3.65,4.85,4,11.2,3.67,17.03
		c-0.24,5.55-2.13,11.47-6.7,14.96c-4.44,3.67-10.36,4.92-16,4.93c-9.93,0-19.85,0-29.77-0.01c-0.03-10.32-0.19-20.62-0.06-30.93
		C650.39,127.17,650.46,122.63,650.57,118.1z"/>
	<g>
		<path class="st0" d="M263.05,137.66c9.47-0.64,19.28,1.63,26.97,7.35c7.55,5.2,12.19,13.84,13.6,22.78
			c1.6,13.66,0.46,28.61-8.03,39.99c-5.6,8.28-15.51,12.56-25.22,13.39c-7.39,0.47-15.06,0.39-21.95-2.66
			c-9.52-4.02-16.64-12.75-19.37-22.63c-2.81-9.87-2.62-20.48-0.07-30.37c2.58-9.68,8.81-18.53,17.7-23.34
			C251.66,139.3,257.4,138.17,263.05,137.66z M260.46,149.66c-4.73,0.85-9.33,3.24-12.1,7.27c-6.43,9.07-7.88,20.83-6.24,31.61
			c1.12,6.49,3.9,13.08,9.15,17.3c5.99,4.36,14.01,5.18,21.09,3.47c4.93-1.07,9.46-4.19,11.88-8.66c3.92-7.28,5.68-15.65,5.4-23.89
			c0.03-7.81-1.8-16.23-7.51-21.91C276.44,149.46,267.92,148.35,260.46,149.66z"/>
	</g>
	<g>
		<path class="st0" d="M476.25,142.49c8.21-5.21,18.76-5.65,27.88-2.81c9.61,3.27,17.52,11.25,20.62,20.93
			c3.02,8.35,2.52,17.41,2.02,26.13c-1.04,7.82-3.25,15.85-8.32,22.07c-6.57,8.45-17.47,13.19-28.14,12.43
			c-8.92,0.23-17.53-4.28-22.77-11.45c0.02,8.13,0.01,16.27,0.05,24.4c-4.66,0.13-9.32,0.04-13.98,0.1
			c-0.09-31.35-0.05-62.7-0.02-94.05c4.49-0.02,8.99,0,13.48,0.02c0,3.24,0.01,6.48,0.09,9.72
			C470.11,147.4,472.81,144.46,476.25,142.49z M485.53,149.93c-8.59,1.15-14.83,8.46-16.73,16.6c-2.6,10.68-3.2,22.71,1.91,32.75
			c6.18,12,24.47,14.13,33.72,4.59c6.88-6.34,8.32-16.24,8.42-25.13c-0.17-8.34-1.71-17.52-7.95-23.59
			C499.96,150.07,492.26,148.95,485.53,149.93z"/>
	</g>
	<path class="st0" d="M208.79,139.31c3.77-1.52,7.87-1.14,11.83-0.96c0.02,4.65-0.01,9.3,0.01,13.96
		c-6.19-0.61-12.89-0.16-18.09,3.63c-4.98,3.59-7.91,9.61-8.49,15.65c-0.31,15.61,0.27,31.26-0.27,46.85
		c-4.62,0.18-9.24,0.07-13.85-0.02c0.1-26.13,0.04-52.27,0.02-78.41c4.42-0.05,8.85-0.02,13.27-0.02c-0.02,4.24-0.15,8.5,0.5,12.71
		C197.21,146.88,202.39,141.78,208.79,139.31z"/>
	<path class="st0" d="M335.51,150.89c4.33-4.95,9.4-9.73,15.9-11.54c7.15-1.89,15.1-1.74,21.88,1.43c4.13,1.96,6.97,5.76,9.27,9.58
		c4.52-5.68,10.69-10.3,17.98-11.53c8.5-1.42,18.22-0.98,25.24,4.59c6.02,4.82,7.91,12.89,8.18,20.26
		c0.04,18.26-0.01,36.53,0.02,54.8c-4.82,0.04-9.63,0.04-14.44,0c0.06-17.94,0.01-35.88,0.03-53.82c-0.19-4.38-0.98-9.66-5.16-12.05
		c-6.88-4.05-16.15-2.88-22.44,1.79c-5.06,3.75-6.94,10.31-7.04,16.36c-0.05,15.91,0.03,31.82-0.03,47.73
		c-4.73,0.03-9.45,0-14.18,0.01c-0.04-15.59-0.02-31.18-0.01-46.77c0.04-5.2,0.12-10.59-1.83-15.5c-1.1-2.84-3.91-4.52-6.65-5.49
		c-7.81-2.21-16.7,0.68-21.81,6.98c-4.02,5.41-4.73,12.41-4.8,18.95c-0.01,13.94-0.02,27.87,0.02,41.8c-4.66,0.01-9.31,0.04-13.97,0
		c0.06-26.17-0.02-52.34,0.04-78.5c4.62,0.03,9.25-0.07,13.87,0.13C335.51,143.69,335.53,147.29,335.51,150.89z"/>
	<path class="st0" d="M781.82,180.05c10.9-5.85,24.35-3.73,35.04-10.17c-0.11,7.95,0.89,16.38-2.67,23.8
		c-2.58,5.59-8.2,8.97-13.81,10.92c-6.25,1.96-13.54,2.68-19.45-0.66C772.7,198.83,773.32,184.64,781.82,180.05z"/>
</g>
<g>
	<g>
		<path class="st1" d="M-0.03,0.05c334.29-0.08,668.58-0.04,1002.87-0.02c-0.13,112.31,0,224.62-0.06,336.92
			c-334.26,0-668.51-0.04-1002.77,0.02C-0.04,224.67,0.05,112.36-0.03,0.05z M11.03,11.09c0.04,104.95,0.07,209.9-0.01,314.85
			c326.89-0.07,653.79-0.05,980.68-0.01c0.08-104.97-0.01-209.94,0.05-314.9C664.84,11.08,337.94,10.96,11.03,11.09z"/>
	</g>
	<g>
		<path class="st1" d="M945.57,18.99c2.17,0.56,4.41,1.03,6.48,1.96c0.13,4.39-4.75,6.51-8.32,7.51c2.03,2.35,2.01,6.4-0.61,8.32
			c-3.78,2.63-9.95,1.84-12.14-2.48c-0.94-2.49-0.83-5.75,1.28-7.64c2.74-2.66,6.76-2.89,10.32-3.59
			C943.95,22.01,945.04,20.68,945.57,18.99z M936.59,30.86c-0.02,0.63-0.05,1.9-0.06,2.53c1.09,0.01,2.2,0.02,3.31,0.03
			c0-0.6-0.01-1.81-0.02-2.41C938.73,30.95,937.65,30.9,936.59,30.86z"/>
	</g>
	<g>
		<path class="st1" d="M681.08,25.49c1.88-5.09,9.16-6,12.99-2.69c2.43,2.17,1.71,5.61,1.53,8.47c3.02-2.51,6-5.23,7.46-8.99
			c2.39,0.01,4.79,0.03,7.21,0.07c-2.22,9.88-12.61,15.19-21.98,15.83c-1.82-0.2-3.37-1.28-5.01-1.95c1.07-1.21,2.17-2.39,3.27-3.58
			C683.43,31.83,680.22,29.03,681.08,25.49z M686.8,25.03c-0.1,1.08-0.18,2.16-0.25,3.25c1.1-0.02,2.2-0.04,3.32-0.07
			c-0.02-0.93-0.03-1.86-0.04-2.78C688.81,25.29,687.8,25.16,686.8,25.03z"/>
	</g>
	<g>
		<path class="st1" d="M639.91,42.25c2.13,0.01,4.27,0.01,6.41,0.04c2.01,6.98,4.55,13.8,6.44,20.82
			c-0.09-6.95-0.06-13.91-0.08-20.87c2.75,0.02,5.5,0.04,8.25,0.02c0.07,9.85,0.01,19.7,0.06,29.55c-0.15,1.69,0.08,3.82-1.34,5.06
			c-2.65,2.15-6.31,0.95-9.41,1.21c-2.13-7.87-5.02-15.52-7.04-23.42c-3.03,7.76-5.54,15.72-8.54,23.5
			c-2.23-0.05-4.45-0.08-6.66-0.11c-0.76-0.55-1.51-1.08-2.26-1.61c-1.21-6.64-0.3-13.42-0.62-20.12c-3.56-0.33-7.73-1.71-8.75-5.57
			c-1.36-4.7,3.54-8.76,7.93-8.52c3.97-0.52,8.79,1.99,9.07,6.35c0.37,5.8,0.12,11.62-0.63,17.39
			C634.48,57.87,637.38,50.11,639.91,42.25z M622.86,47.18c-0.25,0.39-0.75,1.18-1.01,1.57c0.34,0.8,0.69,1.61,1.04,2.43
			c0.98,0.02,1.96,0.05,2.96,0.08c0.83-1.53,0.96-3.12-0.3-4.47C624.88,46.89,623.54,47.08,622.86,47.18z"/>
	</g>
	<g>
		<path class="st1" d="M673.88,53.93c1.6-5.48,5.27-11.08,11.34-12.01c4.75-1.48,9.28,1.23,13.98,1.38c0.91-0.58,1.83-1.14,2.77-1.7
			c1.65,1.09,3.34,2.13,4.97,3.28c0.57,2.42-2.3,3.33-4,4.22c-4.62,2.23-9.1-1.19-13.65-1.73c-2.11-0.26-3.73,1.31-5.38,2.33
			c5.62,0.71,11.73,0.57,16.68,3.73c3.38,2.21,2.97,6.76,2.97,10.28c-0.22,3.96,0.67,8.29-1.3,11.92
			c-2.81,3.73-8.06,3.49-12.15,2.53c-2.49-1.94-4.96-4.98-3.66-8.34c1.09-3.69,5.22-4.94,8.67-5.07c0.05-2.42,0.01-4.84-0.36-7.23
			c-6.14-3.1-13.18-2.69-19.84-2.59C674.66,54.68,674.14,54.18,673.88,53.93z M691.74,70.61c0.41,1.43,1.2,2.68,2.31,3.68
			c0.85-0.51,1.71-1.03,2.59-1.54c0.01-0.72,0.04-1.44,0.07-2.16c-0.79-0.5-1.58-1-2.35-1.5C693.48,69.6,692.61,70.1,691.74,70.61z"
			/>
	</g>
	<g>
		<path class="st1" d="M726.72,43.92c5.75-3.06,12.55-2.61,18.78-1.56c2.58,1.29,5.41,2.55,7.02,5.1c1.91,2.32,1.33,5.46,1.43,8.24
			c-0.15,5.55,0.26,11.13-0.19,16.67c-0.41,3.64-4.09,5.57-7.42,5.68c-7.81,0.2-15.62-0.04-23.43,0.08
			c0.07-5.82-0.04-11.64,0.04-17.46c-0.24-2.94,1.98-5.73,4.94-6.05c-0.63-0.47-1.26-0.93-1.87-1.38c-2.29,0.09-4.57,0.09-6.84,0.09
			C720.32,49.34,722.98,45.82,726.72,43.92z M727.63,54.32c5.07-2.67,13.57,1,12.47,7.43c-0.61,4.16-5.27,5.75-8.94,5.84
			c-0.04,1.51-0.08,3.03-0.1,4.56c4.23-0.02,8.53,0.42,12.74-0.29c2.78-1.3,1.86-4.76,2.08-7.22c-0.3-5.04,0.9-10.39-1.36-15.12
			C738.99,45.72,729.32,46.97,727.63,54.32z M729.88,59.19c-0.07,0.71-0.2,2.14-0.26,2.85c1.36,0.44,2.74,0.86,4.14,1.25
			c0.16-1.66,0.13-3.32-0.08-4.96C732.4,58.61,731.14,58.9,729.88,59.19z"/>
	</g>
	<g>
		<path class="st1" d="M772.2,44.43c4.27-3.7,11.47-2.74,14.7,1.92c0.24,5.18,0.19,10.37,0.12,15.55c3.99,1.18,7.85,2.87,11.19,5.4
			c-0.07-8.32-0.03-16.65-0.03-24.97c2.83-0.05,5.67-0.06,8.51-0.08c-0.04,7.49-0.03,14.97-0.02,22.45
			c-0.07,4.11,0.49,8.35-1.04,12.27c-2.55,1.04-5.28,1.27-7.99,1.21c-2.49-4.08-5.79-7.96-10.46-9.53
			c-0.04,2.56-0.18,5.18-1.43,7.48c-3.37,2.02-7.61,2.84-11.29,1.14c-3.33-1.25-5.63-4.9-4.76-8.45c0.85-4.26,5.35-6.43,9.28-7.05
			c0.01-1.86,0.02-3.73,0.04-5.59c-2.55-0.56-5.59-0.61-7.27-2.9C769.13,50.94,769.5,46.55,772.2,44.43z M776.11,47.3
			c-0.12,0.65-0.34,1.94-0.45,2.59c1.56,1.8,3.54,1.38,5.2-0.04c-0.43-0.96-0.85-1.91-1.26-2.86
			C778.42,47.08,777.26,47.18,776.11,47.3z M775.72,72.02c1.03,0.15,2.07,0.31,3.12,0.46c0.1-1.71,0.18-3.43,0.25-5.15
			C776.63,67.78,775.36,69.55,775.72,72.02z"/>
	</g>
	<g>
		<path class="st1" d="M826.08,42.27c2.8-0.01,5.61,0,8.43,0.04c0,7.48-0.13,14.97,0.11,22.45c3.18,0.13,7,1.07,8.32,4.36
			c1.68,2.97,0.02,6.98-2.94,8.4c-4.91,2.97-13.55,0.94-13.86-5.65C825.92,62,826.15,52.13,826.08,42.27z M832.86,70.29
			c0.07,0.83,0.15,1.67,0.24,2.51c0.77,0.48,1.56,0.98,2.35,1.47c0.89-0.89,1.79-1.77,2.69-2.66c-0.76-0.82-1.49-1.66-2.3-2.39
			C834.81,69.46,833.82,69.9,832.86,70.29z"/>
	</g>
	<g>
		<path class="st1" d="M878.47,42.27c2.1-0.01,4.21-0.02,6.33-0.05c2.54,7.85,5.44,15.61,7.07,23.72
			c-0.91-7.88-0.49-15.8-0.63-23.71c2.79,0.01,5.6,0.03,8.41,0.05c-0.08,9.8,0.03,19.61-0.04,29.41c0.01,1.73-0.51,3.4-0.88,5.08
			c-0.57,0.32-1.73,0.96-2.3,1.28c-2.48,0.03-4.96,0.05-7.42,0.1c-2.54-7.79-4.77-15.69-7.43-23.44c-2.54,7.87-5.5,15.6-8.16,23.42
			c-3.18-0.18-7.92,1.1-9.35-2.78c-0.69-6.4-0.08-12.9-0.26-19.34c-0.67,0.03-2.01,0.08-2.68,0.1c-2.54-1.15-5.6-2.59-6.25-5.6
			c-0.54-2.3,0.75-4.32,1.82-6.23c2.99-1.76,6.38-2.32,9.83-2.06c2.22,1.28,5.09,2.62,5.33,5.56c0.66,6.02-0.01,12.09-0.02,18.13
			C872.83,57.72,876.14,50.12,878.47,42.27z M860.71,47.24c0.19,1.34,0.4,2.67,0.66,4c1.15-0.04,2.3-0.07,3.47-0.11
			c0.08-1.35,0.16-2.69,0.23-4.04C863.6,47.11,862.15,47.16,860.71,47.24z"/>
	</g>
	<g>
		<path class="st1" d="M938.05,42.27c2.81-0.03,5.62-0.01,8.44,0.06c-0.2,8.81,0.01,17.62-0.1,26.43c-0.09,2.64-0.4,5.69-2.63,7.45
			c-2.15,1.5-4.86,1.93-7.42,1.9c-7.12,0.01-14.23-0.02-21.34,0.02c0.04-4.17-0.12-8.34,0.05-12.5c-0.09-2.22,1.88-3.61,3.26-5.05
			c-1.8-0.67-3.17-1.98-4.36-3.42c0.44-4.2-1.26-9.32,2.07-12.68c3.34-3.01,8.18-2.45,12.21-1.42c2.07,1.92,3.83,4.62,2.76,7.57
			c-1,3.57-4.93,4.58-8.05,5.43c2.79,1.41,5.94,1.02,8.97,1c-0.01,2,0.01,4.01,0.02,6.03c-2.69,0-5.36,0.07-8.02,0.41
			c-0.82,2.73-0.97,5.56-0.9,8.4c4.9-0.24,9.93,0.58,14.7-0.91C938.46,61.44,937.9,51.84,938.05,42.27z M921.12,47.18
			c-0.18,1.05-0.35,2.1-0.51,3.16c1.37,0.5,2.8,0.83,4.27,0.98c0.03-1.43,0.06-2.85,0.06-4.26
			C923.65,47.08,922.38,47.12,921.12,47.18z"/>
	</g>
	<g>
		<path class="st1" d="M617.67,91.36c22.22,0.05,44.44-0.02,66.66,0.02c13.72,0.03,28.33,3.14,38.67,12.74
			c9.62,8.61,12.76,22.15,12.89,34.59c0.11,11.72-1.5,24.3-8.65,33.97c-9.21,11.68-24.77,15.61-38.98,16.3
			c-12.56,0.13-25.13,0-37.69,0.02c-1.12,9.25,0.55,18.55-0.32,27.82c-0.07,9.03,0.84,18.11-0.29,27.12
			c-10.79-0.32-21.59,0.32-32.36-0.35C617.65,192.85,617.51,142.1,617.67,91.36z M650.57,118.1c-0.11,4.53-0.18,9.07-0.1,13.6
			c-0.13,10.31,0.03,20.61,0.06,30.93c9.92,0.01,19.84,0.01,29.77,0.01c5.64-0.01,11.56-1.26,16-4.93c4.57-3.49,6.46-9.41,6.7-14.96
			c0.33-5.83-0.02-12.18-3.67-17.03c-4.27-5.35-11.38-7.43-17.99-7.53C671.09,118.09,660.83,118.24,650.57,118.1z"/>
	</g>
	<g>
		<path class="st1" d="M58.2,102.7c-0.07-3.8-0.15-7.62,0.42-11.38c182.15,0.1,364.3,0.08,546.44,0.01
			c0.24,29.1,0.04,58.21,0.11,87.31c-0.13,21.76,0.26,43.54-0.21,65.29c-32.88-0.15-65.76,0-98.64-0.08
			c-144.34,0.04-288.68,0.01-433.01,0.02c-5.09-0.06-10.21,0.3-15.26-0.48c0.15-2.9,0.15-5.79,0.14-8.68
			C58.16,190.7,58.19,146.7,58.2,102.7z M85.96,110.53c-0.03,4.23-0.04,8.46-0.03,12.69c15.16,0,30.32,0,45.48,0
			c4.61,0,9.35,0.22,13.73,1.8c5.31,1.95,9.42,6.9,10.03,12.59c0.87,6.01,0.1,13.04-4.4,17.53c-4.86,3.94-11.3,5.34-17.43,5.41
			c-10.58-0.01-21.15,0-31.73-0.03c0.11-9.56-0.07-19.12,0.07-28.68c-5.26-0.11-10.52-0.08-15.79-0.04
			c0.07,28.91-0.01,57.81,0.05,86.72c5.24-0.06,10.48,0.06,15.72-0.1c-0.01-15.14-0.03-30.28-0.01-45.42
			c13.57-0.03,27.14,0.11,40.71-0.09c6.04-0.8,12.18-2.31,17.09-6.12c12.6-9.93,15.46-29.67,6.86-43.06
			c-6.14-9.09-17.31-12.96-27.89-13.21c-14.36,0.03-28.72-0.04-43.09,0.05C92.21,110.52,89.09,110.51,85.96,110.53z M546.06,118.06
			c0.11,7.32,0.03,14.64,0.04,21.97c-3.72-0.08-7.43-0.04-11.14-0.01c0.09,3.46,0.08,6.92,0.01,10.38c3.7,0.39,7.43,0.56,11.16,0.51
			c0.03,17.28-0.14,34.56,0.09,51.83c0.07,6.42,2.18,13.85,8.83,16.27c6.19,1.35,12.53,0.91,18.73-0.07
			c0.08-3.59,0.1-7.17,0.08-10.75c-3.26,0.12-6.52,0.08-9.78,0.04c-1.81-1.34-3.8-3.01-3.5-5.52c-0.15-17.27,0.03-34.54-0.07-51.81
			c4.46,0.02,8.95,0.17,13.4-0.44c-0.06-3.49-0.06-6.97-0.04-10.45c-4.45-0.05-8.89-0.03-13.34-0.05c-0.02-7.34,0-14.67-0.02-22
			C555.69,117.96,550.87,117.92,546.06,118.06z M263.05,137.66c-5.65,0.51-11.39,1.64-16.37,4.51c-8.89,4.81-15.12,13.66-17.7,23.34
			c-2.55,9.89-2.74,20.5,0.07,30.37c2.73,9.88,9.85,18.61,19.37,22.63c6.89,3.05,14.56,3.13,21.95,2.66
			c9.71-0.83,19.62-5.11,25.22-13.39c8.49-11.38,9.63-26.33,8.03-39.99c-1.41-8.94-6.05-17.58-13.6-22.78
			C282.33,139.29,272.52,137.02,263.05,137.66z M476.25,142.49c-3.44,1.97-6.14,4.91-9.09,7.49c-0.08-3.24-0.09-6.48-0.09-9.72
			c-4.49-0.02-8.99-0.04-13.48-0.02c-0.03,31.35-0.07,62.7,0.02,94.05c4.66-0.06,9.32,0.03,13.98-0.1
			c-0.04-8.13-0.03-16.27-0.05-24.4c5.24,7.17,13.85,11.68,22.77,11.45c10.67,0.76,21.57-3.98,28.14-12.43
			c5.07-6.22,7.28-14.25,8.32-22.07c0.5-8.72,1-17.78-2.02-26.13c-3.1-9.68-11.01-17.66-20.62-20.93
			C495.01,136.84,484.46,137.28,476.25,142.49z M208.79,139.31c-6.4,2.47-11.58,7.57-15.07,13.39c-0.65-4.21-0.52-8.47-0.5-12.71
			c-4.42,0-8.85-0.03-13.27,0.02c0.02,26.14,0.08,52.28-0.02,78.41c4.61,0.09,9.23,0.2,13.85,0.02c0.54-15.59-0.04-31.24,0.27-46.85
			c0.58-6.04,3.51-12.06,8.49-15.65c5.2-3.79,11.9-4.24,18.09-3.63c-0.02-4.66,0.01-9.31-0.01-13.96
			C216.66,138.17,212.56,137.79,208.79,139.31z M335.51,150.89c0.02-3.6,0-7.2,0.07-10.79c-4.62-0.2-9.25-0.1-13.87-0.13
			c-0.06,26.16,0.02,52.33-0.04,78.5c4.66,0.04,9.31,0.01,13.97,0c-0.04-13.93-0.03-27.86-0.02-41.8c0.07-6.54,0.78-13.54,4.8-18.95
			c5.11-6.3,14-9.19,21.81-6.98c2.74,0.97,5.55,2.65,6.65,5.49c1.95,4.91,1.87,10.3,1.83,15.5c-0.01,15.59-0.03,31.18,0.01,46.77
			c4.73-0.01,9.45,0.02,14.18-0.01c0.06-15.91-0.02-31.82,0.03-47.73c0.1-6.05,1.98-12.61,7.04-16.36
			c6.29-4.67,15.56-5.84,22.44-1.79c4.18,2.39,4.97,7.67,5.16,12.05c-0.02,17.94,0.03,35.88-0.03,53.82c4.81,0.04,9.62,0.04,14.44,0
			c-0.03-18.27,0.02-36.54-0.02-54.8c-0.27-7.37-2.16-15.44-8.18-20.26c-7.02-5.57-16.74-6.01-25.24-4.59
			c-7.29,1.23-13.46,5.85-17.98,11.53c-2.3-3.82-5.14-7.62-9.27-9.58c-6.78-3.17-14.73-3.32-21.88-1.43
			C344.91,141.16,339.84,145.94,335.51,150.89z"/>
	</g>
	<g>
		<path class="st1" d="M761.22,119.51c9.11-7.73,21.49-10.01,33.1-10.47c14.08-0.5,28.75,1.63,41.03,8.89
			c8.29,5.21,11.88,15.27,11.92,24.7c0.32,21.01-0.01,42.02,0.16,63.03c0.24,3.44-0.12,7.17,1.63,10.29c0.89,1.9,2.93,2.76,4.58,3.9
			c0.04,1.48,0.08,2.96,0.13,4.45c-11.1-0.06-22.21,0.02-33.31-0.05c-1.5-4.09-2.17-8.42-2.74-12.72
			c-7.74,7.73-17.45,14.11-28.46,15.7c-11.9,2.04-25.04-0.26-34.43-8.18c-7.01-5.96-10.31-15.37-10.11-24.41
			c-0.29-8.92,2.45-18.26,8.88-24.66c5.69-5.98,13.72-8.97,21.59-10.81c10.05-2.49,20.49-2.63,30.61-4.67
			c3.91-0.85,8.31-2.25,10.38-5.98c1.76-4,0.69-9.15-2.57-12.07c-4.67-3.42-10.74-3.48-16.28-3.53c-4.9-0.1-10.14,0.67-14.05,3.85
			c-3.29,2.94-4.58,7.34-5.56,11.49c-9.77-0.02-19.53-0.01-29.29,0.01C748.9,137.58,752.81,126.51,761.22,119.51z M781.82,180.05
			c-8.5,4.59-9.12,18.78-0.89,23.89c5.91,3.34,13.2,2.62,19.45,0.66c5.61-1.95,11.23-5.33,13.81-10.92
			c3.56-7.42,2.56-15.85,2.67-23.8C806.17,176.32,792.72,174.2,781.82,180.05z"/>
	</g>
	<path class="st1" d="M856.49,109.22c11.1-0.09,22.2,0.03,33.31-0.07c4.65,13.84,8.46,27.96,13.33,41.73
		c3.2-14.01,7.69-27.69,11.05-41.67c10.64-0.04,21.28-0.04,31.92-0.01c-12.1,44.77-24.61,89.44-36.53,134.25
		c-10.63-0.03-21.26,0.08-31.89-0.05c3.1-11.9,6.77-23.68,9.45-35.67C877.13,174.83,866.72,142.05,856.49,109.22z"/>
	<path class="st1" d="M260.46,149.66c7.46-1.31,15.98-0.2,21.67,5.19c5.71,5.68,7.54,14.1,7.51,21.91
		c0.28,8.24-1.48,16.61-5.4,23.89c-2.42,4.47-6.95,7.59-11.88,8.66c-7.08,1.71-15.1,0.89-21.09-3.47
		c-5.25-4.22-8.03-10.81-9.15-17.3c-1.64-10.78-0.19-22.54,6.24-31.61C251.13,152.9,255.73,150.51,260.46,149.66z"/>
	<path class="st1" d="M485.53,149.93c6.73-0.98,14.43,0.14,19.37,5.22c6.24,6.07,7.78,15.25,7.95,23.59
		c-0.1,8.89-1.54,18.79-8.42,25.13c-9.25,9.54-27.54,7.41-33.72-4.59c-5.11-10.04-4.51-22.07-1.91-32.75
		C470.7,158.39,476.94,151.08,485.53,149.93z"/>
</g>
</svg>
